<?xml version="1.0" encoding="us-ascii" standalone="no"?><svg xmlns="http://www.w3.org/2000/svg" xmlns:xlink="http://www.w3.org/1999/xlink" contentStyleType="text/css" height="342px" preserveAspectRatio="none" style="width:799px;height:342px;background:#FFFFFF;" version="1.1" viewBox="0 0 799 342" width="799px" zoomAndPan="magnify"><defs/><g><!--cluster SILO-LAPIS--><g id="cluster_SILO-LAPIS"><path d="M30,6 L113,6 A3.75,3.75 0 0 1 115.5,8.5 L122.5,28.4883 L385,28.4883 A2.5,2.5 0 0 1 387.5,30.9883 L387.5,100.98 A2.5,2.5 0 0 1 385,103.48 L30,103.48 A2.5,2.5 0 0 1 27.5,100.98 L27.5,8.5 A2.5,2.5 0 0 1 30,6 " fill="none" style="stroke:#000000;stroke-width:1.5;"/><line style="stroke:#000000;stroke-width:1.5;" x1="27.5" x2="122.5" y1="28.4883" y2="28.4883"/><text fill="#000000" font-family="sans-serif" font-size="14" font-weight="bold" lengthAdjust="spacing" textLength="82" x="31.5" y="21.5352">SILO-LAPIS</text></g><!--entity SILO--><g id="elem_SILO"><rect fill="#F1F1F1" height="46.4883" rx="2.5" ry="2.5" style="stroke:#181818;stroke-width:0.5;" width="70" x="301.5" y="41"/><rect fill="#F1F1F1" height="10" style="stroke:#181818;stroke-width:0.5;" width="15" x="351.5" y="46"/><rect fill="#F1F1F1" height="2" style="stroke:#181818;stroke-width:0.5;" width="4" x="349.5" y="48"/><rect fill="#F1F1F1" height="2" style="stroke:#181818;stroke-width:0.5;" width="4" x="349.5" y="52"/><text fill="#000000" font-family="sans-serif" font-size="14" lengthAdjust="spacing" textLength="30" x="316.5" y="74.5352">SILO</text></g><!--entity LAPIS--><g id="elem_LAPIS"><rect fill="#F1F1F1" height="46.4883" rx="2.5" ry="2.5" style="stroke:#181818;stroke-width:0.5;" width="77" x="43" y="41"/><rect fill="#F1F1F1" height="10" style="stroke:#181818;stroke-width:0.5;" width="15" x="100" y="46"/><rect fill="#F1F1F1" height="2" style="stroke:#181818;stroke-width:0.5;" width="4" x="98" y="48"/><rect fill="#F1F1F1" height="2" style="stroke:#181818;stroke-width:0.5;" width="4" x="98" y="52"/><text fill="#000000" font-family="sans-serif" font-size="14" lengthAdjust="spacing" textLength="37" x="58" y="74.5352">LAPIS</text></g><!--entity Website--><g id="elem_Website"><rect fill="#F1F1F1" height="46.4883" rx="2.5" ry="2.5" style="stroke:#181818;stroke-width:0.5;" width="149" x="7" y="166.48"/><rect fill="#F1F1F1" height="10" style="stroke:#181818;stroke-width:0.5;" width="15" x="136" y="171.48"/><rect fill="#F1F1F1" height="2" style="stroke:#181818;stroke-width:0.5;" width="4" x="134" y="173.48"/><rect fill="#F1F1F1" height="2" style="stroke:#181818;stroke-width:0.5;" width="4" x="134" y="177.48"/><text fill="#000000" font-family="sans-serif" font-size="14" lengthAdjust="spacing" textLength="109" x="22" y="200.0152">Loculus Website</text></g><!--entity Backend--><g id="elem_Backend"><rect fill="#F1F1F1" height="46.4883" rx="2.5" ry="2.5" style="stroke:#181818;stroke-width:0.5;" width="153" x="329" y="166.48"/><rect fill="#F1F1F1" height="10" style="stroke:#181818;stroke-width:0.5;" width="15" x="462" y="171.48"/><rect fill="#F1F1F1" height="2" style="stroke:#181818;stroke-width:0.5;" width="4" x="460" y="173.48"/><rect fill="#F1F1F1" height="2" style="stroke:#181818;stroke-width:0.5;" width="4" x="460" y="177.48"/><text fill="#000000" font-family="sans-serif" font-size="14" lengthAdjust="spacing" textLength="113" x="344" y="200.0152">Loculus Backend</text></g><!--entity Postgres--><g id="elem_Postgres"><rect fill="#F1F1F1" height="46.4883" rx="2.5" ry="2.5" style="stroke:#181818;stroke-width:0.5;" width="121" x="672" y="166.48"/><rect fill="#F1F1F1" height="10" style="stroke:#181818;stroke-width:0.5;" width="15" x="773" y="171.48"/><rect fill="#F1F1F1" height="2" style="stroke:#181818;stroke-width:0.5;" width="4" x="771" y="173.48"/><rect fill="#F1F1F1" height="2" style="stroke:#181818;stroke-width:0.5;" width="4" x="771" y="177.48"/><text fill="#000000" font-family="sans-serif" font-size="14" lengthAdjust="spacing" textLength="81" x="687" y="200.0152">Postgres DB</text></g><!--entity Preprocessing--><g id="elem_Preprocessing"><rect fill="#F1F1F1" height="46.4883" rx="2.5" ry="2.5" style="stroke:#181818;stroke-width:0.5;" width="195" x="337" y="289.97"/><rect fill="#F1F1F1" height="10" style="stroke:#181818;stroke-width:0.5;" width="15" x="512" y="294.97"/><rect fill="#F1F1F1" height="2" style="stroke:#181818;stroke-width:0.5;" width="4" x="510" y="296.97"/><rect fill="#F1F1F1" height="2" style="stroke:#181818;stroke-width:0.5;" width="4" x="510" y="300.97"/><text fill="#000000" font-family="sans-serif" font-size="14" lengthAdjust="spacing" textLength="155" x="352" y="323.5052">Preprocessing Pipeline</text></g><!--entity Ingest--><g id="elem_Ingest"><rect fill="#F1F1F1" height="46.4883" rx="2.5" ry="2.5" style="stroke:#181818;stroke-width:0.5;" width="140" x="465.5" y="41"/><rect fill="#F1F1F1" height="10" style="stroke:#181818;stroke-width:0.5;" width="15" x="585.5" y="46"/><rect fill="#F1F1F1" height="2" style="stroke:#181818;stroke-width:0.5;" width="4" x="583.5" y="48"/><rect fill="#F1F1F1" height="2" style="stroke:#181818;stroke-width:0.5;" width="4" x="583.5" y="52"/><text fill="#000000" font-family="sans-serif" font-size="14" lengthAdjust="spacing" textLength="100" x="480.5" y="74.5352">Ingest Pipeline</text></g><!--entity Keycloak--><g id="elem_Keycloak"><rect fill="#F1F1F1" height="46.4883" rx="2.5" ry="2.5" style="stroke:#181818;stroke-width:0.5;" width="100" x="173.5" y="289.97"/><rect fill="#F1F1F1" height="10" style="stroke:#181818;stroke-width:0.5;" width="15" x="253.5" y="294.97"/><rect fill="#F1F1F1" height="2" style="stroke:#181818;stroke-width:0.5;" width="4" x="251.5" y="296.97"/><rect fill="#F1F1F1" height="2" style="stroke:#181818;stroke-width:0.5;" width="4" x="251.5" y="300.97"/><text fill="#000000" font-family="sans-serif" font-size="14" lengthAdjust="spacing" textLength="60" x="188.5" y="323.5052">Keycloak</text></g><!--link Website to Keycloak--><g id="link_Website_Keycloak"><path d="M98.4,213.43 C109.68,227.73 125.36,246.04 141.5,259.97 C154.15,270.89 164.173,278.0307 177.973,286.5407 " fill="none" id="Website-to-Keycloak" style="stroke:#181818;stroke-width:1.0;"/><polygon fill="#181818" points="183.08,289.69,177.519,281.5613,178.8241,287.0656,173.3199,288.3707,183.08,289.69" style="stroke:#181818;stroke-width:1.0;"/><text fill="#000000" font-family="sans-serif" font-size="13" lengthAdjust="spacing" textLength="78" x="142.5" y="256.5384">authenticate</text></g><!--link Backend to Keycloak--><g id="link_Backend_Keycloak"><path d="M353.75,213.43 C336.58,221.81 317.72,231.97 301.5,242.97 C281.27,256.69 264.9971,271.0332 250.0571,285.4532 " fill="none" id="Backend-to-Keycloak" style="stroke:#181818;stroke-width:1.0;"/><polygon fill="#181818" points="245.74,289.62,254.9936,286.2478,249.3376,286.1476,249.4378,280.4917,245.74,289.62" style="stroke:#181818;stroke-width:1.0;"/><text fill="#000000" font-family="sans-serif" font-size="13" lengthAdjust="spacing" textLength="78" x="302.5" y="256.5384">authenticate</text></g><!--link Website to Backend--><g id="link_Website_Backend"><path d="M156.24,189.73 C207.91,189.73 270.47,189.73 322.6,189.73 " fill="none" id="Website-to-Backend" style="stroke:#181818;stroke-width:1.0;"/><polygon fill="#181818" points="328.6,189.73,319.6,185.73,323.6,189.73,319.6,193.73,328.6,189.73" style="stroke:#181818;stroke-width:1.0;"/><text fill="#000000" font-family="sans-serif" font-size="13" lengthAdjust="spacing" textLength="137" x="174" y="183.2984">upload sequence data</text></g><!--link Backend to Postgres--><g id="link_Backend_Postgres"><path d="M488.17,189.73 C545.93,189.73 612.07,189.73 665.59,189.73 " fill="none" id="Backend-Postgres" style="stroke:#181818;stroke-width:1.0;"/><polygon fill="#181818" points="482.17,189.73,491.17,193.73,487.17,189.73,491.17,185.73,482.17,189.73" style="stroke:#181818;stroke-width:1.0;"/><polygon fill="#181818" points="671.59,189.73,662.59,185.73,666.59,189.73,662.59,193.73,671.59,189.73" style="stroke:#181818;stroke-width:1.0;"/><text fill="#000000" font-family="sans-serif" font-size="13" lengthAdjust="spacing" textLength="153" x="500.5" y="183.2984">persist sequence entries</text></g><!--link Backend to Preprocessing--><g id="link_Backend_Preprocessing"><path d="M394.87,213.32 C389.87,227.07 386.08,244.85 391.5,259.97 C395.43,270.92 398.7829,276.7087 406.2829,285.2187 " fill="none" id="Backend-to-Preprocessing" style="stroke:#181818;stroke-width:1.0;"/><polygon fill="#181818" points="410.25,289.72,407.3002,280.3233,406.9441,285.9689,401.2984,285.6127,410.25,289.72" style="stroke:#181818;stroke-width:1.0;"/><text fill="#000000" font-family="sans-serif" font-size="13" lengthAdjust="spacing" textLength="171" x="392.5" y="256.5384">fetch new sequence entries</text></g><!--reverse link Backend to Preprocessing--><g id="link_Backend_Preprocessing"><path d="M488.1926,197.1213 C520.2126,203.5513 548.62,215.72 568.5,242.97 C585.48,266.24 563.12,282.3 532.11,293.04 " fill="none" id="Backend-backto-Preprocessing" style="stroke:#181818;stroke-width:1.0;"/><polygon fill="#181818" points="482.31,195.94,490.3463,201.6336,487.2121,196.9244,491.9214,193.7902,482.31,195.94" style="stroke:#181818;stroke-width:1.0;"/><text fill="#000000" font-family="sans-serif" font-size="13" lengthAdjust="spacing" textLength="212" x="574.5" y="256.5384">submit enriched sequence entries</text></g><!--link Ingest to Backend--><g id="link_Ingest_Backend"><path d="M526.96,87.84 C520.39,102.97 510.12,122.58 496.5,136.48 C485.03,148.19 475.602,155.193 461.422,163.153 " fill="none" id="Ingest-to-Backend" style="stroke:#181818;stroke-width:1.0;"/><polygon fill="#181818" points="456.19,166.09,465.996,165.1725,460.55,163.6425,462.08,158.1965,456.19,166.09" style="stroke:#181818;stroke-width:1.0;"/><text fill="#000000" font-family="sans-serif" font-size="13" lengthAdjust="spacing" textLength="154" x="509.5" y="133.0484">new Genbank sequences</text></g><!--reverse link SILO to Backend--><g id="link_SILO_Backend"><path d="M328.8757,93.8479 C326.0057,108.4879 325.91,121.59 333.5,136.48 C339.6,148.45 349.87,158.32 360.77,166.13 " fill="none" id="SILO-backto-Backend" style="stroke:#181818;stroke-width:1.0;"/><polygon fill="#181818" points="330.03,87.96,324.3733,96.0224,329.0681,92.8666,332.2239,97.5614,330.03,87.96" style="stroke:#181818;stroke-width:1.0;"/><text fill="#000000" font-family="sans-serif" font-size="13" lengthAdjust="spacing" textLength="157" x="334.5" y="133.0484">provide sequence entries</text></g><!--link LAPIS to Website--><g id="link_LAPIS_Website"><path d="M81.5,87.89 C81.5,110.17 81.5,137.99 81.5,160.22 " fill="none" id="LAPIS-to-Website" style="stroke:#181818;stroke-width:1.0;"/><polygon fill="#181818" points="81.5,166.22,85.5,157.22,81.5,161.22,77.5,157.22,81.5,166.22" style="stroke:#181818;stroke-width:1.0;"/><text fill="#000000" font-family="sans-serif" font-size="13" lengthAdjust="spacing" textLength="145" x="82.5" y="133.0484">sequence query results</text></g><!--reverse link LAPIS to SILO--><g id="link_LAPIS_SILO"><path d="M126.23,64.24 C175.41,64.24 253.58,64.24 301.11,64.24 " fill="none" id="LAPIS-backto-SILO" style="stroke:#181818;stroke-width:1.0;"/><polygon fill="#181818" points="120.23,64.24,129.23,68.24,125.23,64.24,129.23,60.24,120.23,64.24" style="stroke:#181818;stroke-width:1.0;"/><text fill="#000000" font-family="sans-serif" font-size="13" lengthAdjust="spacing" textLength="145" x="138.25" y="57.8084">sequence query results</text></g><!--SRC=[VPBTQeGm48NlynJ3tkS5H1Qw58fKgB0NlOvnLeDkukQdPIbzzux_MhlrnZZvvfpCCHVJ56ZXdAHlF7tAaZDyCQ17ccjhD6hVR_qgzI3xPcmf7L8ZGnCSl6FkbCS3Y7dz5tOIiaPTzDYuNcEPSRwqwE3vr2FJzyOoizXQ8z4vfKl8L8kDqeFpPclTa-WIdT_2Gsqj_OftsHXHCpQE09mVvof488Al25HIq7ZZ-Vzb5g7ZD2yXeIMs08UtW5eY5CABMIucTCuXWXQjKtJq6IPjgoYIjVqsaWWkw6K56ZyVjyMSxzfSoA_A4sgLhB3ODuynyiqqdSqBwbpeUkwWFzPTeDvb8SdiGnMurnskO2SxvHKj4Bti7IYDqFW9ZNb_GHzZx0S0]--></g></svg>