<svg xmlns="http://www.w3.org/2000/svg" xmlns:xlink="http://www.w3.org/1999/xlink" contentStyleType="text/css" data-diagram-type="DESCRIPTION" height="380px" preserveAspectRatio="none" style="width:753px;height:380px;background:#FFFFFF;" version="1.1" viewBox="0 0 753 380" width="753px" zoomAndPan="magnify"><defs/><g><!--cluster SILO-LAPIS--><g class="cluster" data-entity="SILO-LAPIS" data-source-line="16" data-uid="ent0009" id="cluster_SILO-LAPIS"><rect fill="none" height="97.49" rx="2.5" ry="2.5" style="stroke:#181818;stroke-width:1;" width="314" x="275.52" y="7"/><path d="M366.4438,7 L366.4438,16.4883 L356.4438,26.4883 L275.52,26.4883" fill="none" style="stroke:#181818;stroke-width:1;"/><text fill="#000000" font-family="sans-serif" font-size="14" font-weight="bold" lengthAdjust="spacing" textLength="80.9238" x="278.52" y="21.5352">SILO-LAPIS</text></g><!--entity SILO--><g class="entity" data-entity="SILO" data-source-line="17" data-uid="ent0010" id="entity_SILO"><rect fill="#F1F1F1" height="46.4883" rx="2.5" ry="2.5" style="stroke:#181818;stroke-width:0.5;" width="69.9141" x="503.56" y="42"/><rect fill="#F1F1F1" height="10" style="stroke:#181818;stroke-width:0.5;" width="15" x="553.4741" y="47"/><rect fill="#F1F1F1" height="2" style="stroke:#181818;stroke-width:0.5;" width="4" x="551.4741" y="49"/><rect fill="#F1F1F1" height="2" style="stroke:#181818;stroke-width:0.5;" width="4" x="551.4741" y="53"/><text fill="#000000" font-family="sans-serif" font-size="14" lengthAdjust="spacing" textLength="29.9141" x="518.56" y="75.5352">SILO</text></g><!--entity LAPIS--><g class="entity" data-entity="LAPIS" data-source-line="18" data-uid="ent0011" id="entity_LAPIS"><rect fill="#F1F1F1" height="46.4883" rx="2.5" ry="2.5" style="stroke:#181818;stroke-width:0.5;" width="76.4355" x="291.3" y="42"/><rect fill="#F1F1F1" height="10" style="stroke:#181818;stroke-width:0.5;" width="15" x="347.7355" y="47"/><rect fill="#F1F1F1" height="2" style="stroke:#181818;stroke-width:0.5;" width="4" x="345.7355" y="49"/><rect fill="#F1F1F1" height="2" style="stroke:#181818;stroke-width:0.5;" width="4" x="345.7355" y="53"/><text fill="#000000" font-family="sans-serif" font-size="14" lengthAdjust="spacing" textLength="36.4355" x="306.3" y="75.5352">LAPIS</text></g><!--entity Website--><g class="entity" data-entity="Website" data-source-line="2" data-uid="ent0002" id="entity_Website"><rect fill="#F1F1F1" height="46.4883" rx="2.5" ry="2.5" style="stroke:#181818;stroke-width:0.5;" width="149.0332" x="7" y="42"/><rect fill="#F1F1F1" height="10" style="stroke:#181818;stroke-width:0.5;" width="15" x="136.0332" y="47"/><rect fill="#F1F1F1" height="2" style="stroke:#181818;stroke-width:0.5;" width="4" x="134.0332" y="49"/><rect fill="#F1F1F1" height="2" style="stroke:#181818;stroke-width:0.5;" width="4" x="134.0332" y="53"/><text fill="#000000" font-family="sans-serif" font-size="14" lengthAdjust="spacing" textLength="109.0332" x="22" y="75.5352">Loculus Website</text></g><!--entity Backend--><g class="entity" data-entity="Backend" data-source-line="5" data-uid="ent0003" id="entity_Backend"><rect fill="#F1F1F1" height="46.4883" rx="2.5" ry="2.5" style="stroke:#181818;stroke-width:0.5;" width="152.6631" x="395.19" y="182.49"/><rect fill="#F1F1F1" height="10" style="stroke:#181818;stroke-width:0.5;" width="15" x="527.8531" y="187.49"/><rect fill="#F1F1F1" height="2" style="stroke:#181818;stroke-width:0.5;" width="4" x="525.8531" y="189.49"/><rect fill="#F1F1F1" height="2" style="stroke:#181818;stroke-width:0.5;" width="4" x="525.8531" y="193.49"/><text fill="#000000" font-family="sans-serif" font-size="14" lengthAdjust="spacing" textLength="112.6631" x="410.19" y="216.0252">Loculus Backend</text></g><!--entity Keycloak--><g class="entity" data-entity="Keycloak" data-source-line="6" data-uid="ent0004" id="entity_Keycloak"><rect fill="#F1F1F1" height="46.4883" rx="2.5" ry="2.5" style="stroke:#181818;stroke-width:0.5;" width="99.9854" x="180.52" y="182.49"/><rect fill="#F1F1F1" height="10" style="stroke:#181818;stroke-width:0.5;" width="15" x="260.5054" y="187.49"/><rect fill="#F1F1F1" height="2" style="stroke:#181818;stroke-width:0.5;" width="4" x="258.5054" y="189.49"/><rect fill="#F1F1F1" height="2" style="stroke:#181818;stroke-width:0.5;" width="4" x="258.5054" y="193.49"/><text fill="#000000" font-family="sans-serif" font-size="14" lengthAdjust="spacing" textLength="59.9854" x="195.52" y="216.0252">Keycloak</text></g><!--entity Postgres--><g class="entity" data-entity="Postgres" data-source-line="9" data-uid="ent0005" id="entity_Postgres"><rect fill="#F1F1F1" height="46.4883" rx="2.5" ry="2.5" style="stroke:#181818;stroke-width:0.5;" width="121.0742" x="558.98" y="320.97"/><rect fill="#F1F1F1" height="10" style="stroke:#181818;stroke-width:0.5;" width="15" x="660.0542" y="325.97"/><rect fill="#F1F1F1" height="2" style="stroke:#181818;stroke-width:0.5;" width="4" x="658.0542" y="327.97"/><rect fill="#F1F1F1" height="2" style="stroke:#181818;stroke-width:0.5;" width="4" x="658.0542" y="331.97"/><text fill="#000000" font-family="sans-serif" font-size="14" lengthAdjust="spacing" textLength="81.0742" x="573.98" y="354.5052">Postgres DB</text></g><!--entity S3--><g class="entity" data-entity="S3" data-source-line="10" data-uid="ent0006" id="entity_S3"><rect fill="#F1F1F1" height="46.4883" rx="2.5" ry="2.5" style="stroke:#181818;stroke-width:0.5;" width="56.3926" x="57.32" y="320.97"/><rect fill="#F1F1F1" height="10" style="stroke:#181818;stroke-width:0.5;" width="15" x="93.7126" y="325.97"/><rect fill="#F1F1F1" height="2" style="stroke:#181818;stroke-width:0.5;" width="4" x="91.7126" y="327.97"/><rect fill="#F1F1F1" height="2" style="stroke:#181818;stroke-width:0.5;" width="4" x="91.7126" y="331.97"/><text fill="#000000" font-family="sans-serif" font-size="14" lengthAdjust="spacing" textLength="16.3926" x="72.32" y="354.5052">S3</text></g><!--entity Preprocessing--><g class="entity" data-entity="Preprocessing" data-source-line="12" data-uid="ent0007" id="entity_Preprocessing"><rect fill="#F1F1F1" height="46.4883" rx="2.5" ry="2.5" style="stroke:#181818;stroke-width:0.5;" width="192.5234" x="327.25" y="320.97"/><rect fill="#F1F1F1" height="10" style="stroke:#181818;stroke-width:0.5;" width="15" x="499.7734" y="325.97"/><rect fill="#F1F1F1" height="2" style="stroke:#181818;stroke-width:0.5;" width="4" x="497.7734" y="327.97"/><rect fill="#F1F1F1" height="2" style="stroke:#181818;stroke-width:0.5;" width="4" x="497.7734" y="331.97"/><text fill="#000000" font-family="sans-serif" font-size="14" lengthAdjust="spacing" textLength="152.5234" x="342.25" y="354.5052">Preprocessing Pipeline</text></g><!--entity Ingest--><g class="entity" data-entity="Ingest" data-source-line="13" data-uid="ent0008" id="entity_Ingest"><rect fill="#F1F1F1" height="46.4883" rx="2.5" ry="2.5" style="stroke:#181818;stroke-width:0.5;" width="139.0322" x="608" y="42"/><rect fill="#F1F1F1" height="10" style="stroke:#181818;stroke-width:0.5;" width="15" x="727.0322" y="47"/><rect fill="#F1F1F1" height="2" style="stroke:#181818;stroke-width:0.5;" width="4" x="725.0322" y="49"/><rect fill="#F1F1F1" height="2" style="stroke:#181818;stroke-width:0.5;" width="4" x="725.0322" y="53"/><text fill="#000000" font-family="sans-serif" font-size="14" lengthAdjust="spacing" textLength="99.0322" x="623" y="75.5352">Ingest Pipeline</text></g><!--link Website to Keycloak--><g class="link" data-entity-1="Website" data-entity-2="Keycloak" data-source-line="21" data-uid="lnk12" id="link_Website_Keycloak"><path d="M105.79,88.8 C133.5,114.55 174.1548,152.3457 201.8648,178.0957" fill="none" id="Website-to-Keycloak" style="stroke:#181818;stroke-width:1;"/><polygon fill="#181818" points="206.26,182.18,202.39,173.1233,202.5973,178.7764,196.9442,178.9836,206.26,182.18" style="stroke:#181818;stroke-width:1;"/><text fill="#000000" font-family="sans-serif" font-size="13" lengthAdjust="spacing" textLength="78.0508" x="174.74" y="141.5584">authenticate</text></g><!--reverse link Keycloak to Backend--><g class="link" data-entity-1="Keycloak" data-entity-2="Backend" data-source-line="22" data-uid="lnk14" id="link_Keycloak_Backend"><path d="M286.74,205.73 C319.71,205.73 357.47,205.73 394.76,205.73" fill="none" id="Keycloak-backto-Backend" style="stroke:#181818;stroke-width:1;"/><polygon fill="#181818" points="280.74,205.73,289.74,209.73,285.74,205.73,289.74,201.73,280.74,205.73" style="stroke:#181818;stroke-width:1;"/><text fill="#000000" font-family="sans-serif" font-size="13" lengthAdjust="spacing" textLength="78.0508" x="298.85" y="199.2984">authenticate</text></g><!--link Website to Backend--><g class="link" data-entity-1="Website" data-entity-2="Backend" data-source-line="24" data-uid="lnk15" id="link_Website_Backend"><path d="M156.44,87.2 C188.95,96.71 227.33,108.5 261.52,120.49 C315.83,139.52 371.2202,162.0317 413.4002,179.7917" fill="none" id="Website-to-Backend" style="stroke:#181818;stroke-width:1;"/><polygon fill="#181818" points="418.93,182.12,412.1875,174.9409,414.3218,180.1797,409.0831,182.314,418.93,182.12" style="stroke:#181818;stroke-width:1;"/><text fill="#000000" font-family="sans-serif" font-size="13" lengthAdjust="spacing" textLength="43.3545" x="367.7666" y="134.0584">upload</text><text fill="#000000" font-family="sans-serif" font-size="13" lengthAdjust="spacing" textLength="90.8477" x="344.02" y="149.3689">sequence data</text></g><!--link Backend to Preprocessing--><g class="link" data-entity-1="Backend" data-entity-2="Preprocessing" data-source-line="25" data-uid="lnk16" id="link_Backend_Preprocessing"><path d="M394.71,214.75 C366.67,221.83 337.65,234.91 320.52,258.97 C312.27,270.56 313.07,278.85 320.52,290.97 C328.23,303.53 334.795,310.2053 347.665,317.5853" fill="none" id="Backend-to-Preprocessing" style="stroke:#181818;stroke-width:1;"/><polygon fill="#181818" points="352.87,320.57,347.0523,312.623,348.5325,318.0828,343.0728,319.563,352.87,320.57" style="stroke:#181818;stroke-width:1;"/><text fill="#000000" font-family="sans-serif" font-size="13" lengthAdjust="spacing" textLength="61.0518" x="344.2763" y="272.5384">fetch new</text><text fill="#000000" font-family="sans-serif" font-size="13" lengthAdjust="spacing" textLength="106.5645" x="321.52" y="287.8489">sequence entries</text></g><!--reverse link Backend to Preprocessing--><g class="link" data-entity-1="Backend" data-entity-2="Preprocessing" data-source-line="26" data-uid="lnk17" id="link_Backend_Preprocessing"><path d="M461.6002,234.9305 C452.7102,260.2205 440.35,295.34 431.45,320.65" fill="none" id="Backend-backto-Preprocessing" style="stroke:#181818;stroke-width:1;"/><polygon fill="#181818" points="463.59,229.27,456.8317,236.4342,461.9319,233.987,464.379,239.0872,463.59,229.27" style="stroke:#181818;stroke-width:1;"/><text fill="#000000" font-family="sans-serif" font-size="13" lengthAdjust="spacing" textLength="102.2861" x="454.9592" y="272.5384">submit enriched</text><text fill="#000000" font-family="sans-serif" font-size="13" lengthAdjust="spacing" textLength="106.5645" x="452.82" y="287.8489">sequence entries</text></g><!--link Backend to Postgres--><g class="link" data-entity-1="Backend" data-entity-2="Postgres" data-source-line="27" data-uid="lnk18" id="link_Backend_Postgres"><path d="M529.9161,232.1499 C544.8661,240.1099 555.12,247.23 567.52,258.97 C586.11,276.58 598.0592,296.8327 606.9792,315.2027" fill="none" id="Backend-Postgres" style="stroke:#181818;stroke-width:1;"/><polygon fill="#181818" points="524.62,229.33,530.6842,237.0905,529.0334,231.6799,534.444,230.0291,524.62,229.33" style="stroke:#181818;stroke-width:1;"/><polygon fill="#181818" points="609.6,320.6,609.267,310.7568,607.416,316.1022,602.0706,314.2512,609.6,320.6" style="stroke:#181818;stroke-width:1;"/><text fill="#000000" font-family="sans-serif" font-size="13" lengthAdjust="spacing" textLength="42.6182" x="625.8131" y="272.5384">persist</text><text fill="#000000" font-family="sans-serif" font-size="13" lengthAdjust="spacing" textLength="106.5645" x="593.84" y="287.8489">sequence entries</text></g><!--link Ingest to Backend--><g class="link" data-entity-1="Ingest" data-entity-2="Backend" data-source-line="28" data-uid="lnk19" id="link_Ingest_Backend"><path d="M669.71,88.76 C661.89,108.21 648.04,135.75 627.52,152.49 C604.83,170.99 581.0678,181.3969 553.8178,189.2069" fill="none" id="Ingest-to-Backend" style="stroke:#181818;stroke-width:1;"/><polygon fill="#181818" points="548.05,190.86,557.8037,192.2256,552.8565,189.4824,555.5996,184.5352,548.05,190.86" style="stroke:#181818;stroke-width:1;"/><text fill="#000000" font-family="sans-serif" font-size="13" lengthAdjust="spacing" textLength="85.1729" x="654.46" y="134.0584">new Genbank</text><text fill="#000000" font-family="sans-serif" font-size="13" lengthAdjust="spacing" textLength="65.9585" x="664.0672" y="149.3689">sequences</text></g><!--reverse link SILO to Backend--><g class="link" data-entity-1="SILO" data-entity-2="Backend" data-source-line="30" data-uid="lnk21" id="link_SILO_Backend"><path d="M524.9866,94.2009 C512.5266,119.9509 494.88,156.43 482.43,182.18" fill="none" id="SILO-backto-Backend" style="stroke:#181818;stroke-width:1;"/><polygon fill="#181818" points="527.6,88.8,520.0793,95.1591,525.4221,93.3008,527.2805,98.6437,527.6,88.8" style="stroke:#181818;stroke-width:1;"/><text fill="#000000" font-family="sans-serif" font-size="13" lengthAdjust="spacing" textLength="47.3979" x="541.6033" y="134.0584">provide</text><text fill="#000000" font-family="sans-serif" font-size="13" lengthAdjust="spacing" textLength="106.5645" x="512.02" y="149.3689">sequence entries</text></g><!--reverse link Website to LAPIS--><g class="link" data-entity-1="Website" data-entity-2="LAPIS" data-source-line="31" data-uid="lnk23" id="link_Website_LAPIS"><path d="M162.26,65.24 C206.62,65.24 255.01,65.24 290.88,65.24" fill="none" id="Website-backto-LAPIS" style="stroke:#181818;stroke-width:1;"/><polygon fill="#181818" points="156.26,65.24,165.26,69.24,161.26,65.24,165.26,61.24,156.26,65.24" style="stroke:#181818;stroke-width:1;"/><text fill="#000000" font-family="sans-serif" font-size="13" lengthAdjust="spacing" textLength="99.0488" x="174.17" y="43.8084">sequence query</text><text fill="#000000" font-family="sans-serif" font-size="13" lengthAdjust="spacing" textLength="42.5039" x="202.4425" y="59.1189">results</text></g><!--reverse link LAPIS to SILO--><g class="link" data-entity-1="LAPIS" data-entity-2="SILO" data-source-line="32" data-uid="lnk24" id="link_LAPIS_SILO"><path d="M373.85,65.24 C412.5,65.24 465.67,65.24 503.21,65.24" fill="none" id="LAPIS-backto-SILO" style="stroke:#181818;stroke-width:1;"/><polygon fill="#181818" points="367.85,65.24,376.85,69.24,372.85,65.24,376.85,61.24,367.85,65.24" style="stroke:#181818;stroke-width:1;"/><text fill="#000000" font-family="sans-serif" font-size="13" lengthAdjust="spacing" textLength="99.0488" x="386.15" y="43.8084">sequence query</text><text fill="#000000" font-family="sans-serif" font-size="13" lengthAdjust="spacing" textLength="42.5039" x="414.4225" y="59.1189">results</text></g><!--link Website to S3--><g class="link" data-entity-1="Website" data-entity-2="S3" data-source-line="34" data-uid="lnk25" id="link_Website_S3"><path d="M81.84,88.91 C82.6,140.97 84.3535,262.6306 85.1035,314.6306" fill="none" id="Website-to-S3" style="stroke:#181818;stroke-width:1;"/><polygon fill="#181818" points="85.19,320.63,89.0598,311.5732,85.1179,315.6305,81.0606,311.6886,85.19,320.63" style="stroke:#181818;stroke-width:1;"/><text fill="#000000" font-family="sans-serif" font-size="13" lengthAdjust="spacing" textLength="43.3545" x="94.73" y="203.2984">upload</text><text fill="#000000" font-family="sans-serif" font-size="13" lengthAdjust="spacing" textLength="62.8545" x="84.98" y="218.6089">extra files</text></g><!--link Backend to S3--><g class="link" data-entity-1="Backend" data-entity-2="S3" data-source-line="35" data-uid="lnk26" id="link_Backend_S3"><path d="M394.9,219.97 C351.49,228.66 296.61,241.63 249.52,258.97 C199.96,277.22 151.3214,303.9076 119.3314,322.7276" fill="none" id="Backend-to-S3" style="stroke:#181818;stroke-width:1;"/><polygon fill="#181818" points="114.16,325.77,123.9454,324.654,118.4695,323.2347,119.8889,317.7588,114.16,325.77" style="stroke:#181818;stroke-width:1;"/><text fill="#000000" font-family="sans-serif" font-size="13" lengthAdjust="spacing" textLength="49.0103" x="253.7986" y="272.5384">set files</text><text fill="#000000" font-family="sans-serif" font-size="13" lengthAdjust="spacing" textLength="55.5674" x="250.52" y="287.8489">to public</text></g><!--link S3 to Preprocessing--><g class="link" data-entity-1="S3" data-entity-2="Preprocessing" data-source-line="36" data-uid="lnk27" id="link_S3_Preprocessing"><path d="M114.04,344.22 C160.52,344.22 248.64,344.22 320.95,344.22" fill="none" id="S3-to-Preprocessing" style="stroke:#181818;stroke-width:1;"/><polygon fill="#181818" points="326.95,344.22,317.95,340.22,321.95,344.22,317.95,348.22,326.95,344.22" style="stroke:#181818;stroke-width:1;"/><text fill="#000000" font-family="sans-serif" font-size="13" lengthAdjust="spacing" textLength="177.0806" x="131.98" y="337.7884">provide user submitted files</text></g><!--reverse link S3 to Preprocessing--><g class="link" data-entity-1="S3" data-entity-2="Preprocessing" data-source-line="37" data-uid="lnk29" id="link_S3_Preprocessing"><path d="M119.8284,357.1885 C130.5884,360.7985 137.34,362.43 148.98,364.22 C207.67,373.25 274.06,368.8 326.85,361.83" fill="none" id="S3-backto-Preprocessing" style="stroke:#181818;stroke-width:1;"/><polygon fill="#181818" points="114.14,355.28,121.4003,361.935,118.8803,356.8704,123.9449,354.3504,114.14,355.28" style="stroke:#181818;stroke-width:1;"/><text fill="#000000" font-family="sans-serif" font-size="13" lengthAdjust="spacing" textLength="141.813" x="149.98" y="360.7884">upload processed files</text></g><!--SRC=[VPC_Ry8m4CLtVueJkoSsX92AAbMeI4NAq8N5SIx18jYfVIv5LRzxZ_mF8BB4iT_lVE-TejsfSXOjmMphT2nZW4zCWo6SWUhNGf0ha0xeuLS0F_eUMojzH9lLMBk-aRxZHPTE7SMV4AC2EnUey1ZWTLt3tVT8ayodXCVAEuqX65l0pbHO6jiqF3aQCnjROA2fkDaJGkHUdH2IpVP3Rbzsc-JEvVNePgiMNgsq6O6KgzuYB415pikIqOhpQmC1MM9EJtH3iSoTBGixS06nOY3Rsu1V4Qr6o1IfeJ1hfx4i84VI1x1u7a5yapUSRSSjfRpZGanFXbZgZJvWzfnUzVDYia8VJA07H1k_d5ZYrk0DRQhiSK2264p5YlNNxBcqTzycmmUbcubroNO1ierEo2z_sLjkCPRKwPVIc-90iYx_H3rCX3kP3sF07_8ASbEEuf2j9Y0r9tjB3ggObaQBP0xjbJUJwhr13Fo3DUaJPctnwNGwcqChq9xsm3y0]--></g></svg>