<svg xmlns="http://www.w3.org/2000/svg" xmlns:xlink="http://www.w3.org/1999/xlink" contentStyleType="text/css" height="638px" preserveAspectRatio="none" style="width:370px;height:638px;background:#FFFFFF;" version="1.1" viewBox="0 0 370 638" width="370px" zoomAndPan="magnify"><title>Loculus Use Cases</title><defs/><g><text fill="#000000" font-family="sans-serif" font-size="14" font-weight="bold" lengthAdjust="spacing" textLength="144.7305" x="105.6348" y="22.9951">Loculus Use Cases</text><!--cluster Loculus--><g id="cluster_Loculus"><rect fill="none" height="588" rx="2.5" ry="2.5" style="stroke:#181818;stroke-width:1.0;" width="239" x="125" y="44.2969"/><text fill="#000000" font-family="sans-serif" font-size="14" font-weight="bold" lengthAdjust="spacing" textLength="59.9033" x="214.5483" y="59.292">Loculus</text></g><g id="elem_upload"><ellipse cx="244.6816" cy="366.1332" fill="#F1F1F1" rx="67.1816" ry="15.8363" style="stroke:#181818;stroke-width:0.5;"/><text fill="#000000" font-family="sans-serif" font-size="14" lengthAdjust="spacing" textLength="85.0391" x="199.1621" y="369.8808">Upload data</text></g><g id="elem_revise"><ellipse cx="244.2551" cy="299.4479" fill="#F1F1F1" rx="66.2551" ry="15.651" style="stroke:#181818;stroke-width:0.5;"/><text fill="#000000" font-family="sans-serif" font-size="14" lengthAdjust="spacing" textLength="82.4072" x="200.0515" y="303.1955">Revise data</text></g><g id="elem_browse"><ellipse cx="244.4766" cy="232.2922" fill="#F1F1F1" rx="67.9766" ry="15.9953" style="stroke:#181818;stroke-width:0.5;"/><text fill="#000000" font-family="sans-serif" font-size="14" lengthAdjust="spacing" textLength="87.2676" x="197.8428" y="236.0398">Browse data</text></g><g id="elem_download"><ellipse cx="244.3293" cy="97.1627" fill="#F1F1F1" rx="74.8293" ry="17.3659" style="stroke:#181818;stroke-width:0.5;"/><text fill="#000000" font-family="sans-serif" font-size="14" lengthAdjust="spacing" textLength="105.5742" x="188.5422" y="100.9103">Download data</text></g><g id="elem_query"><ellipse cx="244.4164" cy="165.1801" fill="#F1F1F1" rx="64.9164" ry="15.3833" style="stroke:#181818;stroke-width:0.5;"/><text fill="#000000" font-family="sans-serif" font-size="14" lengthAdjust="spacing" textLength="78.5313" x="202.1507" y="168.9277">Query data</text></g><g id="elem_configure"><ellipse cx="244.3798" cy="593.3728" fill="#F1F1F1" rx="103.3798" ry="23.076" style="stroke:#181818;stroke-width:0.5;"/><text fill="#000000" font-family="sans-serif" font-size="14" lengthAdjust="spacing" textLength="171.4795" x="158.6401" y="596.2195">Configure new organism</text></g><g id="elem_host"><ellipse cx="244.4149" cy="437.0798" fill="#F1F1F1" rx="84.4149" ry="19.283" style="stroke:#181818;stroke-width:0.5;"/><text fill="#000000" font-family="sans-serif" font-size="14" lengthAdjust="spacing" textLength="128.9736" x="179.8031" y="439.9697">Host own instance</text></g><g id="elem_insdc"><ellipse cx="244.7309" cy="513.143" fill="#F1F1F1" rx="94.7309" ry="21.3462" style="stroke:#181818;stroke-width:0.5;"/><text fill="#000000" font-family="sans-serif" font-size="14" lengthAdjust="spacing" textLength="152.373" x="168.5443" y="515.9897">Sync data with INSDC</text></g><!--entity user--><g id="elem_user"><ellipse cx="43.4551" cy="135.7969" fill="#F1F1F1" rx="8" ry="8" style="stroke:#181818;stroke-width:0.5;"/><path d="M43.4551,143.7969 L43.4551,170.7969 M30.4551,151.7969 L56.4551,151.7969 M43.4551,170.7969 L30.4551,185.7969 M43.4551,170.7969 L56.4551,185.7969 " fill="none" style="stroke:#181818;stroke-width:0.5;"/><text fill="#000000" font-family="sans-serif" font-size="14" lengthAdjust="spacing" textLength="31.9102" x="27.5" y="200.292">User</text></g><!--entity submitter--><g id="elem_submitter"><ellipse cx="43.2607" cy="303.7969" fill="#F1F1F1" rx="8" ry="8" style="stroke:#181818;stroke-width:0.5;"/><path d="M43.2607,311.7969 L43.2607,338.7969 M30.2607,319.7969 L56.2607,319.7969 M43.2607,338.7969 L30.2607,353.7969 M43.2607,338.7969 L56.2607,353.7969 " fill="none" style="stroke:#181818;stroke-width:0.5;"/><text fill="#000000" font-family="sans-serif" font-size="14" lengthAdjust="spacing" textLength="69.5215" x="8.5" y="368.292">Submitter</text></g><!--entity maintainer--><g id="elem_maintainer"><ellipse cx="43.3105" cy="483.7969" fill="#F1F1F1" rx="8" ry="8" style="stroke:#181818;stroke-width:0.5;"/><path d="M43.3105,491.7969 L43.3105,518.7969 M30.3105,499.7969 L56.3105,499.7969 M43.3105,518.7969 L30.3105,533.7969 M43.3105,518.7969 L56.3105,533.7969 " fill="none" style="stroke:#181818;stroke-width:0.5;"/><text fill="#000000" font-family="sans-serif" font-size="14" lengthAdjust="spacing" textLength="74.6211" x="6" y="548.292">Maintainer</text></g><!--link submitter to upload--><g id="link_submitter_upload"><path d="M78.71,338.9669 C109.05,343.9969 147.9607,350.4562 183.2107,356.2962 " fill="none" id="submitter-to-upload" style="stroke:#181818;stroke-width:1.0;"/><polygon fill="#181818" points="189.13,357.2769,180.9048,351.8597,184.1972,356.4596,179.5972,359.7521,189.13,357.2769" style="stroke:#181818;stroke-width:1.0;"/></g><!--link submitter to revise--><g id="link_submitter_revise"><path d="M78.71,327.4569 C109.38,322.2069 148.9557,315.4471 184.3757,309.3971 " fill="none" id="submitter-to-revise" style="stroke:#181818;stroke-width:1.0;"/><polygon fill="#181818" points="190.29,308.3869,180.745,305.9593,185.3614,309.2287,182.092,313.8451,190.29,308.3869" style="stroke:#181818;stroke-width:1.0;"/></g><!--link user to browse--><g id="link_user_browse"><path d="M59.75,173.1269 C74.22,180.3469 96.7,191.0069 117,198.2969 C142.25,207.3669 165.2779,213.8468 189.0479,219.7668 " fill="none" id="user-to-browse" style="stroke:#181818;stroke-width:1.0;"/><polygon fill="#181818" points="194.87,221.2169,187.1035,215.1604,190.0182,220.0085,185.1701,222.9233,194.87,221.2169" style="stroke:#181818;stroke-width:1.0;"/></g><!--link user to download--><g id="link_user_download"><path d="M59.76,157.4969 C74.24,150.3069 96.72,139.6669 117,132.2969 C141.09,123.5369 162.6341,117.2406 185.7241,111.2206 " fill="none" id="user-to-download" style="stroke:#181818;stroke-width:1.0;"/><polygon fill="#181818" points="191.53,109.7069,181.812,108.1068,186.6917,110.9683,183.8303,115.8481,191.53,109.7069" style="stroke:#181818;stroke-width:1.0;"/></g><!--link user to query--><g id="link_user_query"><path d="M59.78,165.2969 C85.09,165.2969 131.07,165.2969 173.31,165.2969 " fill="none" id="user-to-query" style="stroke:#181818;stroke-width:1.0;"/><polygon fill="#181818" points="179.31,165.2969,170.31,161.2969,174.31,165.2969,170.31,169.2969,179.31,165.2969" style="stroke:#181818;stroke-width:1.0;"/></g><!--link maintainer to configure--><g id="link_maintainer_configure"><path d="M81.12,534.6569 C92.42,540.7869 105.04,547.1869 117,552.2969 C137.06,560.8669 153.831,566.8722 174.221,573.3422 " fill="none" id="maintainer-to-configure" style="stroke:#181818;stroke-width:1.0;"/><polygon fill="#181818" points="179.94,575.1569,172.5713,568.6222,175.1742,573.6446,170.1517,576.2475,179.94,575.1569" style="stroke:#181818;stroke-width:1.0;"/></g><!--link maintainer to host--><g id="link_maintainer_host"><path d="M81.03,491.7269 C92.33,485.5869 104.97,479.2269 117,474.2969 C139.02,465.2669 158.2372,459.0668 180.1772,452.9968 " fill="none" id="maintainer-to-host" style="stroke:#181818;stroke-width:1.0;"/><polygon fill="#181818" points="185.96,451.3969,176.2193,449.9415,181.141,452.7301,178.3524,457.6519,185.96,451.3969" style="stroke:#181818;stroke-width:1.0;"/></g><!--link maintainer to insdc--><g id="link_maintainer_insdc"><path d="M81.46,513.2969 C100.8,513.2969 119.43,513.2969 143.61,513.2969 " fill="none" id="maintainer-to-insdc" style="stroke:#181818;stroke-width:1.0;"/><polygon fill="#181818" points="149.61,513.2969,140.61,509.2969,144.61,513.2969,140.61,517.2969,149.61,513.2969" style="stroke:#181818;stroke-width:1.0;"/></g><!--SRC=[NP5DRiCW48NtSufHzhb25qqMhTHMQgqSW61YZsH30qEjgEhTYySOXo0XzDvyC3ymyM3mpUaun82dOF2WWWamc0iZE_JKzOmjUQEPd0LGcfsVGOygO4ndjffu7ebvySCgSl1TaUMqb-XO5C3yiBBTNH6_W6cbbtMg17Udxy6f5bl5QYSfHTVCb_cXT1R6YwwPP- -cU-OikcQERh9rjZOxDVSPZRzjq7MMK2C7Po_KHM_GcWcTxvIbC0gkrr1zuyK5nfGEoOOq4cq4xfDRSytDQicD4t6Fhn_DyI1ekjTg-0CeqyVz_caTM6tc2S7yWMBaSHHT6YzExdBxF76tPXu2KlY3jrJu3m00]--></g></svg>