<svg xmlns="http://www.w3.org/2000/svg" xmlns:xlink="http://www.w3.org/1999/xlink" contentStyleType="text/css" height="573px" preserveAspectRatio="none" style="width:370px;height:573px;background:#FFFFFF;" version="1.1" viewBox="0 0 370 573" width="370px" zoomAndPan="magnify"><title>Loculus Use Cases</title><defs/><g><text fill="#000000" font-family="sans-serif" font-size="14" font-weight="bold" lengthAdjust="spacing" textLength="144.7305" x="105.6348" y="22.9951">Loculus Use Cases</text><!--cluster Loculus--><g id="cluster_Loculus"><rect fill="none" height="523" rx="2.5" ry="2.5" style="stroke:#181818;stroke-width:1.0;" width="239" x="125" y="44.2969"/><text fill="#000000" font-family="sans-serif" font-size="14" font-weight="bold" lengthAdjust="spacing" textLength="59.9033" x="214.5483" y="59.292">Loculus</text></g><g id="elem_upload"><ellipse cx="244.6816" cy="300.1332" fill="#F1F1F1" rx="67.1816" ry="15.8363" style="stroke:#181818;stroke-width:0.5;"/><text fill="#000000" font-family="sans-serif" font-size="14" lengthAdjust="spacing" textLength="85.0391" x="199.1621" y="303.8808">Upload data</text></g><g id="elem_revise"><ellipse cx="244.2551" cy="233.4479" fill="#F1F1F1" rx="66.2551" ry="15.651" style="stroke:#181818;stroke-width:0.5;"/><text fill="#000000" font-family="sans-serif" font-size="14" lengthAdjust="spacing" textLength="82.4072" x="200.0515" y="237.1955">Revise data</text></g><g id="elem_browse"><ellipse cx="244.4766" cy="166.2922" fill="#F1F1F1" rx="67.9766" ry="15.9953" style="stroke:#181818;stroke-width:0.5;"/><text fill="#000000" font-family="sans-serif" font-size="14" lengthAdjust="spacing" textLength="87.2676" x="197.8428" y="170.0398">Browse data</text></g><g id="elem_download"><ellipse cx="244.3293" cy="97.1627" fill="#F1F1F1" rx="74.8293" ry="17.3659" style="stroke:#181818;stroke-width:0.5;"/><text fill="#000000" font-family="sans-serif" font-size="14" lengthAdjust="spacing" textLength="105.5742" x="188.5422" y="100.9103">Download data</text></g><g id="elem_configure"><ellipse cx="244.3798" cy="453.3728" fill="#F1F1F1" rx="103.3798" ry="23.076" style="stroke:#181818;stroke-width:0.5;"/><text fill="#000000" font-family="sans-serif" font-size="14" lengthAdjust="spacing" textLength="171.4795" x="158.6401" y="456.2195">Configure new organism</text></g><g id="elem_host"><ellipse cx="244.4149" cy="531.0798" fill="#F1F1F1" rx="84.4149" ry="19.283" style="stroke:#181818;stroke-width:0.5;"/><text fill="#000000" font-family="sans-serif" font-size="14" lengthAdjust="spacing" textLength="128.9736" x="179.8031" y="533.9697">Host own instance</text></g><g id="elem_insdc"><ellipse cx="244.7309" cy="373.143" fill="#F1F1F1" rx="94.7309" ry="21.3462" style="stroke:#181818;stroke-width:0.5;"/><text fill="#000000" font-family="sans-serif" font-size="14" lengthAdjust="spacing" textLength="152.373" x="168.5443" y="375.9897">Sync data with INSDC</text></g><!--entity user--><g id="elem_user"><ellipse cx="43.4551" cy="102.7969" fill="#F1F1F1" rx="8" ry="8" style="stroke:#181818;stroke-width:0.5;"/><path d="M43.4551,110.7969 L43.4551,137.7969 M30.4551,118.7969 L56.4551,118.7969 M43.4551,137.7969 L30.4551,152.7969 M43.4551,137.7969 L56.4551,152.7969 " fill="none" style="stroke:#181818;stroke-width:0.5;"/><text fill="#000000" font-family="sans-serif" font-size="14" lengthAdjust="spacing" textLength="31.9102" x="27.5" y="167.292">User</text></g><!--entity submitter--><g id="elem_submitter"><ellipse cx="43.2607" cy="259.7969" fill="#F1F1F1" rx="8" ry="8" style="stroke:#181818;stroke-width:0.5;"/><path d="M43.2607,267.7969 L43.2607,294.7969 M30.2607,275.7969 L56.2607,275.7969 M43.2607,294.7969 L30.2607,309.7969 M43.2607,294.7969 L56.2607,309.7969 " fill="none" style="stroke:#181818;stroke-width:0.5;"/><text fill="#000000" font-family="sans-serif" font-size="14" lengthAdjust="spacing" textLength="69.5215" x="8.5" y="324.292">Submitter</text></g><!--entity maintainer--><g id="elem_maintainer"><ellipse cx="43.3105" cy="423.7969" fill="#F1F1F1" rx="8" ry="8" style="stroke:#181818;stroke-width:0.5;"/><path d="M43.3105,431.7969 L43.3105,458.7969 M30.3105,439.7969 L56.3105,439.7969 M43.3105,458.7969 L30.3105,473.7969 M43.3105,458.7969 L56.3105,473.7969 " fill="none" style="stroke:#181818;stroke-width:0.5;"/><text fill="#000000" font-family="sans-serif" font-size="14" lengthAdjust="spacing" textLength="74.6211" x="6" y="488.292">Maintainer</text></g><!--link submitter to upload--><g id="link_submitter_upload"><path d="M78.71,291.1869 C106.16,292.7069 139.4791,294.5463 172.8291,296.3863 " fill="none" id="submitter-to-upload" style="stroke:#181818;stroke-width:1.0;"/><polygon fill="#181818" points="178.82,296.7169,170.054,292.2272,173.8276,296.4414,169.6133,300.215,178.82,296.7169" style="stroke:#181818;stroke-width:1.0;"/></g><!--link submitter to revise--><g id="link_submitter_revise"><path d="M78.69,278.0469 C90.75,274.1869 104.44,269.9269 117,266.2969 C143.82,258.5469 168.2544,252.103 192.4444,245.963 " fill="none" id="submitter-to-revise" style="stroke:#181818;stroke-width:1.0;"/><polygon fill="#181818" points="198.26,244.4869,188.5525,242.824,193.4137,245.717,190.5207,250.5781,198.26,244.4869" style="stroke:#181818;stroke-width:1.0;"/></g><!--link user to browse--><g id="link_user_browse"><path d="M59.78,134.9069 C87,139.5569 139.1659,148.4654 182.7859,155.9254 " fill="none" id="user-to-browse" style="stroke:#181818;stroke-width:1.0;"/><polygon fill="#181818" points="188.7,156.9369,180.5031,151.4769,183.7716,156.094,179.1545,159.3625,188.7,156.9369" style="stroke:#181818;stroke-width:1.0;"/></g><!--link user to download--><g id="link_user_download"><path d="M59.78,129.6069 C86,124.9969 134.9405,116.385 177.9205,108.835 " fill="none" id="user-to-download" style="stroke:#181818;stroke-width:1.0;"/><polygon fill="#181818" points="183.83,107.7969,174.2737,105.4143,178.9054,108.6619,175.6578,113.2937,183.83,107.7969" style="stroke:#181818;stroke-width:1.0;"/></g><!--link maintainer to configure--><g id="link_maintainer_configure"><path d="M81.46,453.2969 C98.44,453.2969 113.49,453.2969 134.75,453.2969 " fill="none" id="maintainer-to-configure" style="stroke:#181818;stroke-width:1.0;"/><polygon fill="#181818" points="140.75,453.2969,131.75,449.2969,135.75,453.2969,131.75,457.2969,140.75,453.2969" style="stroke:#181818;stroke-width:1.0;"/></g><!--link maintainer to host--><g id="link_maintainer_host"><path d="M81,475.4069 C92.29,481.7069 104.94,488.2269 117,493.2969 C139.2,502.6269 158.6982,509.0579 180.7782,515.3279 " fill="none" id="maintainer-to-host" style="stroke:#181818;stroke-width:1.0;"/><polygon fill="#181818" points="186.55,516.9669,178.985,510.6605,181.7402,515.601,176.7996,518.3562,186.55,516.9669" style="stroke:#181818;stroke-width:1.0;"/></g><!--link maintainer to insdc--><g id="link_maintainer_insdc"><path d="M81.34,430.4369 C92.54,424.0469 105.05,417.4469 117,412.2969 C137.58,403.4269 155.079,397.3676 175.989,391.1476 " fill="none" id="maintainer-to-insdc" style="stroke:#181818;stroke-width:1.0;"/><polygon fill="#181818" points="181.74,389.4369,171.9731,388.169,176.9475,390.8625,174.254,395.8369,181.74,389.4369" style="stroke:#181818;stroke-width:1.0;"/></g><!--SRC=[NL7DRiCW3BxxAQpU-mexB3riqhR3eZu01PfOIc02isYg-kuZ3abA8qNe-x7z6PXuiFZXTHfIn7EqsAXe8mpsoiWU0tKzew5WDPDt04gp3xCne8gOybceDbr6Obxuk88YVYfodFz57JS4C3TMhdi8SGFCN-wiSn8yd7y6hmmQnUeW8mNNdc_xI_dSF45mxNaDVdhqN0JNdfEVN3tD50PgO-FTbReKB3exeG-TSXH7gT2hL5Uy-SYOco6vc1VMLinzPcjV- -UqZCU9kCVth_RKY3NN6GrtWErkyNXyMQ-Z9il-C3-F46NP3UzhxMyXmfx-IP2aJzmIwHy0]--></g></svg>