<svg xmlns="http://www.w3.org/2000/svg" xmlns:xlink="http://www.w3.org/1999/xlink" contentStyleType="text/css" height="251px" preserveAspectRatio="none" style="width:760px;height:251px;background:#FFFFFF;" version="1.1" viewBox="0 0 760 251" width="760px" zoomAndPan="magnify"><title>Loculus Context View</title><defs/><g><text fill="#000000" font-family="sans-serif" font-size="14" font-weight="bold" lengthAdjust="spacing" textLength="169.4834" x="288.2803" y="22.9951">Loculus Context View</text><!--cluster loculus--><g id="cluster_loculus"><rect fill="none" height="165" rx="2.5" ry="2.5" style="stroke:#181818;stroke-width:1.0;" width="178" x="295" y="61.3955"/><rect fill="none" height="10" style="stroke:#181818;stroke-width:1.0;" width="15" x="453" y="66.3955"/><rect fill="none" height="2" style="stroke:#181818;stroke-width:1.0;" width="4" x="451" y="68.3955"/><rect fill="none" height="2" style="stroke:#181818;stroke-width:1.0;" width="4" x="451" y="72.3955"/><text fill="#000000" font-family="sans-serif" font-size="14" font-weight="bold" lengthAdjust="spacing" textLength="59.9033" x="354.0483" y="87.3906">Loculus</text></g><text fill="#000000" font-family="sans-serif" font-size="14" lengthAdjust="spacing" textLength="4.4502" x="292.7749" y="180.3906">&#160;</text><rect fill="#F1F1F1" height="12" style="stroke:#181818;stroke-width:1.5;" width="12" x="289" y="155.3955"/><text fill="#000000" font-family="sans-serif" font-size="14" lengthAdjust="spacing" textLength="4.4502" x="292.7749" y="58.0938">&#160;</text><rect fill="#F1F1F1" height="12" style="stroke:#181818;stroke-width:1.5;" width="12" x="289" y="73.3955"/><text fill="#000000" font-family="sans-serif" font-size="14" lengthAdjust="spacing" textLength="4.4502" x="292.7749" y="227.3906">&#160;</text><rect fill="#F1F1F1" height="12" style="stroke:#181818;stroke-width:1.5;" width="12" x="289" y="202.3955"/><text fill="#000000" font-family="sans-serif" font-size="14" lengthAdjust="spacing" textLength="4.4502" x="470.7749" y="227.3906">&#160;</text><rect fill="#F1F1F1" height="12" style="stroke:#181818;stroke-width:1.5;" width="12" x="467" y="202.3955"/><text fill="#000000" font-family="sans-serif" font-size="14" lengthAdjust="spacing" textLength="4.4502" x="470.7749" y="105.0938">&#160;</text><rect fill="#F1F1F1" height="12" style="stroke:#181818;stroke-width:1.5;" width="12" x="467" y="120.3955"/><!--entity user--><g id="elem_user"><ellipse cx="40.9551" cy="66.8955" fill="#F1F1F1" rx="8" ry="8" style="stroke:#181818;stroke-width:0.5;"/><path d="M40.9551,74.8955 L40.9551,101.8955 M27.9551,82.8955 L53.9551,82.8955 M40.9551,101.8955 L27.9551,116.8955 M40.9551,101.8955 L53.9551,116.8955 " fill="none" style="stroke:#181818;stroke-width:0.5;"/><text fill="#000000" font-family="sans-serif" font-size="14" lengthAdjust="spacing" textLength="31.9102" x="25" y="131.3906">User</text></g><!--entity submitter--><g id="elem_submitter"><ellipse cx="40.7607" cy="178.8955" fill="#F1F1F1" rx="8" ry="8" style="stroke:#181818;stroke-width:0.5;"/><path d="M40.7607,186.8955 L40.7607,213.8955 M27.7607,194.8955 L53.7607,194.8955 M40.7607,213.8955 L27.7607,228.8955 M40.7607,213.8955 L53.7607,228.8955 " fill="none" style="stroke:#181818;stroke-width:0.5;"/><text fill="#000000" font-family="sans-serif" font-size="14" lengthAdjust="spacing" textLength="69.5215" x="6" y="243.3906">Submitter</text></g><!--entity insdc--><g id="elem_insdc"><ellipse cx="731.022" cy="138.8955" fill="#F1F1F1" rx="8" ry="8" style="stroke:#181818;stroke-width:0.5;"/><path d="M731.022,146.8955 L731.022,173.8955 M718.022,154.8955 L744.022,154.8955 M731.022,173.8955 L718.022,188.8955 M731.022,173.8955 L744.022,188.8955 " fill="none" style="stroke:#181818;stroke-width:0.5;"/><text fill="#000000" font-family="sans-serif" font-size="14" lengthAdjust="spacing" textLength="44.0439" x="709" y="203.3906">INSDC</text></g><!--reverse link user to download--><g id="link_user_download"><path d="M62.8066,103.7478 C75.7066,108.2378 89.11,112.6555 106,117.3955 C177.65,137.4955 266.41,155.8255 288.72,160.3355 " fill="none" id="user-backto-download" style="stroke:#181818;stroke-width:1.0;"/><polygon fill="#181818" points="57.14,101.7755,64.325,108.5117,61.8621,103.4191,66.9547,100.9563,57.14,101.7755" style="stroke:#181818;stroke-width:1.0;"/><text fill="#000000" font-family="sans-serif" font-size="13" lengthAdjust="spacing" textLength="98.0332" x="133.5" y="113.4624">Download data</text></g><!--reverse link user to analysis--><g id="link_user_analysis"><path d="M62.9964,94.9814 C111.7364,91.6914 258.21,81.8055 288.67,79.7555 " fill="none" id="user-backto-analysis" style="stroke:#181818;stroke-width:1.0;"/><polygon fill="#181818" points="57.01,95.3855,66.259,98.7703,61.9986,95.0488,65.7202,90.7885,57.01,95.3855" style="stroke:#181818;stroke-width:1.0;"/><text fill="#000000" font-family="sans-serif" font-size="13" lengthAdjust="spacing" textLength="151.6963" x="107" y="78.4624">Query data for analysis</text></g><!--link submitter to upload--><g id="link_submitter_upload"><path d="M76.25,208.3955 C137.61,208.3955 256.4,208.3955 282.96,208.3955 " fill="none" id="submitter-to-upload" style="stroke:#181818;stroke-width:1.0;"/><polygon fill="#181818" points="288.96,208.3955,279.96,204.3955,283.96,208.3955,279.96,212.3955,288.96,208.3955" style="stroke:#181818;stroke-width:1.0;"/><text fill="#000000" font-family="sans-serif" font-size="13" lengthAdjust="spacing" textLength="78.9648" x="143.5" y="204.4624">Upload data</text></g><!--link insdc to ingest--><g id="link_insdc_ingest"><path d="M708.9,175.9955 C699.8,179.0155 688.98,182.2655 679,184.3955 C600.5,201.1455 508.4122,206.6493 485.1222,207.8393 " fill="none" id="insdc-to-ingest" style="stroke:#181818;stroke-width:1.0;"/><polygon fill="#181818" points="479.13,208.1455,488.3224,211.681,484.1235,207.8904,487.9142,203.6915,479.13,208.1455" style="stroke:#181818;stroke-width:1.0;"/><text fill="#000000" font-family="sans-serif" font-size="13" lengthAdjust="spacing" textLength="168.3906" x="510" y="180.4624">Download data from NCBI</text></g><!--link deposition to insdc--><g id="link_deposition_insdc"><path d="M479.35,127.2755 C509,132.1355 647.9891,154.9443 702.9191,163.9543 " fill="none" id="deposition-to-insdc" style="stroke:#181818;stroke-width:1.0;"/><polygon fill="#181818" points="708.84,164.9255,700.6061,159.5215,703.9059,164.1162,699.3112,167.416,708.84,164.9255" style="stroke:#181818;stroke-width:1.0;"/><text fill="#000000" font-family="sans-serif" font-size="13" lengthAdjust="spacing" textLength="127.1118" x="530.5" y="129.4624">Upload data to ENA</text></g><!--SRC=[RP71RiCW38RlF8MrEoymLPEsT8TAKwIgwkuiE9qbWX4OTTMqTnz9IRfEWGFWxmV_DaBY4DwuooudQDWBVWcy4vwLmrv062ATFWKiHUo4s2jbEk48nuGHJ89SrXewv8-1HAxnD1ygtBM7RJC2yibsIdKy1FRePSbUcAlRRmLb18v27XxABCposJisTWKPRzmbKLf1ETpTuImp8N_296l4Ok14Kx4_Ieq5maRhnG0ymdRUMYFcffXz5CK-OxnC6FfI_U9mQGje_LJT5Vant9vJKuT0Z_cAvkhpVrBe8m_GDY-xAj_e7FGVw_UFZX_vsZwhNm00]--></g></svg>