<svg xmlns="http://www.w3.org/2000/svg" xmlns:xlink="http://www.w3.org/1999/xlink" contentStyleType="text/css" height="665px" preserveAspectRatio="none" style="width:914px;height:665px;background:#FFFFFF;" version="1.1" viewBox="0 0 914 665" width="914px" zoomAndPan="magnify"><title>Loculus Backend Building Blocks</title><defs/><g><text fill="#000000" font-family="sans-serif" font-size="14" font-weight="bold" lengthAdjust="spacing" textLength="257.8105" x="321.3555" y="22.9951">Loculus Backend Building Blocks</text><!--cluster INSDC--><g id="cluster_INSDC"><rect fill="none" height="127" rx="2.5" ry="2.5" style="stroke:#181818;stroke-width:1.0;" width="207" x="348" y="532.2969"/><path d="M406.9043,532.2969 L406.9043,541.5938 L396.9043,551.5938 L348,551.5938 " fill="none" style="stroke:#181818;stroke-width:1.0;"/><text fill="#000000" font-family="sans-serif" font-size="14" font-weight="bold" lengthAdjust="spacing" textLength="48.9043" x="351" y="546.292">INSDC</text></g><!--cluster Loculus--><g id="cluster_Loculus"><rect fill="none" height="439" rx="2.5" ry="2.5" style="stroke:#181818;stroke-width:1.0;" width="815" x="7" y="44.2969"/><path d="M76.9033,44.2969 L76.9033,53.5938 L66.9033,63.5938 L7,63.5938 " fill="none" style="stroke:#181818;stroke-width:1.0;"/><text fill="#000000" font-family="sans-serif" font-size="14" font-weight="bold" lengthAdjust="spacing" textLength="59.9033" x="10" y="58.292">Loculus</text></g><!--cluster Loculus Backend Infrastructure--><g id="cluster_Loculus Backend Infrastructure"><rect fill="none" height="372" rx="2.5" ry="2.5" style="stroke:#181818;stroke-width:1.0;" width="421" x="215" y="87.2969"/><path d="M472.7344,87.2969 L472.7344,96.5938 L462.7344,106.5938 L215,106.5938 " fill="none" style="stroke:#181818;stroke-width:1.0;"/><text fill="#000000" font-family="sans-serif" font-size="14" font-weight="bold" lengthAdjust="spacing" textLength="247.7344" x="218" y="101.292">Loculus Backend Infrastructure</text></g><!--entity ncbi--><g id="elem_ncbi"><ellipse cx="419.1899" cy="575.7969" fill="#F1F1F1" rx="8" ry="8" style="stroke:#181818;stroke-width:0.5;"/><path d="M419.1899,583.7969 L419.1899,610.7969 M406.1899,591.7969 L432.1899,591.7969 M419.1899,610.7969 L406.1899,625.7969 M419.1899,610.7969 L432.1899,625.7969 " fill="none" style="stroke:#181818;stroke-width:0.5;"/><text fill="#000000" font-family="sans-serif" font-size="14" lengthAdjust="spacing" textLength="110.3799" x="364" y="640.292">NCBI / Genbank</text></g><!--entity ena--><g id="elem_ena"><ellipse cx="523.9478" cy="575.7969" fill="#F1F1F1" rx="8" ry="8" style="stroke:#181818;stroke-width:0.5;"/><path d="M523.9478,583.7969 L523.9478,610.7969 M510.9478,591.7969 L536.9478,591.7969 M523.9478,610.7969 L510.9478,625.7969 M523.9478,610.7969 L536.9478,625.7969 " fill="none" style="stroke:#181818;stroke-width:0.5;"/><text fill="#000000" font-family="sans-serif" font-size="14" lengthAdjust="spacing" textLength="28.8955" x="509.5" y="640.292">ENA</text></g><!--entity website--><g id="elem_website"><rect fill="#F1F1F1" height="46.2969" rx="2.5" ry="2.5" style="stroke:#181818;stroke-width:0.5;" width="154.0713" x="652" y="122.2969"/><rect fill="#F1F1F1" height="10" style="stroke:#181818;stroke-width:0.5;" width="15" x="786.0713" y="127.2969"/><rect fill="#F1F1F1" height="2" style="stroke:#181818;stroke-width:0.5;" width="4" x="784.0713" y="129.2969"/><rect fill="#F1F1F1" height="2" style="stroke:#181818;stroke-width:0.5;" width="4" x="784.0713" y="133.2969"/><text fill="#000000" font-family="sans-serif" font-size="14" lengthAdjust="spacing" textLength="114.0713" x="667" y="155.292">Loculus Website</text></g><!--entity silo_prepro--><g id="elem_silo_prepro"><rect fill="#F1F1F1" height="46.2969" rx="2.5" ry="2.5" style="stroke:#181818;stroke-width:0.5;" width="175.2969" x="23.5" y="122.2969"/><rect fill="#F1F1F1" height="10" style="stroke:#181818;stroke-width:0.5;" width="15" x="178.7969" y="127.2969"/><rect fill="#F1F1F1" height="2" style="stroke:#181818;stroke-width:0.5;" width="4" x="176.7969" y="129.2969"/><rect fill="#F1F1F1" height="2" style="stroke:#181818;stroke-width:0.5;" width="4" x="176.7969" y="133.2969"/><text fill="#000000" font-family="sans-serif" font-size="14" lengthAdjust="spacing" textLength="135.2969" x="38.5" y="155.292">SILO preprocessing</text></g><!--entity backend--><g id="elem_backend"><rect fill="#F1F1F1" height="46.2969" rx="2.5" ry="2.5" style="stroke:#181818;stroke-width:0.5;" width="157.8037" x="346" y="275.2969"/><rect fill="#F1F1F1" height="10" style="stroke:#181818;stroke-width:0.5;" width="15" x="483.8037" y="280.2969"/><rect fill="#F1F1F1" height="2" style="stroke:#181818;stroke-width:0.5;" width="4" x="481.8037" y="282.2969"/><rect fill="#F1F1F1" height="2" style="stroke:#181818;stroke-width:0.5;" width="4" x="481.8037" y="286.2969"/><text fill="#000000" font-family="sans-serif" font-size="14" lengthAdjust="spacing" textLength="117.8037" x="361" y="308.292">Loculus Backend</text></g><!--entity db--><g id="elem_db"><path d="M231.5,407.7969 C231.5,397.7969 274.9004,397.7969 274.9004,397.7969 C274.9004,397.7969 318.3008,397.7969 318.3008,407.7969 L318.3008,433.0938 C318.3008,443.0938 274.9004,443.0938 274.9004,443.0938 C274.9004,443.0938 231.5,443.0938 231.5,433.0938 L231.5,407.7969 " fill="#F1F1F1" style="stroke:#181818;stroke-width:0.5;"/><path d="M231.5,407.7969 C231.5,417.7969 274.9004,417.7969 274.9004,417.7969 C274.9004,417.7969 318.3008,417.7969 318.3008,407.7969 " fill="none" style="stroke:#181818;stroke-width:0.5;"/><text fill="#000000" font-family="sans-serif" font-size="14" lengthAdjust="spacing" textLength="66.8008" x="241.5" y="434.792">Database</text></g><!--entity prepro--><g id="elem_prepro"><rect fill="#F1F1F1" height="46.2969" rx="2.5" ry="2.5" style="stroke:#181818;stroke-width:0.5;" width="198.1152" x="326" y="122.2969"/><rect fill="#F1F1F1" height="10" style="stroke:#181818;stroke-width:0.5;" width="15" x="504.1152" y="127.2969"/><rect fill="#F1F1F1" height="2" style="stroke:#181818;stroke-width:0.5;" width="4" x="502.1152" y="129.2969"/><rect fill="#F1F1F1" height="2" style="stroke:#181818;stroke-width:0.5;" width="4" x="502.1152" y="133.2969"/><text fill="#000000" font-family="sans-serif" font-size="14" lengthAdjust="spacing" textLength="158.1152" x="341" y="155.292">Preprocessing Pipeline</text></g><!--entity ingest--><g id="elem_ingest"><rect fill="#F1F1F1" height="46.2969" rx="2.5" ry="2.5" style="stroke:#181818;stroke-width:0.5;" width="83.2852" x="353.5" y="397.2969"/><rect fill="#F1F1F1" height="10" style="stroke:#181818;stroke-width:0.5;" width="15" x="416.7852" y="402.2969"/><rect fill="#F1F1F1" height="2" style="stroke:#181818;stroke-width:0.5;" width="4" x="414.7852" y="404.2969"/><rect fill="#F1F1F1" height="2" style="stroke:#181818;stroke-width:0.5;" width="4" x="414.7852" y="408.2969"/><text fill="#000000" font-family="sans-serif" font-size="14" lengthAdjust="spacing" textLength="43.2852" x="368.5" y="430.292">Ingest</text></g><!--entity deposition--><g id="elem_deposition"><rect fill="#F1F1F1" height="46.2969" rx="2.5" ry="2.5" style="stroke:#181818;stroke-width:0.5;" width="148.1924" x="472" y="397.2969"/><rect fill="#F1F1F1" height="10" style="stroke:#181818;stroke-width:0.5;" width="15" x="600.1924" y="402.2969"/><rect fill="#F1F1F1" height="2" style="stroke:#181818;stroke-width:0.5;" width="4" x="598.1924" y="404.2969"/><rect fill="#F1F1F1" height="2" style="stroke:#181818;stroke-width:0.5;" width="4" x="598.1924" y="408.2969"/><text fill="#000000" font-family="sans-serif" font-size="14" lengthAdjust="spacing" textLength="108.1924" x="487" y="430.292">ENA Deposition</text></g><!--entity submitter--><g id="elem_submitter"><ellipse cx="872.7607" cy="268.7969" fill="#F1F1F1" rx="8" ry="8" style="stroke:#181818;stroke-width:0.5;"/><path d="M872.7607,276.7969 L872.7607,303.7969 M859.7607,284.7969 L885.7607,284.7969 M872.7607,303.7969 L859.7607,318.7969 M872.7607,303.7969 L885.7607,318.7969 " fill="none" style="stroke:#181818;stroke-width:0.5;"/><text fill="#000000" font-family="sans-serif" font-size="14" lengthAdjust="spacing" textLength="69.5215" x="838" y="333.292">Submitter</text></g><!--reverse link backend to submitter--><g id="link_backend_submitter"><path d="M510.19,298.2969 C621.36,298.2969 726.53,298.2969 837.7,298.2969 " fill="none" id="backend-backto-submitter" style="stroke:#181818;stroke-width:1.0;"/><polygon fill="#181818" points="504.19,298.2969,513.19,302.2969,509.19,298.2969,513.19,294.2969,504.19,298.2969" style="stroke:#181818;stroke-width:1.0;"/></g><!--link website to backend--><g id="link_website_backend"><path d="M698.81,168.3569 C673.13,186.4969 634.81,212.0769 599,230.2969 C564.67,247.7669 530.2989,261.4446 497.3089,273.2546 " fill="none" id="website-to-backend" style="stroke:#181818;stroke-width:1.0;"/><polygon fill="#181818" points="491.66,275.2769,501.4816,276.0095,496.3674,273.5917,498.7852,268.4775,491.66,275.2769" style="stroke:#181818;stroke-width:1.0;"/></g><!--link silo_prepro to backend--><g id="link_silo_prepro_backend"><path d="M156.99,168.4169 C216.53,197.0469 314.2628,244.0465 373.7328,272.6465 " fill="none" id="silo_prepro-to-backend" style="stroke:#181818;stroke-width:1.0;"/><polygon fill="#181818" points="379.14,275.2469,372.7628,267.7415,374.634,273.0799,369.2956,274.9511,379.14,275.2469" style="stroke:#181818;stroke-width:1.0;"/></g><!--link backend to db--><g id="link_backend_db"><path d="M397.49,321.3069 C370.34,343.0269 333.7752,372.2787 306.7752,393.8787 " fill="none" id="backend-to-db" style="stroke:#181818;stroke-width:1.0;"/><polygon fill="#181818" points="302.09,397.6269,311.6166,395.1281,305.9943,394.5034,306.619,388.8811,302.09,397.6269" style="stroke:#181818;stroke-width:1.0;"/></g><!--link prepro to backend--><g id="link_prepro_backend"><path d="M425,168.5769 C425,197.1269 425,240.3269 425,268.9269 " fill="none" id="prepro-to-backend" style="stroke:#181818;stroke-width:1.0;"/><polygon fill="#181818" points="425,274.9269,429,265.9269,425,269.9269,421,265.9269,425,274.9269" style="stroke:#181818;stroke-width:1.0;"/><text fill="#000000" font-family="sans-serif" font-size="13" lengthAdjust="spacing" textLength="164.9883" x="426" y="211.3638">Fetch unprocessed data /</text><text fill="#000000" font-family="sans-serif" font-size="13" lengthAdjust="spacing" textLength="150.1538" x="433.4172" y="226.4966">Submit processed data</text></g><!--reverse link backend to ingest--><g id="link_backend_ingest"><path d="M418.0448,327.1277 C412.6648,348.6477 405.97,375.4169 400.57,397.0169 " fill="none" id="backend-backto-ingest" style="stroke:#181818;stroke-width:1.0;"/><polygon fill="#181818" points="419.5,321.3069,413.4366,329.068,418.2873,326.1576,421.1977,331.0083,419.5,321.3069" style="stroke:#181818;stroke-width:1.0;"/></g><!--link ingest to ncbi--><g id="link_ingest_ncbi"><path d="M397.89,443.3669 C401.92,474.0769 408.4905,524.1377 413.3605,561.3077 " fill="none" id="ingest-to-ncbi" style="stroke:#181818;stroke-width:1.0;"/><polygon fill="#181818" points="414.14,567.2569,416.9369,557.8135,413.4905,562.2992,409.0047,558.8528,414.14,567.2569" style="stroke:#181818;stroke-width:1.0;"/><text fill="#000000" font-family="sans-serif" font-size="13" lengthAdjust="spacing" textLength="98.0332" x="408" y="512.3638">Download data</text></g><!--reverse link backend to deposition--><g id="link_backend_deposition"><path d="M451.4503,325.5318 C473.1503,347.0518 501.75,375.4169 523.54,397.0169 " fill="none" id="backend-backto-deposition" style="stroke:#181818;stroke-width:1.0;"/><polygon fill="#181818" points="447.19,321.3069,450.7638,330.4845,450.7402,324.8277,456.397,324.8041,447.19,321.3069" style="stroke:#181818;stroke-width:1.0;"/></g><!--link deposition to ena--><g id="link_deposition_ena"><path d="M543.35,443.3669 C539.65,474.0769 533.6364,524.1298 529.1664,561.2998 " fill="none" id="deposition-to-ena" style="stroke:#181818;stroke-width:1.0;"/><polygon fill="#181818" points="528.45,567.2569,533.496,558.7988,529.047,562.2926,525.5532,557.8437,528.45,567.2569" style="stroke:#181818;stroke-width:1.0;"/><text fill="#000000" font-family="sans-serif" font-size="13" lengthAdjust="spacing" textLength="78.9648" x="537" y="512.3638">Upload data</text></g><!--SRC=[RL91QiCm4Bph5Oll9lSU2d7S5aD80w7qKYYol6b5b9Mm978e-NjboNOSnxvOcfsPNOtaf5C8MosyyXOABav83HHUgaRI3nHAYvDbZ0kdMpZu-YoTmnQu1JjisB7bPuHgToWtyCSWV8cUxJP51IjuGwevdR9EHQAM4yhBRjsXI9nTMMyq39EiX3uRJKWEig7mYRML3gFV9Qtdr4ErVGVJeccrG6l3KIBRIgM_4yoY97NCvkUlA1IiQxrmlWsDqYYp7WDvlQ-YUPts8xNXZjVS1lkoNqLQKo-PxQUpmbuQL9AIe9ztGLJH3reNIJ8kbqXTn2KQ7MAIcj88utP9C0lZuMpNxgh6suTSuT7bpoEbln789zWazpky_qSivFB8W2TuHIT-mLCV3pOnM5XzKNgES5zWB4K1kJUJJWCOeEu91jzINqXfFgXkcSoKqqA0mrCDuWzpa_u3]--></g></svg>