<svg xmlns="http://www.w3.org/2000/svg" xmlns:xlink="http://www.w3.org/1999/xlink" contentStyleType="text/css" height="771px" preserveAspectRatio="none" style="width:792px;height:771px;background:#FFFFFF;" version="1.1" viewBox="0 0 792 771" width="792px" zoomAndPan="magnify"><title>Loculus Backend Building Blocks</title><defs/><g><text fill="#000000" font-family="sans-serif" font-size="14" font-weight="bold" lengthAdjust="spacing" textLength="257.8105" x="260.3555" y="22.9951">Loculus Backend Building Blocks</text><!--cluster INSDC--><g id="cluster_INSDC"><rect fill="none" height="127" rx="2.5" ry="2.5" style="stroke:#181818;stroke-width:1.0;" width="207" x="226" y="638.2969"/><path d="M284.9043,638.2969 L284.9043,647.5938 L274.9043,657.5938 L226,657.5938 " fill="none" style="stroke:#181818;stroke-width:1.0;"/><text fill="#000000" font-family="sans-serif" font-size="14" font-weight="bold" lengthAdjust="spacing" textLength="48.9043" x="229" y="652.292">INSDC</text></g><!--cluster Loculus--><g id="cluster_Loculus"><rect fill="none" height="545" rx="2.5" ry="2.5" style="stroke:#181818;stroke-width:1.0;" width="693" x="7" y="44.2969"/><path d="M76.9033,44.2969 L76.9033,53.5938 L66.9033,63.5938 L7,63.5938 " fill="none" style="stroke:#181818;stroke-width:1.0;"/><text fill="#000000" font-family="sans-serif" font-size="14" font-weight="bold" lengthAdjust="spacing" textLength="59.9033" x="10" y="58.292">Loculus</text></g><!--cluster Loculus Backend Infrastructure--><g id="cluster_Loculus Backend Infrastructure"><rect fill="none" height="478" rx="2.5" ry="2.5" style="stroke:#181818;stroke-width:1.0;" width="299" x="215" y="87.2969"/><path d="M472.7344,87.2969 L472.7344,96.5938 L462.7344,106.5938 L215,106.5938 " fill="none" style="stroke:#181818;stroke-width:1.0;"/><text fill="#000000" font-family="sans-serif" font-size="14" font-weight="bold" lengthAdjust="spacing" textLength="247.7344" x="218" y="101.292">Loculus Backend Infrastructure</text></g><!--entity ncbi--><g id="elem_ncbi"><ellipse cx="297.1899" cy="681.7969" fill="#F1F1F1" rx="8" ry="8" style="stroke:#181818;stroke-width:0.5;"/><path d="M297.1899,689.7969 L297.1899,716.7969 M284.1899,697.7969 L310.1899,697.7969 M297.1899,716.7969 L284.1899,731.7969 M297.1899,716.7969 L310.1899,731.7969 " fill="none" style="stroke:#181818;stroke-width:0.5;"/><text fill="#000000" font-family="sans-serif" font-size="14" lengthAdjust="spacing" textLength="110.3799" x="242" y="746.292">NCBI / Genbank</text></g><!--entity ena--><g id="elem_ena"><ellipse cx="401.9478" cy="681.7969" fill="#F1F1F1" rx="8" ry="8" style="stroke:#181818;stroke-width:0.5;"/><path d="M401.9478,689.7969 L401.9478,716.7969 M388.9478,697.7969 L414.9478,697.7969 M401.9478,716.7969 L388.9478,731.7969 M401.9478,716.7969 L414.9478,731.7969 " fill="none" style="stroke:#181818;stroke-width:0.5;"/><text fill="#000000" font-family="sans-serif" font-size="14" lengthAdjust="spacing" textLength="28.8955" x="387.5" y="746.292">ENA</text></g><!--entity website--><g id="elem_website"><rect fill="#F1F1F1" height="46.2969" rx="2.5" ry="2.5" style="stroke:#181818;stroke-width:0.5;" width="154.0713" x="530" y="122.2969"/><rect fill="#F1F1F1" height="10" style="stroke:#181818;stroke-width:0.5;" width="15" x="664.0713" y="127.2969"/><rect fill="#F1F1F1" height="2" style="stroke:#181818;stroke-width:0.5;" width="4" x="662.0713" y="129.2969"/><rect fill="#F1F1F1" height="2" style="stroke:#181818;stroke-width:0.5;" width="4" x="662.0713" y="133.2969"/><text fill="#000000" font-family="sans-serif" font-size="14" lengthAdjust="spacing" textLength="114.0713" x="545" y="155.292">Loculus Website</text></g><!--entity silo_prepro--><g id="elem_silo_prepro"><rect fill="#F1F1F1" height="46.2969" rx="2.5" ry="2.5" style="stroke:#181818;stroke-width:0.5;" width="175.2969" x="23.5" y="122.2969"/><rect fill="#F1F1F1" height="10" style="stroke:#181818;stroke-width:0.5;" width="15" x="178.7969" y="127.2969"/><rect fill="#F1F1F1" height="2" style="stroke:#181818;stroke-width:0.5;" width="4" x="176.7969" y="129.2969"/><rect fill="#F1F1F1" height="2" style="stroke:#181818;stroke-width:0.5;" width="4" x="176.7969" y="133.2969"/><text fill="#000000" font-family="sans-serif" font-size="14" lengthAdjust="spacing" textLength="135.2969" x="38.5" y="155.292">SILO preprocessing</text></g><!--entity backend--><g id="elem_backend"><rect fill="#F1F1F1" height="46.2969" rx="2.5" ry="2.5" style="stroke:#181818;stroke-width:0.5;" width="157.8037" x="266" y="275.2969"/><rect fill="#F1F1F1" height="10" style="stroke:#181818;stroke-width:0.5;" width="15" x="403.8037" y="280.2969"/><rect fill="#F1F1F1" height="2" style="stroke:#181818;stroke-width:0.5;" width="4" x="401.8037" y="282.2969"/><rect fill="#F1F1F1" height="2" style="stroke:#181818;stroke-width:0.5;" width="4" x="401.8037" y="286.2969"/><text fill="#000000" font-family="sans-serif" font-size="14" lengthAdjust="spacing" textLength="117.8037" x="281" y="308.292">Loculus Backend</text></g><!--entity db--><g id="elem_db"><path d="M301.5,407.2969 C301.5,397.2969 344.9004,397.2969 344.9004,397.2969 C344.9004,397.2969 388.3008,397.2969 388.3008,407.2969 L388.3008,432.5938 C388.3008,442.5938 344.9004,442.5938 344.9004,442.5938 C344.9004,442.5938 301.5,442.5938 301.5,432.5938 L301.5,407.2969 " fill="#F1F1F1" style="stroke:#181818;stroke-width:0.5;"/><path d="M301.5,407.2969 C301.5,417.2969 344.9004,417.2969 344.9004,417.2969 C344.9004,417.2969 388.3008,417.2969 388.3008,407.2969 " fill="none" style="stroke:#181818;stroke-width:0.5;"/><text fill="#000000" font-family="sans-serif" font-size="14" lengthAdjust="spacing" textLength="66.8008" x="311.5" y="434.292">Database</text></g><!--entity prepro--><g id="elem_prepro"><rect fill="#F1F1F1" height="46.2969" rx="2.5" ry="2.5" style="stroke:#181818;stroke-width:0.5;" width="198.1152" x="234" y="122.2969"/><rect fill="#F1F1F1" height="10" style="stroke:#181818;stroke-width:0.5;" width="15" x="412.1152" y="127.2969"/><rect fill="#F1F1F1" height="2" style="stroke:#181818;stroke-width:0.5;" width="4" x="410.1152" y="129.2969"/><rect fill="#F1F1F1" height="2" style="stroke:#181818;stroke-width:0.5;" width="4" x="410.1152" y="133.2969"/><text fill="#000000" font-family="sans-serif" font-size="14" lengthAdjust="spacing" textLength="158.1152" x="249" y="155.292">Preprocessing Pipeline</text></g><!--entity ingest--><g id="elem_ingest"><rect fill="#F1F1F1" height="46.2969" rx="2.5" ry="2.5" style="stroke:#181818;stroke-width:0.5;" width="83.2852" x="231.5" y="503.2969"/><rect fill="#F1F1F1" height="10" style="stroke:#181818;stroke-width:0.5;" width="15" x="294.7852" y="508.2969"/><rect fill="#F1F1F1" height="2" style="stroke:#181818;stroke-width:0.5;" width="4" x="292.7852" y="510.2969"/><rect fill="#F1F1F1" height="2" style="stroke:#181818;stroke-width:0.5;" width="4" x="292.7852" y="514.2969"/><text fill="#000000" font-family="sans-serif" font-size="14" lengthAdjust="spacing" textLength="43.2852" x="246.5" y="536.292">Ingest</text></g><!--entity deposition--><g id="elem_deposition"><rect fill="#F1F1F1" height="46.2969" rx="2.5" ry="2.5" style="stroke:#181818;stroke-width:0.5;" width="148.1924" x="350" y="503.2969"/><rect fill="#F1F1F1" height="10" style="stroke:#181818;stroke-width:0.5;" width="15" x="478.1924" y="508.2969"/><rect fill="#F1F1F1" height="2" style="stroke:#181818;stroke-width:0.5;" width="4" x="476.1924" y="510.2969"/><rect fill="#F1F1F1" height="2" style="stroke:#181818;stroke-width:0.5;" width="4" x="476.1924" y="514.2969"/><text fill="#000000" font-family="sans-serif" font-size="14" lengthAdjust="spacing" textLength="108.1924" x="365" y="536.292">ENA Deposition</text></g><!--entity submitter--><g id="elem_submitter"><ellipse cx="750.7607" cy="268.7969" fill="#F1F1F1" rx="8" ry="8" style="stroke:#181818;stroke-width:0.5;"/><path d="M750.7607,276.7969 L750.7607,303.7969 M737.7607,284.7969 L763.7607,284.7969 M750.7607,303.7969 L737.7607,318.7969 M750.7607,303.7969 L763.7607,318.7969 " fill="none" style="stroke:#181818;stroke-width:0.5;"/><text fill="#000000" font-family="sans-serif" font-size="14" lengthAdjust="spacing" textLength="69.5215" x="716" y="333.292">Submitter</text></g><!--reverse link backend to submitter--><g id="link_backend_submitter"><path d="M430.3,298.2969 C527.5,298.2969 618.7,298.2969 715.9,298.2969 " fill="none" id="backend-backto-submitter" style="stroke:#181818;stroke-width:1.0;"/><polygon fill="#181818" points="424.3,298.2969,433.3,302.2969,429.3,298.2969,433.3,294.2969,424.3,298.2969" style="stroke:#181818;stroke-width:1.0;"/></g><!--link website to backend--><g id="link_website_backend"><path d="M584.45,168.4669 C564.92,186.7969 535.27,212.5869 506,230.2969 C476.08,248.3969 445.9996,261.6779 415.8296,273.1279 " fill="none" id="website-to-backend" style="stroke:#181818;stroke-width:1.0;"/><polygon fill="#181818" points="410.22,275.2569,420.0537,275.8032,414.8947,273.4828,417.2151,268.3237,410.22,275.2569" style="stroke:#181818;stroke-width:1.0;"/></g><!--link silo_prepro to backend--><g id="link_silo_prepro_backend"><path d="M145.53,168.5769 C189.9,197.2069 261.4183,243.364 305.6683,271.914 " fill="none" id="silo_prepro-to-backend" style="stroke:#181818;stroke-width:1.0;"/><polygon fill="#181818" points="310.71,275.1669,305.316,266.9264,306.5086,272.4561,300.9789,273.6487,310.71,275.1669" style="stroke:#181818;stroke-width:1.0;"/></g><!--link backend to db--><g id="link_backend_db"><path d="M345,321.4969 C345,343.0969 345,369.7069 345,391.1169 " fill="none" id="backend-to-db" style="stroke:#181818;stroke-width:1.0;"/><polygon fill="#181818" points="345,397.1169,349,388.1169,345,392.1169,341,388.1169,345,397.1169" style="stroke:#181818;stroke-width:1.0;"/></g><!--link prepro to backend--><g id="link_prepro_backend"><path d="M332.48,168.3069 C332.29,177.5669 332.09,188.4569 332,198.2969 C331.86,212.5169 330.64,216.1369 332,230.2969 C333.45,245.3969 335.3951,256.2905 338.2851,269.2605 " fill="none" id="prepro-to-backend" style="stroke:#181818;stroke-width:1.0;"/><polygon fill="#181818" points="339.59,275.1169,341.5369,265.4624,338.5026,270.2366,333.7284,267.2023,339.59,275.1169" style="stroke:#181818;stroke-width:1.0;"/><text fill="#000000" font-family="sans-serif" font-size="13" lengthAdjust="spacing" textLength="164.9883" x="333" y="211.3638">Fetch unprocessed data /</text><text fill="#000000" font-family="sans-serif" font-size="13" lengthAdjust="spacing" textLength="150.1538" x="340.4172" y="226.4966">Submit processed data</text></g><!--reverse link backend to ingest--><g id="link_backend_ingest"><path d="M323.2574,326.2798 C308.9274,345.1998 293.43,368.9669 284,397.2969 C272.17,432.8469 271.13,476.8669 271.81,502.9269 " fill="none" id="backend-backto-ingest" style="stroke:#181818;stroke-width:1.0;"/><polygon fill="#181818" points="326.88,321.4969,318.2574,326.2562,323.8612,325.4827,324.6347,331.0864,326.88,321.4969" style="stroke:#181818;stroke-width:1.0;"/></g><!--reverse link db to ingest--><g id="link_db_ingest"><path d="M326.6768,447.3884 C314.4868,465.0884 300.72,485.0669 288.4,502.9469 " fill="none" id="db-backto-ingest" style="stroke:#181818;stroke-width:1.0;"/><polygon fill="#181818" points="330.08,442.4469,321.6809,447.5903,327.244,446.5648,328.2695,452.1279,330.08,442.4469" style="stroke:#181818;stroke-width:1.0;"/></g><!--link ingest to ncbi--><g id="link_ingest_ncbi"><path d="M275.89,549.3669 C279.92,580.0769 286.4905,630.1377 291.3605,667.3077 " fill="none" id="ingest-to-ncbi" style="stroke:#181818;stroke-width:1.0;"/><polygon fill="#181818" points="292.14,673.2569,294.9369,663.8135,291.4905,668.2992,287.0047,664.8528,292.14,673.2569" style="stroke:#181818;stroke-width:1.0;"/><text fill="#000000" font-family="sans-serif" font-size="13" lengthAdjust="spacing" textLength="98.0332" x="286" y="618.3638">Download data</text></g><!--reverse link backend to deposition--><g id="link_backend_deposition"><path d="M366.2956,326.4551 C380.3956,345.4551 395.81,369.2269 406,397.2969 C418.86,432.7369 422.6,476.7869 423.64,502.8869 " fill="none" id="backend-backto-deposition" style="stroke:#181818;stroke-width:1.0;"/><polygon fill="#181818" points="362.72,321.6369,364.8713,331.2479,365.6997,325.652,371.2955,326.4804,362.72,321.6369" style="stroke:#181818;stroke-width:1.0;"/></g><!--reverse link db to deposition--><g id="link_db_deposition"><path d="M364.9881,447.2332 C378.3681,464.9332 393.59,485.0669 407.11,502.9469 " fill="none" id="db-backto-deposition" style="stroke:#181818;stroke-width:1.0;"/><polygon fill="#181818" points="361.37,442.4469,363.6063,452.0385,364.3851,446.4355,369.9881,447.2143,361.37,442.4469" style="stroke:#181818;stroke-width:1.0;"/></g><!--link deposition to ena--><g id="link_deposition_ena"><path d="M421.35,549.3669 C417.65,580.0769 411.6364,630.1298 407.1664,667.2998 " fill="none" id="deposition-to-ena" style="stroke:#181818;stroke-width:1.0;"/><polygon fill="#181818" points="406.45,673.2569,411.496,664.7988,407.047,668.2926,403.5532,663.8437,406.45,673.2569" style="stroke:#181818;stroke-width:1.0;"/><text fill="#000000" font-family="sans-serif" font-size="13" lengthAdjust="spacing" textLength="78.9648" x="415" y="618.3638">Upload data</text></g><!--SRC=[RL9DQyCm3BtxLuZSG-yx39fc6u7I5ShOPJ0SHzrCNJduWnv6__iSEqdJDBd4Udfwafxjf5C8MosyyXOABav83HHUgaRI3nHAYvDbZ0kd3HnyVPREeG5kmGu1Enf-HgXsXt83Vmp2b-ZPRbDKi88tf9hJAUkgIDHoGddPhJiKYRChwuM6OPAKqETM4vA3R4XyOcsbmwXtIUSvzL1jtw4rs1ejqDgmIcHRgVHtWbaiIHsp-VuLXOHrnWldJMYKHfdr6CZhVHN5wnIFr8OxNdCRvCl-56bDlIIsdyuAUzcYafGA-daNYYhwGUiYISRZ4gcpkCHM1vkafZJ262uLpCnusEtQNTLu-v0hFBhyUQJqDmBv19luVeVt_uW5NnuPy0IlwCGlUEhjmIOQ2wilIiyHxXEC9IiWz-saqnqOMWrnYBed6VgK-a9Ayq7bvj5CwI4HrAPOGC9p3e8VxKtk7m00]--></g></svg>