<svg xmlns="http://www.w3.org/2000/svg" xmlns:xlink="http://www.w3.org/1999/xlink" contentStyleType="text/css" height="538px" preserveAspectRatio="none" style="width:624px;height:538px;background:#FFFFFF;" version="1.1" viewBox="0 0 624 538" width="624px" zoomAndPan="magnify"><title>Loculus LAPIS Building Blocks</title><defs/><g><text fill="#000000" font-family="sans-serif" font-size="14" font-weight="bold" lengthAdjust="spacing" textLength="235.9082" x="187.4878" y="22.9951">Loculus LAPIS Building Blocks</text><!--cluster Loculus--><g id="cluster_Loculus"><rect fill="none" height="488" rx="2.5" ry="2.5" style="stroke:#181818;stroke-width:1.0;" width="556" x="54" y="44.2969"/><path d="M123.9033,44.2969 L123.9033,53.5938 L113.9033,63.5938 L54,63.5938 " fill="none" style="stroke:#181818;stroke-width:1.0;"/><text fill="#000000" font-family="sans-serif" font-size="14" font-weight="bold" lengthAdjust="spacing" textLength="59.9033" x="57" y="58.292">Loculus</text></g><!--cluster LAPIS / SILO--><g id="cluster_LAPIS / SILO"><rect fill="none" height="235" rx="2.5" ry="2.5" style="stroke:#181818;stroke-width:1.0;" width="508" x="78" y="172.2969"/><path d="M184.2842,172.2969 L184.2842,181.5938 L174.2842,191.5938 L78,191.5938 " fill="none" style="stroke:#181818;stroke-width:1.0;"/><text fill="#000000" font-family="sans-serif" font-size="14" font-weight="bold" lengthAdjust="spacing" textLength="96.2842" x="81" y="186.292">LAPIS / SILO</text></g><!--entity website--><g id="elem_website"><rect fill="#F1F1F1" height="46.2969" rx="2.5" ry="2.5" style="stroke:#181818;stroke-width:0.5;" width="154.0713" x="137" y="79.2969"/><rect fill="#F1F1F1" height="10" style="stroke:#181818;stroke-width:0.5;" width="15" x="271.0713" y="84.2969"/><rect fill="#F1F1F1" height="2" style="stroke:#181818;stroke-width:0.5;" width="4" x="269.0713" y="86.2969"/><rect fill="#F1F1F1" height="2" style="stroke:#181818;stroke-width:0.5;" width="4" x="269.0713" y="90.2969"/><text fill="#000000" font-family="sans-serif" font-size="14" lengthAdjust="spacing" textLength="114.0713" x="152" y="112.292">Loculus Website</text></g><!--entity backend--><g id="elem_backend"><rect fill="#F1F1F1" height="46.2969" rx="2.5" ry="2.5" style="stroke:#181818;stroke-width:0.5;" width="157.8037" x="103" y="470.2969"/><rect fill="#F1F1F1" height="10" style="stroke:#181818;stroke-width:0.5;" width="15" x="240.8037" y="475.2969"/><rect fill="#F1F1F1" height="2" style="stroke:#181818;stroke-width:0.5;" width="4" x="238.8037" y="477.2969"/><rect fill="#F1F1F1" height="2" style="stroke:#181818;stroke-width:0.5;" width="4" x="238.8037" y="481.2969"/><text fill="#000000" font-family="sans-serif" font-size="14" lengthAdjust="spacing" textLength="117.8037" x="118" y="503.292">Loculus Backend</text></g><!--entity lapis--><g id="elem_lapis"><rect fill="#F1F1F1" height="46.2969" rx="2.5" ry="2.5" style="stroke:#181818;stroke-width:0.5;" width="78.835" x="174.5" y="207.2969"/><rect fill="#F1F1F1" height="10" style="stroke:#181818;stroke-width:0.5;" width="15" x="233.335" y="212.2969"/><rect fill="#F1F1F1" height="2" style="stroke:#181818;stroke-width:0.5;" width="4" x="231.335" y="214.2969"/><rect fill="#F1F1F1" height="2" style="stroke:#181818;stroke-width:0.5;" width="4" x="231.335" y="218.2969"/><text fill="#000000" font-family="sans-serif" font-size="14" lengthAdjust="spacing" textLength="38.835" x="189.5" y="240.292">LAPIS</text></g><!--entity silo--><g id="elem_silo"><rect fill="#F1F1F1" height="46.2969" rx="2.5" ry="2.5" style="stroke:#181818;stroke-width:0.5;" width="98.4336" x="322" y="207.2969"/><rect fill="#F1F1F1" height="10" style="stroke:#181818;stroke-width:0.5;" width="15" x="400.4336" y="212.2969"/><rect fill="#F1F1F1" height="2" style="stroke:#181818;stroke-width:0.5;" width="4" x="398.4336" y="214.2969"/><rect fill="#F1F1F1" height="2" style="stroke:#181818;stroke-width:0.5;" width="4" x="398.4336" y="218.2969"/><text fill="#000000" font-family="sans-serif" font-size="14" lengthAdjust="spacing" textLength="58.4336" x="337" y="240.292">SILO API</text></g><!--entity serialized_data--><g id="elem_serialized_data"><path d="M442.5,352.7969 L442.5,384.0938 A2.5,2.5 0 0 0 445,386.5938 L567.2012,386.5938 A2.5,2.5 0 0 0 569.7012,384.0938 L569.7012,360.2969 L559.7012,350.2969 L445,350.2969 A2.5,2.5 0 0 0 442.5,352.7969 " fill="#F1F1F1" style="stroke:#181818;stroke-width:0.5;"/><path d="M559.7012,350.2969 L559.7012,357.7969 A2.5,2.5 0 0 0 562.2012,360.2969 L569.7012,360.2969 " fill="#F1F1F1" style="stroke:#181818;stroke-width:0.5;"/><text fill="#000000" font-family="sans-serif" font-size="14" lengthAdjust="spacing" textLength="107.2012" x="452.5" y="373.292">Shared Volume</text></g><!--entity silo_prepro--><g id="elem_silo_prepro"><rect fill="#F1F1F1" height="46.2969" rx="2.5" ry="2.5" style="stroke:#181818;stroke-width:0.5;" width="175.2969" x="94.5" y="345.2969"/><rect fill="#F1F1F1" height="10" style="stroke:#181818;stroke-width:0.5;" width="15" x="249.7969" y="350.2969"/><rect fill="#F1F1F1" height="2" style="stroke:#181818;stroke-width:0.5;" width="4" x="247.7969" y="352.2969"/><rect fill="#F1F1F1" height="2" style="stroke:#181818;stroke-width:0.5;" width="4" x="247.7969" y="356.2969"/><text fill="#000000" font-family="sans-serif" font-size="14" lengthAdjust="spacing" textLength="135.2969" x="109.5" y="378.292">SILO preprocessing</text></g><!--entity user--><g id="elem_user"><ellipse cx="21.9551" cy="200.7969" fill="#F1F1F1" rx="8" ry="8" style="stroke:#181818;stroke-width:0.5;"/><path d="M21.9551,208.7969 L21.9551,235.7969 M8.9551,216.7969 L34.9551,216.7969 M21.9551,235.7969 L8.9551,250.7969 M21.9551,235.7969 L34.9551,250.7969 " fill="none" style="stroke:#181818;stroke-width:0.5;"/><text fill="#000000" font-family="sans-serif" font-size="14" lengthAdjust="spacing" textLength="31.9102" x="6" y="265.292">User</text></g><!--link user to lapis--><g id="link_user_lapis"><path d="M38.12,230.2969 C83.58,230.2969 123.04,230.2969 168.5,230.2969 " fill="none" id="user-to-lapis" style="stroke:#181818;stroke-width:1.0;"/><polygon fill="#181818" points="174.5,230.2969,165.5,226.2969,169.5,230.2969,165.5,234.2969,174.5,230.2969" style="stroke:#181818;stroke-width:1.0;"/></g><!--link website to lapis--><g id="link_website_lapis"><path d="M214,125.5369 C214,148.5669 214,178.3369 214,201.2869 " fill="none" id="website-to-lapis" style="stroke:#181818;stroke-width:1.0;"/><polygon fill="#181818" points="214,207.2869,218,198.2869,214,202.2869,210,198.2869,214,207.2869" style="stroke:#181818;stroke-width:1.0;"/></g><!--link lapis to silo--><g id="link_lapis_silo"><path d="M253.56,230.2969 C276.34,230.2969 293.13,230.2969 315.91,230.2969 " fill="none" id="lapis-to-silo" style="stroke:#181818;stroke-width:1.0;"/><polygon fill="#181818" points="321.91,230.2969,312.91,226.2969,316.91,230.2969,312.91,234.2969,321.91,230.2969" style="stroke:#181818;stroke-width:1.0;"/></g><!--link silo to serialized_data--><g id="link_silo_serialized_data"><path d="M392.1,253.6169 C408.32,270.6769 431.36,294.6769 452,315.2969 C463.78,327.0769 472.9337,335.9405 483.4937,345.9905 " fill="none" id="silo-to-serialized_data" style="stroke:#181818;stroke-width:1.0;"/><polygon fill="#181818" points="487.84,350.1269,484.0781,341.0248,484.2181,346.6799,478.563,346.8198,487.84,350.1269" style="stroke:#181818;stroke-width:1.0;"/><text fill="#000000" font-family="sans-serif" font-size="13" lengthAdjust="spacing" textLength="163.8838" x="453" y="311.3638">Load new database state</text></g><!--link silo_prepro to serialized_data--><g id="link_silo_prepro_serialized_data"><path d="M269.68,368.2969 C324.22,368.2969 387.1,368.2969 436.4,368.2969 " fill="none" id="silo_prepro-to-serialized_data" style="stroke:#181818;stroke-width:1.0;"/><polygon fill="#181818" points="442.4,368.2969,433.4,364.2969,437.4,368.2969,433.4,372.2969,442.4,368.2969" style="stroke:#181818;stroke-width:1.0;"/><text fill="#000000" font-family="sans-serif" font-size="13" lengthAdjust="spacing" textLength="136.1128" x="288" y="361.3638">Store database state</text></g><!--link silo_prepro to backend--><g id="link_silo_prepro_backend"><path d="M182,391.5669 C182,413.8669 182,441.9569 182,464.1869 " fill="none" id="silo_prepro-to-backend" style="stroke:#181818;stroke-width:1.0;"/><polygon fill="#181818" points="182,470.1869,186,461.1869,182,465.1869,178,461.1869,182,470.1869" style="stroke:#181818;stroke-width:1.0;"/><text fill="#000000" font-family="sans-serif" font-size="13" lengthAdjust="spacing" textLength="172.1421" x="183" y="436.3638">Cronjob fetching new data</text></g><!--SRC=[TP9FRuGW4CNlV8e9TzDx3qrgJvkOj8bfUzmWpAvq4GnWJDhiT-y0hlkdNG-8-7upppT67Gr2u-HafW3DyzkcXNhIHccxXzeuUGYC2HcTX_U07aI0YUwCxRmOpk0F0xga6qPdqKRWfnUVs0KTaITmBljxqbh80rgLfLtPiwmjhNWnzm3jfddbIyVhKaL1k16Z3ly8U6A1LBb9qCQjefsc77ZR2uyAFfoPXcAQFbOBexzHRPM8ucxHqUFedSGGABcr_BOSP-h8ZeobyA3oUj_7wcdnkUG2rNgIrxCi6qrBbjmuWaUQWb1WSORqt8c04AAWeDc5XOjgV_YMnekty1Mht6m9NSP2o8jtzijriCCe-_IldDepzWi0]--></g></svg>