<svg xmlns="http://www.w3.org/2000/svg" xmlns:xlink="http://www.w3.org/1999/xlink" contentStyleType="text/css" height="578px" preserveAspectRatio="none" style="width:374px;height:578px;background:#FFFFFF;" version="1.1" viewBox="0 0 374 578" width="374px" zoomAndPan="magnify"><title>Loculus Building Block Overview</title><defs/><g><text fill="#000000" font-family="sans-serif" font-size="14" font-weight="bold" lengthAdjust="spacing" textLength="256.0469" x="52.3766" y="22.9951">Loculus Building Block Overview</text><!--cluster loculus--><g id="cluster_loculus"><rect fill="none" height="309" rx="2.5" ry="2.5" style="stroke:#181818;stroke-width:1.0;" width="325" x="24.33" y="143.7969"/><path d="M94.2333,143.7969 L94.2333,153.0938 L84.2333,163.0938 L24.33,163.0938 " fill="none" style="stroke:#181818;stroke-width:1.0;"/><text fill="#000000" font-family="sans-serif" font-size="14" font-weight="bold" lengthAdjust="spacing" textLength="59.9033" x="27.33" y="157.792">Loculus</text></g><!--entity website--><g id="elem_website"><rect fill="#F1F1F1" height="46.2969" rx="2.5" ry="2.5" style="stroke:#181818;stroke-width:0.5;" width="154.0713" x="179.33" y="178.7969"/><rect fill="#F1F1F1" height="10" style="stroke:#181818;stroke-width:0.5;" width="15" x="313.4013" y="183.7969"/><rect fill="#F1F1F1" height="2" style="stroke:#181818;stroke-width:0.5;" width="4" x="311.4013" y="185.7969"/><rect fill="#F1F1F1" height="2" style="stroke:#181818;stroke-width:0.5;" width="4" x="311.4013" y="189.7969"/><text fill="#000000" font-family="sans-serif" font-size="14" lengthAdjust="spacing" textLength="114.0713" x="194.33" y="211.792">Loculus Website</text></g><!--entity backend--><g id="elem_backend"><rect fill="#F1F1F1" height="46.2969" rx="2.5" ry="2.5" style="stroke:#181818;stroke-width:0.5;" width="258.3604" x="45.33" y="390.7969"/><rect fill="#F1F1F1" height="10" style="stroke:#181818;stroke-width:0.5;" width="15" x="283.6904" y="395.7969"/><rect fill="#F1F1F1" height="2" style="stroke:#181818;stroke-width:0.5;" width="4" x="281.6904" y="397.7969"/><rect fill="#F1F1F1" height="2" style="stroke:#181818;stroke-width:0.5;" width="4" x="281.6904" y="401.7969"/><text fill="#000000" font-family="sans-serif" font-size="14" lengthAdjust="spacing" textLength="218.3604" x="60.33" y="423.792">Loculus Backend Infrastructure</text></g><!--entity lapis--><g id="elem_lapis"><rect fill="#F1F1F1" height="46.2969" rx="2.5" ry="2.5" style="stroke:#181818;stroke-width:0.5;" width="78.835" x="216.83" y="284.7969"/><rect fill="#F1F1F1" height="10" style="stroke:#181818;stroke-width:0.5;" width="15" x="275.665" y="289.7969"/><rect fill="#F1F1F1" height="2" style="stroke:#181818;stroke-width:0.5;" width="4" x="273.665" y="291.7969"/><rect fill="#F1F1F1" height="2" style="stroke:#181818;stroke-width:0.5;" width="4" x="273.665" y="295.7969"/><text fill="#000000" font-family="sans-serif" font-size="14" lengthAdjust="spacing" textLength="38.835" x="231.83" y="317.792">LAPIS</text></g><!--entity keycloak--><g id="elem_keycloak"><rect fill="#F1F1F1" height="46.2969" rx="2.5" ry="2.5" style="stroke:#181818;stroke-width:0.5;" width="102.918" x="40.83" y="178.7969"/><rect fill="#F1F1F1" height="10" style="stroke:#181818;stroke-width:0.5;" width="15" x="123.748" y="183.7969"/><rect fill="#F1F1F1" height="2" style="stroke:#181818;stroke-width:0.5;" width="4" x="121.748" y="185.7969"/><rect fill="#F1F1F1" height="2" style="stroke:#181818;stroke-width:0.5;" width="4" x="121.748" y="189.7969"/><text fill="#000000" font-family="sans-serif" font-size="14" lengthAdjust="spacing" textLength="62.918" x="55.83" y="211.792">Keycloak</text></g><!--entity user--><g id="elem_user"><ellipse cx="321.2851" cy="51.2969" fill="#F1F1F1" rx="8" ry="8" style="stroke:#181818;stroke-width:0.5;"/><path d="M321.2851,59.2969 L321.2851,86.2969 M308.2851,67.2969 L334.2851,67.2969 M321.2851,86.2969 L308.2851,101.2969 M321.2851,86.2969 L334.2851,101.2969 " fill="none" style="stroke:#181818;stroke-width:0.5;"/><text fill="#000000" font-family="sans-serif" font-size="14" lengthAdjust="spacing" textLength="31.9102" x="305.33" y="115.792">User</text></g><!--entity submitter--><g id="elem_submitter"><ellipse cx="92.0907" cy="51.2969" fill="#F1F1F1" rx="8" ry="8" style="stroke:#181818;stroke-width:0.5;"/><path d="M92.0907,59.2969 L92.0907,86.2969 M79.0907,67.2969 L105.0907,67.2969 M92.0907,86.2969 L79.0907,101.2969 M92.0907,86.2969 L105.0907,101.2969 " fill="none" style="stroke:#181818;stroke-width:0.5;"/><text fill="#000000" font-family="sans-serif" font-size="14" lengthAdjust="spacing" textLength="69.5215" x="57.33" y="115.792">Submitter</text></g><!--entity insdc--><g id="elem_insdc"><ellipse cx="174.352" cy="505.2969" fill="#F1F1F1" rx="8" ry="8" style="stroke:#181818;stroke-width:0.5;"/><path d="M174.352,513.2969 L174.352,540.2969 M161.352,521.2969 L187.352,521.2969 M174.352,540.2969 L161.352,555.2969 M174.352,540.2969 L187.352,555.2969 " fill="none" style="stroke:#181818;stroke-width:0.5;"/><text fill="#000000" font-family="sans-serif" font-size="14" lengthAdjust="spacing" textLength="44.0439" x="152.33" y="569.792">INSDC</text></g><!--link submitter to website--><g id="link_submitter_website"><path d="M127.51,107.3269 C156.78,128.5669 193.1635,154.9634 221.0335,175.1834 " fill="none" id="submitter-to-website" style="stroke:#181818;stroke-width:1.0;"/><polygon fill="#181818" points="225.89,178.7069,220.9542,170.1841,221.8429,175.7707,216.2563,176.6594,225.89,178.7069" style="stroke:#181818;stroke-width:1.0;"/></g><!--link submitter to backend--><g id="link_submitter_backend"><path d="M57.02,100.2669 C43.93,109.1069 30.53,121.0269 23.33,135.7969 C6,171.3569 10.2,187.4869 23.33,224.7969 C48.06,295.0869 106.9066,354.5408 143.2166,386.6708 " fill="none" id="submitter-to-backend" style="stroke:#181818;stroke-width:1.0;"/><polygon fill="#181818" points="147.71,390.6469,143.6207,381.6871,143.9655,387.3334,138.3192,387.6783,147.71,390.6469" style="stroke:#181818;stroke-width:1.0;"/></g><!--link submitter to keycloak--><g id="link_submitter_keycloak"><path d="M92.33,118.7969 C92.33,138.4469 92.33,155.9369 92.33,172.7269 " fill="none" id="submitter-to-keycloak" style="stroke:#181818;stroke-width:1.0;"/><polygon fill="#181818" points="92.33,178.7269,96.33,169.7269,92.33,173.7269,88.33,169.7269,92.33,178.7269" style="stroke:#181818;stroke-width:1.0;"/></g><!--link user to website--><g id="link_user_website"><path d="M305.26,111.2169 C293.91,131.9969 281.7954,154.1608 271.4154,173.1708 " fill="none" id="user-to-website" style="stroke:#181818;stroke-width:1.0;"/><polygon fill="#181818" points="268.54,178.4369,276.3639,172.4547,270.9362,174.0485,269.3424,168.6208,268.54,178.4369" style="stroke:#181818;stroke-width:1.0;"/></g><!--link user to lapis--><g id="link_user_lapis"><path d="M337.38,104.6169 C342.95,113.8569 348.51,124.8969 351.33,135.7969 C361.25,174.0869 367.8,188.8269 351.33,224.7969 C339.81,249.9569 321.2967,266.9559 300.5667,281.0959 " fill="none" id="user-to-lapis" style="stroke:#181818;stroke-width:1.0;"/><polygon fill="#181818" points="295.61,284.4769,305.299,282.7099,299.7406,281.6594,300.7911,276.1009,295.61,284.4769" style="stroke:#181818;stroke-width:1.0;"/></g><!--link website to backend--><g id="link_website_backend"><path d="M237.1,224.9569 C224.49,240.6569 208.65,262.7569 199.33,284.7969 C184.42,320.0369 178.857,358.5628 176.417,384.7328 " fill="none" id="website-to-backend" style="stroke:#181818;stroke-width:1.0;"/><polygon fill="#181818" points="175.86,390.7069,180.6782,382.1171,176.3242,385.7285,172.7128,381.3744,175.86,390.7069" style="stroke:#181818;stroke-width:1.0;"/></g><!--link website to lapis--><g id="link_website_lapis"><path d="M256.33,224.8569 C256.33,242.4969 256.33,261.1369 256.33,278.7769 " fill="none" id="website-to-lapis" style="stroke:#181818;stroke-width:1.0;"/><polygon fill="#181818" points="256.33,284.7769,260.33,275.7769,256.33,279.7769,252.33,275.7769,256.33,284.7769" style="stroke:#181818;stroke-width:1.0;"/></g><!--link lapis to backend--><g id="link_lapis_backend"><path d="M238.94,330.8569 C225.02,348.4969 209.3135,368.4242 195.4135,386.0642 " fill="none" id="lapis-to-backend" style="stroke:#181818;stroke-width:1.0;"/><polygon fill="#181818" points="191.7,390.7769,200.4121,386.1835,194.7946,386.8496,194.1285,381.2321,191.7,390.7769" style="stroke:#181818;stroke-width:1.0;"/></g><!--link backend to insdc--><g id="link_backend_insdc"><path d="M174.33,436.8969 C174.33,453.5669 174.33,470.8269 174.33,490.3769 " fill="none" id="backend-to-insdc" style="stroke:#181818;stroke-width:1.0;"/><polygon fill="#181818" points="174.33,496.3769,178.33,487.3769,174.33,491.3769,170.33,487.3769,174.33,496.3769" style="stroke:#181818;stroke-width:1.0;"/></g><!--reverse link keycloak to backend--><g id="link_keycloak_backend"><path d="M103.1326,230.4658 C118.8826,270.7958 149.95,350.3569 165.7,390.6969 " fill="none" id="keycloak-backto-backend" style="stroke:#181818;stroke-width:1.0;"/><polygon fill="#181818" points="100.95,224.8769,100.498,234.7154,102.7689,229.5343,107.9499,231.8052,100.95,224.8769" style="stroke:#181818;stroke-width:1.0;"/></g><!--reverse link keycloak to website--><g id="link_keycloak_website"><path d="M149.9,201.7969 C161.61,201.7969 167.32,201.7969 179.03,201.7969 " fill="none" id="keycloak-backto-website" style="stroke:#181818;stroke-width:1.0;"/><polygon fill="#181818" points="143.9,201.7969,152.9,205.7969,148.9,201.7969,152.9,197.7969,143.9,201.7969" style="stroke:#181818;stroke-width:1.0;"/></g><!--SRC=[TP3FJiGW4CRlynIJlUyhc5YzD1erQJQUAPrTIIbiODYDCRwx52YsQ-G0m-_xvW-mOatuR6NGmMCJb1wKEM6ZhHpnzKBkekWA82HRXmTF3eN74C-2kj1FYZbplroAsBvqZm-pe8mV9C3HYUctMUIwX5-0SKaxdQqXmxXRFE_KUyMqcytN7FzdROGSoGpOcjZ6imkIWykPVPR-PDw_jLqoQ75M_bP-ea-fhHYJOomN-0QepyJz_gwEjQ9EdJuuIalVRK8j1VC_RcfKa0U2mXDQYgrPjgLzuu4I95W-lo9DHrwFKGlU2Zy0]--></g></svg>