<svg xmlns="http://www.w3.org/2000/svg" xmlns:xlink="http://www.w3.org/1999/xlink" contentStyleType="text/css" height="391px" preserveAspectRatio="none" style="width:959px;height:391px;background:#FFFFFF;" version="1.1" viewBox="0 0 959 391" width="959px" zoomAndPan="magnify"><title>ENA Deposition</title><defs/><g><text fill="#000000" font-family="sans-serif" font-size="14" font-weight="bold" lengthAdjust="spacing" textLength="121.9531" x="417.9519" y="27.9951">ENA Deposition</text><rect fill="#FFFFFF" height="116.5313" style="stroke:#181818;stroke-width:1.0;" width="10" x="271.1685" y="221.2578"/><rect fill="#FFFFFF" height="58.2656" style="stroke:#181818;stroke-width:1.0;" width="10" x="391.1074" y="104.7266"/><line style="stroke:#181818;stroke-width:0.5;stroke-dasharray:5.0,5.0;" x1="26" x2="26" y1="73.5938" y2="355.7891"/><line style="stroke:#181818;stroke-width:0.5;stroke-dasharray:5.0,5.0;" x1="276.019" x2="276.019" y1="73.5938" y2="355.7891"/><line style="stroke:#181818;stroke-width:0.5;stroke-dasharray:5.0,5.0;" x1="395.3179" x2="395.3179" y1="73.5938" y2="355.7891"/><line style="stroke:#181818;stroke-width:0.5;stroke-dasharray:5.0,5.0;" x1="661.4331" x2="661.4331" y1="73.5938" y2="355.7891"/><line style="stroke:#181818;stroke-width:0.5;stroke-dasharray:5.0,5.0;" x1="781.1929" x2="781.1929" y1="73.5938" y2="355.7891"/><line style="stroke:#181818;stroke-width:0.5;stroke-dasharray:5.0,5.0;" x1="887.0532" x2="887.0532" y1="73.5938" y2="355.7891"/><rect fill="#FFC0CB" height="30.2969" rx="2.5" ry="2.5" style="stroke:#181818;stroke-width:0.5;" width="42.8955" x="5" y="42.2969"/><text fill="#000000" font-family="sans-serif" font-size="14" lengthAdjust="spacing" textLength="28.8955" x="12" y="62.292">ENA</text><rect fill="#FFC0CB" height="30.2969" rx="2.5" ry="2.5" style="stroke:#181818;stroke-width:0.5;" width="42.8955" x="5" y="354.7891"/><text fill="#000000" font-family="sans-serif" font-size="14" lengthAdjust="spacing" textLength="28.8955" x="12" y="374.7842">ENA</text><rect fill="#E0FFFF" height="30.2969" rx="2.5" ry="2.5" style="stroke:#181818;stroke-width:0.5;" width="120.2988" x="216.019" y="42.2969"/><text fill="#000000" font-family="sans-serif" font-size="14" lengthAdjust="spacing" textLength="106.2988" x="223.019" y="62.292">ENA deposition</text><rect fill="#E0FFFF" height="30.2969" rx="2.5" ry="2.5" style="stroke:#181818;stroke-width:0.5;" width="120.2988" x="216.019" y="354.7891"/><text fill="#000000" font-family="sans-serif" font-size="14" lengthAdjust="spacing" textLength="106.2988" x="223.019" y="374.7842">ENA deposition</text><rect fill="#E0FFFF" height="30.2969" rx="2.5" ry="2.5" style="stroke:#181818;stroke-width:0.5;" width="99.5791" x="346.3179" y="42.2969"/><text fill="#000000" font-family="sans-serif" font-size="14" lengthAdjust="spacing" textLength="85.5791" x="353.3179" y="62.292">ENA cronjob</text><rect fill="#E0FFFF" height="30.2969" rx="2.5" ry="2.5" style="stroke:#181818;stroke-width:0.5;" width="99.5791" x="346.3179" y="354.7891"/><text fill="#000000" font-family="sans-serif" font-size="14" lengthAdjust="spacing" textLength="85.5791" x="353.3179" y="374.7842">ENA cronjob</text><rect fill="#E2E2F0" height="30.2969" rx="2.5" ry="2.5" style="stroke:#181818;stroke-width:0.5;" width="113.0869" x="605.4331" y="42.2969"/><text fill="#000000" font-family="sans-serif" font-size="14" lengthAdjust="spacing" textLength="99.0869" x="612.4331" y="62.292">Slack Channel</text><rect fill="#E2E2F0" height="30.2969" rx="2.5" ry="2.5" style="stroke:#181818;stroke-width:0.5;" width="113.0869" x="605.4331" y="354.7891"/><text fill="#000000" font-family="sans-serif" font-size="14" lengthAdjust="spacing" textLength="99.0869" x="612.4331" y="374.7842">Slack Channel</text><rect fill="#E2E2F0" height="30.2969" rx="2.5" ry="2.5" style="stroke:#181818;stroke-width:0.5;" width="60.8604" x="751.1929" y="42.2969"/><text fill="#000000" font-family="sans-serif" font-size="14" lengthAdjust="spacing" textLength="46.8604" x="758.1929" y="62.292">Github</text><rect fill="#E2E2F0" height="30.2969" rx="2.5" ry="2.5" style="stroke:#181818;stroke-width:0.5;" width="60.8604" x="751.1929" y="354.7891"/><text fill="#000000" font-family="sans-serif" font-size="14" lengthAdjust="spacing" textLength="46.8604" x="758.1929" y="374.7842">Github</text><rect fill="#FFA500" height="30.2969" rx="2.5" ry="2.5" style="stroke:#181818;stroke-width:0.5;" width="131.8037" x="822.0532" y="42.2969"/><text fill="#000000" font-family="sans-serif" font-size="14" lengthAdjust="spacing" textLength="117.8037" x="829.0532" y="62.292">Loculus Backend</text><rect fill="#FFA500" height="30.2969" rx="2.5" ry="2.5" style="stroke:#181818;stroke-width:0.5;" width="131.8037" x="822.0532" y="354.7891"/><text fill="#000000" font-family="sans-serif" font-size="14" lengthAdjust="spacing" textLength="117.8037" x="829.0532" y="374.7842">Loculus Backend</text><rect fill="#FFFFFF" height="116.5313" style="stroke:#181818;stroke-width:1.0;" width="10" x="271.1685" y="221.2578"/><rect fill="#FFFFFF" height="58.2656" style="stroke:#181818;stroke-width:1.0;" width="10" x="391.1074" y="104.7266"/><polygon fill="#181818" points="875.9551,100.7266,885.9551,104.7266,875.9551,108.7266,879.9551,104.7266" style="stroke:#181818;stroke-width:1.0;"/><line style="stroke:#181818;stroke-width:1.0;" x1="401.1074" x2="881.9551" y1="104.7266" y2="104.7266"/><text fill="#000000" font-family="sans-serif" font-size="13" lengthAdjust="spacing" textLength="154.3877" x="408.1074" y="99.6606">Query for all sequences</text><polygon fill="#181818" points="412.1074,129.8594,402.1074,133.8594,412.1074,137.8594,408.1074,133.8594" style="stroke:#181818;stroke-width:1.0;"/><line style="stroke:#181818;stroke-width:1.0;stroke-dasharray:2.0,2.0;" x1="406.1074" x2="886.9551" y1="133.8594" y2="133.8594"/><text fill="#000000" font-family="sans-serif" font-size="13" lengthAdjust="spacing" textLength="89.667" x="418.1074" y="128.7935">All sequences</text><polygon fill="#181818" points="649.9766,158.9922,659.9766,162.9922,649.9766,166.9922,653.9766,162.9922" style="stroke:#181818;stroke-width:1.0;"/><line style="stroke:#181818;stroke-width:1.0;" x1="396.1074" x2="655.9766" y1="162.9922" y2="162.9922"/><text fill="#000000" font-family="sans-serif" font-size="13" lengthAdjust="spacing" textLength="236.8691" x="403.1074" y="157.9263">All new sequences to deposit in ENA</text><polygon fill="#181818" points="769.623,188.125,779.623,192.125,769.623,196.125,773.623,192.125" style="stroke:#181818;stroke-width:1.0;"/><line style="stroke:#181818;stroke-width:1.0;" x1="661.9766" x2="775.623" y1="192.125" y2="192.125"/><text fill="#000000" font-family="sans-serif" font-size="13" lengthAdjust="spacing" textLength="95.6465" x="668.9766" y="187.0591">Manual upload</text><polygon fill="#181818" points="769.623,217.2578,779.623,221.2578,769.623,225.2578,773.623,221.2578" style="stroke:#181818;stroke-width:1.0;"/><line style="stroke:#181818;stroke-width:1.0;" x1="281.1685" x2="775.623" y1="221.2578" y2="221.2578"/><text fill="#000000" font-family="sans-serif" font-size="13" lengthAdjust="spacing" textLength="166.0674" x="288.1685" y="216.1919">Query for new sequences</text><polygon fill="#181818" points="292.1685,246.3906,282.1685,250.3906,292.1685,254.3906,288.1685,250.3906" style="stroke:#181818;stroke-width:1.0;"/><line style="stroke:#181818;stroke-width:1.0;stroke-dasharray:2.0,2.0;" x1="286.1685" x2="780.623" y1="250.3906" y2="250.3906"/><text fill="#000000" font-family="sans-serif" font-size="13" lengthAdjust="spacing" textLength="229.1123" x="298.1685" y="245.3247">File of sequences to deposit in ENA</text><polygon fill="#181818" points="37.4478,275.5234,27.4478,279.5234,37.4478,283.5234,33.4478,279.5234" style="stroke:#181818;stroke-width:1.0;"/><line style="stroke:#181818;stroke-width:1.0;" x1="31.4478" x2="270.1685" y1="279.5234" y2="279.5234"/><text fill="#000000" font-family="sans-serif" font-size="13" lengthAdjust="spacing" textLength="167.813" x="43.4478" y="274.4575">Submit sequences to ENA</text><polygon fill="#181818" points="259.1685,304.6563,269.1685,308.6563,259.1685,312.6563,263.1685,308.6563" style="stroke:#181818;stroke-width:1.0;"/><line style="stroke:#181818;stroke-width:1.0;stroke-dasharray:2.0,2.0;" x1="26.4478" x2="265.1685" y1="308.6563" y2="308.6563"/><text fill="#000000" font-family="sans-serif" font-size="13" lengthAdjust="spacing" textLength="220.7207" x="33.4478" y="303.5903">Results of deposition (accessions)</text><polygon fill="#181818" points="875.9551,333.7891,885.9551,337.7891,875.9551,341.7891,879.9551,337.7891" style="stroke:#181818;stroke-width:1.0;"/><line style="stroke:#181818;stroke-width:1.0;" x1="276.1685" x2="881.9551" y1="337.7891" y2="337.7891"/><text fill="#000000" font-family="sans-serif" font-size="13" lengthAdjust="spacing" textLength="326.1489" x="283.1685" y="332.7231">Upload of deposition results as external metadata</text><!--SRC=[XL9BSW8X4DrpYYxT90ilC8jK6VFPcA-L0xHCgqHi9WCayVO1nX56aygkeT-dNuDJJXFSFaxXXXfZbLE6XMYmTKgg1jd1A3H7W1Q84SRFYhTdRQYFt8JCHnZFrNhZPdlaSvPi3R-RPIz-EFv9MMYKMvXja9bq8jbuCmJTAxVndUGwbSFst4YllONhG2Ik4sxPrJ1-Qf7N94Gno-IgRrVmugdTmygqW5g3fGzFBCaAb4vzegCYW-Wr9q4WNrSm7J27HYbD1s7woZ1mfjyeA8vl9MhwpJG9HAKkUGKFo1ur-4ORh8KedgK0vLW3rnmhqqJ7IQdoRGLtAlmXi_fdvD8yJ5t1mYzt0J1WHMZyQASMhsIzTZQw54eNA0FFXj9UdZWSd-qjfJyXjWUv-FE-7RKSrhGZXpKwBBTRPFy1]--></g></svg>