<svg xmlns="http://www.w3.org/2000/svg" xmlns:xlink="http://www.w3.org/1999/xlink" contentStyleType="text/css" height="393px" preserveAspectRatio="none" style="width:933px;height:393px;background:#FFFFFF;" version="1.1" viewBox="0 0 933 393" width="933px" zoomAndPan="magnify"><title>ENA Deposition</title><defs/><g><text fill="#000000" font-family="sans-serif" font-size="14" font-weight="bold" lengthAdjust="spacing" textLength="112.4443" x="409.5952" y="28.5352">ENA Deposition</text><rect fill="#FFFFFF" height="117.2422" style="stroke:#181818;stroke-width:1.0;" width="10" x="262.8413" y="222.5293"/><rect fill="#FFFFFF" height="58.6211" style="stroke:#181818;stroke-width:1.0;" width="10" x="380.6782" y="105.2871"/><line style="stroke:#181818;stroke-width:0.5;stroke-dasharray:5.0,5.0;" x1="25" x2="25" y1="73.9766" y2="357.7715"/><line style="stroke:#181818;stroke-width:0.5;stroke-dasharray:5.0,5.0;" x1="266.9429" x2="266.9429" y1="73.9766" y2="357.7715"/><line style="stroke:#181818;stroke-width:0.5;stroke-dasharray:5.0,5.0;" x1="384.7397" x2="384.7397" y1="73.9766" y2="357.7715"/><line style="stroke:#181818;stroke-width:0.5;stroke-dasharray:5.0,5.0;" x1="644.0444" x2="644.0444" y1="73.9766" y2="357.7715"/><line style="stroke:#181818;stroke-width:0.5;stroke-dasharray:5.0,5.0;" x1="760.3828" x2="760.3828" y1="73.9766" y2="357.7715"/><line style="stroke:#181818;stroke-width:0.5;stroke-dasharray:5.0,5.0;" x1="863.9717" x2="863.9717" y1="73.9766" y2="357.7715"/><rect fill="#FFC0CB" height="30.4883" rx="2.5" ry="2.5" style="stroke:#181818;stroke-width:0.5;" width="41.5898" x="5" y="42.4883"/><text fill="#000000" font-family="sans-serif" font-size="14" lengthAdjust="spacing" textLength="27.5898" x="12" y="63.0234">ENA</text><rect fill="#FFC0CB" height="30.4883" rx="2.5" ry="2.5" style="stroke:#181818;stroke-width:0.5;" width="41.5898" x="5" y="356.7715"/><text fill="#000000" font-family="sans-serif" font-size="14" lengthAdjust="spacing" textLength="27.5898" x="12" y="377.3066">ENA</text><rect fill="#E0FFFF" height="30.4883" rx="2.5" ry="2.5" style="stroke:#181818;stroke-width:0.5;" width="117.7969" x="208.9429" y="42.4883"/><text fill="#000000" font-family="sans-serif" font-size="14" lengthAdjust="spacing" textLength="103.7969" x="215.9429" y="63.0234">ENA deposition</text><rect fill="#E0FFFF" height="30.4883" rx="2.5" ry="2.5" style="stroke:#181818;stroke-width:0.5;" width="117.7969" x="208.9429" y="356.7715"/><text fill="#000000" font-family="sans-serif" font-size="14" lengthAdjust="spacing" textLength="103.7969" x="215.9429" y="377.3066">ENA deposition</text><rect fill="#E0FFFF" height="30.4883" rx="2.5" ry="2.5" style="stroke:#181818;stroke-width:0.5;" width="97.877" x="336.7397" y="42.4883"/><text fill="#000000" font-family="sans-serif" font-size="14" lengthAdjust="spacing" textLength="83.877" x="343.7397" y="63.0234">ENA cronjob</text><rect fill="#E0FFFF" height="30.4883" rx="2.5" ry="2.5" style="stroke:#181818;stroke-width:0.5;" width="97.877" x="336.7397" y="356.7715"/><text fill="#000000" font-family="sans-serif" font-size="14" lengthAdjust="spacing" textLength="83.877" x="343.7397" y="377.3066">ENA cronjob</text><rect fill="#E2E2F0" height="30.4883" rx="2.5" ry="2.5" style="stroke:#181818;stroke-width:0.5;" width="108.4316" x="590.0444" y="42.4883"/><text fill="#000000" font-family="sans-serif" font-size="14" lengthAdjust="spacing" textLength="94.4316" x="597.0444" y="63.0234">Slack Channel</text><rect fill="#E2E2F0" height="30.4883" rx="2.5" ry="2.5" style="stroke:#181818;stroke-width:0.5;" width="108.4316" x="590.0444" y="356.7715"/><text fill="#000000" font-family="sans-serif" font-size="14" lengthAdjust="spacing" textLength="94.4316" x="597.0444" y="377.3066">Slack Channel</text><rect fill="#E2E2F0" height="30.4883" rx="2.5" ry="2.5" style="stroke:#181818;stroke-width:0.5;" width="59.5889" x="731.3828" y="42.4883"/><text fill="#000000" font-family="sans-serif" font-size="14" lengthAdjust="spacing" textLength="45.5889" x="738.3828" y="63.0234">Github</text><rect fill="#E2E2F0" height="30.4883" rx="2.5" ry="2.5" style="stroke:#181818;stroke-width:0.5;" width="59.5889" x="731.3828" y="356.7715"/><text fill="#000000" font-family="sans-serif" font-size="14" lengthAdjust="spacing" textLength="45.5889" x="738.3828" y="377.3066">Github</text><rect fill="#FFA500" height="30.4883" rx="2.5" ry="2.5" style="stroke:#181818;stroke-width:0.5;" width="126.6631" x="800.9717" y="42.4883"/><text fill="#000000" font-family="sans-serif" font-size="14" lengthAdjust="spacing" textLength="112.6631" x="807.9717" y="63.0234">Loculus Backend</text><rect fill="#FFA500" height="30.4883" rx="2.5" ry="2.5" style="stroke:#181818;stroke-width:0.5;" width="126.6631" x="800.9717" y="356.7715"/><text fill="#000000" font-family="sans-serif" font-size="14" lengthAdjust="spacing" textLength="112.6631" x="807.9717" y="377.3066">Loculus Backend</text><rect fill="#FFFFFF" height="117.2422" style="stroke:#181818;stroke-width:1.0;" width="10" x="262.8413" y="222.5293"/><rect fill="#FFFFFF" height="58.6211" style="stroke:#181818;stroke-width:1.0;" width="10" x="380.6782" y="105.2871"/><polygon fill="#181818" points="852.3032,101.2871,862.3032,105.2871,852.3032,109.2871,856.3032,105.2871" style="stroke:#181818;stroke-width:1.0;"/><line style="stroke:#181818;stroke-width:1.0;" x1="390.6782" x2="858.3032" y1="105.2871" y2="105.2871"/><text fill="#000000" font-family="sans-serif" font-size="13" lengthAdjust="spacing" textLength="148.5986" x="397.6782" y="100.5449">Query for all sequences</text><polygon fill="#181818" points="401.6782,130.5977,391.6782,134.5977,401.6782,138.5977,397.6782,134.5977" style="stroke:#181818;stroke-width:1.0;"/><line style="stroke:#181818;stroke-width:1.0;stroke-dasharray:2.0,2.0;" x1="395.6782" x2="863.3032" y1="134.5977" y2="134.5977"/><text fill="#000000" font-family="sans-serif" font-size="13" lengthAdjust="spacing" textLength="86.5566" x="407.6782" y="129.8555">All sequences</text><polygon fill="#181818" points="632.2603,159.9082,642.2603,163.9082,632.2603,167.9082,636.2603,163.9082" style="stroke:#181818;stroke-width:1.0;"/><line style="stroke:#181818;stroke-width:1.0;" x1="385.6782" x2="638.2603" y1="163.9082" y2="163.9082"/><text fill="#000000" font-family="sans-serif" font-size="13" lengthAdjust="spacing" textLength="229.582" x="392.6782" y="159.166">All new sequences to deposit in ENA</text><polygon fill="#181818" points="749.1772,189.2188,759.1772,193.2188,749.1772,197.2188,753.1772,193.2188" style="stroke:#181818;stroke-width:1.0;"/><line style="stroke:#181818;stroke-width:1.0;" x1="644.2603" x2="755.1772" y1="193.2188" y2="193.2188"/><text fill="#000000" font-family="sans-serif" font-size="13" lengthAdjust="spacing" textLength="92.917" x="651.2603" y="188.4766">Manual upload</text><polygon fill="#181818" points="749.1772,218.5293,759.1772,222.5293,749.1772,226.5293,753.1772,222.5293" style="stroke:#181818;stroke-width:1.0;"/><line style="stroke:#181818;stroke-width:1.0;" x1="272.8413" x2="755.1772" y1="222.5293" y2="222.5293"/><text fill="#000000" font-family="sans-serif" font-size="13" lengthAdjust="spacing" textLength="159.231" x="279.8413" y="217.7871">Query for new sequences</text><polygon fill="#181818" points="283.8413,247.8398,273.8413,251.8398,283.8413,255.8398,279.8413,251.8398" style="stroke:#181818;stroke-width:1.0;"/><line style="stroke:#181818;stroke-width:1.0;stroke-dasharray:2.0,2.0;" x1="277.8413" x2="760.1772" y1="251.8398" y2="251.8398"/><text fill="#000000" font-family="sans-serif" font-size="13" lengthAdjust="spacing" textLength="222.2632" x="289.8413" y="247.0977">File of sequences to deposit in ENA</text><polygon fill="#181818" points="36.7949,277.1504,26.7949,281.1504,36.7949,285.1504,32.7949,281.1504" style="stroke:#181818;stroke-width:1.0;"/><line style="stroke:#181818;stroke-width:1.0;" x1="30.7949" x2="261.8413" y1="281.1504" y2="281.1504"/><text fill="#000000" font-family="sans-serif" font-size="13" lengthAdjust="spacing" textLength="160.7734" x="42.7949" y="276.4082">Submit sequences to ENA</text><polygon fill="#181818" points="250.8413,306.4609,260.8413,310.4609,250.8413,314.4609,254.8413,310.4609" style="stroke:#181818;stroke-width:1.0;"/><line style="stroke:#181818;stroke-width:1.0;stroke-dasharray:2.0,2.0;" x1="25.7949" x2="256.8413" y1="310.4609" y2="310.4609"/><text fill="#000000" font-family="sans-serif" font-size="13" lengthAdjust="spacing" textLength="213.0464" x="32.7949" y="305.7188">Results of deposition (accessions)</text><polygon fill="#181818" points="852.3032,335.7715,862.3032,339.7715,852.3032,343.7715,856.3032,339.7715" style="stroke:#181818;stroke-width:1.0;"/><line style="stroke:#181818;stroke-width:1.0;" x1="267.8413" x2="858.3032" y1="339.7715" y2="339.7715"/><text fill="#000000" font-family="sans-serif" font-size="13" lengthAdjust="spacing" textLength="315.1675" x="274.8413" y="335.0293">Upload of deposition results as external metadata</text><!--SRC=[XL9BSW8X4DrpYYxT90ilC8jK6VFPcA-L0xHCgqHi9WCayVO1nX56aygkeT-dNuDJJXFSFaxXXXfZbLE6XMYmTKgg1jd1A3H7W1Q84SRFYhTdRQYFt8JCHnZFrNhZPdlaSvPi3R-RPIz-EFv9MMYKMvXja9bq8jbuCmJTAxVndUGwbSFst4YllONhG2Ik4sxPrJ1-Qf7N94Gno-IgRrVmugdTmygqW5g3fGzFBCaAb4vzegCYW-Wr9q4WNrSm7J27HYbD1s7woZ1mfjyeA8vl9MhwpJG9HAKkUGKFo1ur-4ORh8KedgK0vLW3rnmhqqJ7IQdoRGLtAlmXi_fdvD8yJ5t1mYzt0J1WHMZyQASMhsIzTZQw54eNA0FFXj9UdZWSd-qjfJyXjWUv-FE-7RKSrhGZXpKwBBTRPFy1]--></g></svg>