<svg xmlns="http://www.w3.org/2000/svg" xmlns:xlink="http://www.w3.org/1999/xlink" contentStyleType="text/css" height="339px" preserveAspectRatio="none" style="width:785px;height:339px;background:#FFFFFF;" version="1.1" viewBox="0 0 785 339" width="785px" zoomAndPan="magnify"><defs/><g><rect fill="#FFFFFF" height="129.5313" style="stroke:#181818;stroke-width:1.0;" width="10" x="482.4604" y="149.8281"/><rect fill="none" height="175.7969" style="stroke:#000000;stroke-width:1.5;" width="491.3447" x="213.6519" y="111.5625"/><line style="stroke:#181818;stroke-width:0.5;stroke-dasharray:5.0,5.0;" x1="88" x2="88" y1="36.2969" y2="304.3594"/><line style="stroke:#181818;stroke-width:0.5;stroke-dasharray:5.0,5.0;" x1="288.6519" x2="288.6519" y1="36.2969" y2="304.3594"/><line style="stroke:#181818;stroke-width:0.5;stroke-dasharray:5.0,5.0;" x1="487.0308" x2="487.0308" y1="36.2969" y2="304.3594"/><line style="stroke:#181818;stroke-width:0.5;stroke-dasharray:5.0,5.0;" x1="704.5703" x2="704.5703" y1="36.2969" y2="304.3594"/><rect fill="#E0FFFF" height="30.2969" rx="2.5" ry="2.5" style="stroke:#181818;stroke-width:0.5;" width="166.4893" x="5" y="5"/><text fill="#000000" font-family="sans-serif" font-size="14" lengthAdjust="spacing" textLength="152.4893" x="12" y="24.9951">Submitter on Website</text><rect fill="#E0FFFF" height="30.2969" rx="2.5" ry="2.5" style="stroke:#181818;stroke-width:0.5;" width="166.4893" x="5" y="303.3594"/><text fill="#000000" font-family="sans-serif" font-size="14" lengthAdjust="spacing" textLength="152.4893" x="12" y="323.3545">Submitter on Website</text><rect fill="#FFA500" height="30.2969" rx="2.5" ry="2.5" style="stroke:#181818;stroke-width:0.5;" width="131.8037" x="223.6519" y="5"/><text fill="#000000" font-family="sans-serif" font-size="14" lengthAdjust="spacing" textLength="117.8037" x="230.6519" y="24.9951">Loculus Backend</text><rect fill="#FFA500" height="30.2969" rx="2.5" ry="2.5" style="stroke:#181818;stroke-width:0.5;" width="131.8037" x="223.6519" y="303.3594"/><text fill="#000000" font-family="sans-serif" font-size="14" lengthAdjust="spacing" textLength="117.8037" x="230.6519" y="323.3545">Loculus Backend</text><rect fill="#90EE90" height="30.2969" rx="2.5" ry="2.5" style="stroke:#181818;stroke-width:0.5;" width="148.8594" x="413.0308" y="5"/><text fill="#000000" font-family="sans-serif" font-size="14" lengthAdjust="spacing" textLength="134.8594" x="420.0308" y="24.9951">Processing Pipeline</text><rect fill="#90EE90" height="30.2969" rx="2.5" ry="2.5" style="stroke:#181818;stroke-width:0.5;" width="148.8594" x="413.0308" y="303.3594"/><text fill="#000000" font-family="sans-serif" font-size="14" lengthAdjust="spacing" textLength="134.8594" x="420.0308" y="323.3545">Processing Pipeline</text><rect fill="#FFFFE0" height="30.2969" rx="2.5" ry="2.5" style="stroke:#181818;stroke-width:0.5;" width="148.8525" x="630.5703" y="5"/><text fill="#000000" font-family="sans-serif" font-size="14" lengthAdjust="spacing" textLength="134.8525" x="637.5703" y="24.9951">SILO Preprocessing</text><rect fill="#FFFFE0" height="30.2969" rx="2.5" ry="2.5" style="stroke:#181818;stroke-width:0.5;" width="148.8525" x="630.5703" y="303.3594"/><text fill="#000000" font-family="sans-serif" font-size="14" lengthAdjust="spacing" textLength="134.8525" x="637.5703" y="323.3545">SILO Preprocessing</text><rect fill="#FFFFFF" height="129.5313" style="stroke:#181818;stroke-width:1.0;" width="10" x="482.4604" y="149.8281"/><polygon fill="#181818" points="277.5537,63.4297,287.5537,67.4297,277.5537,71.4297,281.5537,67.4297" style="stroke:#181818;stroke-width:1.0;"/><line style="stroke:#181818;stroke-width:1.0;" x1="88.2446" x2="283.5537" y1="67.4297" y2="67.4297"/><text fill="#000000" font-family="sans-serif" font-size="13" lengthAdjust="spacing" textLength="177.3091" x="95.2446" y="62.3638">Submit new sequence data</text><polygon fill="#181818" points="99.2446,92.5625,89.2446,96.5625,99.2446,100.5625,95.2446,96.5625" style="stroke:#181818;stroke-width:1.0;"/><line style="stroke:#181818;stroke-width:1.0;stroke-dasharray:2.0,2.0;" x1="93.2446" x2="288.5537" y1="96.5625" y2="96.5625"/><text fill="#000000" font-family="sans-serif" font-size="13" lengthAdjust="spacing" textLength="169.2476" x="105.2446" y="91.4966">Response with accessions</text><path d="M213.6519,111.5625 L362.8486,111.5625 L362.8486,118.6953 L352.8486,128.6953 L213.6519,128.6953 L213.6519,111.5625 " fill="#EEEEEE" style="stroke:#000000;stroke-width:1.5;"/><rect fill="none" height="175.7969" style="stroke:#000000;stroke-width:1.5;" width="491.3447" x="213.6519" y="111.5625"/><text fill="#000000" font-family="sans-serif" font-size="13" font-weight="bold" lengthAdjust="spacing" textLength="104.1968" x="228.6519" y="124.6294">preprocessing</text><polygon fill="#181818" points="300.5537,145.8281,290.5537,149.8281,300.5537,153.8281,296.5537,149.8281" style="stroke:#181818;stroke-width:1.0;"/><line style="stroke:#181818;stroke-width:1.0;" x1="294.5537" x2="481.4604" y1="149.8281" y2="149.8281"/><text fill="#000000" font-family="sans-serif" font-size="13" lengthAdjust="spacing" textLength="173.9067" x="306.5537" y="144.7622">Request unprocessed data</text><polygon fill="#181818" points="470.4604,174.9609,480.4604,178.9609,470.4604,182.9609,474.4604,178.9609" style="stroke:#181818;stroke-width:1.0;"/><line style="stroke:#181818;stroke-width:1.0;stroke-dasharray:2.0,2.0;" x1="289.5537" x2="476.4604" y1="178.9609" y2="178.9609"/><text fill="#000000" font-family="sans-serif" font-size="13" lengthAdjust="spacing" textLength="117.6602" x="296.5537" y="173.895">Unprocessed data</text><line style="stroke:#181818;stroke-width:1.0;" x1="492.4604" x2="534.4604" y1="208.0938" y2="208.0938"/><line style="stroke:#181818;stroke-width:1.0;" x1="534.4604" x2="534.4604" y1="208.0938" y2="221.0938"/><line style="stroke:#181818;stroke-width:1.0;" x1="493.4604" x2="534.4604" y1="221.0938" y2="221.0938"/><polygon fill="#181818" points="503.4604,217.0938,493.4604,221.0938,503.4604,225.0938,499.4604,221.0938" style="stroke:#181818;stroke-width:1.0;"/><text fill="#000000" font-family="sans-serif" font-size="13" lengthAdjust="spacing" textLength="183.5361" x="499.4604" y="203.0278">Process data and find errors</text><polygon fill="#181818" points="300.5537,246.2266,290.5537,250.2266,300.5537,254.2266,296.5537,250.2266" style="stroke:#181818;stroke-width:1.0;"/><line style="stroke:#181818;stroke-width:1.0;" x1="294.5537" x2="481.4604" y1="250.2266" y2="250.2266"/><text fill="#000000" font-family="sans-serif" font-size="13" lengthAdjust="spacing" textLength="86.5693" x="306.5537" y="245.1606">Report errors</text><polygon fill="#181818" points="475.4604,275.3594,485.4604,279.3594,475.4604,283.3594,479.4604,279.3594" style="stroke:#181818;stroke-width:1.0;"/><line style="stroke:#181818;stroke-width:1.0;stroke-dasharray:2.0,2.0;" x1="289.5537" x2="481.4604" y1="279.3594" y2="279.3594"/><text fill="#000000" font-family="sans-serif" font-size="13" lengthAdjust="spacing" textLength="17.7607" x="296.5537" y="274.2935">Ok</text><!--SRC=[VP31JiCm38RlUGfhE-y5Uk001uHKgTCcX3WXDpMTjPA4nA7YxScQRSt688Seil_V_-SuzCAQ7Hg1nJQs7on27go15se32oq00uHpOrbplvE7RpJAbTRQwZZ40FUezsIwoTNcDomRZwQdIyFQMqqXiEbXpOu6DZdApVMSzUY9hiAsJtK3Qq-pDbFoODz- -Lzf6EoerBp3wkw4La5U6GoD4EWpaj447Ggg4_mggS_M2ZOKd3M1O6JP0UefAnMKwhsDBk4NL0hIAO3AuCqXBGX4SnHGbuCF7jJ2NoW4LxDAgBbLmVEj8PV1fVpuzvCKCCrxvtIHzzQ7_vcTzL8A_m9gzbExerkR98Fw0G00]--></g></svg>