<svg xmlns="http://www.w3.org/2000/svg" xmlns:xlink="http://www.w3.org/1999/xlink" contentStyleType="text/css" height="363px" preserveAspectRatio="none" style="width:923px;height:363px;background:#FFFFFF;" version="1.1" viewBox="0 0 923 363" width="923px" zoomAndPan="magnify"><title>ENA Deposition</title><defs/><g><text fill="#000000" font-family="sans-serif" font-size="14" font-weight="bold" lengthAdjust="spacing" textLength="112.4443" x="404.5952" y="28.5352">ENA Deposition</text><line style="stroke:#181818;stroke-width:0.5;stroke-dasharray:5.0,5.0;" x1="25" x2="25" y1="73.9766" y2="328.4609"/><line style="stroke:#181818;stroke-width:0.5;stroke-dasharray:5.0,5.0;" x1="261.9429" x2="261.9429" y1="73.9766" y2="328.4609"/><line style="stroke:#181818;stroke-width:0.5;stroke-dasharray:5.0,5.0;" x1="379.7397" x2="379.7397" y1="73.9766" y2="328.4609"/><line style="stroke:#181818;stroke-width:0.5;stroke-dasharray:5.0,5.0;" x1="633.9243" x2="633.9243" y1="73.9766" y2="328.4609"/><line style="stroke:#181818;stroke-width:0.5;stroke-dasharray:5.0,5.0;" x1="750.3828" x2="750.3828" y1="73.9766" y2="328.4609"/><line style="stroke:#181818;stroke-width:0.5;stroke-dasharray:5.0,5.0;" x1="853.9717" x2="853.9717" y1="73.9766" y2="328.4609"/><rect fill="#FFC0CB" height="30.4883" rx="2.5" ry="2.5" style="stroke:#181818;stroke-width:0.5;" width="41.5898" x="5" y="42.4883"/><text fill="#000000" font-family="sans-serif" font-size="14" lengthAdjust="spacing" textLength="27.5898" x="12" y="63.0234">ENA</text><rect fill="#FFC0CB" height="30.4883" rx="2.5" ry="2.5" style="stroke:#181818;stroke-width:0.5;" width="41.5898" x="5" y="327.4609"/><text fill="#000000" font-family="sans-serif" font-size="14" lengthAdjust="spacing" textLength="27.5898" x="12" y="347.9961">ENA</text><rect fill="#E0FFFF" height="30.4883" rx="2.5" ry="2.5" style="stroke:#181818;stroke-width:0.5;" width="117.7969" x="203.9429" y="42.4883"/><text fill="#000000" font-family="sans-serif" font-size="14" lengthAdjust="spacing" textLength="103.7969" x="210.9429" y="63.0234">ENA deposition</text><rect fill="#E0FFFF" height="30.4883" rx="2.5" ry="2.5" style="stroke:#181818;stroke-width:0.5;" width="117.7969" x="203.9429" y="327.4609"/><text fill="#000000" font-family="sans-serif" font-size="14" lengthAdjust="spacing" textLength="103.7969" x="210.9429" y="347.9961">ENA deposition</text><rect fill="#E2E2F0" height="30.4883" rx="2.5" ry="2.5" style="stroke:#181818;stroke-width:0.5;" width="97.877" x="331.7397" y="42.4883"/><text fill="#000000" font-family="sans-serif" font-size="14" lengthAdjust="spacing" textLength="83.877" x="338.7397" y="63.0234">ENA cronjob</text><rect fill="#E2E2F0" height="30.4883" rx="2.5" ry="2.5" style="stroke:#181818;stroke-width:0.5;" width="97.877" x="331.7397" y="327.4609"/><text fill="#000000" font-family="sans-serif" font-size="14" lengthAdjust="spacing" textLength="83.877" x="338.7397" y="347.9961">ENA cronjob</text><rect fill="#E2E2F0" height="30.4883" rx="2.5" ry="2.5" style="stroke:#181818;stroke-width:0.5;" width="48.6719" x="609.9243" y="42.4883"/><text fill="#000000" font-family="sans-serif" font-size="14" lengthAdjust="spacing" textLength="34.6719" x="616.9243" y="63.0234">Slack</text><rect fill="#E2E2F0" height="30.4883" rx="2.5" ry="2.5" style="stroke:#181818;stroke-width:0.5;" width="48.6719" x="609.9243" y="327.4609"/><text fill="#000000" font-family="sans-serif" font-size="14" lengthAdjust="spacing" textLength="34.6719" x="616.9243" y="347.9961">Slack</text><rect fill="#E2E2F0" height="30.4883" rx="2.5" ry="2.5" style="stroke:#181818;stroke-width:0.5;" width="59.5889" x="721.3828" y="42.4883"/><text fill="#000000" font-family="sans-serif" font-size="14" lengthAdjust="spacing" textLength="45.5889" x="728.3828" y="63.0234">Github</text><rect fill="#E2E2F0" height="30.4883" rx="2.5" ry="2.5" style="stroke:#181818;stroke-width:0.5;" width="59.5889" x="721.3828" y="327.4609"/><text fill="#000000" font-family="sans-serif" font-size="14" lengthAdjust="spacing" textLength="45.5889" x="728.3828" y="347.9961">Github</text><rect fill="#FFA500" height="30.4883" rx="2.5" ry="2.5" style="stroke:#181818;stroke-width:0.5;" width="126.6631" x="790.9717" y="42.4883"/><text fill="#000000" font-family="sans-serif" font-size="14" lengthAdjust="spacing" textLength="112.6631" x="797.9717" y="63.0234">Loculus Backend</text><rect fill="#FFA500" height="30.4883" rx="2.5" ry="2.5" style="stroke:#181818;stroke-width:0.5;" width="126.6631" x="790.9717" y="327.4609"/><text fill="#000000" font-family="sans-serif" font-size="14" lengthAdjust="spacing" textLength="112.6631" x="797.9717" y="347.9961">Loculus Backend</text><polygon fill="#181818" points="842.3032,101.2871,852.3032,105.2871,842.3032,109.2871,846.3032,105.2871" style="stroke:#181818;stroke-width:1.0;"/><line style="stroke:#181818;stroke-width:1.0;" x1="380.6782" x2="848.3032" y1="105.2871" y2="105.2871"/><text fill="#000000" font-family="sans-serif" font-size="13" lengthAdjust="spacing" textLength="148.5986" x="387.6782" y="100.5449">Query for all sequences</text><polygon fill="#181818" points="391.6782,130.5977,381.6782,134.5977,391.6782,138.5977,387.6782,134.5977" style="stroke:#181818;stroke-width:1.0;"/><line style="stroke:#181818;stroke-width:1.0;" x1="385.6782" x2="853.3032" y1="134.5977" y2="134.5977"/><text fill="#000000" font-family="sans-serif" font-size="13" lengthAdjust="spacing" textLength="86.5566" x="397.6782" y="129.8555">All sequences</text><polygon fill="#181818" points="622.2603,159.9082,632.2603,163.9082,622.2603,167.9082,626.2603,163.9082" style="stroke:#181818;stroke-width:1.0;"/><line style="stroke:#181818;stroke-width:1.0;" x1="380.6782" x2="628.2603" y1="163.9082" y2="163.9082"/><text fill="#000000" font-family="sans-serif" font-size="13" lengthAdjust="spacing" textLength="229.582" x="387.6782" y="159.166">All new sequences to deposit in ENA</text><polygon fill="#181818" points="739.1772,189.2188,749.1772,193.2188,739.1772,197.2188,743.1772,193.2188" style="stroke:#181818;stroke-width:1.0;"/><line style="stroke:#181818;stroke-width:1.0;" x1="634.2603" x2="745.1772" y1="193.2188" y2="193.2188"/><text fill="#000000" font-family="sans-serif" font-size="13" lengthAdjust="spacing" textLength="92.917" x="641.2603" y="188.4766">Manual upload</text><polygon fill="#181818" points="273.8413,218.5293,263.8413,222.5293,273.8413,226.5293,269.8413,222.5293" style="stroke:#181818;stroke-width:1.0;"/><line style="stroke:#181818;stroke-width:1.0;" x1="267.8413" x2="750.1772" y1="222.5293" y2="222.5293"/><text fill="#000000" font-family="sans-serif" font-size="13" lengthAdjust="spacing" textLength="244.8291" x="279.8413" y="217.7871">Upload of sequences to deposit in ENA</text><polygon fill="#181818" points="36.7949,247.8398,26.7949,251.8398,36.7949,255.8398,32.7949,251.8398" style="stroke:#181818;stroke-width:1.0;"/><line style="stroke:#181818;stroke-width:1.0;" x1="30.7949" x2="261.8413" y1="251.8398" y2="251.8398"/><text fill="#000000" font-family="sans-serif" font-size="13" lengthAdjust="spacing" textLength="200.8271" x="42.7949" y="247.0977">Deposition of sequences in ENA</text><polygon fill="#181818" points="250.8413,277.1504,260.8413,281.1504,250.8413,285.1504,254.8413,281.1504" style="stroke:#181818;stroke-width:1.0;"/><line style="stroke:#181818;stroke-width:1.0;" x1="25.7949" x2="256.8413" y1="281.1504" y2="281.1504"/><text fill="#000000" font-family="sans-serif" font-size="13" lengthAdjust="spacing" textLength="213.0464" x="32.7949" y="276.4082">Results of deposition (accessions)</text><polygon fill="#181818" points="842.3032,306.4609,852.3032,310.4609,842.3032,314.4609,846.3032,310.4609" style="stroke:#181818;stroke-width:1.0;"/><line style="stroke:#181818;stroke-width:1.0;" x1="262.8413" x2="848.3032" y1="310.4609" y2="310.4609"/><text fill="#000000" font-family="sans-serif" font-size="13" lengthAdjust="spacing" textLength="315.1675" x="269.8413" y="305.7188">Upload of deposition results as external metadata</text><!--SRC=[VP79JiCm48RlVefHSu43Bv03Kbd4fUpY0QR9j3Kru-15qBV7IrB7hSHjxF_xPtNIAOBxfoNSqQ2jT5Ap40CQ9piv83jO1741Q84OeNcHl3-JeJzw4rcUqApaTkTk3yZdhive_jJhAVduhBbtXTq-4JP6jVWWtSvd_pQ5jRpIdLVUmaqm4lU9M-SOccU3l2KXIc6ukfxa5buzcGDij05K2YnzU-AEh9ZyWItE5fOLLETCZMU4wQTWuFIqAP0SRo0I6Zrvd1OUaJqgy8FIs8ly6_MouHO-aWXwys_gsKrox-tiuhLvTCHxdvHw8-kLin6VvRl0BjXi2EtbIPtZFakJCy2CwUBzVnqP3gD-aSCU7Oe_]--></g></svg>