<svg xmlns="http://www.w3.org/2000/svg" xmlns:xlink="http://www.w3.org/1999/xlink" contentStyleType="text/css" height="743px" preserveAspectRatio="none" style="width:866px;height:743px;background:#FFFFFF;" version="1.1" viewBox="0 0 866 743" width="866px" zoomAndPan="magnify"><title>Submission Process</title><defs/><g><text fill="#000000" font-family="sans-serif" font-size="14" font-weight="bold" lengthAdjust="spacing" textLength="156.625" x="353.2791" y="32.9951">Submission Process</text><rect fill="none" height="20.9531" style="stroke:none;stroke-width:1.0;" width="833.1831" x="15" y="50.042"/><ellipse cx="107.0664" cy="85.9951" fill="#222222" rx="10" ry="10" style="stroke:#222222;stroke-width:1.0;"/><rect fill="#F1F1F1" height="33.9688" rx="12.5" ry="12.5" style="stroke:#181818;stroke-width:0.5;" width="154.5313" x="29.8008" y="115.9951"/><text fill="#000000" font-family="sans-serif" font-size="12" lengthAdjust="spacing" textLength="134.5313" x="39.8008" y="137.1338">Upload sequence data</text><rect fill="#F1F1F1" height="33.9688" rx="12.5" ry="12.5" style="stroke:#181818;stroke-width:0.5;" width="166.2383" x="23.9473" y="439.8076"/><text fill="#000000" font-family="sans-serif" font-size="12" lengthAdjust="spacing" textLength="146.2383" x="33.9473" y="460.9463">Approve processed data</text><rect fill="#F1F1F1" height="33.9688" rx="12.5" ry="12.5" style="stroke:#181818;stroke-width:0.5;" width="163.8652" x="25.1338" y="601.7139"/><text fill="#000000" font-family="sans-serif" font-size="12" lengthAdjust="spacing" textLength="143.8652" x="35.1338" y="622.8525">Browse data on website</text><rect fill="#F1F1F1" height="33.9688" rx="12.5" ry="12.5" style="stroke:#181818;stroke-width:0.5;" width="172.1328" x="21" y="655.6826"/><text fill="#000000" font-family="sans-serif" font-size="12" lengthAdjust="spacing" textLength="152.1328" x="31" y="676.8213">Download sequence data</text><ellipse cx="107.0664" cy="720.6514" fill="none" rx="11" ry="11" style="stroke:#222222;stroke-width:1.0;"/><ellipse cx="107.0664" cy="720.6514" fill="#222222" rx="6" ry="6" style="stroke:#222222;stroke-width:1.0;"/><line style="stroke:#000000;stroke-width:1.5;" x1="15" x2="15" y1="50.042" y2="731.6514"/><rect fill="#F1F1F1" height="33.9688" rx="12.5" ry="12.5" style="stroke:#181818;stroke-width:0.5;" width="173.082" x="212.5049" y="169.9639"/><text fill="#000000" font-family="sans-serif" font-size="12" lengthAdjust="spacing" textLength="153.082" x="222.5049" y="191.1025">Store new sequence data</text><rect fill="#F1F1F1" height="33.9688" rx="12.5" ry="12.5" style="stroke:#181818;stroke-width:0.5;" width="148.0156" x="225.0381" y="385.8389"/><text fill="#000000" font-family="sans-serif" font-size="12" lengthAdjust="spacing" textLength="128.0156" x="235.0381" y="406.9775">Store processed data</text><rect fill="#F1F1F1" height="33.9688" rx="12.5" ry="12.5" style="stroke:#181818;stroke-width:0.5;" width="191.8262" x="203.1328" y="493.7764"/><text fill="#000000" font-family="sans-serif" font-size="12" lengthAdjust="spacing" textLength="171.8262" x="213.1328" y="514.915">Update status to "approved"</text><line style="stroke:#000000;stroke-width:1.5;" x1="197.1328" x2="197.1328" y1="50.042" y2="731.6514"/><rect fill="#F1F1F1" height="33.9688" rx="12.5" ry="12.5" style="stroke:#181818;stroke-width:0.5;" width="164.4395" x="426.3721" y="223.9326"/><text fill="#000000" font-family="sans-serif" font-size="12" lengthAdjust="spacing" textLength="144.4395" x="436.3721" y="245.0713">Fetch unprocessed data</text><rect fill="#F1F1F1" height="33.9688" rx="12.5" ry="12.5" style="stroke:#181818;stroke-width:0.5;" width="207.2656" x="404.959" y="277.9014"/><text fill="#000000" font-family="sans-serif" font-size="12" lengthAdjust="spacing" textLength="187.2656" x="414.959" y="299.04">Process, enrich and check data</text><rect fill="#F1F1F1" height="33.9688" rx="12.5" ry="12.5" style="stroke:#181818;stroke-width:0.5;" width="158.6035" x="429.29" y="331.8701"/><text fill="#000000" font-family="sans-serif" font-size="12" lengthAdjust="spacing" textLength="138.6035" x="439.29" y="353.0088">Submit processed data</text><line style="stroke:#000000;stroke-width:1.5;" x1="398.959" x2="398.959" y1="50.042" y2="731.6514"/><rect fill="#F1F1F1" height="33.9688" rx="12.5" ry="12.5" style="stroke:#181818;stroke-width:0.5;" width="220.0977" x="622.2246" y="547.7451"/><text fill="#000000" font-family="sans-serif" font-size="12" lengthAdjust="spacing" textLength="200.0977" x="632.2246" y="568.8838">Load all approved sequence data</text><line style="stroke:#000000;stroke-width:1.5;" x1="616.2246" x2="616.2246" y1="50.042" y2="731.6514"/><line style="stroke:#000000;stroke-width:1.5;" x1="846.3223" x2="846.3223" y1="50.042" y2="731.6514"/><line style="stroke:#181818;stroke-width:1.0;" x1="107.0664" x2="107.0664" y1="95.9951" y2="115.9951"/><polygon fill="#181818" points="103.0664,105.9951,107.0664,115.9951,111.0664,105.9951,107.0664,109.9951" style="stroke:#181818;stroke-width:1.0;"/><line style="stroke:#181818;stroke-width:1.0;" x1="107.0664" x2="107.0664" y1="635.6826" y2="655.6826"/><polygon fill="#181818" points="103.0664,645.6826,107.0664,655.6826,111.0664,645.6826,107.0664,649.6826" style="stroke:#181818;stroke-width:1.0;"/><line style="stroke:#181818;stroke-width:1.0;" x1="107.0664" x2="107.0664" y1="689.6514" y2="709.6514"/><polygon fill="#181818" points="103.0664,699.6514,107.0664,709.6514,111.0664,699.6514,107.0664,703.6514" style="stroke:#181818;stroke-width:1.0;"/><line style="stroke:#181818;stroke-width:1.0;" x1="508.5918" x2="508.5918" y1="257.9014" y2="277.9014"/><polygon fill="#181818" points="504.5918,267.9014,508.5918,277.9014,512.5918,267.9014,508.5918,271.9014" style="stroke:#181818;stroke-width:1.0;"/><line style="stroke:#181818;stroke-width:1.0;" x1="508.5918" x2="508.5918" y1="311.8701" y2="331.8701"/><polygon fill="#181818" points="504.5918,321.8701,508.5918,331.8701,512.5918,321.8701,508.5918,325.8701" style="stroke:#181818;stroke-width:1.0;"/><line style="stroke:#181818;stroke-width:1.0;" x1="107.0664" x2="107.0664" y1="149.9639" y2="154.9639"/><line style="stroke:#181818;stroke-width:1.0;" x1="107.0664" x2="299.0459" y1="154.9639" y2="154.9639"/><line style="stroke:#181818;stroke-width:1.0;" x1="299.0459" x2="299.0459" y1="154.9639" y2="169.9639"/><polygon fill="#181818" points="295.0459,159.9639,299.0459,169.9639,303.0459,159.9639,299.0459,163.9639" style="stroke:#181818;stroke-width:1.0;"/><line style="stroke:#181818;stroke-width:1.0;" x1="299.0459" x2="299.0459" y1="203.9326" y2="208.9326"/><line style="stroke:#181818;stroke-width:1.0;" x1="299.0459" x2="508.5918" y1="208.9326" y2="208.9326"/><line style="stroke:#181818;stroke-width:1.0;" x1="508.5918" x2="508.5918" y1="208.9326" y2="223.9326"/><polygon fill="#181818" points="504.5918,213.9326,508.5918,223.9326,512.5918,213.9326,508.5918,217.9326" style="stroke:#181818;stroke-width:1.0;"/><line style="stroke:#181818;stroke-width:1.0;" x1="508.5918" x2="508.5918" y1="365.8389" y2="370.8389"/><line style="stroke:#181818;stroke-width:1.0;" x1="508.5918" x2="299.0459" y1="370.8389" y2="370.8389"/><line style="stroke:#181818;stroke-width:1.0;" x1="299.0459" x2="299.0459" y1="370.8389" y2="385.8389"/><polygon fill="#181818" points="295.0459,375.8389,299.0459,385.8389,303.0459,375.8389,299.0459,379.8389" style="stroke:#181818;stroke-width:1.0;"/><line style="stroke:#181818;stroke-width:1.0;" x1="299.0459" x2="299.0459" y1="419.8076" y2="424.8076"/><line style="stroke:#181818;stroke-width:1.0;" x1="299.0459" x2="107.0664" y1="424.8076" y2="424.8076"/><line style="stroke:#181818;stroke-width:1.0;" x1="107.0664" x2="107.0664" y1="424.8076" y2="439.8076"/><polygon fill="#181818" points="103.0664,429.8076,107.0664,439.8076,111.0664,429.8076,107.0664,433.8076" style="stroke:#181818;stroke-width:1.0;"/><line style="stroke:#181818;stroke-width:1.0;" x1="107.0664" x2="107.0664" y1="473.7764" y2="478.7764"/><line style="stroke:#181818;stroke-width:1.0;" x1="107.0664" x2="299.0459" y1="478.7764" y2="478.7764"/><line style="stroke:#181818;stroke-width:1.0;" x1="299.0459" x2="299.0459" y1="478.7764" y2="493.7764"/><polygon fill="#181818" points="295.0459,483.7764,299.0459,493.7764,303.0459,483.7764,299.0459,487.7764" style="stroke:#181818;stroke-width:1.0;"/><line style="stroke:#181818;stroke-width:1.0;" x1="299.0459" x2="299.0459" y1="527.7451" y2="532.7451"/><line style="stroke:#181818;stroke-width:1.0;" x1="299.0459" x2="732.2734" y1="532.7451" y2="532.7451"/><line style="stroke:#181818;stroke-width:1.0;" x1="732.2734" x2="732.2734" y1="532.7451" y2="547.7451"/><polygon fill="#181818" points="728.2734,537.7451,732.2734,547.7451,736.2734,537.7451,732.2734,541.7451" style="stroke:#181818;stroke-width:1.0;"/><line style="stroke:#181818;stroke-width:1.0;" x1="732.2734" x2="732.2734" y1="581.7139" y2="586.7139"/><line style="stroke:#181818;stroke-width:1.0;" x1="732.2734" x2="107.0664" y1="586.7139" y2="586.7139"/><line style="stroke:#181818;stroke-width:1.0;" x1="107.0664" x2="107.0664" y1="586.7139" y2="601.7139"/><polygon fill="#181818" points="103.0664,591.7139,107.0664,601.7139,111.0664,591.7139,107.0664,595.7139" style="stroke:#181818;stroke-width:1.0;"/><text fill="#000000" font-family="sans-serif" font-size="18" lengthAdjust="spacing" textLength="147.7002" x="32.2163" y="66.75">User on Website</text><text fill="#000000" font-family="sans-serif" font-size="18" lengthAdjust="spacing" textLength="77.6074" x="259.2422" y="66.75">Backend</text><text fill="#000000" font-family="sans-serif" font-size="18" lengthAdjust="spacing" textLength="203.291" x="405.9463" y="66.75">Preprocessing Pipeline</text><text fill="#000000" font-family="sans-serif" font-size="18" lengthAdjust="spacing" textLength="96.9258" x="682.8105" y="66.75">LAPIS/SILO</text><!--SRC=[VP0nQyGm38Lt_mfnSw6xEzrH2WU11aBexBD5pvmhkvRIBFdnLPhSKfUkUj-Jdfv4IGZ3TFc8p34Jz3LxP3Pc6HahwEGDBnm55yFYgXWxbfHT0CRF2SaZ12VkIVcJypUai1WxIAu8X7CBzHNBTY7IE_InO8gak-qBYh_2HBkAORVOFT038DMeYAC0_eh-TWT-mWlyDhQ1Mg9vqHwBKb_uxxQnw0n1wv29GJ8StEOAXnNiZlrvU1pEtQkotLgLImdkI5j96-9KyymRi0hp9kYhptcclyfdoSLy0m00]--></g></svg>