<svg xmlns="http://www.w3.org/2000/svg" xmlns:xlink="http://www.w3.org/1999/xlink" contentStyleType="text/css" height="706px" preserveAspectRatio="none" style="width:866px;height:706px;background:#FFFFFF;" version="1.1" viewBox="0 0 866 706" width="866px" zoomAndPan="magnify"><defs/><g><rect fill="none" height="20.9531" style="stroke:none;stroke-width:1.0;" width="833.1831" x="15" y="12.7451"/><ellipse cx="107.0664" cy="48.6982" fill="#222222" rx="10" ry="10" style="stroke:#222222;stroke-width:1.0;"/><rect fill="#F1F1F1" height="33.9688" rx="12.5" ry="12.5" style="stroke:#181818;stroke-width:0.5;" width="154.5313" x="29.8008" y="78.6982"/><text fill="#000000" font-family="sans-serif" font-size="12" lengthAdjust="spacing" textLength="134.5313" x="39.8008" y="99.8369">Upload sequence data</text><rect fill="#F1F1F1" height="33.9688" rx="12.5" ry="12.5" style="stroke:#181818;stroke-width:0.5;" width="166.2383" x="23.9473" y="402.5107"/><text fill="#000000" font-family="sans-serif" font-size="12" lengthAdjust="spacing" textLength="146.2383" x="33.9473" y="423.6494">Approve processed data</text><rect fill="#F1F1F1" height="33.9688" rx="12.5" ry="12.5" style="stroke:#181818;stroke-width:0.5;" width="163.8652" x="25.1338" y="564.417"/><text fill="#000000" font-family="sans-serif" font-size="12" lengthAdjust="spacing" textLength="143.8652" x="35.1338" y="585.5557">Browse data on website</text><rect fill="#F1F1F1" height="33.9688" rx="12.5" ry="12.5" style="stroke:#181818;stroke-width:0.5;" width="172.1328" x="21" y="618.3857"/><text fill="#000000" font-family="sans-serif" font-size="12" lengthAdjust="spacing" textLength="152.1328" x="31" y="639.5244">Download sequence data</text><ellipse cx="107.0664" cy="683.3545" fill="none" rx="11" ry="11" style="stroke:#222222;stroke-width:1.0;"/><ellipse cx="107.0664" cy="683.3545" fill="#222222" rx="6" ry="6" style="stroke:#222222;stroke-width:1.0;"/><line style="stroke:#000000;stroke-width:1.5;" x1="15" x2="15" y1="12.7451" y2="694.3545"/><rect fill="#F1F1F1" height="33.9688" rx="12.5" ry="12.5" style="stroke:#181818;stroke-width:0.5;" width="173.082" x="212.5049" y="132.667"/><text fill="#000000" font-family="sans-serif" font-size="12" lengthAdjust="spacing" textLength="153.082" x="222.5049" y="153.8057">Store new sequence data</text><rect fill="#F1F1F1" height="33.9688" rx="12.5" ry="12.5" style="stroke:#181818;stroke-width:0.5;" width="148.0156" x="225.0381" y="348.542"/><text fill="#000000" font-family="sans-serif" font-size="12" lengthAdjust="spacing" textLength="128.0156" x="235.0381" y="369.6807">Store processed data</text><rect fill="#F1F1F1" height="33.9688" rx="12.5" ry="12.5" style="stroke:#181818;stroke-width:0.5;" width="191.8262" x="203.1328" y="456.4795"/><text fill="#000000" font-family="sans-serif" font-size="12" lengthAdjust="spacing" textLength="171.8262" x="213.1328" y="477.6182">Update status to "approved"</text><line style="stroke:#000000;stroke-width:1.5;" x1="197.1328" x2="197.1328" y1="12.7451" y2="694.3545"/><rect fill="#F1F1F1" height="33.9688" rx="12.5" ry="12.5" style="stroke:#181818;stroke-width:0.5;" width="164.4395" x="426.3721" y="186.6357"/><text fill="#000000" font-family="sans-serif" font-size="12" lengthAdjust="spacing" textLength="144.4395" x="436.3721" y="207.7744">Fetch unprocessed data</text><rect fill="#F1F1F1" height="33.9688" rx="12.5" ry="12.5" style="stroke:#181818;stroke-width:0.5;" width="207.2656" x="404.959" y="240.6045"/><text fill="#000000" font-family="sans-serif" font-size="12" lengthAdjust="spacing" textLength="187.2656" x="414.959" y="261.7432">Process, enrich and check data</text><rect fill="#F1F1F1" height="33.9688" rx="12.5" ry="12.5" style="stroke:#181818;stroke-width:0.5;" width="158.6035" x="429.29" y="294.5732"/><text fill="#000000" font-family="sans-serif" font-size="12" lengthAdjust="spacing" textLength="138.6035" x="439.29" y="315.7119">Submit processed data</text><line style="stroke:#000000;stroke-width:1.5;" x1="398.959" x2="398.959" y1="12.7451" y2="694.3545"/><rect fill="#F1F1F1" height="33.9688" rx="12.5" ry="12.5" style="stroke:#181818;stroke-width:0.5;" width="220.0977" x="622.2246" y="510.4482"/><text fill="#000000" font-family="sans-serif" font-size="12" lengthAdjust="spacing" textLength="200.0977" x="632.2246" y="531.5869">Load all approved sequence data</text><line style="stroke:#000000;stroke-width:1.5;" x1="616.2246" x2="616.2246" y1="12.7451" y2="694.3545"/><line style="stroke:#000000;stroke-width:1.5;" x1="846.3223" x2="846.3223" y1="12.7451" y2="694.3545"/><line style="stroke:#181818;stroke-width:1.0;" x1="107.0664" x2="107.0664" y1="58.6982" y2="78.6982"/><polygon fill="#181818" points="103.0664,68.6982,107.0664,78.6982,111.0664,68.6982,107.0664,72.6982" style="stroke:#181818;stroke-width:1.0;"/><line style="stroke:#181818;stroke-width:1.0;" x1="107.0664" x2="107.0664" y1="598.3857" y2="618.3857"/><polygon fill="#181818" points="103.0664,608.3857,107.0664,618.3857,111.0664,608.3857,107.0664,612.3857" style="stroke:#181818;stroke-width:1.0;"/><line style="stroke:#181818;stroke-width:1.0;" x1="107.0664" x2="107.0664" y1="652.3545" y2="672.3545"/><polygon fill="#181818" points="103.0664,662.3545,107.0664,672.3545,111.0664,662.3545,107.0664,666.3545" style="stroke:#181818;stroke-width:1.0;"/><line style="stroke:#181818;stroke-width:1.0;" x1="508.5918" x2="508.5918" y1="220.6045" y2="240.6045"/><polygon fill="#181818" points="504.5918,230.6045,508.5918,240.6045,512.5918,230.6045,508.5918,234.6045" style="stroke:#181818;stroke-width:1.0;"/><line style="stroke:#181818;stroke-width:1.0;" x1="508.5918" x2="508.5918" y1="274.5732" y2="294.5732"/><polygon fill="#181818" points="504.5918,284.5732,508.5918,294.5732,512.5918,284.5732,508.5918,288.5732" style="stroke:#181818;stroke-width:1.0;"/><line style="stroke:#181818;stroke-width:1.0;" x1="107.0664" x2="107.0664" y1="112.667" y2="117.667"/><line style="stroke:#181818;stroke-width:1.0;" x1="107.0664" x2="299.0459" y1="117.667" y2="117.667"/><line style="stroke:#181818;stroke-width:1.0;" x1="299.0459" x2="299.0459" y1="117.667" y2="132.667"/><polygon fill="#181818" points="295.0459,122.667,299.0459,132.667,303.0459,122.667,299.0459,126.667" style="stroke:#181818;stroke-width:1.0;"/><line style="stroke:#181818;stroke-width:1.0;" x1="299.0459" x2="299.0459" y1="166.6357" y2="171.6357"/><line style="stroke:#181818;stroke-width:1.0;" x1="299.0459" x2="508.5918" y1="171.6357" y2="171.6357"/><line style="stroke:#181818;stroke-width:1.0;" x1="508.5918" x2="508.5918" y1="171.6357" y2="186.6357"/><polygon fill="#181818" points="504.5918,176.6357,508.5918,186.6357,512.5918,176.6357,508.5918,180.6357" style="stroke:#181818;stroke-width:1.0;"/><line style="stroke:#181818;stroke-width:1.0;" x1="508.5918" x2="508.5918" y1="328.542" y2="333.542"/><line style="stroke:#181818;stroke-width:1.0;" x1="508.5918" x2="299.0459" y1="333.542" y2="333.542"/><line style="stroke:#181818;stroke-width:1.0;" x1="299.0459" x2="299.0459" y1="333.542" y2="348.542"/><polygon fill="#181818" points="295.0459,338.542,299.0459,348.542,303.0459,338.542,299.0459,342.542" style="stroke:#181818;stroke-width:1.0;"/><line style="stroke:#181818;stroke-width:1.0;" x1="299.0459" x2="299.0459" y1="382.5107" y2="387.5107"/><line style="stroke:#181818;stroke-width:1.0;" x1="299.0459" x2="107.0664" y1="387.5107" y2="387.5107"/><line style="stroke:#181818;stroke-width:1.0;" x1="107.0664" x2="107.0664" y1="387.5107" y2="402.5107"/><polygon fill="#181818" points="103.0664,392.5107,107.0664,402.5107,111.0664,392.5107,107.0664,396.5107" style="stroke:#181818;stroke-width:1.0;"/><line style="stroke:#181818;stroke-width:1.0;" x1="107.0664" x2="107.0664" y1="436.4795" y2="441.4795"/><line style="stroke:#181818;stroke-width:1.0;" x1="107.0664" x2="299.0459" y1="441.4795" y2="441.4795"/><line style="stroke:#181818;stroke-width:1.0;" x1="299.0459" x2="299.0459" y1="441.4795" y2="456.4795"/><polygon fill="#181818" points="295.0459,446.4795,299.0459,456.4795,303.0459,446.4795,299.0459,450.4795" style="stroke:#181818;stroke-width:1.0;"/><line style="stroke:#181818;stroke-width:1.0;" x1="299.0459" x2="299.0459" y1="490.4482" y2="495.4482"/><line style="stroke:#181818;stroke-width:1.0;" x1="299.0459" x2="732.2734" y1="495.4482" y2="495.4482"/><line style="stroke:#181818;stroke-width:1.0;" x1="732.2734" x2="732.2734" y1="495.4482" y2="510.4482"/><polygon fill="#181818" points="728.2734,500.4482,732.2734,510.4482,736.2734,500.4482,732.2734,504.4482" style="stroke:#181818;stroke-width:1.0;"/><line style="stroke:#181818;stroke-width:1.0;" x1="732.2734" x2="732.2734" y1="544.417" y2="549.417"/><line style="stroke:#181818;stroke-width:1.0;" x1="732.2734" x2="107.0664" y1="549.417" y2="549.417"/><line style="stroke:#181818;stroke-width:1.0;" x1="107.0664" x2="107.0664" y1="549.417" y2="564.417"/><polygon fill="#181818" points="103.0664,554.417,107.0664,564.417,111.0664,554.417,107.0664,558.417" style="stroke:#181818;stroke-width:1.0;"/><text fill="#000000" font-family="sans-serif" font-size="18" lengthAdjust="spacing" textLength="147.7002" x="32.2163" y="29.4531">User on Website</text><text fill="#000000" font-family="sans-serif" font-size="18" lengthAdjust="spacing" textLength="77.6074" x="259.2422" y="29.4531">Backend</text><text fill="#000000" font-family="sans-serif" font-size="18" lengthAdjust="spacing" textLength="203.291" x="405.9463" y="29.4531">Preprocessing Pipeline</text><text fill="#000000" font-family="sans-serif" font-size="18" lengthAdjust="spacing" textLength="96.9258" x="682.8105" y="29.4531">LAPIS/SILO</text><!--SRC=[VP31QiCm44Jl-eebvq3lwYcX50A66ep9MP66HCHTAT8wllZZ8-FaKeLUTzuCipFt6Oa2qn6dx0MpocAIADt78HX76RSHR47EYFbKQjuRUmMxMUbEGW8nfXfg4s8A5ZbxFbFh8mRF9Lj_G-o5HdwgS4-BRjV3bi395yIm8tk1lRw0RZpzUg6_nhfGJLGlwbqir1t_flMnt41b3XapIQ2DMLrkiu3DhZrq7zsX-IbiiqnbXe5UI3r9NMAVmfHNO16cLIYlVeM9tusV9KJr0000]--></g></svg>