<svg xmlns="http://www.w3.org/2000/svg" xmlns:xlink="http://www.w3.org/1999/xlink" contentStyleType="text/css" height="1004px" preserveAspectRatio="none" style="width:869px;height:1004px;background:#FFFFFF;" version="1.1" viewBox="0 0 869 1004" width="869px" zoomAndPan="magnify"><title>User Perspective on Submission Process</title><defs/><g><text fill="#000000" font-family="sans-serif" font-size="14" font-weight="bold" lengthAdjust="spacing" textLength="319.8535" x="273.8679" y="27.9951">User Perspective on Submission Process</text><rect fill="#FFFFFF" height="71.2656" style="stroke:#181818;stroke-width:1.0;" width="10" x="346.4819" y="435.1875"/><rect fill="#FFFFFF" height="71.2656" style="stroke:#181818;stroke-width:1.0;" width="10" x="346.4819" y="814.7813"/><rect fill="#FFFFFF" height="129.5313" style="stroke:#181818;stroke-width:1.0;" width="10" x="566.627" y="187.125"/><rect fill="#FFFFFF" height="129.5313" style="stroke:#181818;stroke-width:1.0;" width="10" x="566.627" y="566.7188"/><rect fill="none" height="175.7969" style="stroke:#000000;stroke-width:1.5;" width="513.583" x="275.5801" y="148.8594"/><rect fill="none" height="175.7969" style="stroke:#000000;stroke-width:1.5;" width="550.0806" x="10" y="338.6563"/><rect fill="none" height="175.7969" style="stroke:#000000;stroke-width:1.5;" width="496.0063" x="275.5801" y="528.4531"/><rect fill="none" height="175.7969" style="stroke:#000000;stroke-width:1.5;" width="561.627" x="10" y="718.25"/><line style="stroke:#181818;stroke-width:0.5;stroke-dasharray:5.0,5.0;" x1="103" x2="103" y1="73.5938" y2="969.3125"/><line style="stroke:#181818;stroke-width:0.5;stroke-dasharray:5.0,5.0;" x1="350.5801" x2="350.5801" y1="73.5938" y2="969.3125"/><line style="stroke:#181818;stroke-width:0.5;stroke-dasharray:5.0,5.0;" x1="571.1973" x2="571.1973" y1="73.5938" y2="969.3125"/><line style="stroke:#181818;stroke-width:0.5;stroke-dasharray:5.0,5.0;" x1="788.7368" x2="788.7368" y1="73.5938" y2="969.3125"/><rect fill="#E0FFFF" height="30.2969" rx="2.5" ry="2.5" style="stroke:#181818;stroke-width:0.5;" width="166.4893" x="20" y="42.2969"/><text fill="#000000" font-family="sans-serif" font-size="14" lengthAdjust="spacing" textLength="152.4893" x="27" y="62.292">Submitter on Website</text><rect fill="#E0FFFF" height="30.2969" rx="2.5" ry="2.5" style="stroke:#181818;stroke-width:0.5;" width="166.4893" x="20" y="968.3125"/><text fill="#000000" font-family="sans-serif" font-size="14" lengthAdjust="spacing" textLength="152.4893" x="27" y="988.3076">Submitter on Website</text><rect fill="#FFA500" height="30.2969" rx="2.5" ry="2.5" style="stroke:#181818;stroke-width:0.5;" width="131.8037" x="285.5801" y="42.2969"/><text fill="#000000" font-family="sans-serif" font-size="14" lengthAdjust="spacing" textLength="117.8037" x="292.5801" y="62.292">Loculus Backend</text><rect fill="#FFA500" height="30.2969" rx="2.5" ry="2.5" style="stroke:#181818;stroke-width:0.5;" width="131.8037" x="285.5801" y="968.3125"/><text fill="#000000" font-family="sans-serif" font-size="14" lengthAdjust="spacing" textLength="117.8037" x="292.5801" y="988.3076">Loculus Backend</text><rect fill="#90EE90" height="30.2969" rx="2.5" ry="2.5" style="stroke:#181818;stroke-width:0.5;" width="148.8594" x="497.1973" y="42.2969"/><text fill="#000000" font-family="sans-serif" font-size="14" lengthAdjust="spacing" textLength="134.8594" x="504.1973" y="62.292">Processing Pipeline</text><rect fill="#90EE90" height="30.2969" rx="2.5" ry="2.5" style="stroke:#181818;stroke-width:0.5;" width="148.8594" x="497.1973" y="968.3125"/><text fill="#000000" font-family="sans-serif" font-size="14" lengthAdjust="spacing" textLength="134.8594" x="504.1973" y="988.3076">Processing Pipeline</text><rect fill="#FFFFE0" height="30.2969" rx="2.5" ry="2.5" style="stroke:#181818;stroke-width:0.5;" width="148.8525" x="714.7368" y="42.2969"/><text fill="#000000" font-family="sans-serif" font-size="14" lengthAdjust="spacing" textLength="134.8525" x="721.7368" y="62.292">SILO Preprocessing</text><rect fill="#FFFFE0" height="30.2969" rx="2.5" ry="2.5" style="stroke:#181818;stroke-width:0.5;" width="148.8525" x="714.7368" y="968.3125"/><text fill="#000000" font-family="sans-serif" font-size="14" lengthAdjust="spacing" textLength="134.8525" x="721.7368" y="988.3076">SILO Preprocessing</text><rect fill="#FFFFFF" height="71.2656" style="stroke:#181818;stroke-width:1.0;" width="10" x="346.4819" y="435.1875"/><rect fill="#FFFFFF" height="71.2656" style="stroke:#181818;stroke-width:1.0;" width="10" x="346.4819" y="814.7813"/><rect fill="#FFFFFF" height="129.5313" style="stroke:#181818;stroke-width:1.0;" width="10" x="566.627" y="187.125"/><rect fill="#FFFFFF" height="129.5313" style="stroke:#181818;stroke-width:1.0;" width="10" x="566.627" y="566.7188"/><polygon fill="#181818" points="339.4819,100.7266,349.4819,104.7266,339.4819,108.7266,343.4819,104.7266" style="stroke:#181818;stroke-width:1.0;"/><line style="stroke:#181818;stroke-width:1.0;" x1="103.2446" x2="345.4819" y1="104.7266" y2="104.7266"/><text fill="#000000" font-family="sans-serif" font-size="13" lengthAdjust="spacing" textLength="177.3091" x="110.2446" y="99.6606">Submit new sequence data</text><polygon fill="#181818" points="114.2446,129.8594,104.2446,133.8594,114.2446,137.8594,110.2446,133.8594" style="stroke:#181818;stroke-width:1.0;"/><line style="stroke:#181818;stroke-width:1.0;stroke-dasharray:2.0,2.0;" x1="108.2446" x2="350.4819" y1="133.8594" y2="133.8594"/><text fill="#000000" font-family="sans-serif" font-size="13" lengthAdjust="spacing" textLength="169.2476" x="120.2446" y="128.7935">Response with accessions</text><path d="M275.5801,148.8594 L424.7769,148.8594 L424.7769,155.9922 L414.7769,165.9922 L275.5801,165.9922 L275.5801,148.8594 " fill="#EEEEEE" style="stroke:#000000;stroke-width:1.5;"/><rect fill="none" height="175.7969" style="stroke:#000000;stroke-width:1.5;" width="513.583" x="275.5801" y="148.8594"/><text fill="#000000" font-family="sans-serif" font-size="13" font-weight="bold" lengthAdjust="spacing" textLength="104.1968" x="290.5801" y="161.9263">preprocessing</text><polygon fill="#181818" points="362.4819,183.125,352.4819,187.125,362.4819,191.125,358.4819,187.125" style="stroke:#181818;stroke-width:1.0;"/><line style="stroke:#181818;stroke-width:1.0;" x1="356.4819" x2="565.627" y1="187.125" y2="187.125"/><text fill="#000000" font-family="sans-serif" font-size="13" lengthAdjust="spacing" textLength="173.9067" x="368.4819" y="182.0591">Request unprocessed data</text><polygon fill="#181818" points="554.627,212.2578,564.627,216.2578,554.627,220.2578,558.627,216.2578" style="stroke:#181818;stroke-width:1.0;"/><line style="stroke:#181818;stroke-width:1.0;stroke-dasharray:2.0,2.0;" x1="351.4819" x2="560.627" y1="216.2578" y2="216.2578"/><text fill="#000000" font-family="sans-serif" font-size="13" lengthAdjust="spacing" textLength="117.6602" x="358.4819" y="211.1919">Unprocessed data</text><line style="stroke:#181818;stroke-width:1.0;" x1="576.627" x2="618.627" y1="245.3906" y2="245.3906"/><line style="stroke:#181818;stroke-width:1.0;" x1="618.627" x2="618.627" y1="245.3906" y2="258.3906"/><line style="stroke:#181818;stroke-width:1.0;" x1="577.627" x2="618.627" y1="258.3906" y2="258.3906"/><polygon fill="#181818" points="587.627,254.3906,577.627,258.3906,587.627,262.3906,583.627,258.3906" style="stroke:#181818;stroke-width:1.0;"/><text fill="#000000" font-family="sans-serif" font-size="13" lengthAdjust="spacing" textLength="183.5361" x="583.627" y="240.3247">Process data and find errors</text><polygon fill="#181818" points="362.4819,283.5234,352.4819,287.5234,362.4819,291.5234,358.4819,287.5234" style="stroke:#181818;stroke-width:1.0;"/><line style="stroke:#181818;stroke-width:1.0;" x1="356.4819" x2="565.627" y1="287.5234" y2="287.5234"/><text fill="#000000" font-family="sans-serif" font-size="13" lengthAdjust="spacing" textLength="86.5693" x="368.4819" y="282.4575">Report errors</text><polygon fill="#181818" points="559.627,312.6563,569.627,316.6563,559.627,320.6563,563.627,316.6563" style="stroke:#181818;stroke-width:1.0;"/><line style="stroke:#181818;stroke-width:1.0;stroke-dasharray:2.0,2.0;" x1="351.4819" x2="565.627" y1="316.6563" y2="316.6563"/><text fill="#000000" font-family="sans-serif" font-size="13" lengthAdjust="spacing" textLength="17.7607" x="358.4819" y="311.5903">Ok</text><path d="M10,338.6563 L121.3838,338.6563 L121.3838,345.7891 L111.3838,355.7891 L10,355.7891 L10,338.6563 " fill="#EEEEEE" style="stroke:#000000;stroke-width:1.5;"/><rect fill="none" height="175.7969" style="stroke:#000000;stroke-width:1.5;" width="550.0806" x="10" y="338.6563"/><text fill="#000000" font-family="sans-serif" font-size="13" font-weight="bold" lengthAdjust="spacing" textLength="66.3838" x="25" y="351.7231">edit data</text><polygon fill="#181818" points="339.4819,372.9219,349.4819,376.9219,339.4819,380.9219,343.4819,376.9219" style="stroke:#181818;stroke-width:1.0;"/><line style="stroke:#181818;stroke-width:1.0;" x1="103.2446" x2="345.4819" y1="376.9219" y2="376.9219"/><text fill="#000000" font-family="sans-serif" font-size="13" lengthAdjust="spacing" textLength="177.7534" x="110.2446" y="371.856">Check status of submission</text><polygon fill="#181818" points="114.2446,402.0547,104.2446,406.0547,114.2446,410.0547,110.2446,406.0547" style="stroke:#181818;stroke-width:1.0;"/><line style="stroke:#181818;stroke-width:1.0;stroke-dasharray:2.0,2.0;" x1="108.2446" x2="350.4819" y1="406.0547" y2="406.0547"/><text fill="#000000" font-family="sans-serif" font-size="13" lengthAdjust="spacing" textLength="145.501" x="120.2446" y="400.9888">Sequences with errors</text><polygon fill="#181818" points="334.4819,431.1875,344.4819,435.1875,334.4819,439.1875,338.4819,435.1875" style="stroke:#181818;stroke-width:1.0;"/><line style="stroke:#181818;stroke-width:1.0;" x1="103.2446" x2="340.4819" y1="435.1875" y2="435.1875"/><text fill="#000000" font-family="sans-serif" font-size="13" lengthAdjust="spacing" textLength="90.854" x="110.2446" y="430.1216">Correct errors</text><line style="stroke:#181818;stroke-width:1.0;" x1="356.4819" x2="398.4819" y1="464.3203" y2="464.3203"/><line style="stroke:#181818;stroke-width:1.0;" x1="398.4819" x2="398.4819" y1="464.3203" y2="477.3203"/><line style="stroke:#181818;stroke-width:1.0;" x1="357.4819" x2="398.4819" y1="477.3203" y2="477.3203"/><polygon fill="#181818" points="367.4819,473.3203,357.4819,477.3203,367.4819,481.3203,363.4819,477.3203" style="stroke:#181818;stroke-width:1.0;"/><text fill="#000000" font-family="sans-serif" font-size="13" lengthAdjust="spacing" textLength="174.5986" x="363.4819" y="459.2544">Reset data to unprocessed</text><polygon fill="#181818" points="114.2446,502.4531,104.2446,506.4531,114.2446,510.4531,110.2446,506.4531" style="stroke:#181818;stroke-width:1.0;"/><line style="stroke:#181818;stroke-width:1.0;stroke-dasharray:2.0,2.0;" x1="108.2446" x2="350.4819" y1="506.4531" y2="506.4531"/><text fill="#000000" font-family="sans-serif" font-size="13" lengthAdjust="spacing" textLength="17.7607" x="120.2446" y="501.3872">Ok</text><path d="M275.5801,528.4531 L424.7769,528.4531 L424.7769,535.5859 L414.7769,545.5859 L275.5801,545.5859 L275.5801,528.4531 " fill="#EEEEEE" style="stroke:#000000;stroke-width:1.5;"/><rect fill="none" height="175.7969" style="stroke:#000000;stroke-width:1.5;" width="496.0063" x="275.5801" y="528.4531"/><text fill="#000000" font-family="sans-serif" font-size="13" font-weight="bold" lengthAdjust="spacing" textLength="104.1968" x="290.5801" y="541.52">preprocessing</text><polygon fill="#181818" points="362.4819,562.7188,352.4819,566.7188,362.4819,570.7188,358.4819,566.7188" style="stroke:#181818;stroke-width:1.0;"/><line style="stroke:#181818;stroke-width:1.0;" x1="356.4819" x2="565.627" y1="566.7188" y2="566.7188"/><text fill="#000000" font-family="sans-serif" font-size="13" lengthAdjust="spacing" textLength="173.9067" x="368.4819" y="561.6528">Request unprocessed data</text><polygon fill="#181818" points="554.627,591.8516,564.627,595.8516,554.627,599.8516,558.627,595.8516" style="stroke:#181818;stroke-width:1.0;"/><line style="stroke:#181818;stroke-width:1.0;stroke-dasharray:2.0,2.0;" x1="351.4819" x2="560.627" y1="595.8516" y2="595.8516"/><text fill="#000000" font-family="sans-serif" font-size="13" lengthAdjust="spacing" textLength="117.6602" x="358.4819" y="590.7856">Unprocessed data</text><line style="stroke:#181818;stroke-width:1.0;" x1="576.627" x2="618.627" y1="624.9844" y2="624.9844"/><line style="stroke:#181818;stroke-width:1.0;" x1="618.627" x2="618.627" y1="624.9844" y2="637.9844"/><line style="stroke:#181818;stroke-width:1.0;" x1="577.627" x2="618.627" y1="637.9844" y2="637.9844"/><polygon fill="#181818" points="587.627,633.9844,577.627,637.9844,587.627,641.9844,583.627,637.9844" style="stroke:#181818;stroke-width:1.0;"/><text fill="#000000" font-family="sans-serif" font-size="13" lengthAdjust="spacing" textLength="165.9595" x="583.627" y="619.9185">Process data successfully</text><polygon fill="#181818" points="362.4819,663.1172,352.4819,667.1172,362.4819,671.1172,358.4819,667.1172" style="stroke:#181818;stroke-width:1.0;"/><line style="stroke:#181818;stroke-width:1.0;" x1="356.4819" x2="565.627" y1="667.1172" y2="667.1172"/><text fill="#000000" font-family="sans-serif" font-size="13" lengthAdjust="spacing" textLength="150.1538" x="368.4819" y="662.0513">Submit processed data</text><polygon fill="#181818" points="559.627,692.25,569.627,696.25,559.627,700.25,563.627,696.25" style="stroke:#181818;stroke-width:1.0;"/><line style="stroke:#181818;stroke-width:1.0;stroke-dasharray:2.0,2.0;" x1="351.4819" x2="565.627" y1="696.25" y2="696.25"/><text fill="#000000" font-family="sans-serif" font-size="13" lengthAdjust="spacing" textLength="17.7607" x="358.4819" y="691.1841">Ok</text><path d="M10,718.25 L152.6079,718.25 L152.6079,725.3828 L142.6079,735.3828 L10,735.3828 L10,718.25 " fill="#EEEEEE" style="stroke:#000000;stroke-width:1.5;"/><rect fill="none" height="175.7969" style="stroke:#000000;stroke-width:1.5;" width="561.627" x="10" y="718.25"/><text fill="#000000" font-family="sans-serif" font-size="13" font-weight="bold" lengthAdjust="spacing" textLength="97.6079" x="25" y="731.3169">approve data</text><polygon fill="#181818" points="339.4819,752.5156,349.4819,756.5156,339.4819,760.5156,343.4819,756.5156" style="stroke:#181818;stroke-width:1.0;"/><line style="stroke:#181818;stroke-width:1.0;" x1="103.2446" x2="345.4819" y1="756.5156" y2="756.5156"/><text fill="#000000" font-family="sans-serif" font-size="13" lengthAdjust="spacing" textLength="177.7534" x="110.2446" y="751.4497">Check status of submission</text><polygon fill="#181818" points="114.2446,781.6484,104.2446,785.6484,114.2446,789.6484,110.2446,785.6484" style="stroke:#181818;stroke-width:1.0;"/><line style="stroke:#181818;stroke-width:1.0;stroke-dasharray:2.0,2.0;" x1="108.2446" x2="350.4819" y1="785.6484" y2="785.6484"/><text fill="#000000" font-family="sans-serif" font-size="13" lengthAdjust="spacing" textLength="224.2373" x="120.2446" y="780.5825">Successfully processed sequences</text><polygon fill="#181818" points="334.4819,810.7813,344.4819,814.7813,334.4819,818.7813,338.4819,814.7813" style="stroke:#181818;stroke-width:1.0;"/><line style="stroke:#181818;stroke-width:1.0;" x1="103.2446" x2="340.4819" y1="814.7813" y2="814.7813"/><text fill="#000000" font-family="sans-serif" font-size="13" lengthAdjust="spacing" textLength="158.4248" x="110.2446" y="809.7153">Approve processed data</text><line style="stroke:#181818;stroke-width:1.0;" x1="356.4819" x2="398.4819" y1="843.9141" y2="843.9141"/><line style="stroke:#181818;stroke-width:1.0;" x1="398.4819" x2="398.4819" y1="843.9141" y2="856.9141"/><line style="stroke:#181818;stroke-width:1.0;" x1="357.4819" x2="398.4819" y1="856.9141" y2="856.9141"/><polygon fill="#181818" points="367.4819,852.9141,357.4819,856.9141,367.4819,860.9141,363.4819,856.9141" style="stroke:#181818;stroke-width:1.0;"/><text fill="#000000" font-family="sans-serif" font-size="13" lengthAdjust="spacing" textLength="186.145" x="363.4819" y="838.8481">Update status to "approved"</text><polygon fill="#181818" points="114.2446,882.0469,104.2446,886.0469,114.2446,890.0469,110.2446,886.0469" style="stroke:#181818;stroke-width:1.0;"/><line style="stroke:#181818;stroke-width:1.0;stroke-dasharray:2.0,2.0;" x1="108.2446" x2="350.4819" y1="886.0469" y2="886.0469"/><text fill="#000000" font-family="sans-serif" font-size="13" lengthAdjust="spacing" textLength="17.7607" x="120.2446" y="880.981">Ok</text><polygon fill="#181818" points="362.4819,918.1797,352.4819,922.1797,362.4819,926.1797,358.4819,922.1797" style="stroke:#181818;stroke-width:1.0;"/><line style="stroke:#181818;stroke-width:1.0;" x1="356.4819" x2="788.1631" y1="922.1797" y2="922.1797"/><text fill="#000000" font-family="sans-serif" font-size="13" lengthAdjust="spacing" textLength="157.4282" x="368.4819" y="917.1138">Request processed data</text><polygon fill="#181818" points="777.1631,947.3125,787.1631,951.3125,777.1631,955.3125,781.1631,951.3125" style="stroke:#181818;stroke-width:1.0;"/><line style="stroke:#181818;stroke-width:1.0;stroke-dasharray:2.0,2.0;" x1="351.4819" x2="783.1631" y1="951.3125" y2="951.3125"/><text fill="#000000" font-family="sans-serif" font-size="13" lengthAdjust="spacing" textLength="99.4932" x="358.4819" y="946.2466">Processed data</text><!--SRC=[rPI_Ri8m4CRtFCK9Pbw0eLBBK5L20e5GrQaooG4MgUtwBY3Ulaxi94v8qw7gq0nHP7_dxtT_79QS8-m8BQpHai6KvGL1AzWM-mz99DtdskeKYPB42CiobKOeXaabO7QHJlAAUvAC4n04r6nCb_9uuiLDg6xeKgT5NX0yYVICAgkYzluRfYihr16x0O50gYEifS5SAczbsdNlzMmHUsRRb-NAfO2jrbFANB_VnRzXdkjhahGvp1vgjBcl2OF2An1-5gXIX4omI6hucLCteNFO81cj2E4g-GGYhRpSGf8ShIwCmu-e4d1F11GRRqetOYXK463cZSiOKVPCC4Blh1YgtPh3RkYGhd4i3xMlf23SUGVfNcYjjZJERBJbMFWTqEfSRMSub8aBgCk5cIj-GppSeiK9qpCG2tRpfGzULLNz3Y5gr3Pqatod0lEOZRRMtPKukmO-YBf-dS8G-Zo0TTpICSBx6jKsKO7-tpnHKLsAGv7djp7WSFC6Z7uxLCAuzGl-qLn5wKNmzS-3HWmV0zTOWtwQj9t9IbcWTiCs2Tbcar_CMl_FEJHOFUgEKJUy6OXQ-mK0]--></g></svg>