<svg xmlns="http://www.w3.org/2000/svg" xmlns:xlink="http://www.w3.org/1999/xlink" contentStyleType="text/css" height="967px" preserveAspectRatio="none" style="width:869px;height:967px;background:#FFFFFF;" version="1.1" viewBox="0 0 869 967" width="869px" zoomAndPan="magnify"><defs/><g><rect fill="#FFFFFF" height="71.2656" style="stroke:#181818;stroke-width:1.0;" width="10" x="346.4819" y="397.8906"/><rect fill="#FFFFFF" height="71.2656" style="stroke:#181818;stroke-width:1.0;" width="10" x="346.4819" y="777.4844"/><rect fill="#FFFFFF" height="129.5313" style="stroke:#181818;stroke-width:1.0;" width="10" x="566.627" y="149.8281"/><rect fill="#FFFFFF" height="129.5313" style="stroke:#181818;stroke-width:1.0;" width="10" x="566.627" y="529.4219"/><rect fill="none" height="175.7969" style="stroke:#000000;stroke-width:1.5;" width="513.583" x="275.5801" y="111.5625"/><rect fill="none" height="175.7969" style="stroke:#000000;stroke-width:1.5;" width="550.0806" x="10" y="301.3594"/><rect fill="none" height="175.7969" style="stroke:#000000;stroke-width:1.5;" width="496.0063" x="275.5801" y="491.1563"/><rect fill="none" height="175.7969" style="stroke:#000000;stroke-width:1.5;" width="561.627" x="10" y="680.9531"/><line style="stroke:#181818;stroke-width:0.5;stroke-dasharray:5.0,5.0;" x1="103" x2="103" y1="36.2969" y2="932.0156"/><line style="stroke:#181818;stroke-width:0.5;stroke-dasharray:5.0,5.0;" x1="350.5801" x2="350.5801" y1="36.2969" y2="932.0156"/><line style="stroke:#181818;stroke-width:0.5;stroke-dasharray:5.0,5.0;" x1="571.1973" x2="571.1973" y1="36.2969" y2="932.0156"/><line style="stroke:#181818;stroke-width:0.5;stroke-dasharray:5.0,5.0;" x1="788.7368" x2="788.7368" y1="36.2969" y2="932.0156"/><rect fill="#E0FFFF" height="30.2969" rx="2.5" ry="2.5" style="stroke:#181818;stroke-width:0.5;" width="166.4893" x="20" y="5"/><text fill="#000000" font-family="sans-serif" font-size="14" lengthAdjust="spacing" textLength="152.4893" x="27" y="24.9951">Submitter on Website</text><rect fill="#E0FFFF" height="30.2969" rx="2.5" ry="2.5" style="stroke:#181818;stroke-width:0.5;" width="166.4893" x="20" y="931.0156"/><text fill="#000000" font-family="sans-serif" font-size="14" lengthAdjust="spacing" textLength="152.4893" x="27" y="951.0107">Submitter on Website</text><rect fill="#FFA500" height="30.2969" rx="2.5" ry="2.5" style="stroke:#181818;stroke-width:0.5;" width="131.8037" x="285.5801" y="5"/><text fill="#000000" font-family="sans-serif" font-size="14" lengthAdjust="spacing" textLength="117.8037" x="292.5801" y="24.9951">Loculus Backend</text><rect fill="#FFA500" height="30.2969" rx="2.5" ry="2.5" style="stroke:#181818;stroke-width:0.5;" width="131.8037" x="285.5801" y="931.0156"/><text fill="#000000" font-family="sans-serif" font-size="14" lengthAdjust="spacing" textLength="117.8037" x="292.5801" y="951.0107">Loculus Backend</text><rect fill="#90EE90" height="30.2969" rx="2.5" ry="2.5" style="stroke:#181818;stroke-width:0.5;" width="148.8594" x="497.1973" y="5"/><text fill="#000000" font-family="sans-serif" font-size="14" lengthAdjust="spacing" textLength="134.8594" x="504.1973" y="24.9951">Processing Pipeline</text><rect fill="#90EE90" height="30.2969" rx="2.5" ry="2.5" style="stroke:#181818;stroke-width:0.5;" width="148.8594" x="497.1973" y="931.0156"/><text fill="#000000" font-family="sans-serif" font-size="14" lengthAdjust="spacing" textLength="134.8594" x="504.1973" y="951.0107">Processing Pipeline</text><rect fill="#FFFFE0" height="30.2969" rx="2.5" ry="2.5" style="stroke:#181818;stroke-width:0.5;" width="148.8525" x="714.7368" y="5"/><text fill="#000000" font-family="sans-serif" font-size="14" lengthAdjust="spacing" textLength="134.8525" x="721.7368" y="24.9951">SILO Preprocessing</text><rect fill="#FFFFE0" height="30.2969" rx="2.5" ry="2.5" style="stroke:#181818;stroke-width:0.5;" width="148.8525" x="714.7368" y="931.0156"/><text fill="#000000" font-family="sans-serif" font-size="14" lengthAdjust="spacing" textLength="134.8525" x="721.7368" y="951.0107">SILO Preprocessing</text><rect fill="#FFFFFF" height="71.2656" style="stroke:#181818;stroke-width:1.0;" width="10" x="346.4819" y="397.8906"/><rect fill="#FFFFFF" height="71.2656" style="stroke:#181818;stroke-width:1.0;" width="10" x="346.4819" y="777.4844"/><rect fill="#FFFFFF" height="129.5313" style="stroke:#181818;stroke-width:1.0;" width="10" x="566.627" y="149.8281"/><rect fill="#FFFFFF" height="129.5313" style="stroke:#181818;stroke-width:1.0;" width="10" x="566.627" y="529.4219"/><polygon fill="#181818" points="339.4819,63.4297,349.4819,67.4297,339.4819,71.4297,343.4819,67.4297" style="stroke:#181818;stroke-width:1.0;"/><line style="stroke:#181818;stroke-width:1.0;" x1="103.2446" x2="345.4819" y1="67.4297" y2="67.4297"/><text fill="#000000" font-family="sans-serif" font-size="13" lengthAdjust="spacing" textLength="177.3091" x="110.2446" y="62.3638">Submit new sequence data</text><polygon fill="#181818" points="114.2446,92.5625,104.2446,96.5625,114.2446,100.5625,110.2446,96.5625" style="stroke:#181818;stroke-width:1.0;"/><line style="stroke:#181818;stroke-width:1.0;stroke-dasharray:2.0,2.0;" x1="108.2446" x2="350.4819" y1="96.5625" y2="96.5625"/><text fill="#000000" font-family="sans-serif" font-size="13" lengthAdjust="spacing" textLength="169.2476" x="120.2446" y="91.4966">Response with accessions</text><path d="M275.5801,111.5625 L424.7769,111.5625 L424.7769,118.6953 L414.7769,128.6953 L275.5801,128.6953 L275.5801,111.5625 " fill="#EEEEEE" style="stroke:#000000;stroke-width:1.5;"/><rect fill="none" height="175.7969" style="stroke:#000000;stroke-width:1.5;" width="513.583" x="275.5801" y="111.5625"/><text fill="#000000" font-family="sans-serif" font-size="13" font-weight="bold" lengthAdjust="spacing" textLength="104.1968" x="290.5801" y="124.6294">preprocessing</text><polygon fill="#181818" points="362.4819,145.8281,352.4819,149.8281,362.4819,153.8281,358.4819,149.8281" style="stroke:#181818;stroke-width:1.0;"/><line style="stroke:#181818;stroke-width:1.0;" x1="356.4819" x2="565.627" y1="149.8281" y2="149.8281"/><text fill="#000000" font-family="sans-serif" font-size="13" lengthAdjust="spacing" textLength="173.9067" x="368.4819" y="144.7622">Request unprocessed data</text><polygon fill="#181818" points="554.627,174.9609,564.627,178.9609,554.627,182.9609,558.627,178.9609" style="stroke:#181818;stroke-width:1.0;"/><line style="stroke:#181818;stroke-width:1.0;stroke-dasharray:2.0,2.0;" x1="351.4819" x2="560.627" y1="178.9609" y2="178.9609"/><text fill="#000000" font-family="sans-serif" font-size="13" lengthAdjust="spacing" textLength="117.6602" x="358.4819" y="173.895">Unprocessed data</text><line style="stroke:#181818;stroke-width:1.0;" x1="576.627" x2="618.627" y1="208.0938" y2="208.0938"/><line style="stroke:#181818;stroke-width:1.0;" x1="618.627" x2="618.627" y1="208.0938" y2="221.0938"/><line style="stroke:#181818;stroke-width:1.0;" x1="577.627" x2="618.627" y1="221.0938" y2="221.0938"/><polygon fill="#181818" points="587.627,217.0938,577.627,221.0938,587.627,225.0938,583.627,221.0938" style="stroke:#181818;stroke-width:1.0;"/><text fill="#000000" font-family="sans-serif" font-size="13" lengthAdjust="spacing" textLength="183.5361" x="583.627" y="203.0278">Process data and find errors</text><polygon fill="#181818" points="362.4819,246.2266,352.4819,250.2266,362.4819,254.2266,358.4819,250.2266" style="stroke:#181818;stroke-width:1.0;"/><line style="stroke:#181818;stroke-width:1.0;" x1="356.4819" x2="565.627" y1="250.2266" y2="250.2266"/><text fill="#000000" font-family="sans-serif" font-size="13" lengthAdjust="spacing" textLength="86.5693" x="368.4819" y="245.1606">Report errors</text><polygon fill="#181818" points="559.627,275.3594,569.627,279.3594,559.627,283.3594,563.627,279.3594" style="stroke:#181818;stroke-width:1.0;"/><line style="stroke:#181818;stroke-width:1.0;stroke-dasharray:2.0,2.0;" x1="351.4819" x2="565.627" y1="279.3594" y2="279.3594"/><text fill="#000000" font-family="sans-serif" font-size="13" lengthAdjust="spacing" textLength="17.7607" x="358.4819" y="274.2935">Ok</text><path d="M10,301.3594 L121.3838,301.3594 L121.3838,308.4922 L111.3838,318.4922 L10,318.4922 L10,301.3594 " fill="#EEEEEE" style="stroke:#000000;stroke-width:1.5;"/><rect fill="none" height="175.7969" style="stroke:#000000;stroke-width:1.5;" width="550.0806" x="10" y="301.3594"/><text fill="#000000" font-family="sans-serif" font-size="13" font-weight="bold" lengthAdjust="spacing" textLength="66.3838" x="25" y="314.4263">edit data</text><polygon fill="#181818" points="339.4819,335.625,349.4819,339.625,339.4819,343.625,343.4819,339.625" style="stroke:#181818;stroke-width:1.0;"/><line style="stroke:#181818;stroke-width:1.0;" x1="103.2446" x2="345.4819" y1="339.625" y2="339.625"/><text fill="#000000" font-family="sans-serif" font-size="13" lengthAdjust="spacing" textLength="177.7534" x="110.2446" y="334.5591">Check status of submission</text><polygon fill="#181818" points="114.2446,364.7578,104.2446,368.7578,114.2446,372.7578,110.2446,368.7578" style="stroke:#181818;stroke-width:1.0;"/><line style="stroke:#181818;stroke-width:1.0;stroke-dasharray:2.0,2.0;" x1="108.2446" x2="350.4819" y1="368.7578" y2="368.7578"/><text fill="#000000" font-family="sans-serif" font-size="13" lengthAdjust="spacing" textLength="145.501" x="120.2446" y="363.6919">Sequences with errors</text><polygon fill="#181818" points="334.4819,393.8906,344.4819,397.8906,334.4819,401.8906,338.4819,397.8906" style="stroke:#181818;stroke-width:1.0;"/><line style="stroke:#181818;stroke-width:1.0;" x1="103.2446" x2="340.4819" y1="397.8906" y2="397.8906"/><text fill="#000000" font-family="sans-serif" font-size="13" lengthAdjust="spacing" textLength="90.854" x="110.2446" y="392.8247">Correct errors</text><line style="stroke:#181818;stroke-width:1.0;" x1="356.4819" x2="398.4819" y1="427.0234" y2="427.0234"/><line style="stroke:#181818;stroke-width:1.0;" x1="398.4819" x2="398.4819" y1="427.0234" y2="440.0234"/><line style="stroke:#181818;stroke-width:1.0;" x1="357.4819" x2="398.4819" y1="440.0234" y2="440.0234"/><polygon fill="#181818" points="367.4819,436.0234,357.4819,440.0234,367.4819,444.0234,363.4819,440.0234" style="stroke:#181818;stroke-width:1.0;"/><text fill="#000000" font-family="sans-serif" font-size="13" lengthAdjust="spacing" textLength="174.5986" x="363.4819" y="421.9575">Reset data to unprocessed</text><polygon fill="#181818" points="114.2446,465.1563,104.2446,469.1563,114.2446,473.1563,110.2446,469.1563" style="stroke:#181818;stroke-width:1.0;"/><line style="stroke:#181818;stroke-width:1.0;stroke-dasharray:2.0,2.0;" x1="108.2446" x2="350.4819" y1="469.1563" y2="469.1563"/><text fill="#000000" font-family="sans-serif" font-size="13" lengthAdjust="spacing" textLength="17.7607" x="120.2446" y="464.0903">Ok</text><path d="M275.5801,491.1563 L424.7769,491.1563 L424.7769,498.2891 L414.7769,508.2891 L275.5801,508.2891 L275.5801,491.1563 " fill="#EEEEEE" style="stroke:#000000;stroke-width:1.5;"/><rect fill="none" height="175.7969" style="stroke:#000000;stroke-width:1.5;" width="496.0063" x="275.5801" y="491.1563"/><text fill="#000000" font-family="sans-serif" font-size="13" font-weight="bold" lengthAdjust="spacing" textLength="104.1968" x="290.5801" y="504.2231">preprocessing</text><polygon fill="#181818" points="362.4819,525.4219,352.4819,529.4219,362.4819,533.4219,358.4819,529.4219" style="stroke:#181818;stroke-width:1.0;"/><line style="stroke:#181818;stroke-width:1.0;" x1="356.4819" x2="565.627" y1="529.4219" y2="529.4219"/><text fill="#000000" font-family="sans-serif" font-size="13" lengthAdjust="spacing" textLength="173.9067" x="368.4819" y="524.356">Request unprocessed data</text><polygon fill="#181818" points="554.627,554.5547,564.627,558.5547,554.627,562.5547,558.627,558.5547" style="stroke:#181818;stroke-width:1.0;"/><line style="stroke:#181818;stroke-width:1.0;stroke-dasharray:2.0,2.0;" x1="351.4819" x2="560.627" y1="558.5547" y2="558.5547"/><text fill="#000000" font-family="sans-serif" font-size="13" lengthAdjust="spacing" textLength="117.6602" x="358.4819" y="553.4888">Unprocessed data</text><line style="stroke:#181818;stroke-width:1.0;" x1="576.627" x2="618.627" y1="587.6875" y2="587.6875"/><line style="stroke:#181818;stroke-width:1.0;" x1="618.627" x2="618.627" y1="587.6875" y2="600.6875"/><line style="stroke:#181818;stroke-width:1.0;" x1="577.627" x2="618.627" y1="600.6875" y2="600.6875"/><polygon fill="#181818" points="587.627,596.6875,577.627,600.6875,587.627,604.6875,583.627,600.6875" style="stroke:#181818;stroke-width:1.0;"/><text fill="#000000" font-family="sans-serif" font-size="13" lengthAdjust="spacing" textLength="165.9595" x="583.627" y="582.6216">Process data successfully</text><polygon fill="#181818" points="362.4819,625.8203,352.4819,629.8203,362.4819,633.8203,358.4819,629.8203" style="stroke:#181818;stroke-width:1.0;"/><line style="stroke:#181818;stroke-width:1.0;" x1="356.4819" x2="565.627" y1="629.8203" y2="629.8203"/><text fill="#000000" font-family="sans-serif" font-size="13" lengthAdjust="spacing" textLength="150.1538" x="368.4819" y="624.7544">Submit processed data</text><polygon fill="#181818" points="559.627,654.9531,569.627,658.9531,559.627,662.9531,563.627,658.9531" style="stroke:#181818;stroke-width:1.0;"/><line style="stroke:#181818;stroke-width:1.0;stroke-dasharray:2.0,2.0;" x1="351.4819" x2="565.627" y1="658.9531" y2="658.9531"/><text fill="#000000" font-family="sans-serif" font-size="13" lengthAdjust="spacing" textLength="17.7607" x="358.4819" y="653.8872">Ok</text><path d="M10,680.9531 L152.6079,680.9531 L152.6079,688.0859 L142.6079,698.0859 L10,698.0859 L10,680.9531 " fill="#EEEEEE" style="stroke:#000000;stroke-width:1.5;"/><rect fill="none" height="175.7969" style="stroke:#000000;stroke-width:1.5;" width="561.627" x="10" y="680.9531"/><text fill="#000000" font-family="sans-serif" font-size="13" font-weight="bold" lengthAdjust="spacing" textLength="97.6079" x="25" y="694.02">approve data</text><polygon fill="#181818" points="339.4819,715.2188,349.4819,719.2188,339.4819,723.2188,343.4819,719.2188" style="stroke:#181818;stroke-width:1.0;"/><line style="stroke:#181818;stroke-width:1.0;" x1="103.2446" x2="345.4819" y1="719.2188" y2="719.2188"/><text fill="#000000" font-family="sans-serif" font-size="13" lengthAdjust="spacing" textLength="177.7534" x="110.2446" y="714.1528">Check status of submission</text><polygon fill="#181818" points="114.2446,744.3516,104.2446,748.3516,114.2446,752.3516,110.2446,748.3516" style="stroke:#181818;stroke-width:1.0;"/><line style="stroke:#181818;stroke-width:1.0;stroke-dasharray:2.0,2.0;" x1="108.2446" x2="350.4819" y1="748.3516" y2="748.3516"/><text fill="#000000" font-family="sans-serif" font-size="13" lengthAdjust="spacing" textLength="224.2373" x="120.2446" y="743.2856">Successfully processed sequences</text><polygon fill="#181818" points="334.4819,773.4844,344.4819,777.4844,334.4819,781.4844,338.4819,777.4844" style="stroke:#181818;stroke-width:1.0;"/><line style="stroke:#181818;stroke-width:1.0;" x1="103.2446" x2="340.4819" y1="777.4844" y2="777.4844"/><text fill="#000000" font-family="sans-serif" font-size="13" lengthAdjust="spacing" textLength="158.4248" x="110.2446" y="772.4185">Approve processed data</text><line style="stroke:#181818;stroke-width:1.0;" x1="356.4819" x2="398.4819" y1="806.6172" y2="806.6172"/><line style="stroke:#181818;stroke-width:1.0;" x1="398.4819" x2="398.4819" y1="806.6172" y2="819.6172"/><line style="stroke:#181818;stroke-width:1.0;" x1="357.4819" x2="398.4819" y1="819.6172" y2="819.6172"/><polygon fill="#181818" points="367.4819,815.6172,357.4819,819.6172,367.4819,823.6172,363.4819,819.6172" style="stroke:#181818;stroke-width:1.0;"/><text fill="#000000" font-family="sans-serif" font-size="13" lengthAdjust="spacing" textLength="186.145" x="363.4819" y="801.5513">Update status to "approved"</text><polygon fill="#181818" points="114.2446,844.75,104.2446,848.75,114.2446,852.75,110.2446,848.75" style="stroke:#181818;stroke-width:1.0;"/><line style="stroke:#181818;stroke-width:1.0;stroke-dasharray:2.0,2.0;" x1="108.2446" x2="350.4819" y1="848.75" y2="848.75"/><text fill="#000000" font-family="sans-serif" font-size="13" lengthAdjust="spacing" textLength="17.7607" x="120.2446" y="843.6841">Ok</text><polygon fill="#181818" points="362.4819,880.8828,352.4819,884.8828,362.4819,888.8828,358.4819,884.8828" style="stroke:#181818;stroke-width:1.0;"/><line style="stroke:#181818;stroke-width:1.0;" x1="356.4819" x2="788.1631" y1="884.8828" y2="884.8828"/><text fill="#000000" font-family="sans-serif" font-size="13" lengthAdjust="spacing" textLength="157.4282" x="368.4819" y="879.8169">Request processed data</text><polygon fill="#181818" points="777.1631,910.0156,787.1631,914.0156,777.1631,918.0156,781.1631,914.0156" style="stroke:#181818;stroke-width:1.0;"/><line style="stroke:#181818;stroke-width:1.0;stroke-dasharray:2.0,2.0;" x1="351.4819" x2="783.1631" y1="914.0156" y2="914.0156"/><text fill="#000000" font-family="sans-serif" font-size="13" lengthAdjust="spacing" textLength="99.4932" x="358.4819" y="908.9497">Processed data</text><!--SRC=[rPI_Ri8m4CRtFCKfpBm0GwMMeQg410AXgbDbd0CiKjlrsI3UlYPs4YUawL1rQ8Oeih_pzxi_iMR62YuqanRoZTjz26lHW9BmYZiI5dDW1DHiJ1RYSBJpAvEPJaCNYhlI4JmnVa9PL56xy0sJfM7oWDs0bL4SYOGym4feB8KCLhfT3rxF1h5djdbPB65biDK6Ib6gzxluDonBTScoDeVfGuqsWv0oIBm0uQT3oH4APbbMmq-zkWcTmHf9Aqa85s6Fm7ZbvHUox62Kqnu_eSh0FmbGQho-kP459wC0Ys1yYs7SYZEp2BspKgXsQmRReKEwngayrhwI0lFdxOL_eJ7Aq3YpLiQcmk-0bgTgky2XJ7n0NIuiVF4Ruk4MpO_8Jq2MMJzVQXzKLTNl4996RM8tANGgCe_PA6EGTx9huAEewzSf36780wnAMpf6U5-ZsYOfqF-R9tBLJx5tPNaT0uv_te3HRuUAQRz-nZ-QgoIz1Bw-F6Z4y35oZJNefqdRwk8cYzH-sFAORP7_OjRwD-VGOFMeEqRTy6OWQkqN]--></g></svg>