<svg xmlns="http://www.w3.org/2000/svg" xmlns:xlink="http://www.w3.org/1999/xlink" contentStyleType="text/css" height="865px" preserveAspectRatio="none" style="width:797px;height:865px;background:#FFFFFF;" version="1.1" viewBox="0 0 797 865" width="797px" zoomAndPan="magnify"><title>Cluster Details</title><defs/><g><text fill="#000000" font-family="sans-serif" font-size="14" font-weight="bold" lengthAdjust="spacing" textLength="116.5254" x="333.2373" y="22.9951">Cluster Details</text><!--cluster loculus--><g id="cluster_loculus"><polygon fill="none" points="182,53.2969,192,43.2969,780,43.2969,780,704.2969,770,714.2969,182,714.2969,182,53.2969" style="stroke:#181818;stroke-width:1.0;"/><line style="stroke:#181818;stroke-width:1.0;" x1="770" x2="780" y1="53.2969" y2="43.2969"/><line style="stroke:#181818;stroke-width:1.0;" x1="182" x2="770" y1="53.2969" y2="53.2969"/><line style="stroke:#181818;stroke-width:1.0;" x1="770" x2="770" y1="53.2969" y2="714.2969"/><text fill="#000000" font-family="sans-serif" font-size="14" font-weight="bold" lengthAdjust="spacing" textLength="152.5576" x="400.7212" y="69.292">Kubernetes Cluster</text></g><!--cluster One instance per organism--><g id="cluster_One instance per organism"><polygon fill="none" points="286.5,77.2969,296.5,67.2969,756,67.2969,756,402.2969,746,412.2969,286.5,412.2969,286.5,77.2969" style="stroke:#181818;stroke-width:1.0;"/><line style="stroke:#181818;stroke-width:1.0;" x1="746" x2="756" y1="77.2969" y2="67.2969"/><line style="stroke:#181818;stroke-width:1.0;" x1="286.5" x2="746" y1="77.2969" y2="77.2969"/><line style="stroke:#181818;stroke-width:1.0;" x1="746" x2="746" y1="77.2969" y2="412.2969"/><text fill="#000000" font-family="sans-serif" font-size="14" font-weight="bold" lengthAdjust="spacing" textLength="213.083" x="410.7085" y="93.292">One instance per organism</text></g><text fill="#000000" font-family="sans-serif" font-size="14" lengthAdjust="spacing" textLength="103.7217" x="130.1392" y="554.292">Traefik Ingress</text><rect fill="#F1F1F1" height="12" style="stroke:#181818;stroke-width:1.5;" width="12" x="176" y="529.2969"/><!--entity website--><g id="elem_website"><rect fill="#F1F1F1" height="46.2969" rx="2.5" ry="2.5" style="stroke:#181818;stroke-width:0.5;" width="154.0713" x="313" y="431.2969"/><rect fill="#F1F1F1" height="10" style="stroke:#181818;stroke-width:0.5;" width="15" x="447.0713" y="436.2969"/><rect fill="#F1F1F1" height="2" style="stroke:#181818;stroke-width:0.5;" width="4" x="445.0713" y="438.2969"/><rect fill="#F1F1F1" height="2" style="stroke:#181818;stroke-width:0.5;" width="4" x="445.0713" y="442.2969"/><text fill="#000000" font-family="sans-serif" font-size="14" lengthAdjust="spacing" textLength="114.0713" x="328" y="464.292">Loculus Website</text></g><!--entity backend--><g id="elem_backend"><rect fill="#F1F1F1" height="46.2969" rx="2.5" ry="2.5" style="stroke:#181818;stroke-width:0.5;" width="157.8037" x="311" y="512.2969"/><rect fill="#F1F1F1" height="10" style="stroke:#181818;stroke-width:0.5;" width="15" x="448.8037" y="517.2969"/><rect fill="#F1F1F1" height="2" style="stroke:#181818;stroke-width:0.5;" width="4" x="446.8037" y="519.2969"/><rect fill="#F1F1F1" height="2" style="stroke:#181818;stroke-width:0.5;" width="4" x="446.8037" y="523.2969"/><text fill="#000000" font-family="sans-serif" font-size="14" lengthAdjust="spacing" textLength="117.8037" x="326" y="545.292">Loculus Backend</text></g><!--entity keycloak--><g id="elem_keycloak"><rect fill="#F1F1F1" height="46.2969" rx="2.5" ry="2.5" style="stroke:#181818;stroke-width:0.5;" width="102.918" x="338.5" y="593.2969"/><rect fill="#F1F1F1" height="10" style="stroke:#181818;stroke-width:0.5;" width="15" x="421.418" y="598.2969"/><rect fill="#F1F1F1" height="2" style="stroke:#181818;stroke-width:0.5;" width="4" x="419.418" y="600.2969"/><rect fill="#F1F1F1" height="2" style="stroke:#181818;stroke-width:0.5;" width="4" x="419.418" y="604.2969"/><text fill="#000000" font-family="sans-serif" font-size="14" lengthAdjust="spacing" textLength="62.918" x="353.5" y="626.292">Keycloak</text></g><!--entity processing--><g id="elem_processing"><rect fill="#F1F1F1" height="46.2969" rx="2.5" ry="2.5" style="stroke:#181818;stroke-width:0.5;" width="174.8594" x="302.5" y="188.2969"/><rect fill="#F1F1F1" height="10" style="stroke:#181818;stroke-width:0.5;" width="15" x="457.3594" y="193.2969"/><rect fill="#F1F1F1" height="2" style="stroke:#181818;stroke-width:0.5;" width="4" x="455.3594" y="195.2969"/><rect fill="#F1F1F1" height="2" style="stroke:#181818;stroke-width:0.5;" width="4" x="455.3594" y="199.2969"/><text fill="#000000" font-family="sans-serif" font-size="14" lengthAdjust="spacing" textLength="134.8594" x="317.5" y="221.292">Processing Pipeline</text></g><!--entity lapis--><g id="elem_lapis"><rect fill="#F1F1F1" height="46.2969" rx="2.5" ry="2.5" style="stroke:#181818;stroke-width:0.5;" width="78.835" x="350.5" y="269.2969"/><rect fill="#F1F1F1" height="10" style="stroke:#181818;stroke-width:0.5;" width="15" x="409.335" y="274.2969"/><rect fill="#F1F1F1" height="2" style="stroke:#181818;stroke-width:0.5;" width="4" x="407.335" y="276.2969"/><rect fill="#F1F1F1" height="2" style="stroke:#181818;stroke-width:0.5;" width="4" x="407.335" y="280.2969"/><text fill="#000000" font-family="sans-serif" font-size="14" lengthAdjust="spacing" textLength="38.835" x="365.5" y="302.292">LAPIS</text></g><!--entity silo--><g id="elem_silo"><rect fill="#F1F1F1" height="46.2969" rx="2.5" ry="2.5" style="stroke:#181818;stroke-width:0.5;" width="98.4336" x="341" y="107.2969"/><rect fill="#F1F1F1" height="10" style="stroke:#181818;stroke-width:0.5;" width="15" x="419.4336" y="112.2969"/><rect fill="#F1F1F1" height="2" style="stroke:#181818;stroke-width:0.5;" width="4" x="417.4336" y="114.2969"/><rect fill="#F1F1F1" height="2" style="stroke:#181818;stroke-width:0.5;" width="4" x="417.4336" y="118.2969"/><text fill="#000000" font-family="sans-serif" font-size="14" lengthAdjust="spacing" textLength="58.4336" x="356" y="140.292">SILO API</text></g><!--entity silo_processing--><g id="elem_silo_processing"><rect fill="#F1F1F1" height="46.2969" rx="2.5" ry="2.5" style="stroke:#181818;stroke-width:0.5;" width="174.8525" x="565" y="188.2969"/><rect fill="#F1F1F1" height="10" style="stroke:#181818;stroke-width:0.5;" width="15" x="719.8525" y="193.2969"/><rect fill="#F1F1F1" height="2" style="stroke:#181818;stroke-width:0.5;" width="4" x="717.8525" y="195.2969"/><rect fill="#F1F1F1" height="2" style="stroke:#181818;stroke-width:0.5;" width="4" x="717.8525" y="199.2969"/><text fill="#000000" font-family="sans-serif" font-size="14" lengthAdjust="spacing" textLength="134.8525" x="580" y="221.292">SILO Preprocessing</text></g><!--entity ingest--><g id="elem_ingest"><rect fill="#F1F1F1" height="46.2969" rx="2.5" ry="2.5" style="stroke:#181818;stroke-width:0.5;" width="83.2852" x="611" y="107.2969"/><rect fill="#F1F1F1" height="10" style="stroke:#181818;stroke-width:0.5;" width="15" x="674.2852" y="112.2969"/><rect fill="#F1F1F1" height="2" style="stroke:#181818;stroke-width:0.5;" width="4" x="672.2852" y="114.2969"/><rect fill="#F1F1F1" height="2" style="stroke:#181818;stroke-width:0.5;" width="4" x="672.2852" y="118.2969"/><text fill="#000000" font-family="sans-serif" font-size="14" lengthAdjust="spacing" textLength="43.2852" x="626" y="140.292">Ingest</text></g><!--entity deposition--><g id="elem_deposition"><rect fill="#F1F1F1" height="46.2969" rx="2.5" ry="2.5" style="stroke:#181818;stroke-width:0.5;" width="148.1924" x="316" y="350.2969"/><rect fill="#F1F1F1" height="10" style="stroke:#181818;stroke-width:0.5;" width="15" x="444.1924" y="355.2969"/><rect fill="#F1F1F1" height="2" style="stroke:#181818;stroke-width:0.5;" width="4" x="442.1924" y="357.2969"/><rect fill="#F1F1F1" height="2" style="stroke:#181818;stroke-width:0.5;" width="4" x="442.1924" y="361.2969"/><text fill="#000000" font-family="sans-serif" font-size="14" lengthAdjust="spacing" textLength="108.1924" x="331" y="383.292">ENA Deposition</text></g><!--entity db--><g id="elem_db"><path d="M580.5,732.7969 C580.5,722.7969 652.6216,722.7969 652.6216,722.7969 C652.6216,722.7969 724.7432,722.7969 724.7432,732.7969 L724.7432,758.0938 C724.7432,768.0938 652.6216,768.0938 652.6216,768.0938 C652.6216,768.0938 580.5,768.0938 580.5,758.0938 L580.5,732.7969 " fill="#F1F1F1" style="stroke:#181818;stroke-width:0.5;"/><path d="M580.5,732.7969 C580.5,742.7969 652.6216,742.7969 652.6216,742.7969 C652.6216,742.7969 724.7432,742.7969 724.7432,732.7969 " fill="none" style="stroke:#181818;stroke-width:0.5;"/><text fill="#000000" font-family="sans-serif" font-size="14" lengthAdjust="spacing" textLength="124.2432" x="590.5" y="759.792">Loculus Database</text></g><!--entity kc_db--><g id="elem_kc_db"><path d="M575.5,812.7969 C575.5,802.7969 652.5845,802.7969 652.5845,802.7969 C652.5845,802.7969 729.6689,802.7969 729.6689,812.7969 L729.6689,838.0938 C729.6689,848.0938 652.5845,848.0938 652.5845,848.0938 C652.5845,848.0938 575.5,848.0938 575.5,838.0938 L575.5,812.7969 " fill="#F1F1F1" style="stroke:#181818;stroke-width:0.5;"/><path d="M575.5,812.7969 C575.5,822.7969 652.5845,822.7969 652.5845,822.7969 C652.5845,822.7969 729.6689,822.7969 729.6689,812.7969 " fill="none" style="stroke:#181818;stroke-width:0.5;"/><text fill="#000000" font-family="sans-serif" font-size="14" lengthAdjust="spacing" textLength="134.1689" x="585.5" y="839.792">Keycloak Database</text></g><!--entity  --><g id="elem_ "><ellipse cx="14" cy="535.2969" fill="#F1F1F1" rx="8" ry="8" style="stroke:#181818;stroke-width:0.5;"/></g><!--link   to traefik--><g id="link_ _traefik"><path d="M23.03,535.2969 C52,535.2969 144.75,535.2969 169.72,535.2969 " fill="none" id=" -to-traefik" style="stroke:#181818;stroke-width:1.0;"/><polygon fill="#181818" points="175.72,535.2969,166.72,531.2969,170.72,535.2969,166.72,539.2969,175.72,535.2969" style="stroke:#181818;stroke-width:1.0;"/><text fill="#000000" font-family="sans-serif" font-size="13" lengthAdjust="spacing" textLength="33.4966" x="72" y="531.3638">HTTP</text></g><!--link traefik to website--><g id="link_traefik_website"><path d="M188.35,532.6569 C201.13,525.7769 236.88,506.9269 268,494.2969 C282.76,488.3069 293.1079,484.4541 308.5279,479.2241 " fill="none" id="traefik-to-website" style="stroke:#181818;stroke-width:1.0;"/><polygon fill="#181818" points="314.21,477.2969,304.4021,476.3996,309.4749,478.9029,306.9717,483.9757,314.21,477.2969" style="stroke:#181818;stroke-width:1.0;"/></g><!--link traefik to backend--><g id="link_traefik_backend"><path d="M188.18,535.2969 C204.67,535.2969 255.74,535.2969 304.84,535.2969 " fill="none" id="traefik-to-backend" style="stroke:#181818;stroke-width:1.0;"/><polygon fill="#181818" points="310.84,535.2969,301.84,531.2969,305.84,535.2969,301.84,539.2969,310.84,535.2969" style="stroke:#181818;stroke-width:1.0;"/></g><!--link traefik to lapis--><g id="link_traefik_lapis"><path d="M184.24,528.9369 C187.79,501.2569 205.59,390.1869 268,332.2969 C290.55,311.3869 318.3775,302.4644 344.5075,297.6944 " fill="none" id="traefik-to-lapis" style="stroke:#181818;stroke-width:1.0;"/><polygon fill="#181818" points="350.41,296.6169,340.838,294.2981,345.4913,297.5148,342.2746,302.1681,350.41,296.6169" style="stroke:#181818;stroke-width:1.0;"/></g><!--link traefik to keycloak--><g id="link_traefik_keycloak"><path d="M188.36,537.8469 C201.18,544.4969 237,562.7569 268,575.2969 C290.82,584.5269 310.8976,591.6008 332.7776,598.7608 " fill="none" id="traefik-to-keycloak" style="stroke:#181818;stroke-width:1.0;"/><polygon fill="#181818" points="338.48,600.6269,331.1704,594.0262,333.728,599.0718,328.6823,601.6294,338.48,600.6269" style="stroke:#181818;stroke-width:1.0;"/></g><!--link backend to db--><g id="link_backend_db"><path d="M469.25,556.9969 C481.41,562.0369 493.42,568.0869 504,575.2969 C563.74,616.0069 610.8959,681.6225 634.2759,717.6825 " fill="none" id="backend-to-db" style="stroke:#181818;stroke-width:1.0;"/><polygon fill="#181818" points="637.54,722.7169,636.0001,712.9892,634.8199,718.5215,629.2875,717.3413,637.54,722.7169" style="stroke:#181818;stroke-width:1.0;"/></g><!--link deposition to db--><g id="link_deposition_db"><path d="M464.13,380.3269 C478.53,384.4469 492.67,390.7369 504,400.2969 C607.57,487.6469 639.3838,654.864 647.9838,716.724 " fill="none" id="deposition-to-db" style="stroke:#181818;stroke-width:1.0;"/><polygon fill="#181818" points="648.81,722.6669,651.5326,713.2018,648.1215,717.7145,643.6088,714.3034,648.81,722.6669" style="stroke:#181818;stroke-width:1.0;"/></g><!--link keycloak to kc_db--><g id="link_keycloak_kc_db"><path d="M441.62,625.1969 C462.91,631.0669 486.7,640.6769 504,656.2969 C551.06,698.8069 519.96,740.6469 565,785.2969 C571.81,792.0569 574.7597,794.8391 583.3197,799.6891 " fill="none" id="keycloak-to-kc_db" style="stroke:#181818;stroke-width:1.0;"/><polygon fill="#181818" points="588.54,802.6469,582.6814,794.73,584.1897,800.1821,578.7377,801.6904,588.54,802.6469" style="stroke:#181818;stroke-width:1.0;"/></g><!--SRC=[VPB1QiCm38RlVWgHUrzWXy6s3bPQra0BEnR7KJCHrpQsoXYZxpxNZjEijCj9-lF9blIRYJN2Ypu6HWzpP4aw28rx1hRWgVjaQCcZOh9626DRX6fvRD0RP0obiW8PG5jrZ2dy28YVivx9GBNr4lVKmy9q7aD896TD953PWxC63KEr6axum2OGOsA_SdmFVPQgHzCcjCdnDRh4RwMjx1FJ3qc-Ey-pDWXa0akZ45pSW_MTD1GErJ3BrO6rjogEGgQ3cXngChbLD-gtgbPFzMAJ5oKTXLl8Ph5QGyGI5KZRkr3jyNBRYE_-xo1QW84JJIcy1Rs-FyLtu6nSUhGymUsOfeAJE0dHIfQD37XnOZuekQIP4CM0lqYlTf4I5LGmcpsMDm4FyBRTrgAavr_b2KorulLKotkTAXUt1pwfv-R6aOfIq5oNU_i5]--></g></svg>