<svg xmlns="http://www.w3.org/2000/svg" xmlns:xlink="http://www.w3.org/1999/xlink" contentStyleType="text/css" height="241px" preserveAspectRatio="none" style="width:356px;height:241px;background:#FFFFFF;" version="1.1" viewBox="0 0 356 241" width="356px" zoomAndPan="magnify"><title>Deployment Overview</title><defs/><g><text fill="#000000" font-family="sans-serif" font-size="14" font-weight="bold" lengthAdjust="spacing" textLength="174.0771" x="84.0459" y="22.9951">Deployment Overview</text><!--cluster loculus--><g id="cluster_loculus"><polygon fill="none" points="56,53.2969,66,43.2969,284,43.2969,284,125.2969,274,135.2969,56,135.2969,56,53.2969" style="stroke:#181818;stroke-width:1.0;"/><line style="stroke:#181818;stroke-width:1.0;" x1="274" x2="284" y1="53.2969" y2="43.2969"/><line style="stroke:#181818;stroke-width:1.0;" x1="56" x2="274" y1="53.2969" y2="53.2969"/><line style="stroke:#181818;stroke-width:1.0;" x1="274" x2="274" y1="53.2969" y2="135.2969"/><text fill="#000000" font-family="sans-serif" font-size="14" font-weight="bold" lengthAdjust="spacing" textLength="152.5576" x="89.7212" y="69.292">Kubernetes Cluster</text></g><!--entity services--><g id="elem_services"><rect fill="#F1F1F1" height="32.2969" rx="2.5" ry="2.5" style="stroke:#181818;stroke-width:0.5;" width="130.8848" x="106.5" y="87.2969"/><rect fill="#F1F1F1" height="32.2969" rx="2.5" ry="2.5" style="stroke:#181818;stroke-width:0.5;" width="130.8848" x="102.5" y="83.2969"/><text fill="#000000" font-family="sans-serif" font-size="14" lengthAdjust="spacing" textLength="114.8848" x="110.5" y="104.292">Loculus services</text></g><!--entity db--><g id="elem_db"><path d="M6,189.2969 C6,179.2969 78.1216,179.2969 78.1216,179.2969 C78.1216,179.2969 150.2432,179.2969 150.2432,189.2969 L150.2432,214.5938 C150.2432,224.5938 78.1216,224.5938 78.1216,224.5938 C78.1216,224.5938 6,224.5938 6,214.5938 L6,189.2969 " fill="#F1F1F1" style="stroke:#181818;stroke-width:0.5;"/><path d="M6,189.2969 C6,199.2969 78.1216,199.2969 78.1216,199.2969 C78.1216,199.2969 150.2432,199.2969 150.2432,189.2969 " fill="none" style="stroke:#181818;stroke-width:0.5;"/><text fill="#000000" font-family="sans-serif" font-size="14" lengthAdjust="spacing" textLength="124.2432" x="16" y="216.292">Loculus Database</text></g><!--entity kc_db--><g id="elem_kc_db"><path d="M185,189.2969 C185,179.2969 262.0845,179.2969 262.0845,179.2969 C262.0845,179.2969 339.1689,179.2969 339.1689,189.2969 L339.1689,214.5938 C339.1689,224.5938 262.0845,224.5938 262.0845,224.5938 C262.0845,224.5938 185,224.5938 185,214.5938 L185,189.2969 " fill="#F1F1F1" style="stroke:#181818;stroke-width:0.5;"/><path d="M185,189.2969 C185,199.2969 262.0845,199.2969 262.0845,199.2969 C262.0845,199.2969 339.1689,199.2969 339.1689,189.2969 " fill="none" style="stroke:#181818;stroke-width:0.5;"/><text fill="#000000" font-family="sans-serif" font-size="14" lengthAdjust="spacing" textLength="134.1689" x="195" y="216.292">Keycloak Database</text></g><!--link services to db--><g id="link_services_db"><path d="M153.97,119.4569 C138.53,135.9869 119.1947,156.6913 102.4447,174.6313 " fill="none" id="services-to-db" style="stroke:#181818;stroke-width:1.0;"/><polygon fill="#181818" points="98.35,179.0169,107.4158,175.1683,101.7622,175.3622,101.5683,169.7087,98.35,179.0169" style="stroke:#181818;stroke-width:1.0;"/></g><!--link services to kc_db--><g id="link_services_kc_db"><path d="M186.03,119.4569 C201.47,135.9869 220.8053,156.6913 237.5553,174.6313 " fill="none" id="services-to-kc_db" style="stroke:#181818;stroke-width:1.0;"/><polygon fill="#181818" points="241.65,179.0169,238.4317,169.7087,238.2378,175.3622,232.5842,175.1683,241.65,179.0169" style="stroke:#181818;stroke-width:1.0;"/></g><!--SRC=[LSn13e9030NGVK_Hp9uhk94T9Xx133D_CQ7E65emn7Xt0I5ATxzz_PPCm3KUKgOxil5rH3ycF8boYM3N32tw38FoMGOrz8wzifGmp95VnFE48e9WgMHbTzbEkXG5wEhtG6-YwCstNl6ZzRPPQMp_H8CfIF7TaNJXDYlQIxcgJilR8N_D1m00]--></g></svg>