<svg version="1.1" id="Layer_1" xmlns="http://www.w3.org/2000/svg" xmlns:xlink="http://www.w3.org/1999/xlink" x="0px" y="0px"
	 viewBox="0 0 356.84 357.94" style="enable-background:new 0 0 356.84 357.94;" xml:space="preserve">
<style type="text/css">
	.st0{fill:#B7D8E5;}
	.st1{fill:#1C7DAD;}
	.st2{fill:#FFFFFF;}
	.st3{fill:#04384C;}
	.st4{fill:#4CA6C1;}
	.st5{fill:#628EA0;}
</style>
<g>
	<path class="st0" d="M102.61,326.38c0.42-0.37,0.84-0.73,1.24-1.12l0.15-0.14c12.62-11.3,24.24-20.79,35.52-29.01
		c0.03-0.02,0.05-0.04,0.08-0.06c-1.59-1.11-2.94-2.57-3.96-4.33c-3.43-0.95-6.86-1.9-10.29-2.86c-2.83-0.79-5.7-1.6-8.59-2.39
		c0.41,3.02,0.95,5.74,1.64,8.25l0.06,0.24c0.08,0.34,0.22,0.78,0.37,1.25c0.29,0.91,0.65,2.04,0.88,3.34l-12.71,6.02l-1.94-3.73
		c-6.35-12.45-10.27-25.07-11.66-37.49c-0.89-8.66-0.63-16.98,0.76-24.78c2.28-13.38,8.14-27.02,16.93-39.39
		c7.33-10.31,16.79-20.07,28.1-29.01c7.55-5.93,15.35-11.11,23.21-15.4l0.14-0.08c3.95-2.05,7.83-4.16,11.62-6.33
		c-0.48-0.29-0.95-0.61-1.39-0.97c-1.26-1.01-2.34-2.23-3.18-3.61c-6.85-1.91-13.7-3.82-20.56-5.71c-0.27,3.87-0.23,7.99,0.5,11.97
		l0.05,0.3c0.03,0.15,0.08,0.32,0.12,0.5c0.2,0.8,0.57,1.73,1.13,3.21l-13.59,5.67c-1.08-2.49-2.6-7.4-3.39-9.79l-0.4-1.22
		c-3.07-9.64-4.97-19.06-5.67-28.1c-0.86-11.18,0.09-21.86,2.81-31.77c2.48-9.18,6.32-17.69,11.42-25.27
		c4.6-6.88,10.42-13.3,17.3-19.08C171,35.67,184.46,28.51,196.1,22.8c4.77-2.35,9.65-4.64,14.37-6.84c3.84-1.8,7.76-3.63,11.64-5.52
		c-14.05-3.69-28.8-5.67-44.01-5.67C82.72,4.77,5.41,82.08,5.41,177.44c0,66.6,37.71,124.38,92.93,153.19l1.28-1.41
		C100.64,328.11,101.69,327.19,102.61,326.38L102.61,326.38z"/>
	<path class="st1" d="M247.08,19.12l-2.47,2.24c-3.91,3.55-7.98,6.92-11.92,10.18l-0.59,0.49c-5.52,4.53-11.11,8.88-16.64,12.96
		c-0.21,0.15-0.41,0.3-0.62,0.45c0.45,0.11,0.9,0.23,1.33,0.39c3.06,1.06,5.63,3.19,7.3,5.92c6.16,1.73,12.33,3.44,18.49,5.16
		c2.25,0.63,4.5,1.25,6.76,1.88c0.16-3.37-0.34-8-0.85-10.96l13.5-5.54c6.27,11.56,9.65,24.72,10.08,37.53
		c0.45,12.2-1.94,25.14-6.91,37.39c-3.02,7.45-6.8,14.42-11.25,20.71c-0.49,0.69-1.01,1.38-1.53,2.06c-0.63,0.83-1.24,1.62-1.7,2.36
		l-0.18,0.28c-4.86,6.91-11.17,13.66-19.28,20.64c-7.01,5.98-14.93,11.68-24.22,17.44c-7.41,4.56-14.83,8.64-22.08,12.14
		c-0.99,0.51-1.94,0.95-2.88,1.38c0.41,0.5,0.8,1.03,1.14,1.59c7.45,2.08,14.9,4.16,22.28,6.2c0.2-3.63,0.08-6.84-0.35-9.8
		l-0.03-0.24c-0.06-0.56-0.24-1.29-0.42-2.07c-0.19-0.78-0.73-2.11-0.89-3.07l13.42-5.5c2.17,5.15,4.28,12.32,5.51,16.71
		c3.56,13.09,4.9,25.71,3.99,37.55c-0.87,11.6-4.1,23.19-9.34,33.48c-4.32,8.46-10.15,16.2-17.32,23.03
		c-6.23,5.98-13.72,11.56-22.87,17.02c-10.85,6.45-22.29,11.8-33.36,16.97c-8.71,4.07-17.66,8.26-26.17,12.93
		c18.99,7.18,39.57,11.12,61.07,11.12c95.37,0,172.68-77.31,172.68-172.68C350.77,106.61,308.11,45.74,247.08,19.12z"/>
	<path class="st2" d="M176.54,309.1c9.15-5.47,16.64-11.04,22.87-17.02c7.17-6.83,12.99-14.57,17.32-23.03
		c5.24-10.3,8.46-21.88,9.34-33.48c0.91-11.84-0.43-24.46-3.99-37.55c-1.23-4.39-3.34-11.56-5.51-16.71l-13.42,5.5
		c0.16,0.96,0.7,2.29,0.89,3.07c0.19,0.78,0.36,1.51,0.42,2.07l0.03,0.24c0.43,2.96,0.55,6.17,0.35,9.8
		c-7.38-2.04-14.83-4.11-22.28-6.2c-0.34-0.56-0.73-1.08-1.14-1.59c0.94-0.43,1.89-0.87,2.88-1.38c7.24-3.5,14.66-7.58,22.08-12.14
		c9.29-5.76,17.2-11.46,24.22-17.44c8.11-6.97,14.42-13.72,19.28-20.64l0.18-0.28c0.47-0.74,1.07-1.52,1.7-2.36
		c0.52-0.68,1.04-1.36,1.53-2.06c4.45-6.29,8.23-13.26,11.25-20.71c4.97-12.25,7.35-25.19,6.91-37.39
		c-0.42-12.81-3.81-25.96-10.08-37.53l-13.5,5.54c0.5,2.96,1,7.58,0.85,10.96c-2.25-0.63-4.5-1.25-6.76-1.88
		c-6.17-1.71-12.33-3.43-18.49-5.16c-1.67-2.73-4.24-4.86-7.3-5.92c-0.44-0.15-0.89-0.28-1.33-0.39c0.21-0.15,0.41-0.3,0.62-0.45
		c5.53-4.08,11.12-8.43,16.64-12.96l0.59-0.49c3.94-3.26,8.01-6.63,11.92-10.18l2.47-2.24c-8.03-3.5-16.37-6.42-24.98-8.68
		c-3.88,1.88-7.8,3.72-11.64,5.52c-4.72,2.21-9.6,4.49-14.37,6.84c-11.63,5.71-25.09,12.87-36.78,22.69
		c-6.88,5.78-12.7,12.2-17.3,19.08c-5.1,7.58-8.94,16.09-11.42,25.27c-2.72,9.9-3.67,20.59-2.81,31.77c0.7,9.04,2.6,18.47,5.67,28.1
		l0.4,1.22c0.79,2.39,2.31,7.3,3.39,9.79l13.59-5.67c-0.56-1.49-0.93-2.41-1.13-3.21c-0.04-0.17-0.09-0.34-0.12-0.5l-0.05-0.3
		c-0.74-3.98-0.77-8.11-0.5-11.97c6.86,1.9,13.71,3.8,20.56,5.71c0.84,1.38,1.92,2.6,3.18,3.61c0.44,0.36,0.91,0.67,1.39,0.97
		c-3.79,2.17-7.66,4.29-11.62,6.33l-0.14,0.08c-7.86,4.29-15.66,9.47-23.21,15.4c-11.31,8.94-20.77,18.7-28.1,29.01
		c-8.79,12.37-14.65,26.01-16.93,39.39c-1.39,7.8-1.65,16.11-0.76,24.78c1.39,12.42,5.31,25.04,11.66,37.49l1.94,3.73l12.71-6.02
		c-0.23-1.3-0.59-2.43-0.88-3.34c-0.15-0.47-0.29-0.92-0.37-1.25l-0.06-0.24c-0.69-2.51-1.23-5.22-1.64-8.25
		c2.89,0.8,5.76,1.6,8.59,2.39c3.43,0.96,6.86,1.92,10.29,2.86c1.02,1.76,2.37,3.22,3.96,4.33c-0.03,0.02-0.05,0.04-0.08,0.06
		c-11.27,8.23-22.89,17.72-35.52,29.01l-0.15,0.14c-0.4,0.38-0.82,0.75-1.24,1.12c-0.92,0.81-1.96,1.72-2.97,2.83l-1.28,1.41
		c6.02,3.14,12.26,5.94,18.67,8.36c8.51-4.67,17.46-8.86,26.17-12.93C154.25,320.9,165.69,315.55,176.54,309.1L176.54,309.1z"/>
</g>
<g>
	<g>
		<path class="st3" d="M163.92,50.96c-6.08,5.11-11.55,10.98-15.97,17.59c-4.75,7.07-8.24,14.96-10.46,23.17
			c-2.62,9.52-3.33,19.5-2.57,29.32c0.7,8.97,2.6,17.83,5.33,26.4c0.89,2.68,1.73,5.39,2.85,7.98c-0.02-1.06-0.44-2.05-0.59-3.09
			c-1.37-7.4-0.74-15,0.41-22.39c10.63,2.94,21.26,5.88,31.88,8.86c0.34,1.56,1.2,3.01,2.45,4c2.38,1.95,6.09,1.96,8.5,0.03
			c2.73-2.03,3.51-6.17,1.7-9.05c-1.37-2.28-4.12-3.62-6.76-3.26c-1.64,0.2-3.16,1.02-4.28,2.22c-10.76-2.99-21.51-6.02-32.29-8.96
			c0.13-1.17,0.49-2.31,0.73-3.45c1.94-8.27,4.67-16.4,8.68-23.91c3.39-6.52,7.63-12.56,12.24-18.27
			c5.06,1.28,10.07,2.79,15.11,4.15c13.23,3.67,26.46,7.36,39.69,11.03c0.62,1.73,1.86,3.26,3.52,4.07c2.9,1.46,6.78,0.58,8.67-2.1
			c1.94-2.55,1.7-6.4-0.47-8.74c-1.69-1.88-4.46-2.71-6.9-2.02c-1.53,0.38-2.84,1.36-3.81,2.57c-17.04-4.72-34.07-9.49-51.12-14.18
			c1.02-1.32,2.26-2.45,3.41-3.67c6.27-6.32,13.07-12.09,20.13-17.5c5.61-4.36,11.49-8.35,17.22-12.55
			c5.55-4.1,10.99-8.34,16.33-12.71c4.08-3.38,8.26-6.85,12.18-10.4c-2.51-0.96-5.05-1.87-7.62-2.71
			c-10.77,5.52-22,10.46-32.86,15.82C186.83,35.31,174.56,42.02,163.92,50.96L163.92,50.96z"/>
		<path class="st3" d="M194.58,286.89c6.4-6.09,11.85-13.21,15.87-21.09c4.86-9.56,7.78-20.1,8.58-30.79
			c0.9-11.8-0.65-23.69-3.75-35.07c-1.32-4.7-2.77-9.4-4.66-13.89c0.29,1.71,0.84,3.36,1.04,5.09c0.97,6.63,0.48,13.37-0.51,19.97
			c-11.25-3.09-22.49-6.22-33.72-9.37c-0.35-1.68-1.32-3.21-2.71-4.22c-2.27-1.7-5.62-1.73-7.94-0.09
			c-2.38,1.56-3.51,4.69-2.79,7.43c0.69,2.93,3.51,5.22,6.55,5.17c1.97,0.08,3.89-0.83,5.26-2.22c11.41,3.16,22.8,6.35,34.21,9.48
			c-1.54,7.45-3.57,14.83-6.57,21.83c-3.74,8.69-8.86,16.76-14.87,24.06c-18.05-5.03-36.1-10.06-54.15-15.08
			c-0.49-2.51-2.48-4.68-4.97-5.31c-2.51-0.7-5.36,0.18-7.04,2.16c-1.73,1.96-2.16,4.94-1.08,7.32c1.07,2.52,3.76,4.22,6.5,4.1
			c1.89-0.02,3.64-0.95,4.98-2.24c17.06,4.79,34.14,9.51,51.22,14.26c-2.26,2.62-4.76,5.03-7.24,7.44
			c-7.28,6.94-15.18,13.22-23.31,19.13c-3.2,2.34-6.47,4.58-9.66,6.92c-12.16,8.87-23.74,18.53-34.96,28.56
			c-1.24,1.18-2.6,2.23-3.77,3.49c1.18,0.55,2.36,1.09,3.55,1.62c20.77-12.16,43.63-20.29,64.32-32.6
			C180.69,298.35,188.09,293.13,194.58,286.89z"/>
	</g>
	<path class="st4" d="M254.94,45.96c5.66,10.45,8.97,22.2,9.37,34.09c0.43,11.78-1.97,23.57-6.39,34.46
		c-2.75,6.79-6.24,13.29-10.46,19.27c-1.12,1.59-2.38,3.07-3.42,4.71c-5.1,7.25-11.39,13.57-18.1,19.33
		c-7.3,6.22-15.18,11.73-23.32,16.78c-6.97,4.28-14.14,8.26-21.51,11.82c-2.07,1.08-4.25,1.94-6.33,3.01
		c-14.58,7.4-28.45,16.51-39.97,28.18c-0.48,0.49-1.06,0.92-1.36,1.56c2.37,0.86,4.86,1.37,7.28,2.1
		c13.44,3.72,26.86,7.49,40.3,11.2c1.1-0.96,2.34-1.84,3.83-2.04c3.11-0.65,6.49,1.21,7.63,4.18c1.24,2.87,0.2,6.55-2.44,8.26
		c-1.92,1.37-4.57,1.67-6.72,0.68c-2.11-0.86-3.55-2.9-4.05-5.08c-16.7-4.64-33.4-9.28-50.09-13.93c-0.3-0.14-0.55-0.09-0.74,0.14
		c-7.59,9.25-13.53,19.96-16.69,31.53c-0.98,3.51-1.71,7.09-2.16,10.71c-0.11,1.19-0.37,2.37-0.31,3.57
		c11.04,3.04,22.07,6.14,33.11,9.17c0.42,0.19,0.73-0.22,1.05-0.43c2.29-1.91,5.87-2.05,8.28-0.27c3.1,2.06,3.86,6.75,1.62,9.71
		c-2.01,2.9-6.34,3.74-9.28,1.8c-1.72-0.99-2.71-2.84-3.17-4.71c-10.63-2.89-21.22-5.97-31.86-8.8c-0.15,2.64,0.12,5.28,0.34,7.9
		c0.42,3.97,1.08,7.91,2.14,11.76c0.34,1.4,0.91,2.74,1.16,4.16c-0.58-0.62-0.83-1.46-1.24-2.19c-5.58-10.94-9.56-22.8-10.93-35.04
		c-0.77-7.56-0.64-15.24,0.7-22.73c2.25-13.2,7.99-25.63,15.72-36.5c7.44-10.47,16.65-19.6,26.71-27.55
		c6.99-5.49,14.4-10.47,22.21-14.74c10.68-5.52,21.05-11.65,30.97-18.46c8.71-6.02,17.07-12.58,24.73-19.9
		c0.26-0.15,0.37-0.56-0.03-0.6c-16.6-4.61-33.2-9.23-49.8-13.84c-0.25-0.1-0.51-0.03-0.68,0.16c-2.29,1.96-5.93,2.03-8.33,0.24
		c-2.12-1.5-3.22-4.25-2.76-6.8c0.31-1.93,1.5-3.71,3.19-4.7c2.21-1.37,5.22-1.35,7.39,0.1c1.74,1.08,2.8,3.03,3.1,5.02
		c17.8,4.99,35.62,9.9,53.43,14.87c4.09-4.17,7.79-8.71,11.27-13.4c6.7-9.28,12.22-19.57,15.16-30.68
		c-11.91-3.39-23.87-6.64-35.8-9.99c-0.44-0.08-0.99-0.46-1.34-0.03c-1.82,1.73-4.59,2.48-6.99,1.62c-2.77-0.84-4.75-3.6-4.76-6.48
		c-0.03-2.37,1.25-4.72,3.28-5.96c1.74-1.09,3.99-1.33,5.93-0.64c2.25,0.78,3.98,2.81,4.46,5.14c11.35,3.2,22.73,6.34,34.09,9.51
		c0.85,0.21,1.67,0.54,2.55,0.63c1.13-6.57,1.48-13.34,0.32-19.94C255.06,47.27,254.94,46.62,254.94,45.96L254.94,45.96z"/>
	<g>
		<path class="st5" d="M191.69,63.11c1.8-1.45,3.57-2.95,5.45-4.31c0.02,3.64,1.31,7.28,3.81,9.96c3.14,3.47,8.07,5.28,12.7,4.5
			c1.5-0.23,2.95-0.73,4.32-1.4c2.63,0.72,5.28,1.43,7.9,2.21c0.85,0.83,1.51,1.9,2.26,2.84c-2.88-0.18-5.76,0.55-8.26,1.97
			c-2.55-0.56-5.06-1.39-7.59-2.05c-9.17-2.55-18.33-5.12-27.5-7.66C186.93,67,189.35,65.09,191.69,63.11z"/>
		<path class="st5" d="M168.59,86.64c15.35,4.2,30.67,8.51,46,12.75c0.48,0.13,1.05,0.2,1.32,0.69c2.85,3.73,7.66,5.86,12.34,5.44
			c-1.14,1.47-2.32,2.91-3.62,4.24c-14.99-4.23-30.01-8.36-45.02-12.55c-0.44-0.07-0.55-0.55-0.78-0.86
			c-2.59-4.22-7.52-6.82-12.46-6.7C167.1,88.64,167.81,87.61,168.59,86.64L168.59,86.64z"/>
		<path class="st5" d="M154.92,112.13c1.04,1.26,2.09,2.55,3.44,3.5c3.75,2.78,8.94,3.53,13.3,1.83c0.39-0.13,0.79-0.4,1.22-0.21
			c11.29,3.14,22.57,6.29,33.86,9.42c-0.35,0.59-0.99,0.91-1.48,1.37c-3.12,2.48-6.29,4.9-9.55,7.18
			c-0.64-4.15-3.17-7.97-6.79-10.13c-4.16-2.57-9.62-2.72-13.94-0.45c-7.32-2.03-14.64-4.09-21.97-6.1
			C153.57,116.39,154.14,114.23,154.92,112.13L154.92,112.13z"/>
		<path class="st5" d="M148.04,215.58c2.92-2.58,6.09-4.88,9.27-7.13c1.16,3.01,3.39,5.58,6.2,7.16c4.08,2.35,9.32,2.49,13.51,0.33
			c4.87,1.24,9.7,2.68,14.56,3.99c3.17,0.9,6.36,1.72,9.52,2.67c-0.76,2.61-1.42,5.26-2.37,7.82c-1.9-3.4-5.11-6.06-8.9-7.04
			c-3.22-0.89-6.76-0.59-9.77,0.86c-0.23,0.13-0.48,0.16-0.72,0.06C168.9,221.38,158.46,218.52,148.04,215.58L148.04,215.58z"/>
		<path class="st5" d="M131.43,232.9c13.74,3.8,27.47,7.63,41.2,11.44c0.51,0.18,1.19,0.16,1.46,0.72
			c2.89,4.55,8.57,7.21,13.91,6.34c-0.66,1.16-1.53,2.19-2.27,3.29c-15.32-4.25-30.63-8.54-45.96-12.77
			c-2.21-3.48-5.92-6.05-10.04-6.58C130.28,234.52,130.84,233.7,131.43,232.9L131.43,232.9z"/>
		<path class="st5" d="M118.38,260.45c4.06,3.54,10.2,4.39,15.06,2.08c0.7-0.49,1.48,0,2.21,0.16c11.36,3.16,22.72,6.31,34.08,9.48
			c-2.69,2.65-5.65,5.01-8.51,7.47c-1.24-3.21-3.55-6-6.59-7.63c-3.75-2.04-8.44-2.36-12.36-0.63c-0.36,0.14-0.74,0.41-1.13,0.24
			c-7.91-2.2-15.81-4.4-23.73-6.58C117.66,263.5,117.94,261.95,118.38,260.45L118.38,260.45z"/>
	</g>
</g>
</svg>
