<?xml version="1.0" encoding="UTF-8"?>
<svg width="251.51pt" height="251.51pt" version="1.0" viewBox="0 0 251.51 251.51" xmlns="http://www.w3.org/2000/svg">
<g transform="matrix(.023549 0 0 -.023549 0 251.51)" fill="#54858c">
<path d="m3590 1955v-185h370v370h-370zm520 2085v-190h370v380h-370zm-2080 520v-190h370v380h-370zm260 655v-315h89c103 0 144-12 160-46 7-17 11-115 11-298 0-345 9-326-151-326h-109v-120h1668l4 109c4 149 6 151 150 151h108v1160h-110v-108c0-162 22-152-332-152-355 0-332-11-336 149l-4 111h-1148zm1300 390v-185h370v370h-370zm-2080 1040v-185h370v370h-370zm2600 520v-185h370v370h-370zm-1040 1045v-190h370v380h-370zm705 1534c-571-45-1040-300-1232-670-23-44-54-120-69-169-25-82-28-105-28-250 0-141 3-173 27-267 37-148 78-250 196-487 56-112 100-205 98-207s-98 28-213 66c-283 95-371 113-559 113-166 1-264-15-398-64-333-121-601-401-717-747-48-146-64-243-64-397-1-158 13-247 56-385 61-190 175-380 324-539 104-110 196-185 371-302 73-49 133-93 133-97s-55-43-122-87c-158-104-254-180-353-280-204-204-335-443-391-715-22-104-25-331-5-440 70-394 322-734 667-900 168-81 344-116 543-107 163 7 241 24 497 108 115 38 215 69 222 69 6 0-39-102-99-227-162-336-204-467-215-683-17-323 121-604 401-814 454-341 1198-427 1672-193 206 101 334 248 390 447 17 62 18 214 18 3820 0 3122-2 3764-14 3810-73 300-350 511-756 575-97 15-299 25-380 19zm-208-1226 23-21v-288c0-356 11-332-149-337l-111-4v-628h628l4 111c4 160-19 149 336 149 280 0 286 0 309-22l23-21v-586l-26-20c-26-20-39-21-300-21-179 0-281 4-297 11-37 17-47 50-47 154v95h-780v780h-89c-103 0-144 12-160 46-7 17-11 115-11 298 0 261 1 274 21 300l20 26h292c285 0 291 0 314-22zm-1566-1557c22-18 24-28 27-130l4-111h1818v-780h105c99 0 107-2 130-25s25-31 25-130v-105h260v-1310h114c107 0 116-1 130-22 14-19 16-66 16-310 0-275-1-289-20-308s-33-20-313-20c-357 0-330-12-335 151l-4 109h-888v-1940h370v105c0 99 2 107 25 130l24 25h287c282 0 288 0 311-22l23-21v-578l-25-24-24-25h-273c-150 0-283 3-296 6-38 11-52 53-52 159v95h-520v2090h-780v260h-107c-96 0-109 2-130 22l-23 21v288c0 356-11 332 149 337l111 4v778h1298l4 110c4 144 4 144 148 148l110 4v628h-1668l-4-111c-4-160 19-149-335-149h-284l-24 25-25 24v580l26 20c26 20 39 21 309 21 263 0 284-1 306-19zm-2001-1621v-5340h10680v10680h-10680zm4240 4680c545-101 898-409 975-849 23-127 22-7526 0-7654-80-462-467-779-1047-862-151-21-433-19-593 4-558 82-1016 347-1253 725-194 309-237 703-118 1089l15 49-47-6c-171-20-327-14-489 20-426 88-806 386-1007 789-111 222-155 399-163 655-5 150-2 193 16 299 67 394 274 746 603 1028l37 32-143 143c-199 200-317 371-405 593-85 212-116 400-108 640 9 241 50 409 152 622 71 149 159 275 275 396 163 171 354 294 575 370 176 61 254 72 490 72h211l-22 75c-99 341-65 717 88 989 238 424 737 719 1346 797 157 20 464 12 612-16zm2885 5c430-69 793-241 1050-499 197-199 307-404 352-661 23-133 13-394-20-535-14-58-30-116-35-130l-10-25h212c231 0 294-9 476-67 423-135 779-492 934-937 66-189 80-280 80-511 0-175-3-220-22-307-77-355-240-638-522-906l-112-106 39-33c314-270 513-595 595-972 19-86 22-132 22-306 0-175-3-220-22-310-172-794-853-1296-1634-1204l-46 6 28-105c42-156 53-264 47-439-8-231-58-401-173-584-64-103-82-125-182-228-263-270-659-453-1105-511-150-19-429-19-566 0-488 70-847 309-991 662-15 38-36 100-46 138-18 68-19 203-21 3858-3 3681-3 3791 16 3880 74 361 320 622 718 761 110 38 255 71 373 86 108 13 447 4 565-15z"/>
<path d="m6637 9739c-191-17-386-72-524-150-109-61-238-190-286-285-20-39-44-100-54-135-17-61-18-218-18-3824 0-3563 1-3763 18-3825 94-345 441-556 952-577 475-19 944 145 1231 431 103 102 170 199 214 309 52 131 64 198 64 357-1 233-42 370-212 720-61 124-106 226-101 228 4 2 104-28 221-67 295-97 345-106 558-105 155 1 186 4 271 26 134 36 229 78 339 149 270 175 459 455 532 789 30 137 30 356-1 500-55 256-184 490-385 694-98 100-193 175-354 281-67 44-122 83-122 87s67 52 148 107c298 201 476 391 603 643 243 483 152 1065-225 1444-230 231-491 338-821 337-188 0-276-18-559-113-115-38-211-68-213-66s47 106 109 232c171 346 212 487 211 729 0 123-4 165-22 230-45 165-127 304-257 432-239 235-605 387-1019 422-133 12-169 12-298 0zm52-392c78-233 173-330 408-413 70-25 129-47 131-49 2-1-48-20-110-40-138-46-203-81-273-149-75-74-106-128-156-271-24-69-46-122-50-117-3 4-23 57-43 119-42 126-89 206-162 274-68 63-120 91-257 140-65 23-115 45-110 49 4 4 59 24 121 45 128 42 208 90 277 167 63 70 87 115 129 238 48 138 45 130 50 130 2 0 23-55 45-123zm-209-1892c34-17 46-53 53-151 3-39 13-96 22-128l16-56h587c639 0 632 1 632-55 0-57 19-55-596-55h-565l30-44c17-25 57-72 89-105l58-61h704l12-25c8-19 8-31 0-50l-11-25-288-2-287-3 124-81c99-64 215-135 281-170 9-5 273 155 374 227 295 209 423 396 444 646 8 92 10 98 41 126 27 24 39 28 69 23 80-12 97-74 66-251-54-306-269-560-694-817-95-57-102-63-85-76 11-7 67-44 126-80 292-182 475-358 573-552 127-251 125-559-6-810-53-102-153-225-258-316-84-74-295-221-398-280-29-16-53-31-53-34s55-39 123-80c447-273 660-550 683-890 7-104-3-136-51-156-42-17-75-11-106 22-18 19-23 41-30 116-4 51-16 118-25 148-68 226-254 413-643 645l-143 86-92-52c-50-28-140-84-200-123l-108-71 277-5c259-5 278-6 291-24 18-26 18-51-2-70-13-14-60-16-363-16h-347l-50-52c-28-29-68-75-88-103l-38-50 571-3 572-2 11-25c8-19 8-31 0-50l-11-25-598-2-598-3-18-55c-10-30-22-97-26-147-6-70-13-99-27-114-29-32-62-41-101-28-63 21-76 83-48 244 55 315 286 581 729 841 36 21 66 41 66 44-1 3-54 38-120 78-387 236-584 457-662 741-17 62-21 105-21 226 0 133 3 160 27 238 82 273 266 479 634 709 70 43 130 83 135 87 4 4-48 41-115 83-437 270-639 523-679 851-15 121-8 162 34 187 38 24 59 25 97 5zm2709-608c78-234 180-336 415-417 66-22 121-42 123-44s-52-22-119-45c-240-82-340-182-419-419-23-68-45-120-49-115-4 4-24 58-44 120-42 126-89 206-162 274-69 64-125 94-253 137-61 20-111 42-111 47 0 6 50 27 111 47 128 43 184 73 253 137 72 68 120 148 162 274 37 114 42 127 49 127 2 0 22-55 44-123zm-2499-4432c46-138 78-190 163-272 72-70 123-98 262-143 55-18 104-36 108-40 5-4-47-26-116-49-140-47-196-79-271-154-69-69-98-121-150-268-24-67-45-118-48-113s-22 59-42 121c-42 126-90 206-163 274-74 69-120 95-253 140-67 23-118 45-113 49 4 4 58 24 118 44 125 41 214 94 276 164 64 72 86 113 129 235 22 61 42 118 45 126 8 21 12 13 55-114z"/>
<path d="m6595 9027c-23-29-66-72-97-96l-55-45 46-36c50-40 121-114 139-146 11-18 13-17 39 16 35 45 99 109 141 141l32 25-54 45c-30 25-73 68-96 95-24 27-46 50-49 51s-24-22-46-50z"/>
<path d="m7197 6138c-488-294-667-522-667-848 0-334 192-569 714-875l100-58 50 28c73 40 296 181 326 205l25 20h-272c-260 0-274 1-293 20-25 25-26 52-2 73 17 15 57 17 364 17h345l59 63c57 59 104 119 104 131 0 3-252 7-561 8-542 3-561 4-575 22-18 26-18 51 2 70 14 14 83 16 608 16h593l17 58c8 31 19 79 22 105l7 47h-746c-664 0-747 2-761 16-19 18-20 38-6 65 10 19 29 19 762 19h751l-7 53c-4 28-14 76-23 105l-17 52h-591c-561 0-593 1-608 18-22 25-21 48 3 72 20 20 33 20 581 20h560l-33 46c-57 80-219 226-343 310-127 86-325 204-341 204-6 0-72-37-147-82z"/>
<path d="m9130 6571c0-13-115-135-153-161l-34-24 47-37c26-21 71-65 101-98l53-60 35 42c35 41 92 96 139 134l23 18-57 48c-31 26-75 70-97 97-38 47-57 61-57 41z"/>
<path d="m6596 2099c-21-28-65-71-96-97l-58-46 43-32c23-18 69-62 102-98l58-66 43 55c23 30 66 73 95 96l53 41-99 99c-54 54-100 99-100 99-1-1-19-24-41-51z"/>
</g>
</svg>
