<?xml version="1.0" encoding="UTF-8"?>
<svg id="Layer_1" data-name="Layer 1" xmlns="http://www.w3.org/2000/svg" width="1024" height="768" version="1.1" viewBox="0 0 1024 768">
  <defs>
    <style>
      .cls-1 {
        fill: #907ad6;
      }

      .cls-1, .cls-2, .cls-3, .cls-4, .cls-5, .cls-6, .cls-7 {
        stroke-width: 0px;
      }

      .cls-2 {
        fill: #6c4c98;
      }

      .cls-3 {
        fill: #2b2a4a;
      }

      .cls-4 {
        fill: #d9bfff;
      }

      .cls-5 {
        fill: #231f20;
      }

      .cls-6 {
        fill: #fff;
      }

      .cls-7 {
        fill: #4f518c;
      }
    </style>
  </defs>
  <g>
    <path class="cls-5" d="M113.3975,563.3115234h25.78125c15.2109375,0,25.0078125,7.8203125,25.0078125,21.140625v.171875c0,14.1796875-10.9140625,21.65625-25.8671875,21.65625h-8.25v17.1875h-16.671875v-60.15625ZM137.975625,593.2177734c5.9296875,0,9.5390625-3.09375,9.5390625-7.8203125v-.171875c0-5.15625-3.609375-7.90625-9.625-7.90625h-7.8203125v15.8984375h7.90625Z"/>
    <path class="cls-5" d="M204.318941,562.8818359h16.0703125l25.609375,60.5859375h-17.875l-4.3828125-10.7421875h-23.203125l-4.296875,10.7421875h-17.53125l25.609375-60.5859375ZM218.928316,599.7490234l-6.703125-17.1015625-6.7890625,17.1015625h13.4921875Z"/>
    <path class="cls-5" d="M278.6641016,577.9208984h-18.046875v-14.609375h52.765625v14.609375h-18.046875v45.546875h-16.671875v-45.546875Z"/>
    <path class="cls-5" d="M332.8246376,563.3115234h16.671875v22.515625h21.3984375v-22.515625h16.671875v60.15625h-16.671875v-22.859375h-21.3984375v22.859375h-16.671875v-60.15625Z"/>
    <path class="cls-5" d="M408.2426063,593.5615234v-.171875c0-17.2734375,13.921875-31.28125,32.484375-31.28125s32.3125,13.8359375,32.3125,31.109375v.171875c0,17.2734375-13.921875,31.28125-32.484375,31.28125s-32.3125-13.8359375-32.3125-31.109375ZM456.0238563,593.5615234v-.171875c0-8.6796875-6.2734375-16.2421875-15.46875-16.2421875-9.109375,0-15.2109375,7.390625-15.2109375,16.0703125v.171875c0,8.6796875,6.2734375,16.2421875,15.3828125,16.2421875,9.1953125,0,15.296875-7.390625,15.296875-16.0703125Z"/>
    <path class="cls-5" d="M493.8387254,563.3115234h25.78125c15.2109375,0,25.0078125,7.8203125,25.0078125,21.140625v.171875c0,14.1796875-10.9140625,21.65625-25.8671875,21.65625h-8.25v17.1875h-16.671875v-60.15625ZM518.4168504,593.2177734c5.9296875,0,9.5390625-3.09375,9.5390625-7.8203125v-.171875c0-5.15625-3.609375-7.90625-9.625-7.90625h-7.8203125v15.8984375h7.90625Z"/>
    <path class="cls-5" d="M563.7752127,563.3115234h16.671875v45.546875h29.1328125v14.609375h-45.8046875v-60.15625Z"/>
    <path class="cls-5" d="M628.6651143,563.3115234h48.3828125v14.1796875h-31.8828125v9.109375h28.875v13.1484375h-28.875v9.5390625h32.3125v14.1796875h-48.8125v-60.15625Z"/>
    <path class="cls-5" d="M714.4948307,592.8740234l-19.765625-29.5625h19.1640625l10.65625,16.9296875,10.7421875-16.9296875h18.734375l-19.765625,29.390625,20.625,30.765625h-19.1640625l-11.515625-18.1328125-11.6015625,18.1328125h-18.734375l20.625-30.59375Z"/>
    <path class="cls-5" d="M772.4979774,597.0849609v-33.7734375h16.9296875v33.4296875c0,8.6796875,4.3828125,12.8046875,11.0859375,12.8046875s11.0859375-3.953125,11.0859375-12.375v-33.859375h16.9296875v33.34375c0,19.421875-11.0859375,27.9296875-28.1875,27.9296875s-27.84375-8.6796875-27.84375-27.5Z"/>
    <path class="cls-5" d="M845.8838281,614.5302734l9.28125-11.0859375c5.9296875,4.7265625,12.546875,7.21875,19.5078125,7.21875,4.46875,0,6.875-1.546875,6.875-4.125v-.171875c0-2.4921875-1.9765625-3.8671875-10.140625-5.7578125-12.8046875-2.921875-22.6875-6.53125-22.6875-18.90625v-.171875c0-11.171875,8.8515625-19.25,23.2890625-19.25,10.2265625,0,18.21875,2.75,24.75,7.9921875l-8.3359375,11.7734375c-5.5-3.8671875-11.515625-5.9296875-16.84375-5.9296875-4.0390625,0-6.015625,1.71875-6.015625,3.8671875v.171875c0,2.75,2.0625,3.953125,10.3984375,5.84375,13.8359375,3.0078125,22.4296875,7.4765625,22.4296875,18.734375v.171875c0,12.2890625-9.7109375,19.59375-24.3203125,19.59375-10.65625,0-20.796875-3.3515625-28.1875-9.96875Z"/>
  </g>
  <g>
    <path class="cls-1" d="M430.503457,491.8945312c.4189453-.3671875.8388672-.7333984,1.2416992-1.1152344l.1533203-.1416016c12.6230469-11.2958984,24.2402344-20.7851562,35.5151367-29.0117188.0257568-.0189209.0526733-.0372925.0784302-.0562134-1.5905762-1.1101074-2.9405518-2.5669556-3.9573364-4.3305054-3.4316406-.9453125-6.859375-1.9042969-10.2875977-2.8642578-2.8286133-.7910156-5.7021484-1.5957031-8.5893555-2.3945312.40625,3.0234375.9467773,5.7392578,1.6401367,8.2460938l.0615234.2382812c.0810547.3388672.2231445.7832031.3735352,1.2548828.2905273.9101562.6523438,2.0429688.8793945,3.3388672l-12.7078857,6.0247192-1.9400635-3.7268677c-6.3496094-12.4541016-10.2734375-25.0683594-11.6616211-37.4921875-.8852539-8.6621094-.6264648-16.9755859.7626953-24.7753906,2.2807617-13.3798828,8.1376953-27.0195312,16.9291992-39.3925781,7.3344727-10.3125,16.7885742-20.0732422,28.1010742-29.0141602,7.550293-5.9331055,15.3540039-11.1118164,23.2114258-15.4047852l.1435547-.0766602c3.9545898-2.0452271,7.8300781-4.1601562,11.6154785-6.3344727-.4796143-.2946777-.9484863-.6098633-1.3913574-.9682617-1.2626953-1.0063477-2.3369141-2.2319336-3.1801758-3.6098633-6.8500977-1.9140625-13.7026367-3.8164062-20.5581055-5.7143555-.269043,3.8662109-.2333984,7.9946289.503418,11.9726562l.0488281.300293c.0273438.1533203.0771484.324707.1210938.4975586.2016602.7998047.5723267,1.7252197,1.1278687,3.2113037l-13.5925903,5.666687c-1.0795898-2.4907227-2.6021729-7.4033813-3.3873291-9.7915649l-.4038086-1.2231445c-3.0698242-9.6352539-4.9682617-19.0625-5.6689453-28.1030273-.8598633-11.1777344.0854492-21.8642578,2.8085938-31.7675781,2.4780273-9.1757812,6.3237305-17.6879883,11.4204102-25.2685547,4.5996094-6.8754883,10.4243164-13.2983398,17.3037109-19.0751953,11.6806641-9.8134766,25.1445312-16.9746094,36.7753906-22.6855469,4.7695312-2.3549805,9.6484375-4.6357422,14.3671875-6.8413086,3.8396606-1.7952271,7.7575684-3.6347656,11.6420898-5.5194702-14.0529175-3.6937866-28.8024292-5.6690674-44.0147095-5.6690674-95.366272,0-172.6759033,77.3096313-172.6759033,172.6759033,0,66.5980225,37.7077637,124.3809814,92.9326172,153.1878662l1.2843628-1.4120483c1.0126953-1.1132812,2.0551758-2.0283203,2.9746094-2.8349609Z"/>
    <path class="cls-7" d="M574.9787988,184.6251831l-2.4729004,2.2449341c-3.9072266,3.5473633-7.9814453,6.918457-11.9208984,10.1787109l-.5878906.4863281c-5.5195312,4.5258789-11.109375,8.8789062-16.6396484,12.9580078-.2069702.1519165-.4147339.2998657-.6218872.4511108.4492188.1090088.8961792.2312012,1.3347778.3858032,3.0576172,1.0600586,5.6298828,3.1899414,7.3017578,5.9243164,6.1601562,1.7299805,12.3251953,3.4433594,18.4902344,5.1567383,2.2529297.6259766,4.5048828,1.2524414,6.7578125,1.8789062.1552734-3.3730469-.3404541-7.9957886-.8453369-10.9567261l13.5-5.5369873c6.2675781,11.5644531,9.651001,24.7168579,10.0758057,37.5288696.4453125,12.2016602-1.9433594,25.1386719-6.9091797,37.387207-3.0175781,7.4501953-6.8037109,14.418457-11.2519531,20.7094727-.4882812.6923828-1.0058594,1.375-1.5253906,2.0566406-.6347656.8349609-1.2353516,1.6235352-1.7041016,2.3598633l-.1845703.2758789c-4.8632812,6.9125977-11.1708984,13.6630859-19.2832031,20.637207-7.0136719,5.9785156-14.9267578,11.6757812-24.2158203,17.4375-7.4140625,4.5571289-14.8320312,8.6357422-22.0751953,12.1391602-.9853516.508667-1.9414062.9506226-2.8783569,1.3781738.413269.5045776.8039551,1.0280151,1.1439819,1.5871582,7.4453125,2.0839844,14.9003906,4.1582031,22.2753906,6.1972656.1992188-3.6293945.0800781-6.8378906-.3535156-9.8017578l-.0302734-.2358398c-.0625-.5595703-.2382812-1.2949219-.4238281-2.0737305-.1865234-.7797852-.729187-2.1134033-.8912964-3.0738525l13.416687-5.5c2.1738281,5.1547852,4.2802734,12.3199463,5.5126953,16.7115479,3.5644531,13.0922852,4.9033203,25.7084961,3.9941406,37.5532227-.8720703,11.6035156-4.1005859,23.1855469-9.3359375,33.4833984-4.3242188,8.4599609-10.1474609,16.203125-17.3154297,23.0283203-6.2294922,5.9804688-13.7177734,11.5556641-22.8725586,17.0244141-10.8500977,6.4541016-22.2929688,11.7998047-33.3588867,16.9697266-8.706604,4.0674438-17.6555786,8.2575073-26.1695557,12.9287109,18.9886475,7.1824341,39.5690918,11.1247559,61.0733032,11.1247559,95.366272,0,172.6759033-77.3096313,172.6759033-172.6759644,0-70.8364868-42.6599121-131.6993408-103.6848755-158.3284912Z"/>
    <path class="cls-6" d="M504.4429102,474.6064453c9.1547852-5.46875,16.6430664-11.0439453,22.8725586-17.0244141,7.1679688-6.8251953,12.9912109-14.5683594,17.3154297-23.0283203,5.2353516-10.2978516,8.4638672-21.8798828,9.3359375-33.4833984.9091797-11.8447266-.4296875-24.4609375-3.9941406-37.5532227-1.2324219-4.3916016-3.3388672-11.5567627-5.5126953-16.7115479l-13.416687,5.5c.1621094.9604492.7047729,2.2940674.8912964,3.0738525.1855469.7788086.3613281,1.5141602.4238281,2.0737305l.0302734.2358398c.4335938,2.9638672.5527344,6.1723633.3535156,9.8017578-7.375-2.0390625-14.8300781-4.1132812-22.2753906-6.1972656-.3400269-.5591431-.7307129-1.0825806-1.1439819-1.5871582.9369507-.4275513,1.8930054-.8695068,2.8783569-1.3781738,7.2431641-3.503418,14.6611328-7.5820312,22.0751953-12.1391602,9.2890625-5.7617188,17.2021484-11.4589844,24.2158203-17.4375,8.1123047-6.9741211,14.4199219-13.7246094,19.2832031-20.637207l.1845703-.2758789c.46875-.7363281,1.0693359-1.5249023,1.7041016-2.3598633.5195312-.6816406,1.0371094-1.3642578,1.5253906-2.0566406,4.4482422-6.2910156,8.234375-13.2592773,11.2519531-20.7094727,4.9658203-12.2485352,7.3544922-25.1855469,6.9091797-37.387207-.4248047-12.8120117-3.8082275-25.9644165-10.0758057-37.5288696l-13.5,5.5369873c.5048828,2.9609375,1.0006104,7.5836792.8453369,10.9567261-2.2529297-.6264648-4.5048828-1.2529297-6.7578125-1.8789062-6.1650391-1.7133789-12.3300781-3.4267578-18.4902344-5.1567383-1.671875-2.734375-4.2441406-4.8642578-7.3017578-5.9243164-.4385986-.1546021-.8855591-.2767944-1.3347778-.3858032.2071533-.1512451.414917-.2991943.6218872-.4511108,5.5302734-4.0791016,11.1201172-8.4321289,16.6396484-12.9580078l.5878906-.4863281c3.9394531-3.2602539,8.0136719-6.6313477,11.9208984-10.1787109l2.4729004-2.2449341c-8.0269775-3.5026245-16.3689575-6.4159546-24.9763184-8.6783447-3.8845215,1.8847046-7.8024292,3.7242432-11.6420898,5.5194702-4.71875,2.2055664-9.5976562,4.4863281-14.3671875,6.8413086-11.6308594,5.7109375-25.0947266,12.8720703-36.7753906,22.6855469-6.8793945,5.7768555-12.7041016,12.199707-17.3037109,19.0751953-5.0966797,7.5805664-8.9423828,16.0927734-11.4204102,25.2685547-2.7231445,9.9033203-3.668457,20.5898438-2.8085938,31.7675781.7006836,9.0405273,2.5991211,18.4677734,5.6689453,28.1030273l.4038086,1.2231445c.7851562,2.3881836,2.3077393,7.3008423,3.3873291,9.7915649l13.5925903-5.666687c-.555542-1.486084-.9262085-2.411499-1.1278687-3.2113037-.0439453-.1728516-.09375-.3442383-.1210938-.4975586l-.0488281-.300293c-.7368164-3.9780273-.7724609-8.1064453-.503418-11.9726562,6.8554688,1.8979492,13.7080078,3.800293,20.5581055,5.7143555.8432617,1.3779297,1.9174805,2.6035156,3.1801758,3.6098633.4428711.3583984.9117432.673584,1.3913574.9682617-3.7854004,2.1743164-7.6608887,4.2892456-11.6154785,6.3344727l-.1435547.0766602c-7.8574219,4.2929688-15.6611328,9.4716797-23.2114258,15.4047852-11.3125,8.940918-20.7666016,18.7016602-28.1010742,29.0141602-8.7915039,12.3730469-14.6484375,26.0126953-16.9291992,39.3925781-1.3891602,7.7998047-1.6479492,16.1132812-.7626953,24.7753906,1.3881836,12.4238281,5.3120117,25.0380859,11.6616211,37.4921875l1.9400635,3.7268677,12.7078857-6.0247192c-.2270508-1.2958984-.5888672-2.4287109-.8793945-3.3388672-.1503906-.4716797-.2924805-.9160156-.3735352-1.2548828l-.0615234-.2382812c-.6933594-2.5068359-1.2338867-5.2226562-1.6401367-8.2460938,2.887207.7988281,5.7607422,1.6035156,8.5893555,2.3945312,3.4282227.9599609,6.855957,1.9189453,10.2875977,2.8642578,1.0167847,1.7635498,2.3667603,3.2203979,3.9573364,4.3305054-.0257568.0189209-.0526733.0372925-.0784302.0562134-11.2749023,8.2265625-22.8920898,17.7158203-35.5151367,29.0117188l-.1533203.1416016c-.402832.3818359-.8227539.7480469-1.2416992,1.1152344-.9194336.8066406-1.9619141,1.7216797-2.9746094,2.8349609l-1.2843628,1.4120483c6.0236206,3.1420898,12.2556763,5.9371338,18.6699829,8.3633423,8.5139771-4.6712036,17.4629517-8.8612671,26.1695557-12.9287109,11.065918-5.1699219,22.5087891-10.515625,33.3588867-16.9697266Z"/>
  </g>
  <g>
    <g>
      <path class="cls-3" d="M491.815957,216.4682617c-6.081604,5.1075439-11.5466919,10.9804688-15.9681396,17.5898438-4.7525024,7.067627-8.2407837,14.9581299-10.4598999,23.1749268-2.6173706,9.5170288-3.329895,19.4971313-2.5741577,29.3188477.6957397,8.9749146,2.5957642,17.8322144,5.3258667,26.4016724.8900757,2.6797485,1.7321167,5.390625,2.8549194,7.9816284-.0192261-1.0579834-.4390259-2.0512085-.5853882-3.0875854-1.369873-7.401062-.741333-14.9989014.4054565-22.3856201,10.6326294,2.9388428,21.2628174,5.8825073,31.8834839,8.8573608.3382568,1.5569458,1.1970825,3.0108032,2.4542236,4.0040283,2.3846436,1.947998,6.0888062,1.9552002,8.4950562.0335693,2.7253418-2.0296021,3.512207-6.1703491,1.6985474-9.0492554-1.3651123-2.2838745-4.1240234-3.6225586-6.7605591-3.2626953-1.6385498.1990967-3.1595459,1.0244141-4.2823486,2.223938-10.762146-2.9892578-21.5147095-6.0240479-32.2937012-8.9556885.131958-1.1731567.4894409-2.305542.7341309-3.4546509,1.9384155-8.2719727,4.6733398-16.3951416,8.6845703-23.9066162,3.3850708-6.5206299,7.6290283-12.5566406,12.2352295-18.2664185,5.0595703,1.2810669,10.0664062,2.7852783,15.1068115,4.1503906,13.2332153,3.6705322,26.4592285,7.3626709,39.6948242,11.026062.6165771,1.7296753,1.8568726,3.2578735,3.524231,4.0687866,2.902832,1.4634399,6.7845459.5805664,8.6677856-2.1015625,1.9384155-2.5502319,1.7009277-6.4030762-.4678345-8.7421875-1.6937256-1.8760376-4.4622192-2.7109375-6.8996582-2.0200195-1.5281982.3838501-2.8356934,1.3626709-3.8145142,2.5742188-17.0405273-4.7213745-34.0690308-9.4882812-51.1191406-14.1760254,1.0172119-1.3218994,2.2647095-2.4542236,3.4090576-3.6681519,6.2663574-6.3215332,13.0700684-12.0864868,20.1281128-17.50354,5.6113892-4.3590698,11.4938965-8.3511353,17.220459-12.5542603,5.5513916-4.0952148,10.9924316-8.3391113,16.3255615-12.7125854,4.0778198-3.3753052,8.2575073-6.8480835,12.1841431-10.4031372-2.5131836-.9613037-5.0527344-1.8692017-7.6207275-2.7148438-10.7738037,5.520752-22.0041504,10.4579468-32.8579102,15.8168945-12.4199219,6.0983887-24.6911011,12.8061523-35.3284912,21.7426758Z"/>
      <path class="cls-3" d="M522.4819727,452.4035034c6.4006958-6.0935669,11.8465576-13.2139893,15.8721313-21.0900879,4.8605347-9.5602417,7.777771-20.0993042,8.5814209-30.7894897.90448-11.7962036-.6501465-23.6882935-3.7496948-35.0742188-1.319519-4.6997681-2.7709351-9.3970947-4.6637573-13.8857422.2878418,1.7056885.8444214,3.361084,1.0387573,5.0907593.9692383,6.6262207.4750366,13.3723755-.5061646,19.9674072-11.2468262-3.0947876-22.4863892-6.2183838-33.71875-9.3683472-.345459-1.6841431-1.3242798-3.2099609-2.7085571-4.2223511-2.274292-1.7033081-5.6234131-1.7321167-7.9384766-.0935669-2.375061,1.5593872-3.5146484,4.6901855-2.7877197,7.4274902.6933594,2.934082,3.5146484,5.2155762,6.5494385,5.1699829,1.9744263.0839844,3.888855-.8252563,5.2563477-2.2167358,11.4050903,3.1571655,22.7982178,6.3527222,34.2081299,9.4810791-1.5354004,7.4490967-3.5697632,14.833374-6.5734253,21.8338013-3.7449341,8.6917725-8.8572998,16.7646484-14.8669434,24.0649414-18.0480957-5.0308228-36.0986328-10.0568237-54.1491089-15.0756836-.4942017-2.5141602-2.4758301-4.6757202-4.9660645-5.309082-2.5093994-.6957397-5.3570557.1751099-7.0388184,2.1639404-1.7297363,1.9648438-2.1567383,4.9372559-1.0795898,7.3171387,1.0675659,2.5238037,3.7641602,4.2175293,6.5014648,4.0999756,1.8880615-.0239868,3.6417847-.9476318,4.975647-2.2407227,17.0596924,4.7908936,34.1433716,9.5050659,51.2174683,14.255188-2.2575073,2.6245728-4.762146,5.0284424-7.2355347,7.4442749-7.2835693,6.9428711-15.1764526,13.2211914-23.3140869,19.1276855-3.2003174,2.3366699-6.4678345,4.5773926-9.6610107,6.9212646-12.163208,8.8741455-23.7434692,18.5255737-34.9614258,28.5632324-1.2407837,1.1773682-2.6047363,2.2338867-3.7659302,3.4909668,1.1775513.5499878,2.3596802,1.0914307,3.5515137,1.6154175,20.7723999-12.1647339,43.6289673-20.2930908,64.3244019-32.6044312,7.7153931-4.6085815,15.1140747-9.8289185,21.6083374-16.0640869Z"/>
    </g>
    <path class="cls-4" d="M582.8361814,211.4710039c5.6617751,10.4478943,8.9748732,22.1984768,9.3683186,34.0906036.4294312,11.7769721-1.9720251,23.5683384-6.3886895,34.4648565-2.7493196,6.786933-6.2351498,13.2859791-10.4646877,19.2668288-1.1179607,1.5857768-2.3798648,3.0659952-3.4234547,4.7069503-5.0979967,7.2451529-11.3931229,13.5666688-18.0960889,19.3292043-7.2979322,6.2207555-15.1788352,11.73139-23.3236346,16.7838045-6.9716604,4.2847163-14.1376444,8.2599541-21.5075483,11.8201551-2.0727855,1.0771767-4.2511295,1.9360392-6.326314,3.0060187-14.5766719,7.3962935-28.45042,16.507913-39.9730919,28.1817255-.4846096.4894077-1.0627824.9188389-1.3626645,1.5593872,2.3726676.8564634,4.8628891,1.3674626,7.2787397,2.1039732,13.4371197,3.7233369,26.8646431,7.4874577,40.3041618,11.1987993,1.0963692-.964421,2.3438789-1.844875,3.8312944-2.0415977,3.1115773-.6477455,6.494248,1.2115239,7.626603,4.1767587,1.2355145,2.8692725.2015208,6.5518254-2.4350431,8.2623532-1.9216449,1.3674626-4.5702041,1.674542-6.7221584.6813323-2.1111704-.8612616-3.5530038-2.8956621-4.0544068-5.0764051-16.6974385-4.6421758-33.397276-9.2819525-50.0923154-13.9313255-.3046803-.1391453-.5517832-.0935632-.7413087.1367463-7.5906171,9.2483657-13.5306829,19.9577573-16.6878422,31.5308095-.9836135,3.5098208-1.7057297,7.0940123-2.1639496,10.7117906-.1055585,1.1899324-.3718539,2.3726676-.3070793,3.5745953,11.0404615,3.0420046,22.0689277,6.1367885,33.1117882,9.1691968.4246331.1895255.7341115-.2207133,1.048388-.4342294,2.2934987-1.9120486,5.865695-2.051194,8.2791466-.2734925,3.099582,2.0583911,3.8648812,6.7485481,1.6169646,9.7065856-2.0080109,2.8956621-6.3383093,3.7353321-9.2795535,1.7968939-1.717725-.9932097-2.7085356-2.8380847-3.1667556-4.7093494-10.6302227-2.893263-21.2172623-5.9664554-31.8618794-8.7973429-.1463425,2.6365639.1151547,5.277926.3406661,7.9048936.4222341,3.9656416,1.0795758,7.9144899,2.1423581,11.7601787.335868,1.4010494.9140408,2.7397234,1.1635428,4.1623643-.5829709-.6213558-.8300738-1.4586268-1.2355145-2.1855412-5.5802072-10.9444992-9.5578441-22.7982411-10.9253067-35.0382312-.7724964-7.5594294-.6381492-15.2364126.6957266-22.7286684,2.2503157-13.199613,7.9936588-25.6315277,15.7186231-36.5040552,7.4442747-10.4670868,16.6494573-19.5978987,26.7063053-27.5459754,6.9908528-5.4938411,14.3991416-10.474284,22.2056739-14.7398078,10.6782038-5.5226298,21.0541264-11.649822,30.967031-18.4607456,8.7085778-6.0240328,17.0692924-12.5830553,24.7270831-19.904978.2638963-.1511406.3670558-.5613794-.0263896-.6021634-16.6014762-4.610988-33.2029524-9.2339714-49.8044286-13.8401613-.251901-.0959623-.5062011-.0335868-.6789332.1607368-2.2887006,1.9576307-5.9304695,2.0320015-8.3343249.2423048-2.1159685-1.5018098-3.2219339-4.2511295-2.7589158-6.8013273.3118774-1.9312411,1.4994108-3.7065435,3.1883471-4.7021522,2.2095317-1.3722607,5.2203486-1.3482702,7.3914954.0959623,1.7417156,1.0771767,2.8044979,3.0300093,3.1043801,5.0236259,17.8010048,4.9900391,35.6236011,9.9009093,53.427005,14.874155,4.0855945-4.1743596,7.792138-8.7109769,11.2683719-13.4035329,6.6957688-9.2843516,12.2159995-19.5715091,15.1596428-30.6791441-11.9137183-3.3850698-23.8706197-6.6381914-35.7963333-9.9872753-.4366284-.0767698-.9860125-.4582199-1.3386739-.0287887-1.8160863,1.7345184-4.5917956,2.4830243-6.9860547,1.6217627-2.7685121-.8444682-4.7549315-3.603384-4.7597296-6.4846518-.0263896-2.3726676,1.2523079-4.7237437,3.2819103-5.9592582,1.7441146-1.091571,3.9872332-1.3266787,5.9256714-.6429473,2.2503157.7796936,3.982435,2.8140942,4.4622465,5.1411797,11.3523389,3.2003424,22.7262694,6.3359102,34.0858054,9.5074639.8468672.208718,1.6673448.5421869,2.5453997.6309521,1.1251579-6.5710178,1.4778193-13.3411574.3238727-19.9361658-.1487415-.6405483-.2686944-1.2882937-.2734925-1.9456354Z"/>
    <g>
      <path class="cls-2" d="M519.5850369,228.6218642c1.8040911-1.4490306,3.5721962-2.9484414,5.44586-4.3063078.0167934,3.6369708,1.3122843,7.2835378,3.8073039,9.9632848,3.1403659,3.4690368,8.0680295,5.277926,12.7006091,4.4982323,1.5042089-.2255114,2.9532395-.7317125,4.3183031-1.3986504,2.6341649.7221162,5.2755269,1.4346362,7.8976965,2.2119308.8540644.8300738,1.506608,1.9000533,2.262311,2.8428828-2.8788687-.1799293-5.7577374.5541822-8.2575551,1.969626-2.554996-.5637785-5.0596117-1.3890541-7.5930162-2.053593-9.1667978-2.5501979-18.3287974-5.1171891-27.4955952-7.6601898,2.1567525-2.178344,4.5774012-4.0855945,6.914083-6.0672158Z"/>
      <path class="cls-2" d="M496.4917118,252.1542168c15.3467692,4.2031483,30.6671489,8.5142542,46.0043219,12.7509893.4774124.1319481,1.048388.1967227,1.3170824.6861304,2.8548781,3.728135,7.6601898,5.8608969,12.3431496,5.4362637-1.1395522,1.468223-2.3246865,2.9076574-3.6177783,4.2439323-14.9941078-4.2271389-30.0122062-8.3631136-45.0159103-12.5518675-.4390275-.0671736-.5517832-.5541822-.7772945-.8564634-2.5933809-4.2223408-7.5210445-6.8181207-12.4607034-6.6981678.71252-1.0195993,1.422641-2.0463958,2.2071327-3.0108169Z"/>
      <path class="cls-2" d="M482.8146864,277.6418011c1.0411908,1.2595051,2.0871798,2.5453997,3.43545,3.5002245,3.7521255,2.7829064,8.9364883,3.5266142,13.3003734,1.8328797.3862482-.1295491.7916889-.3982435,1.2211201-.211117,11.2875644,3.142765,22.5727297,6.2927272,33.8626931,9.4210978-.3454642.5949662-.9884116.9140408-1.4802183,1.3650636-3.1163754,2.4830243-6.2879291,4.8988749-9.5506469,7.1827774-.6405483-4.150369-3.1739527-7.9744663-6.786933-10.1264207-4.1623643-2.5693903-9.6226186-2.7181319-13.9433208-.4462246-7.3219227-2.0344006-14.6390474-4.0927917-21.9657682-6.1008026.5589803-2.1591515,1.1347541-4.3231012,1.9072505-6.4174782Z"/>
      <path class="cls-2" d="M475.9365893,381.0891498c2.9220517-2.5813856,6.0888073-4.8820815,9.2699572-7.1347963,1.1587447,3.0060187,3.3898679,5.5826062,6.1991639,7.1611859,4.0783973,2.3486771,9.3203374,2.4854233,13.5066923.3286708,4.8676872,1.2403126,9.7017875,2.6773479,14.5574794,3.9920313,3.1691546.9020455,6.3599008,1.7249222,9.5170601,2.6725498-.7581021,2.6149724-1.4178428,5.2635316-2.3702686,7.8185276-1.8976543-3.3970651-5.1147901-6.0600186-8.9029015-7.041233-3.2219339-.8900502-6.7581443-.5949662-9.7689611.8612616-.2303095.1295491-.4822105.1559387-.7221162.0647745-10.4239038-2.9196527-20.867-5.781728-31.2861056-8.7229722Z"/>
      <path class="cls-2" d="M459.3255168,398.4151413c13.7370018,3.8049048,27.4668065,7.6314011,41.2038083,11.438705.5062011.1799293,1.1923315.1583378,1.4634249.7221162,2.893263,4.5534107,8.5670334,7.2115661,13.9145321,6.3359102-.6573417,1.1611437-1.5258004,2.1855412-2.2719072,3.2891075-15.3227787-4.2463313-30.6335621-8.5406438-45.9611388-12.7701818-2.2119308-3.4810321-5.9160752-6.0504224-10.0400546-6.5758159.544586-.8252757,1.1059654-1.6409552,1.6913354-2.4398412Z"/>
      <path class="cls-2" d="M446.2746454,425.9611166c4.0592049,3.5410085,10.1959933,4.3926738,15.0636805,2.0823817.6981257-.4894077,1.4826174-.0023991,2.2071327.1583378,11.357137,3.1643565,22.7214712,6.3071215,34.0762092,9.4786752-2.6941413,2.6485592-5.6473808,5.0140297-8.5118551,7.4706643-1.2355145-3.2051405-3.5458066-6.0048403-6.5926093-7.6314011-3.7497265-2.0391987-8.4374844-2.3558742-12.3647411-.6333511-.3622576.1439434-.7365106.4126378-1.1347541.2399057-7.9096918-2.1951374-15.8145854-4.3950729-23.7266762-6.580614.2638963-1.5401948.5469851-3.0827886.9836135-4.5845984Z"/>
    </g>
  </g>
</svg>