<?xml version="1.0" encoding="UTF-8"?>
<svg id="Layer_1" data-name="Layer 1" xmlns="http://www.w3.org/2000/svg" version="1.1" viewBox="0 0 67.2 67.2">
  <defs>
    <style>
      .cls-1, .cls-2 {
        fill: #237daf;
      }

      .cls-1, .cls-3 {
        stroke: #237daf;
        stroke-miterlimit: 10;
      }

      .cls-2, .cls-4 {
        stroke-width: 0px;
      }

      .cls-4 {
        display: none;
        fill: #237dae;
      }

      .cls-3 {
        fill: none;
        stroke-width: 2px;
      }
    </style>
  </defs>
  <circle class="cls-4" cx="33.6" cy="33.6" r="33.6"/>
  <path class="cls-2" d="M38.3,9.5c-.8.2-.8.3-.7,1.1.2,2.4,1.6,3.2,3.4,4.6.3.3.7.6,1.1.8.2.2.2.3,0,.5-.3.3-.6.7-.9,1.1-1.8-1.7-3.7-3.2-4.4-5.5-.2-1-.3-1.1-.2-2.2,0-.3,0-.5-.5-.6"/>
  <path class="cls-2" d="M42.6,32.7h-3c-.3,0-.4,0-.4-.4,0-1,0-1.1,1-1.1h5.4c.4,0,.6,0,.5.5,0,1.1,0,.9-.9.9h-2.6Z"/>
  <path class="cls-2" d="M39.4,29.2c0-.4.2-.8.4-1.2,0-.1.2-.2.4-.2h5c0,0,.3.1.3.2.2.4.3.8.4,1.2h-6.5Z"/>
  <path class="cls-2" d="M39.5,34.7h5.8q.5,0,.3.5c-.2.6-.6.9-1.3.9h-4c-.3,0-.5,0-.6-.4s-.2-.6-.3-1h0Z"/>
  <path class="cls-2" d="M44.8,25.8h-4.4c.3-.5.6-.9.9-1.3h2.2c.2,0,.5.2.6.3.2.3.4.7.7,1.1h0Z"/>
  <path class="cls-2" d="M40.8,38.2h3.8c-.2.7-.8,1.4-1.2,1.4-.6,0-1.3,0-1.8,0-.4-.2-.6-.8-.9-1.2h0c0,0,.1-.1.1-.1Z"/>
  <g>
    <line class="cls-3" x1="57.3" y1="21.8" x2="50.1" y2="24.9"/>
    <path class="cls-1" d="M57.1,18.3h0c2-.1,3.6,1.4,3.7,3.4h0c0,2-1.4,3.6-3.4,3.7h0c-2,.1-3.6-1.4-3.7-3.4h0c0-2,1.4-3.6,3.4-3.7Z"/>
  </g>
  <g>
    <line class="cls-3" x1="59.7" y1="35.4" x2="51.8" y2="34.8"/>
    <path class="cls-1" d="M61.3,32.3h0c1.8.9,2.5,3,1.6,4.8h0c-.9,1.8-3,2.5-4.8,1.6h0c-1.8-.9-2.5-3-1.6-4.8h0c.9-1.8,3-2.5,4.8-1.6Z"/>
  </g>
  <g>
    <line class="cls-3" x1="54.9" y1="48.4" x2="48.3" y2="43.8"/>
    <path class="cls-1" d="M57.9,46.4h0c1.1,1.7.6,3.9-1.1,4.9h0c-1.7,1.1-3.9.6-4.9-1.1h0c-1.1-1.7-.6-3.9,1.1-4.9h0c1.7-1.1,3.9-.6,4.9,1.1Z"/>
  </g>
  <g>
    <line class="cls-3" x1="17.8" y1="54.8" x2="22.2" y2="48.4"/>
    <path class="cls-1" d="M19.7,57.8h0c-1.7,1.1-3.9.6-4.9-1h0c-1.1-1.7-.6-3.9,1-4.9h0c1.7-1.1,3.9-.6,4.9,1h0c1.1,1.7.6,3.9-1,4.9Z"/>
  </g>
  <g>
    <line class="cls-3" x1="8.9" y1="44.3" x2="16.2" y2="40.8"/>
    <path class="cls-1" d="M9.1,47.8h0c-2,0-3.7-1.4-3.8-3.4h0c0-2,1.4-3.7,3.4-3.8h0c2,0,3.7,1.4,3.8,3.4h0c.1,2-1.4,3.7-3.4,3.8Z"/>
  </g>
  <g>
    <line class="cls-3" x1="6.5" y1="30.7" x2="14.8" y2="31"/>
    <path class="cls-1" d="M4.9,33.8h0c-1.8-.9-2.5-3-1.6-4.8h0c.9-1.8,3-2.5,4.8-1.6h0c1.8.9,2.5,3,1.6,4.8h0c-.9,1.8-3,2.5-4.8,1.6Z"/>
  </g>
  <g>
    <line class="cls-3" x1="11.3" y1="17.7" x2="17.9" y2="22.3"/>
    <path class="cls-1" d="M8.3,19.7h0c-1.1-1.7-.6-3.9,1-4.9h0c1.7-1.1,3.9-.6,4.9,1h0c1.1,1.7.6,3.9-1,4.9h0c-1.7,1.1-3.9.6-4.9-1Z"/>
  </g>
  <g>
    <line class="cls-3" x1="21.8" y1="8.8" x2="25.6" y2="16.8"/>
    <path class="cls-1" d="M18.3,9h0c-.1-2,1.4-3.7,3.4-3.8h0c2,0,3.7,1.4,3.8,3.4h0c.1,2-1.4,3.7-3.4,3.8h0c-2,.1-3.7-1.4-3.8-3.4Z"/>
  </g>
  <path class="cls-2" d="M33.2,6.2h0c.9-1.8,3-2.5,4.8-1.6h0c1.8.9,2.5,3,1.6,4.8h0c-.9,1.8-3,2.5-4.8,1.6h0c-1.8-.9-2.5-3-1.6-4.8Z"/>
  <path class="cls-2" d="M42.6,43.7s-.4-.5-1-1.2c-1-1.2-3.2-5.8-3.7-9.3-.5-3,0-6,1.6-8.6,1.5-2.4,3-4.9,4.5-7.3,1.2-1.9,4.1-4.2,5.3-6.2.2-.2.3-.3.6-.2l-1.8-2.1c.1.6.4,1.1.7,1.6h0c-1.6,2-5,4.4-6.5,6.5-1.1,1.4-2.1,2.8-3.1,4.2-1,1.4-1.9,2.7-2.6,4.2-1.5,3-1.4,6.3-.5,9.5,1,3.5,3.2,7.2,5.4,10l1.2-1.3h-.1Z"/>
  <g>
    <path class="cls-2" d="M41.3,45.6c0,.2-.2.3-.3.5-.7,1.1-5.4,3.2-8.1,6.1-.9,1-2.5,3.1-2.6,4.5,0,0,.4.3.2.4h1.3-.4v-.2l.3-.3c.3-1.2,1.2-2.6,2.1-3.7,2.6-3.1,6-4.5,7.1-5s1.4-.8,1.5-.9l.4-.4s.4-.5.5-.6,1-1.1,1.2-1.3.9-1.1.9-1.1c3.3-4.2,4.7-9,3.9-14.3-.6-3.8-2-7.1-4.4-10-.2-.3-.5-.6-.8-.9-.2.3-.4.6-.6.9-.5.8-.5.5,0,1.3,2.5,3.4,3.7,7.1,3.9,11.3,0,2.7-.4,5.2-1.7,7.5-.5,1-2,3.3-2.6,4.3l-.3.3"/>
    <path class="cls-2" d="M44.1,55.2c-.2,0,.7,0,.6-.4,0-.6.5-3.1.4-4.3-.2-1.5-.4-3.5-1.2-4.8l-.9.9c.8,1,.8,3.7.9,4.7,0,1.2-.5,2.9,0,4"/>
  </g>
  <g id="LqJFMI">
    <g>
      <path class="cls-2" d="M32,26.9c1.8.1,3.1,1.6,3,3.2,0,1.9-1.5,3.1-3.2,3.1s-3.2-1.6-3.1-3.3c0-1.8,1.6-3.1,3.3-3Z"/>
      <path class="cls-2" d="M30.8,37.2c0,.7-.3,1.4-.9,1.8-.6.6-1.4.8-2.2.7-.5,0-.9-.2-1.4-.5-.4-.3-.8-.6-1-1s-.4-.8-.5-1.2c-.2-1,.3-2.1,1.2-2.7.9-.5,1.8-.5,2.7,0,1,.4,1.6,1.2,1.8,2.2,0,.3,0,.6.1.8h.2Z"/>
      <path class="cls-2" d="M28.2,26c0,1.1-.5,1.9-1.2,2.6s-1.1.8-1.8.8-1.4-.2-1.8-.9c-.5-.8-.4-1.6-.1-2.4.2-.6.7-1.2,1.2-1.6.6-.4,1.2-.7,1.9-.6.9,0,1.6.7,1.8,1.6v.5Z"/>
      <path class="cls-2" d="M33.6,43.8c-.7,0-1.3-.2-1.8-.8-.4-.5-.6-1-.5-1.6.1-.7.5-1.2,1-1.6.9-.7,1.9-1,3-.8.6,0,1.1.4,1.4.9.3.5.4,1,.2,1.6-.2.7-.7,1.2-1.2,1.7-.6.4-1.3.7-2.1.7h0Z"/>
      <path class="cls-2" d="M32.1,19.3c.4,0,1.1.1,1.6.6.4.4.6,1,.4,1.5-.3.7-.8,1-1.5,1.3-.5.2-1,.3-1.5.3-.8,0-1.6-.1-2.2-.7s-.4-.7-.3-1.1c.1-.6.5-1,1-1.3.7-.4,1.4-.6,2.4-.6h.1Z"/>
      <path class="cls-2" d="M19.8,33.3c0-.8.2-1.5.6-2.1.6-.8,1.5-.8,2.1,0,.8.9.9,2,.7,3.2,0,.5-.3,1-.6,1.3-.5.7-1.4.7-2,0-.6-.6-.8-1.3-.9-2.1v-.4h0Z"/>
      <path class="cls-2" d="M26.8,44.9c-.4,0-.7,0-1-.3-.8-.3-1.4-.8-1.9-1.4-.3-.4-.5-.8-.6-1.2-.1-.8.4-1.2,1-1.2s1,.2,1.5.4c.6.3,1.2.7,1.6,1.3.2.3.5.7.5,1.1.1.7-.2,1.2-1,1.3h-.1Z"/>
      <path class="cls-2" d="M32.5,47.4c-.6,0-1.4-.2-2.1-.7-.2,0-.3-.3-.4-.5-.1-.3,0-.7.4-.9.5-.3,1-.4,1.5-.5.7,0,1.4,0,2,.2.3,0,.6.3.9.5.5.4.5,1,0,1.4-.6.3-1.3.4-2.2.4h0Z"/>
      <path class="cls-2" d="M23.1,22.9c0,.6-.2,1.1-.5,1.6s-.6.9-1,1.4c-.3.3-.6.6-1,.7-.2,0-.4.1-.5,0-.2-.1-.2-.3-.2-.5,0-.6.3-1.1.6-1.6.4-.6.8-1.2,1.4-1.7.2-.1.4-.2.6-.3.4-.1.6,0,.6.5h0Z"/>
      <path class="cls-2" d="M21.3,40.2v.4c0,.2-.2.2-.4.2-.3,0-.5-.3-.7-.5-.7-.9-1.2-1.9-1.3-3.1v-.7c0-.2.2-.3.4-.2.2.2.5.3.7.6.5.6.8,1.3,1.1,2,.1.4.2.8.3,1.2h-.1Z"/>
      <path class="cls-2" d="M27.8,18.4c.1,0,.4-.1.5-.1.2,0,.5,0,.6.2s0,.4-.2.6c-.6.6-1.3,1-2.1,1.3-.5.2-1,.3-1.4.4h-.3c-.3,0-.4-.1-.2-.5,0-.1,3-1.8,3.2-1.9"/>
      <path class="cls-2" d="M35,17.3c.6,0,1.1,0,1.1.1.4.1.5.2,1,.3h0c.2.3,0,.4-.3.5-.7.1-1.4.1-2.1,0-.6,0-1.1-.2-1.7-.4,0,0-.2,0-.3-.1,0,0-.2-.1-.2-.2s0-.3.3-.3h2.2Z"/>
      <path class="cls-2" d="M19,27.9c.1,0,.1.3.1.5,0,1.2-.2,2.4-.6,3.5,0,.1-.1.2-.2.3,0,0-.1,0-.2.2,0,0-.1,0-.1-.2v-.7c0-1,.2-2,.5-3,.2-.5.3-.5.5-.5"/>
      <path class="cls-2" d="M35.3,48.1h-.5s0,0,0-.2c.2,0,.3-.2.5-.3,1-.4,2-.6,3-.7h.8s0,0,0,.2c-.4.2-.9.4-1.3.5-.7.2-1.4.3-2.1.5h-.4Z"/>
      <path class="cls-2" d="M27.7,47.1c-.5,0-3.4-1.5-3.9-2.2h.4c1.2.5,2.3,1.1,3.3,1.9,0,0,.1,0,.2.2h0Z"/>
    </g>
  </g>
  <path class="cls-2" d="M47.5,7.3h0c1.7-1,3.9-.5,4.9,1.2h0c1,1.7.5,3.9-1.2,4.9h0c-1.7,1-3.9.5-4.9-1.2h0c-1-1.7-.5-3.9,1.2-4.9Z"/>
  <path class="cls-2" d="M33.9,61.2h0c-.9,1.8-3,2.5-4.8,1.6h0c-1.8-.9-2.5-3-1.6-4.8h0c.9-1.8,3-2.5,4.8-1.6h0c1.8.9,2.5,3,1.6,4.8Z"/>
  <path class="cls-2" d="M47.9,57h0c0,2-1.4,3.6-3.4,3.8h0c-2,0-3.6-1.4-3.8-3.4h0c0-2,1.4-3.6,3.4-3.8h0c2,0,3.6,1.4,3.8,3.4Z"/>
</svg>