<?xml version="1.0" encoding="us-ascii" standalone="no"?><svg xmlns="http://www.w3.org/2000/svg" xmlns:xlink="http://www.w3.org/1999/xlink" contentStyleType="text/css" height="341px" preserveAspectRatio="none" style="width:835px;height:341px;background:#FFFFFF;" version="1.1" viewBox="0 0 835 341" width="835px" zoomAndPan="magnify"><defs/><g><!--cluster SILO-LAPIS--><g id="cluster_SILO-LAPIS"><path d="M77,6 L163,6 A3.75,3.75 0 0 1 165.5,8.5 L172.5,28.2969 L437,28.2969 A2.5,2.5 0 0 1 439.5,30.7969 L439.5,100.5 A2.5,2.5 0 0 1 437,103 L77,103 A2.5,2.5 0 0 1 74.5,100.5 L74.5,8.5 A2.5,2.5 0 0 1 77,6 " fill="none" style="stroke:#000000;stroke-width:1.5;"/><line style="stroke:#000000;stroke-width:1.5;" x1="74.5" x2="172.5" y1="28.2969" y2="28.2969"/><text fill="#000000" font-family="sans-serif" font-size="14" font-weight="bold" lengthAdjust="spacing" textLength="85" x="78.5" y="20.9951">SILO-LAPIS</text></g><!--entity SILO--><g id="elem_SILO"><rect fill="#F1F1F1" height="46.2969" rx="2.5" ry="2.5" style="stroke:#181818;stroke-width:0.5;" width="70" x="353.5" y="41"/><rect fill="#F1F1F1" height="10" style="stroke:#181818;stroke-width:0.5;" width="15" x="403.5" y="46"/><rect fill="#F1F1F1" height="2" style="stroke:#181818;stroke-width:0.5;" width="4" x="401.5" y="48"/><rect fill="#F1F1F1" height="2" style="stroke:#181818;stroke-width:0.5;" width="4" x="401.5" y="52"/><text fill="#000000" font-family="sans-serif" font-size="14" lengthAdjust="spacing" textLength="30" x="368.5" y="73.9951">SILO</text></g><!--entity LAPIS--><g id="elem_LAPIS"><rect fill="#F1F1F1" height="46.2969" rx="2.5" ry="2.5" style="stroke:#181818;stroke-width:0.5;" width="77" x="91" y="41"/><rect fill="#F1F1F1" height="10" style="stroke:#181818;stroke-width:0.5;" width="15" x="148" y="46"/><rect fill="#F1F1F1" height="2" style="stroke:#181818;stroke-width:0.5;" width="4" x="146" y="48"/><rect fill="#F1F1F1" height="2" style="stroke:#181818;stroke-width:0.5;" width="4" x="146" y="52"/><text fill="#000000" font-family="sans-serif" font-size="14" lengthAdjust="spacing" textLength="37" x="106" y="73.9951">LAPIS</text></g><!--entity Website--><g id="elem_Website"><rect fill="#F1F1F1" height="46.2969" rx="2.5" ry="2.5" style="stroke:#181818;stroke-width:0.5;" width="153" x="7" y="166"/><rect fill="#F1F1F1" height="10" style="stroke:#181818;stroke-width:0.5;" width="15" x="140" y="171"/><rect fill="#F1F1F1" height="2" style="stroke:#181818;stroke-width:0.5;" width="4" x="138" y="173"/><rect fill="#F1F1F1" height="2" style="stroke:#181818;stroke-width:0.5;" width="4" x="138" y="177"/><text fill="#000000" font-family="sans-serif" font-size="14" lengthAdjust="spacing" textLength="113" x="22" y="198.9951">Loculus Website</text></g><!--entity Backend--><g id="elem_Backend"><rect fill="#F1F1F1" height="46.2969" rx="2.5" ry="2.5" style="stroke:#181818;stroke-width:0.5;" width="158" x="338.5" y="166"/><rect fill="#F1F1F1" height="10" style="stroke:#181818;stroke-width:0.5;" width="15" x="476.5" y="171"/><rect fill="#F1F1F1" height="2" style="stroke:#181818;stroke-width:0.5;" width="4" x="474.5" y="173"/><rect fill="#F1F1F1" height="2" style="stroke:#181818;stroke-width:0.5;" width="4" x="474.5" y="177"/><text fill="#000000" font-family="sans-serif" font-size="14" lengthAdjust="spacing" textLength="118" x="353.5" y="198.9951">Loculus Backend</text></g><!--entity Postgres--><g id="elem_Postgres"><rect fill="#F1F1F1" height="46.2969" rx="2.5" ry="2.5" style="stroke:#181818;stroke-width:0.5;" width="127" x="690" y="166"/><rect fill="#F1F1F1" height="10" style="stroke:#181818;stroke-width:0.5;" width="15" x="797" y="171"/><rect fill="#F1F1F1" height="2" style="stroke:#181818;stroke-width:0.5;" width="4" x="795" y="173"/><rect fill="#F1F1F1" height="2" style="stroke:#181818;stroke-width:0.5;" width="4" x="795" y="177"/><text fill="#000000" font-family="sans-serif" font-size="14" lengthAdjust="spacing" textLength="87" x="705" y="198.9951">Postgres DB</text></g><!--entity pipeline--><g id="elem_pipeline"><rect fill="#F1F1F1" height="46.2969" rx="2.5" ry="2.5" style="stroke:#181818;stroke-width:0.5;" width="198" x="372.5" y="289"/><rect fill="#F1F1F1" height="10" style="stroke:#181818;stroke-width:0.5;" width="15" x="550.5" y="294"/><rect fill="#F1F1F1" height="2" style="stroke:#181818;stroke-width:0.5;" width="4" x="548.5" y="296"/><rect fill="#F1F1F1" height="2" style="stroke:#181818;stroke-width:0.5;" width="4" x="548.5" y="300"/><text fill="#000000" font-family="sans-serif" font-size="14" lengthAdjust="spacing" textLength="158" x="387.5" y="321.9951">Preprocessing Pipeline</text></g><!--entity Keycloak--><g id="elem_Keycloak"><rect fill="#F1F1F1" height="46.2969" rx="2.5" ry="2.5" style="stroke:#181818;stroke-width:0.5;" width="101" x="154" y="289"/><rect fill="#F1F1F1" height="10" style="stroke:#181818;stroke-width:0.5;" width="15" x="235" y="294"/><rect fill="#F1F1F1" height="2" style="stroke:#181818;stroke-width:0.5;" width="4" x="233" y="296"/><rect fill="#F1F1F1" height="2" style="stroke:#181818;stroke-width:0.5;" width="4" x="233" y="300"/><text fill="#000000" font-family="sans-serif" font-size="14" lengthAdjust="spacing" textLength="61" x="169" y="321.9951">Keycloak</text></g><!--link Website to Keycloak--><g id="link_Website_Keycloak"><path d="M72.39,212.28 C66.9,226.74 63.22,245.36 72.5,259 C90.66,285.67 118.9379,297.3809 147.9479,303.7109 " fill="none" id="Website-to-Keycloak" style="stroke:#181818;stroke-width:1.0;"/><polygon fill="#181818" points="153.81,304.99,145.8696,299.1633,148.9249,303.9241,144.1642,306.9794,153.81,304.99" style="stroke:#181818;stroke-width:1.0;"/><text fill="#000000" font-family="sans-serif" font-size="13" lengthAdjust="spacing" textLength="133" x="73.5" y="255.0669">check authentication</text></g><!--link Backend to Keycloak--><g id="link_Backend_Keycloak"><path d="M338.22,212.02 C316.67,219.79 293.93,229.72 274.5,242 C254.45,254.67 239.4827,269.406 226.3827,284.366 " fill="none" id="Backend-to-Keycloak" style="stroke:#181818;stroke-width:1.0;"/><polygon fill="#181818" points="222.43,288.88,231.3684,284.7442,225.7239,285.1184,225.3498,279.4739,222.43,288.88" style="stroke:#181818;stroke-width:1.0;"/><text fill="#000000" font-family="sans-serif" font-size="13" lengthAdjust="spacing" textLength="133" x="275.5" y="255.0669">check authentication</text></g><!--link Website to Backend--><g id="link_Website_Backend"><path d="M160.13,189 C213.47,189 278.43,189 332.33,189 " fill="none" id="Website-to-Backend" style="stroke:#181818;stroke-width:1.0;"/><polygon fill="#181818" points="338.33,189,329.33,185,333.33,189,329.33,193,338.33,189" style="stroke:#181818;stroke-width:1.0;"/><text fill="#000000" font-family="sans-serif" font-size="13" lengthAdjust="spacing" textLength="142" x="178.25" y="182.0669">upload sequence data</text></g><!--link Backend to pipeline--><g id="link_Backend_pipeline"><path d="M415.41,212.04 C414.96,226.05 416.03,244.27 422.5,259 C427.39,270.13 431.4698,276.1249 439.8798,284.5049 " fill="none" id="Backend-to-pipeline" style="stroke:#181818;stroke-width:1.0;"/><polygon fill="#181818" points="444.13,288.74,440.578,279.5539,440.5882,285.2108,434.9313,285.2209,444.13,288.74" style="stroke:#181818;stroke-width:1.0;"/><text fill="#000000" font-family="sans-serif" font-size="13" lengthAdjust="spacing" textLength="175" x="423.5" y="255.0669">fetch new sequence entries</text></g><!--reverse link Backend to pipeline--><g id="link_Backend_pipeline"><path d="M502.6171,203.5286 C546.9771,212.2586 590.12,224.37 603.5,242 C620.22,264.04 599.91,279.71 570.59,290.49 " fill="none" id="Backend-backto-pipeline" style="stroke:#181818;stroke-width:1.0;"/><polygon fill="#181818" points="496.73,202.37,504.7882,208.0326,501.6359,203.3355,506.333,200.1831,496.73,202.37" style="stroke:#181818;stroke-width:1.0;"/><text fill="#000000" font-family="sans-serif" font-size="13" lengthAdjust="spacing" textLength="217" x="610.5" y="255.0669">submit enriched sequence entries</text></g><!--link Backend to Postgres--><g id="link_Backend_Postgres"><path d="M502.7,189 C561.68,189 629.16,189 683.99,189 " fill="none" id="Backend-Postgres" style="stroke:#181818;stroke-width:1.0;"/><polygon fill="#181818" points="496.7,189,505.7,193,501.7,189,505.7,185,496.7,189" style="stroke:#181818;stroke-width:1.0;"/><polygon fill="#181818" points="689.99,189,680.99,185,684.99,189,680.99,193,689.99,189" style="stroke:#181818;stroke-width:1.0;"/><text fill="#000000" font-family="sans-serif" font-size="13" lengthAdjust="spacing" textLength="157" x="514.75" y="182.0669">persist sequence entries</text></g><!--reverse link SILO to Backend--><g id="link_SILO_Backend"><path d="M395.1274,93.1097 C400.3874,115.4097 407.05,143.66 412.29,165.89 " fill="none" id="SILO-backto-Backend" style="stroke:#181818;stroke-width:1.0;"/><polygon fill="#181818" points="393.75,87.27,391.923,96.9479,394.8979,92.1365,399.7093,95.1113,393.75,87.27" style="stroke:#181818;stroke-width:1.0;"/><text fill="#000000" font-family="sans-serif" font-size="13" lengthAdjust="spacing" textLength="161" x="405.5" y="132.0669">provide sequence entries</text></g><!--link LAPIS to Website--><g id="link_LAPIS_Website"><path d="M121.17,87.27 C112.83,109.57 102.1809,138.0398 93.8709,160.2698 " fill="none" id="LAPIS-to-Website" style="stroke:#181818;stroke-width:1.0;"/><polygon fill="#181818" points="91.77,165.89,98.6682,158.8604,93.5208,161.2065,91.1746,156.0592,91.77,165.89" style="stroke:#181818;stroke-width:1.0;"/><text fill="#000000" font-family="sans-serif" font-size="13" lengthAdjust="spacing" textLength="149" x="110.5" y="132.0669">sequence query results</text></g><!--reverse link LAPIS to SILO--><g id="link_LAPIS_SILO"><path d="M174.27,64 C224.37,64 304.87,64 353.21,64 " fill="none" id="LAPIS-backto-SILO" style="stroke:#181818;stroke-width:1.0;"/><polygon fill="#181818" points="168.27,64,177.27,68,173.27,64,177.27,60,168.27,64" style="stroke:#181818;stroke-width:1.0;"/><text fill="#000000" font-family="sans-serif" font-size="13" lengthAdjust="spacing" textLength="149" x="186.25" y="57.0669">sequence query results</text></g><!--SRC=[ZP9DRiCW48Ntd6AKlIzWHP4QTHFLKYDbqJM1IJoo0vIVLb7LktT2ZEqqRLLlWE5xmtkOW-qrUjXjckUgUTXkTl0XW3zbJyuQD35lVIjbK7mACPKMZLMfJm5US1yeuWBaEFy9MqlLeT4P6-PpR6j3F7eCyBZEI5dVC1wTjmf387E4BJdioLmFTiDYxl09pwgtiXDYi0LLjHghK8DgKNKWKsmP9oKZMIC6R_zYfyQhaedHv5YZ8U1hGgCGj8pofcqno-m1esh1uFk4StzF7BmebgmORwS6XpvGY7_nrVo4aFOdYanvuWpwNYSk_pkhfWXypM-ayHw-lfXBY1AzdY0U_1dOPkfZGPTLVa-_Ory0]--></g></svg>