<svg xmlns="http://www.w3.org/2000/svg" xmlns:xlink="http://www.w3.org/1999/xlink" contentStyleType="text/css" data-diagram-type="DESCRIPTION" height="699px" preserveAspectRatio="none" style="width:884px;height:699px;background:#FFFFFF;" version="1.1" viewBox="0 0 884 699" width="884px" zoomAndPan="magnify"><defs/><g><!--cluster SILO-LAPIS--><g class="cluster" data-entity="SILO-LAPIS" data-source-line="13" data-uid="ent0009" id="cluster_SILO-LAPIS"><rect fill="none" height="220.98" rx="2.5" ry="2.5" style="stroke:#181818;stroke-width:1;" width="214" x="151.54" y="116.49"/><path d="M242.4638,116.49 L242.4638,125.9783 L232.4638,135.9783 L151.54,135.9783" fill="none" style="stroke:#181818;stroke-width:1;"/><text fill="#000000" font-family="sans-serif" font-size="14" font-weight="bold" lengthAdjust="spacing" textLength="80.9238" x="154.54" y="131.0252">SILO-LAPIS</text></g><!--entity SILO--><g class="entity" data-entity="SILO" data-source-line="14" data-uid="ent0010" id="entity_SILO"><rect fill="#F1F1F1" height="46.4883" rx="2.5" ry="2.5" style="stroke:#181818;stroke-width:0.5;" width="69.9141" x="175.58" y="274.98"/><rect fill="#F1F1F1" height="10" style="stroke:#181818;stroke-width:0.5;" width="15" x="225.4941" y="279.98"/><rect fill="#F1F1F1" height="2" style="stroke:#181818;stroke-width:0.5;" width="4" x="223.4941" y="281.98"/><rect fill="#F1F1F1" height="2" style="stroke:#181818;stroke-width:0.5;" width="4" x="223.4941" y="285.98"/><text fill="#000000" font-family="sans-serif" font-size="14" lengthAdjust="spacing" textLength="29.9141" x="190.58" y="308.5152">SILO</text></g><!--entity LAPIS--><g class="entity" data-entity="LAPIS" data-source-line="15" data-uid="ent0011" id="entity_LAPIS"><rect fill="#F1F1F1" height="46.4883" rx="2.5" ry="2.5" style="stroke:#181818;stroke-width:0.5;" width="76.4355" x="178.32" y="151.49"/><rect fill="#F1F1F1" height="10" style="stroke:#181818;stroke-width:0.5;" width="15" x="234.7555" y="156.49"/><rect fill="#F1F1F1" height="2" style="stroke:#181818;stroke-width:0.5;" width="4" x="232.7555" y="158.49"/><rect fill="#F1F1F1" height="2" style="stroke:#181818;stroke-width:0.5;" width="4" x="232.7555" y="162.49"/><text fill="#000000" font-family="sans-serif" font-size="14" lengthAdjust="spacing" textLength="36.4355" x="193.32" y="185.0252">LAPIS</text></g><!--entity Website--><g class="entity" data-entity="Website" data-source-line="2" data-uid="ent0002" id="entity_Website"><rect fill="#F1F1F1" height="46.4883" rx="2.5" ry="2.5" style="stroke:#181818;stroke-width:0.5;" width="149.0332" x="465.02" y="7"/><rect fill="#F1F1F1" height="10" style="stroke:#181818;stroke-width:0.5;" width="15" x="594.0532" y="12"/><rect fill="#F1F1F1" height="2" style="stroke:#181818;stroke-width:0.5;" width="4" x="592.0532" y="14"/><rect fill="#F1F1F1" height="2" style="stroke:#181818;stroke-width:0.5;" width="4" x="592.0532" y="18"/><text fill="#000000" font-family="sans-serif" font-size="14" lengthAdjust="spacing" textLength="109.0332" x="480.02" y="40.5352">Loculus Website</text></g><!--entity Ingest--><g class="entity" data-entity="Ingest" data-source-line="3" data-uid="ent0003" id="entity_Ingest"><rect fill="#F1F1F1" height="46.4883" rx="2.5" ry="2.5" style="stroke:#181818;stroke-width:0.5;" width="139.0322" x="470.02" y="274.98"/><rect fill="#F1F1F1" height="10" style="stroke:#181818;stroke-width:0.5;" width="15" x="589.0522" y="279.98"/><rect fill="#F1F1F1" height="2" style="stroke:#181818;stroke-width:0.5;" width="4" x="587.0522" y="281.98"/><rect fill="#F1F1F1" height="2" style="stroke:#181818;stroke-width:0.5;" width="4" x="587.0522" y="285.98"/><text fill="#000000" font-family="sans-serif" font-size="14" lengthAdjust="spacing" textLength="99.0322" x="485.02" y="308.5152">Ingest Pipeline</text></g><!--entity Backend--><g class="entity" data-entity="Backend" data-source-line="4" data-uid="ent0004" id="entity_Backend"><rect fill="#F1F1F1" height="46.4883" rx="2.5" ry="2.5" style="stroke:#181818;stroke-width:0.5;" width="152.6631" x="341.21" y="400.47"/><rect fill="#F1F1F1" height="10" style="stroke:#181818;stroke-width:0.5;" width="15" x="473.8731" y="405.47"/><rect fill="#F1F1F1" height="2" style="stroke:#181818;stroke-width:0.5;" width="4" x="471.8731" y="407.47"/><rect fill="#F1F1F1" height="2" style="stroke:#181818;stroke-width:0.5;" width="4" x="471.8731" y="411.47"/><text fill="#000000" font-family="sans-serif" font-size="14" lengthAdjust="spacing" textLength="112.6631" x="356.21" y="434.0052">Loculus Backend</text></g><!--entity Postgres--><g class="entity" data-entity="Postgres" data-source-line="6" data-uid="ent0005" id="entity_Postgres"><rect fill="#F1F1F1" height="46.4883" rx="2.5" ry="2.5" style="stroke:#181818;stroke-width:0.5;" width="121.0742" x="7" y="523.95"/><rect fill="#F1F1F1" height="10" style="stroke:#181818;stroke-width:0.5;" width="15" x="108.0742" y="528.95"/><rect fill="#F1F1F1" height="2" style="stroke:#181818;stroke-width:0.5;" width="4" x="106.0742" y="530.95"/><rect fill="#F1F1F1" height="2" style="stroke:#181818;stroke-width:0.5;" width="4" x="106.0742" y="534.95"/><text fill="#000000" font-family="sans-serif" font-size="14" lengthAdjust="spacing" textLength="81.0742" x="22" y="557.4852">Postgres DB</text></g><!--entity S3--><g class="entity" data-entity="S3" data-source-line="7" data-uid="ent0006" id="entity_S3"><rect fill="#F1F1F1" height="46.4883" rx="2.5" ry="2.5" style="stroke:#181818;stroke-width:0.5;" width="56.3926" x="737.34" y="523.95"/><rect fill="#F1F1F1" height="10" style="stroke:#181818;stroke-width:0.5;" width="15" x="773.7326" y="528.95"/><rect fill="#F1F1F1" height="2" style="stroke:#181818;stroke-width:0.5;" width="4" x="771.7326" y="530.95"/><rect fill="#F1F1F1" height="2" style="stroke:#181818;stroke-width:0.5;" width="4" x="771.7326" y="534.95"/><text fill="#000000" font-family="sans-serif" font-size="14" lengthAdjust="spacing" textLength="16.3926" x="752.34" y="557.4852">S3</text></g><!--entity Preprocessing--><g class="entity" data-entity="Preprocessing" data-source-line="9" data-uid="ent0007" id="entity_Preprocessing"><rect fill="#F1F1F1" height="46.4883" rx="2.5" ry="2.5" style="stroke:#181818;stroke-width:0.5;" width="192.5234" x="392.28" y="647.44"/><rect fill="#F1F1F1" height="10" style="stroke:#181818;stroke-width:0.5;" width="15" x="564.8034" y="652.44"/><rect fill="#F1F1F1" height="2" style="stroke:#181818;stroke-width:0.5;" width="4" x="562.8034" y="654.44"/><rect fill="#F1F1F1" height="2" style="stroke:#181818;stroke-width:0.5;" width="4" x="562.8034" y="658.44"/><text fill="#000000" font-family="sans-serif" font-size="14" lengthAdjust="spacing" textLength="152.5234" x="407.28" y="680.9752">Preprocessing Pipeline</text></g><!--entity Keycloak--><g class="entity" data-entity="Keycloak" data-source-line="11" data-uid="ent0008" id="entity_Keycloak"><rect fill="#F1F1F1" height="46.4883" rx="2.5" ry="2.5" style="stroke:#181818;stroke-width:0.5;" width="99.9854" x="610.54" y="400.47"/><rect fill="#F1F1F1" height="10" style="stroke:#181818;stroke-width:0.5;" width="15" x="690.5254" y="405.47"/><rect fill="#F1F1F1" height="2" style="stroke:#181818;stroke-width:0.5;" width="4" x="688.5254" y="407.47"/><rect fill="#F1F1F1" height="2" style="stroke:#181818;stroke-width:0.5;" width="4" x="688.5254" y="411.47"/><text fill="#000000" font-family="sans-serif" font-size="14" lengthAdjust="spacing" textLength="59.9854" x="625.54" y="434.0052">Keycloak</text></g><!--link Website to Keycloak--><g class="link" data-entity-1="Website" data-entity-2="Keycloak" data-source-line="18" data-uid="lnk12" id="link_Website_Keycloak"><path d="M548.59,53.8 C565.49,96.48 602.32,192.18 626.54,274.98 C639.32,318.68 649.1787,364.8954 654.9887,394.0854" fill="none" id="Website-to-Keycloak" style="stroke:#181818;stroke-width:1;"/><polygon fill="#181818" points="656.16,399.97,658.3261,390.3623,655.1839,395.0662,650.4801,391.924,656.16,399.97" style="stroke:#181818;stroke-width:1;"/><text fill="#000000" font-family="sans-serif" font-size="13" lengthAdjust="spacing" textLength="78.0508" x="618.08" y="241.5484">authenticate</text></g><!--link Backend to Keycloak--><g class="link" data-entity-1="Backend" data-entity-2="Keycloak" data-source-line="19" data-uid="lnk13" id="link_Backend_Keycloak"><path d="M494.09,423.71 C531.93,423.71 570.54,423.71 604.05,423.71" fill="none" id="Backend-to-Keycloak" style="stroke:#181818;stroke-width:1;"/><polygon fill="#181818" points="610.05,423.71,601.05,419.71,605.05,423.71,601.05,427.71,610.05,423.71" style="stroke:#181818;stroke-width:1;"/><text fill="#000000" font-family="sans-serif" font-size="13" lengthAdjust="spacing" textLength="78.0508" x="513.21" y="417.2784">authenticate</text></g><!--link Website to Backend--><g class="link" data-entity-1="Website" data-entity-2="Backend" data-source-line="21" data-uid="lnk14" id="link_Website_Backend"><path d="M529.9,53.96 C514.72,90.28 484.87,163.87 464.54,227.98 C458.02,248.53 457.69,254.04 452.54,274.98 C441.64,319.25 430.8483,365.3058 424.1083,394.3058" fill="none" id="Website-to-Backend" style="stroke:#181818;stroke-width:1;"/><polygon fill="#181818" points="422.75,400.15,428.6836,392.2892,423.8819,395.2798,420.8913,390.4781,422.75,400.15" style="stroke:#181818;stroke-width:1;"/><text fill="#000000" font-family="sans-serif" font-size="13" lengthAdjust="spacing" textLength="138.3154" x="465.54" y="241.5484">upload sequence data</text></g><!--link Backend to Postgres--><g class="link" data-entity-1="Backend" data-entity-2="Postgres" data-source-line="22" data-uid="lnk15" id="link_Backend_Postgres"><path d="M334.9213,424.9672 C242.0213,426.9372 99.5,436.44 64.54,476.95 C53.69,489.53 53.9019,502.8526 57.7919,517.8326" fill="none" id="Backend-Postgres" style="stroke:#181818;stroke-width:1;"/><polygon fill="#181818" points="340.92,424.84,331.8372,421.0317,335.9211,424.946,332.0068,429.0299,340.92,424.84" style="stroke:#181818;stroke-width:1;"/><polygon fill="#181818" points="59.3,523.64,60.9095,513.9235,58.0433,518.8005,53.1663,515.9343,59.3,523.64" style="stroke:#181818;stroke-width:1;"/><text fill="#000000" font-family="sans-serif" font-size="13" lengthAdjust="spacing" textLength="153.2959" x="65.54" y="490.5184">persist sequence entries</text></g><!--link Backend to Preprocessing--><g class="link" data-entity-1="Backend" data-entity-2="Preprocessing" data-source-line="23" data-uid="lnk16" id="link_Backend_Preprocessing"><path d="M365,447.35 C311.45,473.81 240.47,520.41 272.54,570.44 C299.04,611.79 341.8664,634.3084 386.2264,648.5284" fill="none" id="Backend-to-Preprocessing" style="stroke:#181818;stroke-width:1;"/><polygon fill="#181818" points="391.94,650.36,384.5906,643.8036,387.1787,648.8337,382.1485,651.4218,391.94,650.36" style="stroke:#181818;stroke-width:1;"/><text fill="#000000" font-family="sans-serif" font-size="13" lengthAdjust="spacing" textLength="171.7295" x="273.54" y="552.2684">fetch new sequence entries</text></g><!--reverse link Backend to Preprocessing--><g class="link" data-entity-1="Backend" data-entity-2="Preprocessing" data-source-line="24" data-uid="lnk17" id="link_Backend_Preprocessing"><path d="M427.0091,452.7715 C433.6991,472.8215 441.7,497.39 449.54,523.95 C462.35,567.41 475.66,618.69 482.94,647.37" fill="none" id="Backend-backto-Preprocessing" style="stroke:#181818;stroke-width:1;"/><polygon fill="#181818" points="425.11,447.08,424.1643,456.8833,426.6926,451.8229,431.753,454.3513,425.11,447.08" style="stroke:#181818;stroke-width:1;"/><text fill="#000000" font-family="sans-serif" font-size="13" lengthAdjust="spacing" textLength="212.9639" x="463.11" y="552.2684">submit enriched sequence entries</text></g><!--link Ingest to Backend--><g class="link" data-entity-1="Ingest" data-entity-2="Backend" data-source-line="25" data-uid="lnk18" id="link_Ingest_Backend"><path d="M513.29,321.87 C502.59,331.38 490.24,342.72 479.54,353.47 C464.63,368.45 452.6712,381.6973 440.7112,395.4873" fill="none" id="Ingest-to-Backend" style="stroke:#181818;stroke-width:1;"/><polygon fill="#181818" points="436.78,400.02,445.6986,395.8417,440.056,396.2427,439.655,390.6001,436.78,400.02" style="stroke:#181818;stroke-width:1;"/><text fill="#000000" font-family="sans-serif" font-size="13" lengthAdjust="spacing" textLength="155.2446" x="480.54" y="367.0384">new Genbank sequences</text></g><!--reverse link SILO to Backend--><g class="link" data-entity-1="SILO" data-entity-2="Backend" data-source-line="27" data-uid="lnk19" id="link_SILO_Backend"><path d="M211.9038,327.6554 C213.5938,343.3154 217.72,357.66 230.54,370.47 C259.52,399.41 303.11,412.65 340.92,418.57" fill="none" id="SILO-backto-Backend" style="stroke:#181818;stroke-width:1;"/><polygon fill="#181818" points="211.26,321.69,208.2487,331.0672,211.7965,326.6611,216.2026,330.2089,211.26,321.69" style="stroke:#181818;stroke-width:1;"/><text fill="#000000" font-family="sans-serif" font-size="13" lengthAdjust="spacing" textLength="158.0757" x="231.54" y="367.0384">provide sequence entries</text></g><!--reverse link Website to LAPIS--><g class="link" data-entity-1="Website" data-entity-2="LAPIS" data-source-line="28" data-uid="lnk21" id="link_Website_LAPIS"><path d="M458.7282,36.077 C382.0082,42.067 275.5,55.04 243.54,83.49 C224.36,100.56 218.55,130.63 216.92,151.34" fill="none" id="Website-backto-LAPIS" style="stroke:#181818;stroke-width:1;"/><polygon fill="#181818" points="464.71,35.61,455.4259,32.3227,459.7252,35.9992,456.0487,40.2984,464.71,35.61" style="stroke:#181818;stroke-width:1;"/><text fill="#000000" font-family="sans-serif" font-size="13" lengthAdjust="spacing" textLength="145.666" x="244.54" y="97.0584">sequence query results</text></g><!--reverse link LAPIS to SILO--><g class="link" data-entity-1="LAPIS" data-entity-2="SILO" data-source-line="29" data-uid="lnk22" id="link_LAPIS_SILO"><path d="M215.1234,204.2927 C214.0434,226.1127 212.72,253 211.65,274.78" fill="none" id="LAPIS-backto-SILO" style="stroke:#181818;stroke-width:1;"/><polygon fill="#181818" points="215.42,198.3,210.98,207.0913,215.1728,203.2939,218.9702,207.4867,215.42,198.3" style="stroke:#181818;stroke-width:1;"/><text fill="#000000" font-family="sans-serif" font-size="13" lengthAdjust="spacing" textLength="145.666" x="214.9" y="241.5484">sequence query results</text></g><!--link Website to S3--><g class="link" data-entity-1="Website" data-entity-2="S3" data-source-line="31" data-uid="lnk23" id="link_Website_S3"><path d="M614.48,45.93 C680.26,63.7 765.54,100.79 765.54,173.73 C765.54,173.73 765.54,173.73 765.54,424.71 C765.54,459.3 765.54,493.43 765.54,517.81" fill="none" id="Website-to-S3" style="stroke:#181818;stroke-width:1;"/><polygon fill="#181818" points="765.54,523.81,769.54,514.81,765.54,518.81,761.54,514.81,765.54,523.81" style="stroke:#181818;stroke-width:1;"/><text fill="#000000" font-family="sans-serif" font-size="13" lengthAdjust="spacing" textLength="110.3223" x="766.54" y="303.2884">upload extra files</text></g><!--link Backend to S3--><g class="link" data-entity-1="Backend" data-entity-2="S3" data-source-line="32" data-uid="lnk24" id="link_Backend_S3"><path d="M488.39,447.44 C547.98,466.86 635.26,496.01 710.54,523.95 C719.23,527.18 723.0505,528.6335 731.5505,532.0835" fill="none" id="Backend-to-S3" style="stroke:#181818;stroke-width:1;"/><polygon fill="#181818" points="737.11,534.34,730.2751,527.2489,732.4771,532.4596,727.2664,534.6616,737.11,534.34" style="stroke:#181818;stroke-width:1;"/><text fill="#000000" font-family="sans-serif" font-size="13" lengthAdjust="spacing" textLength="109.0654" x="623.48" y="490.5184">Set files to public</text></g><!--link S3 to Preprocessing--><g class="link" data-entity-1="S3" data-entity-2="Preprocessing" data-source-line="33" data-uid="lnk25" id="link_S3_Preprocessing"><path d="M736.94,560.74 C690.56,581.08 603.7947,619.1299 545.7047,644.6099" fill="none" id="S3-to-Preprocessing" style="stroke:#181818;stroke-width:1;"/><polygon fill="#181818" points="540.21,647.02,550.0587,647.0679,544.7889,645.0116,546.8452,639.7417,540.21,647.02" style="stroke:#181818;stroke-width:1;"/><text fill="#000000" font-family="sans-serif" font-size="13" lengthAdjust="spacing" textLength="176.084" x="644.62" y="614.0084">Provide user submitted files</text></g><!--SRC=[VP9DQyCm38Rl_XMYzvnw2wMmCXXbXGLosDbnrCGqjJr_h2jZ_ttAbvCiTBd4jfvNibvPwAlH2fM7pKcBq0G7xrWuwN43FAwPcB2Zgj1voAJ1HgeUwy_cr9ZimCK5LTbHmvhDkKmxNrbqy7pec74_O_BjKc7HM2tGEQcgvJKMeRde5U-YqVp2sDdoAq9-FBqbfwVicCCt0_fcrIZqvwW3sGzZWnkG9FkO4bBWmTV4IS79gQ59IAoiQlyFE6KhzKqHE2fJ28O49JZy2AW4GiazZubt8n-jIy6WTPA64XLKnKfoCTwcvHV6fN16BsfGU7iisoN9IkP2SPMUK2j5ZULQF3oGTLjjgHTK1LUNg7ACjOvtbIQI2dxA4jUv-vabmL3YqRzqmkXdxq2UXCQFyE1NDzZ7x3IDFJsuE0ByyfR3MJPpBuV6MYn7tqV1Qp2XQAHW-JOY2-zIslPj1OTsyD6JWttwNm00]--></g></svg>