<?xml version="1.0" encoding="UTF-8" standalone="no"?><svg xmlns="http://www.w3.org/2000/svg" xmlns:xlink="http://www.w3.org/1999/xlink" contentScriptType="application/ecmascript" contentStyleType="text/css" height="1340px" preserveAspectRatio="none" style="width:1196px;height:1340px;" version="1.1" viewBox="0 0 1196 1340" width="1196px" zoomAndPan="magnify"><defs><filter height="300%" id="fz1r6075mye9t" width="300%" x="-1" y="-1"><feGaussianBlur result="blurOut" stdDeviation="2.0"/><feColorMatrix in="blurOut" result="blurOut2" type="matrix" values="0 0 0 0 0 0 0 0 0 0 0 0 0 0 0 0 0 0 .4 0"/><feOffset dx="4.0" dy="4.0" in="blurOut2" result="blurOut3"/><feBlend in="SourceGraphic" in2="blurOut3" mode="normal"/></filter></defs><g><rect fill="#FFFFFF" filter="url(#fz1r6075mye9t)" height="177.6016" style="stroke: #000000; stroke-width: 2.0;" width="1162" x="13" y="132.4297"/><rect fill="#FFFFFF" height="43.9375" style="stroke: none; stroke-width: 1.0;" width="1162" x="13" y="266.0938"/><rect fill="#FFFFFF" filter="url(#fz1r6075mye9t)" height="618.7891" style="stroke: #000000; stroke-width: 2.0;" width="1172" x="13" y="324.0313"/><rect fill="#FFFFFF" filter="url(#fz1r6075mye9t)" height="75.3984" style="stroke: #000000; stroke-width: 2.0;" width="436.5" x="360.5" y="522.9609"/><rect fill="#FFFFFF" filter="url(#fz1r6075mye9t)" height="135.6641" style="stroke: #000000; stroke-width: 2.0;" width="566" x="609" y="612.3594"/><rect fill="#FFFFFF" height="60.2656" style="stroke: none; stroke-width: 1.0;" width="566" x="609" y="687.7578"/><rect fill="#FFFFFF" filter="url(#fz1r6075mye9t)" height="104.5313" style="stroke: #000000; stroke-width: 2.0;" width="1162" x="13" y="1131.6172"/><line style="stroke: #A80036; stroke-width: 1.0; stroke-dasharray: 5.0,5.0;" x1="41" x2="41" y1="86.2969" y2="1253.1484"/><line style="stroke: #A80036; stroke-width: 1.0; stroke-dasharray: 5.0,5.0;" x1="275.5" x2="275.5" y1="86.2969" y2="1253.1484"/><line style="stroke: #A80036; stroke-width: 1.0; stroke-dasharray: 5.0,5.0;" x1="465.5" x2="465.5" y1="86.2969" y2="1253.1484"/><line style="stroke: #A80036; stroke-width: 1.0; stroke-dasharray: 5.0,5.0;" x1="703" x2="703" y1="86.2969" y2="1253.1484"/><line style="stroke: #A80036; stroke-width: 1.0; stroke-dasharray: 5.0,5.0;" x1="1129" x2="1129" y1="86.2969" y2="1253.1484"/><text fill="#000000" font-family="sans-serif" font-size="14" lengthAdjust="spacingAndGlyphs" textLength="31" x="23" y="82.9951">user</text><ellipse cx="41.5" cy="13" fill="#FEFECE" filter="url(#fz1r6075mye9t)" rx="8" ry="8" style="stroke: #A80036; stroke-width: 2.0;"/><path d="M41.5,21 L41.5,48 M28.5,29 L54.5,29 M41.5,48 L28.5,63 M41.5,48 L54.5,63 " fill="none" filter="url(#fz1r6075mye9t)" style="stroke: #A80036; stroke-width: 2.0;"/><text fill="#000000" font-family="sans-serif" font-size="14" lengthAdjust="spacingAndGlyphs" textLength="31" x="23" y="1265.1436">user</text><ellipse cx="41.5" cy="1278.4453" fill="#FEFECE" filter="url(#fz1r6075mye9t)" rx="8" ry="8" style="stroke: #A80036; stroke-width: 2.0;"/><path d="M41.5,1286.4453 L41.5,1313.4453 M28.5,1294.4453 L54.5,1294.4453 M41.5,1313.4453 L28.5,1328.4453 M41.5,1313.4453 L54.5,1328.4453 " fill="none" filter="url(#fz1r6075mye9t)" style="stroke: #A80036; stroke-width: 2.0;"/><rect fill="#E0FFFF" filter="url(#fz1r6075mye9t)" height="30.2969" style="stroke: #A80036; stroke-width: 1.5;" width="166" x="190.5" y="51"/><text fill="#000000" font-family="sans-serif" font-size="14" lengthAdjust="spacingAndGlyphs" textLength="152" x="197.5" y="70.9951">Pathoplexus Frontend</text><rect fill="#E0FFFF" filter="url(#fz1r6075mye9t)" height="30.2969" style="stroke: #A80036; stroke-width: 1.5;" width="166" x="190.5" y="1252.1484"/><text fill="#000000" font-family="sans-serif" font-size="14" lengthAdjust="spacingAndGlyphs" textLength="152" x="197.5" y="1272.1436">Pathoplexus Frontend</text><rect fill="#90EE90" filter="url(#fz1r6075mye9t)" height="30.2969" style="stroke: #A80036; stroke-width: 1.5;" width="187" x="370.5" y="51"/><text fill="#000000" font-family="sans-serif" font-size="14" lengthAdjust="spacingAndGlyphs" textLength="173" x="377.5" y="70.9951">(Pre-)Processing Pipeline</text><rect fill="#90EE90" filter="url(#fz1r6075mye9t)" height="30.2969" style="stroke: #A80036; stroke-width: 1.5;" width="187" x="370.5" y="1252.1484"/><text fill="#000000" font-family="sans-serif" font-size="14" lengthAdjust="spacingAndGlyphs" textLength="173" x="377.5" y="1272.1436">(Pre-)Processing Pipeline</text><rect fill="#FFA500" filter="url(#fz1r6075mye9t)" height="30.2969" style="stroke: #A80036; stroke-width: 1.5;" width="164" x="619" y="51"/><text fill="#000000" font-family="sans-serif" font-size="14" lengthAdjust="spacingAndGlyphs" textLength="150" x="626" y="70.9951">Pathoplexus Backend</text><rect fill="#FFA500" filter="url(#fz1r6075mye9t)" height="30.2969" style="stroke: #A80036; stroke-width: 1.5;" width="164" x="619" y="1252.1484"/><text fill="#000000" font-family="sans-serif" font-size="14" lengthAdjust="spacingAndGlyphs" textLength="150" x="626" y="1272.1436">Pathoplexus Backend</text><text fill="#000000" font-family="sans-serif" font-size="14" lengthAdjust="spacingAndGlyphs" textLength="66" x="1093" y="82.9951">Database</text><path d="M1111,34 C1111,24 1129,24 1129,24 C1129,24 1147,24 1147,34 L1147,60 C1147,70 1129,70 1129,70 C1129,70 1111,70 1111,60 L1111,34 " fill="#FEFECE" filter="url(#fz1r6075mye9t)" style="stroke: #000000; stroke-width: 1.5;"/><path d="M1111,34 C1111,44 1129,44 1129,44 C1129,44 1147,44 1147,34 " fill="none" style="stroke: #000000; stroke-width: 1.5;"/><text fill="#000000" font-family="sans-serif" font-size="14" lengthAdjust="spacingAndGlyphs" textLength="66" x="1093" y="1265.1436">Database</text><path d="M1111,1278.4453 C1111,1268.4453 1129,1268.4453 1129,1268.4453 C1129,1268.4453 1147,1268.4453 1147,1278.4453 L1147,1304.4453 C1147,1314.4453 1129,1314.4453 1129,1314.4453 C1129,1314.4453 1111,1314.4453 1111,1304.4453 L1111,1278.4453 " fill="#FEFECE" filter="url(#fz1r6075mye9t)" style="stroke: #000000; stroke-width: 1.5;"/><path d="M1111,1278.4453 C1111,1288.4453 1129,1288.4453 1129,1288.4453 C1129,1288.4453 1147,1288.4453 1147,1278.4453 " fill="none" style="stroke: #000000; stroke-width: 1.5;"/><polygon fill="#A80036" points="263.5,113.4297,273.5,117.4297,263.5,121.4297,267.5,117.4297" style="stroke: #A80036; stroke-width: 1.0;"/><line style="stroke: #A80036; stroke-width: 1.0;" x1="41.5" x2="269.5" y1="117.4297" y2="117.4297"/><text fill="#000000" font-family="sans-serif" font-size="13" lengthAdjust="spacingAndGlyphs" textLength="182" x="48.5" y="112.3638">Submit initial sequence data</text><path d="M13,132.4297 L77,132.4297 L77,139.4297 L67,149.4297 L13,149.4297 L13,132.4297 " fill="#EEEEEE" style="stroke: #000000; stroke-width: 1.0;"/><rect fill="none" height="177.6016" style="stroke: #000000; stroke-width: 2.0;" width="1162" x="13" y="132.4297"/><text fill="#000000" font-family="sans-serif" font-size="13" font-weight="bold" lengthAdjust="spacingAndGlyphs" textLength="19" x="28" y="145.4966">alt</text><text fill="#000000" font-family="sans-serif" font-size="11" font-weight="bold" lengthAdjust="spacingAndGlyphs" textLength="261" x="92" y="144.6401">[Sequence and Metadata Files are valid]</text><polygon fill="#A80036" points="691,166.6953,701,170.6953,691,174.6953,695,170.6953" style="stroke: #A80036; stroke-width: 1.0;"/><line style="stroke: #A80036; stroke-width: 1.0;" x1="275.5" x2="697" y1="170.6953" y2="170.6953"/><text fill="#000000" font-family="sans-serif" font-size="13" lengthAdjust="spacingAndGlyphs" textLength="180" x="282.5" y="165.6294">submit initial sequence data</text><polygon fill="#A80036" points="52.5,195.8281,42.5,199.8281,52.5,203.8281,48.5,199.8281" style="stroke: #A80036; stroke-width: 1.0;"/><line style="stroke: #A80036; stroke-width: 1.0;" x1="46.5" x2="274.5" y1="199.8281" y2="199.8281"/><text fill="#000000" font-family="sans-serif" font-size="13" lengthAdjust="spacingAndGlyphs" textLength="172" x="58.5" y="194.7622">response with sequenceIds</text><polygon fill="#A80036" points="1117,224.9609,1127,228.9609,1117,232.9609,1121,228.9609" style="stroke: #A80036; stroke-width: 1.0;"/><line style="stroke: #A80036; stroke-width: 1.0;" x1="703" x2="1123" y1="228.9609" y2="228.9609"/><text fill="#000000" font-family="sans-serif" font-size="13" lengthAdjust="spacingAndGlyphs" textLength="171" x="710" y="223.895">Store initial sequence data</text><polygon fill="#A80036" points="1117,254.0938,1127,258.0938,1117,262.0938,1121,258.0938" style="stroke: #A80036; stroke-width: 1.0;"/><line style="stroke: #A80036; stroke-width: 1.0;" x1="703" x2="1123" y1="258.0938" y2="258.0938"/><text fill="#000000" font-family="sans-serif" font-size="13" lengthAdjust="spacingAndGlyphs" textLength="154" x="710" y="253.0278">set status to 'RECEIVED'</text><line style="stroke: #000000; stroke-width: 1.0; stroke-dasharray: 2.0,2.0;" x1="13" x2="1175" y1="267.0938" y2="267.0938"/><text fill="#000000" font-family="sans-serif" font-size="11" font-weight="bold" lengthAdjust="spacingAndGlyphs" textLength="273" x="18" y="277.3042">[Sequence and Metadata Files are invalid]</text><polygon fill="#A80036" points="52.5,298.0313,42.5,302.0313,52.5,306.0313,48.5,302.0313" style="stroke: #A80036; stroke-width: 1.0;"/><line style="stroke: #A80036; stroke-width: 1.0;" x1="46.5" x2="274.5" y1="302.0313" y2="302.0313"/><text fill="#000000" font-family="sans-serif" font-size="13" lengthAdjust="spacingAndGlyphs" textLength="123" x="58.5" y="296.9653">response with error</text><path d="M13,324.0313 L90,324.0313 L90,331.0313 L80,341.0313 L13,341.0313 L13,324.0313 " fill="#EEEEEE" style="stroke: #000000; stroke-width: 1.0;"/><rect fill="none" height="618.7891" style="stroke: #000000; stroke-width: 2.0;" width="1172" x="13" y="324.0313"/><text fill="#000000" font-family="sans-serif" font-size="13" font-weight="bold" lengthAdjust="spacingAndGlyphs" textLength="32" x="28" y="337.0981">loop</text><text fill="#000000" font-family="sans-serif" font-size="11" font-weight="bold" lengthAdjust="spacingAndGlyphs" textLength="175" x="105" y="336.2417">[until no processing errors]</text><polygon fill="#A80036" points="691,358.2969,701,362.2969,691,366.2969,695,362.2969" style="stroke: #A80036; stroke-width: 1.0;"/><line style="stroke: #A80036; stroke-width: 1.0;" x1="466" x2="697" y1="362.2969" y2="362.2969"/><text fill="#000000" font-family="sans-serif" font-size="13" lengthAdjust="spacingAndGlyphs" textLength="168" x="473" y="357.231">Query initial/reviewed data</text><polygon fill="#A80036" points="1117,387.4297,1127,391.4297,1117,395.4297,1121,391.4297" style="stroke: #A80036; stroke-width: 1.0;"/><line style="stroke: #A80036; stroke-width: 1.0;" x1="703" x2="1123" y1="391.4297" y2="391.4297"/><text fill="#000000" font-family="sans-serif" font-size="13" lengthAdjust="spacingAndGlyphs" textLength="168" x="710" y="386.3638">Query initial/reviewed data</text><polygon fill="#A80036" points="1117,416.5625,1127,420.5625,1117,424.5625,1121,420.5625" style="stroke: #A80036; stroke-width: 1.0;"/><line style="stroke: #A80036; stroke-width: 1.0;" x1="703" x2="1123" y1="420.5625" y2="420.5625"/><text fill="#000000" font-family="sans-serif" font-size="13" lengthAdjust="spacingAndGlyphs" textLength="402" x="710" y="415.4966">Set status from 'RECEIVED'/'REVIEW_NEEDED' to 'PROCESSING'</text><polygon fill="#A80036" points="714,445.6953,704,449.6953,714,453.6953,710,449.6953" style="stroke: #A80036; stroke-width: 1.0;"/><line style="stroke: #A80036; stroke-width: 1.0; stroke-dasharray: 2.0,2.0;" x1="708" x2="1128" y1="449.6953" y2="449.6953"/><text fill="#000000" font-family="sans-serif" font-size="13" lengthAdjust="spacingAndGlyphs" textLength="126" x="720" y="444.6294">initial/reviewed data</text><polygon fill="#A80036" points="477,474.8281,467,478.8281,477,482.8281,473,478.8281" style="stroke: #A80036; stroke-width: 1.0;"/><line style="stroke: #A80036; stroke-width: 1.0; stroke-dasharray: 2.0,2.0;" x1="471" x2="702" y1="478.8281" y2="478.8281"/><text fill="#000000" font-family="sans-serif" font-size="13" lengthAdjust="spacingAndGlyphs" textLength="126" x="483" y="473.7622">initial/reviewed data</text><polygon fill="#A80036" points="691,503.9609,701,507.9609,691,511.9609,695,507.9609" style="stroke: #A80036; stroke-width: 1.0;"/><line style="stroke: #A80036; stroke-width: 1.0;" x1="466" x2="697" y1="507.9609" y2="507.9609"/><text fill="#000000" font-family="sans-serif" font-size="13" lengthAdjust="spacingAndGlyphs" textLength="213" x="473" y="502.895">submit processed sequence data</text><path d="M360.5,522.9609 L437.5,522.9609 L437.5,529.9609 L427.5,539.9609 L360.5,539.9609 L360.5,522.9609 " fill="#EEEEEE" style="stroke: #000000; stroke-width: 1.0;"/><rect fill="none" height="75.3984" style="stroke: #000000; stroke-width: 2.0;" width="436.5" x="360.5" y="522.9609"/><text fill="#000000" font-family="sans-serif" font-size="13" font-weight="bold" lengthAdjust="spacingAndGlyphs" textLength="32" x="375.5" y="536.0278">loop</text><text fill="#000000" font-family="sans-serif" font-size="11" font-weight="bold" lengthAdjust="spacingAndGlyphs" textLength="169" x="452.5" y="535.1714">[until no validation errors]</text><polygon fill="#A80036" points="477,557.2266,467,561.2266,477,565.2266,473,561.2266" style="stroke: #A80036; stroke-width: 1.0;"/><line style="stroke: #A80036; stroke-width: 1.0;" x1="471" x2="702" y1="561.2266" y2="561.2266"/><text fill="#000000" font-family="sans-serif" font-size="13" lengthAdjust="spacingAndGlyphs" textLength="195" x="483" y="556.1606">response with validation errors</text><polygon fill="#A80036" points="691,586.3594,701,590.3594,691,594.3594,695,590.3594" style="stroke: #A80036; stroke-width: 1.0;"/><line style="stroke: #A80036; stroke-width: 1.0;" x1="466" x2="697" y1="590.3594" y2="590.3594"/><text fill="#000000" font-family="sans-serif" font-size="13" lengthAdjust="spacingAndGlyphs" textLength="213" x="473" y="585.2935">submit processed sequence data</text><path d="M609,612.3594 L673,612.3594 L673,619.3594 L663,629.3594 L609,629.3594 L609,612.3594 " fill="#EEEEEE" style="stroke: #000000; stroke-width: 1.0;"/><rect fill="none" height="135.6641" style="stroke: #000000; stroke-width: 2.0;" width="566" x="609" y="612.3594"/><text fill="#000000" font-family="sans-serif" font-size="13" font-weight="bold" lengthAdjust="spacingAndGlyphs" textLength="19" x="624" y="625.4263">alt</text><text fill="#000000" font-family="sans-serif" font-size="11" font-weight="bold" lengthAdjust="spacingAndGlyphs" textLength="277" x="688" y="624.5698">[processed data contain processing errors]</text><polygon fill="#A80036" points="1117,646.625,1127,650.625,1117,654.625,1121,650.625" style="stroke: #A80036; stroke-width: 1.0;"/><line style="stroke: #A80036; stroke-width: 1.0;" x1="703" x2="1123" y1="650.625" y2="650.625"/><text fill="#000000" font-family="sans-serif" font-size="13" lengthAdjust="spacingAndGlyphs" textLength="275" x="710" y="645.5591">Store processed sequence data with errors</text><polygon fill="#A80036" points="1117,675.7578,1127,679.7578,1117,683.7578,1121,679.7578" style="stroke: #A80036; stroke-width: 1.0;"/><line style="stroke: #A80036; stroke-width: 1.0;" x1="703" x2="1123" y1="679.7578" y2="679.7578"/><text fill="#000000" font-family="sans-serif" font-size="13" lengthAdjust="spacingAndGlyphs" textLength="199" x="710" y="674.6919">set status to 'REVIEW_NEEDED'</text><line style="stroke: #000000; stroke-width: 1.0; stroke-dasharray: 2.0,2.0;" x1="609" x2="1175" y1="688.7578" y2="688.7578"/><polygon fill="#A80036" points="1117,706.8906,1127,710.8906,1117,714.8906,1121,710.8906" style="stroke: #A80036; stroke-width: 1.0;"/><line style="stroke: #A80036; stroke-width: 1.0;" x1="703" x2="1123" y1="710.8906" y2="710.8906"/><text fill="#000000" font-family="sans-serif" font-size="13" lengthAdjust="spacingAndGlyphs" textLength="296" x="710" y="705.8247">Store processed sequence data without errors</text><polygon fill="#A80036" points="1117,736.0234,1127,740.0234,1117,744.0234,1121,740.0234" style="stroke: #A80036; stroke-width: 1.0;"/><line style="stroke: #A80036; stroke-width: 1.0;" x1="703" x2="1123" y1="740.0234" y2="740.0234"/><text fill="#000000" font-family="sans-serif" font-size="13" lengthAdjust="spacingAndGlyphs" textLength="170" x="710" y="734.9575">set status to 'PROCESSED'</text><polygon fill="#A80036" points="263.5,772.1563,273.5,776.1563,263.5,780.1563,267.5,776.1563" style="stroke: #A80036; stroke-width: 1.0;"/><line style="stroke: #A80036; stroke-width: 1.0;" x1="41.5" x2="269.5" y1="776.1563" y2="776.1563"/><text fill="#000000" font-family="sans-serif" font-size="13" lengthAdjust="spacingAndGlyphs" textLength="210" x="48.5" y="771.0903">query processed data with errors</text><line style="stroke: #A80036; stroke-width: 1.0;" x1="41.5" x2="83.5" y1="805.2891" y2="805.2891"/><line style="stroke: #A80036; stroke-width: 1.0;" x1="83.5" x2="83.5" y1="805.2891" y2="818.2891"/><line style="stroke: #A80036; stroke-width: 1.0;" x1="42.5" x2="83.5" y1="818.2891" y2="818.2891"/><polygon fill="#A80036" points="52.5,814.2891,42.5,818.2891,52.5,822.2891,48.5,818.2891" style="stroke: #A80036; stroke-width: 1.0;"/><text fill="#000000" font-family="sans-serif" font-size="13" lengthAdjust="spacingAndGlyphs" textLength="195" x="48.5" y="800.2231">address errors and adapt data</text><polygon fill="#A80036" points="263.5,843.4219,273.5,847.4219,263.5,851.4219,267.5,847.4219" style="stroke: #A80036; stroke-width: 1.0;"/><line style="stroke: #A80036; stroke-width: 1.0;" x1="41.5" x2="269.5" y1="847.4219" y2="847.4219"/><text fill="#000000" font-family="sans-serif" font-size="13" lengthAdjust="spacingAndGlyphs" textLength="134" x="48.5" y="842.356">submit adapted data</text><polygon fill="#A80036" points="691,872.5547,701,876.5547,691,880.5547,695,876.5547" style="stroke: #A80036; stroke-width: 1.0;"/><line style="stroke: #A80036; stroke-width: 1.0;" x1="275.5" x2="697" y1="876.5547" y2="876.5547"/><text fill="#000000" font-family="sans-serif" font-size="13" lengthAdjust="spacingAndGlyphs" textLength="134" x="282.5" y="871.4888">submit adapted data</text><polygon fill="#A80036" points="1117,901.6875,1127,905.6875,1117,909.6875,1121,905.6875" style="stroke: #A80036; stroke-width: 1.0;"/><line style="stroke: #A80036; stroke-width: 1.0;" x1="703" x2="1123" y1="905.6875" y2="905.6875"/><text fill="#000000" font-family="sans-serif" font-size="13" lengthAdjust="spacingAndGlyphs" textLength="123" x="710" y="900.6216">store adapted data</text><polygon fill="#A80036" points="1117,930.8203,1127,934.8203,1117,938.8203,1121,934.8203" style="stroke: #A80036; stroke-width: 1.0;"/><line style="stroke: #A80036; stroke-width: 1.0;" x1="703" x2="1123" y1="934.8203" y2="934.8203"/><text fill="#000000" font-family="sans-serif" font-size="13" lengthAdjust="spacingAndGlyphs" textLength="156" x="710" y="929.7544">set status to 'REVIEWED'</text><polygon fill="#A80036" points="263.5,966.9531,273.5,970.9531,263.5,974.9531,267.5,970.9531" style="stroke: #A80036; stroke-width: 1.0;"/><line style="stroke: #A80036; stroke-width: 1.0;" x1="41.5" x2="269.5" y1="970.9531" y2="970.9531"/><text fill="#000000" font-family="sans-serif" font-size="13" lengthAdjust="spacingAndGlyphs" textLength="141" x="48.5" y="965.8872">Query processed data</text><polygon fill="#A80036" points="691,996.0859,701,1000.0859,691,1004.0859,695,1000.0859" style="stroke: #A80036; stroke-width: 1.0;"/><line style="stroke: #A80036; stroke-width: 1.0;" x1="275.5" x2="697" y1="1000.0859" y2="1000.0859"/><text fill="#000000" font-family="sans-serif" font-size="13" lengthAdjust="spacingAndGlyphs" textLength="141" x="282.5" y="995.02">Query processed data</text><polygon fill="#A80036" points="1117,1025.2188,1127,1029.2188,1117,1033.2188,1121,1029.2188" style="stroke: #A80036; stroke-width: 1.0;"/><line style="stroke: #A80036; stroke-width: 1.0;" x1="703" x2="1123" y1="1029.2188" y2="1029.2188"/><text fill="#000000" font-family="sans-serif" font-size="13" lengthAdjust="spacingAndGlyphs" textLength="141" x="710" y="1024.1528">Query processed data</text><polygon fill="#A80036" points="714,1054.3516,704,1058.3516,714,1062.3516,710,1058.3516" style="stroke: #A80036; stroke-width: 1.0;"/><line style="stroke: #A80036; stroke-width: 1.0; stroke-dasharray: 2.0,2.0;" x1="708" x2="1128" y1="1058.3516" y2="1058.3516"/><text fill="#000000" font-family="sans-serif" font-size="13" lengthAdjust="spacingAndGlyphs" textLength="99" x="720" y="1053.2856">processed data</text><polygon fill="#A80036" points="286.5,1083.4844,276.5,1087.4844,286.5,1091.4844,282.5,1087.4844" style="stroke: #A80036; stroke-width: 1.0;"/><line style="stroke: #A80036; stroke-width: 1.0; stroke-dasharray: 2.0,2.0;" x1="280.5" x2="702" y1="1087.4844" y2="1087.4844"/><text fill="#000000" font-family="sans-serif" font-size="13" lengthAdjust="spacingAndGlyphs" textLength="99" x="292.5" y="1082.4185">processed data</text><polygon fill="#A80036" points="52.5,1112.6172,42.5,1116.6172,52.5,1120.6172,48.5,1116.6172" style="stroke: #A80036; stroke-width: 1.0;"/><line style="stroke: #A80036; stroke-width: 1.0;" x1="46.5" x2="274.5" y1="1116.6172" y2="1116.6172"/><text fill="#000000" font-family="sans-serif" font-size="13" lengthAdjust="spacingAndGlyphs" textLength="137" x="58.5" y="1111.5513">Show processed data</text><path d="M13,1131.6172 L77,1131.6172 L77,1138.6172 L67,1148.6172 L13,1148.6172 L13,1131.6172 " fill="#EEEEEE" style="stroke: #000000; stroke-width: 1.0;"/><rect fill="none" height="104.5313" style="stroke: #000000; stroke-width: 2.0;" width="1162" x="13" y="1131.6172"/><text fill="#000000" font-family="sans-serif" font-size="13" font-weight="bold" lengthAdjust="spacingAndGlyphs" textLength="19" x="28" y="1144.6841">alt</text><text fill="#000000" font-family="sans-serif" font-size="11" font-weight="bold" lengthAdjust="spacingAndGlyphs" textLength="208" x="92" y="1143.8276">[user acknowledges processing]</text><polygon fill="#A80036" points="263.5,1165.8828,273.5,1169.8828,263.5,1173.8828,267.5,1169.8828" style="stroke: #A80036; stroke-width: 1.0;"/><line style="stroke: #A80036; stroke-width: 1.0;" x1="41.5" x2="269.5" y1="1169.8828" y2="1169.8828"/><text fill="#000000" font-family="sans-serif" font-size="13" lengthAdjust="spacingAndGlyphs" textLength="155" x="48.5" y="1164.8169">acknowledge processing</text><polygon fill="#A80036" points="691,1195.0156,701,1199.0156,691,1203.0156,695,1199.0156" style="stroke: #A80036; stroke-width: 1.0;"/><line style="stroke: #A80036; stroke-width: 1.0;" x1="275.5" x2="697" y1="1199.0156" y2="1199.0156"/><text fill="#000000" font-family="sans-serif" font-size="13" lengthAdjust="spacingAndGlyphs" textLength="155" x="282.5" y="1193.9497">acknowledge processing</text><polygon fill="#A80036" points="1117,1224.1484,1127,1228.1484,1117,1232.1484,1121,1228.1484" style="stroke: #A80036; stroke-width: 1.0;"/><line style="stroke: #A80036; stroke-width: 1.0;" x1="703" x2="1123" y1="1228.1484" y2="1228.1484"/><text fill="#000000" font-family="sans-serif" font-size="13" lengthAdjust="spacingAndGlyphs" textLength="292" x="710" y="1223.0825">set status from 'PROCESSED' to 'SILO_READY'</text><!--MD5=[363dd9239de9036b3ddeb18f1bb4dbf9]
@startuml
    actor user
    participant "Pathoplexus Frontend" as frontend #LightCyan
    participant "(Pre-)Processing Pipeline" as processing #LightGreen
    participant "Pathoplexus Backend" as backend #Orange
    database "Database" as DB

    user -> frontend: Submit initial sequence data
    alt Sequence and Metadata Files are valid
        frontend -> backend: submit initial sequence data
        frontend -> user: response with sequenceIds
        backend -> DB: Store initial sequence data
        backend -> DB: set status to 'RECEIVED'
    else Sequence and Metadata Files are invalid
        frontend -> user: response with error
    end

    loop until no processing errors

        processing -> backend: Query initial/reviewed data
        backend -> DB: Query initial/reviewed data
        backend -> DB: Set status from 'RECEIVED'/'REVIEW_NEEDED' to 'PROCESSING'
        DB - -> backend: initial/reviewed data
        backend - -> processing: initial/reviewed data

        processing -> backend: submit processed sequence data
        loop until no validation errors
            backend -> processing: response with validation errors
            processing -> backend: submit processed sequence data
        end loop

        alt processed data contain processing errors
            backend -> DB: Store processed sequence data with errors
            backend -> DB: set status to 'REVIEW_NEEDED'
        else
            backend -> DB: Store processed sequence data without errors
            backend -> DB: set status to 'PROCESSED'
        end
        user -> frontend: query processed data with errors
        user -> user: address errors and adapt data
        user -> frontend: submit adapted data
        frontend -> backend: submit adapted data
        backend -> DB: store adapted data
        backend -> DB: set status to 'REVIEWED'
    end loop

    user -> frontend: Query processed data
    frontend -> backend: Query processed data
    backend -> DB: Query processed data
    DB - -> backend: processed data
    backend - -> frontend: processed data
    frontend -> user: Show processed data
    alt user acknowledges processing
        user -> frontend: acknowledge processing
        frontend -> backend: acknowledge processing
        backend -> DB: set status from 'PROCESSED' to 'SILO_READY'
    end
@enduml

PlantUML version 1.2020.02(Sun Mar 01 11:22:07 CET 2020)
(GPL source distribution)
Java Runtime: OpenJDK Runtime Environment
JVM: OpenJDK 64-Bit Server VM
Java Version: 19-panama+1-13
Operating System: Linux
Default Encoding: UTF-8
Language: en
Country: US
--></g></svg>