<?xml version="1.0" encoding="UTF-8" standalone="no"?><svg xmlns="http://www.w3.org/2000/svg" xmlns:xlink="http://www.w3.org/1999/xlink" contentScriptType="application/ecmascript" contentStyleType="text/css" height="288px" preserveAspectRatio="none" style="width:787px;height:288px;" version="1.1" viewBox="0 0 787 288" width="787px" zoomAndPan="magnify"><defs><filter height="300%" id="fgd9shqhv5anw" width="300%" x="-1" y="-1"><feGaussianBlur result="blurOut" stdDeviation="2.0"/><feColorMatrix in="blurOut" result="blurOut2" type="matrix" values="0 0 0 0 0 0 0 0 0 0 0 0 0 0 0 0 0 0 .4 0"/><feOffset dx="4.0" dy="4.0" in="blurOut2" result="blurOut3"/><feBlend in="SourceGraphic" in2="blurOut3" mode="normal"/></filter></defs><g><rect fill="#FEFECE" filter="url(#fgd9shqhv5anw)" height="33.9688" rx="12.5" ry="12.5" style="stroke: #A80036; stroke-width: 1.5;" width="234" x="287" y="10"/><text fill="#000000" font-family="sans-serif" font-size="12" lengthAdjust="spacingAndGlyphs" textLength="214" x="297" y="31.1387">status SILO_READY, revoked=false</text><rect fill="#FEFECE" filter="url(#fgd9shqhv5anw)" height="33.9688" rx="12.5" ry="12.5" style="stroke: #A80036; stroke-width: 1.5;" width="670" x="69" y="85.3677"/><text fill="#000000" font-family="sans-serif" font-size="12" lengthAdjust="spacingAndGlyphs" textLength="650" x="79" y="106.5063">copy sequence, delete data, incr REVISION, set status to 'STAGING_REVOKED', set flag to 'revoked=true'</text><polygon fill="#FEFECE" filter="url(#fgd9shqhv5anw)" points="327,139.3364,481,139.3364,493,151.3364,481,163.3364,327,163.3364,315,151.3364,327,139.3364" style="stroke: #A80036; stroke-width: 1.5;"/><text fill="#000000" font-family="sans-serif" font-size="11" lengthAdjust="spacingAndGlyphs" textLength="154" x="327" y="155.1445">if user confirms revocation</text><text fill="#000000" font-family="sans-serif" font-size="11" lengthAdjust="spacingAndGlyphs" textLength="20" x="295" y="148.7422">yes</text><text fill="#000000" font-family="sans-serif" font-size="11" lengthAdjust="spacingAndGlyphs" textLength="14" x="493" y="148.7422">no</text><rect fill="#FEFECE" filter="url(#fgd9shqhv5anw)" height="33.9688" rx="12.5" ry="12.5" style="stroke: #A80036; stroke-width: 1.5;" width="395" x="10" y="173.3364"/><text fill="#000000" font-family="sans-serif" font-size="12" lengthAdjust="spacingAndGlyphs" textLength="375" x="20" y="194.4751">set latest revision (with revoked-flag) status to 'SILO_READY'</text><rect fill="#FEFECE" filter="url(#fgd9shqhv5anw)" height="33.9688" rx="12.5" ry="12.5" style="stroke: #A80036; stroke-width: 1.5;" width="351" x="425" y="173.3364"/><text fill="#000000" font-family="sans-serif" font-size="12" lengthAdjust="spacingAndGlyphs" textLength="331" x="435" y="194.4751">delete latest revision with status 'STAGING_REVOKED'</text><polygon fill="#FEFECE" filter="url(#fgd9shqhv5anw)" points="404,213.3052,416,225.3052,404,237.3052,392,225.3052,404,213.3052" style="stroke: #A80036; stroke-width: 1.5;"/><ellipse cx="404" cy="267.3052" fill="#FFFFFF" filter="url(#fgd9shqhv5anw)" rx="10" ry="10" style="stroke: #000000; stroke-width: 1.5;"/><line style="stroke: #000000; stroke-width: 2.5;" x1="397.8128" x2="410.1872" y1="261.118" y2="273.4924"/><line style="stroke: #000000; stroke-width: 2.5;" x1="410.1872" x2="397.8128" y1="261.118" y2="273.4924"/><line style="stroke: #A80036; stroke-width: 1.5;" x1="404" x2="404" y1="43.9688" y2="85.3677"/><polygon fill="#A80036" points="400,75.3677,404,85.3677,408,75.3677,404,79.3677" style="stroke: #A80036; stroke-width: 1.0;"/><text fill="#000000" font-family="sans-serif" font-size="11" lengthAdjust="spacingAndGlyphs" textLength="180" x="408" y="65.2734">user wants to revoke sequence</text><line style="stroke: #A80036; stroke-width: 1.5;" x1="315" x2="207.5" y1="151.3364" y2="151.3364"/><line style="stroke: #A80036; stroke-width: 1.5;" x1="207.5" x2="207.5" y1="151.3364" y2="173.3364"/><polygon fill="#A80036" points="203.5,163.3364,207.5,173.3364,211.5,163.3364,207.5,167.3364" style="stroke: #A80036; stroke-width: 1.0;"/><line style="stroke: #A80036; stroke-width: 1.5;" x1="493" x2="600.5" y1="151.3364" y2="151.3364"/><line style="stroke: #A80036; stroke-width: 1.5;" x1="600.5" x2="600.5" y1="151.3364" y2="173.3364"/><polygon fill="#A80036" points="596.5,163.3364,600.5,173.3364,604.5,163.3364,600.5,167.3364" style="stroke: #A80036; stroke-width: 1.0;"/><line style="stroke: #A80036; stroke-width: 1.5;" x1="207.5" x2="207.5" y1="207.3052" y2="225.3052"/><line style="stroke: #A80036; stroke-width: 1.5;" x1="207.5" x2="392" y1="225.3052" y2="225.3052"/><polygon fill="#A80036" points="382,221.3052,392,225.3052,382,229.3052,386,225.3052" style="stroke: #A80036; stroke-width: 1.0;"/><line style="stroke: #A80036; stroke-width: 1.5;" x1="600.5" x2="600.5" y1="207.3052" y2="225.3052"/><line style="stroke: #A80036; stroke-width: 1.5;" x1="600.5" x2="416" y1="225.3052" y2="225.3052"/><polygon fill="#A80036" points="426,221.3052,416,225.3052,426,229.3052,422,225.3052" style="stroke: #A80036; stroke-width: 1.0;"/><line style="stroke: #A80036; stroke-width: 1.5;" x1="404" x2="404" y1="119.3364" y2="139.3364"/><polygon fill="#A80036" points="400,129.3364,404,139.3364,408,129.3364,404,133.3364" style="stroke: #A80036; stroke-width: 1.0;"/><line style="stroke: #A80036; stroke-width: 1.5;" x1="404" x2="404" y1="237.3052" y2="257.3052"/><polygon fill="#A80036" points="400,247.3052,404,257.3052,408,247.3052,404,251.3052" style="stroke: #A80036; stroke-width: 1.0;"/><!--MD5=[df67e03740e03f7df232703aa94bfcb7]
@startuml
    :status SILO_READY, revoked=false;
    ->user wants to revoke sequence;
    :copy sequence, delete data, incr REVISION, set status to 'STAGING_REVOKED', set flag to 'revoked=true';
    if(if user confirms revocation) then (yes)
        :set latest revision (with revoked-flag) status to 'SILO_READY';
    else (no)
        :delete latest revision with status 'STAGING_REVOKED';
    endif
    end
@enduml

PlantUML version 1.2020.02(Sun Mar 01 11:22:07 CET 2020)
(GPL source distribution)
Java Runtime: OpenJDK Runtime Environment
JVM: OpenJDK 64-Bit Server VM
Java Version: 19-panama+1-13
Operating System: Linux
Default Encoding: UTF-8
Language: en
Country: US
--></g></svg>