<?xml version="1.0" encoding="us-ascii" standalone="no"?><svg xmlns="http://www.w3.org/2000/svg" xmlns:xlink="http://www.w3.org/1999/xlink" contentStyleType="text/css" height="528px" preserveAspectRatio="none" style="width:850px;height:528px;background:#FFFFFF;" version="1.1" viewBox="0 0 850 528" width="850px" zoomAndPan="magnify"><defs/><g><rect fill="none" height="137.8633" style="stroke:#000000;stroke-width:1.5;" width="833" x="10" y="113.7988"/><rect fill="none" height="167.1738" style="stroke:#000000;stroke-width:1.5;" width="833" x="10" y="265.6621"/><line style="stroke:#181818;stroke-width:0.5;stroke-dasharray:5.0,5.0;" x1="109" x2="109" y1="67.4883" y2="449.8359"/><line style="stroke:#181818;stroke-width:0.5;stroke-dasharray:5.0,5.0;" x1="432" x2="432" y1="67.4883" y2="449.8359"/><line style="stroke:#181818;stroke-width:0.5;stroke-dasharray:5.0,5.0;" x1="798" x2="798" y1="67.4883" y2="449.8359"/><rect fill="#E0FFFF" height="30.4883" rx="2.5" ry="2.5" style="stroke:#181818;stroke-width:0.5;" width="179" x="20" y="36"/><text fill="#000000" font-family="sans-serif" font-size="14" lengthAdjust="spacing" textLength="165" x="27" y="56.5352">Loculus Frontend / User</text><rect fill="#E0FFFF" height="30.4883" rx="2.5" ry="2.5" style="stroke:#181818;stroke-width:0.5;" width="179" x="20" y="448.8359"/><text fill="#000000" font-family="sans-serif" font-size="14" lengthAdjust="spacing" textLength="165" x="27" y="469.3711">Loculus Frontend / User</text><rect fill="#FFA500" height="30.4883" rx="2.5" ry="2.5" style="stroke:#181818;stroke-width:0.5;" width="127" x="369" y="36"/><text fill="#000000" font-family="sans-serif" font-size="14" lengthAdjust="spacing" textLength="113" x="376" y="56.5352">Loculus Backend</text><rect fill="#FFA500" height="30.4883" rx="2.5" ry="2.5" style="stroke:#181818;stroke-width:0.5;" width="127" x="369" y="448.8359"/><text fill="#000000" font-family="sans-serif" font-size="14" lengthAdjust="spacing" textLength="113" x="376" y="469.3711">Loculus Backend</text><text fill="#000000" font-family="sans-serif" font-size="14" lengthAdjust="spacing" textLength="63" x="764" y="64.5352">Database</text><path d="M780.5,15 C780.5,5 798.5,5 798.5,5 C798.5,5 816.5,5 816.5,15 L816.5,41 C816.5,51 798.5,51 798.5,51 C798.5,51 780.5,51 780.5,41 L780.5,15 " fill="#E2E2F0" style="stroke:#181818;stroke-width:1.5;"/><path d="M780.5,15 C780.5,25 798.5,25 798.5,25 C798.5,25 816.5,25 816.5,15 " fill="none" style="stroke:#181818;stroke-width:1.5;"/><text fill="#000000" font-family="sans-serif" font-size="14" lengthAdjust="spacing" textLength="63" x="764" y="462.3711">Database</text><path d="M780.5,475.3242 C780.5,465.3242 798.5,465.3242 798.5,465.3242 C798.5,465.3242 816.5,465.3242 816.5,475.3242 L816.5,501.3242 C816.5,511.3242 798.5,511.3242 798.5,511.3242 C798.5,511.3242 780.5,511.3242 780.5,501.3242 L780.5,475.3242 " fill="#E2E2F0" style="stroke:#181818;stroke-width:1.5;"/><path d="M780.5,475.3242 C780.5,485.3242 798.5,485.3242 798.5,485.3242 C798.5,485.3242 816.5,485.3242 816.5,475.3242 " fill="none" style="stroke:#181818;stroke-width:1.5;"/><polygon fill="#181818" points="420.5,94.7988,430.5,98.7988,420.5,102.7988,424.5,98.7988" style="stroke:#181818;stroke-width:1.0;"/><line style="stroke:#181818;stroke-width:1.0;" x1="109.5" x2="426.5" y1="98.7988" y2="98.7988"/><text fill="#000000" font-family="sans-serif" font-size="13" lengthAdjust="spacing" textLength="280" x="116.5" y="94.0566">wants to revoke already processed sequence</text><path d="M10,113.7988 L72,113.7988 L72,121.1094 L62,131.1094 L10,131.1094 L10,113.7988 " fill="#EEEEEE" style="stroke:#000000;stroke-width:1.5;"/><rect fill="none" height="137.8633" style="stroke:#000000;stroke-width:1.5;" width="833" x="10" y="113.7988"/><text fill="#000000" font-family="sans-serif" font-size="13" font-weight="bold" lengthAdjust="spacing" textLength="17" x="25" y="127.3672">alt</text><text fill="#000000" font-family="sans-serif" font-size="11" font-weight="bold" lengthAdjust="spacing" textLength="384" x="87" y="126.4336">[accession exists and highest version is 'APPROVED_FOR_RELEASE']</text><polygon fill="#181818" points="786.5,179.041,796.5,183.041,786.5,187.041,790.5,183.041" style="stroke:#181818;stroke-width:1.0;"/><line style="stroke:#181818;stroke-width:1.0;" x1="432.5" x2="792.5" y1="183.041" y2="183.041"/><text fill="#000000" font-family="sans-serif" font-size="13" lengthAdjust="spacing" textLength="115" x="439.5" y="147.6777">insert new version</text><text fill="#000000" font-family="sans-serif" font-size="13" lengthAdjust="spacing" textLength="338" x="439.5" y="162.9883">with status 'AWAITING_APPROVAL_FOR_REVOCATION'</text><text fill="#000000" font-family="sans-serif" font-size="13" lengthAdjust="spacing" textLength="164" x="439.5" y="178.2988">and ' is_revocation = true'</text><polygon fill="#181818" points="120.5,208.3516,110.5,212.3516,120.5,216.3516,116.5,212.3516" style="stroke:#181818;stroke-width:1.0;"/><line style="stroke:#181818;stroke-width:1.0;" x1="114.5" x2="431.5" y1="212.3516" y2="212.3516"/><text fill="#000000" font-family="sans-serif" font-size="13" lengthAdjust="spacing" textLength="299" x="126.5" y="207.6094">response with accession + new version number</text><line style="stroke:#000000;stroke-width:1.0;stroke-dasharray:2.0,2.0;" x1="10" x2="843" y1="221.3516" y2="221.3516"/><polygon fill="#181818" points="120.5,239.6621,110.5,243.6621,120.5,247.6621,116.5,243.6621" style="stroke:#181818;stroke-width:1.0;"/><line style="stroke:#181818;stroke-width:1.0;" x1="114.5" x2="431.5" y1="243.6621" y2="243.6621"/><text fill="#000000" font-family="sans-serif" font-size="13" lengthAdjust="spacing" textLength="181" x="126.5" y="238.9199">response with error message</text><path d="M10,265.6621 L72,265.6621 L72,272.9727 L62,282.9727 L10,282.9727 L10,265.6621 " fill="#EEEEEE" style="stroke:#000000;stroke-width:1.5;"/><rect fill="none" height="167.1738" style="stroke:#000000;stroke-width:1.5;" width="833" x="10" y="265.6621"/><text fill="#000000" font-family="sans-serif" font-size="13" font-weight="bold" lengthAdjust="spacing" textLength="17" x="25" y="279.2305">alt</text><polygon fill="#181818" points="420.5,300.2832,430.5,304.2832,420.5,308.2832,424.5,304.2832" style="stroke:#181818;stroke-width:1.0;"/><line style="stroke:#181818;stroke-width:1.0;" x1="109.5" x2="426.5" y1="304.2832" y2="304.2832"/><text fill="#000000" font-family="sans-serif" font-size="13" lengthAdjust="spacing" textLength="126" x="116.5" y="299.541">confirms revocation</text><polygon fill="#181818" points="786.5,329.5938,796.5,333.5938,786.5,337.5938,790.5,333.5938" style="stroke:#181818;stroke-width:1.0;"/><line style="stroke:#181818;stroke-width:1.0;" x1="432.5" x2="792.5" y1="333.5938" y2="333.5938"/><text fill="#000000" font-family="sans-serif" font-size="13" lengthAdjust="spacing" textLength="246" x="439.5" y="328.8516">set status to 'APPROVED_FOR_RELEASE'</text><line style="stroke:#000000;stroke-width:1.0;stroke-dasharray:2.0,2.0;" x1="10" x2="843" y1="342.5938" y2="342.5938"/><polygon fill="#181818" points="420.5,360.9043,430.5,364.9043,420.5,368.9043,424.5,364.9043" style="stroke:#181818;stroke-width:1.0;"/><line style="stroke:#181818;stroke-width:1.0;" x1="109.5" x2="426.5" y1="364.9043" y2="364.9043"/><text fill="#000000" font-family="sans-serif" font-size="13" lengthAdjust="spacing" textLength="117" x="116.5" y="360.1621">cancels revocation</text><polygon fill="#181818" points="786.5,420.8359,796.5,424.8359,786.5,428.8359,790.5,424.8359" style="stroke:#181818;stroke-width:1.0;"/><line style="stroke:#181818;stroke-width:1.0;" x1="432.5" x2="792.5" y1="424.8359" y2="424.8359"/><text fill="#000000" font-family="sans-serif" font-size="13" lengthAdjust="spacing" textLength="127" x="439.5" y="389.4727">delete latest version</text><text fill="#000000" font-family="sans-serif" font-size="13" lengthAdjust="spacing" textLength="170" x="439.5" y="404.7832">of the sequence and Status</text><text fill="#000000" font-family="sans-serif" font-size="13" lengthAdjust="spacing" textLength="264" x="439.5" y="420.0938">'AWAITING_APPROVAL_FOR_REVOCATION'</text><!--SRC=[ZL9BQy904BxtLtpemKCflGijnAf545FiwoB8c8ow67VjxgJMVzz9OjI2jirfoSvypmM03NanYTcG5JI6BicpFA3ldHMsAMxn6jWtG07p-bzpQ1PBUTYHlS8bW0ubAvqj5sVL6StOarrmkPIIq8m2ez7TdyhHRkUgl3vmtTpNwsribI5073n_kXM3Ci-Kxh3nBk4GE4NWZvnjmXM83WWeAUwCi-0l4tIV57Mf1ZW8FjcNLoQW5JqzZUEtNdVQZyVJSM_OYvvxhGf7lzg3wkbssZ1MKn5OtjOO4xiriaGGahn0Uuy6BuFHuxI2ZOPxsBVu8NePnACM9hPGqbBkQU4d8IcKt45ypXNl2MUTHrkzXurJTfHqHtVNfs9Wy_MCVOd2MU1pDYv1ilVEOwsmjEzAXwf0DSy3qjc64cVdngy3Zeuk9HXOwh2qqL_I_w7_F2jfvTb_I5FEM1WPoMdx4-lca2KVda_vHfuhSHFxTvTrIjy0]--></g></svg>