<?xml version="1.0" encoding="us-ascii" standalone="no"?><svg xmlns="http://www.w3.org/2000/svg" xmlns:xlink="http://www.w3.org/1999/xlink" contentStyleType="text/css" height="525px" preserveAspectRatio="none" style="width:770px;height:525px;background:#FFFFFF;" version="1.1" viewBox="0 0 770 525" width="770px" zoomAndPan="magnify"><defs/><g><rect fill="none" height="136.7969" style="stroke:#000000;stroke-width:1.5;" width="753.5" x="10" y="113.4297"/><rect fill="none" height="165.9297" style="stroke:#000000;stroke-width:1.5;" width="753.5" x="10" y="264.2266"/><line style="stroke:#181818;stroke-width:0.5;stroke-dasharray:5.0,5.0;" x1="109" x2="109" y1="67.2969" y2="447.1563"/><line style="stroke:#181818;stroke-width:0.5;stroke-dasharray:5.0,5.0;" x1="436.5" x2="436.5" y1="67.2969" y2="447.1563"/><line style="stroke:#181818;stroke-width:0.5;stroke-dasharray:5.0,5.0;" x1="717.5" x2="717.5" y1="67.2969" y2="447.1563"/><rect fill="#E0FFFF" height="30.2969" rx="2.5" ry="2.5" style="stroke:#181818;stroke-width:0.5;" width="179" x="20" y="36"/><text fill="#000000" font-family="sans-serif" font-size="14" lengthAdjust="spacing" textLength="165" x="27" y="55.9951">Loculus Frontend / User</text><rect fill="#E0FFFF" height="30.2969" rx="2.5" ry="2.5" style="stroke:#181818;stroke-width:0.5;" width="179" x="20" y="446.1563"/><text fill="#000000" font-family="sans-serif" font-size="14" lengthAdjust="spacing" textLength="165" x="27" y="466.1514">Loculus Frontend / User</text><rect fill="#FFA500" height="30.2969" rx="2.5" ry="2.5" style="stroke:#181818;stroke-width:0.5;" width="132" x="370.5" y="36"/><text fill="#000000" font-family="sans-serif" font-size="14" lengthAdjust="spacing" textLength="118" x="377.5" y="55.9951">Loculus Backend</text><rect fill="#FFA500" height="30.2969" rx="2.5" ry="2.5" style="stroke:#181818;stroke-width:0.5;" width="132" x="370.5" y="446.1563"/><text fill="#000000" font-family="sans-serif" font-size="14" lengthAdjust="spacing" textLength="118" x="377.5" y="466.1514">Loculus Backend</text><text fill="#000000" font-family="sans-serif" font-size="14" lengthAdjust="spacing" textLength="66" x="681.5" y="63.9951">Database</text><path d="M699.5,15 C699.5,5 717.5,5 717.5,5 C717.5,5 735.5,5 735.5,15 L735.5,41 C735.5,51 717.5,51 717.5,51 C717.5,51 699.5,51 699.5,41 L699.5,15 " fill="#E2E2F0" style="stroke:#181818;stroke-width:1.5;"/><path d="M699.5,15 C699.5,25 717.5,25 717.5,25 C717.5,25 735.5,25 735.5,15 " fill="none" style="stroke:#181818;stroke-width:1.5;"/><text fill="#000000" font-family="sans-serif" font-size="14" lengthAdjust="spacing" textLength="66" x="681.5" y="459.1514">Database</text><path d="M699.5,472.4531 C699.5,462.4531 717.5,462.4531 717.5,462.4531 C717.5,462.4531 735.5,462.4531 735.5,472.4531 L735.5,498.4531 C735.5,508.4531 717.5,508.4531 717.5,508.4531 C717.5,508.4531 699.5,508.4531 699.5,498.4531 L699.5,472.4531 " fill="#E2E2F0" style="stroke:#181818;stroke-width:1.5;"/><path d="M699.5,472.4531 C699.5,482.4531 717.5,482.4531 717.5,482.4531 C717.5,482.4531 735.5,482.4531 735.5,472.4531 " fill="none" style="stroke:#181818;stroke-width:1.5;"/><polygon fill="#181818" points="424.5,94.4297,434.5,98.4297,424.5,102.4297,428.5,98.4297" style="stroke:#181818;stroke-width:1.0;"/><line style="stroke:#181818;stroke-width:1.0;" x1="109.5" x2="430.5" y1="98.4297" y2="98.4297"/><text fill="#000000" font-family="sans-serif" font-size="13" lengthAdjust="spacing" textLength="288" x="116.5" y="93.3638">wants to revoke already processed sequence</text><path d="M10,113.4297 L74,113.4297 L74,120.5625 L64,130.5625 L10,130.5625 L10,113.4297 " fill="#EEEEEE" style="stroke:#000000;stroke-width:1.5;"/><rect fill="none" height="136.7969" style="stroke:#000000;stroke-width:1.5;" width="753.5" x="10" y="113.4297"/><text fill="#000000" font-family="sans-serif" font-size="13" font-weight="bold" lengthAdjust="spacing" textLength="19" x="25" y="126.4966">alt</text><text fill="#000000" font-family="sans-serif" font-size="11" font-weight="bold" lengthAdjust="spacing" textLength="432" x="89" y="125.6401">[accession exists and highest version is 'APPROVED_FOR_RELEASE']</text><polygon fill="#181818" points="705.5,177.9609,715.5,181.9609,705.5,185.9609,709.5,181.9609" style="stroke:#181818;stroke-width:1.0;"/><line style="stroke:#181818;stroke-width:1.0;" x1="436.5" x2="711.5" y1="181.9609" y2="181.9609"/><text fill="#000000" font-family="sans-serif" font-size="13" lengthAdjust="spacing" textLength="115" x="443.5" y="146.6294">insert new version</text><text fill="#000000" font-family="sans-serif" font-size="13" lengthAdjust="spacing" textLength="216" x="443.5" y="161.7622">with status 'AWAITING_APPROVAL'</text><text fill="#000000" font-family="sans-serif" font-size="13" lengthAdjust="spacing" textLength="167" x="443.5" y="176.895">and ' is_revocation = true'</text><polygon fill="#181818" points="120.5,207.0938,110.5,211.0938,120.5,215.0938,116.5,211.0938" style="stroke:#181818;stroke-width:1.0;"/><line style="stroke:#181818;stroke-width:1.0;" x1="114.5" x2="435.5" y1="211.0938" y2="211.0938"/><text fill="#000000" font-family="sans-serif" font-size="13" lengthAdjust="spacing" textLength="303" x="126.5" y="206.0278">response with accession + new version number</text><line style="stroke:#000000;stroke-width:1.0;stroke-dasharray:2.0,2.0;" x1="10" x2="763.5" y1="220.0938" y2="220.0938"/><polygon fill="#181818" points="120.5,238.2266,110.5,242.2266,120.5,246.2266,116.5,242.2266" style="stroke:#181818;stroke-width:1.0;"/><line style="stroke:#181818;stroke-width:1.0;" x1="114.5" x2="435.5" y1="242.2266" y2="242.2266"/><text fill="#000000" font-family="sans-serif" font-size="13" lengthAdjust="spacing" textLength="186" x="126.5" y="237.1606">response with error message</text><path d="M10,264.2266 L74,264.2266 L74,271.3594 L64,281.3594 L10,281.3594 L10,264.2266 " fill="#EEEEEE" style="stroke:#000000;stroke-width:1.5;"/><rect fill="none" height="165.9297" style="stroke:#000000;stroke-width:1.5;" width="753.5" x="10" y="264.2266"/><text fill="#000000" font-family="sans-serif" font-size="13" font-weight="bold" lengthAdjust="spacing" textLength="19" x="25" y="277.2935">alt</text><polygon fill="#181818" points="424.5,298.4922,434.5,302.4922,424.5,306.4922,428.5,302.4922" style="stroke:#181818;stroke-width:1.0;"/><line style="stroke:#181818;stroke-width:1.0;" x1="109.5" x2="430.5" y1="302.4922" y2="302.4922"/><text fill="#000000" font-family="sans-serif" font-size="13" lengthAdjust="spacing" textLength="126" x="116.5" y="297.4263">confirms revocation</text><polygon fill="#181818" points="705.5,327.625,715.5,331.625,705.5,335.625,709.5,331.625" style="stroke:#181818;stroke-width:1.0;"/><line style="stroke:#181818;stroke-width:1.0;" x1="436.5" x2="711.5" y1="331.625" y2="331.625"/><text fill="#000000" font-family="sans-serif" font-size="13" lengthAdjust="spacing" textLength="257" x="443.5" y="326.5591">set status to 'APPROVED_FOR_RELEASE'</text><line style="stroke:#000000;stroke-width:1.0;stroke-dasharray:2.0,2.0;" x1="10" x2="763.5" y1="340.625" y2="340.625"/><polygon fill="#181818" points="424.5,358.7578,434.5,362.7578,424.5,366.7578,428.5,362.7578" style="stroke:#181818;stroke-width:1.0;"/><line style="stroke:#181818;stroke-width:1.0;" x1="109.5" x2="430.5" y1="362.7578" y2="362.7578"/><text fill="#000000" font-family="sans-serif" font-size="13" lengthAdjust="spacing" textLength="119" x="116.5" y="357.6919">cancels revocation</text><polygon fill="#181818" points="705.5,418.1563,715.5,422.1563,705.5,426.1563,709.5,422.1563" style="stroke:#181818;stroke-width:1.0;"/><line style="stroke:#181818;stroke-width:1.0;" x1="436.5" x2="711.5" y1="422.1563" y2="422.1563"/><text fill="#000000" font-family="sans-serif" font-size="13" lengthAdjust="spacing" textLength="130" x="443.5" y="386.8247">delete latest version</text><text fill="#000000" font-family="sans-serif" font-size="13" lengthAdjust="spacing" textLength="177" x="443.5" y="401.9575">of the sequence and Status</text><text fill="#000000" font-family="sans-serif" font-size="13" lengthAdjust="spacing" textLength="143" x="443.5" y="417.0903">'AWAITING_APPROVAL'</text><!--SRC=[ZP9FQy904CNlVeg77ZoKqhlGWbOjWbJH_ha8CYQZBiPTkplH-kqxIOnQYAKvBTcPtvjvRm5WHrvCP7Pa1VMXYz8a3UXxPuLjZ0Uy1_PrKC2o_DSOcjLQdezaQxW5w52qqTgySL6SqHXviYlEcs8IMb1WrBkdKrxQxTJowxFM_LFPti915GB4mVFURHYKUARuY9rt4OV0CG9_fMmZBY1Q8A0ekpFEWhzDq7vIwbeNu23Oiy-lJ42pFHvFHX-zxhm_cimdlM6lFUqr2uv-vGuwJxVJWh7gYi3oeMJCxC786a58qepssHwy3LvVvWMsFMnYPZFffehDimKYaapw4U9JBeIkH4e3Mhfis3cLGyw_h7DthGwRRXViSmedWQlcleLaxvt7Lh5q2aUB2WVLm3EfCfB8sQNnsu3BHhSi2oobEnhX7tR_chzQbJJZv3-YCISiZ8JaEkwPTKl8ci_l9NyKqsAucQq8hxJb1m00]--></g></svg>