<?xml version="1.0" encoding="us-ascii" standalone="no"?><svg xmlns="http://www.w3.org/2000/svg" xmlns:xlink="http://www.w3.org/1999/xlink" contentStyleType="text/css" height="350px" preserveAspectRatio="none" style="width:760px;height:350px;background:#FFFFFF;" version="1.1" viewBox="0 0 760 350" width="760px" zoomAndPan="magnify"><defs/><g><rect fill="none" height="106.5313" style="stroke:#000000;stroke-width:1.5;" width="743.5" x="10" y="113.4297"/><line style="stroke:#181818;stroke-width:0.5;stroke-dasharray:5.0,5.0;" x1="109" x2="109" y1="67.2969" y2="272.0938"/><line style="stroke:#181818;stroke-width:0.5;stroke-dasharray:5.0,5.0;" x1="436.5" x2="436.5" y1="67.2969" y2="272.0938"/><line style="stroke:#181818;stroke-width:0.5;stroke-dasharray:5.0,5.0;" x1="707.5" x2="707.5" y1="67.2969" y2="272.0938"/><rect fill="#E0FFFF" height="30.2969" rx="2.5" ry="2.5" style="stroke:#181818;stroke-width:0.5;" width="179" x="20" y="36"/><text fill="#000000" font-family="sans-serif" font-size="14" lengthAdjust="spacing" textLength="165" x="27" y="55.9951">Loculus Frontend / User</text><rect fill="#E0FFFF" height="30.2969" rx="2.5" ry="2.5" style="stroke:#181818;stroke-width:0.5;" width="179" x="20" y="271.0938"/><text fill="#000000" font-family="sans-serif" font-size="14" lengthAdjust="spacing" textLength="165" x="27" y="291.0889">Loculus Frontend / User</text><rect fill="#FFA500" height="30.2969" rx="2.5" ry="2.5" style="stroke:#181818;stroke-width:0.5;" width="132" x="370.5" y="36"/><text fill="#000000" font-family="sans-serif" font-size="14" lengthAdjust="spacing" textLength="118" x="377.5" y="55.9951">Loculus Backend</text><rect fill="#FFA500" height="30.2969" rx="2.5" ry="2.5" style="stroke:#181818;stroke-width:0.5;" width="132" x="370.5" y="271.0938"/><text fill="#000000" font-family="sans-serif" font-size="14" lengthAdjust="spacing" textLength="118" x="377.5" y="291.0889">Loculus Backend</text><text fill="#000000" font-family="sans-serif" font-size="14" lengthAdjust="spacing" textLength="66" x="671.5" y="63.9951">Database</text><path d="M689.5,15 C689.5,5 707.5,5 707.5,5 C707.5,5 725.5,5 725.5,15 L725.5,41 C725.5,51 707.5,51 707.5,51 C707.5,51 689.5,51 689.5,41 L689.5,15 " fill="#E2E2F0" style="stroke:#181818;stroke-width:1.5;"/><path d="M689.5,15 C689.5,25 707.5,25 707.5,25 C707.5,25 725.5,25 725.5,15 " fill="none" style="stroke:#181818;stroke-width:1.5;"/><text fill="#000000" font-family="sans-serif" font-size="14" lengthAdjust="spacing" textLength="66" x="671.5" y="284.0889">Database</text><path d="M689.5,297.3906 C689.5,287.3906 707.5,287.3906 707.5,287.3906 C707.5,287.3906 725.5,287.3906 725.5,297.3906 L725.5,323.3906 C725.5,333.3906 707.5,333.3906 707.5,333.3906 C707.5,333.3906 689.5,333.3906 689.5,323.3906 L689.5,297.3906 " fill="#E2E2F0" style="stroke:#181818;stroke-width:1.5;"/><path d="M689.5,297.3906 C689.5,307.3906 707.5,307.3906 707.5,307.3906 C707.5,307.3906 725.5,307.3906 725.5,297.3906 " fill="none" style="stroke:#181818;stroke-width:1.5;"/><polygon fill="#181818" points="424.5,94.4297,434.5,98.4297,424.5,102.4297,428.5,98.4297" style="stroke:#181818;stroke-width:1.0;"/><line style="stroke:#181818;stroke-width:1.0;" x1="109.5" x2="430.5" y1="98.4297" y2="98.4297"/><text fill="#000000" font-family="sans-serif" font-size="13" lengthAdjust="spacing" textLength="290" x="116.5" y="93.3638">submit corrected data for existing accessions</text><path d="M10,113.4297 L74,113.4297 L74,120.5625 L64,130.5625 L10,130.5625 L10,113.4297 " fill="#EEEEEE" style="stroke:#000000;stroke-width:1.5;"/><rect fill="none" height="106.5313" style="stroke:#000000;stroke-width:1.5;" width="743.5" x="10" y="113.4297"/><text fill="#000000" font-family="sans-serif" font-size="13" font-weight="bold" lengthAdjust="spacing" textLength="19" x="25" y="126.4966">alt</text><text fill="#000000" font-family="sans-serif" font-size="11" font-weight="bold" lengthAdjust="spacing" textLength="432" x="89" y="125.6401">[accession exists and highest version is 'APPROVED_FOR_RELEASE']</text><polygon fill="#181818" points="695.5,147.6953,705.5,151.6953,695.5,155.6953,699.5,151.6953" style="stroke:#181818;stroke-width:1.0;"/><line style="stroke:#181818;stroke-width:1.0;" x1="436.5" x2="701.5" y1="151.6953" y2="151.6953"/><text fill="#000000" font-family="sans-serif" font-size="13" lengthAdjust="spacing" textLength="247" x="443.5" y="146.6294">insert new version in status 'RECEIVED'</text><polygon fill="#181818" points="120.5,176.8281,110.5,180.8281,120.5,184.8281,116.5,180.8281" style="stroke:#181818;stroke-width:1.0;"/><line style="stroke:#181818;stroke-width:1.0;" x1="114.5" x2="435.5" y1="180.8281" y2="180.8281"/><text fill="#000000" font-family="sans-serif" font-size="13" lengthAdjust="spacing" textLength="303" x="126.5" y="175.7622">response with accession + new version number</text><line style="stroke:#000000;stroke-width:1.0;stroke-dasharray:2.0,2.0;" x1="10" x2="753.5" y1="189.8281" y2="189.8281"/><polygon fill="#181818" points="120.5,207.9609,110.5,211.9609,120.5,215.9609,116.5,211.9609" style="stroke:#181818;stroke-width:1.0;"/><line style="stroke:#181818;stroke-width:1.0;" x1="114.5" x2="435.5" y1="211.9609" y2="211.9609"/><text fill="#000000" font-family="sans-serif" font-size="13" lengthAdjust="spacing" textLength="186" x="126.5" y="206.895">response with error message</text><path d="M114,231.9609 L114,256.9609 L572,256.9609 L572,241.9609 L562,231.9609 L114,231.9609 " fill="#FEFFDD" style="stroke:#181818;stroke-width:0.5;"/><path d="M562,231.9609 L562,241.9609 L572,241.9609 L562,231.9609 " fill="#FEFFDD" style="stroke:#181818;stroke-width:0.5;"/><text fill="#000000" font-family="sans-serif" font-size="13" lengthAdjust="spacing" textLength="437" x="120" y="249.0278">At this point the same flow applies as if this was an initial submission</text><!--SRC=[TP51Ry8m38Nl_8edE72OfjqvJ09Qf4b8e4xR5PdYqcXjKiNkkltxfIa59cqvMR7zsUyP01hoQdBJa5LCjovlgrQmySugsnEUy2Rifo11CVxDjkPSwlgRx0J_0LQKVuJQs7WSOinsdkoPOzE9b8uaZ6boYM9fiffCOluwxF5vx5z0scDj5BdpddFbKwIWS1xyPKIDFOFod4MCip9mgDBRtr0ceC0jWmOMnIVxc3A2-NA_ptRlQNBOxB93bcxJvMiwZvZ-ZJB2Hibg0ME3CGhBtOrX8KeQvC-pT9s-1DJGVjSw2bl0ipHXJqPdjBnRyk4NqxRraNsaS2NyrpR_8TdxO4qTi7HnFHGDjbYd3D-V4Qwu0gxmfKBBu4ZZZEr3Xb3DA2hNWPgcCYpzjKmnb7NKUnha6pLK3MUAMiQXSTuF]--></g></svg>