<?xml version="1.0" encoding="us-ascii" standalone="no"?><svg xmlns="http://www.w3.org/2000/svg" xmlns:xlink="http://www.w3.org/1999/xlink" contentStyleType="text/css" height="525px" preserveAspectRatio="none" style="width:778px;height:525px;background:#FFFFFF;" version="1.1" viewBox="0 0 778 525" width="778px" zoomAndPan="magnify"><defs/><g><rect fill="none" height="136.7969" style="stroke:#000000;stroke-width:1.5;" width="761.5" x="10" y="113.4297"/><rect fill="none" height="165.9297" style="stroke:#000000;stroke-width:1.5;" width="761.5" x="10" y="264.2266"/><line style="stroke:#181818;stroke-width:0.5;stroke-dasharray:5.0,5.0;" x1="109" x2="109" y1="67.2969" y2="447.1563"/><line style="stroke:#181818;stroke-width:0.5;stroke-dasharray:5.0,5.0;" x1="436.5" x2="436.5" y1="67.2969" y2="447.1563"/><line style="stroke:#181818;stroke-width:0.5;stroke-dasharray:5.0,5.0;" x1="725.5" x2="725.5" y1="67.2969" y2="447.1563"/><rect fill="#E0FFFF" height="30.2969" rx="2.5" ry="2.5" style="stroke:#181818;stroke-width:0.5;" width="179" x="20" y="36"/><text fill="#000000" font-family="sans-serif" font-size="14" lengthAdjust="spacing" textLength="165" x="27" y="55.9951">Loculus Frontend / User</text><rect fill="#E0FFFF" height="30.2969" rx="2.5" ry="2.5" style="stroke:#181818;stroke-width:0.5;" width="179" x="20" y="446.1563"/><text fill="#000000" font-family="sans-serif" font-size="14" lengthAdjust="spacing" textLength="165" x="27" y="466.1514">Loculus Frontend / User</text><rect fill="#FFA500" height="30.2969" rx="2.5" ry="2.5" style="stroke:#181818;stroke-width:0.5;" width="132" x="370.5" y="36"/><text fill="#000000" font-family="sans-serif" font-size="14" lengthAdjust="spacing" textLength="118" x="377.5" y="55.9951">Loculus Backend</text><rect fill="#FFA500" height="30.2969" rx="2.5" ry="2.5" style="stroke:#181818;stroke-width:0.5;" width="132" x="370.5" y="446.1563"/><text fill="#000000" font-family="sans-serif" font-size="14" lengthAdjust="spacing" textLength="118" x="377.5" y="466.1514">Loculus Backend</text><text fill="#000000" font-family="sans-serif" font-size="14" lengthAdjust="spacing" textLength="66" x="689.5" y="63.9951">Database</text><path d="M707.5,15 C707.5,5 725.5,5 725.5,5 C725.5,5 743.5,5 743.5,15 L743.5,41 C743.5,51 725.5,51 725.5,51 C725.5,51 707.5,51 707.5,41 L707.5,15 " fill="#E2E2F0" style="stroke:#181818;stroke-width:1.5;"/><path d="M707.5,15 C707.5,25 725.5,25 725.5,25 C725.5,25 743.5,25 743.5,15 " fill="none" style="stroke:#181818;stroke-width:1.5;"/><text fill="#000000" font-family="sans-serif" font-size="14" lengthAdjust="spacing" textLength="66" x="689.5" y="459.1514">Database</text><path d="M707.5,472.4531 C707.5,462.4531 725.5,462.4531 725.5,462.4531 C725.5,462.4531 743.5,462.4531 743.5,472.4531 L743.5,498.4531 C743.5,508.4531 725.5,508.4531 725.5,508.4531 C725.5,508.4531 707.5,508.4531 707.5,498.4531 L707.5,472.4531 " fill="#E2E2F0" style="stroke:#181818;stroke-width:1.5;"/><path d="M707.5,472.4531 C707.5,482.4531 725.5,482.4531 725.5,482.4531 C725.5,482.4531 743.5,482.4531 743.5,472.4531 " fill="none" style="stroke:#181818;stroke-width:1.5;"/><polygon fill="#181818" points="424.5,94.4297,434.5,98.4297,424.5,102.4297,428.5,98.4297" style="stroke:#181818;stroke-width:1.0;"/><line style="stroke:#181818;stroke-width:1.0;" x1="109.5" x2="430.5" y1="98.4297" y2="98.4297"/><text fill="#000000" font-family="sans-serif" font-size="13" lengthAdjust="spacing" textLength="288" x="116.5" y="93.3638">wants to revoke already processed sequence</text><path d="M10,113.4297 L74,113.4297 L74,120.5625 L64,130.5625 L10,130.5625 L10,113.4297 " fill="#EEEEEE" style="stroke:#000000;stroke-width:1.5;"/><rect fill="none" height="136.7969" style="stroke:#000000;stroke-width:1.5;" width="761.5" x="10" y="113.4297"/><text fill="#000000" font-family="sans-serif" font-size="13" font-weight="bold" lengthAdjust="spacing" textLength="19" x="25" y="126.4966">alt</text><text fill="#000000" font-family="sans-serif" font-size="11" font-weight="bold" lengthAdjust="spacing" textLength="432" x="89" y="125.6401">[accession exists and highest version is 'APPROVED_FOR_RELEASE']</text><polygon fill="#181818" points="713.5,177.9609,723.5,181.9609,713.5,185.9609,717.5,181.9609" style="stroke:#181818;stroke-width:1.0;"/><line style="stroke:#181818;stroke-width:1.0;" x1="436.5" x2="719.5" y1="181.9609" y2="181.9609"/><text fill="#000000" font-family="sans-serif" font-size="13" lengthAdjust="spacing" textLength="115" x="443.5" y="146.6294">insert new version</text><text fill="#000000" font-family="sans-serif" font-size="13" lengthAdjust="spacing" textLength="204" x="443.5" y="161.7622">with status 'REVISION_STAGING'</text><text fill="#000000" font-family="sans-serif" font-size="13" lengthAdjust="spacing" textLength="167" x="443.5" y="176.895">and ' is_revocation = true'</text><polygon fill="#181818" points="120.5,207.0938,110.5,211.0938,120.5,215.0938,116.5,211.0938" style="stroke:#181818;stroke-width:1.0;"/><line style="stroke:#181818;stroke-width:1.0;" x1="114.5" x2="435.5" y1="211.0938" y2="211.0938"/><text fill="#000000" font-family="sans-serif" font-size="13" lengthAdjust="spacing" textLength="303" x="126.5" y="206.0278">response with accession + new version number</text><line style="stroke:#000000;stroke-width:1.0;stroke-dasharray:2.0,2.0;" x1="10" x2="771.5" y1="220.0938" y2="220.0938"/><polygon fill="#181818" points="120.5,238.2266,110.5,242.2266,120.5,246.2266,116.5,242.2266" style="stroke:#181818;stroke-width:1.0;"/><line style="stroke:#181818;stroke-width:1.0;" x1="114.5" x2="435.5" y1="242.2266" y2="242.2266"/><text fill="#000000" font-family="sans-serif" font-size="13" lengthAdjust="spacing" textLength="186" x="126.5" y="237.1606">response with error message</text><path d="M10,264.2266 L74,264.2266 L74,271.3594 L64,281.3594 L10,281.3594 L10,264.2266 " fill="#EEEEEE" style="stroke:#000000;stroke-width:1.5;"/><rect fill="none" height="165.9297" style="stroke:#000000;stroke-width:1.5;" width="761.5" x="10" y="264.2266"/><text fill="#000000" font-family="sans-serif" font-size="13" font-weight="bold" lengthAdjust="spacing" textLength="19" x="25" y="277.2935">alt</text><polygon fill="#181818" points="424.5,298.4922,434.5,302.4922,424.5,306.4922,428.5,302.4922" style="stroke:#181818;stroke-width:1.0;"/><line style="stroke:#181818;stroke-width:1.0;" x1="109.5" x2="430.5" y1="302.4922" y2="302.4922"/><text fill="#000000" font-family="sans-serif" font-size="13" lengthAdjust="spacing" textLength="126" x="116.5" y="297.4263">confirms revocation</text><polygon fill="#181818" points="713.5,327.625,723.5,331.625,713.5,335.625,717.5,331.625" style="stroke:#181818;stroke-width:1.0;"/><line style="stroke:#181818;stroke-width:1.0;" x1="436.5" x2="719.5" y1="331.625" y2="331.625"/><text fill="#000000" font-family="sans-serif" font-size="13" lengthAdjust="spacing" textLength="257" x="443.5" y="326.5591">set status to 'APPROVED_FOR_RELEASE'</text><line style="stroke:#000000;stroke-width:1.0;stroke-dasharray:2.0,2.0;" x1="10" x2="771.5" y1="340.625" y2="340.625"/><polygon fill="#181818" points="424.5,358.7578,434.5,362.7578,424.5,366.7578,428.5,362.7578" style="stroke:#181818;stroke-width:1.0;"/><line style="stroke:#181818;stroke-width:1.0;" x1="109.5" x2="430.5" y1="362.7578" y2="362.7578"/><text fill="#000000" font-family="sans-serif" font-size="13" lengthAdjust="spacing" textLength="119" x="116.5" y="357.6919">cancels revocation</text><polygon fill="#181818" points="713.5,418.1563,723.5,422.1563,713.5,426.1563,717.5,422.1563" style="stroke:#181818;stroke-width:1.0;"/><line style="stroke:#181818;stroke-width:1.0;" x1="436.5" x2="719.5" y1="422.1563" y2="422.1563"/><text fill="#000000" font-family="sans-serif" font-size="13" lengthAdjust="spacing" textLength="130" x="443.5" y="386.8247">delete latest version</text><text fill="#000000" font-family="sans-serif" font-size="13" lengthAdjust="spacing" textLength="177" x="443.5" y="401.9575">of the sequence and Status</text><text fill="#000000" font-family="sans-serif" font-size="13" lengthAdjust="spacing" textLength="265" x="443.5" y="417.0903">'AWAITING_APPROVAL_FOR_REVOCATION'</text><!--SRC=[ZL9DJy904BtxArxmq8CntaaqAL8D2R4642yapT0Eih7iukvKzDyxj1Gm0MDFc-xC-rm0M9CNavirMK5dwFAgh08UlBF2ji0DNWBx3YXWqVwx79gtfTn_axt0EO0UvUywMo_EcpCkKq_sZUkbWeJc51YT_kvKZ_Px5_NrdklwhbtlOgCC0UBW-TEzCwZqJCKtrjxb708N2FnHiSsv0T410UNRE-Ci-Ci4tIT5NQe13e9FzlML2OZYv-THEatwsKCwoaR9C8d7ITJWwDTwK3tzNXV6QYe2oviMOsOtHfO8GgBser4o7Om7wLCsdiIFWwV723ExPOwKAzlgpqcspBSGNt73SyJH-k-grx1soeOQ_k3cwfWSjbhDsTSeN0O-9ViS97llF5OAIxjkTAW9KFFR8vri97TsOVmguE3eN6A1fGr76_mZxL_wJxEILbp-XxJWaeLHaXotFRDk0Ldo_hdKRsBSY9lPA7wD1nFjB6j4niETo6bw7q-qqwXDwGS0]--></g></svg>