<svg xmlns="http://www.w3.org/2000/svg" xmlns:xlink="http://www.w3.org/1999/xlink" contentStyleType="text/css" data-diagram-type="SEQUENCE" height="521px" preserveAspectRatio="none" style="width:694px;height:521px;background:#FFFFFF;" version="1.1" viewBox="0 0 694 521" width="694px" zoomAndPan="magnify"><defs/><g><rect fill="none" height="46.6211" style="stroke:#000000;stroke-width:1.5;" width="614.7554" x="10" y="172.4199"/><rect fill="none" height="46.6211" style="stroke:#000000;stroke-width:1.5;" width="614.7554" x="10" y="320.9727"/><g><title>Processing Pipeline</title><rect fill="#000000" fill-opacity="0.00000" height="375.7266" width="8" x="88.0918" y="67.4883"/><line style="stroke:#181818;stroke-width:0.5;stroke-dasharray:5.0,5.0;" x1="92" x2="92" y1="67.4883" y2="443.2148"/></g><g><title>Backend</title><rect fill="#000000" fill-opacity="0.00000" height="375.7266" width="8" x="418.9946" y="67.4883"/><line style="stroke:#181818;stroke-width:0.5;stroke-dasharray:5.0,5.0;" x1="422.7759" x2="422.7759" y1="67.4883" y2="443.2148"/></g><g><title>S3 / Object Storage</title><rect fill="#000000" fill-opacity="0.00000" height="375.7266" width="8" x="537.4844" y="67.4883"/><line style="stroke:#181818;stroke-width:0.5;stroke-dasharray:5.0,5.0;" x1="541.2134" x2="541.2134" y1="67.4883" y2="443.2148"/></g><g><title>Database</title><rect fill="#000000" fill-opacity="0.00000" height="375.7266" width="8" x="655.0879" y="67.4883"/><line style="stroke:#181818;stroke-width:0.5;stroke-dasharray:5.0,5.0;" x1="658.7554" x2="658.7554" y1="67.4883" y2="443.2148"/></g><g class="participant participant-head" data-participant="pipeline"><rect fill="#90EE90" height="30.4883" rx="2.5" ry="2.5" style="stroke:#181818;stroke-width:0.5;" width="144.1836" x="20" y="36"/><text fill="#000000" font-family="sans-serif" font-size="14" lengthAdjust="spacing" textLength="130.1836" x="27" y="56.5352">Processing Pipeline</text></g><g class="participant participant-tail" data-participant="pipeline"><rect fill="#90EE90" height="30.4883" rx="2.5" ry="2.5" style="stroke:#181818;stroke-width:0.5;" width="144.1836" x="20" y="442.2148"/><text fill="#000000" font-family="sans-serif" font-size="14" lengthAdjust="spacing" textLength="130.1836" x="27" y="462.75">Processing Pipeline</text></g><g class="participant participant-head" data-participant="backend"><rect fill="#FFA500" height="30.4883" rx="2.5" ry="2.5" style="stroke:#181818;stroke-width:0.5;" width="70.4375" x="387.7759" y="36"/><text fill="#000000" font-family="sans-serif" font-size="14" lengthAdjust="spacing" textLength="56.4375" x="394.7759" y="56.5352">Backend</text></g><g class="participant participant-tail" data-participant="backend"><rect fill="#FFA500" height="30.4883" rx="2.5" ry="2.5" style="stroke:#181818;stroke-width:0.5;" width="70.4375" x="387.7759" y="442.2148"/><text fill="#000000" font-family="sans-serif" font-size="14" lengthAdjust="spacing" textLength="56.4375" x="394.7759" y="462.75">Backend</text></g><g class="participant participant-head" data-participant="s3"><rect fill="#D3D3D3" height="30.4883" rx="2.5" ry="2.5" style="stroke:#181818;stroke-width:0.5;" width="146.542" x="468.2134" y="36"/><text fill="#000000" font-family="sans-serif" font-size="14" lengthAdjust="spacing" textLength="132.542" x="475.2134" y="56.5352">S3 / Object Storage</text></g><g class="participant participant-tail" data-participant="s3"><rect fill="#D3D3D3" height="30.4883" rx="2.5" ry="2.5" style="stroke:#181818;stroke-width:0.5;" width="146.542" x="468.2134" y="442.2148"/><text fill="#000000" font-family="sans-serif" font-size="14" lengthAdjust="spacing" textLength="132.542" x="475.2134" y="462.75">S3 / Object Storage</text></g><g class="participant participant-head" data-participant="DB"><text fill="#000000" font-family="sans-serif" font-size="14" lengthAdjust="spacing" textLength="62.665" x="624.7554" y="64.5352">Database</text><path d="M641.0879,15 C641.0879,5 659.0879,5 659.0879,5 C659.0879,5 677.0879,5 677.0879,15 L677.0879,41 C677.0879,51 659.0879,51 659.0879,51 C659.0879,51 641.0879,51 641.0879,41 L641.0879,15" fill="#E2E2F0" style="stroke:#181818;stroke-width:1.5;"/><path d="M641.0879,15 C641.0879,25 659.0879,25 659.0879,25 C659.0879,25 677.0879,25 677.0879,15" fill="none" style="stroke:#181818;stroke-width:1.5;"/></g><g class="participant participant-tail" data-participant="DB"><text fill="#000000" font-family="sans-serif" font-size="14" lengthAdjust="spacing" textLength="62.665" x="624.7554" y="455.75">Database</text><path d="M641.0879,468.7031 C641.0879,458.7031 659.0879,458.7031 659.0879,458.7031 C659.0879,458.7031 677.0879,458.7031 677.0879,468.7031 L677.0879,494.7031 C677.0879,504.7031 659.0879,504.7031 659.0879,504.7031 C659.0879,504.7031 641.0879,504.7031 641.0879,494.7031 L641.0879,468.7031" fill="#E2E2F0" style="stroke:#181818;stroke-width:1.5;"/><path d="M641.0879,468.7031 C641.0879,478.7031 659.0879,478.7031 659.0879,478.7031 C659.0879,478.7031 677.0879,478.7031 677.0879,468.7031" fill="none" style="stroke:#181818;stroke-width:1.5;"/></g><g class="message" data-participant-1="pipeline" data-participant-2="backend"><polygon fill="#181818" points="410.9946,94.7988,420.9946,98.7988,410.9946,102.7988,414.9946,98.7988" style="stroke:#181818;stroke-width:1;"/><line style="stroke:#181818;stroke-width:1;" x1="92.0918" x2="416.9946" y1="98.7988" y2="98.7988"/><text fill="#000000" font-family="sans-serif" font-size="13" lengthAdjust="spacing" textLength="222.2441" x="99.0918" y="94.0566">request entries needing processing</text></g><g class="message" data-participant-1="backend" data-participant-2="DB"><polygon fill="#181818" points="647.0879,124.1094,657.0879,128.1094,647.0879,132.1094,651.0879,128.1094" style="stroke:#181818;stroke-width:1;"/><line style="stroke:#181818;stroke-width:1;" x1="422.9946" x2="653.0879" y1="128.1094" y2="128.1094"/><text fill="#000000" font-family="sans-serif" font-size="13" lengthAdjust="spacing" textLength="141.1655" x="429.9946" y="123.3672">fetch entries + file IDs</text></g><g class="message" data-participant-1="backend" data-participant-2="pipeline"><polygon fill="#181818" points="103.0918,153.4199,93.0918,157.4199,103.0918,161.4199,99.0918,157.4199" style="stroke:#181818;stroke-width:1;"/><line style="stroke:#181818;stroke-width:1;" x1="97.0918" x2="421.9946" y1="157.4199" y2="157.4199"/><text fill="#000000" font-family="sans-serif" font-size="13" lengthAdjust="spacing" textLength="262.5391" x="109.0918" y="152.6777">return entry data + pre-signed read URLs</text></g><path d="M10,172.4199 L84.4468,172.4199 L84.4468,179.7305 L74.4468,189.7305 L10,189.7305 L10,172.4199" fill="#EEEEEE" style="stroke:#000000;stroke-width:1.5;"/><rect fill="none" height="46.6211" style="stroke:#000000;stroke-width:1.5;" width="614.7554" x="10" y="172.4199"/><text fill="#000000" font-family="sans-serif" font-size="13" font-weight="bold" lengthAdjust="spacing" textLength="29.4468" x="25" y="185.9883">loop</text><text fill="#000000" font-family="sans-serif" font-size="11" font-weight="bold" lengthAdjust="spacing" textLength="76.1406" x="99.4468" y="185.0547">[for each file]</text><g class="message" data-participant-1="pipeline" data-participant-2="s3"><polygon fill="#181818" points="529.4844,207.041,539.4844,211.041,529.4844,215.041,533.4844,211.041" style="stroke:#181818;stroke-width:1;"/><line style="stroke:#181818;stroke-width:1;" x1="92.0918" x2="535.4844" y1="211.041" y2="211.041"/><text fill="#000000" font-family="sans-serif" font-size="13" lengthAdjust="spacing" textLength="226.3828" x="99.0918" y="206.2988">download file using pre-signed URL</text></g><g class="message" data-participant-1="pipeline" data-participant-2="backend"><polygon fill="#181818" points="410.9946,243.3516,420.9946,247.3516,410.9946,251.3516,414.9946,247.3516" style="stroke:#181818;stroke-width:1;"/><line style="stroke:#181818;stroke-width:1;" x1="92.0918" x2="416.9946" y1="247.3516" y2="247.3516"/><text fill="#000000" font-family="sans-serif" font-size="13" lengthAdjust="spacing" textLength="306.9028" x="99.0918" y="242.6094">request new pre-signed URLs for processed files</text></g><g class="message" data-participant-1="backend" data-participant-2="DB"><polygon fill="#181818" points="647.0879,272.6621,657.0879,276.6621,647.0879,280.6621,651.0879,276.6621" style="stroke:#181818;stroke-width:1;"/><line style="stroke:#181818;stroke-width:1;" x1="422.9946" x2="653.0879" y1="276.6621" y2="276.6621"/><text fill="#000000" font-family="sans-serif" font-size="13" lengthAdjust="spacing" textLength="109.3511" x="429.9946" y="271.9199">store new file IDs</text></g><g class="message" data-participant-1="backend" data-participant-2="pipeline"><polygon fill="#181818" points="103.0918,301.9727,93.0918,305.9727,103.0918,309.9727,99.0918,305.9727" style="stroke:#181818;stroke-width:1;"/><line style="stroke:#181818;stroke-width:1;" x1="97.0918" x2="421.9946" y1="305.9727" y2="305.9727"/><text fill="#000000" font-family="sans-serif" font-size="13" lengthAdjust="spacing" textLength="275.2153" x="109.0918" y="301.2305">return new pre-signed write URLs + file IDs</text></g><path d="M10,320.9727 L84.4468,320.9727 L84.4468,328.2832 L74.4468,338.2832 L10,338.2832 L10,320.9727" fill="#EEEEEE" style="stroke:#000000;stroke-width:1.5;"/><rect fill="none" height="46.6211" style="stroke:#000000;stroke-width:1.5;" width="614.7554" x="10" y="320.9727"/><text fill="#000000" font-family="sans-serif" font-size="13" font-weight="bold" lengthAdjust="spacing" textLength="29.4468" x="25" y="334.541">loop</text><text fill="#000000" font-family="sans-serif" font-size="11" font-weight="bold" lengthAdjust="spacing" textLength="137.5537" x="99.4468" y="333.6074">[for each processed file]</text><g class="message" data-participant-1="pipeline" data-participant-2="s3"><polygon fill="#181818" points="529.4844,355.5938,539.4844,359.5938,529.4844,363.5938,533.4844,359.5938" style="stroke:#181818;stroke-width:1;"/><line style="stroke:#181818;stroke-width:1;" x1="92.0918" x2="535.4844" y1="359.5938" y2="359.5938"/><text fill="#000000" font-family="sans-serif" font-size="13" lengthAdjust="spacing" textLength="243.6929" x="99.0918" y="354.8516">upload file using pre-signed write URL</text></g><g class="message" data-participant-1="pipeline" data-participant-2="backend"><polygon fill="#181818" points="410.9946,391.9043,420.9946,395.9043,410.9946,399.9043,414.9946,395.9043" style="stroke:#181818;stroke-width:1;"/><line style="stroke:#181818;stroke-width:1;" x1="92.0918" x2="416.9946" y1="395.9043" y2="395.9043"/><text fill="#000000" font-family="sans-serif" font-size="13" lengthAdjust="spacing" textLength="243.2422" x="99.0918" y="391.1621">submit processed file IDs + other data</text></g><g class="message" data-participant-1="backend" data-participant-2="DB"><polygon fill="#181818" points="647.0879,421.2148,657.0879,425.2148,647.0879,429.2148,651.0879,425.2148" style="stroke:#181818;stroke-width:1;"/><line style="stroke:#181818;stroke-width:1;" x1="422.9946" x2="653.0879" y1="425.2148" y2="425.2148"/><text fill="#000000" font-family="sans-serif" font-size="13" lengthAdjust="spacing" textLength="155.3843" x="429.9946" y="420.4727">store processed file data</text></g><!--SRC=[ZP71QiCm44Jl-Oh5EPRGWsy-z10CfH18QEW7oFRQKUjAgdPDoDzNNiMcLPFYcspjcvaT0G0uvLdNsYd3a1syhP58cmuEsc6l3MQW2Dpr0zOxtPtusIEQ5QJqLjKVQ1eXgdY6zTuhq-7VuMCEZx2lth5cEBBrgejMbCycwY9OerXLYX2oydgImNAxYgfJjitJv5g0nwy1YG4DUuq41h4PjtBpWi9EAGDQRWjeaUlJp3n0gtk4bvBIsSbozE716q4k4ZHGpkE6T6Um2TUgWRVN7SMelRKEMki1LV0PrULtkWNb1JJsR7eRQCamK0m_2mTDGST0e-g2AWoU4mMIBDTAC5hHhLuel0-AmE964hUprupHyqUjDqhvdUPkFOFxfvpPR6b5D5IVcXFlCM48Q_c4NfxsVZC9ACFV]--></g></svg>