<?xml version="1.0" encoding="us-ascii" standalone="no"?><svg xmlns="http://www.w3.org/2000/svg" xmlns:xlink="http://www.w3.org/1999/xlink" contentStyleType="text/css" height="700px" preserveAspectRatio="none" style="width:1012px;height:700px;background:#FFFFFF;" version="1.1" viewBox="0 0 1012 700" width="1012px" zoomAndPan="magnify"><defs/><g><rect fill="none" height="207.8672" style="stroke:#000000;stroke-width:1.5;" width="995.5" x="10" y="156.5625"/><rect fill="none" height="224.1953" style="stroke:#000000;stroke-width:1.5;" width="995.5" x="10" y="378.4297"/><line style="stroke:#181818;stroke-width:0.5;stroke-dasharray:5.0,5.0;" x1="38" x2="38" y1="81.2969" y2="619.625"/><line style="stroke:#181818;stroke-width:0.5;stroke-dasharray:5.0,5.0;" x1="378.5" x2="378.5" y1="81.2969" y2="619.625"/><line style="stroke:#181818;stroke-width:0.5;stroke-dasharray:5.0,5.0;" x1="718.5" x2="718.5" y1="81.2969" y2="619.625"/><line style="stroke:#181818;stroke-width:0.5;stroke-dasharray:5.0,5.0;" x1="959.5" x2="959.5" y1="81.2969" y2="619.625"/><text fill="#000000" font-family="sans-serif" font-size="14" lengthAdjust="spacing" textLength="31" x="20" y="77.9951">user</text><ellipse cx="38.5" cy="13.5" fill="#E2E2F0" rx="8" ry="8" style="stroke:#181818;stroke-width:0.5;"/><path d="M38.5,21.5 L38.5,48.5 M25.5,29.5 L51.5,29.5 M38.5,48.5 L25.5,63.5 M38.5,48.5 L51.5,63.5 " fill="none" style="stroke:#181818;stroke-width:0.5;"/><text fill="#000000" font-family="sans-serif" font-size="14" lengthAdjust="spacing" textLength="31" x="20" y="631.6201">user</text><ellipse cx="38.5" cy="643.4219" fill="#E2E2F0" rx="8" ry="8" style="stroke:#181818;stroke-width:0.5;"/><path d="M38.5,651.4219 L38.5,678.4219 M25.5,659.4219 L51.5,659.4219 M38.5,678.4219 L25.5,693.4219 M38.5,678.4219 L51.5,693.4219 " fill="none" style="stroke:#181818;stroke-width:0.5;"/><rect fill="#E0FFFF" height="30.2969" rx="2.5" ry="2.5" style="stroke:#181818;stroke-width:0.5;" width="166" x="295.5" y="50"/><text fill="#000000" font-family="sans-serif" font-size="14" lengthAdjust="spacing" textLength="152" x="302.5" y="69.9951">Pathoplexus Frontend</text><rect fill="#E0FFFF" height="30.2969" rx="2.5" ry="2.5" style="stroke:#181818;stroke-width:0.5;" width="166" x="295.5" y="618.625"/><text fill="#000000" font-family="sans-serif" font-size="14" lengthAdjust="spacing" textLength="152" x="302.5" y="638.6201">Pathoplexus Frontend</text><rect fill="#FFA500" height="30.2969" rx="2.5" ry="2.5" style="stroke:#181818;stroke-width:0.5;" width="164" x="636.5" y="50"/><text fill="#000000" font-family="sans-serif" font-size="14" lengthAdjust="spacing" textLength="150" x="643.5" y="69.9951">Pathoplexus Backend</text><rect fill="#FFA500" height="30.2969" rx="2.5" ry="2.5" style="stroke:#181818;stroke-width:0.5;" width="164" x="636.5" y="618.625"/><text fill="#000000" font-family="sans-serif" font-size="14" lengthAdjust="spacing" textLength="150" x="643.5" y="638.6201">Pathoplexus Backend</text><text fill="#000000" font-family="sans-serif" font-size="14" lengthAdjust="spacing" textLength="66" x="923.5" y="77.9951">Database</text><path d="M941.5,29 C941.5,19 959.5,19 959.5,19 C959.5,19 977.5,19 977.5,29 L977.5,55 C977.5,65 959.5,65 959.5,65 C959.5,65 941.5,65 941.5,55 L941.5,29 " fill="#E2E2F0" style="stroke:#181818;stroke-width:1.5;"/><path d="M941.5,29 C941.5,39 959.5,39 959.5,39 C959.5,39 977.5,39 977.5,29 " fill="none" style="stroke:#181818;stroke-width:1.5;"/><text fill="#000000" font-family="sans-serif" font-size="14" lengthAdjust="spacing" textLength="66" x="923.5" y="631.6201">Database</text><path d="M941.5,644.9219 C941.5,634.9219 959.5,634.9219 959.5,634.9219 C959.5,634.9219 977.5,634.9219 977.5,644.9219 L977.5,670.9219 C977.5,680.9219 959.5,680.9219 959.5,680.9219 C959.5,680.9219 941.5,680.9219 941.5,670.9219 L941.5,644.9219 " fill="#E2E2F0" style="stroke:#181818;stroke-width:1.5;"/><path d="M941.5,644.9219 C941.5,654.9219 959.5,654.9219 959.5,654.9219 C959.5,654.9219 977.5,654.9219 977.5,644.9219 " fill="none" style="stroke:#181818;stroke-width:1.5;"/><polygon fill="#181818" points="366.5,108.4297,376.5,112.4297,366.5,116.4297,370.5,112.4297" style="stroke:#181818;stroke-width:1.0;"/><line style="stroke:#181818;stroke-width:1.0;" x1="38.5" x2="372.5" y1="112.4297" y2="112.4297"/><text fill="#000000" font-family="sans-serif" font-size="13" lengthAdjust="spacing" textLength="288" x="45.5" y="107.3638">wants to revoke already processed sequence</text><polygon fill="#181818" points="706.5,137.5625,716.5,141.5625,706.5,145.5625,710.5,141.5625" style="stroke:#181818;stroke-width:1.0;"/><line style="stroke:#181818;stroke-width:1.0;" x1="378.5" x2="712.5" y1="141.5625" y2="141.5625"/><text fill="#000000" font-family="sans-serif" font-size="13" lengthAdjust="spacing" textLength="229" x="385.5" y="136.4966">query sequence that will be revoked</text><path d="M10,156.5625 L74,156.5625 L74,163.6953 L64,173.6953 L10,173.6953 L10,156.5625 " fill="#EEEEEE" style="stroke:#000000;stroke-width:1.5;"/><rect fill="none" height="207.8672" style="stroke:#000000;stroke-width:1.5;" width="995.5" x="10" y="156.5625"/><text fill="#000000" font-family="sans-serif" font-size="13" font-weight="bold" lengthAdjust="spacing" textLength="19" x="25" y="169.6294">alt</text><text fill="#000000" font-family="sans-serif" font-size="11" font-weight="bold" lengthAdjust="spacing" textLength="290" x="89" y="168.7729">[sequenceID with Status 'SILO_READY' exists]</text><polygon fill="#181818" points="947.5,221.0938,957.5,225.0938,947.5,229.0938,951.5,225.0938" style="stroke:#181818;stroke-width:1.0;"/><line style="stroke:#181818;stroke-width:1.0;" x1="718.5" x2="953.5" y1="225.0938" y2="225.0938"/><text fill="#000000" font-family="sans-serif" font-size="13" lengthAdjust="spacing" textLength="140" x="725.5" y="189.7622">copy latest revision to</text><text fill="#000000" font-family="sans-serif" font-size="13" lengthAdjust="spacing" textLength="148" x="725.5" y="204.895">new revision; omit data</text><text fill="#000000" font-family="sans-serif" font-size="13" lengthAdjust="spacing" textLength="217" x="725.5" y="220.0278">set status to 'REVOKED_STAGING'</text><polygon fill="#181818" points="389.5,250.2266,379.5,254.2266,389.5,258.2266,385.5,254.2266" style="stroke:#181818;stroke-width:1.0;"/><line style="stroke:#181818;stroke-width:1.0;" x1="383.5" x2="717.5" y1="254.2266" y2="254.2266"/><text fill="#000000" font-family="sans-serif" font-size="13" lengthAdjust="spacing" textLength="316" x="395.5" y="249.1606">response with sequenceId + new revision number</text><polygon fill="#181818" points="49.5,279.3594,39.5,283.3594,49.5,287.3594,45.5,283.3594" style="stroke:#181818;stroke-width:1.0;"/><line style="stroke:#181818;stroke-width:1.0;" x1="43.5" x2="377.5" y1="283.3594" y2="283.3594"/><text fill="#000000" font-family="sans-serif" font-size="13" lengthAdjust="spacing" textLength="316" x="55.5" y="278.2935">response with sequenceId + new revision number</text><line style="stroke:#000000;stroke-width:1.0;stroke-dasharray:2.0,2.0;" x1="10" x2="1005.5" y1="292.3594" y2="292.3594"/><text fill="#000000" font-family="sans-serif" font-size="11" font-weight="bold" lengthAdjust="spacing" textLength="343" x="15" y="302.5698">[sequenceID with Status 'SILO_READY' does not exist]</text><polygon fill="#181818" points="389.5,323.2969,379.5,327.2969,389.5,331.2969,385.5,327.2969" style="stroke:#181818;stroke-width:1.0;"/><line style="stroke:#181818;stroke-width:1.0;" x1="383.5" x2="717.5" y1="327.2969" y2="327.2969"/><text fill="#000000" font-family="sans-serif" font-size="13" lengthAdjust="spacing" textLength="186" x="395.5" y="322.231">response with error message</text><polygon fill="#181818" points="49.5,352.4297,39.5,356.4297,49.5,360.4297,45.5,356.4297" style="stroke:#181818;stroke-width:1.0;"/><line style="stroke:#181818;stroke-width:1.0;" x1="43.5" x2="377.5" y1="356.4297" y2="356.4297"/><text fill="#000000" font-family="sans-serif" font-size="13" lengthAdjust="spacing" textLength="186" x="55.5" y="351.3638">response with error message</text><path d="M10,378.4297 L74,378.4297 L74,385.5625 L64,395.5625 L10,395.5625 L10,378.4297 " fill="#EEEEEE" style="stroke:#000000;stroke-width:1.5;"/><rect fill="none" height="224.1953" style="stroke:#000000;stroke-width:1.5;" width="995.5" x="10" y="378.4297"/><text fill="#000000" font-family="sans-serif" font-size="13" font-weight="bold" lengthAdjust="spacing" textLength="19" x="25" y="391.4966">alt</text><polygon fill="#181818" points="366.5,412.6953,376.5,416.6953,366.5,420.6953,370.5,416.6953" style="stroke:#181818;stroke-width:1.0;"/><line style="stroke:#181818;stroke-width:1.0;" x1="38.5" x2="372.5" y1="416.6953" y2="416.6953"/><text fill="#000000" font-family="sans-serif" font-size="13" lengthAdjust="spacing" textLength="126" x="45.5" y="411.6294">confirms revocation</text><polygon fill="#181818" points="706.5,441.8281,716.5,445.8281,706.5,449.8281,710.5,445.8281" style="stroke:#181818;stroke-width:1.0;"/><line style="stroke:#181818;stroke-width:1.0;" x1="378.5" x2="712.5" y1="445.8281" y2="445.8281"/><text fill="#000000" font-family="sans-serif" font-size="13" lengthAdjust="spacing" textLength="126" x="385.5" y="440.7622">confirms revocation</text><polygon fill="#181818" points="947.5,470.9609,957.5,474.9609,947.5,478.9609,951.5,474.9609" style="stroke:#181818;stroke-width:1.0;"/><line style="stroke:#181818;stroke-width:1.0;" x1="718.5" x2="953.5" y1="474.9609" y2="474.9609"/><text fill="#000000" font-family="sans-serif" font-size="13" lengthAdjust="spacing" textLength="169" x="725.5" y="469.895">set status to 'SILO_READY'</text><line style="stroke:#000000;stroke-width:1.0;stroke-dasharray:2.0,2.0;" x1="10" x2="1005.5" y1="483.9609" y2="483.9609"/><polygon fill="#181818" points="366.5,502.0938,376.5,506.0938,366.5,510.0938,370.5,506.0938" style="stroke:#181818;stroke-width:1.0;"/><line style="stroke:#181818;stroke-width:1.0;" x1="38.5" x2="372.5" y1="506.0938" y2="506.0938"/><text fill="#000000" font-family="sans-serif" font-size="13" lengthAdjust="spacing" textLength="126" x="45.5" y="501.0278">confirms revocation</text><polygon fill="#181818" points="706.5,531.2266,716.5,535.2266,706.5,539.2266,710.5,535.2266" style="stroke:#181818;stroke-width:1.0;"/><line style="stroke:#181818;stroke-width:1.0;" x1="378.5" x2="712.5" y1="535.2266" y2="535.2266"/><text fill="#000000" font-family="sans-serif" font-size="13" lengthAdjust="spacing" textLength="119" x="385.5" y="530.1606">cancels revocation</text><polygon fill="#181818" points="947.5,590.625,957.5,594.625,947.5,598.625,951.5,594.625" style="stroke:#181818;stroke-width:1.0;"/><line style="stroke:#181818;stroke-width:1.0;" x1="718.5" x2="953.5" y1="594.625" y2="594.625"/><text fill="#000000" font-family="sans-serif" font-size="13" lengthAdjust="spacing" textLength="133" x="725.5" y="559.2935">delete latest revision</text><text fill="#000000" font-family="sans-serif" font-size="13" lengthAdjust="spacing" textLength="176" x="725.5" y="574.4263">with sequenceId and Status</text><text fill="#000000" font-family="sans-serif" font-size="13" lengthAdjust="spacing" textLength="132" x="725.5" y="589.5591">'REVOKED_STAGING'</text><!--SRC=[hL9TQo9147ptLnJwu4F87p1m46zDa8Hun70G44Axsz4XuypUJ7l6Vv_UZqn4FP4Z-pIpKrrTNLq0GBduW7NaqD4RIWfYSbEI4tH_aInzQVbz7N4Jl1DsHHSKyTfUqBitYwNyt98xNJsa_EspUDwSqPi4SWkk2miIcbDaTBFsL4EpOQT-hkJXyaVgEy16MqI8H-2__er1DZ0LMvJ1vnmZ5uZyPyqkvuQX-f9gPMf53A2Wi4rWo9846sCjvjno5mq3MKcmSQOOMM8g93fTVpg-dxmyZgwpvpxutKI9gUddjDep6mwG-t8BIy9HAdeJZNVL63FdU9F-NC6lZDIkw4jaxTnqKcJ_SVHxSZVANgPFrxVZXzj-Pw_Dbqc1O-crl16Rn1Uum6utkFLgtkv_rwFAzVyYOQlmSxmgF4SuBurfnppxrp0SWiPsfQkcDaBdg3-iKd1QRw8vZ5lktQi9grX78YVHWK_7wbJ1NYJsrhlZJpBpMvMHBiMU8wnWoy87QPsv_IIGrhJhdRdZ-LJQ3m00]--></g></svg>