<?xml version="1.0" encoding="us-ascii" standalone="no"?><svg xmlns="http://www.w3.org/2000/svg" xmlns:xlink="http://www.w3.org/1999/xlink" contentStyleType="text/css" height="1191px" preserveAspectRatio="none" style="width:1137px;height:1191px;background:#FFFFFF;" version="1.1" viewBox="0 0 1137 1191" width="1137px" zoomAndPan="magnify"><defs/><g><rect fill="none" height="148.4688" style="stroke:#000000;stroke-width:1.5;" width="1111.5" x="10" y="113.4297"/><rect fill="none" height="610.7891" style="stroke:#000000;stroke-width:1.5;" width="1121.5" x="10" y="311.0313"/><rect fill="none" height="96.5313" style="stroke:#000000;stroke-width:1.5;" width="592" x="104" y="509.9609"/><rect fill="none" height="135.6641" style="stroke:#000000;stroke-width:1.5;" width="584" x="537.5" y="620.4922"/><line style="stroke:#181818;stroke-width:0.5;stroke-dasharray:5.0,5.0;" x1="109" x2="109" y1="67.2969" y2="1113.6172"/><line style="stroke:#181818;stroke-width:0.5;stroke-dasharray:5.0,5.0;" x1="371" x2="371" y1="67.2969" y2="1113.6172"/><line style="stroke:#181818;stroke-width:0.5;stroke-dasharray:5.0,5.0;" x1="613.5" x2="613.5" y1="67.2969" y2="1113.6172"/><line style="stroke:#181818;stroke-width:0.5;stroke-dasharray:5.0,5.0;" x1="1075.5" x2="1075.5" y1="67.2969" y2="1113.6172"/><rect fill="#E0FFFF" height="30.2969" rx="2.5" ry="2.5" style="stroke:#181818;stroke-width:0.5;" width="179" x="20" y="36"/><text fill="#000000" font-family="sans-serif" font-size="14" lengthAdjust="spacing" textLength="165" x="27" y="55.9951">Loculus Frontend / User</text><rect fill="#E0FFFF" height="30.2969" rx="2.5" ry="2.5" style="stroke:#181818;stroke-width:0.5;" width="179" x="20" y="1112.6172"/><text fill="#000000" font-family="sans-serif" font-size="14" lengthAdjust="spacing" textLength="165" x="27" y="1132.6123">Loculus Frontend / User</text><rect fill="#90EE90" height="30.2969" rx="2.5" ry="2.5" style="stroke:#181818;stroke-width:0.5;" width="187" x="278" y="36"/><text fill="#000000" font-family="sans-serif" font-size="14" lengthAdjust="spacing" textLength="173" x="285" y="55.9951">(Pre-)Processing Pipeline</text><rect fill="#90EE90" height="30.2969" rx="2.5" ry="2.5" style="stroke:#181818;stroke-width:0.5;" width="187" x="278" y="1112.6172"/><text fill="#000000" font-family="sans-serif" font-size="14" lengthAdjust="spacing" textLength="173" x="285" y="1132.6123">(Pre-)Processing Pipeline</text><rect fill="#FFA500" height="30.2969" rx="2.5" ry="2.5" style="stroke:#181818;stroke-width:0.5;" width="132" x="547.5" y="36"/><text fill="#000000" font-family="sans-serif" font-size="14" lengthAdjust="spacing" textLength="118" x="554.5" y="55.9951">Loculus Backend</text><rect fill="#FFA500" height="30.2969" rx="2.5" ry="2.5" style="stroke:#181818;stroke-width:0.5;" width="132" x="547.5" y="1112.6172"/><text fill="#000000" font-family="sans-serif" font-size="14" lengthAdjust="spacing" textLength="118" x="554.5" y="1132.6123">Loculus Backend</text><text fill="#000000" font-family="sans-serif" font-size="14" lengthAdjust="spacing" textLength="66" x="1039.5" y="63.9951">Database</text><path d="M1057.5,15 C1057.5,5 1075.5,5 1075.5,5 C1075.5,5 1093.5,5 1093.5,15 L1093.5,41 C1093.5,51 1075.5,51 1075.5,51 C1075.5,51 1057.5,51 1057.5,41 L1057.5,15 " fill="#E2E2F0" style="stroke:#181818;stroke-width:1.5;"/><path d="M1057.5,15 C1057.5,25 1075.5,25 1075.5,25 C1075.5,25 1093.5,25 1093.5,15 " fill="none" style="stroke:#181818;stroke-width:1.5;"/><text fill="#000000" font-family="sans-serif" font-size="14" lengthAdjust="spacing" textLength="66" x="1039.5" y="1125.6123">Database</text><path d="M1057.5,1138.9141 C1057.5,1128.9141 1075.5,1128.9141 1075.5,1128.9141 C1075.5,1128.9141 1093.5,1128.9141 1093.5,1138.9141 L1093.5,1164.9141 C1093.5,1174.9141 1075.5,1174.9141 1075.5,1174.9141 C1075.5,1174.9141 1057.5,1174.9141 1057.5,1164.9141 L1057.5,1138.9141 " fill="#E2E2F0" style="stroke:#181818;stroke-width:1.5;"/><path d="M1057.5,1138.9141 C1057.5,1148.9141 1075.5,1148.9141 1075.5,1148.9141 C1075.5,1148.9141 1093.5,1148.9141 1093.5,1138.9141 " fill="none" style="stroke:#181818;stroke-width:1.5;"/><polygon fill="#181818" points="601.5,94.4297,611.5,98.4297,601.5,102.4297,605.5,98.4297" style="stroke:#181818;stroke-width:1.0;"/><line style="stroke:#181818;stroke-width:1.0;" x1="109.5" x2="607.5" y1="98.4297" y2="98.4297"/><text fill="#000000" font-family="sans-serif" font-size="13" lengthAdjust="spacing" textLength="180" x="116.5" y="93.3638">submit initial sequence data</text><path d="M10,113.4297 L74,113.4297 L74,120.5625 L64,130.5625 L10,130.5625 L10,113.4297 " fill="#EEEEEE" style="stroke:#000000;stroke-width:1.5;"/><rect fill="none" height="148.4688" style="stroke:#000000;stroke-width:1.5;" width="1111.5" x="10" y="113.4297"/><text fill="#000000" font-family="sans-serif" font-size="13" font-weight="bold" lengthAdjust="spacing" textLength="19" x="25" y="126.4966">alt</text><text fill="#000000" font-family="sans-serif" font-size="11" font-weight="bold" lengthAdjust="spacing" textLength="261" x="89" y="125.6401">[Sequence and Metadata Files are valid]</text><polygon fill="#181818" points="120.5,147.6953,110.5,151.6953,120.5,155.6953,116.5,151.6953" style="stroke:#181818;stroke-width:1.0;"/><line style="stroke:#181818;stroke-width:1.0;" x1="114.5" x2="612.5" y1="151.6953" y2="151.6953"/><text fill="#000000" font-family="sans-serif" font-size="13" lengthAdjust="spacing" textLength="162" x="126.5" y="146.6294">response with accessions</text><polygon fill="#181818" points="1063.5,176.8281,1073.5,180.8281,1063.5,184.8281,1067.5,180.8281" style="stroke:#181818;stroke-width:1.0;"/><line style="stroke:#181818;stroke-width:1.0;" x1="613.5" x2="1069.5" y1="180.8281" y2="180.8281"/><text fill="#000000" font-family="sans-serif" font-size="13" lengthAdjust="spacing" textLength="171" x="620.5" y="175.7622">Store initial sequence data</text><polygon fill="#181818" points="1063.5,205.9609,1073.5,209.9609,1063.5,213.9609,1067.5,209.9609" style="stroke:#181818;stroke-width:1.0;"/><line style="stroke:#181818;stroke-width:1.0;" x1="613.5" x2="1069.5" y1="209.9609" y2="209.9609"/><text fill="#000000" font-family="sans-serif" font-size="13" lengthAdjust="spacing" textLength="154" x="620.5" y="204.895">set status to 'RECEIVED'</text><line style="stroke:#000000;stroke-width:1.0;stroke-dasharray:2.0,2.0;" x1="10" x2="1121.5" y1="218.9609" y2="218.9609"/><text fill="#000000" font-family="sans-serif" font-size="11" font-weight="bold" lengthAdjust="spacing" textLength="273" x="15" y="229.1714">[Sequence and Metadata Files are invalid]</text><polygon fill="#181818" points="120.5,249.8984,110.5,253.8984,120.5,257.8984,116.5,253.8984" style="stroke:#181818;stroke-width:1.0;"/><line style="stroke:#181818;stroke-width:1.0;" x1="114.5" x2="612.5" y1="253.8984" y2="253.8984"/><text fill="#000000" font-family="sans-serif" font-size="13" lengthAdjust="spacing" textLength="123" x="126.5" y="248.8325">response with error</text><path d="M114,273.8984 L114,298.8984 L525,298.8984 L525,283.8984 L515,273.8984 L114,273.8984 " fill="#FEFFDD" style="stroke:#181818;stroke-width:0.5;"/><path d="M515,273.8984 L515,283.8984 L525,283.8984 L515,273.8984 " fill="#FEFFDD" style="stroke:#181818;stroke-width:0.5;"/><text fill="#000000" font-family="sans-serif" font-size="13" lengthAdjust="spacing" textLength="390" x="120" y="290.9653">In the following we assume initial raw sequence data are valid</text><path d="M10,311.0313 L87,311.0313 L87,318.1641 L77,328.1641 L10,328.1641 L10,311.0313 " fill="#EEEEEE" style="stroke:#000000;stroke-width:1.5;"/><rect fill="none" height="610.7891" style="stroke:#000000;stroke-width:1.5;" width="1121.5" x="10" y="311.0313"/><text fill="#000000" font-family="sans-serif" font-size="13" font-weight="bold" lengthAdjust="spacing" textLength="32" x="25" y="324.0981">loop</text><text fill="#000000" font-family="sans-serif" font-size="11" font-weight="bold" lengthAdjust="spacing" textLength="175" x="102" y="323.2417">[until no processing errors]</text><polygon fill="#181818" points="601.5,345.2969,611.5,349.2969,601.5,353.2969,605.5,349.2969" style="stroke:#181818;stroke-width:1.0;"/><line style="stroke:#181818;stroke-width:1.0;" x1="371.5" x2="607.5" y1="349.2969" y2="349.2969"/><text fill="#000000" font-family="sans-serif" font-size="13" lengthAdjust="spacing" textLength="218" x="378.5" y="344.231">Query initial/edited sequence data</text><polygon fill="#181818" points="1063.5,374.4297,1073.5,378.4297,1063.5,382.4297,1067.5,378.4297" style="stroke:#181818;stroke-width:1.0;"/><line style="stroke:#181818;stroke-width:1.0;" x1="613.5" x2="1069.5" y1="378.4297" y2="378.4297"/><text fill="#000000" font-family="sans-serif" font-size="13" lengthAdjust="spacing" textLength="218" x="620.5" y="373.3638">Query initial/edited sequence data</text><polygon fill="#181818" points="1063.5,403.5625,1073.5,407.5625,1063.5,411.5625,1067.5,407.5625" style="stroke:#181818;stroke-width:1.0;"/><line style="stroke:#181818;stroke-width:1.0;" x1="613.5" x2="1069.5" y1="407.5625" y2="407.5625"/><text fill="#000000" font-family="sans-serif" font-size="13" lengthAdjust="spacing" textLength="400" x="620.5" y="402.4966">Set status from 'RECEIVED'/'HAS_ERRORS' to 'IN_PROCESSING'</text><polygon fill="#181818" points="624.5,432.6953,614.5,436.6953,624.5,440.6953,620.5,436.6953" style="stroke:#181818;stroke-width:1.0;"/><line style="stroke:#181818;stroke-width:1.0;stroke-dasharray:2.0,2.0;" x1="618.5" x2="1074.5" y1="436.6953" y2="436.6953"/><text fill="#000000" font-family="sans-serif" font-size="13" lengthAdjust="spacing" textLength="176" x="630.5" y="431.6294">initial/edited sequence data</text><polygon fill="#181818" points="382.5,461.8281,372.5,465.8281,382.5,469.8281,378.5,465.8281" style="stroke:#181818;stroke-width:1.0;"/><line style="stroke:#181818;stroke-width:1.0;stroke-dasharray:2.0,2.0;" x1="376.5" x2="612.5" y1="465.8281" y2="465.8281"/><text fill="#000000" font-family="sans-serif" font-size="13" lengthAdjust="spacing" textLength="176" x="388.5" y="460.7622">initial/edited sequence data</text><polygon fill="#181818" points="601.5,490.9609,611.5,494.9609,601.5,498.9609,605.5,494.9609" style="stroke:#181818;stroke-width:1.0;"/><line style="stroke:#181818;stroke-width:1.0;" x1="371.5" x2="607.5" y1="494.9609" y2="494.9609"/><text fill="#000000" font-family="sans-serif" font-size="13" lengthAdjust="spacing" textLength="213" x="378.5" y="489.895">submit processed sequence data</text><path d="M104,509.9609 L168,509.9609 L168,517.0938 L158,527.0938 L104,527.0938 L104,509.9609 " fill="#EEEEEE" style="stroke:#000000;stroke-width:1.5;"/><rect fill="none" height="96.5313" style="stroke:#000000;stroke-width:1.5;" width="592" x="104" y="509.9609"/><text fill="#000000" font-family="sans-serif" font-size="13" font-weight="bold" lengthAdjust="spacing" textLength="19" x="119" y="523.0278">alt</text><text fill="#000000" font-family="sans-serif" font-size="11" font-weight="bold" lengthAdjust="spacing" textLength="155" x="183" y="522.1714">[validation errors occur]</text><polygon fill="#181818" points="382.5,544.2266,372.5,548.2266,382.5,552.2266,378.5,548.2266" style="stroke:#181818;stroke-width:1.0;"/><line style="stroke:#181818;stroke-width:1.0;" x1="376.5" x2="612.5" y1="548.2266" y2="548.2266"/><text fill="#000000" font-family="sans-serif" font-size="13" lengthAdjust="spacing" textLength="195" x="388.5" y="543.1606">response with validation errors</text><path d="M114,561.2266 L114,601.2266 L686,601.2266 L686,571.2266 L676,561.2266 L114,561.2266 " fill="#FEFFDD" style="stroke:#181818;stroke-width:0.5;"/><path d="M676,561.2266 L676,571.2266 L686,571.2266 L676,561.2266 " fill="#FEFFDD" style="stroke:#181818;stroke-width:0.5;"/><text fill="#000000" font-family="sans-serif" font-size="13" lengthAdjust="spacing" textLength="551" x="120" y="578.2935">Validation error are probably only redeemable by changing the pre-processing pipeline</text><text fill="#000000" font-family="sans-serif" font-size="13" lengthAdjust="spacing" textLength="380" x="120" y="593.4263">In the following we assume that no validation error occurred</text><path d="M537.5,620.4922 L601.5,620.4922 L601.5,627.625 L591.5,637.625 L537.5,637.625 L537.5,620.4922 " fill="#EEEEEE" style="stroke:#000000;stroke-width:1.5;"/><rect fill="none" height="135.6641" style="stroke:#000000;stroke-width:1.5;" width="584" x="537.5" y="620.4922"/><text fill="#000000" font-family="sans-serif" font-size="13" font-weight="bold" lengthAdjust="spacing" textLength="19" x="552.5" y="633.5591">alt</text><text fill="#000000" font-family="sans-serif" font-size="11" font-weight="bold" lengthAdjust="spacing" textLength="343" x="616.5" y="632.7026">[processed sequence data contain processing errors]</text><polygon fill="#181818" points="1063.5,654.7578,1073.5,658.7578,1063.5,662.7578,1067.5,658.7578" style="stroke:#181818;stroke-width:1.0;"/><line style="stroke:#181818;stroke-width:1.0;" x1="613.5" x2="1069.5" y1="658.7578" y2="658.7578"/><text fill="#000000" font-family="sans-serif" font-size="13" lengthAdjust="spacing" textLength="275" x="620.5" y="653.6919">Store processed sequence data with errors</text><polygon fill="#181818" points="1063.5,683.8906,1073.5,687.8906,1063.5,691.8906,1067.5,687.8906" style="stroke:#181818;stroke-width:1.0;"/><line style="stroke:#181818;stroke-width:1.0;" x1="613.5" x2="1069.5" y1="687.8906" y2="687.8906"/><text fill="#000000" font-family="sans-serif" font-size="13" lengthAdjust="spacing" textLength="177" x="620.5" y="682.8247">set status to 'HAS_ERRORS'</text><line style="stroke:#000000;stroke-width:1.0;stroke-dasharray:2.0,2.0;" x1="537.5" x2="1121.5" y1="696.8906" y2="696.8906"/><polygon fill="#181818" points="1063.5,715.0234,1073.5,719.0234,1063.5,723.0234,1067.5,719.0234" style="stroke:#181818;stroke-width:1.0;"/><line style="stroke:#181818;stroke-width:1.0;" x1="613.5" x2="1069.5" y1="719.0234" y2="719.0234"/><text fill="#000000" font-family="sans-serif" font-size="13" lengthAdjust="spacing" textLength="296" x="620.5" y="713.9575">Store processed sequence data without errors</text><polygon fill="#181818" points="1063.5,744.1563,1073.5,748.1563,1063.5,752.1563,1067.5,748.1563" style="stroke:#181818;stroke-width:1.0;"/><line style="stroke:#181818;stroke-width:1.0;" x1="613.5" x2="1069.5" y1="748.1563" y2="748.1563"/><text fill="#000000" font-family="sans-serif" font-size="13" lengthAdjust="spacing" textLength="228" x="620.5" y="743.0903">set status to 'AWAITING_APPROVAL'</text><polygon fill="#181818" points="601.5,780.2891,611.5,784.2891,601.5,788.2891,605.5,784.2891" style="stroke:#181818;stroke-width:1.0;"/><line style="stroke:#181818;stroke-width:1.0;" x1="109.5" x2="607.5" y1="784.2891" y2="784.2891"/><text fill="#000000" font-family="sans-serif" font-size="13" lengthAdjust="spacing" textLength="276" x="116.5" y="779.2231">query processed sequence data with errors</text><line style="stroke:#181818;stroke-width:1.0;" x1="109.5" x2="151.5" y1="813.4219" y2="813.4219"/><line style="stroke:#181818;stroke-width:1.0;" x1="151.5" x2="151.5" y1="813.4219" y2="826.4219"/><line style="stroke:#181818;stroke-width:1.0;" x1="110.5" x2="151.5" y1="826.4219" y2="826.4219"/><polygon fill="#181818" points="120.5,822.4219,110.5,826.4219,120.5,830.4219,116.5,826.4219" style="stroke:#181818;stroke-width:1.0;"/><text fill="#000000" font-family="sans-serif" font-size="13" lengthAdjust="spacing" textLength="248" x="116.5" y="808.356">address errors and edit sequence data</text><polygon fill="#181818" points="601.5,851.5547,611.5,855.5547,601.5,859.5547,605.5,855.5547" style="stroke:#181818;stroke-width:1.0;"/><line style="stroke:#181818;stroke-width:1.0;" x1="109.5" x2="607.5" y1="855.5547" y2="855.5547"/><text fill="#000000" font-family="sans-serif" font-size="13" lengthAdjust="spacing" textLength="187" x="116.5" y="850.4888">submit edited sequence data</text><polygon fill="#181818" points="1063.5,880.6875,1073.5,884.6875,1063.5,888.6875,1067.5,884.6875" style="stroke:#181818;stroke-width:1.0;"/><line style="stroke:#181818;stroke-width:1.0;" x1="613.5" x2="1069.5" y1="884.6875" y2="884.6875"/><text fill="#000000" font-family="sans-serif" font-size="13" lengthAdjust="spacing" textLength="176" x="620.5" y="879.6216">store edited sequence data</text><polygon fill="#181818" points="1063.5,909.8203,1073.5,913.8203,1063.5,917.8203,1067.5,913.8203" style="stroke:#181818;stroke-width:1.0;"/><line style="stroke:#181818;stroke-width:1.0;" x1="613.5" x2="1069.5" y1="913.8203" y2="913.8203"/><text fill="#000000" font-family="sans-serif" font-size="13" lengthAdjust="spacing" textLength="154" x="620.5" y="908.7544">set status to 'RECEIVED'</text><polygon fill="#181818" points="601.5,945.9531,611.5,949.9531,601.5,953.9531,605.5,949.9531" style="stroke:#181818;stroke-width:1.0;"/><line style="stroke:#181818;stroke-width:1.0;" x1="109.5" x2="607.5" y1="949.9531" y2="949.9531"/><text fill="#000000" font-family="sans-serif" font-size="13" lengthAdjust="spacing" textLength="207" x="116.5" y="944.8872">Query processed sequence data</text><polygon fill="#181818" points="1063.5,975.0859,1073.5,979.0859,1063.5,983.0859,1067.5,979.0859" style="stroke:#181818;stroke-width:1.0;"/><line style="stroke:#181818;stroke-width:1.0;" x1="613.5" x2="1069.5" y1="979.0859" y2="979.0859"/><text fill="#000000" font-family="sans-serif" font-size="13" lengthAdjust="spacing" textLength="207" x="620.5" y="974.02">Query processed sequence data</text><polygon fill="#181818" points="624.5,1004.2188,614.5,1008.2188,624.5,1012.2188,620.5,1008.2188" style="stroke:#181818;stroke-width:1.0;"/><line style="stroke:#181818;stroke-width:1.0;" x1="618.5" x2="1074.5" y1="1008.2188" y2="1008.2188"/><text fill="#000000" font-family="sans-serif" font-size="13" lengthAdjust="spacing" textLength="165" x="630.5" y="1003.1528">processed sequence data</text><polygon fill="#181818" points="120.5,1033.3516,110.5,1037.3516,120.5,1041.3516,116.5,1037.3516" style="stroke:#181818;stroke-width:1.0;"/><line style="stroke:#181818;stroke-width:1.0;" x1="114.5" x2="612.5" y1="1037.3516" y2="1037.3516"/><text fill="#000000" font-family="sans-serif" font-size="13" lengthAdjust="spacing" textLength="165" x="126.5" y="1032.2856">processed sequence data</text><polygon fill="#181818" points="601.5,1062.4844,611.5,1066.4844,601.5,1070.4844,605.5,1066.4844" style="stroke:#181818;stroke-width:1.0;"/><line style="stroke:#181818;stroke-width:1.0;" x1="109.5" x2="607.5" y1="1066.4844" y2="1066.4844"/><text fill="#000000" font-family="sans-serif" font-size="13" lengthAdjust="spacing" textLength="221" x="116.5" y="1061.4185">approve processed sequence data</text><polygon fill="#181818" points="1063.5,1091.6172,1073.5,1095.6172,1063.5,1099.6172,1067.5,1095.6172" style="stroke:#181818;stroke-width:1.0;"/><line style="stroke:#181818;stroke-width:1.0;" x1="613.5" x2="1069.5" y1="1095.6172" y2="1095.6172"/><text fill="#000000" font-family="sans-serif" font-size="13" lengthAdjust="spacing" textLength="438" x="620.5" y="1090.5513">set status from 'AWAITING_APPROVAL' to 'APPROVED_FOR_RELEASE'</text><!--SRC=[fLLDSvim4BtxL-mu1zf3nlSSEkCFadh6ZHretQD7XasiAPQ89EBnl-zADY0JGqBBWG59x-tksmy10EHC6Pxmd0a3muLCYgpGSA-aC2XI6C4lZMe8JCDpkNQpu2yxCpqoCO0cmPULmjklAoKJr9gB5rZn73Ckq57azVg9v44XNc4ftPYmv0zPTDZjwHjkbeg95tIWb1csPHfXE3j_kQEpoS1jLnxVVYlXTw2BxPuRu88RpZBG-5gWID1nEHJB3CJbAYFq3pJCxi8zpr03KmXlBEEfEssVqZKoKvgy0uKwbu9yEt2p0vQum6dX6ceskOFOI29kT-iAHAC1RPWXfOo480gduNmTpW9t7ZEo_L4SNFIE19MIwcH1f4vd8Gs2ika4-LpXpfnp0MQ7y2opJ1viuW_aZDR5levLiSDbl9SIMt-iYLDECobpA8JX6Itw1UNyqeCg56_BJ_zJWUfOcXvXoWscdrFxtv5ndITIP-zbQXHy7yURC8gMKHou9CuVDwjeEGtZUFxu45ICimdS-c7qSuEGjHmVW3yIyDm_vzrMsxQBN0gPeQe_PmTaaXIgEjEGodVnikRU4LrGT1UW_wmRFAxGoEoMRRCZI44lXIdYdluHjaT8TZHhh0AsXdCQRPue-NcoNR7JKVHcnuojt6P89sd8UfEkAdz_mNR1u4Bhbdn0Gc8mBgvqIaiMwbdKHbcFWKwIndJo2hqEXMRK__aX2zFVbV7lyVmdjTTclA9UMuyNWIzkJNJr_dXrOw2FDZvDFLLPcbAHwx8px82s_TZMZLrtMPzPf9salH2TjqnLZEqtxbENOeFMITi5iEFGi_19xbhyDa1x42mdp1ls2KCtn_xxkZkLe_iBPvlxPRI9maKuZiDWy1S0]--></g></svg>