<?xml version="1.0" encoding="us-ascii" standalone="no"?><svg xmlns="http://www.w3.org/2000/svg" xmlns:xlink="http://www.w3.org/1999/xlink" contentStyleType="text/css" height="363px" preserveAspectRatio="none" style="width:786px;height:363px;background:#FFFFFF;" version="1.1" viewBox="0 0 786 363" width="786px" zoomAndPan="magnify"><defs/><g><rect fill="none" height="119.3359" style="stroke:#000000;stroke-width:1.5;" width="769.5" x="10" y="113.4297"/><line style="stroke:#181818;stroke-width:0.5;stroke-dasharray:5.0,5.0;" x1="125" x2="125" y1="67.2969" y2="284.8984"/><line style="stroke:#181818;stroke-width:0.5;stroke-dasharray:5.0,5.0;" x1="462.5" x2="462.5" y1="67.2969" y2="284.8984"/><line style="stroke:#181818;stroke-width:0.5;stroke-dasharray:5.0,5.0;" x1="733.5" x2="733.5" y1="67.2969" y2="284.8984"/><rect fill="#E0FFFF" height="30.2969" rx="2.5" ry="2.5" style="stroke:#181818;stroke-width:0.5;" width="211" x="20" y="36"/><text fill="#000000" font-family="sans-serif" font-size="14" lengthAdjust="spacing" textLength="197" x="27" y="55.9951">Pathoplexus Frontend / User</text><rect fill="#E0FFFF" height="30.2969" rx="2.5" ry="2.5" style="stroke:#181818;stroke-width:0.5;" width="211" x="20" y="283.8984"/><text fill="#000000" font-family="sans-serif" font-size="14" lengthAdjust="spacing" textLength="197" x="27" y="303.8936">Pathoplexus Frontend / User</text><rect fill="#FFA500" height="30.2969" rx="2.5" ry="2.5" style="stroke:#181818;stroke-width:0.5;" width="164" x="380.5" y="36"/><text fill="#000000" font-family="sans-serif" font-size="14" lengthAdjust="spacing" textLength="150" x="387.5" y="55.9951">Pathoplexus Backend</text><rect fill="#FFA500" height="30.2969" rx="2.5" ry="2.5" style="stroke:#181818;stroke-width:0.5;" width="164" x="380.5" y="283.8984"/><text fill="#000000" font-family="sans-serif" font-size="14" lengthAdjust="spacing" textLength="150" x="387.5" y="303.8936">Pathoplexus Backend</text><text fill="#000000" font-family="sans-serif" font-size="14" lengthAdjust="spacing" textLength="66" x="697.5" y="63.9951">Database</text><path d="M715.5,15 C715.5,5 733.5,5 733.5,5 C733.5,5 751.5,5 751.5,15 L751.5,41 C751.5,51 733.5,51 733.5,51 C733.5,51 715.5,51 715.5,41 L715.5,15 " fill="#E2E2F0" style="stroke:#181818;stroke-width:1.5;"/><path d="M715.5,15 C715.5,25 733.5,25 733.5,25 C733.5,25 751.5,25 751.5,15 " fill="none" style="stroke:#181818;stroke-width:1.5;"/><text fill="#000000" font-family="sans-serif" font-size="14" lengthAdjust="spacing" textLength="66" x="697.5" y="296.8936">Database</text><path d="M715.5,310.1953 C715.5,300.1953 733.5,300.1953 733.5,300.1953 C733.5,300.1953 751.5,300.1953 751.5,310.1953 L751.5,336.1953 C751.5,346.1953 733.5,346.1953 733.5,346.1953 C733.5,346.1953 715.5,346.1953 715.5,336.1953 L715.5,310.1953 " fill="#E2E2F0" style="stroke:#181818;stroke-width:1.5;"/><path d="M715.5,310.1953 C715.5,320.1953 733.5,320.1953 733.5,320.1953 C733.5,320.1953 751.5,320.1953 751.5,310.1953 " fill="none" style="stroke:#181818;stroke-width:1.5;"/><polygon fill="#181818" points="450.5,94.4297,460.5,98.4297,450.5,102.4297,454.5,98.4297" style="stroke:#181818;stroke-width:1.0;"/><line style="stroke:#181818;stroke-width:1.0;" x1="125.5" x2="456.5" y1="98.4297" y2="98.4297"/><text fill="#000000" font-family="sans-serif" font-size="13" lengthAdjust="spacing" textLength="300" x="132.5" y="93.3638">submit corrected data for existing sequenceIds</text><path d="M10,113.4297 L74,113.4297 L74,120.5625 L64,130.5625 L10,130.5625 L10,113.4297 " fill="#EEEEEE" style="stroke:#000000;stroke-width:1.5;"/><rect fill="none" height="119.3359" style="stroke:#000000;stroke-width:1.5;" width="769.5" x="10" y="113.4297"/><text fill="#000000" font-family="sans-serif" font-size="13" font-weight="bold" lengthAdjust="spacing" textLength="19" x="25" y="126.4966">alt</text><text fill="#000000" font-family="sans-serif" font-size="11" font-weight="bold" lengthAdjust="spacing" textLength="359" x="89" y="125.6401">[sequenceID exists and highest version is 'SILO_READY']</text><polygon fill="#181818" points="721.5,147.6953,731.5,151.6953,721.5,155.6953,725.5,151.6953" style="stroke:#181818;stroke-width:1.0;"/><line style="stroke:#181818;stroke-width:1.0;" x1="462.5" x2="727.5" y1="151.6953" y2="151.6953"/><text fill="#000000" font-family="sans-serif" font-size="13" lengthAdjust="spacing" textLength="247" x="469.5" y="146.6294">insert new version in status 'RECEIVED'</text><polygon fill="#181818" points="136.5,176.8281,126.5,180.8281,136.5,184.8281,132.5,180.8281" style="stroke:#181818;stroke-width:1.0;"/><line style="stroke:#181818;stroke-width:1.0;" x1="130.5" x2="461.5" y1="180.8281" y2="180.8281"/><text fill="#000000" font-family="sans-serif" font-size="13" lengthAdjust="spacing" textLength="313" x="142.5" y="175.7622">response with sequenceId + new version number</text><line style="stroke:#000000;stroke-width:1.0;stroke-dasharray:2.0,2.0;" x1="10" x2="779.5" y1="189.8281" y2="189.8281"/><text fill="#000000" font-family="sans-serif" font-size="11" font-weight="bold" lengthAdjust="spacing" textLength="343" x="15" y="200.0386">[sequenceID with Status 'SILO_READY' does not exist]</text><polygon fill="#181818" points="136.5,220.7656,126.5,224.7656,136.5,228.7656,132.5,224.7656" style="stroke:#181818;stroke-width:1.0;"/><line style="stroke:#181818;stroke-width:1.0;" x1="130.5" x2="461.5" y1="224.7656" y2="224.7656"/><text fill="#000000" font-family="sans-serif" font-size="13" lengthAdjust="spacing" textLength="186" x="142.5" y="219.6997">response with error message</text><path d="M130,244.7656 L130,269.7656 L585,269.7656 L585,254.7656 L575,244.7656 L130,244.7656 " fill="#FEFFDD" style="stroke:#181818;stroke-width:0.5;"/><path d="M575,244.7656 L575,254.7656 L585,254.7656 L575,244.7656 " fill="#FEFFDD" style="stroke:#181818;stroke-width:0.5;"/><text fill="#000000" font-family="sans-serif" font-size="13" lengthAdjust="spacing" textLength="434" x="136" y="261.8325">At this point the same flow applies as if this was an inital submission</text><!--SRC=[VL71Ji905Bpp5HCuS336EmSJe9YGa60WcdWoZ_QLRcntwxw7nRztkwLO4xMdb-tCl9bv052JLvEQcgnY_4XQkBhayqdmu9rLjXdky2Jino11thzDDkPOwFAJx0Z_YImeVGluI3vqCoPRJ_R8aPYHqe64CKukKuGcYz4e_hyklBtl-JF8wL0PHUgyvrGvYoh8dGUVZQYnHmY_dzYclCwa4w9Iln-J3YYWe5o492oA3_PYd8KHJFVhpVPrjvedBzF8Rh_UVd2IB6OmDfIYiDnyCor4IKFiwMwrNAsVLqb77r3xG3Dubje54JH6Yu5XtFmGjQVgm3xAS1dGWn2HkBzi75X6vbXWdNOnVqlmbmtsFjHOiGXTBXH0NOD1Z-7RiyFbLu6h-5oXHUYkTiQsOt1A5IClNGEgwz84I-6o9kzW3RNjXygCKjbTLDgy_SwuxWi0]--></g></svg>