<?xml version="1.0" encoding="us-ascii" standalone="no"?><svg xmlns="http://www.w3.org/2000/svg" xmlns:xlink="http://www.w3.org/1999/xlink" contentStyleType="text/css" height="525px" preserveAspectRatio="none" style="width:804px;height:525px;background:#FFFFFF;" version="1.1" viewBox="0 0 804 525" width="804px" zoomAndPan="magnify"><defs/><g><rect fill="none" height="136.7969" style="stroke:#000000;stroke-width:1.5;" width="787.5" x="10" y="113.4297"/><rect fill="none" height="165.9297" style="stroke:#000000;stroke-width:1.5;" width="787.5" x="10" y="264.2266"/><line style="stroke:#181818;stroke-width:0.5;stroke-dasharray:5.0,5.0;" x1="125" x2="125" y1="67.2969" y2="447.1563"/><line style="stroke:#181818;stroke-width:0.5;stroke-dasharray:5.0,5.0;" x1="462.5" x2="462.5" y1="67.2969" y2="447.1563"/><line style="stroke:#181818;stroke-width:0.5;stroke-dasharray:5.0,5.0;" x1="751.5" x2="751.5" y1="67.2969" y2="447.1563"/><rect fill="#E0FFFF" height="30.2969" rx="2.5" ry="2.5" style="stroke:#181818;stroke-width:0.5;" width="211" x="20" y="36"/><text fill="#000000" font-family="sans-serif" font-size="14" lengthAdjust="spacing" textLength="197" x="27" y="55.9951">Pathoplexus Frontend / User</text><rect fill="#E0FFFF" height="30.2969" rx="2.5" ry="2.5" style="stroke:#181818;stroke-width:0.5;" width="211" x="20" y="446.1563"/><text fill="#000000" font-family="sans-serif" font-size="14" lengthAdjust="spacing" textLength="197" x="27" y="466.1514">Pathoplexus Frontend / User</text><rect fill="#FFA500" height="30.2969" rx="2.5" ry="2.5" style="stroke:#181818;stroke-width:0.5;" width="164" x="380.5" y="36"/><text fill="#000000" font-family="sans-serif" font-size="14" lengthAdjust="spacing" textLength="150" x="387.5" y="55.9951">Pathoplexus Backend</text><rect fill="#FFA500" height="30.2969" rx="2.5" ry="2.5" style="stroke:#181818;stroke-width:0.5;" width="164" x="380.5" y="446.1563"/><text fill="#000000" font-family="sans-serif" font-size="14" lengthAdjust="spacing" textLength="150" x="387.5" y="466.1514">Pathoplexus Backend</text><text fill="#000000" font-family="sans-serif" font-size="14" lengthAdjust="spacing" textLength="66" x="715.5" y="63.9951">Database</text><path d="M733.5,15 C733.5,5 751.5,5 751.5,5 C751.5,5 769.5,5 769.5,15 L769.5,41 C769.5,51 751.5,51 751.5,51 C751.5,51 733.5,51 733.5,41 L733.5,15 " fill="#E2E2F0" style="stroke:#181818;stroke-width:1.5;"/><path d="M733.5,15 C733.5,25 751.5,25 751.5,25 C751.5,25 769.5,25 769.5,15 " fill="none" style="stroke:#181818;stroke-width:1.5;"/><text fill="#000000" font-family="sans-serif" font-size="14" lengthAdjust="spacing" textLength="66" x="715.5" y="459.1514">Database</text><path d="M733.5,472.4531 C733.5,462.4531 751.5,462.4531 751.5,462.4531 C751.5,462.4531 769.5,462.4531 769.5,472.4531 L769.5,498.4531 C769.5,508.4531 751.5,508.4531 751.5,508.4531 C751.5,508.4531 733.5,508.4531 733.5,498.4531 L733.5,472.4531 " fill="#E2E2F0" style="stroke:#181818;stroke-width:1.5;"/><path d="M733.5,472.4531 C733.5,482.4531 751.5,482.4531 751.5,482.4531 C751.5,482.4531 769.5,482.4531 769.5,472.4531 " fill="none" style="stroke:#181818;stroke-width:1.5;"/><polygon fill="#181818" points="450.5,94.4297,460.5,98.4297,450.5,102.4297,454.5,98.4297" style="stroke:#181818;stroke-width:1.0;"/><line style="stroke:#181818;stroke-width:1.0;" x1="125.5" x2="456.5" y1="98.4297" y2="98.4297"/><text fill="#000000" font-family="sans-serif" font-size="13" lengthAdjust="spacing" textLength="288" x="132.5" y="93.3638">wants to revoke already processed sequence</text><path d="M10,113.4297 L74,113.4297 L74,120.5625 L64,130.5625 L10,130.5625 L10,113.4297 " fill="#EEEEEE" style="stroke:#000000;stroke-width:1.5;"/><rect fill="none" height="136.7969" style="stroke:#000000;stroke-width:1.5;" width="787.5" x="10" y="113.4297"/><text fill="#000000" font-family="sans-serif" font-size="13" font-weight="bold" lengthAdjust="spacing" textLength="19" x="25" y="126.4966">alt</text><text fill="#000000" font-family="sans-serif" font-size="11" font-weight="bold" lengthAdjust="spacing" textLength="443" x="89" y="125.6401">[sequenceID exists and highest version is 'APPROVED_FOR_RELEASE']</text><polygon fill="#181818" points="739.5,177.9609,749.5,181.9609,739.5,185.9609,743.5,181.9609" style="stroke:#181818;stroke-width:1.0;"/><line style="stroke:#181818;stroke-width:1.0;" x1="462.5" x2="745.5" y1="181.9609" y2="181.9609"/><text fill="#000000" font-family="sans-serif" font-size="13" lengthAdjust="spacing" textLength="115" x="469.5" y="146.6294">insert new version</text><text fill="#000000" font-family="sans-serif" font-size="13" lengthAdjust="spacing" textLength="204" x="469.5" y="161.7622">with status 'REVISION_STAGING'</text><text fill="#000000" font-family="sans-serif" font-size="13" lengthAdjust="spacing" textLength="167" x="469.5" y="176.895">and ' is_revocation = true'</text><polygon fill="#181818" points="136.5,207.0938,126.5,211.0938,136.5,215.0938,132.5,211.0938" style="stroke:#181818;stroke-width:1.0;"/><line style="stroke:#181818;stroke-width:1.0;" x1="130.5" x2="461.5" y1="211.0938" y2="211.0938"/><text fill="#000000" font-family="sans-serif" font-size="13" lengthAdjust="spacing" textLength="313" x="142.5" y="206.0278">response with sequenceId + new version number</text><line style="stroke:#000000;stroke-width:1.0;stroke-dasharray:2.0,2.0;" x1="10" x2="797.5" y1="220.0938" y2="220.0938"/><polygon fill="#181818" points="136.5,238.2266,126.5,242.2266,136.5,246.2266,132.5,242.2266" style="stroke:#181818;stroke-width:1.0;"/><line style="stroke:#181818;stroke-width:1.0;" x1="130.5" x2="461.5" y1="242.2266" y2="242.2266"/><text fill="#000000" font-family="sans-serif" font-size="13" lengthAdjust="spacing" textLength="186" x="142.5" y="237.1606">response with error message</text><path d="M10,264.2266 L74,264.2266 L74,271.3594 L64,281.3594 L10,281.3594 L10,264.2266 " fill="#EEEEEE" style="stroke:#000000;stroke-width:1.5;"/><rect fill="none" height="165.9297" style="stroke:#000000;stroke-width:1.5;" width="787.5" x="10" y="264.2266"/><text fill="#000000" font-family="sans-serif" font-size="13" font-weight="bold" lengthAdjust="spacing" textLength="19" x="25" y="277.2935">alt</text><polygon fill="#181818" points="450.5,298.4922,460.5,302.4922,450.5,306.4922,454.5,302.4922" style="stroke:#181818;stroke-width:1.0;"/><line style="stroke:#181818;stroke-width:1.0;" x1="125.5" x2="456.5" y1="302.4922" y2="302.4922"/><text fill="#000000" font-family="sans-serif" font-size="13" lengthAdjust="spacing" textLength="126" x="132.5" y="297.4263">confirms revocation</text><polygon fill="#181818" points="739.5,327.625,749.5,331.625,739.5,335.625,743.5,331.625" style="stroke:#181818;stroke-width:1.0;"/><line style="stroke:#181818;stroke-width:1.0;" x1="462.5" x2="745.5" y1="331.625" y2="331.625"/><text fill="#000000" font-family="sans-serif" font-size="13" lengthAdjust="spacing" textLength="257" x="469.5" y="326.5591">set status to 'APPROVED_FOR_RELEASE'</text><line style="stroke:#000000;stroke-width:1.0;stroke-dasharray:2.0,2.0;" x1="10" x2="797.5" y1="340.625" y2="340.625"/><polygon fill="#181818" points="450.5,358.7578,460.5,362.7578,450.5,366.7578,454.5,362.7578" style="stroke:#181818;stroke-width:1.0;"/><line style="stroke:#181818;stroke-width:1.0;" x1="125.5" x2="456.5" y1="362.7578" y2="362.7578"/><text fill="#000000" font-family="sans-serif" font-size="13" lengthAdjust="spacing" textLength="119" x="132.5" y="357.6919">cancels revocation</text><polygon fill="#181818" points="739.5,418.1563,749.5,422.1563,739.5,426.1563,743.5,422.1563" style="stroke:#181818;stroke-width:1.0;"/><line style="stroke:#181818;stroke-width:1.0;" x1="462.5" x2="745.5" y1="422.1563" y2="422.1563"/><text fill="#000000" font-family="sans-serif" font-size="13" lengthAdjust="spacing" textLength="130" x="469.5" y="386.8247">delete latest version</text><text fill="#000000" font-family="sans-serif" font-size="13" lengthAdjust="spacing" textLength="177" x="469.5" y="401.9575">of the sequence and Status</text><text fill="#000000" font-family="sans-serif" font-size="13" lengthAdjust="spacing" textLength="265" x="469.5" y="417.0903">'AWAITING_APPROVAL_FOR_REVOCATION'</text><!--SRC=[ZL9DQzj04BtdLpoSWmwbz6v8GOwK832HiLttOX1ZQHmjaNULtN6S_FkE9SjrmGdLQTcTUPy2W9QycDAqP0MZ6KdjseRVzm4FtbbXM-47VWNs8r30ThYxdPhdMku_oDxWAv09bIywtorl-ZDkSq_scRl5YeGs51YZv7JgHfF9JVTyvll-SrWVuw0i0UBW-SszCAZnJDK7MkzA3e4h17xTiosv1z41ELzb2VZT10KWXQtL1GV16_jWd8K9YEBPR9wlqgHuoEV5F9scyIADUY3z1XCgA9cCOQn68x1y633Mzc2aHX0IzH_DqrMsoFAdOh6C7xEdnmXhUsIEbAiu6YX9Zint4B_ddkU2OmXWh6P3wvGDFVnWfyAtItRO_Mx3leFX9l0rtPzXilVEOwSHqgaT7UeZr0JFI5SxAPtT6hyB-6lfiyW2ov2ETlX5tF_elyvA6a7pFwGLDooCXkIoxhLrMqZDvpYxdsBHYrlRAFuTPqijhUX5njEJo5L-7o-rr6X8wGy0]--></g></svg>