<svg xmlns="http://www.w3.org/2000/svg" xmlns:xlink="http://www.w3.org/1999/xlink" contentStyleType="text/css" data-diagram-type="SEQUENCE" height="343px" preserveAspectRatio="none" style="width:883px;height:343px;background:#FFFFFF;" version="1.1" viewBox="0 0 883 343" width="883px" zoomAndPan="magnify"><defs/><g><rect fill="none" height="46.6211" style="stroke:#000000;stroke-width:1.5;" width="696.0376" x="10" y="172.4199"/><g><title>Frontend / User</title><rect fill="#000000" fill-opacity="0.00000" height="197.8633" width="8" x="76.8125" y="67.4883"/><line style="stroke:#181818;stroke-width:0.5;stroke-dasharray:5.0,5.0;" x1="80" x2="80" y1="67.4883" y2="265.3516"/></g><g><title>Backend</title><rect fill="#000000" fill-opacity="0.00000" height="197.8633" width="8" x="500.2769" y="67.4883"/><line style="stroke:#181818;stroke-width:0.5;stroke-dasharray:5.0,5.0;" x1="504.0581" x2="504.0581" y1="67.4883" y2="265.3516"/></g><g><title>S3 / Object Storage</title><rect fill="#000000" fill-opacity="0.00000" height="197.8633" width="8" x="618.7666" y="67.4883"/><line style="stroke:#181818;stroke-width:0.5;stroke-dasharray:5.0,5.0;" x1="622.4956" x2="622.4956" y1="67.4883" y2="265.3516"/></g><g><title>Database</title><rect fill="#000000" fill-opacity="0.00000" height="197.8633" width="8" x="844.4463" y="67.4883"/><line style="stroke:#181818;stroke-width:0.5;stroke-dasharray:5.0,5.0;" x1="848.1138" x2="848.1138" y1="67.4883" y2="265.3516"/></g><g class="participant participant-head" data-participant="frontend"><rect fill="#E0FFFF" height="30.4883" rx="2.5" ry="2.5" style="stroke:#181818;stroke-width:0.5;" width="121.625" x="20" y="36"/><text fill="#000000" font-family="sans-serif" font-size="14" lengthAdjust="spacing" textLength="107.625" x="27" y="56.5352">Frontend / User</text></g><g class="participant participant-tail" data-participant="frontend"><rect fill="#E0FFFF" height="30.4883" rx="2.5" ry="2.5" style="stroke:#181818;stroke-width:0.5;" width="121.625" x="20" y="264.3516"/><text fill="#000000" font-family="sans-serif" font-size="14" lengthAdjust="spacing" textLength="107.625" x="27" y="284.8867">Frontend / User</text></g><g class="participant participant-head" data-participant="backend"><rect fill="#FFA500" height="30.4883" rx="2.5" ry="2.5" style="stroke:#181818;stroke-width:0.5;" width="70.4375" x="469.0581" y="36"/><text fill="#000000" font-family="sans-serif" font-size="14" lengthAdjust="spacing" textLength="56.4375" x="476.0581" y="56.5352">Backend</text></g><g class="participant participant-tail" data-participant="backend"><rect fill="#FFA500" height="30.4883" rx="2.5" ry="2.5" style="stroke:#181818;stroke-width:0.5;" width="70.4375" x="469.0581" y="264.3516"/><text fill="#000000" font-family="sans-serif" font-size="14" lengthAdjust="spacing" textLength="56.4375" x="476.0581" y="284.8867">Backend</text></g><g class="participant participant-head" data-participant="s3"><rect fill="#D3D3D3" height="30.4883" rx="2.5" ry="2.5" style="stroke:#181818;stroke-width:0.5;" width="146.542" x="549.4956" y="36"/><text fill="#000000" font-family="sans-serif" font-size="14" lengthAdjust="spacing" textLength="132.542" x="556.4956" y="56.5352">S3 / Object Storage</text></g><g class="participant participant-tail" data-participant="s3"><rect fill="#D3D3D3" height="30.4883" rx="2.5" ry="2.5" style="stroke:#181818;stroke-width:0.5;" width="146.542" x="549.4956" y="264.3516"/><text fill="#000000" font-family="sans-serif" font-size="14" lengthAdjust="spacing" textLength="132.542" x="556.4956" y="284.8867">S3 / Object Storage</text></g><g class="participant participant-head" data-participant="DB"><text fill="#000000" font-family="sans-serif" font-size="14" lengthAdjust="spacing" textLength="62.665" x="814.1138" y="64.5352">Database</text><path d="M830.4463,15 C830.4463,5 848.4463,5 848.4463,5 C848.4463,5 866.4463,5 866.4463,15 L866.4463,41 C866.4463,51 848.4463,51 848.4463,51 C848.4463,51 830.4463,51 830.4463,41 L830.4463,15" fill="#E2E2F0" style="stroke:#181818;stroke-width:1.5;"/><path d="M830.4463,15 C830.4463,25 848.4463,25 848.4463,25 C848.4463,25 866.4463,25 866.4463,15" fill="none" style="stroke:#181818;stroke-width:1.5;"/></g><g class="participant participant-tail" data-participant="DB"><text fill="#000000" font-family="sans-serif" font-size="14" lengthAdjust="spacing" textLength="62.665" x="814.1138" y="277.8867">Database</text><path d="M830.4463,290.8398 C830.4463,280.8398 848.4463,280.8398 848.4463,280.8398 C848.4463,280.8398 866.4463,280.8398 866.4463,290.8398 L866.4463,316.8398 C866.4463,326.8398 848.4463,326.8398 848.4463,326.8398 C848.4463,326.8398 830.4463,326.8398 830.4463,316.8398 L830.4463,290.8398" fill="#E2E2F0" style="stroke:#181818;stroke-width:1.5;"/><path d="M830.4463,290.8398 C830.4463,300.8398 848.4463,300.8398 848.4463,300.8398 C848.4463,300.8398 866.4463,300.8398 866.4463,290.8398" fill="none" style="stroke:#181818;stroke-width:1.5;"/></g><g class="message" data-participant-1="frontend" data-participant-2="backend"><polygon fill="#181818" points="492.2769,94.7988,502.2769,98.7988,492.2769,102.7988,496.2769,98.7988" style="stroke:#181818;stroke-width:1;"/><line style="stroke:#181818;stroke-width:1;" x1="80.8125" x2="498.2769" y1="98.7988" y2="98.7988"/><text fill="#000000" font-family="sans-serif" font-size="13" lengthAdjust="spacing" textLength="232.2227" x="87.8125" y="94.0566">request pre-signed URLs and file IDs</text></g><g class="message" data-participant-1="backend" data-participant-2="DB"><polygon fill="#181818" points="836.4463,124.1094,846.4463,128.1094,836.4463,132.1094,840.4463,128.1094" style="stroke:#181818;stroke-width:1;"/><line style="stroke:#181818;stroke-width:1;" x1="504.2769" x2="842.4463" y1="128.1094" y2="128.1094"/><text fill="#000000" font-family="sans-serif" font-size="13" lengthAdjust="spacing" textLength="320.1694" x="511.2769" y="123.3672">insert file records with file IDs and requesting user</text></g><g class="message" data-participant-1="backend" data-participant-2="frontend"><polygon fill="#181818" points="91.8125,153.4199,81.8125,157.4199,91.8125,161.4199,87.8125,157.4199" style="stroke:#181818;stroke-width:1;"/><line style="stroke:#181818;stroke-width:1;" x1="85.8125" x2="503.2769" y1="157.4199" y2="157.4199"/><text fill="#000000" font-family="sans-serif" font-size="13" lengthAdjust="spacing" textLength="223.5581" x="97.8125" y="152.6777">return pre-signed URLs and file IDs</text></g><path d="M10,172.4199 L84.4468,172.4199 L84.4468,179.7305 L74.4468,189.7305 L10,189.7305 L10,172.4199" fill="#EEEEEE" style="stroke:#000000;stroke-width:1.5;"/><rect fill="none" height="46.6211" style="stroke:#000000;stroke-width:1.5;" width="696.0376" x="10" y="172.4199"/><text fill="#000000" font-family="sans-serif" font-size="13" font-weight="bold" lengthAdjust="spacing" textLength="29.4468" x="25" y="185.9883">loop</text><text fill="#000000" font-family="sans-serif" font-size="11" font-weight="bold" lengthAdjust="spacing" textLength="76.1406" x="99.4468" y="185.0547">[for each file]</text><g class="message" data-participant-1="frontend" data-participant-2="s3"><polygon fill="#181818" points="610.7666,207.041,620.7666,211.041,610.7666,215.041,614.7666,211.041" style="stroke:#181818;stroke-width:1;"/><line style="stroke:#181818;stroke-width:1;" x1="80.8125" x2="616.7666" y1="211.041" y2="211.041"/><text fill="#000000" font-family="sans-serif" font-size="13" lengthAdjust="spacing" textLength="208.3809" x="87.8125" y="206.2988">upload file using pre-signed URL</text></g><g class="message" data-participant-1="frontend" data-participant-2="backend"><polygon fill="#181818" points="492.2769,243.3516,502.2769,247.3516,492.2769,251.3516,496.2769,247.3516" style="stroke:#181818;stroke-width:1;"/><line style="stroke:#181818;stroke-width:1;" x1="80.8125" x2="498.2769" y1="247.3516" y2="247.3516"/><text fill="#000000" font-family="sans-serif" font-size="13" lengthAdjust="spacing" textLength="399.4644" x="87.8125" y="242.6094">submit metadata, sequence data and file IDs per submission ID</text></g><!--SRC=[VP31QiD034Jl-OeXkJRqu5iEFRYcfH08DEG3P5jsjarsNKccvE-xNjk1f92RaEQDHWA0ZiHSvJhoXkMR16_iQppZe2nBaAAPUwkjQu_sUY6_m3sOK_KTDGaennghdP1l-RzudqN_NVd5bM5lGQZb16esxNWNkYIi9gEIbB4ifYe9YtoHnjTewvTvwmR2FpsheHDUgsizrpXyRXKKTOqxCJuAJVISCy95le7pyM8R9S9La5hnw-nuXPB3vEvyYpxgxutcH4CCwyK_Jf7eKmWTcY1WgiPbgNr_dsORzDqfqCJtEcIujK_We1yy7xn8-_Bi36Ss6Zxy11skyXMdXzzaHCSowbLTyB7r1m00]--></g></svg>