<?xml version="1.0" encoding="us-ascii" standalone="no"?><svg xmlns="http://www.w3.org/2000/svg" xmlns:xlink="http://www.w3.org/1999/xlink" contentStyleType="text/css" height="350px" preserveAspectRatio="none" style="width:776px;height:350px;background:#FFFFFF;" version="1.1" viewBox="0 0 776 350" width="776px" zoomAndPan="magnify"><defs/><g><rect fill="none" height="106.5313" style="stroke:#000000;stroke-width:1.5;" width="759.5" x="10" y="113.4297"/><line style="stroke:#181818;stroke-width:0.5;stroke-dasharray:5.0,5.0;" x1="125" x2="125" y1="67.2969" y2="272.0938"/><line style="stroke:#181818;stroke-width:0.5;stroke-dasharray:5.0,5.0;" x1="452.5" x2="452.5" y1="67.2969" y2="272.0938"/><line style="stroke:#181818;stroke-width:0.5;stroke-dasharray:5.0,5.0;" x1="723.5" x2="723.5" y1="67.2969" y2="272.0938"/><rect fill="#E0FFFF" height="30.2969" rx="2.5" ry="2.5" style="stroke:#181818;stroke-width:0.5;" width="211" x="20" y="36"/><text fill="#000000" font-family="sans-serif" font-size="14" lengthAdjust="spacing" textLength="197" x="27" y="55.9951">Pathoplexus Frontend / User</text><rect fill="#E0FFFF" height="30.2969" rx="2.5" ry="2.5" style="stroke:#181818;stroke-width:0.5;" width="211" x="20" y="271.0938"/><text fill="#000000" font-family="sans-serif" font-size="14" lengthAdjust="spacing" textLength="197" x="27" y="291.0889">Pathoplexus Frontend / User</text><rect fill="#FFA500" height="30.2969" rx="2.5" ry="2.5" style="stroke:#181818;stroke-width:0.5;" width="164" x="370.5" y="36"/><text fill="#000000" font-family="sans-serif" font-size="14" lengthAdjust="spacing" textLength="150" x="377.5" y="55.9951">Pathoplexus Backend</text><rect fill="#FFA500" height="30.2969" rx="2.5" ry="2.5" style="stroke:#181818;stroke-width:0.5;" width="164" x="370.5" y="271.0938"/><text fill="#000000" font-family="sans-serif" font-size="14" lengthAdjust="spacing" textLength="150" x="377.5" y="291.0889">Pathoplexus Backend</text><text fill="#000000" font-family="sans-serif" font-size="14" lengthAdjust="spacing" textLength="66" x="687.5" y="63.9951">Database</text><path d="M705.5,15 C705.5,5 723.5,5 723.5,5 C723.5,5 741.5,5 741.5,15 L741.5,41 C741.5,51 723.5,51 723.5,51 C723.5,51 705.5,51 705.5,41 L705.5,15 " fill="#E2E2F0" style="stroke:#181818;stroke-width:1.5;"/><path d="M705.5,15 C705.5,25 723.5,25 723.5,25 C723.5,25 741.5,25 741.5,15 " fill="none" style="stroke:#181818;stroke-width:1.5;"/><text fill="#000000" font-family="sans-serif" font-size="14" lengthAdjust="spacing" textLength="66" x="687.5" y="284.0889">Database</text><path d="M705.5,297.3906 C705.5,287.3906 723.5,287.3906 723.5,287.3906 C723.5,287.3906 741.5,287.3906 741.5,297.3906 L741.5,323.3906 C741.5,333.3906 723.5,333.3906 723.5,333.3906 C723.5,333.3906 705.5,333.3906 705.5,323.3906 L705.5,297.3906 " fill="#E2E2F0" style="stroke:#181818;stroke-width:1.5;"/><path d="M705.5,297.3906 C705.5,307.3906 723.5,307.3906 723.5,307.3906 C723.5,307.3906 741.5,307.3906 741.5,297.3906 " fill="none" style="stroke:#181818;stroke-width:1.5;"/><polygon fill="#181818" points="440.5,94.4297,450.5,98.4297,440.5,102.4297,444.5,98.4297" style="stroke:#181818;stroke-width:1.0;"/><line style="stroke:#181818;stroke-width:1.0;" x1="125.5" x2="446.5" y1="98.4297" y2="98.4297"/><text fill="#000000" font-family="sans-serif" font-size="13" lengthAdjust="spacing" textLength="290" x="132.5" y="93.3638">submit corrected data for existing accessions</text><path d="M10,113.4297 L74,113.4297 L74,120.5625 L64,130.5625 L10,130.5625 L10,113.4297 " fill="#EEEEEE" style="stroke:#000000;stroke-width:1.5;"/><rect fill="none" height="106.5313" style="stroke:#000000;stroke-width:1.5;" width="759.5" x="10" y="113.4297"/><text fill="#000000" font-family="sans-serif" font-size="13" font-weight="bold" lengthAdjust="spacing" textLength="19" x="25" y="126.4966">alt</text><text fill="#000000" font-family="sans-serif" font-size="11" font-weight="bold" lengthAdjust="spacing" textLength="432" x="89" y="125.6401">[accession exists and highest version is 'APPROVED_FOR_RELEASE']</text><polygon fill="#181818" points="711.5,147.6953,721.5,151.6953,711.5,155.6953,715.5,151.6953" style="stroke:#181818;stroke-width:1.0;"/><line style="stroke:#181818;stroke-width:1.0;" x1="452.5" x2="717.5" y1="151.6953" y2="151.6953"/><text fill="#000000" font-family="sans-serif" font-size="13" lengthAdjust="spacing" textLength="247" x="459.5" y="146.6294">insert new version in status 'RECEIVED'</text><polygon fill="#181818" points="136.5,176.8281,126.5,180.8281,136.5,184.8281,132.5,180.8281" style="stroke:#181818;stroke-width:1.0;"/><line style="stroke:#181818;stroke-width:1.0;" x1="130.5" x2="451.5" y1="180.8281" y2="180.8281"/><text fill="#000000" font-family="sans-serif" font-size="13" lengthAdjust="spacing" textLength="303" x="142.5" y="175.7622">response with accession + new version number</text><line style="stroke:#000000;stroke-width:1.0;stroke-dasharray:2.0,2.0;" x1="10" x2="769.5" y1="189.8281" y2="189.8281"/><polygon fill="#181818" points="136.5,207.9609,126.5,211.9609,136.5,215.9609,132.5,211.9609" style="stroke:#181818;stroke-width:1.0;"/><line style="stroke:#181818;stroke-width:1.0;" x1="130.5" x2="451.5" y1="211.9609" y2="211.9609"/><text fill="#000000" font-family="sans-serif" font-size="13" lengthAdjust="spacing" textLength="186" x="142.5" y="206.895">response with error message</text><path d="M130,231.9609 L130,256.9609 L588,256.9609 L588,241.9609 L578,231.9609 L130,231.9609 " fill="#FEFFDD" style="stroke:#181818;stroke-width:0.5;"/><path d="M578,231.9609 L578,241.9609 L588,241.9609 L578,231.9609 " fill="#FEFFDD" style="stroke:#181818;stroke-width:0.5;"/><text fill="#000000" font-family="sans-serif" font-size="13" lengthAdjust="spacing" textLength="437" x="136" y="249.0278">At this point the same flow applies as if this was an initial submission</text><!--SRC=[VP51Ry8m38Nl_8edE72OfjqvJ09Qf4b8e4xR5Rd5fT7Qf8hDOFz-QKg1ITjoicBxizyp0BJarHIc9QiORqahrzPyFWfMtbbbkySJteJz62GeXx_9sXmgNNwH7U4_o8AAZr0Vc_C-ncJZoHuuDkv9AITXZ9DB54kJnMWKyzU1Zyz3_mnop1kZA9ptN2Zl8mMby-2p4JNs02eA5Z7EIi-XMcz_VPc00hSAEbWKd-nZoWYcy-qssxodoMwroNPPkaxdh-aqOheto0WR9OiPZ0tcA2oVRWmBKT8WVvgbo_GbeFhskzP1s0oUfGrxCav6gxib7tumxR79sKSAryA_RVCNahqFrZG1InVNGr5lYtNAyDqfuSehu0gVAxGAZhJEs2va23MCidOdKDlMXgMxbYdxiXDrdWRvHWtL_PcYbc5edFSD]--></g></svg>