<?xml version="1.0" encoding="us-ascii" standalone="no"?><svg xmlns="http://www.w3.org/2000/svg" xmlns:xlink="http://www.w3.org/1999/xlink" contentStyleType="text/css" height="822px" preserveAspectRatio="none" style="width:1462px;height:822px;background:#FFFFFF;" version="1.1" viewBox="0 0 1462 822" width="1462px" zoomAndPan="magnify"><defs/><g><rect fill="none" height="46.2656" style="stroke:#000000;stroke-width:1.5;" width="504.5" x="411.5" y="246.2578"/><rect fill="none" height="208.7344" style="stroke:#000000;stroke-width:1.5;" width="1445.5" x="10" y="348.6563"/><rect fill="none" height="104.5313" style="stroke:#000000;stroke-width:1.5;" width="1034" x="411.5" y="372.7891"/><line style="stroke:#181818;stroke-width:0.5;stroke-dasharray:5.0,5.0;" x1="109" x2="109" y1="83.5938" y2="728.3203"/><line style="stroke:#181818;stroke-width:0.5;stroke-dasharray:5.0,5.0;" x1="487.5" x2="487.5" y1="83.5938" y2="728.3203"/><line style="stroke:#181818;stroke-width:0.5;stroke-dasharray:5.0,5.0;" x1="865" x2="865" y1="83.5938" y2="728.3203"/><line style="stroke:#181818;stroke-width:0.5;stroke-dasharray:5.0,5.0;" x1="1120" x2="1120" y1="83.5938" y2="728.3203"/><line style="stroke:#181818;stroke-width:0.5;stroke-dasharray:5.0,5.0;" x1="1378.5" x2="1378.5" y1="83.5938" y2="728.3203"/><rect fill="#E0FFFF" height="30.2969" rx="2.5" ry="2.5" style="stroke:#181818;stroke-width:0.5;" width="179" x="20" y="52.2969"/><text fill="#000000" font-family="sans-serif" font-size="14" lengthAdjust="spacing" textLength="165" x="27" y="72.292">Loculus Frontend / User</text><rect fill="#E0FFFF" height="30.2969" rx="2.5" ry="2.5" style="stroke:#181818;stroke-width:0.5;" width="179" x="20" y="727.3203"/><text fill="#000000" font-family="sans-serif" font-size="14" lengthAdjust="spacing" textLength="165" x="27" y="747.3154">Loculus Frontend / User</text><rect fill="#FFA500" height="30.2969" rx="2.5" ry="2.5" style="stroke:#181818;stroke-width:0.5;" width="132" x="421.5" y="52.2969"/><text fill="#000000" font-family="sans-serif" font-size="14" lengthAdjust="spacing" textLength="118" x="428.5" y="72.292">Loculus Backend</text><rect fill="#FFA500" height="30.2969" rx="2.5" ry="2.5" style="stroke:#181818;stroke-width:0.5;" width="132" x="421.5" y="727.3203"/><text fill="#000000" font-family="sans-serif" font-size="14" lengthAdjust="spacing" textLength="118" x="428.5" y="747.3154">Loculus Backend</text><text fill="#000000" font-family="sans-serif" font-size="14" lengthAdjust="spacing" textLength="71" x="825" y="63.9951">Sequence</text><text fill="#000000" font-family="sans-serif" font-size="14" lengthAdjust="spacing" textLength="73" x="826" y="80.292">entry table</text><path d="M847.5,15 C847.5,5 865.5,5 865.5,5 C865.5,5 883.5,5 883.5,15 L883.5,41 C883.5,51 865.5,51 865.5,51 C865.5,51 847.5,51 847.5,41 L847.5,15 " fill="#E2E2F0" style="stroke:#181818;stroke-width:1.5;"/><path d="M847.5,15 C847.5,25 865.5,25 865.5,25 C865.5,25 883.5,25 883.5,15 " fill="none" style="stroke:#181818;stroke-width:1.5;"/><text fill="#000000" font-family="sans-serif" font-size="14" lengthAdjust="spacing" textLength="71" x="825" y="740.3154">Sequence</text><text fill="#000000" font-family="sans-serif" font-size="14" lengthAdjust="spacing" textLength="73" x="826" y="756.6123">entry table</text><path d="M847.5,769.9141 C847.5,759.9141 865.5,759.9141 865.5,759.9141 C865.5,759.9141 883.5,759.9141 883.5,769.9141 L883.5,795.9141 C883.5,805.9141 865.5,805.9141 865.5,805.9141 C865.5,805.9141 847.5,805.9141 847.5,795.9141 L847.5,769.9141 " fill="#E2E2F0" style="stroke:#181818;stroke-width:1.5;"/><path d="M847.5,769.9141 C847.5,779.9141 865.5,779.9141 865.5,779.9141 C865.5,779.9141 883.5,779.9141 883.5,769.9141 " fill="none" style="stroke:#181818;stroke-width:1.5;"/><text fill="#000000" font-family="sans-serif" font-size="14" lengthAdjust="spacing" textLength="54" x="1088.5" y="63.9951">Auxiliary</text><text fill="#000000" font-family="sans-serif" font-size="14" lengthAdjust="spacing" textLength="103" x="1066" y="80.292">metadata table</text><path d="M1102.5,15 C1102.5,5 1120.5,5 1120.5,5 C1120.5,5 1138.5,5 1138.5,15 L1138.5,41 C1138.5,51 1120.5,51 1120.5,51 C1120.5,51 1102.5,51 1102.5,41 L1102.5,15 " fill="#E2E2F0" style="stroke:#181818;stroke-width:1.5;"/><path d="M1102.5,15 C1102.5,25 1120.5,25 1120.5,25 C1120.5,25 1138.5,25 1138.5,15 " fill="none" style="stroke:#181818;stroke-width:1.5;"/><text fill="#000000" font-family="sans-serif" font-size="14" lengthAdjust="spacing" textLength="54" x="1088.5" y="740.3154">Auxiliary</text><text fill="#000000" font-family="sans-serif" font-size="14" lengthAdjust="spacing" textLength="103" x="1066" y="756.6123">metadata table</text><path d="M1102.5,769.9141 C1102.5,759.9141 1120.5,759.9141 1120.5,759.9141 C1120.5,759.9141 1138.5,759.9141 1138.5,769.9141 L1138.5,795.9141 C1138.5,805.9141 1120.5,805.9141 1120.5,805.9141 C1120.5,805.9141 1102.5,805.9141 1102.5,795.9141 L1102.5,769.9141 " fill="#E2E2F0" style="stroke:#181818;stroke-width:1.5;"/><path d="M1102.5,769.9141 C1102.5,779.9141 1120.5,779.9141 1120.5,779.9141 C1120.5,779.9141 1138.5,779.9141 1138.5,769.9141 " fill="none" style="stroke:#181818;stroke-width:1.5;"/><text fill="#000000" font-family="sans-serif" font-size="14" lengthAdjust="spacing" textLength="54" x="1346.5" y="63.9951">Auxiliary</text><text fill="#000000" font-family="sans-serif" font-size="14" lengthAdjust="spacing" textLength="108" x="1321.5" y="80.292">sequence table</text><path d="M1360.5,15 C1360.5,5 1378.5,5 1378.5,5 C1378.5,5 1396.5,5 1396.5,15 L1396.5,41 C1396.5,51 1378.5,51 1378.5,51 C1378.5,51 1360.5,51 1360.5,41 L1360.5,15 " fill="#E2E2F0" style="stroke:#181818;stroke-width:1.5;"/><path d="M1360.5,15 C1360.5,25 1378.5,25 1378.5,25 C1378.5,25 1396.5,25 1396.5,15 " fill="none" style="stroke:#181818;stroke-width:1.5;"/><text fill="#000000" font-family="sans-serif" font-size="14" lengthAdjust="spacing" textLength="54" x="1346.5" y="740.3154">Auxiliary</text><text fill="#000000" font-family="sans-serif" font-size="14" lengthAdjust="spacing" textLength="108" x="1321.5" y="756.6123">sequence table</text><path d="M1360.5,769.9141 C1360.5,759.9141 1378.5,759.9141 1378.5,759.9141 C1378.5,759.9141 1396.5,759.9141 1396.5,769.9141 L1396.5,795.9141 C1396.5,805.9141 1378.5,805.9141 1378.5,805.9141 C1378.5,805.9141 1360.5,805.9141 1360.5,795.9141 L1360.5,769.9141 " fill="#E2E2F0" style="stroke:#181818;stroke-width:1.5;"/><path d="M1360.5,769.9141 C1360.5,779.9141 1378.5,779.9141 1378.5,779.9141 C1378.5,779.9141 1396.5,779.9141 1396.5,769.9141 " fill="none" style="stroke:#181818;stroke-width:1.5;"/><polygon fill="#181818" points="475.5,110.7266,485.5,114.7266,475.5,118.7266,479.5,114.7266" style="stroke:#181818;stroke-width:1.0;"/><line style="stroke:#181818;stroke-width:1.0;" x1="109.5" x2="481.5" y1="114.7266" y2="114.7266"/><text fill="#000000" font-family="sans-serif" font-size="13" lengthAdjust="spacing" textLength="230" x="116.5" y="109.6606">submit initial/revised sequence data</text><polygon fill="#181818" points="1108.5,139.8594,1118.5,143.8594,1108.5,147.8594,1112.5,143.8594" style="stroke:#181818;stroke-width:1.0;"/><line style="stroke:#181818;stroke-width:1.0;" x1="487.5" x2="1114.5" y1="143.8594" y2="143.8594"/><text fill="#000000" font-family="sans-serif" font-size="13" lengthAdjust="spacing" textLength="209" x="494.5" y="138.7935">Store metadata in auxiliary table</text><polygon fill="#181818" points="498.5,168.9922,488.5,172.9922,498.5,176.9922,494.5,172.9922" style="stroke:#181818;stroke-width:1.0;"/><line style="stroke:#181818;stroke-width:1.0;" x1="492.5" x2="1119.5" y1="172.9922" y2="172.9922"/><text fill="#000000" font-family="sans-serif" font-size="13" lengthAdjust="spacing" textLength="319" x="504.5" y="167.9263">Send list of submissionIDs of submitted metadata</text><polygon fill="#181818" points="1366.5,198.125,1376.5,202.125,1366.5,206.125,1370.5,202.125" style="stroke:#181818;stroke-width:1.0;"/><line style="stroke:#181818;stroke-width:1.0;" x1="487.5" x2="1372.5" y1="202.125" y2="202.125"/><text fill="#000000" font-family="sans-serif" font-size="13" lengthAdjust="spacing" textLength="241" x="494.5" y="197.0591">Store sequence data in auxiliary table</text><polygon fill="#181818" points="498.5,227.2578,488.5,231.2578,498.5,235.2578,494.5,231.2578" style="stroke:#181818;stroke-width:1.0;"/><line style="stroke:#181818;stroke-width:1.0;" x1="492.5" x2="1377.5" y1="231.2578" y2="231.2578"/><text fill="#000000" font-family="sans-serif" font-size="13" lengthAdjust="spacing" textLength="351" x="504.5" y="226.1919">Send list of submissionIDs of submitted sequence data</text><path d="M411.5,246.2578 L475.5,246.2578 L475.5,253.3906 L465.5,263.3906 L411.5,263.3906 L411.5,246.2578 " fill="#EEEEEE" style="stroke:#000000;stroke-width:1.5;"/><rect fill="none" height="46.2656" style="stroke:#000000;stroke-width:1.5;" width="504.5" x="411.5" y="246.2578"/><text fill="#000000" font-family="sans-serif" font-size="13" font-weight="bold" lengthAdjust="spacing" textLength="19" x="426.5" y="259.3247">alt</text><text fill="#000000" font-family="sans-serif" font-size="11" font-weight="bold" lengthAdjust="spacing" textLength="174" x="490.5" y="258.4683">[for revisions additionally:]</text><polygon fill="#181818" points="498.5,280.5234,488.5,284.5234,498.5,288.5234,494.5,284.5234" style="stroke:#181818;stroke-width:1.0;"/><line style="stroke:#181818;stroke-width:1.0;" x1="492.5" x2="864.5" y1="284.5234" y2="284.5234"/><text fill="#000000" font-family="sans-serif" font-size="13" lengthAdjust="spacing" textLength="352" x="504.5" y="279.4575">Send list of new versions by matching given accessions</text><line style="stroke:#181818;stroke-width:1.0;" x1="487.5" x2="529.5" y1="320.6563" y2="320.6563"/><line style="stroke:#181818;stroke-width:1.0;" x1="529.5" x2="529.5" y1="320.6563" y2="333.6563"/><line style="stroke:#181818;stroke-width:1.0;" x1="488.5" x2="529.5" y1="333.6563" y2="333.6563"/><polygon fill="#181818" points="498.5,329.6563,488.5,333.6563,498.5,337.6563,494.5,333.6563" style="stroke:#181818;stroke-width:1.0;"/><text fill="#000000" font-family="sans-serif" font-size="13" lengthAdjust="spacing" textLength="357" x="494.5" y="315.5903">Check if all sequence data and metadata are consistent</text><path d="M10,348.6563 L74,348.6563 L74,355.7891 L64,365.7891 L10,365.7891 L10,348.6563 " fill="#EEEEEE" style="stroke:#000000;stroke-width:1.5;"/><rect fill="none" height="208.7344" style="stroke:#000000;stroke-width:1.5;" width="1445.5" x="10" y="348.6563"/><text fill="#000000" font-family="sans-serif" font-size="13" font-weight="bold" lengthAdjust="spacing" textLength="19" x="25" y="361.7231">alt</text><text fill="#000000" font-family="sans-serif" font-size="11" font-weight="bold" lengthAdjust="spacing" textLength="116" x="89" y="360.8667">[data consistent*]</text><path d="M411.5,372.7891 L659.5,372.7891 L659.5,379.9219 L649.5,389.9219 L411.5,389.9219 L411.5,372.7891 " fill="#EEEEEE" style="stroke:#000000;stroke-width:1.5;"/><rect fill="none" height="104.5313" style="stroke:#000000;stroke-width:1.5;" width="1034" x="411.5" y="372.7891"/><text fill="#000000" font-family="sans-serif" font-size="13" font-weight="bold" lengthAdjust="spacing" textLength="203" x="426.5" y="385.856">Merge and Copy to prodDB</text><polygon fill="#181818" points="1131.5,407.0547,1121.5,411.0547,1131.5,415.0547,1127.5,411.0547" style="stroke:#181818;stroke-width:1.0;"/><polygon fill="#181818" points="1366.5,407.0547,1376.5,411.0547,1366.5,415.0547,1370.5,411.0547" style="stroke:#181818;stroke-width:1.0;"/><line style="stroke:#181818;stroke-width:1.0;" x1="1125.5" x2="1372.5" y1="411.0547" y2="411.0547"/><text fill="#000000" font-family="sans-serif" font-size="13" lengthAdjust="spacing" textLength="234" x="1137.5" y="405.9888">Merge metadata and sequence data</text><polygon fill="#181818" points="876.5,436.1875,866.5,440.1875,876.5,444.1875,872.5,440.1875" style="stroke:#181818;stroke-width:1.0;"/><line style="stroke:#181818;stroke-width:1.0;" x1="870.5" x2="1119.5" y1="440.1875" y2="440.1875"/><text fill="#000000" font-family="sans-serif" font-size="13" lengthAdjust="spacing" textLength="231" x="882.5" y="435.1216">Copy merged data to production DB</text><polygon fill="#181818" points="498.5,465.3203,488.5,469.3203,498.5,473.3203,494.5,469.3203" style="stroke:#181818;stroke-width:1.0;"/><line style="stroke:#181818;stroke-width:1.0;" x1="492.5" x2="864.5" y1="469.3203" y2="469.3203"/><text fill="#000000" font-family="sans-serif" font-size="13" lengthAdjust="spacing" textLength="354" x="504.5" y="464.2544">Send list of accession versions of new sequence entries</text><polygon fill="#181818" points="120.5,501.4531,110.5,505.4531,120.5,509.4531,116.5,505.4531" style="stroke:#181818;stroke-width:1.0;"/><line style="stroke:#181818;stroke-width:1.0;" x1="114.5" x2="486.5" y1="505.4531" y2="505.4531"/><text fill="#000000" font-family="sans-serif" font-size="13" lengthAdjust="spacing" textLength="354" x="126.5" y="500.3872">Send list of accession versions of new sequence entries</text><line style="stroke:#000000;stroke-width:1.0;stroke-dasharray:2.0,2.0;" x1="10" x2="1455.5" y1="514.4531" y2="514.4531"/><text fill="#000000" font-family="sans-serif" font-size="11" font-weight="bold" lengthAdjust="spacing" textLength="128" x="15" y="524.6636">[data inconsistent*]</text><polygon fill="#181818" points="120.5,545.3906,110.5,549.3906,120.5,553.3906,116.5,549.3906" style="stroke:#181818;stroke-width:1.0;"/><line style="stroke:#181818;stroke-width:1.0;" x1="114.5" x2="486.5" y1="549.3906" y2="549.3906"/><text fill="#000000" font-family="sans-serif" font-size="13" lengthAdjust="spacing" textLength="131" x="126.5" y="544.3247">Send error message</text><polygon fill="#181818" points="1108.5,581.5234,1118.5,585.5234,1108.5,589.5234,1112.5,585.5234" style="stroke:#181818;stroke-width:1.0;"/><line style="stroke:#181818;stroke-width:1.0;" x1="487.5" x2="1114.5" y1="585.5234" y2="585.5234"/><text fill="#000000" font-family="sans-serif" font-size="13" lengthAdjust="spacing" textLength="180" x="494.5" y="580.4575">Delete temporary metadata</text><polygon fill="#181818" points="1366.5,610.6563,1376.5,614.6563,1366.5,618.6563,1370.5,614.6563" style="stroke:#181818;stroke-width:1.0;"/><line style="stroke:#181818;stroke-width:1.0;" x1="487.5" x2="1372.5" y1="614.6563" y2="614.6563"/><text fill="#000000" font-family="sans-serif" font-size="13" lengthAdjust="spacing" textLength="212" x="494.5" y="609.5903">Delete temporary sequence data</text><path d="M114,627.6563 L114,712.6563 L592,712.6563 L592,637.6563 L582,627.6563 L114,627.6563 " fill="#FEFFDD" style="stroke:#181818;stroke-width:0.5;"/><path d="M582,627.6563 L582,637.6563 L592,637.6563 L582,627.6563 " fill="#FEFFDD" style="stroke:#181818;stroke-width:0.5;"/><text fill="#000000" font-family="sans-serif" font-size="13" lengthAdjust="spacing" textLength="133" x="120" y="644.7231">(*) data consistency:</text><text fill="#000000" font-family="sans-serif" font-size="13" lengthAdjust="spacing" textLength="323" x="128" y="659.856">- each metadata entry has a unique submission ID</text><text fill="#000000" font-family="sans-serif" font-size="13" lengthAdjust="spacing" textLength="449" x="128" y="674.9888">- each metadata entry has at least one corresponding sequence entry</text><text fill="#000000" font-family="sans-serif" font-size="13" lengthAdjust="spacing" textLength="446" x="128" y="690.1216">- each sequence entry has exactly one corresponding metadata entry</text><text fill="#000000" font-family="sans-serif" font-size="13" lengthAdjust="spacing" textLength="323" x="128" y="705.2544">- (for revision) submitted accession versions exists</text><!--SRC=[hLHDQ-Cm4BtdLmpffIsKtiEoi4rOABJi8UojbuayiKLboIl9sVZVxqYEvO_QRIcRK_3elNdpvWC0e4BhfP0LQW_h9oDgLJluQOtsf3EuXz-Ex1hGmR7xTlKayy9l6zGhM29uGF7ARoFmqFw7gryMTKuHbA770pg2zPx-rAG5mOicxMq3750KWPKrsUvXylv7VPPA8ZzyqILv39411klpCtzz5-Qwb2CO2s5KXALIxxvtwZVWwaCfFKWjlKHrR-aa7MMGo4Ak5Xv-NT7Ca2HjOE-D9KYofGx1Ywue9k4JQAHX7oYLT1xCiHNad3JwSUVI1-zPL9TXGKuijLCpAk03IH7u9KKBDg7oS3GMefkCuqva6HjiD2hLRDAxC6Tn6fQJQ_eB9x8jow614hqefCuXboVYgeIWACqbKaRF6PJejmM9Lv17LgacDg7kJGPa5mKJin0UuL5jCTx7RWS5vTRK5JoJpIdIRKt5ZflXr0z__K1y6pMn9UYrwAdNoqJCqoRRjCdBG9MrcYz2QX5w0JDwFcf7yhjlogL9ILxOTqbkH3tioKnlkity3yb8kJJpmmwjFfUQhEMvBJajNcxQHFhy1TYH8i-NXyhAsB1ZRrRrdOLz0vxRActuYGqdEdZGgMvZrxStav4K_PBT0Q4e-b5gpt4HhYFKMdAcmOB3u-uJE0-ACBH8XmsnbbnbT1QMSjINPa8r3aOgEgFmgfbX6kVjcQw7T-LcS8fcXeNER4QQZU1xS77r3m00]--></g></svg>