<?xml version="1.0" encoding="us-ascii" standalone="no"?><svg xmlns="http://www.w3.org/2000/svg" xmlns:xlink="http://www.w3.org/1999/xlink" contentStyleType="text/css" height="525px" preserveAspectRatio="none" style="width:747px;height:525px;background:#FFFFFF;" version="1.1" viewBox="0 0 747 525" width="747px" zoomAndPan="magnify"><defs/><g><rect fill="none" height="136.7969" style="stroke:#000000;stroke-width:1.5;" width="730.5" x="10" y="113.4297"/><rect fill="none" height="165.9297" style="stroke:#000000;stroke-width:1.5;" width="730.5" x="10" y="264.2266"/><line style="stroke:#181818;stroke-width:0.5;stroke-dasharray:5.0,5.0;" x1="125" x2="125" y1="67.2969" y2="447.1563"/><line style="stroke:#181818;stroke-width:0.5;stroke-dasharray:5.0,5.0;" x1="462.5" x2="462.5" y1="67.2969" y2="447.1563"/><line style="stroke:#181818;stroke-width:0.5;stroke-dasharray:5.0,5.0;" x1="694.5" x2="694.5" y1="67.2969" y2="447.1563"/><rect fill="#E0FFFF" height="30.2969" rx="2.5" ry="2.5" style="stroke:#181818;stroke-width:0.5;" width="211" x="20" y="36"/><text fill="#000000" font-family="sans-serif" font-size="14" lengthAdjust="spacing" textLength="197" x="27" y="55.9951">Pathoplexus Frontend / User</text><rect fill="#E0FFFF" height="30.2969" rx="2.5" ry="2.5" style="stroke:#181818;stroke-width:0.5;" width="211" x="20" y="446.1563"/><text fill="#000000" font-family="sans-serif" font-size="14" lengthAdjust="spacing" textLength="197" x="27" y="466.1514">Pathoplexus Frontend / User</text><rect fill="#FFA500" height="30.2969" rx="2.5" ry="2.5" style="stroke:#181818;stroke-width:0.5;" width="164" x="380.5" y="36"/><text fill="#000000" font-family="sans-serif" font-size="14" lengthAdjust="spacing" textLength="150" x="387.5" y="55.9951">Pathoplexus Backend</text><rect fill="#FFA500" height="30.2969" rx="2.5" ry="2.5" style="stroke:#181818;stroke-width:0.5;" width="164" x="380.5" y="446.1563"/><text fill="#000000" font-family="sans-serif" font-size="14" lengthAdjust="spacing" textLength="150" x="387.5" y="466.1514">Pathoplexus Backend</text><text fill="#000000" font-family="sans-serif" font-size="14" lengthAdjust="spacing" textLength="66" x="658.5" y="63.9951">Database</text><path d="M676.5,15 C676.5,5 694.5,5 694.5,5 C694.5,5 712.5,5 712.5,15 L712.5,41 C712.5,51 694.5,51 694.5,51 C694.5,51 676.5,51 676.5,41 L676.5,15 " fill="#E2E2F0" style="stroke:#181818;stroke-width:1.5;"/><path d="M676.5,15 C676.5,25 694.5,25 694.5,25 C694.5,25 712.5,25 712.5,15 " fill="none" style="stroke:#181818;stroke-width:1.5;"/><text fill="#000000" font-family="sans-serif" font-size="14" lengthAdjust="spacing" textLength="66" x="658.5" y="459.1514">Database</text><path d="M676.5,472.4531 C676.5,462.4531 694.5,462.4531 694.5,462.4531 C694.5,462.4531 712.5,462.4531 712.5,472.4531 L712.5,498.4531 C712.5,508.4531 694.5,508.4531 694.5,508.4531 C694.5,508.4531 676.5,508.4531 676.5,498.4531 L676.5,472.4531 " fill="#E2E2F0" style="stroke:#181818;stroke-width:1.5;"/><path d="M676.5,472.4531 C676.5,482.4531 694.5,482.4531 694.5,482.4531 C694.5,482.4531 712.5,482.4531 712.5,472.4531 " fill="none" style="stroke:#181818;stroke-width:1.5;"/><polygon fill="#181818" points="450.5,94.4297,460.5,98.4297,450.5,102.4297,454.5,98.4297" style="stroke:#181818;stroke-width:1.0;"/><line style="stroke:#181818;stroke-width:1.0;" x1="125.5" x2="456.5" y1="98.4297" y2="98.4297"/><text fill="#000000" font-family="sans-serif" font-size="13" lengthAdjust="spacing" textLength="288" x="132.5" y="93.3638">wants to revoke already processed sequence</text><path d="M10,113.4297 L74,113.4297 L74,120.5625 L64,130.5625 L10,130.5625 L10,113.4297 " fill="#EEEEEE" style="stroke:#000000;stroke-width:1.5;"/><rect fill="none" height="136.7969" style="stroke:#000000;stroke-width:1.5;" width="730.5" x="10" y="113.4297"/><text fill="#000000" font-family="sans-serif" font-size="13" font-weight="bold" lengthAdjust="spacing" textLength="19" x="25" y="126.4966">alt</text><text fill="#000000" font-family="sans-serif" font-size="11" font-weight="bold" lengthAdjust="spacing" textLength="359" x="89" y="125.6401">[sequenceID exists and highest version is 'SILO_READY']</text><polygon fill="#181818" points="682.5,177.9609,692.5,181.9609,682.5,185.9609,686.5,181.9609" style="stroke:#181818;stroke-width:1.0;"/><line style="stroke:#181818;stroke-width:1.0;" x1="462.5" x2="688.5" y1="181.9609" y2="181.9609"/><text fill="#000000" font-family="sans-serif" font-size="13" lengthAdjust="spacing" textLength="115" x="469.5" y="146.6294">insert new version</text><text fill="#000000" font-family="sans-serif" font-size="13" lengthAdjust="spacing" textLength="204" x="469.5" y="161.7622">with status 'REVISION_STAGING'</text><text fill="#000000" font-family="sans-serif" font-size="13" lengthAdjust="spacing" textLength="151" x="469.5" y="176.895">and ' is_revocation = true'</text><polygon fill="#181818" points="136.5,207.0938,126.5,211.0938,136.5,215.0938,132.5,211.0938" style="stroke:#181818;stroke-width:1.0;"/><line style="stroke:#181818;stroke-width:1.0;" x1="130.5" x2="461.5" y1="211.0938" y2="211.0938"/><text fill="#000000" font-family="sans-serif" font-size="13" lengthAdjust="spacing" textLength="313" x="142.5" y="206.0278">response with sequenceId + new version number</text><line style="stroke:#000000;stroke-width:1.0;stroke-dasharray:2.0,2.0;" x1="10" x2="740.5" y1="220.0938" y2="220.0938"/><polygon fill="#181818" points="136.5,238.2266,126.5,242.2266,136.5,246.2266,132.5,242.2266" style="stroke:#181818;stroke-width:1.0;"/><line style="stroke:#181818;stroke-width:1.0;" x1="130.5" x2="461.5" y1="242.2266" y2="242.2266"/><text fill="#000000" font-family="sans-serif" font-size="13" lengthAdjust="spacing" textLength="186" x="142.5" y="237.1606">response with error message</text><path d="M10,264.2266 L74,264.2266 L74,271.3594 L64,281.3594 L10,281.3594 L10,264.2266 " fill="#EEEEEE" style="stroke:#000000;stroke-width:1.5;"/><rect fill="none" height="165.9297" style="stroke:#000000;stroke-width:1.5;" width="730.5" x="10" y="264.2266"/><text fill="#000000" font-family="sans-serif" font-size="13" font-weight="bold" lengthAdjust="spacing" textLength="19" x="25" y="277.2935">alt</text><polygon fill="#181818" points="450.5,298.4922,460.5,302.4922,450.5,306.4922,454.5,302.4922" style="stroke:#181818;stroke-width:1.0;"/><line style="stroke:#181818;stroke-width:1.0;" x1="125.5" x2="456.5" y1="302.4922" y2="302.4922"/><text fill="#000000" font-family="sans-serif" font-size="13" lengthAdjust="spacing" textLength="126" x="132.5" y="297.4263">confirms revocation</text><polygon fill="#181818" points="682.5,327.625,692.5,331.625,682.5,335.625,686.5,331.625" style="stroke:#181818;stroke-width:1.0;"/><line style="stroke:#181818;stroke-width:1.0;" x1="462.5" x2="688.5" y1="331.625" y2="331.625"/><text fill="#000000" font-family="sans-serif" font-size="13" lengthAdjust="spacing" textLength="169" x="469.5" y="326.5591">set status to 'SILO_READY'</text><line style="stroke:#000000;stroke-width:1.0;stroke-dasharray:2.0,2.0;" x1="10" x2="740.5" y1="340.625" y2="340.625"/><polygon fill="#181818" points="450.5,358.7578,460.5,362.7578,450.5,366.7578,454.5,362.7578" style="stroke:#181818;stroke-width:1.0;"/><line style="stroke:#181818;stroke-width:1.0;" x1="125.5" x2="456.5" y1="362.7578" y2="362.7578"/><text fill="#000000" font-family="sans-serif" font-size="13" lengthAdjust="spacing" textLength="119" x="132.5" y="357.6919">cancels revocation</text><polygon fill="#181818" points="682.5,418.1563,692.5,422.1563,682.5,426.1563,686.5,422.1563" style="stroke:#181818;stroke-width:1.0;"/><line style="stroke:#181818;stroke-width:1.0;" x1="462.5" x2="688.5" y1="422.1563" y2="422.1563"/><text fill="#000000" font-family="sans-serif" font-size="13" lengthAdjust="spacing" textLength="130" x="469.5" y="386.8247">delete latest version</text><text fill="#000000" font-family="sans-serif" font-size="13" lengthAdjust="spacing" textLength="177" x="469.5" y="401.9575">of the sequence and Status</text><text fill="#000000" font-family="sans-serif" font-size="13" lengthAdjust="spacing" textLength="132" x="469.5" y="417.0903">'REVOKED_STAGING'</text><!--SRC=[ZL5DIyD04BtxAnxra8E8zuA2DLM2OiMg81JAD9cQnNGtxaoj_dl7n8IALTpJiZlpFW6WfgWkTpLvnU26j0nrnMzhmNaCNjaNECAzS1o01ClkRV_AFPLwzav-3t-1Z2X_jlbcUT7UiJ-9v9-uMIn8QK726AHVjsOq7UqrtptVuKctFiJ6M0GQ4FarF3EeYap5E-eOSXRX0i8lQ_Ovjo0seFrJbeBVd1W06MnfBbWKhnp51GydIARPrMH-EpvD7vDstKudtMIaeo6Sjq0KdZVTvinld9OG9JNNoUtu8Pjca-lvzExq8hk-I33pdto9CSnRsGMEeN7DBSaMGUTvQFwa3aQ55hjpKE1Wcnf-lLfmR62u4jub-ZTCZZ54h2mr-Yh4XjhKBBGUQMSDUV1B5rVIr92JcfJVyXBMBXghxKV2trJlvY8pNls7gk2AbL6HRlSwys49BRaFiMb_sagQ-S- -9fVZjA-hY-83]--></g></svg>
