<?xml version="1.0" encoding="us-ascii" standalone="no"?><svg xmlns="http://www.w3.org/2000/svg" xmlns:xlink="http://www.w3.org/1999/xlink" contentStyleType="text/css" height="827px" preserveAspectRatio="none" style="width:1433px;height:827px;background:#FFFFFF;" version="1.1" viewBox="0 0 1433 827" width="1433px" zoomAndPan="magnify"><defs/><g><rect fill="none" height="46.6211" style="stroke:#000000;stroke-width:1.5;" width="497" x="410" y="247.5293"/><rect fill="none" height="210.1289" style="stroke:#000000;stroke-width:1.5;" width="1416" x="10" y="350.4609"/><rect fill="none" height="105.2422" style="stroke:#000000;stroke-width:1.5;" width="1006" x="410" y="374.7715"/><line style="stroke:#181818;stroke-width:0.5;stroke-dasharray:5.0,5.0;" x1="109" x2="109" y1="83.9766" y2="732.7637"/><line style="stroke:#181818;stroke-width:0.5;stroke-dasharray:5.0,5.0;" x1="483" x2="483" y1="83.9766" y2="732.7637"/><line style="stroke:#181818;stroke-width:0.5;stroke-dasharray:5.0,5.0;" x1="857" x2="857" y1="83.9766" y2="732.7637"/><line style="stroke:#181818;stroke-width:0.5;stroke-dasharray:5.0,5.0;" x1="1106.5" x2="1106.5" y1="83.9766" y2="732.7637"/><line style="stroke:#181818;stroke-width:0.5;stroke-dasharray:5.0,5.0;" x1="1351" x2="1351" y1="83.9766" y2="732.7637"/><rect fill="#E0FFFF" height="30.4883" rx="2.5" ry="2.5" style="stroke:#181818;stroke-width:0.5;" width="179" x="20" y="52.4883"/><text fill="#000000" font-family="sans-serif" font-size="14" lengthAdjust="spacing" textLength="165" x="27" y="73.0234">Loculus Frontend / User</text><rect fill="#E0FFFF" height="30.4883" rx="2.5" ry="2.5" style="stroke:#181818;stroke-width:0.5;" width="179" x="20" y="731.7637"/><text fill="#000000" font-family="sans-serif" font-size="14" lengthAdjust="spacing" textLength="165" x="27" y="752.2988">Loculus Frontend / User</text><rect fill="#FFA500" height="30.4883" rx="2.5" ry="2.5" style="stroke:#181818;stroke-width:0.5;" width="127" x="420" y="52.4883"/><text fill="#000000" font-family="sans-serif" font-size="14" lengthAdjust="spacing" textLength="113" x="427" y="73.0234">Loculus Backend</text><rect fill="#FFA500" height="30.4883" rx="2.5" ry="2.5" style="stroke:#181818;stroke-width:0.5;" width="127" x="420" y="731.7637"/><text fill="#000000" font-family="sans-serif" font-size="14" lengthAdjust="spacing" textLength="113" x="427" y="752.2988">Loculus Backend</text><text fill="#000000" font-family="sans-serif" font-size="14" lengthAdjust="spacing" textLength="66" x="819.5" y="64.5352">Sequence</text><text fill="#000000" font-family="sans-serif" font-size="14" lengthAdjust="spacing" textLength="73" x="818" y="81.0234">entry table</text><path d="M839.5,15 C839.5,5 857.5,5 857.5,5 C857.5,5 875.5,5 875.5,15 L875.5,41 C875.5,51 857.5,51 857.5,51 C857.5,51 839.5,51 839.5,41 L839.5,15 " fill="#E2E2F0" style="stroke:#181818;stroke-width:1.5;"/><path d="M839.5,15 C839.5,25 857.5,25 857.5,25 C857.5,25 875.5,25 875.5,15 " fill="none" style="stroke:#181818;stroke-width:1.5;"/><text fill="#000000" font-family="sans-serif" font-size="14" lengthAdjust="spacing" textLength="66" x="819.5" y="745.2988">Sequence</text><text fill="#000000" font-family="sans-serif" font-size="14" lengthAdjust="spacing" textLength="73" x="818" y="761.7871">entry table</text><path d="M839.5,774.7402 C839.5,764.7402 857.5,764.7402 857.5,764.7402 C857.5,764.7402 875.5,764.7402 875.5,774.7402 L875.5,800.7402 C875.5,810.7402 857.5,810.7402 857.5,810.7402 C857.5,810.7402 839.5,810.7402 839.5,800.7402 L839.5,774.7402 " fill="#E2E2F0" style="stroke:#181818;stroke-width:1.5;"/><path d="M839.5,774.7402 C839.5,784.7402 857.5,784.7402 857.5,784.7402 C857.5,784.7402 875.5,784.7402 875.5,774.7402 " fill="none" style="stroke:#181818;stroke-width:1.5;"/><text fill="#000000" font-family="sans-serif" font-size="14" lengthAdjust="spacing" textLength="61" x="1071" y="64.5352">Auxiliary</text><text fill="#000000" font-family="sans-serif" font-size="14" lengthAdjust="spacing" textLength="102" x="1052.5" y="81.0234">metadata table</text><path d="M1088.5,15 C1088.5,5 1106.5,5 1106.5,5 C1106.5,5 1124.5,5 1124.5,15 L1124.5,41 C1124.5,51 1106.5,51 1106.5,51 C1106.5,51 1088.5,51 1088.5,41 L1088.5,15 " fill="#E2E2F0" style="stroke:#181818;stroke-width:1.5;"/><path d="M1088.5,15 C1088.5,25 1106.5,25 1106.5,25 C1106.5,25 1124.5,25 1124.5,15 " fill="none" style="stroke:#181818;stroke-width:1.5;"/><text fill="#000000" font-family="sans-serif" font-size="14" lengthAdjust="spacing" textLength="61" x="1071" y="745.2988">Auxiliary</text><text fill="#000000" font-family="sans-serif" font-size="14" lengthAdjust="spacing" textLength="102" x="1052.5" y="761.7871">metadata table</text><path d="M1088.5,774.7402 C1088.5,764.7402 1106.5,764.7402 1106.5,764.7402 C1106.5,764.7402 1124.5,764.7402 1124.5,774.7402 L1124.5,800.7402 C1124.5,810.7402 1106.5,810.7402 1106.5,810.7402 C1106.5,810.7402 1088.5,810.7402 1088.5,800.7402 L1088.5,774.7402 " fill="#E2E2F0" style="stroke:#181818;stroke-width:1.5;"/><path d="M1088.5,774.7402 C1088.5,784.7402 1106.5,784.7402 1106.5,784.7402 C1106.5,784.7402 1124.5,784.7402 1124.5,774.7402 " fill="none" style="stroke:#181818;stroke-width:1.5;"/><text fill="#000000" font-family="sans-serif" font-size="14" lengthAdjust="spacing" textLength="61" x="1316" y="64.5352">Auxiliary</text><text fill="#000000" font-family="sans-serif" font-size="14" lengthAdjust="spacing" textLength="103" x="1297" y="81.0234">sequence table</text><path d="M1333.5,15 C1333.5,5 1351.5,5 1351.5,5 C1351.5,5 1369.5,5 1369.5,15 L1369.5,41 C1369.5,51 1351.5,51 1351.5,51 C1351.5,51 1333.5,51 1333.5,41 L1333.5,15 " fill="#E2E2F0" style="stroke:#181818;stroke-width:1.5;"/><path d="M1333.5,15 C1333.5,25 1351.5,25 1351.5,25 C1351.5,25 1369.5,25 1369.5,15 " fill="none" style="stroke:#181818;stroke-width:1.5;"/><text fill="#000000" font-family="sans-serif" font-size="14" lengthAdjust="spacing" textLength="61" x="1316" y="745.2988">Auxiliary</text><text fill="#000000" font-family="sans-serif" font-size="14" lengthAdjust="spacing" textLength="103" x="1297" y="761.7871">sequence table</text><path d="M1333.5,774.7402 C1333.5,764.7402 1351.5,764.7402 1351.5,764.7402 C1351.5,764.7402 1369.5,764.7402 1369.5,774.7402 L1369.5,800.7402 C1369.5,810.7402 1351.5,810.7402 1351.5,810.7402 C1351.5,810.7402 1333.5,810.7402 1333.5,800.7402 L1333.5,774.7402 " fill="#E2E2F0" style="stroke:#181818;stroke-width:1.5;"/><path d="M1333.5,774.7402 C1333.5,784.7402 1351.5,784.7402 1351.5,784.7402 C1351.5,784.7402 1369.5,784.7402 1369.5,774.7402 " fill="none" style="stroke:#181818;stroke-width:1.5;"/><polygon fill="#181818" points="471.5,111.2871,481.5,115.2871,471.5,119.2871,475.5,115.2871" style="stroke:#181818;stroke-width:1.0;"/><line style="stroke:#181818;stroke-width:1.0;" x1="109.5" x2="477.5" y1="115.2871" y2="115.2871"/><text fill="#000000" font-family="sans-serif" font-size="13" lengthAdjust="spacing" textLength="230" x="116.5" y="110.5449">submit initial/revised sequence data</text><polygon fill="#181818" points="1094.5,140.5977,1104.5,144.5977,1094.5,148.5977,1098.5,144.5977" style="stroke:#181818;stroke-width:1.0;"/><line style="stroke:#181818;stroke-width:1.0;" x1="483.5" x2="1100.5" y1="144.5977" y2="144.5977"/><text fill="#000000" font-family="sans-serif" font-size="13" lengthAdjust="spacing" textLength="203" x="490.5" y="139.8555">Store metadata in auxiliary table</text><polygon fill="#181818" points="494.5,169.9082,484.5,173.9082,494.5,177.9082,490.5,173.9082" style="stroke:#181818;stroke-width:1.0;"/><line style="stroke:#181818;stroke-width:1.0;" x1="488.5" x2="1105.5" y1="173.9082" y2="173.9082"/><text fill="#000000" font-family="sans-serif" font-size="13" lengthAdjust="spacing" textLength="316" x="500.5" y="169.166">Send list of submissionIDs of submitted metadata</text><polygon fill="#181818" points="1339.5,199.2188,1349.5,203.2188,1339.5,207.2188,1343.5,203.2188" style="stroke:#181818;stroke-width:1.0;"/><line style="stroke:#181818;stroke-width:1.0;" x1="483.5" x2="1345.5" y1="203.2188" y2="203.2188"/><text fill="#000000" font-family="sans-serif" font-size="13" lengthAdjust="spacing" textLength="235" x="490.5" y="198.4766">Store sequence data in auxiliary table</text><polygon fill="#181818" points="494.5,228.5293,484.5,232.5293,494.5,236.5293,490.5,232.5293" style="stroke:#181818;stroke-width:1.0;"/><line style="stroke:#181818;stroke-width:1.0;" x1="488.5" x2="1350.5" y1="232.5293" y2="232.5293"/><text fill="#000000" font-family="sans-serif" font-size="13" lengthAdjust="spacing" textLength="348" x="500.5" y="227.7871">Send list of submissionIDs of submitted sequence data</text><path d="M410,247.5293 L472,247.5293 L472,254.8398 L462,264.8398 L410,264.8398 L410,247.5293 " fill="#EEEEEE" style="stroke:#000000;stroke-width:1.5;"/><rect fill="none" height="46.6211" style="stroke:#000000;stroke-width:1.5;" width="497" x="410" y="247.5293"/><text fill="#000000" font-family="sans-serif" font-size="13" font-weight="bold" lengthAdjust="spacing" textLength="17" x="425" y="261.0977">alt</text><text fill="#000000" font-family="sans-serif" font-size="11" font-weight="bold" lengthAdjust="spacing" textLength="154" x="487" y="260.1641">[for revisions additionally:]</text><polygon fill="#181818" points="494.5,282.1504,484.5,286.1504,494.5,290.1504,490.5,286.1504" style="stroke:#181818;stroke-width:1.0;"/><line style="stroke:#181818;stroke-width:1.0;" x1="488.5" x2="856.5" y1="286.1504" y2="286.1504"/><text fill="#000000" font-family="sans-serif" font-size="13" lengthAdjust="spacing" textLength="350" x="500.5" y="281.4082">Send list of new versions by matching given accessions</text><line style="stroke:#181818;stroke-width:1.0;" x1="483.5" x2="525.5" y1="322.4609" y2="322.4609"/><line style="stroke:#181818;stroke-width:1.0;" x1="525.5" x2="525.5" y1="322.4609" y2="335.4609"/><line style="stroke:#181818;stroke-width:1.0;" x1="484.5" x2="525.5" y1="335.4609" y2="335.4609"/><polygon fill="#181818" points="494.5,331.4609,484.5,335.4609,494.5,339.4609,490.5,335.4609" style="stroke:#181818;stroke-width:1.0;"/><text fill="#000000" font-family="sans-serif" font-size="13" lengthAdjust="spacing" textLength="347" x="490.5" y="317.7188">Check if all sequence data and metadata are consistent</text><path d="M10,350.4609 L72,350.4609 L72,357.7715 L62,367.7715 L10,367.7715 L10,350.4609 " fill="#EEEEEE" style="stroke:#000000;stroke-width:1.5;"/><rect fill="none" height="210.1289" style="stroke:#000000;stroke-width:1.5;" width="1416" x="10" y="350.4609"/><text fill="#000000" font-family="sans-serif" font-size="13" font-weight="bold" lengthAdjust="spacing" textLength="17" x="25" y="364.0293">alt</text><text fill="#000000" font-family="sans-serif" font-size="11" font-weight="bold" lengthAdjust="spacing" textLength="97" x="87" y="363.0957">[data consistent*]</text><path d="M410,374.7715 L637,374.7715 L637,382.082 L627,392.082 L410,392.082 L410,374.7715 " fill="#EEEEEE" style="stroke:#000000;stroke-width:1.5;"/><rect fill="none" height="105.2422" style="stroke:#000000;stroke-width:1.5;" width="1006" x="410" y="374.7715"/><text fill="#000000" font-family="sans-serif" font-size="13" font-weight="bold" lengthAdjust="spacing" textLength="182" x="425" y="388.3398">Merge and Copy to prodDB</text><polygon fill="#181818" points="1117.5,409.3926,1107.5,413.3926,1117.5,417.3926,1113.5,413.3926" style="stroke:#181818;stroke-width:1.0;"/><polygon fill="#181818" points="1339.5,409.3926,1349.5,413.3926,1339.5,417.3926,1343.5,413.3926" style="stroke:#181818;stroke-width:1.0;"/><line style="stroke:#181818;stroke-width:1.0;" x1="1111.5" x2="1345.5" y1="413.3926" y2="413.3926"/><text fill="#000000" font-family="sans-serif" font-size="13" lengthAdjust="spacing" textLength="221" x="1123.5" y="408.6504">Merge metadata and sequence data</text><polygon fill="#181818" points="868.5,438.7031,858.5,442.7031,868.5,446.7031,864.5,442.7031" style="stroke:#181818;stroke-width:1.0;"/><line style="stroke:#181818;stroke-width:1.0;" x1="862.5" x2="1105.5" y1="442.7031" y2="442.7031"/><text fill="#000000" font-family="sans-serif" font-size="13" lengthAdjust="spacing" textLength="225" x="874.5" y="437.9609">Copy merged data to production DB</text><polygon fill="#181818" points="494.5,468.0137,484.5,472.0137,494.5,476.0137,490.5,472.0137" style="stroke:#181818;stroke-width:1.0;"/><line style="stroke:#181818;stroke-width:1.0;" x1="488.5" x2="856.5" y1="472.0137" y2="472.0137"/><text fill="#000000" font-family="sans-serif" font-size="13" lengthAdjust="spacing" textLength="350" x="500.5" y="467.2715">Send list of accession versions of new sequence entries</text><polygon fill="#181818" points="120.5,504.3242,110.5,508.3242,120.5,512.3242,116.5,508.3242" style="stroke:#181818;stroke-width:1.0;"/><line style="stroke:#181818;stroke-width:1.0;" x1="114.5" x2="482.5" y1="508.3242" y2="508.3242"/><text fill="#000000" font-family="sans-serif" font-size="13" lengthAdjust="spacing" textLength="350" x="126.5" y="503.582">Send list of accession versions of new sequence entries</text><line style="stroke:#000000;stroke-width:1.0;stroke-dasharray:2.0,2.0;" x1="10" x2="1426" y1="517.3242" y2="517.3242"/><text fill="#000000" font-family="sans-serif" font-size="11" font-weight="bold" lengthAdjust="spacing" textLength="108" x="15" y="527.959">[data inconsistent*]</text><polygon fill="#181818" points="120.5,548.5898,110.5,552.5898,120.5,556.5898,116.5,552.5898" style="stroke:#181818;stroke-width:1.0;"/><line style="stroke:#181818;stroke-width:1.0;" x1="114.5" x2="482.5" y1="552.5898" y2="552.5898"/><text fill="#000000" font-family="sans-serif" font-size="13" lengthAdjust="spacing" textLength="123" x="126.5" y="547.8477">Send error message</text><polygon fill="#181818" points="1094.5,584.9004,1104.5,588.9004,1094.5,592.9004,1098.5,588.9004" style="stroke:#181818;stroke-width:1.0;"/><line style="stroke:#181818;stroke-width:1.0;" x1="483.5" x2="1100.5" y1="588.9004" y2="588.9004"/><text fill="#000000" font-family="sans-serif" font-size="13" lengthAdjust="spacing" textLength="170" x="490.5" y="584.1582">Delete temporary metadata</text><polygon fill="#181818" points="1339.5,614.2109,1349.5,618.2109,1339.5,622.2109,1343.5,618.2109" style="stroke:#181818;stroke-width:1.0;"/><line style="stroke:#181818;stroke-width:1.0;" x1="483.5" x2="1345.5" y1="618.2109" y2="618.2109"/><text fill="#000000" font-family="sans-serif" font-size="13" lengthAdjust="spacing" textLength="202" x="490.5" y="613.4688">Delete temporary sequence data</text><path d="M114,631.2109 L114,717.2109 L579,717.2109 L579,641.2109 L569,631.2109 L114,631.2109 " fill="#FEFFDD" style="stroke:#181818;stroke-width:0.5;"/><path d="M569,631.2109 L569,641.2109 L579,641.2109 L569,631.2109 " fill="#FEFFDD" style="stroke:#181818;stroke-width:0.5;"/><text fill="#000000" font-family="sans-serif" font-size="13" lengthAdjust="spacing" textLength="128" x="120" y="648.7793">(*) data consistency:</text><text fill="#000000" font-family="sans-serif" font-size="13" lengthAdjust="spacing" textLength="318" x="128" y="664.0898">- each metadata entry has a unique submission ID</text><text fill="#000000" font-family="sans-serif" font-size="13" lengthAdjust="spacing" textLength="436" x="128" y="679.4004">- each metadata entry has at least one corresponding sequence entry</text><text fill="#000000" font-family="sans-serif" font-size="13" lengthAdjust="spacing" textLength="435" x="128" y="694.7109">- each sequence entry has exactly one corresponding metadata entry</text><text fill="#000000" font-family="sans-serif" font-size="13" lengthAdjust="spacing" textLength="325" x="128" y="710.0215">- (for revision) submitted accession versions exists</text><!--SRC=[hLHDQ-Cm4BtdLmpffIsKtiEoi4rOABJi8UojbuayiKLboIl9sVZVxqYEvO_QRIcRK_3elNdpvWC0e4BhfP0LQW_h9oDgLJluQOtsf3EuXz-Ex1hGmR7xTlKayy9l6zGhM29uGF7ARoFmqFw7gryMTKuHbA770pg2zPx-rAG5mOicxMq3750KWPKrsUvXylv7VPPA8ZzyqILv39411klpCtzz5-Qwb2CO2s5KXALIxxvtwZVWwaCfFKWjlKHrR-aa7MMGo4Ak5Xv-NT7Ca2HjOE-D9KYofGx1Ywue9k4JQAHX7oYLT1xCiHNad3JwSUVI1-zPL9TXGKuijLCpAk03IH7u9KKBDg7oS3GMefkCuqva6HjiD2hLRDAxC6Tn6fQJQ_eB9x8jow614hqefCuXboVYgeIWACqbKaRF6PJejmM9Lv17LgacDg7kJGPa5mKJin0UuL5jCTx7RWS5vTRK5JoJpIdIRKt5ZflXr0z__K1y6pMn9UYrwAdNoqJCqoRRjCdBG9MrcYz2QX5w0JDwFcf7yhjlogL9ILxOTqbkH3tioKnlkity3yb8kJJpmmwjFfUQhEMvBJajNcxQHFhy1TYH8i-NXyhAsB1ZRrRrdOLz0vxRActuYGqdEdZGgMvZrxStav4K_PBT0Q4e-b5gpt4HhYFKMdAcmOB3u-uJE0-ACBH8XmsnbbnbT1QMSjINPa8r3aOgEgFmgfbX6kVjcQw7T-LcS8fcXeNER4QQZU1xS77r3m00]--></g></svg>