<svg xmlns="http://www.w3.org/2000/svg" xmlns:xlink="http://www.w3.org/1999/xlink" contentStyleType="text/css" height="528px" preserveAspectRatio="none" style="width:753px;height:528px;background:#FFFFFF;" version="1.1" viewBox="0 0 753 528" width="753px" zoomAndPan="magnify"><defs/><g><rect fill="none" height="137.8633" style="stroke:#000000;stroke-width:1.5;" width="736.7373" x="10" y="113.7988"/><rect fill="none" height="167.1738" style="stroke:#000000;stroke-width:1.5;" width="736.7373" x="10" y="265.6621"/><line style="stroke:#181818;stroke-width:0.5;stroke-dasharray:5.0,5.0;" x1="108" x2="108" y1="67.4883" y2="449.8359"/><line style="stroke:#181818;stroke-width:0.5;stroke-dasharray:5.0,5.0;" x1="432.4824" x2="432.4824" y1="67.4883" y2="449.8359"/><line style="stroke:#181818;stroke-width:0.5;stroke-dasharray:5.0,5.0;" x1="702.0723" x2="702.0723" y1="67.4883" y2="449.8359"/><rect fill="#E0FFFF" height="30.4883" rx="2.5" ry="2.5" style="stroke:#181818;stroke-width:0.5;" width="177.8506" x="20" y="36"/><text fill="#000000" font-family="sans-serif" font-size="14" lengthAdjust="spacing" textLength="163.8506" x="27" y="56.5352">Loculus Frontend / User</text><rect fill="#E0FFFF" height="30.4883" rx="2.5" ry="2.5" style="stroke:#181818;stroke-width:0.5;" width="177.8506" x="20" y="448.8359"/><text fill="#000000" font-family="sans-serif" font-size="14" lengthAdjust="spacing" textLength="163.8506" x="27" y="469.3711">Loculus Frontend / User</text><rect fill="#FFA500" height="30.4883" rx="2.5" ry="2.5" style="stroke:#181818;stroke-width:0.5;" width="126.6631" x="369.4824" y="36"/><text fill="#000000" font-family="sans-serif" font-size="14" lengthAdjust="spacing" textLength="112.6631" x="376.4824" y="56.5352">Loculus Backend</text><rect fill="#FFA500" height="30.4883" rx="2.5" ry="2.5" style="stroke:#181818;stroke-width:0.5;" width="126.6631" x="369.4824" y="448.8359"/><text fill="#000000" font-family="sans-serif" font-size="14" lengthAdjust="spacing" textLength="112.6631" x="376.4824" y="469.3711">Loculus Backend</text><text fill="#000000" font-family="sans-serif" font-size="14" lengthAdjust="spacing" textLength="62.665" x="668.0723" y="64.5352">Database</text><path d="M684.4048,15 C684.4048,5 702.4048,5 702.4048,5 C702.4048,5 720.4048,5 720.4048,15 L720.4048,41 C720.4048,51 702.4048,51 702.4048,51 C702.4048,51 684.4048,51 684.4048,41 L684.4048,15 " fill="#E2E2F0" style="stroke:#181818;stroke-width:1.5;"/><path d="M684.4048,15 C684.4048,25 702.4048,25 702.4048,25 C702.4048,25 720.4048,25 720.4048,15 " fill="none" style="stroke:#181818;stroke-width:1.5;"/><text fill="#000000" font-family="sans-serif" font-size="14" lengthAdjust="spacing" textLength="62.665" x="668.0723" y="462.3711">Database</text><path d="M684.4048,475.3242 C684.4048,465.3242 702.4048,465.3242 702.4048,465.3242 C702.4048,465.3242 720.4048,465.3242 720.4048,475.3242 L720.4048,501.3242 C720.4048,511.3242 702.4048,511.3242 702.4048,511.3242 C702.4048,511.3242 684.4048,511.3242 684.4048,501.3242 L684.4048,475.3242 " fill="#E2E2F0" style="stroke:#181818;stroke-width:1.5;"/><path d="M684.4048,475.3242 C684.4048,485.3242 702.4048,485.3242 702.4048,485.3242 C702.4048,485.3242 720.4048,485.3242 720.4048,475.3242 " fill="none" style="stroke:#181818;stroke-width:1.5;"/><polygon fill="#181818" points="420.814,94.7988,430.814,98.7988,420.814,102.7988,424.814,98.7988" style="stroke:#181818;stroke-width:1.0;"/><line style="stroke:#181818;stroke-width:1.0;" x1="108.9253" x2="426.814" y1="98.7988" y2="98.7988"/><text fill="#000000" font-family="sans-serif" font-size="13" lengthAdjust="spacing" textLength="281.3345" x="115.9253" y="94.0566">wants to revoke already processed sequence</text><path d="M10,113.7988 L72.1387,113.7988 L72.1387,121.1094 L62.1387,131.1094 L10,131.1094 L10,113.7988 " fill="#EEEEEE" style="stroke:#000000;stroke-width:1.5;"/><rect fill="none" height="137.8633" style="stroke:#000000;stroke-width:1.5;" width="736.7373" x="10" y="113.7988"/><text fill="#000000" font-family="sans-serif" font-size="13" font-weight="bold" lengthAdjust="spacing" textLength="17.1387" x="25" y="127.3672">alt</text><text fill="#000000" font-family="sans-serif" font-size="11" font-weight="bold" lengthAdjust="spacing" textLength="382.25" x="87.1387" y="126.4336">[accession exists and highest version is 'APPROVED_FOR_RELEASE']</text><polygon fill="#181818" points="690.4048,179.041,700.4048,183.041,690.4048,187.041,694.4048,183.041" style="stroke:#181818;stroke-width:1.0;"/><line style="stroke:#181818;stroke-width:1.0;" x1="432.814" x2="696.4048" y1="183.041" y2="183.041"/><text fill="#000000" font-family="sans-serif" font-size="13" lengthAdjust="spacing" textLength="115.1592" x="439.814" y="147.6777">insert new version</text><text fill="#000000" font-family="sans-serif" font-size="13" lengthAdjust="spacing" textLength="151.4424" x="439.814" y="162.9883">with status 'PROCESSED'</text><text fill="#000000" font-family="sans-serif" font-size="13" lengthAdjust="spacing" textLength="164.3345" x="439.814" y="178.2988">and ' is_revocation = true'</text><polygon fill="#181818" points="119.9253,208.3516,109.9253,212.3516,119.9253,216.3516,115.9253,212.3516" style="stroke:#181818;stroke-width:1.0;"/><line style="stroke:#181818;stroke-width:1.0;" x1="113.9253" x2="431.814" y1="212.3516" y2="212.3516"/><text fill="#000000" font-family="sans-serif" font-size="13" lengthAdjust="spacing" textLength="299.8887" x="125.9253" y="207.6094">response with accession + new version number</text><line style="stroke:#000000;stroke-width:1.0;stroke-dasharray:2.0,2.0;" x1="10" x2="746.7373" y1="221.3516" y2="221.3516"/><polygon fill="#181818" points="119.9253,239.6621,109.9253,243.6621,119.9253,247.6621,115.9253,243.6621" style="stroke:#181818;stroke-width:1.0;"/><line style="stroke:#181818;stroke-width:1.0;" x1="113.9253" x2="431.814" y1="243.6621" y2="243.6621"/><text fill="#000000" font-family="sans-serif" font-size="13" lengthAdjust="spacing" textLength="182.6855" x="125.9253" y="238.9199">response with error message</text><path d="M10,265.6621 L72.1387,265.6621 L72.1387,272.9727 L62.1387,282.9727 L10,282.9727 L10,265.6621 " fill="#EEEEEE" style="stroke:#000000;stroke-width:1.5;"/><rect fill="none" height="167.1738" style="stroke:#000000;stroke-width:1.5;" width="736.7373" x="10" y="265.6621"/><text fill="#000000" font-family="sans-serif" font-size="13" font-weight="bold" lengthAdjust="spacing" textLength="17.1387" x="25" y="279.2305">alt</text><polygon fill="#181818" points="420.814,300.2832,430.814,304.2832,420.814,308.2832,424.814,304.2832" style="stroke:#181818;stroke-width:1.0;"/><line style="stroke:#181818;stroke-width:1.0;" x1="108.9253" x2="426.814" y1="304.2832" y2="304.2832"/><text fill="#000000" font-family="sans-serif" font-size="13" lengthAdjust="spacing" textLength="125.2329" x="115.9253" y="299.541">confirms revocation</text><polygon fill="#181818" points="690.4048,329.5938,700.4048,333.5938,690.4048,337.5938,694.4048,333.5938" style="stroke:#181818;stroke-width:1.0;"/><line style="stroke:#181818;stroke-width:1.0;" x1="432.814" x2="696.4048" y1="333.5938" y2="333.5938"/><text fill="#000000" font-family="sans-serif" font-size="13" lengthAdjust="spacing" textLength="245.5908" x="439.814" y="328.8516">set status to 'APPROVED_FOR_RELEASE'</text><line style="stroke:#000000;stroke-width:1.0;stroke-dasharray:2.0,2.0;" x1="10" x2="746.7373" y1="342.5938" y2="342.5938"/><polygon fill="#181818" points="420.814,360.9043,430.814,364.9043,420.814,368.9043,424.814,364.9043" style="stroke:#181818;stroke-width:1.0;"/><line style="stroke:#181818;stroke-width:1.0;" x1="108.9253" x2="426.814" y1="364.9043" y2="364.9043"/><text fill="#000000" font-family="sans-serif" font-size="13" lengthAdjust="spacing" textLength="116.0923" x="115.9253" y="360.1621">cancels revocation</text><polygon fill="#181818" points="690.4048,420.8359,700.4048,424.8359,690.4048,428.8359,694.4048,424.8359" style="stroke:#181818;stroke-width:1.0;"/><line style="stroke:#181818;stroke-width:1.0;" x1="432.814" x2="696.4048" y1="424.8359" y2="424.8359"/><text fill="#000000" font-family="sans-serif" font-size="13" lengthAdjust="spacing" textLength="127.0166" x="439.814" y="389.4727">delete latest version</text><text fill="#000000" font-family="sans-serif" font-size="13" lengthAdjust="spacing" textLength="170.752" x="439.814" y="404.7832">of the sequence and Status</text><text fill="#000000" font-family="sans-serif" font-size="13" lengthAdjust="spacing" textLength="78.2856" x="439.814" y="420.0938">'PROCESSED'</text><!--SRC=[ZP91Qy9048Nl_HKFFUHGIkz22shYIL0CxIaWOpBgOjorknEj_xvZOjI2bkQqP6U-D-_D0i2El9ZSxCWAEcENLsKLCFBE2ji2h_W8x3kWW6NxhpisgxKCZsIVy0Wme7oZjNNZeZcZE_5aLrmt5IIqeC3enETJNHeFdkhhYzRBUzlUmq4L0iJ1yzvj65HwfkA8dNSvXy050dzLR7Dk85eWeFnqPvm5VvkW_QJKjHhW8DYphwzCGDIVJcUJpoIUZoQp-ImP9_qqYHgEVgq7dISUz62ifYAmV6WPcJqOMIC8YTgFb3LCqZI98sJs91cfoFmqU4voado3-8eRWHjuQxod9iFEgGngxjN6ywqgRBLTiAyfN0Q-D-yZ97llFBQAfVDIjAX9JeExaEwk8dTsQVmsuEheKLI1fKr5L_T7pB_clwzAkjloFw85booCakHspPbrIyYQB- -aVWnfCrncRvRMnl43]--></g></svg>