<?xml version="1.0" encoding="us-ascii" standalone="no"?><svg xmlns="http://www.w3.org/2000/svg" xmlns:xlink="http://www.w3.org/1999/xlink" contentStyleType="text/css" height="1314px" preserveAspectRatio="none" style="width:1137px;height:1314px;background:#FFFFFF;" version="1.1" viewBox="0 0 1137 1314" width="1137px" zoomAndPan="magnify"><defs/><g><rect fill="none" height="149.5078" style="stroke:#000000;stroke-width:1.5;" width="1120.5" x="10" y="113.7988"/><rect fill="none" height="346.3262" style="stroke:#000000;stroke-width:1.5;" width="1009.5" x="121" y="503.791"/><rect fill="none" height="238.0391" style="stroke:#000000;stroke-width:1.5;" width="1120.5" x="10" y="981.3594"/><line style="stroke:#181818;stroke-width:0.5;stroke-dasharray:5.0,5.0;" x1="126" x2="126" y1="67.4883" y2="1236.3984"/><line style="stroke:#181818;stroke-width:0.5;stroke-dasharray:5.0,5.0;" x1="335" x2="335" y1="67.4883" y2="1236.3984"/><line style="stroke:#181818;stroke-width:0.5;stroke-dasharray:5.0,5.0;" x1="606" x2="606" y1="67.4883" y2="1236.3984"/><line style="stroke:#181818;stroke-width:0.5;stroke-dasharray:5.0,5.0;" x1="1085.5" x2="1085.5" y1="67.4883" y2="1236.3984"/><rect fill="#E0FFFF" height="30.4883" rx="2.5" ry="2.5" style="stroke:#181818;stroke-width:0.5;" width="212" x="20" y="36"/><text fill="#000000" font-family="sans-serif" font-size="14" lengthAdjust="spacing" textLength="198" x="27" y="56.5352">Pathoplexus Frontend / User</text><rect fill="#E0FFFF" height="30.4883" rx="2.5" ry="2.5" style="stroke:#181818;stroke-width:0.5;" width="212" x="20" y="1235.3984"/><text fill="#000000" font-family="sans-serif" font-size="14" lengthAdjust="spacing" textLength="198" x="27" y="1255.9336">Pathoplexus Frontend / User</text><rect fill="#90EE90" height="30.4883" rx="2.5" ry="2.5" style="stroke:#181818;stroke-width:0.5;" width="186" x="242" y="36"/><text fill="#000000" font-family="sans-serif" font-size="14" lengthAdjust="spacing" textLength="172" x="249" y="56.5352">(Pre-)Processing Pipeline</text><rect fill="#90EE90" height="30.4883" rx="2.5" ry="2.5" style="stroke:#181818;stroke-width:0.5;" width="186" x="242" y="1235.3984"/><text fill="#000000" font-family="sans-serif" font-size="14" lengthAdjust="spacing" textLength="172" x="249" y="1255.9336">(Pre-)Processing Pipeline</text><rect fill="#FFA500" height="30.4883" rx="2.5" ry="2.5" style="stroke:#181818;stroke-width:0.5;" width="160" x="526" y="36"/><text fill="#000000" font-family="sans-serif" font-size="14" lengthAdjust="spacing" textLength="146" x="533" y="56.5352">Pathoplexus Backend</text><rect fill="#FFA500" height="30.4883" rx="2.5" ry="2.5" style="stroke:#181818;stroke-width:0.5;" width="160" x="526" y="1235.3984"/><text fill="#000000" font-family="sans-serif" font-size="14" lengthAdjust="spacing" textLength="146" x="533" y="1255.9336">Pathoplexus Backend</text><text fill="#000000" font-family="sans-serif" font-size="14" lengthAdjust="spacing" textLength="63" x="1051.5" y="64.5352">Database</text><path d="M1068,15 C1068,5 1086,5 1086,5 C1086,5 1104,5 1104,15 L1104,41 C1104,51 1086,51 1086,51 C1086,51 1068,51 1068,41 L1068,15 " fill="#E2E2F0" style="stroke:#181818;stroke-width:1.5;"/><path d="M1068,15 C1068,25 1086,25 1086,25 C1086,25 1104,25 1104,15 " fill="none" style="stroke:#181818;stroke-width:1.5;"/><text fill="#000000" font-family="sans-serif" font-size="14" lengthAdjust="spacing" textLength="63" x="1051.5" y="1248.9336">Database</text><path d="M1068,1261.8867 C1068,1251.8867 1086,1251.8867 1086,1251.8867 C1086,1251.8867 1104,1251.8867 1104,1261.8867 L1104,1287.8867 C1104,1297.8867 1086,1297.8867 1086,1297.8867 C1086,1297.8867 1068,1297.8867 1068,1287.8867 L1068,1261.8867 " fill="#E2E2F0" style="stroke:#181818;stroke-width:1.5;"/><path d="M1068,1261.8867 C1068,1271.8867 1086,1271.8867 1086,1271.8867 C1086,1271.8867 1104,1271.8867 1104,1261.8867 " fill="none" style="stroke:#181818;stroke-width:1.5;"/><polygon fill="#181818" points="594,94.7988,604,98.7988,594,102.7988,598,98.7988" style="stroke:#181818;stroke-width:1.0;"/><line style="stroke:#181818;stroke-width:1.0;" x1="126" x2="600" y1="98.7988" y2="98.7988"/><text fill="#000000" font-family="sans-serif" font-size="13" lengthAdjust="spacing" textLength="178" x="133" y="94.0566">submit initial sequence data</text><path d="M10,113.7988 L72,113.7988 L72,121.1094 L62,131.1094 L10,131.1094 L10,113.7988 " fill="#EEEEEE" style="stroke:#000000;stroke-width:1.5;"/><rect fill="none" height="149.5078" style="stroke:#000000;stroke-width:1.5;" width="1120.5" x="10" y="113.7988"/><text fill="#000000" font-family="sans-serif" font-size="13" font-weight="bold" lengthAdjust="spacing" textLength="17" x="25" y="127.3672">alt</text><text fill="#000000" font-family="sans-serif" font-size="11" font-weight="bold" lengthAdjust="spacing" textLength="218" x="87" y="126.4336">[Sequence and Metadata files are valid]</text><polygon fill="#181818" points="137,148.4199,127,152.4199,137,156.4199,133,152.4199" style="stroke:#181818;stroke-width:1.0;"/><line style="stroke:#181818;stroke-width:1.0;" x1="131" x2="605" y1="152.4199" y2="152.4199"/><text fill="#000000" font-family="sans-serif" font-size="13" lengthAdjust="spacing" textLength="164" x="143" y="147.6777">respond with sequenceIds</text><polygon fill="#181818" points="1074,177.7305,1084,181.7305,1074,185.7305,1078,181.7305" style="stroke:#181818;stroke-width:1.0;"/><line style="stroke:#181818;stroke-width:1.0;" x1="606" x2="1080" y1="181.7305" y2="181.7305"/><text fill="#000000" font-family="sans-serif" font-size="13" lengthAdjust="spacing" textLength="166" x="613" y="176.9883">store initial sequence data</text><polygon fill="#181818" points="1074,207.041,1084,211.041,1074,215.041,1078,211.041" style="stroke:#181818;stroke-width:1.0;"/><line style="stroke:#181818;stroke-width:1.0;" x1="606" x2="1080" y1="211.041" y2="211.041"/><text fill="#000000" font-family="sans-serif" font-size="13" lengthAdjust="spacing" textLength="149" x="613" y="206.2988">set status to 'RECEIVED'</text><line style="stroke:#000000;stroke-width:1.0;stroke-dasharray:2.0,2.0;" x1="10" x2="1130.5" y1="220.041" y2="220.041"/><text fill="#000000" font-family="sans-serif" font-size="11" font-weight="bold" lengthAdjust="spacing" textLength="221" x="15" y="230.6758">[Sequence or Metadata files are invalid]</text><polygon fill="#181818" points="137,251.3066,127,255.3066,137,259.3066,133,255.3066" style="stroke:#181818;stroke-width:1.0;"/><line style="stroke:#181818;stroke-width:1.0;" x1="131" x2="605" y1="255.3066" y2="255.3066"/><text fill="#000000" font-family="sans-serif" font-size="13" lengthAdjust="spacing" textLength="116" x="143" y="250.5645">respond with error</text><path d="M131,275.3066 L131,315.3066 L695,315.3066 L695,285.3066 L685,275.3066 L131,275.3066 " fill="#FEFFDD" style="stroke:#181818;stroke-width:0.5;"/><path d="M685,275.3066 L685,285.3066 L695,285.3066 L685,275.3066 " fill="#FEFFDD" style="stroke:#181818;stroke-width:0.5;"/><text fill="#000000" font-family="sans-serif" font-size="13" lengthAdjust="spacing" textLength="468" x="137" y="292.875">In the following we assume initial raw sequence data pass basic validation</text><text fill="#000000" font-family="sans-serif" font-size="13" lengthAdjust="spacing" textLength="543" x="137" y="308.1855">We also treat each sequence separately (for each sequence a separate path is possible)</text><polygon fill="#181818" points="594,338.2383,604,342.2383,594,346.2383,598,342.2383" style="stroke:#181818;stroke-width:1.0;"/><line style="stroke:#181818;stroke-width:1.0;" x1="335" x2="600" y1="342.2383" y2="342.2383"/><text fill="#000000" font-family="sans-serif" font-size="13" lengthAdjust="spacing" textLength="129" x="342" y="337.4961">query sequence data</text><polygon fill="#181818" points="1074,367.5488,1084,371.5488,1074,375.5488,1078,371.5488" style="stroke:#181818;stroke-width:1.0;"/><line style="stroke:#181818;stroke-width:1.0;" x1="606" x2="1080" y1="371.5488" y2="371.5488"/><text fill="#000000" font-family="sans-serif" font-size="13" lengthAdjust="spacing" textLength="129" x="613" y="366.8066">query sequence data</text><polygon fill="#181818" points="1074,396.8594,1084,400.8594,1074,404.8594,1078,400.8594" style="stroke:#181818;stroke-width:1.0;"/><line style="stroke:#181818;stroke-width:1.0;" x1="606" x2="1080" y1="400.8594" y2="400.8594"/><text fill="#000000" font-family="sans-serif" font-size="13" lengthAdjust="spacing" textLength="271" x="613" y="396.1172">set status from 'RECEIVED' to 'PROCESSING'</text><polygon fill="#181818" points="617,426.1699,607,430.1699,617,434.1699,613,430.1699" style="stroke:#181818;stroke-width:1.0;"/><line style="stroke:#181818;stroke-width:1.0;stroke-dasharray:2.0,2.0;" x1="611" x2="1085" y1="430.1699" y2="430.1699"/><text fill="#000000" font-family="sans-serif" font-size="13" lengthAdjust="spacing" textLength="176" x="623" y="425.4277">respond with sequence data</text><polygon fill="#181818" points="346,455.4805,336,459.4805,346,463.4805,342,459.4805" style="stroke:#181818;stroke-width:1.0;"/><line style="stroke:#181818;stroke-width:1.0;stroke-dasharray:2.0,2.0;" x1="340" x2="605" y1="459.4805" y2="459.4805"/><text fill="#000000" font-family="sans-serif" font-size="13" lengthAdjust="spacing" textLength="176" x="352" y="454.7383">respond with sequence data</text><polygon fill="#181818" points="594,484.791,604,488.791,594,492.791,598,488.791" style="stroke:#181818;stroke-width:1.0;"/><line style="stroke:#181818;stroke-width:1.0;" x1="335" x2="600" y1="488.791" y2="488.791"/><text fill="#000000" font-family="sans-serif" font-size="13" lengthAdjust="spacing" textLength="206" x="342" y="484.0488">submit processed sequence data</text><path d="M121,503.791 L183,503.791 L183,511.1016 L173,521.1016 L121,521.1016 L121,503.791 " fill="#EEEEEE" style="stroke:#000000;stroke-width:1.5;"/><rect fill="none" height="346.3262" style="stroke:#000000;stroke-width:1.5;" width="1009.5" x="121" y="503.791"/><text fill="#000000" font-family="sans-serif" font-size="13" font-weight="bold" lengthAdjust="spacing" textLength="17" x="136" y="517.3594">alt</text><text fill="#000000" font-family="sans-serif" font-size="11" font-weight="bold" lengthAdjust="spacing" textLength="262" x="198" y="516.4258">[processing response fails backend validation]</text><polygon fill="#181818" points="346,538.4121,336,542.4121,346,546.4121,342,542.4121" style="stroke:#181818;stroke-width:1.0;"/><line style="stroke:#181818;stroke-width:1.0;" x1="340" x2="605" y1="542.4121" y2="542.4121"/><text fill="#000000" font-family="sans-serif" font-size="13" lengthAdjust="spacing" textLength="189" x="352" y="537.6699">respond with validation errors</text><path d="M131,555.4121 L131,580.4121 L679,580.4121 L679,565.4121 L669,555.4121 L131,555.4121 " fill="#FEFFDD" style="stroke:#181818;stroke-width:0.5;"/><path d="M669,555.4121 L669,565.4121 L679,565.4121 L669,555.4121 " fill="#FEFFDD" style="stroke:#181818;stroke-width:0.5;"/><text fill="#000000" font-family="sans-serif" font-size="13" lengthAdjust="spacing" textLength="527" x="137" y="572.9805">Validation errors should be loudly logged and brought to the attention of the admin</text><polygon fill="#181818" points="1074,603.0332,1084,607.0332,1074,611.0332,1078,607.0332" style="stroke:#181818;stroke-width:1.0;"/><line style="stroke:#181818;stroke-width:1.0;" x1="606" x2="1080" y1="607.0332" y2="607.0332"/><text fill="#000000" font-family="sans-serif" font-size="13" lengthAdjust="spacing" textLength="372" x="613" y="602.291">log validation errors so that they can be reviewed by admin</text><polygon fill="#181818" points="1074,632.3438,1084,636.3438,1074,640.3438,1078,636.3438" style="stroke:#181818;stroke-width:1.0;"/><line style="stroke:#181818;stroke-width:1.0;" x1="606" x2="1080" y1="636.3438" y2="636.3438"/><text fill="#000000" font-family="sans-serif" font-size="13" lengthAdjust="spacing" textLength="275" x="613" y="631.6016">set status to 'PROCESSING_PIPELINE_ERROR'</text><line style="stroke:#000000;stroke-width:1.0;stroke-dasharray:2.0,2.0;" x1="121" x2="1130.5" y1="645.3438" y2="645.3438"/><text fill="#000000" font-family="sans-serif" font-size="11" font-weight="bold" lengthAdjust="spacing" textLength="294" x="126" y="655.9785">[processed sequence data contain processing errors]</text><polygon fill="#181818" points="346,676.6094,336,680.6094,346,684.6094,342,680.6094" style="stroke:#181818;stroke-width:1.0;"/><line style="stroke:#181818;stroke-width:1.0;" x1="340" x2="605" y1="680.6094" y2="680.6094"/><text fill="#000000" font-family="sans-serif" font-size="13" lengthAdjust="spacing" textLength="104" x="352" y="675.8672">respond with OK</text><polygon fill="#181818" points="1074,705.9199,1084,709.9199,1074,713.9199,1078,709.9199" style="stroke:#181818;stroke-width:1.0;"/><line style="stroke:#181818;stroke-width:1.0;" x1="606" x2="1080" y1="709.9199" y2="709.9199"/><text fill="#000000" font-family="sans-serif" font-size="13" lengthAdjust="spacing" textLength="266" x="613" y="705.1777">Store processed sequence data with errors</text><polygon fill="#181818" points="1074,735.2305,1084,739.2305,1074,743.2305,1078,739.2305" style="stroke:#181818;stroke-width:1.0;"/><line style="stroke:#181818;stroke-width:1.0;" x1="606" x2="1080" y1="739.2305" y2="739.2305"/><text fill="#000000" font-family="sans-serif" font-size="13" lengthAdjust="spacing" textLength="215" x="613" y="734.4883">set status to 'PROCESSING_ERROR'</text><line style="stroke:#000000;stroke-width:1.0;stroke-dasharray:2.0,2.0;" x1="121" x2="1130.5" y1="748.2305" y2="748.2305"/><text fill="#000000" font-family="sans-serif" font-size="11" font-weight="bold" lengthAdjust="spacing" textLength="279" x="126" y="758.8652">[processed sequences pass processing validation]</text><polygon fill="#181818" points="346,779.4961,336,783.4961,346,787.4961,342,783.4961" style="stroke:#181818;stroke-width:1.0;"/><line style="stroke:#181818;stroke-width:1.0;" x1="340" x2="605" y1="783.4961" y2="783.4961"/><text fill="#000000" font-family="sans-serif" font-size="13" lengthAdjust="spacing" textLength="104" x="352" y="778.7539">respond with OK</text><polygon fill="#181818" points="1074,808.8066,1084,812.8066,1074,816.8066,1078,812.8066" style="stroke:#181818;stroke-width:1.0;"/><line style="stroke:#181818;stroke-width:1.0;" x1="606" x2="1080" y1="812.8066" y2="812.8066"/><text fill="#000000" font-family="sans-serif" font-size="13" lengthAdjust="spacing" textLength="287" x="613" y="808.0645">Store processed sequence data without errors</text><polygon fill="#181818" points="1074,838.1172,1084,842.1172,1074,846.1172,1078,842.1172" style="stroke:#181818;stroke-width:1.0;"/><line style="stroke:#181818;stroke-width:1.0;" x1="606" x2="1080" y1="842.1172" y2="842.1172"/><text fill="#000000" font-family="sans-serif" font-size="13" lengthAdjust="spacing" textLength="161" x="613" y="837.375">set status to 'PROCESSED'</text><polygon fill="#181818" points="594,874.4277,604,878.4277,594,882.4277,598,878.4277" style="stroke:#181818;stroke-width:1.0;"/><line style="stroke:#181818;stroke-width:1.0;" x1="126" x2="600" y1="878.4277" y2="878.4277"/><text fill="#000000" font-family="sans-serif" font-size="13" lengthAdjust="spacing" textLength="197" x="133" y="873.6855">query processed sequence data</text><polygon fill="#181818" points="1074,903.7383,1084,907.7383,1074,911.7383,1078,907.7383" style="stroke:#181818;stroke-width:1.0;"/><line style="stroke:#181818;stroke-width:1.0;" x1="606" x2="1080" y1="907.7383" y2="907.7383"/><text fill="#000000" font-family="sans-serif" font-size="13" lengthAdjust="spacing" textLength="197" x="613" y="902.9961">query processed sequence data</text><polygon fill="#181818" points="617,933.0488,607,937.0488,617,941.0488,613,937.0488" style="stroke:#181818;stroke-width:1.0;"/><line style="stroke:#181818;stroke-width:1.0;" x1="611" x2="1085" y1="937.0488" y2="937.0488"/><text fill="#000000" font-family="sans-serif" font-size="13" lengthAdjust="spacing" textLength="456" x="623" y="932.3066">respond with processed sequence data (if available) and warnings/errors</text><polygon fill="#181818" points="137,962.3594,127,966.3594,137,970.3594,133,966.3594" style="stroke:#181818;stroke-width:1.0;"/><line style="stroke:#181818;stroke-width:1.0;" x1="131" x2="605" y1="966.3594" y2="966.3594"/><text fill="#000000" font-family="sans-serif" font-size="13" lengthAdjust="spacing" textLength="456" x="143" y="961.6172">respond with processed sequence data (if available) and warnings/errors</text><path d="M10,981.3594 L72,981.3594 L72,988.6699 L62,998.6699 L10,998.6699 L10,981.3594 " fill="#EEEEEE" style="stroke:#000000;stroke-width:1.5;"/><rect fill="none" height="238.0391" style="stroke:#000000;stroke-width:1.5;" width="1120.5" x="10" y="981.3594"/><text fill="#000000" font-family="sans-serif" font-size="13" font-weight="bold" lengthAdjust="spacing" textLength="17" x="25" y="994.9277">alt</text><text fill="#000000" font-family="sans-serif" font-size="11" font-weight="bold" lengthAdjust="spacing" textLength="242" x="87" y="993.9941">[status is 'PROCESSED' and user approves:]</text><polygon fill="#181818" points="594,1015.9805,604,1019.9805,594,1023.9805,598,1019.9805" style="stroke:#181818;stroke-width:1.0;"/><line style="stroke:#181818;stroke-width:1.0;" x1="126" x2="600" y1="1019.9805" y2="1019.9805"/><text fill="#000000" font-family="sans-serif" font-size="13" lengthAdjust="spacing" textLength="212" x="133" y="1015.2383">approve processed sequence data</text><polygon fill="#181818" points="1074,1045.291,1084,1049.291,1074,1053.291,1078,1049.291" style="stroke:#181818;stroke-width:1.0;"/><line style="stroke:#181818;stroke-width:1.0;" x1="606" x2="1080" y1="1049.291" y2="1049.291"/><text fill="#000000" font-family="sans-serif" font-size="13" lengthAdjust="spacing" textLength="282" x="613" y="1044.5488">set status from 'PROCESSED' to 'SILO_READY'</text><line style="stroke:#000000;stroke-width:1.0;stroke-dasharray:2.0,2.0;" x1="10" x2="1130.5" y1="1058.291" y2="1058.291"/><text fill="#000000" font-family="sans-serif" font-size="11" font-weight="bold" lengthAdjust="spacing" textLength="76" x="15" y="1068.9258">[user rejects:]</text><polygon fill="#181818" points="594,1089.5566,604,1093.5566,594,1097.5566,598,1093.5566" style="stroke:#181818;stroke-width:1.0;"/><line style="stroke:#181818;stroke-width:1.0;" x1="126" x2="600" y1="1093.5566" y2="1093.5566"/><text fill="#000000" font-family="sans-serif" font-size="13" lengthAdjust="spacing" textLength="197" x="133" y="1088.8145">reject processed sequence data</text><polygon fill="#181818" points="1074,1118.8672,1084,1122.8672,1074,1126.8672,1078,1122.8672" style="stroke:#181818;stroke-width:1.0;"/><line style="stroke:#181818;stroke-width:1.0;" x1="606" x2="1080" y1="1122.8672" y2="1122.8672"/><text fill="#000000" font-family="sans-serif" font-size="13" lengthAdjust="spacing" textLength="132" x="613" y="1118.125">delete sequence data</text><line style="stroke:#000000;stroke-width:1.0;stroke-dasharray:2.0,2.0;" x1="10" x2="1130.5" y1="1131.8672" y2="1131.8672"/><text fill="#000000" font-family="sans-serif" font-size="11" font-weight="bold" lengthAdjust="spacing" textLength="77" x="15" y="1142.502">[after 5 days:]</text><polygon fill="#181818" points="137,1163.1328,127,1167.1328,137,1171.1328,133,1167.1328" style="stroke:#181818;stroke-width:1.0;"/><line style="stroke:#181818;stroke-width:1.0;" x1="131" x2="605" y1="1167.1328" y2="1167.1328"/><text fill="#000000" font-family="sans-serif" font-size="13" lengthAdjust="spacing" textLength="417" x="143" y="1162.3906">email reminder to user to approve/reject processed sequence data</text><line style="stroke:#000000;stroke-width:1.0;stroke-dasharray:2.0,2.0;" x1="10" x2="1130.5" y1="1176.1328" y2="1176.1328"/><text fill="#000000" font-family="sans-serif" font-size="11" font-weight="bold" lengthAdjust="spacing" textLength="84" x="15" y="1186.7676">[after 30 days:]</text><polygon fill="#181818" points="1074,1207.3984,1084,1211.3984,1074,1215.3984,1078,1211.3984" style="stroke:#181818;stroke-width:1.0;"/><line style="stroke:#181818;stroke-width:1.0;" x1="606" x2="1080" y1="1211.3984" y2="1211.3984"/><text fill="#000000" font-family="sans-serif" font-size="13" lengthAdjust="spacing" textLength="132" x="613" y="1206.6563">delete sequence data</text><!--SRC=[fLR1Rjim3BttAuZsqFPGTC2mImy3biOhWdMDaM0TTYfecqwqAP8doSdozwFbs5OpEqtNN6B88laUtoCJ0802ZHEfA50vE8tHBNKXwKzfuRFHof7Au1g-MJAdW1RovkpiNYoMxdQBwWJsarp4XgukOwDJibQe1SIY82aK-HH5TrudkJD4FLb2A2DCVt5L7v_Kpt0sDQWMv0CpT9YW9JWTxvxyrV7enBzkKLzzRC9lm9R9IZWGIZY14YpzBacbv7FvA9GEviqfSlHNSbYzXLn8ie26O8rIPFvszMcWSPccv0qOieNcmurmoxRA9BDzKUCHutAQ4m_3wWiXns7ek5DEm_aikeqcZz7utDydoNrfUMZJHqEern8XOxIfywkixhBIZi1KYeBEsxWsvqI1MnBaMagzgTJVS5UjBLSTMOERvuJP4RPIt8gqRZKweLMRyZjda5Q3CuGE2DEkmVp0Ra97SWiNERD-_XRRzro2wGZsfMPJ9f8k6rQUK4qjy6ne8KvcjZqIxSbpvBL0HMxUAj3HgnhFfhVHV3vvkAjr7O_WAWJJwxEUOXpJqJaOTeZwRdfsRoaRc9yWkYx4NinHo6wCUsGD-ZA8j0khhTYDqn5MR3wF-qd0BdKfCqW8f2upzexKYmMpgyO_CRgiCh8ObP7HSKuVooNyGROIwbcDraG3Syl9_oK2bQ6Nx6VEkOKKLON6q5hGXe4asxqwXrT1PvgdU197zvE7w2cQpQQpO3SCQ0WfTms52ZNSQ_KnGas_346T-qKtLBtRClRrN5-cQElL4d3xJoE-XPyktNzHR5TxitfxV-3gjNDeGdltrA60QkSChPmXeXSY1rppp6ErNFqaRT0exgIz3iY__9FpXWBjFjhrajTzq4iVKl9V7C22Ywp9thHwz7PsTsqGqH5grXi-m539Ev_SJvzcqQVnZy2x7fYXdvIwbt3LjruDAoD9ZdhazlKnTmpW0vzkW_gzSj6ALM0Kl9yoZc5A7Zn_xpfsVHZXVj7txuQh7WREW_4N]--></g></svg>