<?xml version="1.0" encoding="us-ascii" standalone="no"?><svg xmlns="http://www.w3.org/2000/svg" xmlns:xlink="http://www.w3.org/1999/xlink" contentStyleType="text/css" height="453px" preserveAspectRatio="none" style="width:1185px;height:453px;background:#FFFFFF;" version="1.1" viewBox="0 0 1185 453" width="1185px" zoomAndPan="magnify"><defs/><g><rect fill="none" height="179.418" style="stroke:#000000;stroke-width:1.5;" width="1168.5" x="10" y="143.1094"/><line style="stroke:#181818;stroke-width:0.5;stroke-dasharray:5.0,5.0;" x1="126" x2="126" y1="67.4883" y2="374.8379"/><line style="stroke:#181818;stroke-width:0.5;stroke-dasharray:5.0,5.0;" x1="561" x2="561" y1="67.4883" y2="374.8379"/><line style="stroke:#181818;stroke-width:0.5;stroke-dasharray:5.0,5.0;" x1="1133.5" x2="1133.5" y1="67.4883" y2="374.8379"/><rect fill="#E0FFFF" height="30.4883" rx="2.5" ry="2.5" style="stroke:#181818;stroke-width:0.5;" width="212" x="20" y="36"/><text fill="#000000" font-family="sans-serif" font-size="14" lengthAdjust="spacing" textLength="198" x="27" y="56.5352">Pathoplexus Frontend / User</text><rect fill="#E0FFFF" height="30.4883" rx="2.5" ry="2.5" style="stroke:#181818;stroke-width:0.5;" width="212" x="20" y="373.8379"/><text fill="#000000" font-family="sans-serif" font-size="14" lengthAdjust="spacing" textLength="198" x="27" y="394.373">Pathoplexus Frontend / User</text><rect fill="#FFA500" height="30.4883" rx="2.5" ry="2.5" style="stroke:#181818;stroke-width:0.5;" width="160" x="481" y="36"/><text fill="#000000" font-family="sans-serif" font-size="14" lengthAdjust="spacing" textLength="146" x="488" y="56.5352">Pathoplexus Backend</text><rect fill="#FFA500" height="30.4883" rx="2.5" ry="2.5" style="stroke:#181818;stroke-width:0.5;" width="160" x="481" y="373.8379"/><text fill="#000000" font-family="sans-serif" font-size="14" lengthAdjust="spacing" textLength="146" x="488" y="394.373">Pathoplexus Backend</text><text fill="#000000" font-family="sans-serif" font-size="14" lengthAdjust="spacing" textLength="63" x="1099.5" y="64.5352">Database</text><path d="M1116,15 C1116,5 1134,5 1134,5 C1134,5 1152,5 1152,15 L1152,41 C1152,51 1134,51 1134,51 C1134,51 1116,51 1116,41 L1116,15 " fill="#E2E2F0" style="stroke:#181818;stroke-width:1.5;"/><path d="M1116,15 C1116,25 1134,25 1134,25 C1134,25 1152,25 1152,15 " fill="none" style="stroke:#181818;stroke-width:1.5;"/><text fill="#000000" font-family="sans-serif" font-size="14" lengthAdjust="spacing" textLength="63" x="1099.5" y="387.373">Database</text><path d="M1116,400.3262 C1116,390.3262 1134,390.3262 1134,390.3262 C1134,390.3262 1152,390.3262 1152,400.3262 L1152,426.3262 C1152,436.3262 1134,436.3262 1134,436.3262 C1134,436.3262 1116,436.3262 1116,426.3262 L1116,400.3262 " fill="#E2E2F0" style="stroke:#181818;stroke-width:1.5;"/><path d="M1116,400.3262 C1116,410.3262 1134,410.3262 1134,410.3262 C1134,410.3262 1152,410.3262 1152,400.3262 " fill="none" style="stroke:#181818;stroke-width:1.5;"/><polygon fill="#181818" points="549,94.7988,559,98.7988,549,102.7988,553,98.7988" style="stroke:#181818;stroke-width:1.0;"/><line style="stroke:#181818;stroke-width:1.0;" x1="126" x2="555" y1="98.7988" y2="98.7988"/><text fill="#000000" font-family="sans-serif" font-size="13" lengthAdjust="spacing" textLength="297" x="133" y="94.0566">submit corrected data for existing sequenceIds</text><polygon fill="#181818" points="1122,124.1094,1132,128.1094,1122,132.1094,1126,128.1094" style="stroke:#181818;stroke-width:1.0;"/><line style="stroke:#181818;stroke-width:1.0;" x1="561" x2="1128" y1="128.1094" y2="128.1094"/><text fill="#000000" font-family="sans-serif" font-size="13" lengthAdjust="spacing" textLength="549" x="568" y="123.3672">check if sequenceID exists and is owned by user and if highest version is 'SILO_READY'</text><path d="M10,143.1094 L72,143.1094 L72,150.4199 L62,160.4199 L10,160.4199 L10,143.1094 " fill="#EEEEEE" style="stroke:#000000;stroke-width:1.5;"/><rect fill="none" height="179.418" style="stroke:#000000;stroke-width:1.5;" width="1168.5" x="10" y="143.1094"/><text fill="#000000" font-family="sans-serif" font-size="13" font-weight="bold" lengthAdjust="spacing" textLength="17" x="25" y="156.6777">alt</text><text fill="#000000" font-family="sans-serif" font-size="11" font-weight="bold" lengthAdjust="spacing" textLength="146" x="87" y="155.7441">[sequenceID doesn't exist]</text><polygon fill="#181818" points="137,177.7305,127,181.7305,137,185.7305,133,181.7305" style="stroke:#181818;stroke-width:1.0;"/><line style="stroke:#181818;stroke-width:1.0;" x1="131" x2="560" y1="181.7305" y2="181.7305"/><text fill="#000000" font-family="sans-serif" font-size="13" lengthAdjust="spacing" textLength="351" x="143" y="176.9883">respond with error message: "sequenceID doesn't exist"</text><line style="stroke:#000000;stroke-width:1.0;stroke-dasharray:2.0,2.0;" x1="10" x2="1178.5" y1="190.7305" y2="190.7305"/><text fill="#000000" font-family="sans-serif" font-size="11" font-weight="bold" lengthAdjust="spacing" textLength="251" x="15" y="201.3652">[sequenceID exists but is not owned by user]</text><polygon fill="#181818" points="137,221.9961,127,225.9961,137,229.9961,133,225.9961" style="stroke:#181818;stroke-width:1.0;"/><line style="stroke:#181818;stroke-width:1.0;" x1="131" x2="560" y1="225.9961" y2="225.9961"/><text fill="#000000" font-family="sans-serif" font-size="13" lengthAdjust="spacing" textLength="411" x="143" y="221.2539">respond with error message: "sequenceID doesn't belong to user"</text><line style="stroke:#000000;stroke-width:1.0;stroke-dasharray:2.0,2.0;" x1="10" x2="1178.5" y1="234.9961" y2="234.9961"/><text fill="#000000" font-family="sans-serif" font-size="11" font-weight="bold" lengthAdjust="spacing" textLength="461" x="15" y="245.6309">[sequenceID exists and is owned by user but highest version is not 'SILO_READY']</text><polygon fill="#181818" points="137,266.2617,127,270.2617,137,274.2617,133,270.2617" style="stroke:#181818;stroke-width:1.0;"/><line style="stroke:#181818;stroke-width:1.0;" x1="131" x2="560" y1="270.2617" y2="270.2617"/><text fill="#000000" font-family="sans-serif" font-size="13" lengthAdjust="spacing" textLength="389" x="143" y="265.5195">respond with error message: "need to delete staged data first"</text><line style="stroke:#000000;stroke-width:1.0;stroke-dasharray:2.0,2.0;" x1="10" x2="1178.5" y1="279.2617" y2="279.2617"/><text fill="#000000" font-family="sans-serif" font-size="11" font-weight="bold" lengthAdjust="spacing" textLength="441" x="15" y="289.8965">[sequenceID exists and is owned by user and highest version is 'SILO_READY']</text><polygon fill="#181818" points="1122,310.5273,1132,314.5273,1122,318.5273,1126,314.5273" style="stroke:#181818;stroke-width:1.0;"/><line style="stroke:#181818;stroke-width:1.0;" x1="561" x2="1128" y1="314.5273" y2="314.5273"/><text fill="#000000" font-family="sans-serif" font-size="13" lengthAdjust="spacing" textLength="244" x="568" y="309.7852">insert new version in status 'RECEIVED'</text><path d="M131,334.5273 L131,359.5273 L591,359.5273 L591,344.5273 L581,334.5273 L131,334.5273 " fill="#FEFFDD" style="stroke:#181818;stroke-width:0.5;"/><path d="M581,334.5273 L581,344.5273 L591,344.5273 L581,334.5273 " fill="#FEFFDD" style="stroke:#181818;stroke-width:0.5;"/><text fill="#000000" font-family="sans-serif" font-size="13" lengthAdjust="spacing" textLength="439" x="137" y="352.0957">At this point the same flow applies as if this was an inital submission</text><!--SRC=[hLDDQzj04BtxLpoKWq-bTnyASUI28P2Iqa9FPIIDh2Nohhepgf9_tzbLvRIDavJIspBxvdqCCm0mK5HNku6yelX0seMXv_jHy3u6h-mRlCKduLY01ErIkxXsXqwl7iYly1B9bkexm-VcQdxZuYQIFt1kR4Yf8c4KvSzNXfRRrIh_dmJVl5lwDv2nEZf57MBaMhd9B6X31DyxKUSF4FusigzvtyXCj8WRJxdTeEwuleDh7u7bt2mWGpb1cBmnLmyOBVnSRD5PQXR5TuxYWa-uzSVzzStNszrb-MMTbQZNNrcRmEBNEhDdm1zsbeWRH9OXM75ose5Zj4175g43Rr0yHrbaJkvjXa-pLACcZpxextd-hu-A-s0prv2vNpHqThZ9vPd99jTFfljlfZsRdFbhk6SrNshbPMrSV6M8pox4tsp3cTrptWWKdgV7JfyygHtC-dPtjTj_tfLpkxND-sl3OCHqT0ZjAVP9ubAXdUaFmVdqj1nqPBHzc433q3kMT5UsmXasKOfbiawfd-z9af55Cylz0000]--></g></svg>