<?xml version="1.0" encoding="UTF-8" standalone="no"?><svg xmlns="http://www.w3.org/2000/svg" xmlns:xlink="http://www.w3.org/1999/xlink" contentScriptType="application/ecmascript" contentStyleType="text/css" height="347px" preserveAspectRatio="none" style="width:786px;height:347px;" version="1.1" viewBox="0 0 786 347" width="786px" zoomAndPan="magnify"><defs><filter height="300%" id="f10n8hi4q4nmrg" width="300%" x="-1" y="-1"><feGaussianBlur result="blurOut" stdDeviation="2.0"/><feColorMatrix in="blurOut" result="blurOut2" type="matrix" values="0 0 0 0 0 0 0 0 0 0 0 0 0 0 0 0 0 0 .4 0"/><feOffset dx="4.0" dy="4.0" in="blurOut2" result="blurOut3"/><feBlend in="SourceGraphic" in2="blurOut3" mode="normal"/></filter></defs><g><rect fill="#FFFFFF" filter="url(#f10n8hi4q4nmrg)" height="106.5313" style="stroke: #000000; stroke-width: 2.0;" width="761.5" x="13" y="111.4297"/><rect fill="#FFFFFF" height="31.1328" style="stroke: none; stroke-width: 1.0;" width="761.5" x="13" y="186.8281"/><line style="stroke: #A80036; stroke-width: 1.0; stroke-dasharray: 5.0,5.0;" x1="130" x2="130" y1="65.2969" y2="274.0938"/><line style="stroke: #A80036; stroke-width: 1.0; stroke-dasharray: 5.0,5.0;" x1="457.5" x2="457.5" y1="65.2969" y2="274.0938"/><line style="stroke: #A80036; stroke-width: 1.0; stroke-dasharray: 5.0,5.0;" x1="728.5" x2="728.5" y1="65.2969" y2="274.0938"/><rect fill="#E0FFFF" filter="url(#f10n8hi4q4nmrg)" height="30.2969" style="stroke: #A80036; stroke-width: 1.5;" width="211" x="23" y="30"/><text fill="#000000" font-family="sans-serif" font-size="14" lengthAdjust="spacingAndGlyphs" textLength="197" x="30" y="49.9951">Pathoplexus Frontend / User</text><rect fill="#E0FFFF" filter="url(#f10n8hi4q4nmrg)" height="30.2969" style="stroke: #A80036; stroke-width: 1.5;" width="211" x="23" y="273.0938"/><text fill="#000000" font-family="sans-serif" font-size="14" lengthAdjust="spacingAndGlyphs" textLength="197" x="30" y="293.0889">Pathoplexus Frontend / User</text><rect fill="#FFA500" filter="url(#f10n8hi4q4nmrg)" height="30.2969" style="stroke: #A80036; stroke-width: 1.5;" width="164" x="373.5" y="30"/><text fill="#000000" font-family="sans-serif" font-size="14" lengthAdjust="spacingAndGlyphs" textLength="150" x="380.5" y="49.9951">Pathoplexus Backend</text><rect fill="#FFA500" filter="url(#f10n8hi4q4nmrg)" height="30.2969" style="stroke: #A80036; stroke-width: 1.5;" width="164" x="373.5" y="273.0938"/><text fill="#000000" font-family="sans-serif" font-size="14" lengthAdjust="spacingAndGlyphs" textLength="150" x="380.5" y="293.0889">Pathoplexus Backend</text><text fill="#000000" font-family="sans-serif" font-size="14" lengthAdjust="spacingAndGlyphs" textLength="66" x="692.5" y="61.9951">Database</text><path d="M710.5,13 C710.5,3 728.5,3 728.5,3 C728.5,3 746.5,3 746.5,13 L746.5,39 C746.5,49 728.5,49 728.5,49 C728.5,49 710.5,49 710.5,39 L710.5,13 " fill="#FEFECE" filter="url(#f10n8hi4q4nmrg)" style="stroke: #000000; stroke-width: 1.5;"/><path d="M710.5,13 C710.5,23 728.5,23 728.5,23 C728.5,23 746.5,23 746.5,13 " fill="none" style="stroke: #000000; stroke-width: 1.5;"/><text fill="#000000" font-family="sans-serif" font-size="14" lengthAdjust="spacingAndGlyphs" textLength="66" x="692.5" y="286.0889">Database</text><path d="M710.5,299.3906 C710.5,289.3906 728.5,289.3906 728.5,289.3906 C728.5,289.3906 746.5,289.3906 746.5,299.3906 L746.5,325.3906 C746.5,335.3906 728.5,335.3906 728.5,335.3906 C728.5,335.3906 710.5,335.3906 710.5,325.3906 L710.5,299.3906 " fill="#FEFECE" filter="url(#f10n8hi4q4nmrg)" style="stroke: #000000; stroke-width: 1.5;"/><path d="M710.5,299.3906 C710.5,309.3906 728.5,309.3906 728.5,309.3906 C728.5,309.3906 746.5,309.3906 746.5,299.3906 " fill="none" style="stroke: #000000; stroke-width: 1.5;"/><polygon fill="#A80036" points="445.5,92.4297,455.5,96.4297,445.5,100.4297,449.5,96.4297" style="stroke: #A80036; stroke-width: 1.0;"/><line style="stroke: #A80036; stroke-width: 1.0;" x1="130.5" x2="451.5" y1="96.4297" y2="96.4297"/><text fill="#000000" font-family="sans-serif" font-size="13" lengthAdjust="spacingAndGlyphs" textLength="290" x="137.5" y="91.3638">submit corrected data for existing accessions</text><path d="M13,111.4297 L77,111.4297 L77,118.4297 L67,128.4297 L13,128.4297 L13,111.4297 " fill="#EEEEEE" style="stroke: #000000; stroke-width: 1.0;"/><rect fill="none" height="106.5313" style="stroke: #000000; stroke-width: 2.0;" width="761.5" x="13" y="111.4297"/><text fill="#000000" font-family="sans-serif" font-size="13" font-weight="bold" lengthAdjust="spacingAndGlyphs" textLength="19" x="28" y="124.4966">alt</text><text fill="#000000" font-family="sans-serif" font-size="11" font-weight="bold" lengthAdjust="spacingAndGlyphs" textLength="432" x="92" y="123.6401">[accession exists and highest version is 'APPROVED_FOR_RELEASE']</text><polygon fill="#A80036" points="716.5,145.6953,726.5,149.6953,716.5,153.6953,720.5,149.6953" style="stroke: #A80036; stroke-width: 1.0;"/><line style="stroke: #A80036; stroke-width: 1.0;" x1="457.5" x2="722.5" y1="149.6953" y2="149.6953"/><text fill="#000000" font-family="sans-serif" font-size="13" lengthAdjust="spacingAndGlyphs" textLength="247" x="464.5" y="144.6294">insert new version in status 'RECEIVED'</text><polygon fill="#A80036" points="141.5,174.8281,131.5,178.8281,141.5,182.8281,137.5,178.8281" style="stroke: #A80036; stroke-width: 1.0;"/><line style="stroke: #A80036; stroke-width: 1.0;" x1="135.5" x2="456.5" y1="178.8281" y2="178.8281"/><text fill="#000000" font-family="sans-serif" font-size="13" lengthAdjust="spacingAndGlyphs" textLength="303" x="147.5" y="173.7622">response with accession + new version number</text><line style="stroke: #000000; stroke-width: 1.0; stroke-dasharray: 2.0,2.0;" x1="13" x2="774.5" y1="187.8281" y2="187.8281"/><polygon fill="#A80036" points="141.5,205.9609,131.5,209.9609,141.5,213.9609,137.5,209.9609" style="stroke: #A80036; stroke-width: 1.0;"/><line style="stroke: #A80036; stroke-width: 1.0;" x1="135.5" x2="456.5" y1="209.9609" y2="209.9609"/><text fill="#000000" font-family="sans-serif" font-size="13" lengthAdjust="spacingAndGlyphs" textLength="186" x="147.5" y="204.895">response with error message</text><path d="M135,229.9609 L135,254.9609 L593,254.9609 L593,239.9609 L583,229.9609 L135,229.9609 " fill="#FBFB77" filter="url(#f10n8hi4q4nmrg)" style="stroke: #A80036; stroke-width: 1.0;"/><path d="M583,229.9609 L583,239.9609 L593,239.9609 L583,229.9609 " fill="#FBFB77" style="stroke: #A80036; stroke-width: 1.0;"/><text fill="#000000" font-family="sans-serif" font-size="13" lengthAdjust="spacingAndGlyphs" textLength="437" x="141" y="247.0278">At this point the same flow applies as if this was an initial submission</text><!--MD5=[f308fa9b8bde19c3b07f35d695bc4bd3]
@startuml
    participant "Pathoplexus Frontend / User" as frontend #LightCyan
    participant "Pathoplexus Backend" as backend #Orange
    database "Database" as DB


    frontend -> backend: submit corrected data for existing accessions

    alt accession exists and highest version is 'APPROVED_FOR_RELEASE'
        backend -> DB: insert new version in status 'RECEIVED'
    backend -> frontend: response with accession + new version number
    else
        backend -> frontend: response with error message
    end

    note right of frontend
        At this point the same flow applies as if this was an initial submission
    end note
@enduml

PlantUML version 1.2020.02(Sun Mar 01 11:22:07 CET 2020)
(GPL source distribution)
Java Runtime: OpenJDK Runtime Environment
JVM: OpenJDK 64-Bit Server VM
Java Version: 21.0.1+12-LTS
Operating System: Linux
Default Encoding: UTF-8
Language: de
Country: DE
--></g></svg>