<svg xmlns="http://www.w3.org/2000/svg" xmlns:xlink="http://www.w3.org/1999/xlink" contentStyleType="text/css" height="1106px" preserveAspectRatio="none" style="width:1044px;height:1106px;background:#FFFFFF;" version="1.1" viewBox="0 0 1044 1106" width="1044px" zoomAndPan="magnify"><defs/><g><rect fill="none" height="149.5078" style="stroke:#000000;stroke-width:1.5;" width="1027.5522" x="10" y="113.7988"/><rect fill="none" height="522.5898" style="stroke:#000000;stroke-width:1.5;" width="1027.5522" x="10" y="312.6172"/><rect fill="none" height="97.2422" style="stroke:#000000;stroke-width:1.5;" width="592.3892" x="103" y="512.791"/><line style="stroke:#181818;stroke-width:0.5;stroke-dasharray:5.0,5.0;" x1="108" x2="108" y1="67.4883" y2="1028.0703"/><line style="stroke:#181818;stroke-width:0.5;stroke-dasharray:5.0,5.0;" x1="364.5444" x2="364.5444" y1="67.4883" y2="1028.0703"/><line style="stroke:#181818;stroke-width:0.5;stroke-dasharray:5.0,5.0;" x1="606.564" x2="606.564" y1="67.4883" y2="1028.0703"/><line style="stroke:#181818;stroke-width:0.5;stroke-dasharray:5.0,5.0;" x1="992.8872" x2="992.8872" y1="67.4883" y2="1028.0703"/><rect fill="#E0FFFF" height="30.4883" rx="2.5" ry="2.5" style="stroke:#181818;stroke-width:0.5;" width="177.8506" x="20" y="36"/><text fill="#000000" font-family="sans-serif" font-size="14" lengthAdjust="spacing" textLength="163.8506" x="27" y="56.5352">Loculus Frontend / User</text><rect fill="#E0FFFF" height="30.4883" rx="2.5" ry="2.5" style="stroke:#181818;stroke-width:0.5;" width="177.8506" x="20" y="1027.0703"/><text fill="#000000" font-family="sans-serif" font-size="14" lengthAdjust="spacing" textLength="163.8506" x="27" y="1047.6055">Loculus Frontend / User</text><rect fill="#90EE90" height="30.4883" rx="2.5" ry="2.5" style="stroke:#181818;stroke-width:0.5;" width="182.6563" x="273.5444" y="36"/><text fill="#000000" font-family="sans-serif" font-size="14" lengthAdjust="spacing" textLength="168.6563" x="280.5444" y="56.5352">(Pre-)Processing Pipeline</text><rect fill="#90EE90" height="30.4883" rx="2.5" ry="2.5" style="stroke:#181818;stroke-width:0.5;" width="182.6563" x="273.5444" y="1027.0703"/><text fill="#000000" font-family="sans-serif" font-size="14" lengthAdjust="spacing" textLength="168.6563" x="280.5444" y="1047.6055">(Pre-)Processing Pipeline</text><rect fill="#FFA500" height="30.4883" rx="2.5" ry="2.5" style="stroke:#181818;stroke-width:0.5;" width="126.6631" x="543.564" y="36"/><text fill="#000000" font-family="sans-serif" font-size="14" lengthAdjust="spacing" textLength="112.6631" x="550.564" y="56.5352">Loculus Backend</text><rect fill="#FFA500" height="30.4883" rx="2.5" ry="2.5" style="stroke:#181818;stroke-width:0.5;" width="126.6631" x="543.564" y="1027.0703"/><text fill="#000000" font-family="sans-serif" font-size="14" lengthAdjust="spacing" textLength="112.6631" x="550.564" y="1047.6055">Loculus Backend</text><text fill="#000000" font-family="sans-serif" font-size="14" lengthAdjust="spacing" textLength="62.665" x="958.8872" y="64.5352">Database</text><path d="M975.2197,15 C975.2197,5 993.2197,5 993.2197,5 C993.2197,5 1011.2197,5 1011.2197,15 L1011.2197,41 C1011.2197,51 993.2197,51 993.2197,51 C993.2197,51 975.2197,51 975.2197,41 L975.2197,15 " fill="#E2E2F0" style="stroke:#181818;stroke-width:1.5;"/><path d="M975.2197,15 C975.2197,25 993.2197,25 993.2197,25 C993.2197,25 1011.2197,25 1011.2197,15 " fill="none" style="stroke:#181818;stroke-width:1.5;"/><text fill="#000000" font-family="sans-serif" font-size="14" lengthAdjust="spacing" textLength="62.665" x="958.8872" y="1040.6055">Database</text><path d="M975.2197,1053.5586 C975.2197,1043.5586 993.2197,1043.5586 993.2197,1043.5586 C993.2197,1043.5586 1011.2197,1043.5586 1011.2197,1053.5586 L1011.2197,1079.5586 C1011.2197,1089.5586 993.2197,1089.5586 993.2197,1089.5586 C993.2197,1089.5586 975.2197,1089.5586 975.2197,1079.5586 L975.2197,1053.5586 " fill="#E2E2F0" style="stroke:#181818;stroke-width:1.5;"/><path d="M975.2197,1053.5586 C975.2197,1063.5586 993.2197,1063.5586 993.2197,1063.5586 C993.2197,1063.5586 1011.2197,1063.5586 1011.2197,1053.5586 " fill="none" style="stroke:#181818;stroke-width:1.5;"/><polygon fill="#181818" points="594.8955,94.7988,604.8955,98.7988,594.8955,102.7988,598.8955,98.7988" style="stroke:#181818;stroke-width:1.0;"/><line style="stroke:#181818;stroke-width:1.0;" x1="108.9253" x2="600.8955" y1="98.7988" y2="98.7988"/><text fill="#000000" font-family="sans-serif" font-size="13" lengthAdjust="spacing" textLength="177.8486" x="115.9253" y="94.0566">submit initial sequence data</text><path d="M10,113.7988 L72.1387,113.7988 L72.1387,121.1094 L62.1387,131.1094 L10,131.1094 L10,113.7988 " fill="#EEEEEE" style="stroke:#000000;stroke-width:1.5;"/><rect fill="none" height="149.5078" style="stroke:#000000;stroke-width:1.5;" width="1027.5522" x="10" y="113.7988"/><text fill="#000000" font-family="sans-serif" font-size="13" font-weight="bold" lengthAdjust="spacing" textLength="17.1387" x="25" y="127.3672">alt</text><text fill="#000000" font-family="sans-serif" font-size="11" font-weight="bold" lengthAdjust="spacing" textLength="223.9907" x="87.1387" y="126.4336">[Sequence and Metadata Files are valid]</text><polygon fill="#181818" points="119.9253,148.4199,109.9253,152.4199,119.9253,156.4199,115.9253,152.4199" style="stroke:#181818;stroke-width:1.0;"/><line style="stroke:#181818;stroke-width:1.0;" x1="113.9253" x2="605.8955" y1="152.4199" y2="152.4199"/><text fill="#000000" font-family="sans-serif" font-size="13" lengthAdjust="spacing" textLength="159.6563" x="125.9253" y="147.6777">response with accessions</text><polygon fill="#181818" points="981.2197,177.7305,991.2197,181.7305,981.2197,185.7305,985.2197,181.7305" style="stroke:#181818;stroke-width:1.0;"/><line style="stroke:#181818;stroke-width:1.0;" x1="606.8955" x2="987.2197" y1="181.7305" y2="181.7305"/><text fill="#000000" font-family="sans-serif" font-size="13" lengthAdjust="spacing" textLength="166.626" x="613.8955" y="176.9883">Store initial sequence data</text><polygon fill="#181818" points="981.2197,207.041,991.2197,211.041,981.2197,215.041,985.2197,211.041" style="stroke:#181818;stroke-width:1.0;"/><line style="stroke:#181818;stroke-width:1.0;" x1="606.8955" x2="987.2197" y1="211.041" y2="211.041"/><text fill="#000000" font-family="sans-serif" font-size="13" lengthAdjust="spacing" textLength="148.4336" x="613.8955" y="206.2988">set status to 'RECEIVED'</text><line style="stroke:#000000;stroke-width:1.0;stroke-dasharray:2.0,2.0;" x1="10" x2="1037.5522" y1="220.041" y2="220.041"/><text fill="#000000" font-family="sans-serif" font-size="11" font-weight="bold" lengthAdjust="spacing" textLength="234.792" x="15" y="230.6758">[Sequence and Metadata Files are invalid]</text><polygon fill="#181818" points="119.9253,251.3066,109.9253,255.3066,119.9253,259.3066,115.9253,255.3066" style="stroke:#181818;stroke-width:1.0;"/><line style="stroke:#181818;stroke-width:1.0;" x1="113.9253" x2="605.8955" y1="255.3066" y2="255.3066"/><text fill="#000000" font-family="sans-serif" font-size="13" lengthAdjust="spacing" textLength="123.4111" x="125.9253" y="250.5645">response with error</text><path d="M113,275.3066 L113,300.3066 L524,300.3066 L524,285.3066 L514,275.3066 L113,275.3066 " fill="#FEFFDD" style="stroke:#181818;stroke-width:0.5;"/><path d="M514,275.3066 L514,285.3066 L524,285.3066 L514,275.3066 " fill="#FEFFDD" style="stroke:#181818;stroke-width:0.5;"/><text fill="#000000" font-family="sans-serif" font-size="13" lengthAdjust="spacing" textLength="390.2095" x="119" y="292.875">In the following we assume initial raw sequence data are valid</text><path d="M10,312.6172 L84.4468,312.6172 L84.4468,319.9277 L74.4468,329.9277 L10,329.9277 L10,312.6172 " fill="#EEEEEE" style="stroke:#000000;stroke-width:1.5;"/><rect fill="none" height="522.5898" style="stroke:#000000;stroke-width:1.5;" width="1027.5522" x="10" y="312.6172"/><text fill="#000000" font-family="sans-serif" font-size="13" font-weight="bold" lengthAdjust="spacing" textLength="29.4468" x="25" y="326.1855">loop</text><text fill="#000000" font-family="sans-serif" font-size="11" font-weight="bold" lengthAdjust="spacing" textLength="156.1431" x="99.4468" y="325.252">[until no processing errors]</text><polygon fill="#181818" points="594.8955,347.2383,604.8955,351.2383,594.8955,355.2383,598.8955,351.2383" style="stroke:#181818;stroke-width:1.0;"/><line style="stroke:#181818;stroke-width:1.0;" x1="364.8726" x2="600.8955" y1="351.2383" y2="351.2383"/><text fill="#000000" font-family="sans-serif" font-size="13" lengthAdjust="spacing" textLength="218.0229" x="371.8726" y="346.4961">Query initial/edited sequence data</text><polygon fill="#181818" points="981.2197,376.5488,991.2197,380.5488,981.2197,384.5488,985.2197,380.5488" style="stroke:#181818;stroke-width:1.0;"/><line style="stroke:#181818;stroke-width:1.0;" x1="606.8955" x2="987.2197" y1="380.5488" y2="380.5488"/><text fill="#000000" font-family="sans-serif" font-size="13" lengthAdjust="spacing" textLength="218.0229" x="613.8955" y="375.8066">Query initial/edited sequence data</text><polygon fill="#181818" points="981.2197,405.8594,991.2197,409.8594,981.2197,413.8594,985.2197,409.8594" style="stroke:#181818;stroke-width:1.0;"/><line style="stroke:#181818;stroke-width:1.0;" x1="606.8955" x2="987.2197" y1="409.8594" y2="409.8594"/><text fill="#000000" font-family="sans-serif" font-size="13" lengthAdjust="spacing" textLength="291.3511" x="613.8955" y="405.1172">Set status from 'RECEIVED' to 'IN_PROCESSING'</text><polygon fill="#181818" points="617.8955,435.1699,607.8955,439.1699,617.8955,443.1699,613.8955,439.1699" style="stroke:#181818;stroke-width:1.0;"/><line style="stroke:#181818;stroke-width:1.0;stroke-dasharray:2.0,2.0;" x1="611.8955" x2="992.2197" y1="439.1699" y2="439.1699"/><text fill="#000000" font-family="sans-serif" font-size="13" lengthAdjust="spacing" textLength="176.3887" x="623.8955" y="434.4277">initial/edited sequence data</text><polygon fill="#181818" points="375.8726,464.4805,365.8726,468.4805,375.8726,472.4805,371.8726,468.4805" style="stroke:#181818;stroke-width:1.0;"/><line style="stroke:#181818;stroke-width:1.0;stroke-dasharray:2.0,2.0;" x1="369.8726" x2="605.8955" y1="468.4805" y2="468.4805"/><text fill="#000000" font-family="sans-serif" font-size="13" lengthAdjust="spacing" textLength="176.3887" x="381.8726" y="463.7383">initial/edited sequence data</text><polygon fill="#181818" points="594.8955,493.791,604.8955,497.791,594.8955,501.791,598.8955,497.791" style="stroke:#181818;stroke-width:1.0;"/><line style="stroke:#181818;stroke-width:1.0;" x1="364.8726" x2="600.8955" y1="497.791" y2="497.791"/><text fill="#000000" font-family="sans-serif" font-size="13" lengthAdjust="spacing" textLength="206.7749" x="371.8726" y="493.0488">submit processed sequence data</text><path d="M103,512.791 L165.1387,512.791 L165.1387,520.1016 L155.1387,530.1016 L103,530.1016 L103,512.791 " fill="#EEEEEE" style="stroke:#000000;stroke-width:1.5;"/><rect fill="none" height="97.2422" style="stroke:#000000;stroke-width:1.5;" width="592.3892" x="103" y="512.791"/><text fill="#000000" font-family="sans-serif" font-size="13" font-weight="bold" lengthAdjust="spacing" textLength="17.1387" x="118" y="526.3594">alt</text><text fill="#000000" font-family="sans-serif" font-size="11" font-weight="bold" lengthAdjust="spacing" textLength="137.2422" x="180.1387" y="525.4258">[validation errors occur]</text><polygon fill="#181818" points="375.8726,547.4121,365.8726,551.4121,375.8726,555.4121,371.8726,551.4121" style="stroke:#181818;stroke-width:1.0;"/><line style="stroke:#181818;stroke-width:1.0;" x1="369.8726" x2="605.8955" y1="551.4121" y2="551.4121"/><text fill="#000000" font-family="sans-serif" font-size="13" lengthAdjust="spacing" textLength="195.6094" x="381.8726" y="546.6699">response with validation errors</text><path d="M113,564.4121 L113,604.4121 L685,604.4121 L685,574.4121 L675,564.4121 L113,564.4121 " fill="#FEFFDD" style="stroke:#181818;stroke-width:0.5;"/><path d="M675,564.4121 L675,574.4121 L685,574.4121 L675,564.4121 " fill="#FEFFDD" style="stroke:#181818;stroke-width:0.5;"/><text fill="#000000" font-family="sans-serif" font-size="13" lengthAdjust="spacing" textLength="551.3892" x="119" y="581.9805">Validation error are probably only redeemable by changing the pre-processing pipeline</text><text fill="#000000" font-family="sans-serif" font-size="13" lengthAdjust="spacing" textLength="381.4624" x="119" y="597.291">In the following we assume that no validation error occurred</text><polygon fill="#181818" points="981.2197,634.3438,991.2197,638.3438,981.2197,642.3438,985.2197,638.3438" style="stroke:#181818;stroke-width:1.0;"/><line style="stroke:#181818;stroke-width:1.0;" x1="606.8955" x2="987.2197" y1="638.3438" y2="638.3438"/><text fill="#000000" font-family="sans-serif" font-size="13" lengthAdjust="spacing" textLength="195.5522" x="613.8955" y="633.6016">Store processed sequence data</text><polygon fill="#181818" points="981.2197,663.6543,991.2197,667.6543,981.2197,671.6543,985.2197,667.6543" style="stroke:#181818;stroke-width:1.0;"/><line style="stroke:#181818;stroke-width:1.0;" x1="606.8955" x2="987.2197" y1="667.6543" y2="667.6543"/><text fill="#000000" font-family="sans-serif" font-size="13" lengthAdjust="spacing" textLength="160.4307" x="613.8955" y="662.9121">set status to 'PROCESSED'</text><polygon fill="#181818" points="594.8955,692.9648,604.8955,696.9648,594.8955,700.9648,598.8955,696.9648" style="stroke:#181818;stroke-width:1.0;"/><line style="stroke:#181818;stroke-width:1.0;" x1="108.9253" x2="600.8955" y1="696.9648" y2="696.9648"/><text fill="#000000" font-family="sans-serif" font-size="13" lengthAdjust="spacing" textLength="271.4893" x="115.9253" y="692.2227">query processed sequence data with errors</text><line style="stroke:#181818;stroke-width:1.0;" x1="108.9253" x2="150.9253" y1="726.2754" y2="726.2754"/><line style="stroke:#181818;stroke-width:1.0;" x1="150.9253" x2="150.9253" y1="726.2754" y2="739.2754"/><line style="stroke:#181818;stroke-width:1.0;" x1="109.9253" x2="150.9253" y1="739.2754" y2="739.2754"/><polygon fill="#181818" points="119.9253,735.2754,109.9253,739.2754,119.9253,743.2754,115.9253,739.2754" style="stroke:#181818;stroke-width:1.0;"/><text fill="#000000" font-family="sans-serif" font-size="13" lengthAdjust="spacing" textLength="241.9473" x="115.9253" y="721.5332">address errors and edit sequence data</text><polygon fill="#181818" points="594.8955,764.5859,604.8955,768.5859,594.8955,772.5859,598.8955,768.5859" style="stroke:#181818;stroke-width:1.0;"/><line style="stroke:#181818;stroke-width:1.0;" x1="108.9253" x2="600.8955" y1="768.5859" y2="768.5859"/><text fill="#000000" font-family="sans-serif" font-size="13" lengthAdjust="spacing" textLength="182.1777" x="115.9253" y="763.8438">submit edited sequence data</text><polygon fill="#181818" points="981.2197,793.8965,991.2197,797.8965,981.2197,801.8965,985.2197,797.8965" style="stroke:#181818;stroke-width:1.0;"/><line style="stroke:#181818;stroke-width:1.0;" x1="606.8955" x2="987.2197" y1="797.8965" y2="797.8965"/><text fill="#000000" font-family="sans-serif" font-size="13" lengthAdjust="spacing" textLength="170.5806" x="613.8955" y="793.1543">store edited sequence data</text><polygon fill="#181818" points="981.2197,823.207,991.2197,827.207,981.2197,831.207,985.2197,827.207" style="stroke:#181818;stroke-width:1.0;"/><line style="stroke:#181818;stroke-width:1.0;" x1="606.8955" x2="987.2197" y1="827.207" y2="827.207"/><text fill="#000000" font-family="sans-serif" font-size="13" lengthAdjust="spacing" textLength="148.4336" x="613.8955" y="822.4648">set status to 'RECEIVED'</text><polygon fill="#181818" points="594.8955,859.5176,604.8955,863.5176,594.8955,867.5176,598.8955,863.5176" style="stroke:#181818;stroke-width:1.0;"/><line style="stroke:#181818;stroke-width:1.0;" x1="108.9253" x2="600.8955" y1="863.5176" y2="863.5176"/><text fill="#000000" font-family="sans-serif" font-size="13" lengthAdjust="spacing" textLength="200.6621" x="115.9253" y="858.7754">Query processed sequence data</text><polygon fill="#181818" points="981.2197,888.8281,991.2197,892.8281,981.2197,896.8281,985.2197,892.8281" style="stroke:#181818;stroke-width:1.0;"/><line style="stroke:#181818;stroke-width:1.0;" x1="606.8955" x2="987.2197" y1="892.8281" y2="892.8281"/><text fill="#000000" font-family="sans-serif" font-size="13" lengthAdjust="spacing" textLength="200.6621" x="613.8955" y="888.0859">Query processed sequence data</text><polygon fill="#181818" points="617.8955,918.1387,607.8955,922.1387,617.8955,926.1387,613.8955,922.1387" style="stroke:#181818;stroke-width:1.0;"/><line style="stroke:#181818;stroke-width:1.0;" x1="611.8955" x2="992.2197" y1="922.1387" y2="922.1387"/><text fill="#000000" font-family="sans-serif" font-size="13" lengthAdjust="spacing" textLength="159.0278" x="623.8955" y="917.3965">processed sequence data</text><polygon fill="#181818" points="119.9253,947.4492,109.9253,951.4492,119.9253,955.4492,115.9253,951.4492" style="stroke:#181818;stroke-width:1.0;"/><line style="stroke:#181818;stroke-width:1.0;" x1="113.9253" x2="605.8955" y1="951.4492" y2="951.4492"/><text fill="#000000" font-family="sans-serif" font-size="13" lengthAdjust="spacing" textLength="159.0278" x="125.9253" y="946.707">processed sequence data</text><polygon fill="#181818" points="594.8955,976.7598,604.8955,980.7598,594.8955,984.7598,598.8955,980.7598" style="stroke:#181818;stroke-width:1.0;"/><line style="stroke:#181818;stroke-width:1.0;" x1="108.9253" x2="600.8955" y1="980.7598" y2="980.7598"/><text fill="#000000" font-family="sans-serif" font-size="13" lengthAdjust="spacing" textLength="213.9604" x="115.9253" y="976.0176">approve processed sequence data</text><polygon fill="#181818" points="981.2197,1006.0703,991.2197,1010.0703,981.2197,1014.0703,985.2197,1010.0703" style="stroke:#181818;stroke-width:1.0;"/><line style="stroke:#181818;stroke-width:1.0;" x1="606.8955" x2="987.2197" y1="1010.0703" y2="1010.0703"/><text fill="#000000" font-family="sans-serif" font-size="13" lengthAdjust="spacing" textLength="362.3242" x="613.8955" y="1005.3281">set status from 'PROCESSED' to 'APPROVED_FOR_RELEASE'</text><!--SRC=[dLLDR-8m4BtpAqRqmEu1zSvXfGAXGc8B9TfUgqaoWBN6JcsdY7-_jiaNQHBAve22xJSVRvvV001IL8R5B4LXOBYISSOp3GibXI6Hm2FyqQI6W1fsnTh3YkqFPdP6CO1cW1yRHUEV6oLZqfg9FMnOIfm9yY7IQlqIv5aHjKGfofXY_DTczDZeyWuFQuLYJnwKeC48DS5mdh_ve_Ffm6-N5Oz_5V09w2mwCWDCCCEGWwQFZ4HCFfP78JSG5gjeqR_9eDk51UEa0HN19tAM-DFkAKgpQOgK4r2aKobiRITc3e2nRzmkjA7cqmc4Hjh0tMMrG3GPq0QDPSf866s3MR1y2-OZVvwupNsh3oRkxeIKakgIGIIUPo4DWNBZ1BahSNdCfG1p8DX9pkN93VvaYz4wErQzAZnTztjDiQl7fRZCb4kPGYOCutQnBYXVbnwKhTIswkD_pKYTYzIFb313oVVO_dzaMCt9idEiJShFRVdoljckPq4OBb-UHsMG-HJ6zShlosoH5GCtmBSuowzCljkPsrqSFpKqLkZvG436SQRACmrswYLUo-nBeAiG_PghFs-DE5vRDcs44J-35FP7KK9qjFy9eZF41silZW4dszIwMOsKD3UpbZmzEZS7D4wipPOkrDZipN2bukiBJlY3VlEuDQ1- -yWrwFoZHBGww8U_21t9QYQXMyDKle99OcUk2w4uYtBox19ddvlVSnkrv-ekHA_FbhFf_kQyzZ4swFIQFe1pXrg6RyQkoEy2T3U1gSLyqZrjwARnLHhpJ3vjx89bydsnthvlWrNm50QZmJy0]--></g></svg>