<?xml version="1.0" encoding="us-ascii" standalone="no"?><svg xmlns="http://www.w3.org/2000/svg" xmlns:xlink="http://www.w3.org/1999/xlink" contentStyleType="text/css" height="1328px" preserveAspectRatio="none" style="width:1184px;height:1328px;background:#FFFFFF;" version="1.1" viewBox="0 0 1184 1328" width="1184px" zoomAndPan="magnify"><defs/><g><rect fill="none" height="177.6016" style="stroke:#000000;stroke-width:1.5;" width="1158" x="10" y="127.4297"/><rect fill="none" height="618.7891" style="stroke:#000000;stroke-width:1.5;" width="1168" x="10" y="319.0313"/><rect fill="none" height="75.3984" style="stroke:#000000;stroke-width:1.5;" width="432.5" x="355.5" y="517.9609"/><rect fill="none" height="135.6641" style="stroke:#000000;stroke-width:1.5;" width="564" x="604" y="607.3594"/><rect fill="none" height="104.5313" style="stroke:#000000;stroke-width:1.5;" width="1158" x="10" y="1126.6172"/><line style="stroke:#181818;stroke-width:0.5;stroke-dasharray:5.0,5.0;" x1="38" x2="38" y1="81.2969" y2="1248.1484"/><line style="stroke:#181818;stroke-width:0.5;stroke-dasharray:5.0,5.0;" x1="272.5" x2="272.5" y1="81.2969" y2="1248.1484"/><line style="stroke:#181818;stroke-width:0.5;stroke-dasharray:5.0,5.0;" x1="458.5" x2="458.5" y1="81.2969" y2="1248.1484"/><line style="stroke:#181818;stroke-width:0.5;stroke-dasharray:5.0,5.0;" x1="696" x2="696" y1="81.2969" y2="1248.1484"/><line style="stroke:#181818;stroke-width:0.5;stroke-dasharray:5.0,5.0;" x1="1122" x2="1122" y1="81.2969" y2="1248.1484"/><text fill="#000000" font-family="sans-serif" font-size="14" lengthAdjust="spacing" textLength="31" x="20" y="77.9951">user</text><ellipse cx="38.5" cy="13.5" fill="#E2E2F0" rx="8" ry="8" style="stroke:#181818;stroke-width:0.5;"/><path d="M38.5,21.5 L38.5,48.5 M25.5,29.5 L51.5,29.5 M38.5,48.5 L25.5,63.5 M38.5,48.5 L51.5,63.5 " fill="none" style="stroke:#181818;stroke-width:0.5;"/><text fill="#000000" font-family="sans-serif" font-size="14" lengthAdjust="spacing" textLength="31" x="20" y="1260.1436">user</text><ellipse cx="38.5" cy="1271.9453" fill="#E2E2F0" rx="8" ry="8" style="stroke:#181818;stroke-width:0.5;"/><path d="M38.5,1279.9453 L38.5,1306.9453 M25.5,1287.9453 L51.5,1287.9453 M38.5,1306.9453 L25.5,1321.9453 M38.5,1306.9453 L51.5,1321.9453 " fill="none" style="stroke:#181818;stroke-width:0.5;"/><rect fill="#E0FFFF" height="30.2969" rx="2.5" ry="2.5" style="stroke:#181818;stroke-width:0.5;" width="166" x="189.5" y="50"/><text fill="#000000" font-family="sans-serif" font-size="14" lengthAdjust="spacing" textLength="152" x="196.5" y="69.9951">Pathoplexus Frontend</text><rect fill="#E0FFFF" height="30.2969" rx="2.5" ry="2.5" style="stroke:#181818;stroke-width:0.5;" width="166" x="189.5" y="1247.1484"/><text fill="#000000" font-family="sans-serif" font-size="14" lengthAdjust="spacing" textLength="152" x="196.5" y="1267.1436">Pathoplexus Frontend</text><rect fill="#90EE90" height="30.2969" rx="2.5" ry="2.5" style="stroke:#181818;stroke-width:0.5;" width="187" x="365.5" y="50"/><text fill="#000000" font-family="sans-serif" font-size="14" lengthAdjust="spacing" textLength="173" x="372.5" y="69.9951">(Pre-)Processing Pipeline</text><rect fill="#90EE90" height="30.2969" rx="2.5" ry="2.5" style="stroke:#181818;stroke-width:0.5;" width="187" x="365.5" y="1247.1484"/><text fill="#000000" font-family="sans-serif" font-size="14" lengthAdjust="spacing" textLength="173" x="372.5" y="1267.1436">(Pre-)Processing Pipeline</text><rect fill="#FFA500" height="30.2969" rx="2.5" ry="2.5" style="stroke:#181818;stroke-width:0.5;" width="164" x="614" y="50"/><text fill="#000000" font-family="sans-serif" font-size="14" lengthAdjust="spacing" textLength="150" x="621" y="69.9951">Pathoplexus Backend</text><rect fill="#FFA500" height="30.2969" rx="2.5" ry="2.5" style="stroke:#181818;stroke-width:0.5;" width="164" x="614" y="1247.1484"/><text fill="#000000" font-family="sans-serif" font-size="14" lengthAdjust="spacing" textLength="150" x="621" y="1267.1436">Pathoplexus Backend</text><text fill="#000000" font-family="sans-serif" font-size="14" lengthAdjust="spacing" textLength="66" x="1086" y="77.9951">Database</text><path d="M1104,29 C1104,19 1122,19 1122,19 C1122,19 1140,19 1140,29 L1140,55 C1140,65 1122,65 1122,65 C1122,65 1104,65 1104,55 L1104,29 " fill="#E2E2F0" style="stroke:#181818;stroke-width:1.5;"/><path d="M1104,29 C1104,39 1122,39 1122,39 C1122,39 1140,39 1140,29 " fill="none" style="stroke:#181818;stroke-width:1.5;"/><text fill="#000000" font-family="sans-serif" font-size="14" lengthAdjust="spacing" textLength="66" x="1086" y="1260.1436">Database</text><path d="M1104,1273.4453 C1104,1263.4453 1122,1263.4453 1122,1263.4453 C1122,1263.4453 1140,1263.4453 1140,1273.4453 L1140,1299.4453 C1140,1309.4453 1122,1309.4453 1122,1309.4453 C1122,1309.4453 1104,1309.4453 1104,1299.4453 L1104,1273.4453 " fill="#E2E2F0" style="stroke:#181818;stroke-width:1.5;"/><path d="M1104,1273.4453 C1104,1283.4453 1122,1283.4453 1122,1283.4453 C1122,1283.4453 1140,1283.4453 1140,1273.4453 " fill="none" style="stroke:#181818;stroke-width:1.5;"/><polygon fill="#181818" points="260.5,108.4297,270.5,112.4297,260.5,116.4297,264.5,112.4297" style="stroke:#181818;stroke-width:1.0;"/><line style="stroke:#181818;stroke-width:1.0;" x1="38.5" x2="266.5" y1="112.4297" y2="112.4297"/><text fill="#000000" font-family="sans-serif" font-size="13" lengthAdjust="spacing" textLength="182" x="45.5" y="107.3638">Submit initial sequence data</text><path d="M10,127.4297 L74,127.4297 L74,134.5625 L64,144.5625 L10,144.5625 L10,127.4297 " fill="#EEEEEE" style="stroke:#000000;stroke-width:1.5;"/><rect fill="none" height="177.6016" style="stroke:#000000;stroke-width:1.5;" width="1158" x="10" y="127.4297"/><text fill="#000000" font-family="sans-serif" font-size="13" font-weight="bold" lengthAdjust="spacing" textLength="19" x="25" y="140.4966">alt</text><text fill="#000000" font-family="sans-serif" font-size="11" font-weight="bold" lengthAdjust="spacing" textLength="261" x="89" y="139.6401">[Sequence and Metadata Files are valid]</text><polygon fill="#181818" points="684,161.6953,694,165.6953,684,169.6953,688,165.6953" style="stroke:#181818;stroke-width:1.0;"/><line style="stroke:#181818;stroke-width:1.0;" x1="272.5" x2="690" y1="165.6953" y2="165.6953"/><text fill="#000000" font-family="sans-serif" font-size="13" lengthAdjust="spacing" textLength="180" x="279.5" y="160.6294">submit initial sequence data</text><polygon fill="#181818" points="49.5,190.8281,39.5,194.8281,49.5,198.8281,45.5,194.8281" style="stroke:#181818;stroke-width:1.0;"/><line style="stroke:#181818;stroke-width:1.0;" x1="43.5" x2="271.5" y1="194.8281" y2="194.8281"/><text fill="#000000" font-family="sans-serif" font-size="13" lengthAdjust="spacing" textLength="172" x="55.5" y="189.7622">response with sequenceIds</text><polygon fill="#181818" points="1110,219.9609,1120,223.9609,1110,227.9609,1114,223.9609" style="stroke:#181818;stroke-width:1.0;"/><line style="stroke:#181818;stroke-width:1.0;" x1="696" x2="1116" y1="223.9609" y2="223.9609"/><text fill="#000000" font-family="sans-serif" font-size="13" lengthAdjust="spacing" textLength="171" x="703" y="218.895">Store initial sequence data</text><polygon fill="#181818" points="1110,249.0938,1120,253.0938,1110,257.0938,1114,253.0938" style="stroke:#181818;stroke-width:1.0;"/><line style="stroke:#181818;stroke-width:1.0;" x1="696" x2="1116" y1="253.0938" y2="253.0938"/><text fill="#000000" font-family="sans-serif" font-size="13" lengthAdjust="spacing" textLength="154" x="703" y="248.0278">set status to 'RECEIVED'</text><line style="stroke:#000000;stroke-width:1.0;stroke-dasharray:2.0,2.0;" x1="10" x2="1168" y1="262.0938" y2="262.0938"/><text fill="#000000" font-family="sans-serif" font-size="11" font-weight="bold" lengthAdjust="spacing" textLength="273" x="15" y="272.3042">[Sequence and Metadata Files are invalid]</text><polygon fill="#181818" points="49.5,293.0313,39.5,297.0313,49.5,301.0313,45.5,297.0313" style="stroke:#181818;stroke-width:1.0;"/><line style="stroke:#181818;stroke-width:1.0;" x1="43.5" x2="271.5" y1="297.0313" y2="297.0313"/><text fill="#000000" font-family="sans-serif" font-size="13" lengthAdjust="spacing" textLength="123" x="55.5" y="291.9653">response with error</text><path d="M10,319.0313 L87,319.0313 L87,326.1641 L77,336.1641 L10,336.1641 L10,319.0313 " fill="#EEEEEE" style="stroke:#000000;stroke-width:1.5;"/><rect fill="none" height="618.7891" style="stroke:#000000;stroke-width:1.5;" width="1168" x="10" y="319.0313"/><text fill="#000000" font-family="sans-serif" font-size="13" font-weight="bold" lengthAdjust="spacing" textLength="32" x="25" y="332.0981">loop</text><text fill="#000000" font-family="sans-serif" font-size="11" font-weight="bold" lengthAdjust="spacing" textLength="175" x="102" y="331.2417">[until no processing errors]</text><polygon fill="#181818" points="684,353.2969,694,357.2969,684,361.2969,688,357.2969" style="stroke:#181818;stroke-width:1.0;"/><line style="stroke:#181818;stroke-width:1.0;" x1="459" x2="690" y1="357.2969" y2="357.2969"/><text fill="#000000" font-family="sans-serif" font-size="13" lengthAdjust="spacing" textLength="168" x="466" y="352.231">Query initial/reviewed data</text><polygon fill="#181818" points="1110,382.4297,1120,386.4297,1110,390.4297,1114,386.4297" style="stroke:#181818;stroke-width:1.0;"/><line style="stroke:#181818;stroke-width:1.0;" x1="696" x2="1116" y1="386.4297" y2="386.4297"/><text fill="#000000" font-family="sans-serif" font-size="13" lengthAdjust="spacing" textLength="168" x="703" y="381.3638">Query initial/reviewed data</text><polygon fill="#181818" points="1110,411.5625,1120,415.5625,1110,419.5625,1114,415.5625" style="stroke:#181818;stroke-width:1.0;"/><line style="stroke:#181818;stroke-width:1.0;" x1="696" x2="1116" y1="415.5625" y2="415.5625"/><text fill="#000000" font-family="sans-serif" font-size="13" lengthAdjust="spacing" textLength="402" x="703" y="410.4966">Set status from 'RECEIVED'/'REVIEW_NEEDED' to 'PROCESSING'</text><polygon fill="#181818" points="707,440.6953,697,444.6953,707,448.6953,703,444.6953" style="stroke:#181818;stroke-width:1.0;"/><line style="stroke:#181818;stroke-width:1.0;stroke-dasharray:2.0,2.0;" x1="701" x2="1121" y1="444.6953" y2="444.6953"/><text fill="#000000" font-family="sans-serif" font-size="13" lengthAdjust="spacing" textLength="126" x="713" y="439.6294">initial/reviewed data</text><polygon fill="#181818" points="470,469.8281,460,473.8281,470,477.8281,466,473.8281" style="stroke:#181818;stroke-width:1.0;"/><line style="stroke:#181818;stroke-width:1.0;stroke-dasharray:2.0,2.0;" x1="464" x2="695" y1="473.8281" y2="473.8281"/><text fill="#000000" font-family="sans-serif" font-size="13" lengthAdjust="spacing" textLength="126" x="476" y="468.7622">initial/reviewed data</text><polygon fill="#181818" points="684,498.9609,694,502.9609,684,506.9609,688,502.9609" style="stroke:#181818;stroke-width:1.0;"/><line style="stroke:#181818;stroke-width:1.0;" x1="459" x2="690" y1="502.9609" y2="502.9609"/><text fill="#000000" font-family="sans-serif" font-size="13" lengthAdjust="spacing" textLength="213" x="466" y="497.895">submit processed sequence data</text><path d="M355.5,517.9609 L432.5,517.9609 L432.5,525.0938 L422.5,535.0938 L355.5,535.0938 L355.5,517.9609 " fill="#EEEEEE" style="stroke:#000000;stroke-width:1.5;"/><rect fill="none" height="75.3984" style="stroke:#000000;stroke-width:1.5;" width="432.5" x="355.5" y="517.9609"/><text fill="#000000" font-family="sans-serif" font-size="13" font-weight="bold" lengthAdjust="spacing" textLength="32" x="370.5" y="531.0278">loop</text><text fill="#000000" font-family="sans-serif" font-size="11" font-weight="bold" lengthAdjust="spacing" textLength="169" x="447.5" y="530.1714">[until no validation errors]</text><polygon fill="#181818" points="470,552.2266,460,556.2266,470,560.2266,466,556.2266" style="stroke:#181818;stroke-width:1.0;"/><line style="stroke:#181818;stroke-width:1.0;" x1="464" x2="695" y1="556.2266" y2="556.2266"/><text fill="#000000" font-family="sans-serif" font-size="13" lengthAdjust="spacing" textLength="195" x="476" y="551.1606">response with validation errors</text><polygon fill="#181818" points="684,581.3594,694,585.3594,684,589.3594,688,585.3594" style="stroke:#181818;stroke-width:1.0;"/><line style="stroke:#181818;stroke-width:1.0;" x1="459" x2="690" y1="585.3594" y2="585.3594"/><text fill="#000000" font-family="sans-serif" font-size="13" lengthAdjust="spacing" textLength="213" x="466" y="580.2935">submit processed sequence data</text><path d="M604,607.3594 L668,607.3594 L668,614.4922 L658,624.4922 L604,624.4922 L604,607.3594 " fill="#EEEEEE" style="stroke:#000000;stroke-width:1.5;"/><rect fill="none" height="135.6641" style="stroke:#000000;stroke-width:1.5;" width="564" x="604" y="607.3594"/><text fill="#000000" font-family="sans-serif" font-size="13" font-weight="bold" lengthAdjust="spacing" textLength="19" x="619" y="620.4263">alt</text><text fill="#000000" font-family="sans-serif" font-size="11" font-weight="bold" lengthAdjust="spacing" textLength="277" x="683" y="619.5698">[processed data contain processing errors]</text><polygon fill="#181818" points="1110,641.625,1120,645.625,1110,649.625,1114,645.625" style="stroke:#181818;stroke-width:1.0;"/><line style="stroke:#181818;stroke-width:1.0;" x1="696" x2="1116" y1="645.625" y2="645.625"/><text fill="#000000" font-family="sans-serif" font-size="13" lengthAdjust="spacing" textLength="275" x="703" y="640.5591">Store processed sequence data with errors</text><polygon fill="#181818" points="1110,670.7578,1120,674.7578,1110,678.7578,1114,674.7578" style="stroke:#181818;stroke-width:1.0;"/><line style="stroke:#181818;stroke-width:1.0;" x1="696" x2="1116" y1="674.7578" y2="674.7578"/><text fill="#000000" font-family="sans-serif" font-size="13" lengthAdjust="spacing" textLength="199" x="703" y="669.6919">set status to 'REVIEW_NEEDED'</text><line style="stroke:#000000;stroke-width:1.0;stroke-dasharray:2.0,2.0;" x1="604" x2="1168" y1="683.7578" y2="683.7578"/><polygon fill="#181818" points="1110,701.8906,1120,705.8906,1110,709.8906,1114,705.8906" style="stroke:#181818;stroke-width:1.0;"/><line style="stroke:#181818;stroke-width:1.0;" x1="696" x2="1116" y1="705.8906" y2="705.8906"/><text fill="#000000" font-family="sans-serif" font-size="13" lengthAdjust="spacing" textLength="296" x="703" y="700.8247">Store processed sequence data without errors</text><polygon fill="#181818" points="1110,731.0234,1120,735.0234,1110,739.0234,1114,735.0234" style="stroke:#181818;stroke-width:1.0;"/><line style="stroke:#181818;stroke-width:1.0;" x1="696" x2="1116" y1="735.0234" y2="735.0234"/><text fill="#000000" font-family="sans-serif" font-size="13" lengthAdjust="spacing" textLength="170" x="703" y="729.9575">set status to 'PROCESSED'</text><polygon fill="#181818" points="260.5,767.1563,270.5,771.1563,260.5,775.1563,264.5,771.1563" style="stroke:#181818;stroke-width:1.0;"/><line style="stroke:#181818;stroke-width:1.0;" x1="38.5" x2="266.5" y1="771.1563" y2="771.1563"/><text fill="#000000" font-family="sans-serif" font-size="13" lengthAdjust="spacing" textLength="210" x="45.5" y="766.0903">query processed data with errors</text><line style="stroke:#181818;stroke-width:1.0;" x1="38.5" x2="80.5" y1="800.2891" y2="800.2891"/><line style="stroke:#181818;stroke-width:1.0;" x1="80.5" x2="80.5" y1="800.2891" y2="813.2891"/><line style="stroke:#181818;stroke-width:1.0;" x1="39.5" x2="80.5" y1="813.2891" y2="813.2891"/><polygon fill="#181818" points="49.5,809.2891,39.5,813.2891,49.5,817.2891,45.5,813.2891" style="stroke:#181818;stroke-width:1.0;"/><text fill="#000000" font-family="sans-serif" font-size="13" lengthAdjust="spacing" textLength="195" x="45.5" y="795.2231">address errors and adapt data</text><polygon fill="#181818" points="260.5,838.4219,270.5,842.4219,260.5,846.4219,264.5,842.4219" style="stroke:#181818;stroke-width:1.0;"/><line style="stroke:#181818;stroke-width:1.0;" x1="38.5" x2="266.5" y1="842.4219" y2="842.4219"/><text fill="#000000" font-family="sans-serif" font-size="13" lengthAdjust="spacing" textLength="134" x="45.5" y="837.356">submit adapted data</text><polygon fill="#181818" points="684,867.5547,694,871.5547,684,875.5547,688,871.5547" style="stroke:#181818;stroke-width:1.0;"/><line style="stroke:#181818;stroke-width:1.0;" x1="272.5" x2="690" y1="871.5547" y2="871.5547"/><text fill="#000000" font-family="sans-serif" font-size="13" lengthAdjust="spacing" textLength="134" x="279.5" y="866.4888">submit adapted data</text><polygon fill="#181818" points="1110,896.6875,1120,900.6875,1110,904.6875,1114,900.6875" style="stroke:#181818;stroke-width:1.0;"/><line style="stroke:#181818;stroke-width:1.0;" x1="696" x2="1116" y1="900.6875" y2="900.6875"/><text fill="#000000" font-family="sans-serif" font-size="13" lengthAdjust="spacing" textLength="123" x="703" y="895.6216">store adapted data</text><polygon fill="#181818" points="1110,925.8203,1120,929.8203,1110,933.8203,1114,929.8203" style="stroke:#181818;stroke-width:1.0;"/><line style="stroke:#181818;stroke-width:1.0;" x1="696" x2="1116" y1="929.8203" y2="929.8203"/><text fill="#000000" font-family="sans-serif" font-size="13" lengthAdjust="spacing" textLength="156" x="703" y="924.7544">set status to 'REVIEWED'</text><polygon fill="#181818" points="260.5,961.9531,270.5,965.9531,260.5,969.9531,264.5,965.9531" style="stroke:#181818;stroke-width:1.0;"/><line style="stroke:#181818;stroke-width:1.0;" x1="38.5" x2="266.5" y1="965.9531" y2="965.9531"/><text fill="#000000" font-family="sans-serif" font-size="13" lengthAdjust="spacing" textLength="141" x="45.5" y="960.8872">Query processed data</text><polygon fill="#181818" points="684,991.0859,694,995.0859,684,999.0859,688,995.0859" style="stroke:#181818;stroke-width:1.0;"/><line style="stroke:#181818;stroke-width:1.0;" x1="272.5" x2="690" y1="995.0859" y2="995.0859"/><text fill="#000000" font-family="sans-serif" font-size="13" lengthAdjust="spacing" textLength="141" x="279.5" y="990.02">Query processed data</text><polygon fill="#181818" points="1110,1020.2188,1120,1024.2188,1110,1028.2188,1114,1024.2188" style="stroke:#181818;stroke-width:1.0;"/><line style="stroke:#181818;stroke-width:1.0;" x1="696" x2="1116" y1="1024.2188" y2="1024.2188"/><text fill="#000000" font-family="sans-serif" font-size="13" lengthAdjust="spacing" textLength="141" x="703" y="1019.1528">Query processed data</text><polygon fill="#181818" points="707,1049.3516,697,1053.3516,707,1057.3516,703,1053.3516" style="stroke:#181818;stroke-width:1.0;"/><line style="stroke:#181818;stroke-width:1.0;stroke-dasharray:2.0,2.0;" x1="701" x2="1121" y1="1053.3516" y2="1053.3516"/><text fill="#000000" font-family="sans-serif" font-size="13" lengthAdjust="spacing" textLength="99" x="713" y="1048.2856">processed data</text><polygon fill="#181818" points="283.5,1078.4844,273.5,1082.4844,283.5,1086.4844,279.5,1082.4844" style="stroke:#181818;stroke-width:1.0;"/><line style="stroke:#181818;stroke-width:1.0;stroke-dasharray:2.0,2.0;" x1="277.5" x2="695" y1="1082.4844" y2="1082.4844"/><text fill="#000000" font-family="sans-serif" font-size="13" lengthAdjust="spacing" textLength="99" x="289.5" y="1077.4185">processed data</text><polygon fill="#181818" points="49.5,1107.6172,39.5,1111.6172,49.5,1115.6172,45.5,1111.6172" style="stroke:#181818;stroke-width:1.0;"/><line style="stroke:#181818;stroke-width:1.0;" x1="43.5" x2="271.5" y1="1111.6172" y2="1111.6172"/><text fill="#000000" font-family="sans-serif" font-size="13" lengthAdjust="spacing" textLength="137" x="55.5" y="1106.5513">Show processed data</text><path d="M10,1126.6172 L74,1126.6172 L74,1133.75 L64,1143.75 L10,1143.75 L10,1126.6172 " fill="#EEEEEE" style="stroke:#000000;stroke-width:1.5;"/><rect fill="none" height="104.5313" style="stroke:#000000;stroke-width:1.5;" width="1158" x="10" y="1126.6172"/><text fill="#000000" font-family="sans-serif" font-size="13" font-weight="bold" lengthAdjust="spacing" textLength="19" x="25" y="1139.6841">alt</text><text fill="#000000" font-family="sans-serif" font-size="11" font-weight="bold" lengthAdjust="spacing" textLength="175" x="89" y="1138.8276">[user approves processing]</text><polygon fill="#181818" points="260.5,1160.8828,270.5,1164.8828,260.5,1168.8828,264.5,1164.8828" style="stroke:#181818;stroke-width:1.0;"/><line style="stroke:#181818;stroke-width:1.0;" x1="38.5" x2="266.5" y1="1164.8828" y2="1164.8828"/><text fill="#000000" font-family="sans-serif" font-size="13" lengthAdjust="spacing" textLength="125" x="45.5" y="1159.8169">approve processing</text><polygon fill="#181818" points="684,1190.0156,694,1194.0156,684,1198.0156,688,1194.0156" style="stroke:#181818;stroke-width:1.0;"/><line style="stroke:#181818;stroke-width:1.0;" x1="272.5" x2="690" y1="1194.0156" y2="1194.0156"/><text fill="#000000" font-family="sans-serif" font-size="13" lengthAdjust="spacing" textLength="125" x="279.5" y="1188.9497">approve processing</text><polygon fill="#181818" points="1110,1219.1484,1120,1223.1484,1110,1227.1484,1114,1223.1484" style="stroke:#181818;stroke-width:1.0;"/><line style="stroke:#181818;stroke-width:1.0;" x1="696" x2="1116" y1="1223.1484" y2="1223.1484"/><text fill="#000000" font-family="sans-serif" font-size="13" lengthAdjust="spacing" textLength="292" x="703" y="1218.0825">set status from 'PROCESSED' to 'SILO_READY'</text><!--SRC=[fLLDRzim3BtdLn3j8TiXw3s70Kli5W6w9es13ZiLZCqbmbp9bUHa_VUJvI_PaPrszKcs-CZ7nmy3062iXOHSaPoODyXGQXQp3Bc6gmtgWyXI-fihk9M2Q-B95Q22tzKBND-p_K4ltv2Vexzi9Cs-RgI8IId6zx1X6QMCatMHjTzB9tUIY8zpM63yfwQmAyzmlPR8zsI12MhSeIAu2ggJDGqM4tjT90cpRmtxEKJvxeLfO9nfXYaeUis9nsGTMGYc6gBwAvfmFqXZSGktB2K5A0cEcBB4MXTF8uq9L76SWxeKfuyigCv1aie4D_cSc3uqg5MY6aojWe442vEFgILT2DE3ADAWD6eZhnOmtORBSFKK1bDhJwa9VYb_neSLyEL1KegosOnHMPbKY0nohbaANBYjOMtLfF7jNBdwFkOat-gyRoGT6Pqe6StxFo1HAvN9ySKHwyOSdrRXp-U7C0pCkvLoirqlmoXQFTnD6u_10cOkyNV6Dv0syo7K9P6g9gnk3ShV7zrQsDAYPeBNjG3dSGHo-NNhFUxYSsIBu0NXDlbYObkKRTNOz2CoxkchWLpQKHg8xpJog9EpuNARf4t2JDddg8XSVvnDrPyT9hmTu_Dj-Mf7fYUkJuaQMau_9ebf25KPsIrYLaYckvKy3rUrWBNjJyROblK2-b9OITzbwIjXinyxxNUUmgD7iSaW_q5hx-hosFMtovYh3iyB3CiwHWTnybaM4sTJnypS7idzju-KjxBs6NlL6R4VBbcvfzjEjpMCLlVhvstuFVZLLF4V]--></g></svg>