<?xml version="1.0" encoding="us-ascii" standalone="no"?><svg xmlns="http://www.w3.org/2000/svg" xmlns:xlink="http://www.w3.org/1999/xlink" contentStyleType="text/css" height="350px" preserveAspectRatio="none" style="width:786px;height:350px;background:#FFFFFF;" version="1.1" viewBox="0 0 786 350" width="786px" zoomAndPan="magnify"><defs/><g><rect fill="none" height="106.5313" style="stroke:#000000;stroke-width:1.5;" width="769.5" x="10" y="113.4297"/><line style="stroke:#181818;stroke-width:0.5;stroke-dasharray:5.0,5.0;" x1="125" x2="125" y1="67.2969" y2="272.0938"/><line style="stroke:#181818;stroke-width:0.5;stroke-dasharray:5.0,5.0;" x1="462.5" x2="462.5" y1="67.2969" y2="272.0938"/><line style="stroke:#181818;stroke-width:0.5;stroke-dasharray:5.0,5.0;" x1="733.5" x2="733.5" y1="67.2969" y2="272.0938"/><rect fill="#E0FFFF" height="30.2969" rx="2.5" ry="2.5" style="stroke:#181818;stroke-width:0.5;" width="211" x="20" y="36"/><text fill="#000000" font-family="sans-serif" font-size="14" lengthAdjust="spacing" textLength="197" x="27" y="55.9951">Pathoplexus Frontend / User</text><rect fill="#E0FFFF" height="30.2969" rx="2.5" ry="2.5" style="stroke:#181818;stroke-width:0.5;" width="211" x="20" y="271.0938"/><text fill="#000000" font-family="sans-serif" font-size="14" lengthAdjust="spacing" textLength="197" x="27" y="291.0889">Pathoplexus Frontend / User</text><rect fill="#FFA500" height="30.2969" rx="2.5" ry="2.5" style="stroke:#181818;stroke-width:0.5;" width="164" x="380.5" y="36"/><text fill="#000000" font-family="sans-serif" font-size="14" lengthAdjust="spacing" textLength="150" x="387.5" y="55.9951">Pathoplexus Backend</text><rect fill="#FFA500" height="30.2969" rx="2.5" ry="2.5" style="stroke:#181818;stroke-width:0.5;" width="164" x="380.5" y="271.0938"/><text fill="#000000" font-family="sans-serif" font-size="14" lengthAdjust="spacing" textLength="150" x="387.5" y="291.0889">Pathoplexus Backend</text><text fill="#000000" font-family="sans-serif" font-size="14" lengthAdjust="spacing" textLength="66" x="697.5" y="63.9951">Database</text><path d="M715.5,15 C715.5,5 733.5,5 733.5,5 C733.5,5 751.5,5 751.5,15 L751.5,41 C751.5,51 733.5,51 733.5,51 C733.5,51 715.5,51 715.5,41 L715.5,15 " fill="#E2E2F0" style="stroke:#181818;stroke-width:1.5;"/><path d="M715.5,15 C715.5,25 733.5,25 733.5,25 C733.5,25 751.5,25 751.5,15 " fill="none" style="stroke:#181818;stroke-width:1.5;"/><text fill="#000000" font-family="sans-serif" font-size="14" lengthAdjust="spacing" textLength="66" x="697.5" y="284.0889">Database</text><path d="M715.5,297.3906 C715.5,287.3906 733.5,287.3906 733.5,287.3906 C733.5,287.3906 751.5,287.3906 751.5,297.3906 L751.5,323.3906 C751.5,333.3906 733.5,333.3906 733.5,333.3906 C733.5,333.3906 715.5,333.3906 715.5,323.3906 L715.5,297.3906 " fill="#E2E2F0" style="stroke:#181818;stroke-width:1.5;"/><path d="M715.5,297.3906 C715.5,307.3906 733.5,307.3906 733.5,307.3906 C733.5,307.3906 751.5,307.3906 751.5,297.3906 " fill="none" style="stroke:#181818;stroke-width:1.5;"/><polygon fill="#181818" points="450.5,94.4297,460.5,98.4297,450.5,102.4297,454.5,98.4297" style="stroke:#181818;stroke-width:1.0;"/><line style="stroke:#181818;stroke-width:1.0;" x1="125.5" x2="456.5" y1="98.4297" y2="98.4297"/><text fill="#000000" font-family="sans-serif" font-size="13" lengthAdjust="spacing" textLength="300" x="132.5" y="93.3638">submit corrected data for existing sequenceIds</text><path d="M10,113.4297 L74,113.4297 L74,120.5625 L64,130.5625 L10,130.5625 L10,113.4297 " fill="#EEEEEE" style="stroke:#000000;stroke-width:1.5;"/><rect fill="none" height="106.5313" style="stroke:#000000;stroke-width:1.5;" width="769.5" x="10" y="113.4297"/><text fill="#000000" font-family="sans-serif" font-size="13" font-weight="bold" lengthAdjust="spacing" textLength="19" x="25" y="126.4966">alt</text><text fill="#000000" font-family="sans-serif" font-size="11" font-weight="bold" lengthAdjust="spacing" textLength="443" x="89" y="125.6401">[sequenceID exists and highest version is 'APPROVED_FOR_RELEASE']</text><polygon fill="#181818" points="721.5,147.6953,731.5,151.6953,721.5,155.6953,725.5,151.6953" style="stroke:#181818;stroke-width:1.0;"/><line style="stroke:#181818;stroke-width:1.0;" x1="462.5" x2="727.5" y1="151.6953" y2="151.6953"/><text fill="#000000" font-family="sans-serif" font-size="13" lengthAdjust="spacing" textLength="247" x="469.5" y="146.6294">insert new version in status 'RECEIVED'</text><polygon fill="#181818" points="136.5,176.8281,126.5,180.8281,136.5,184.8281,132.5,180.8281" style="stroke:#181818;stroke-width:1.0;"/><line style="stroke:#181818;stroke-width:1.0;" x1="130.5" x2="461.5" y1="180.8281" y2="180.8281"/><text fill="#000000" font-family="sans-serif" font-size="13" lengthAdjust="spacing" textLength="313" x="142.5" y="175.7622">response with sequenceId + new version number</text><line style="stroke:#000000;stroke-width:1.0;stroke-dasharray:2.0,2.0;" x1="10" x2="779.5" y1="189.8281" y2="189.8281"/><polygon fill="#181818" points="136.5,207.9609,126.5,211.9609,136.5,215.9609,132.5,211.9609" style="stroke:#181818;stroke-width:1.0;"/><line style="stroke:#181818;stroke-width:1.0;" x1="130.5" x2="461.5" y1="211.9609" y2="211.9609"/><text fill="#000000" font-family="sans-serif" font-size="13" lengthAdjust="spacing" textLength="186" x="142.5" y="206.895">response with error message</text><path d="M130,231.9609 L130,256.9609 L585,256.9609 L585,241.9609 L575,231.9609 L130,231.9609 " fill="#FEFFDD" style="stroke:#181818;stroke-width:0.5;"/><path d="M575,231.9609 L575,241.9609 L585,241.9609 L575,231.9609 " fill="#FEFFDD" style="stroke:#181818;stroke-width:0.5;"/><text fill="#000000" font-family="sans-serif" font-size="13" lengthAdjust="spacing" textLength="434" x="136" y="249.0278">At this point the same flow applies as if this was an inital submission</text><!--SRC=[VP51Qy9048Nl_eg77ZoKqhk7Wfe8Wg2aj5SPuyGiJNRJdR7QVz_DngY5jZaDc_U-cNa300rvDRbfo2g66zBIDHMVZuA5TrRPxl64Ls4_10cA_csqCeTIvrza1_WFCgFyFUYZUTVL6AqzsGD7uvwKTYICONAfeZIP3GRn_xNXutFldq2EkzeeSkSzvyhxI47XFFXiH8qzGFZZo3RdvLuw45LwUqmweO02kGoRi2W-sOjn5aOmdcussVejJRQBTRRDqbKwVKd7aTD-_I9XfcGsWR4X7eNbqurX8KeQ0XXdwJnT1bHdlxFsgqtWMHeN83WPBUz6nyCFg3tME_OHmvNmR-FynMJlGperYz0b-23gWh5E6Rwz9bnn1LpXKuMM8PB66TkM3A6QKLJk16gQoh2q1pD59pjH6shOtoXLtQ6a7Rxl6Tjz0m00]--></g></svg>