<?xml version="1.0" encoding="us-ascii" standalone="no"?><svg xmlns="http://www.w3.org/2000/svg" xmlns:xlink="http://www.w3.org/1999/xlink" contentStyleType="text/css" height="1191px" preserveAspectRatio="none" style="width:1166px;height:1191px;background:#FFFFFF;" version="1.1" viewBox="0 0 1166 1191" width="1166px" zoomAndPan="magnify"><defs/><g><rect fill="none" height="148.4688" style="stroke:#000000;stroke-width:1.5;" width="1140.5" x="10" y="113.4297"/><rect fill="none" height="610.7891" style="stroke:#000000;stroke-width:1.5;" width="1150.5" x="10" y="311.0313"/><rect fill="none" height="96.5313" style="stroke:#000000;stroke-width:1.5;" width="630.5" x="120" y="509.9609"/><rect fill="none" height="135.6641" style="stroke:#000000;stroke-width:1.5;" width="584" x="566.5" y="620.4922"/><line style="stroke:#181818;stroke-width:0.5;stroke-dasharray:5.0,5.0;" x1="125" x2="125" y1="67.2969" y2="1113.6172"/><line style="stroke:#181818;stroke-width:0.5;stroke-dasharray:5.0,5.0;" x1="400" x2="400" y1="67.2969" y2="1113.6172"/><line style="stroke:#181818;stroke-width:0.5;stroke-dasharray:5.0,5.0;" x1="658.5" x2="658.5" y1="67.2969" y2="1113.6172"/><line style="stroke:#181818;stroke-width:0.5;stroke-dasharray:5.0,5.0;" x1="1104.5" x2="1104.5" y1="67.2969" y2="1113.6172"/><rect fill="#E0FFFF" height="30.2969" rx="2.5" ry="2.5" style="stroke:#181818;stroke-width:0.5;" width="211" x="20" y="36"/><text fill="#000000" font-family="sans-serif" font-size="14" lengthAdjust="spacing" textLength="197" x="27" y="55.9951">Pathoplexus Frontend / User</text><rect fill="#E0FFFF" height="30.2969" rx="2.5" ry="2.5" style="stroke:#181818;stroke-width:0.5;" width="211" x="20" y="1112.6172"/><text fill="#000000" font-family="sans-serif" font-size="14" lengthAdjust="spacing" textLength="197" x="27" y="1132.6123">Pathoplexus Frontend / User</text><rect fill="#90EE90" height="30.2969" rx="2.5" ry="2.5" style="stroke:#181818;stroke-width:0.5;" width="187" x="307" y="36"/><text fill="#000000" font-family="sans-serif" font-size="14" lengthAdjust="spacing" textLength="173" x="314" y="55.9951">(Pre-)Processing Pipeline</text><rect fill="#90EE90" height="30.2969" rx="2.5" ry="2.5" style="stroke:#181818;stroke-width:0.5;" width="187" x="307" y="1112.6172"/><text fill="#000000" font-family="sans-serif" font-size="14" lengthAdjust="spacing" textLength="173" x="314" y="1132.6123">(Pre-)Processing Pipeline</text><rect fill="#FFA500" height="30.2969" rx="2.5" ry="2.5" style="stroke:#181818;stroke-width:0.5;" width="164" x="576.5" y="36"/><text fill="#000000" font-family="sans-serif" font-size="14" lengthAdjust="spacing" textLength="150" x="583.5" y="55.9951">Pathoplexus Backend</text><rect fill="#FFA500" height="30.2969" rx="2.5" ry="2.5" style="stroke:#181818;stroke-width:0.5;" width="164" x="576.5" y="1112.6172"/><text fill="#000000" font-family="sans-serif" font-size="14" lengthAdjust="spacing" textLength="150" x="583.5" y="1132.6123">Pathoplexus Backend</text><text fill="#000000" font-family="sans-serif" font-size="14" lengthAdjust="spacing" textLength="66" x="1068.5" y="63.9951">Database</text><path d="M1086.5,15 C1086.5,5 1104.5,5 1104.5,5 C1104.5,5 1122.5,5 1122.5,15 L1122.5,41 C1122.5,51 1104.5,51 1104.5,51 C1104.5,51 1086.5,51 1086.5,41 L1086.5,15 " fill="#E2E2F0" style="stroke:#181818;stroke-width:1.5;"/><path d="M1086.5,15 C1086.5,25 1104.5,25 1104.5,25 C1104.5,25 1122.5,25 1122.5,15 " fill="none" style="stroke:#181818;stroke-width:1.5;"/><text fill="#000000" font-family="sans-serif" font-size="14" lengthAdjust="spacing" textLength="66" x="1068.5" y="1125.6123">Database</text><path d="M1086.5,1138.9141 C1086.5,1128.9141 1104.5,1128.9141 1104.5,1128.9141 C1104.5,1128.9141 1122.5,1128.9141 1122.5,1138.9141 L1122.5,1164.9141 C1122.5,1174.9141 1104.5,1174.9141 1104.5,1174.9141 C1104.5,1174.9141 1086.5,1174.9141 1086.5,1164.9141 L1086.5,1138.9141 " fill="#E2E2F0" style="stroke:#181818;stroke-width:1.5;"/><path d="M1086.5,1138.9141 C1086.5,1148.9141 1104.5,1148.9141 1104.5,1148.9141 C1104.5,1148.9141 1122.5,1148.9141 1122.5,1138.9141 " fill="none" style="stroke:#181818;stroke-width:1.5;"/><polygon fill="#181818" points="646.5,94.4297,656.5,98.4297,646.5,102.4297,650.5,98.4297" style="stroke:#181818;stroke-width:1.0;"/><line style="stroke:#181818;stroke-width:1.0;" x1="125.5" x2="652.5" y1="98.4297" y2="98.4297"/><text fill="#000000" font-family="sans-serif" font-size="13" lengthAdjust="spacing" textLength="180" x="132.5" y="93.3638">submit initial sequence data</text><path d="M10,113.4297 L74,113.4297 L74,120.5625 L64,130.5625 L10,130.5625 L10,113.4297 " fill="#EEEEEE" style="stroke:#000000;stroke-width:1.5;"/><rect fill="none" height="148.4688" style="stroke:#000000;stroke-width:1.5;" width="1140.5" x="10" y="113.4297"/><text fill="#000000" font-family="sans-serif" font-size="13" font-weight="bold" lengthAdjust="spacing" textLength="19" x="25" y="126.4966">alt</text><text fill="#000000" font-family="sans-serif" font-size="11" font-weight="bold" lengthAdjust="spacing" textLength="261" x="89" y="125.6401">[Sequence and Metadata Files are valid]</text><polygon fill="#181818" points="136.5,147.6953,126.5,151.6953,136.5,155.6953,132.5,151.6953" style="stroke:#181818;stroke-width:1.0;"/><line style="stroke:#181818;stroke-width:1.0;" x1="130.5" x2="657.5" y1="151.6953" y2="151.6953"/><text fill="#000000" font-family="sans-serif" font-size="13" lengthAdjust="spacing" textLength="172" x="142.5" y="146.6294">response with sequenceIds</text><polygon fill="#181818" points="1092.5,176.8281,1102.5,180.8281,1092.5,184.8281,1096.5,180.8281" style="stroke:#181818;stroke-width:1.0;"/><line style="stroke:#181818;stroke-width:1.0;" x1="658.5" x2="1098.5" y1="180.8281" y2="180.8281"/><text fill="#000000" font-family="sans-serif" font-size="13" lengthAdjust="spacing" textLength="171" x="665.5" y="175.7622">Store initial sequence data</text><polygon fill="#181818" points="1092.5,205.9609,1102.5,209.9609,1092.5,213.9609,1096.5,209.9609" style="stroke:#181818;stroke-width:1.0;"/><line style="stroke:#181818;stroke-width:1.0;" x1="658.5" x2="1098.5" y1="209.9609" y2="209.9609"/><text fill="#000000" font-family="sans-serif" font-size="13" lengthAdjust="spacing" textLength="154" x="665.5" y="204.895">set status to 'RECEIVED'</text><line style="stroke:#000000;stroke-width:1.0;stroke-dasharray:2.0,2.0;" x1="10" x2="1150.5" y1="218.9609" y2="218.9609"/><text fill="#000000" font-family="sans-serif" font-size="11" font-weight="bold" lengthAdjust="spacing" textLength="273" x="15" y="229.1714">[Sequence and Metadata Files are invalid]</text><polygon fill="#181818" points="136.5,249.8984,126.5,253.8984,136.5,257.8984,132.5,253.8984" style="stroke:#181818;stroke-width:1.0;"/><line style="stroke:#181818;stroke-width:1.0;" x1="130.5" x2="657.5" y1="253.8984" y2="253.8984"/><text fill="#000000" font-family="sans-serif" font-size="13" lengthAdjust="spacing" textLength="123" x="142.5" y="248.8325">response with error</text><path d="M130,273.8984 L130,298.8984 L541,298.8984 L541,283.8984 L531,273.8984 L130,273.8984 " fill="#FEFFDD" style="stroke:#181818;stroke-width:0.5;"/><path d="M531,273.8984 L531,283.8984 L541,283.8984 L531,273.8984 " fill="#FEFFDD" style="stroke:#181818;stroke-width:0.5;"/><text fill="#000000" font-family="sans-serif" font-size="13" lengthAdjust="spacing" textLength="390" x="136" y="290.9653">In the following we assume initial raw sequence data are valid</text><path d="M10,311.0313 L87,311.0313 L87,318.1641 L77,328.1641 L10,328.1641 L10,311.0313 " fill="#EEEEEE" style="stroke:#000000;stroke-width:1.5;"/><rect fill="none" height="610.7891" style="stroke:#000000;stroke-width:1.5;" width="1150.5" x="10" y="311.0313"/><text fill="#000000" font-family="sans-serif" font-size="13" font-weight="bold" lengthAdjust="spacing" textLength="32" x="25" y="324.0981">loop</text><text fill="#000000" font-family="sans-serif" font-size="11" font-weight="bold" lengthAdjust="spacing" textLength="175" x="102" y="323.2417">[until no processing errors]</text><polygon fill="#181818" points="646.5,345.2969,656.5,349.2969,646.5,353.2969,650.5,349.2969" style="stroke:#181818;stroke-width:1.0;"/><line style="stroke:#181818;stroke-width:1.0;" x1="400.5" x2="652.5" y1="349.2969" y2="349.2969"/><text fill="#000000" font-family="sans-serif" font-size="13" lengthAdjust="spacing" textLength="234" x="407.5" y="344.231">Query initial/reviewed sequence data</text><polygon fill="#181818" points="1092.5,374.4297,1102.5,378.4297,1092.5,382.4297,1096.5,378.4297" style="stroke:#181818;stroke-width:1.0;"/><line style="stroke:#181818;stroke-width:1.0;" x1="658.5" x2="1098.5" y1="378.4297" y2="378.4297"/><text fill="#000000" font-family="sans-serif" font-size="13" lengthAdjust="spacing" textLength="234" x="665.5" y="373.3638">Query initial/reviewed sequence data</text><polygon fill="#181818" points="1092.5,403.5625,1102.5,407.5625,1092.5,411.5625,1096.5,407.5625" style="stroke:#181818;stroke-width:1.0;"/><line style="stroke:#181818;stroke-width:1.0;" x1="658.5" x2="1098.5" y1="407.5625" y2="407.5625"/><text fill="#000000" font-family="sans-serif" font-size="13" lengthAdjust="spacing" textLength="422" x="665.5" y="402.4966">Set status from 'RECEIVED'/'HAS_ERRORS' to 'IN_PROCESSING'</text><polygon fill="#181818" points="669.5,432.6953,659.5,436.6953,669.5,440.6953,665.5,436.6953" style="stroke:#181818;stroke-width:1.0;"/><line style="stroke:#181818;stroke-width:1.0;stroke-dasharray:2.0,2.0;" x1="663.5" x2="1103.5" y1="436.6953" y2="436.6953"/><text fill="#000000" font-family="sans-serif" font-size="13" lengthAdjust="spacing" textLength="192" x="675.5" y="431.6294">initial/reviewed sequence data</text><polygon fill="#181818" points="411.5,461.8281,401.5,465.8281,411.5,469.8281,407.5,465.8281" style="stroke:#181818;stroke-width:1.0;"/><line style="stroke:#181818;stroke-width:1.0;stroke-dasharray:2.0,2.0;" x1="405.5" x2="657.5" y1="465.8281" y2="465.8281"/><text fill="#000000" font-family="sans-serif" font-size="13" lengthAdjust="spacing" textLength="192" x="417.5" y="460.7622">initial/reviewed sequence data</text><polygon fill="#181818" points="646.5,490.9609,656.5,494.9609,646.5,498.9609,650.5,494.9609" style="stroke:#181818;stroke-width:1.0;"/><line style="stroke:#181818;stroke-width:1.0;" x1="400.5" x2="652.5" y1="494.9609" y2="494.9609"/><text fill="#000000" font-family="sans-serif" font-size="13" lengthAdjust="spacing" textLength="213" x="407.5" y="489.895">submit processed sequence data</text><path d="M120,509.9609 L184,509.9609 L184,517.0938 L174,527.0938 L120,527.0938 L120,509.9609 " fill="#EEEEEE" style="stroke:#000000;stroke-width:1.5;"/><rect fill="none" height="96.5313" style="stroke:#000000;stroke-width:1.5;" width="630.5" x="120" y="509.9609"/><text fill="#000000" font-family="sans-serif" font-size="13" font-weight="bold" lengthAdjust="spacing" textLength="19" x="135" y="523.0278">alt</text><text fill="#000000" font-family="sans-serif" font-size="11" font-weight="bold" lengthAdjust="spacing" textLength="155" x="199" y="522.1714">[validation errors occur]</text><polygon fill="#181818" points="411.5,544.2266,401.5,548.2266,411.5,552.2266,407.5,548.2266" style="stroke:#181818;stroke-width:1.0;"/><line style="stroke:#181818;stroke-width:1.0;" x1="405.5" x2="657.5" y1="548.2266" y2="548.2266"/><text fill="#000000" font-family="sans-serif" font-size="13" lengthAdjust="spacing" textLength="195" x="417.5" y="543.1606">response with validation errors</text><path d="M130,561.2266 L130,601.2266 L702,601.2266 L702,571.2266 L692,561.2266 L130,561.2266 " fill="#FEFFDD" style="stroke:#181818;stroke-width:0.5;"/><path d="M692,561.2266 L692,571.2266 L702,571.2266 L692,561.2266 " fill="#FEFFDD" style="stroke:#181818;stroke-width:0.5;"/><text fill="#000000" font-family="sans-serif" font-size="13" lengthAdjust="spacing" textLength="551" x="136" y="578.2935">Validation error are probably only redeemable by changing the pre-processing pipeline</text><text fill="#000000" font-family="sans-serif" font-size="13" lengthAdjust="spacing" textLength="380" x="136" y="593.4263">In the following we assume that no validation error occurred</text><path d="M566.5,620.4922 L630.5,620.4922 L630.5,627.625 L620.5,637.625 L566.5,637.625 L566.5,620.4922 " fill="#EEEEEE" style="stroke:#000000;stroke-width:1.5;"/><rect fill="none" height="135.6641" style="stroke:#000000;stroke-width:1.5;" width="584" x="566.5" y="620.4922"/><text fill="#000000" font-family="sans-serif" font-size="13" font-weight="bold" lengthAdjust="spacing" textLength="19" x="581.5" y="633.5591">alt</text><text fill="#000000" font-family="sans-serif" font-size="11" font-weight="bold" lengthAdjust="spacing" textLength="343" x="645.5" y="632.7026">[processed sequence data contain processing errors]</text><polygon fill="#181818" points="1092.5,654.7578,1102.5,658.7578,1092.5,662.7578,1096.5,658.7578" style="stroke:#181818;stroke-width:1.0;"/><line style="stroke:#181818;stroke-width:1.0;" x1="658.5" x2="1098.5" y1="658.7578" y2="658.7578"/><text fill="#000000" font-family="sans-serif" font-size="13" lengthAdjust="spacing" textLength="275" x="665.5" y="653.6919">Store processed sequence data with errors</text><polygon fill="#181818" points="1092.5,683.8906,1102.5,687.8906,1092.5,691.8906,1096.5,687.8906" style="stroke:#181818;stroke-width:1.0;"/><line style="stroke:#181818;stroke-width:1.0;" x1="658.5" x2="1098.5" y1="687.8906" y2="687.8906"/><text fill="#000000" font-family="sans-serif" font-size="13" lengthAdjust="spacing" textLength="199" x="665.5" y="682.8247">set status to 'HAS_ERRORS'</text><line style="stroke:#000000;stroke-width:1.0;stroke-dasharray:2.0,2.0;" x1="566.5" x2="1150.5" y1="696.8906" y2="696.8906"/><polygon fill="#181818" points="1092.5,715.0234,1102.5,719.0234,1092.5,723.0234,1096.5,719.0234" style="stroke:#181818;stroke-width:1.0;"/><line style="stroke:#181818;stroke-width:1.0;" x1="658.5" x2="1098.5" y1="719.0234" y2="719.0234"/><text fill="#000000" font-family="sans-serif" font-size="13" lengthAdjust="spacing" textLength="296" x="665.5" y="713.9575">Store processed sequence data without errors</text><polygon fill="#181818" points="1092.5,744.1563,1102.5,748.1563,1092.5,752.1563,1096.5,748.1563" style="stroke:#181818;stroke-width:1.0;"/><line style="stroke:#181818;stroke-width:1.0;" x1="658.5" x2="1098.5" y1="748.1563" y2="748.1563"/><text fill="#000000" font-family="sans-serif" font-size="13" lengthAdjust="spacing" textLength="170" x="665.5" y="743.0903">set status to 'AWAITING_APPROVAL'</text><polygon fill="#181818" points="646.5,780.2891,656.5,784.2891,646.5,788.2891,650.5,784.2891" style="stroke:#181818;stroke-width:1.0;"/><line style="stroke:#181818;stroke-width:1.0;" x1="125.5" x2="652.5" y1="784.2891" y2="784.2891"/><text fill="#000000" font-family="sans-serif" font-size="13" lengthAdjust="spacing" textLength="276" x="132.5" y="779.2231">query processed sequence data with errors</text><line style="stroke:#181818;stroke-width:1.0;" x1="125.5" x2="167.5" y1="813.4219" y2="813.4219"/><line style="stroke:#181818;stroke-width:1.0;" x1="167.5" x2="167.5" y1="813.4219" y2="826.4219"/><line style="stroke:#181818;stroke-width:1.0;" x1="126.5" x2="167.5" y1="826.4219" y2="826.4219"/><polygon fill="#181818" points="136.5,822.4219,126.5,826.4219,136.5,830.4219,132.5,826.4219" style="stroke:#181818;stroke-width:1.0;"/><text fill="#000000" font-family="sans-serif" font-size="13" lengthAdjust="spacing" textLength="261" x="132.5" y="808.356">address errors and adapt sequence data</text><polygon fill="#181818" points="646.5,851.5547,656.5,855.5547,646.5,859.5547,650.5,855.5547" style="stroke:#181818;stroke-width:1.0;"/><line style="stroke:#181818;stroke-width:1.0;" x1="125.5" x2="652.5" y1="855.5547" y2="855.5547"/><text fill="#000000" font-family="sans-serif" font-size="13" lengthAdjust="spacing" textLength="200" x="132.5" y="850.4888">submit adapted sequence data</text><polygon fill="#181818" points="1092.5,880.6875,1102.5,884.6875,1092.5,888.6875,1096.5,884.6875" style="stroke:#181818;stroke-width:1.0;"/><line style="stroke:#181818;stroke-width:1.0;" x1="658.5" x2="1098.5" y1="884.6875" y2="884.6875"/><text fill="#000000" font-family="sans-serif" font-size="13" lengthAdjust="spacing" textLength="189" x="665.5" y="879.6216">store adapted sequence data</text><polygon fill="#181818" points="1092.5,909.8203,1102.5,913.8203,1092.5,917.8203,1096.5,913.8203" style="stroke:#181818;stroke-width:1.0;"/><line style="stroke:#181818;stroke-width:1.0;" x1="658.5" x2="1098.5" y1="913.8203" y2="913.8203"/><text fill="#000000" font-family="sans-serif" font-size="13" lengthAdjust="spacing" textLength="154" x="665.5" y="908.7544">set status to 'RECEIVED'</text><polygon fill="#181818" points="646.5,945.9531,656.5,949.9531,646.5,953.9531,650.5,949.9531" style="stroke:#181818;stroke-width:1.0;"/><line style="stroke:#181818;stroke-width:1.0;" x1="125.5" x2="652.5" y1="949.9531" y2="949.9531"/><text fill="#000000" font-family="sans-serif" font-size="13" lengthAdjust="spacing" textLength="207" x="132.5" y="944.8872">Query processed sequence data</text><polygon fill="#181818" points="1092.5,975.0859,1102.5,979.0859,1092.5,983.0859,1096.5,979.0859" style="stroke:#181818;stroke-width:1.0;"/><line style="stroke:#181818;stroke-width:1.0;" x1="658.5" x2="1098.5" y1="979.0859" y2="979.0859"/><text fill="#000000" font-family="sans-serif" font-size="13" lengthAdjust="spacing" textLength="207" x="665.5" y="974.02">Query processed sequence data</text><polygon fill="#181818" points="669.5,1004.2188,659.5,1008.2188,669.5,1012.2188,665.5,1008.2188" style="stroke:#181818;stroke-width:1.0;"/><line style="stroke:#181818;stroke-width:1.0;" x1="663.5" x2="1103.5" y1="1008.2188" y2="1008.2188"/><text fill="#000000" font-family="sans-serif" font-size="13" lengthAdjust="spacing" textLength="165" x="675.5" y="1003.1528">processed sequence data</text><polygon fill="#181818" points="136.5,1033.3516,126.5,1037.3516,136.5,1041.3516,132.5,1037.3516" style="stroke:#181818;stroke-width:1.0;"/><line style="stroke:#181818;stroke-width:1.0;" x1="130.5" x2="657.5" y1="1037.3516" y2="1037.3516"/><text fill="#000000" font-family="sans-serif" font-size="13" lengthAdjust="spacing" textLength="165" x="142.5" y="1032.2856">processed sequence data</text><polygon fill="#181818" points="646.5,1062.4844,656.5,1066.4844,646.5,1070.4844,650.5,1066.4844" style="stroke:#181818;stroke-width:1.0;"/><line style="stroke:#181818;stroke-width:1.0;" x1="125.5" x2="652.5" y1="1066.4844" y2="1066.4844"/><text fill="#000000" font-family="sans-serif" font-size="13" lengthAdjust="spacing" textLength="221" x="132.5" y="1061.4185">approve processed sequence data</text><polygon fill="#181818" points="1092.5,1091.6172,1102.5,1095.6172,1092.5,1099.6172,1096.5,1095.6172" style="stroke:#181818;stroke-width:1.0;"/><line style="stroke:#181818;stroke-width:1.0;" x1="658.5" x2="1098.5" y1="1095.6172" y2="1095.6172"/><text fill="#000000" font-family="sans-serif" font-size="13" lengthAdjust="spacing" textLength="380" x="665.5" y="1090.5513">set status from 'AWAITING_APPROVAL' to 'APPROVED_FOR_RELEASE'</text><!--SRC=[fLLDR-8m4BtpAqRjWTq3uivXfGAXGke21IrxH2OPm6gmKzk1vT_lsEJ3f2I0caEKs7vlPjvy600WOShma2TC67YQCREJIOp_KWqZ9OL14K4N_cXKJy0qRFArvpU-tPd1YOaML4b-p1HsViwK355hBhOmumd6NA2ZIChrCychGhp2uhlIP-47MNNuzVaRdgUAYIqwOCGCMpEDy3JCljpHOR_bjWklExzoU0zqkjvp0rnmmraC6ZzJ524wBeTYiO55lie8_HiDiximuZ5gO0hXm68UkTFsoLqZCxd97YZKYHJasv6RNM5c7Ebhi66_1miZYRdUhoiGZGQqOOQaCXBQys0GZ9V1iEtEOqp6RmN2nSEXe59IdIs8o0ajf45GDgSWDmKkunmBC3k4ZOnZURJPFv8pMgVxCbR5ZfVnNcfi_R4cpacDfKmW5OR7jEXNbVDBjufGl2q__-yfgbDkkglmmF68qNrwVmUxA7D52kszR7NfSpaE_gucGJ2aVvVByMGrcqy7mM8ndhos2z9X7pf-D8_wGjXIbvlmMrfclPJjrbgt7UMooGoN8aiKo31CLN6cefZlv6NvVI6we6YkHVzPLdXSpP7PDLl79v22NWeZn3tz8wnF4EvexbW5R3adDEeyKP9iqbsnqr3_PiUCBU9gI6Tfo7gLhkW4Vy4sHEj2wvfyG4XYC2wkD4rD5ignL4TPJeH6aY-3og_tCXgQMDzpHQRcSM-oFhlmn2-PgzV8fni5ZyZYqvIpbKKHrRVEcyAEQPhHYQdhnAOxpG7ldKVQYVaOfF6wAKgn_kvzRnAjLJjmcm1s87eMxkGkzQy3r0V14i8Sy94mT7NsboNdb7oPqG8fkHfDvwjvy1QyB89swpy0]--></g></svg>
