<?xml version="1.0" encoding="us-ascii" standalone="no"?><svg xmlns="http://www.w3.org/2000/svg" xmlns:xlink="http://www.w3.org/1999/xlink" contentStyleType="text/css" height="538px" preserveAspectRatio="none" style="width:747px;height:538px;background:#FFFFFF;" version="1.1" viewBox="0 0 747 538" width="747px" zoomAndPan="magnify"><defs/><g><rect fill="none" height="149.6016" style="stroke:#000000;stroke-width:1.5;" width="730.5" x="10" y="113.4297"/><rect fill="none" height="165.9297" style="stroke:#000000;stroke-width:1.5;" width="730.5" x="10" y="277.0313"/><line style="stroke:#181818;stroke-width:0.5;stroke-dasharray:5.0,5.0;" x1="125" x2="125" y1="67.2969" y2="459.9609"/><line style="stroke:#181818;stroke-width:0.5;stroke-dasharray:5.0,5.0;" x1="462.5" x2="462.5" y1="67.2969" y2="459.9609"/><line style="stroke:#181818;stroke-width:0.5;stroke-dasharray:5.0,5.0;" x1="694.5" x2="694.5" y1="67.2969" y2="459.9609"/><rect fill="#E0FFFF" height="30.2969" rx="2.5" ry="2.5" style="stroke:#181818;stroke-width:0.5;" width="211" x="20" y="36"/><text fill="#000000" font-family="sans-serif" font-size="14" lengthAdjust="spacing" textLength="197" x="27" y="55.9951">Pathoplexus Frontend / User</text><rect fill="#E0FFFF" height="30.2969" rx="2.5" ry="2.5" style="stroke:#181818;stroke-width:0.5;" width="211" x="20" y="458.9609"/><text fill="#000000" font-family="sans-serif" font-size="14" lengthAdjust="spacing" textLength="197" x="27" y="478.9561">Pathoplexus Frontend / User</text><rect fill="#FFA500" height="30.2969" rx="2.5" ry="2.5" style="stroke:#181818;stroke-width:0.5;" width="164" x="380.5" y="36"/><text fill="#000000" font-family="sans-serif" font-size="14" lengthAdjust="spacing" textLength="150" x="387.5" y="55.9951">Pathoplexus Backend</text><rect fill="#FFA500" height="30.2969" rx="2.5" ry="2.5" style="stroke:#181818;stroke-width:0.5;" width="164" x="380.5" y="458.9609"/><text fill="#000000" font-family="sans-serif" font-size="14" lengthAdjust="spacing" textLength="150" x="387.5" y="478.9561">Pathoplexus Backend</text><text fill="#000000" font-family="sans-serif" font-size="14" lengthAdjust="spacing" textLength="66" x="658.5" y="63.9951">Database</text><path d="M676.5,15 C676.5,5 694.5,5 694.5,5 C694.5,5 712.5,5 712.5,15 L712.5,41 C712.5,51 694.5,51 694.5,51 C694.5,51 676.5,51 676.5,41 L676.5,15 " fill="#E2E2F0" style="stroke:#181818;stroke-width:1.5;"/><path d="M676.5,15 C676.5,25 694.5,25 694.5,25 C694.5,25 712.5,25 712.5,15 " fill="none" style="stroke:#181818;stroke-width:1.5;"/><text fill="#000000" font-family="sans-serif" font-size="14" lengthAdjust="spacing" textLength="66" x="658.5" y="471.9561">Database</text><path d="M676.5,485.2578 C676.5,475.2578 694.5,475.2578 694.5,475.2578 C694.5,475.2578 712.5,475.2578 712.5,485.2578 L712.5,511.2578 C712.5,521.2578 694.5,521.2578 694.5,521.2578 C694.5,521.2578 676.5,521.2578 676.5,511.2578 L676.5,485.2578 " fill="#E2E2F0" style="stroke:#181818;stroke-width:1.5;"/><path d="M676.5,485.2578 C676.5,495.2578 694.5,495.2578 694.5,495.2578 C694.5,495.2578 712.5,495.2578 712.5,485.2578 " fill="none" style="stroke:#181818;stroke-width:1.5;"/><polygon fill="#181818" points="450.5,94.4297,460.5,98.4297,450.5,102.4297,454.5,98.4297" style="stroke:#181818;stroke-width:1.0;"/><line style="stroke:#181818;stroke-width:1.0;" x1="125.5" x2="456.5" y1="98.4297" y2="98.4297"/><text fill="#000000" font-family="sans-serif" font-size="13" lengthAdjust="spacing" textLength="288" x="132.5" y="93.3638">wants to revoke already processed sequence</text><path d="M10,113.4297 L74,113.4297 L74,120.5625 L64,130.5625 L10,130.5625 L10,113.4297 " fill="#EEEEEE" style="stroke:#000000;stroke-width:1.5;"/><rect fill="none" height="149.6016" style="stroke:#000000;stroke-width:1.5;" width="730.5" x="10" y="113.4297"/><text fill="#000000" font-family="sans-serif" font-size="13" font-weight="bold" lengthAdjust="spacing" textLength="19" x="25" y="126.4966">alt</text><text fill="#000000" font-family="sans-serif" font-size="11" font-weight="bold" lengthAdjust="spacing" textLength="359" x="89" y="125.6401">[sequenceID exists and highest version is 'SILO_READY']</text><polygon fill="#181818" points="682.5,177.9609,692.5,181.9609,682.5,185.9609,686.5,181.9609" style="stroke:#181818;stroke-width:1.0;"/><line style="stroke:#181818;stroke-width:1.0;" x1="462.5" x2="688.5" y1="181.9609" y2="181.9609"/><text fill="#000000" font-family="sans-serif" font-size="13" lengthAdjust="spacing" textLength="115" x="469.5" y="146.6294">insert new version</text><text fill="#000000" font-family="sans-serif" font-size="13" lengthAdjust="spacing" textLength="204" x="469.5" y="161.7622">with status 'REVISION_STAGING'</text><text fill="#000000" font-family="sans-serif" font-size="13" lengthAdjust="spacing" textLength="151" x="469.5" y="176.895">and ' is_revoked = true'</text><polygon fill="#181818" points="136.5,207.0938,126.5,211.0938,136.5,215.0938,132.5,211.0938" style="stroke:#181818;stroke-width:1.0;"/><line style="stroke:#181818;stroke-width:1.0;" x1="130.5" x2="461.5" y1="211.0938" y2="211.0938"/><text fill="#000000" font-family="sans-serif" font-size="13" lengthAdjust="spacing" textLength="313" x="142.5" y="206.0278">response with sequenceId + new version number</text><line style="stroke:#000000;stroke-width:1.0;stroke-dasharray:2.0,2.0;" x1="10" x2="740.5" y1="220.0938" y2="220.0938"/><text fill="#000000" font-family="sans-serif" font-size="11" font-weight="bold" lengthAdjust="spacing" textLength="384" x="15" y="230.3042">[sequenceID exists and highest version is not 'SILO_READY']</text><polygon fill="#181818" points="136.5,251.0313,126.5,255.0313,136.5,259.0313,132.5,255.0313" style="stroke:#181818;stroke-width:1.0;"/><line style="stroke:#181818;stroke-width:1.0;" x1="130.5" x2="461.5" y1="255.0313" y2="255.0313"/><text fill="#000000" font-family="sans-serif" font-size="13" lengthAdjust="spacing" textLength="186" x="142.5" y="249.9653">response with error message</text><path d="M10,277.0313 L74,277.0313 L74,284.1641 L64,294.1641 L10,294.1641 L10,277.0313 " fill="#EEEEEE" style="stroke:#000000;stroke-width:1.5;"/><rect fill="none" height="165.9297" style="stroke:#000000;stroke-width:1.5;" width="730.5" x="10" y="277.0313"/><text fill="#000000" font-family="sans-serif" font-size="13" font-weight="bold" lengthAdjust="spacing" textLength="19" x="25" y="290.0981">alt</text><polygon fill="#181818" points="450.5,311.2969,460.5,315.2969,450.5,319.2969,454.5,315.2969" style="stroke:#181818;stroke-width:1.0;"/><line style="stroke:#181818;stroke-width:1.0;" x1="125.5" x2="456.5" y1="315.2969" y2="315.2969"/><text fill="#000000" font-family="sans-serif" font-size="13" lengthAdjust="spacing" textLength="126" x="132.5" y="310.231">confirms revocation</text><polygon fill="#181818" points="682.5,340.4297,692.5,344.4297,682.5,348.4297,686.5,344.4297" style="stroke:#181818;stroke-width:1.0;"/><line style="stroke:#181818;stroke-width:1.0;" x1="462.5" x2="688.5" y1="344.4297" y2="344.4297"/><text fill="#000000" font-family="sans-serif" font-size="13" lengthAdjust="spacing" textLength="169" x="469.5" y="339.3638">set status to 'SILO_READY'</text><line style="stroke:#000000;stroke-width:1.0;stroke-dasharray:2.0,2.0;" x1="10" x2="740.5" y1="353.4297" y2="353.4297"/><polygon fill="#181818" points="450.5,371.5625,460.5,375.5625,450.5,379.5625,454.5,375.5625" style="stroke:#181818;stroke-width:1.0;"/><line style="stroke:#181818;stroke-width:1.0;" x1="125.5" x2="456.5" y1="375.5625" y2="375.5625"/><text fill="#000000" font-family="sans-serif" font-size="13" lengthAdjust="spacing" textLength="119" x="132.5" y="370.4966">cancels revocation</text><polygon fill="#181818" points="682.5,430.9609,692.5,434.9609,682.5,438.9609,686.5,434.9609" style="stroke:#181818;stroke-width:1.0;"/><line style="stroke:#181818;stroke-width:1.0;" x1="462.5" x2="688.5" y1="434.9609" y2="434.9609"/><text fill="#000000" font-family="sans-serif" font-size="13" lengthAdjust="spacing" textLength="130" x="469.5" y="399.6294">delete latest version</text><text fill="#000000" font-family="sans-serif" font-size="13" lengthAdjust="spacing" textLength="177" x="469.5" y="414.7622">of the sequence and Status</text><text fill="#000000" font-family="sans-serif" font-size="13" lengthAdjust="spacing" textLength="132" x="469.5" y="429.895">'REVOKED_STAGING'</text><!--SRC=[ZL5BJy904BxpAxx0eGTZl9De0XP9en43Qc92GePsi1lBRjqT1FwzGskHn0ViQRCxypq1e2Gl9ZKbMK7xWIHtPS6RLS2DTrROPhZ0Ks3V1WKichVEdNdDvNfBjeN_GFgKlkbyjJolx-YCFDbNhXOp4ffJOBJZhrir6lTRrVUUx_ogMUzYhIm1uk3vmxqngF1CsHQbToc7m1a2lw_Ofbo3w83idv8Ol3510KXXStN1GV31FXXdOGAYIN8tceq7lVWbgjVrDD9LHjplmbWDH61vtMnExTf8ZY0awZeQ3vwJIJAwdqqUUyFaVXXXQdTyaJBCQjaPBY5-nJN90K7ZkQl-GkcK2ZLsuo33sI4rx6evPr_1SA7J9rkrJexQ_KiDU-yybfetVLMfGtNU6lSUwTS2KsSNnYz3LM1AedB-IZgmDA5guJ_4xlmUuI9DeZY5AkE2XL6G7COqjMu1oRzJhSASr9AcTjVqw7OGxujkelW4]--></g></svg>