<?xml version="1.0" encoding="us-ascii" standalone="no"?><svg xmlns="http://www.w3.org/2000/svg" xmlns:xlink="http://www.w3.org/1999/xlink" contentStyleType="text/css" height="783px" preserveAspectRatio="none" style="width:544px;height:783px;background:#FFFFFF;" version="1.1" viewBox="0 0 544 783" width="544px" zoomAndPan="magnify"><defs/><g><rect fill="#F1F1F1" height="40" rx="12.5" ry="12.5" style="stroke:#181818;stroke-width:0.5;" width="76" x="284.5" y="103"/><text fill="#000000" font-family="sans-serif" font-size="14" lengthAdjust="spacing" textLength="66" x="289.5" y="128.291">RECEIVED</text><rect fill="#F1F1F1" height="40" rx="12.5" ry="12.5" style="stroke:#181818;stroke-width:0.5;" width="96" x="274.5" y="220"/><text fill="#000000" font-family="sans-serif" font-size="14" lengthAdjust="spacing" textLength="86" x="279.5" y="245.291">PROCESSING</text><rect fill="#F1F1F1" height="40" rx="12.5" ry="12.5" style="stroke:#181818;stroke-width:0.5;" width="121" x="204" y="422"/><text fill="#000000" font-family="sans-serif" font-size="14" lengthAdjust="spacing" textLength="111" x="209" y="447.291">REVIEW_NEEDED</text><rect fill="#F1F1F1" height="40" rx="12.5" ry="12.5" style="stroke:#181818;stroke-width:0.5;" width="78" x="282.5" y="539"/><text fill="#000000" font-family="sans-serif" font-size="14" lengthAdjust="spacing" textLength="68" x="287.5" y="564.291">REVIEWED</text><rect fill="#F1F1F1" height="40" rx="12.5" ry="12.5" style="stroke:#181818;stroke-width:0.5;" width="93" x="7" y="656"/><text fill="#000000" font-family="sans-serif" font-size="14" lengthAdjust="spacing" textLength="83" x="12" y="681.291">SILO_READY</text><rect fill="#F1F1F1" height="40" rx="12.5" ry="12.5" style="stroke:#181818;stroke-width:0.5;" width="157" x="135" y="656"/><text fill="#000000" font-family="sans-serif" font-size="14" lengthAdjust="spacing" textLength="147" x="140" y="681.291">entry_will_be_deleted</text><g id="elem_is_error"><polygon fill="#F1F1F1" points="264.5,321,276.5,333,264.5,345,252.5,333,264.5,321" style="stroke:#181818;stroke-width:0.5;"/></g><g id="elem_is_approved"><polygon fill="#F1F1F1" points="133.5,547,145.5,559,133.5,571,121.5,559,133.5,547" style="stroke:#181818;stroke-width:0.5;"/></g><ellipse cx="322.5" cy="16" fill="#181818" rx="10" ry="10" style="stroke:none;stroke-width:1.0;"/><rect fill="#F1F1F1" height="40" rx="12.5" ry="12.5" style="stroke:#181818;stroke-width:0.5;" width="71" x="98" y="422"/><text fill="#000000" font-family="sans-serif" font-size="14" lengthAdjust="spacing" textLength="61" x="103" y="447.291">STAGING</text><ellipse cx="132.5" cy="767" fill="none" rx="10" ry="10" style="stroke:#181818;stroke-width:1.0;"/><ellipse cx="133" cy="767.5" fill="#181818" rx="6" ry="6" style="stroke:none;stroke-width:1.0;"/><!--link *start* to RECEIVED--><g id="link_*start*_RECEIVED"><path d="M322.5,26.32 C322.5,41.85 322.5,73.56 322.5,96.22 " fill="none" id="*start*-to-RECEIVED" style="stroke:#181818;stroke-width:1.0;"/><polygon fill="#181818" points="322.5,101.12,326.5,92.12,322.5,96.12,318.5,92.12,322.5,101.12" style="stroke:#181818;stroke-width:1.0;"/><text fill="#000000" font-family="sans-serif" font-size="13" lengthAdjust="spacing" textLength="155" x="323.5" y="69.5684">initial submit or revision</text></g><!--link RECEIVED to PROCESSING--><g id="link_RECEIVED_PROCESSING"><path d="M322.5,143.25 C322.5,162.49 322.5,192.18 322.5,213.4 " fill="none" id="RECEIVED-to-PROCESSING" style="stroke:#181818;stroke-width:1.0;"/><polygon fill="#181818" points="322.5,218.18,326.5,209.18,322.5,213.18,318.5,209.18,322.5,218.18" style="stroke:#181818;stroke-width:1.0;"/><text fill="#000000" font-family="sans-serif" font-size="13" lengthAdjust="spacing" textLength="187" x="323.5" y="186.5684">preprocessing pipeline starts;</text></g><!--link PROCESSING to is_error--><g id="link_PROCESSING_is_error"><path d="M310.2,260.3 C298.81,278.17 282.21,304.22 272.46,319.51 " fill="none" id="PROCESSING-to-is_error" style="stroke:#181818;stroke-width:1.0;"/><polygon fill="#181818" points="269.79,323.71,278.0001,318.2699,272.4772,319.4935,271.2536,313.9705,269.79,323.71" style="stroke:#181818;stroke-width:1.0;"/></g><!--link is_error to REVIEW_NEEDED--><g id="link_is_error_REVIEW_NEEDED"><path d="M264.5,345.45 C264.5,362.04 264.5,393.19 264.5,415.41 " fill="none" id="is_error-to-REVIEW_NEEDED" style="stroke:#181818;stroke-width:1.0;"/><polygon fill="#181818" points="264.5,420.19,268.5,411.19,264.5,415.19,260.5,411.19,264.5,420.19" style="stroke:#181818;stroke-width:1.0;"/><text fill="#000000" font-family="sans-serif" font-size="13" lengthAdjust="spacing" textLength="43" x="265.5" y="388.5684">if error</text></g><!--link REVIEW_NEEDED to REVIEWED--><g id="link_REVIEW_NEEDED_REVIEWED"><path d="M258.03,462.45 C254.64,476.14 252.49,494.52 259.5,509 C264.39,519.11 272.5,527.76 281.25,534.85 " fill="none" id="REVIEW_NEEDED-to-REVIEWED" style="stroke:#181818;stroke-width:1.0;"/><polygon fill="#181818" points="284.97,537.71,280.2737,529.0529,281.0063,534.6621,275.3971,535.3948,284.97,537.71" style="stroke:#181818;stroke-width:1.0;"/><text fill="#000000" font-family="sans-serif" font-size="13" lengthAdjust="spacing" textLength="93" x="260.5" y="505.5684">user edits data</text></g><!--link REVIEWED to PROCESSING--><g id="link_REVIEWED_PROCESSING"><path d="M340.63,538.75 C347.68,530.34 354.84,519.92 358.5,509 C360.9,501.84 359.04,499.54 358.5,492 C352.59,409.13 335.83,312.04 327.43,266.73 " fill="none" id="REVIEWED-to-PROCESSING" style="stroke:#181818;stroke-width:1.0;"/><polygon fill="#181818" points="326.53,261.91,324.2437,271.4898,327.4445,266.8257,332.1087,270.0265,326.53,261.91" style="stroke:#181818;stroke-width:1.0;"/><text fill="#000000" font-family="sans-serif" font-size="13" lengthAdjust="spacing" textLength="187" x="349.5" y="388.5684">preprocessing pipeline starts;</text></g><!--link is_error to STAGING--><g id="link_is_error_STAGING"><path d="M256.72,337.3 C242.78,343.45 212.96,357.62 191.5,375 C176.51,387.14 162.17,403.39 151.51,416.73 " fill="none" id="is_error-to-STAGING" style="stroke:#181818;stroke-width:1.0;"/><polygon fill="#181818" points="148.68,420.31,157.3952,415.7226,151.7773,416.3849,151.115,410.7669,148.68,420.31" style="stroke:#181818;stroke-width:1.0;"/><text fill="#000000" font-family="sans-serif" font-size="13" lengthAdjust="spacing" textLength="63" x="192.5" y="388.5684">if no error</text></g><!--link STAGING to is_approved--><g id="link_STAGING_is_approved"><path d="M133.5,462.25 C133.5,483.94 133.5,518.93 133.5,540.07 " fill="none" id="STAGING-to-is_approved" style="stroke:#181818;stroke-width:1.0;"/><polygon fill="#181818" points="133.5,544.9,137.5,535.9,133.5,539.9,129.5,535.9,133.5,544.9" style="stroke:#181818;stroke-width:1.0;"/></g><!--link is_approved to SILO_READY--><g id="link_is_approved_SILO_READY"><path d="M125.87,564.03 C112.91,571.28 86.65,587.74 72.5,609 C64.44,621.11 59.75,636.68 57.04,649.65 " fill="none" id="is_approved-to-SILO_READY" style="stroke:#181818;stroke-width:1.0;"/><polygon fill="#181818" points="56.15,654.29,61.7742,646.2049,57.0921,649.3796,53.9175,644.6975,56.15,654.29" style="stroke:#181818;stroke-width:1.0;"/><text fill="#000000" font-family="sans-serif" font-size="13" lengthAdjust="spacing" textLength="88" x="73.5" y="622.5684">user approves</text></g><!--link is_approved to entry_will_be_deleted--><g id="link_is_approved_entry_will_be_deleted"><path d="M138.26,566.85 C149.49,582.99 178.05,624.04 196.57,650.67 " fill="none" id="is_approved-to-entry_will_be_deleted" style="stroke:#181818;stroke-width:1.0;"/><polygon fill="#181818" points="199.27,654.55,197.4289,644.8748,196.421,650.4411,190.8546,649.4332,199.27,654.55" style="stroke:#181818;stroke-width:1.0;"/><text fill="#000000" font-family="sans-serif" font-size="13" lengthAdjust="spacing" textLength="73" x="179.5" y="622.5684">user rejects</text></g><!--link SILO_READY to *end*--><g id="link_SILO_READY_*end*"><path d="M70.64,696.31 C86.3,713.95 108.94,739.46 122.05,754.22 " fill="none" id="SILO_READY-to-*end*" style="stroke:#181818;stroke-width:1.0;"/><polygon fill="#181818" points="125.1,757.66,122.1282,748.2702,121.7853,753.9167,116.1388,753.5738,125.1,757.66" style="stroke:#181818;stroke-width:1.0;"/></g><!--link entry_will_be_deleted to *end*--><g id="link_entry_will_be_deleted_*end*"><path d="M195.92,696.31 C179.7,714.13 156.17,739.99 142.8,754.68 " fill="none" id="entry_will_be_deleted-to-*end*" style="stroke:#181818;stroke-width:1.0;"/><polygon fill="#181818" points="139.7,758.09,148.7184,754.1316,143.0676,754.3942,142.8051,748.7434,139.7,758.09" style="stroke:#181818;stroke-width:1.0;"/></g><!--SRC=[dP7VQy8m4CVV_IlkUU0_i4b1R932qD4EnnYZrEOsRzGq9AV3_tw9DMc4Fktr-oFvt1t0WIG27ZLVGA9j3MccNirc09ORHYZ5IXGxaKVXfTokH5KLctMIsHNYhTu8aIV1GKs4gdZUrgLOvkzHGiNcKlzIrzLxh2Lso2Z7pydMQ4nlOB5e3psrc6MfrsXj-ZFAr7R-nyCdpETPH8T784LCJGVsj3yIWtlHu9cidnJ6d2-DuxcQDkX-QD5QKj-WIMD72Zs0OVlagadQbmElSoBwG98ioEDyGSZTMsFucZjPD82Is89ik8dnVx7U4LMlo_NGSoogZpX1lqqJDZpKuxwlByHh1j2RRIV2atSEFOC_sBAl9M_wbZka4wUxD_yF]--></g></svg>