<?xml version="1.0" encoding="us-ascii" standalone="no"?><svg xmlns="http://www.w3.org/2000/svg" xmlns:xlink="http://www.w3.org/1999/xlink" contentStyleType="text/css" height="827px" preserveAspectRatio="none" style="width:631px;height:827px;background:#FFFFFF;" version="1.1" viewBox="0 0 631 827" width="631px" zoomAndPan="magnify"><defs/><g><g id="INITIAL_DATA"><rect fill="#F0F8FF" height="50.6211" rx="12.5" ry="12.5" style="stroke:#0000FF;stroke-width:1.0;stroke-dasharray:1.0,3.0;" width="151" x="27.5" y="21.13"/><line style="stroke:#0000FF;stroke-width:1.0;stroke-dasharray:1.0,3.0;" x1="27.5" x2="178.5" y1="47.6183" y2="47.6183"/><text fill="#0000FF" font-family="sans-serif" font-size="14" lengthAdjust="spacing" textLength="72" x="67" y="39.6652">initial data</text><text fill="#000000" font-family="sans-serif" font-size="12" lengthAdjust="spacing" textLength="131" x="32.5" y="64.2198">new unprocessed data</text></g><g id="REVISION_DATA"><rect fill="#F0F8FF" height="78.8867" rx="12.5" ry="12.5" style="stroke:#0000FF;stroke-width:1.0;stroke-dasharray:1.0,3.0;" width="170" x="381" y="7"/><line style="stroke:#0000FF;stroke-width:1.0;stroke-dasharray:1.0,3.0;" x1="381" x2="551" y1="33.4883" y2="33.4883"/><text fill="#0000FF" font-family="sans-serif" font-size="14" lengthAdjust="spacing" textLength="88" x="422" y="25.5352">revision data</text><text fill="#000000" font-family="sans-serif" font-size="12" lengthAdjust="spacing" textLength="150" x="386" y="50.0898">already existing sequence</text><text fill="#000000" font-family="sans-serif" font-size="12" lengthAdjust="spacing" textLength="134" x="386" y="64.2227">with status SILO_READY</text><text fill="#000000" font-family="sans-serif" font-size="12" lengthAdjust="spacing" textLength="145" x="386" y="78.3555">+ new unprocessed data</text></g><rect fill="#F1F1F1" height="40" rx="12.5" ry="12.5" style="stroke:#181818;stroke-width:0.5;" width="76" x="234" y="172.62"/><text fill="#000000" font-family="sans-serif" font-size="14" lengthAdjust="spacing" textLength="66" x="239" y="197.911">RECEIVED</text><rect fill="#F1F1F1" height="40" rx="12.5" ry="12.5" style="stroke:#181818;stroke-width:0.5;" width="96" x="224" y="299.35"/><text fill="#000000" font-family="sans-serif" font-size="14" lengthAdjust="spacing" textLength="86" x="229" y="324.641">PROCESSING</text><rect fill="#F1F1F1" height="40" rx="12.5" ry="12.5" style="stroke:#181818;stroke-width:0.5;" width="74" x="31" y="400.35"/><text fill="#000000" font-family="sans-serif" font-size="14" lengthAdjust="spacing" textLength="64" x="36" y="425.641">ERRORED</text><rect fill="#F1F1F1" height="40" rx="12.5" ry="12.5" style="stroke:#181818;stroke-width:0.5;" width="71" x="480.5" y="400.35"/><text fill="#000000" font-family="sans-serif" font-size="14" lengthAdjust="spacing" textLength="61" x="485.5" y="425.641">STAGING</text><rect fill="#F1F1F1" height="40" rx="12.5" ry="12.5" style="stroke:#181818;stroke-width:0.5;" width="93" x="437.5" y="664.35"/><text fill="#000000" font-family="sans-serif" font-size="14" lengthAdjust="spacing" textLength="83" x="442.5" y="689.641">SILO_READY</text><rect fill="#F1F1F1" height="40" rx="12.5" ry="12.5" style="stroke:#181818;stroke-width:0.5;" width="74" x="447" y="781.35"/><text fill="#000000" font-family="sans-serif" font-size="14" lengthAdjust="spacing" textLength="64" x="452" y="806.641">REVOKED</text><rect fill="#90EE90" height="42.9766" rx="12.5" ry="12.5" style="stroke:#008000;stroke-width:1.0;stroke-dasharray:1.0,3.0;" width="192" x="7" y="171.13"/><text fill="#000000" font-family="sans-serif" font-size="14" lengthAdjust="spacing" textLength="182" x="12" y="189.6652">entry with new sequenceId</text><text fill="#000000" font-family="sans-serif" font-size="14" lengthAdjust="spacing" textLength="99" x="55.5" y="206.1534">will be created</text><rect fill="#90EE90" height="59.4648" rx="12.5" ry="12.5" style="stroke:#008000;stroke-width:1.0;stroke-dasharray:1.0,3.0;" width="242" x="345" y="162.88"/><text fill="#000000" font-family="sans-serif" font-size="14" lengthAdjust="spacing" textLength="209" x="361.5" y="181.4152">entry with existing sequenceId</text><text fill="#000000" font-family="sans-serif" font-size="14" lengthAdjust="spacing" textLength="228" x="354" y="197.9034">and incremented version number</text><text fill="#000000" font-family="sans-serif" font-size="14" lengthAdjust="spacing" textLength="99" x="418.5" y="214.3917">will be created</text><rect fill="#CD5C5C" height="40" rx="12.5" ry="12.5" style="stroke:#FF0000;stroke-width:1.0;stroke-dasharray:1.0,3.0;" width="148" x="183" y="517.35"/><text fill="#000000" font-family="sans-serif" font-size="14" lengthAdjust="spacing" textLength="138" x="188" y="542.641">entry will be deleted</text><g id="elem_is_error_or_not"><polygon fill="#F1F1F1" points="272,408.35,284,420.35,272,432.35,260,420.35,272,408.35" style="stroke:#181818;stroke-width:0.5;"/></g><g id="elem_is_approved_or_not"><polygon fill="#F1F1F1" points="484,525.35,496,537.35,484,549.35,472,537.35,484,525.35" style="stroke:#181818;stroke-width:0.5;"/></g><!--link INITIAL_DATA to CREATING_SUBMIT--><g id="link_INITIAL_DATA_CREATING_SUBMIT"><path d="M103,72.23 C103,100.08 103,138.81 103,164.89 " fill="none" id="INITIAL_DATA-to-CREATING_SUBMIT" style="stroke:#181818;stroke-width:1.0;"/><polygon fill="#181818" points="103,170.89,107,161.89,103,165.89,99,161.89,103,170.89" style="stroke:#181818;stroke-width:1.0;"/><text fill="#000000" font-family="sans-serif" font-size="13" lengthAdjust="spacing" textLength="113" x="104" y="129.4484">initial submission</text></g><!--link CREATING_SUBMIT to RECEIVED--><g id="link_CREATING_SUBMIT_RECEIVED"><path d="M199.38,192.62 C210.82,192.62 216.26,192.62 227.71,192.62 " fill="none" id="CREATING_SUBMIT-to-RECEIVED" style="stroke:#181818;stroke-width:1.0;"/><polygon fill="#181818" points="233.71,192.62,224.71,188.62,228.71,192.62,224.71,196.62,233.71,192.62" style="stroke:#181818;stroke-width:1.0;"/></g><!--link REVISION_DATA to CREATING_REVISE--><g id="link_REVISION_DATA_CREATING_REVISE"><path d="M466,86.08 C466,110.1 466,134.49 466,156.48 " fill="none" id="REVISION_DATA-to-CREATING_REVISE" style="stroke:#181818;stroke-width:1.0;"/><polygon fill="#181818" points="466,162.48,470,153.48,466,157.48,462,153.48,466,162.48" style="stroke:#181818;stroke-width:1.0;"/><text fill="#000000" font-family="sans-serif" font-size="13" lengthAdjust="spacing" textLength="136" x="467" y="129.4484">user initiates revision</text></g><!--reverse link RECEIVED to CREATING_REVISE--><g id="link_RECEIVED_CREATING_REVISE"><path d="M316.27,192.62 C327.73,192.62 333.18,192.62 344.64,192.62 " fill="none" id="RECEIVED-backto-CREATING_REVISE" style="stroke:#181818;stroke-width:1.0;"/><polygon fill="#181818" points="310.27,192.62,319.27,196.62,315.27,192.62,319.27,188.62,310.27,192.62" style="stroke:#181818;stroke-width:1.0;"/></g><!--link RECEIVED to PROCESSING--><g id="link_RECEIVED_PROCESSING"><path d="M272,213.11 C272,236.54 272,269.63 272,293 " fill="none" id="RECEIVED-to-PROCESSING" style="stroke:#181818;stroke-width:1.0;"/><polygon fill="#181818" points="272,299,276,290,272,294,268,290,272,299" style="stroke:#181818;stroke-width:1.0;"/><text fill="#000000" font-family="sans-serif" font-size="13" lengthAdjust="spacing" textLength="129" x="273" y="265.9184">preprocessing starts</text></g><!--link PROCESSING to is_error_or_not--><g id="link_PROCESSING_is_error_or_not"><path d="M272,339.44 C272,359.67 272,384.96 272,401.75 " fill="none" id="PROCESSING-to-is_error_or_not" style="stroke:#181818;stroke-width:1.0;"/><polygon fill="#181818" points="272,407.75,276,398.75,272,402.75,268,398.75,272,407.75" style="stroke:#181818;stroke-width:1.0;"/></g><!--reverse link ERRORED to is_error_or_not--><g id="link_ERRORED_is_error_or_not"><path d="M111.42,420.35 C158.12,420.35 229.5,420.35 259.54,420.35 " fill="none" id="ERRORED-backto-is_error_or_not" style="stroke:#181818;stroke-width:1.0;"/><polygon fill="#181818" points="105.42,420.35,114.42,424.35,110.42,420.35,114.42,416.35,105.42,420.35" style="stroke:#181818;stroke-width:1.0;"/><text fill="#000000" font-family="sans-serif" font-size="13" lengthAdjust="spacing" textLength="119" x="123" y="413.9184">data contains error</text></g><!--link is_error_or_not to STAGING--><g id="link_is_error_or_not_STAGING"><path d="M284.44,420.35 C320.27,420.35 418.73,420.35 474.29,420.35 " fill="none" id="is_error_or_not-to-STAGING" style="stroke:#181818;stroke-width:1.0;"/><polygon fill="#181818" points="480.29,420.35,471.29,416.35,475.29,420.35,471.29,424.35,480.29,420.35" style="stroke:#181818;stroke-width:1.0;"/><text fill="#000000" font-family="sans-serif" font-size="13" lengthAdjust="spacing" textLength="160" x="302.25" y="413.9184">preprocessing successful</text></g><!--link ERRORED to DELETION--><g id="link_ERRORED_DELETION"><path d="M99.63,440.6 C134.52,461.83 185.204,492.6716 220.134,513.9216 " fill="none" id="ERRORED-to-DELETION" style="stroke:#181818;stroke-width:1.0;"/><polygon fill="#181818" points="225.26,517.04,219.65,508.9451,220.9884,514.4413,215.4921,515.7797,225.26,517.04" style="stroke:#181818;stroke-width:1.0;"/><text fill="#000000" font-family="sans-serif" font-size="13" lengthAdjust="spacing" textLength="154" x="175" y="483.9184">deleting data with errors</text></g><!--link STAGING to is_approved_or_not--><g id="link_STAGING_is_approved_or_not"><path d="M510.64,440.6 C503.63,465.79 493.2359,503.1289 488.0859,521.6689 " fill="none" id="STAGING-to-is_approved_or_not" style="stroke:#181818;stroke-width:1.0;"/><polygon fill="#181818" points="486.48,527.45,492.7429,519.8489,487.8182,522.6324,485.0347,517.7078,486.48,527.45" style="stroke:#181818;stroke-width:1.0;"/></g><!--link is_approved_or_not to SILO_READY--><g id="link_is_approved_or_not_SILO_READY"><path d="M484,549.73 C484,574.43 484,627.21 484,657.92 " fill="none" id="is_approved_or_not-to-SILO_READY" style="stroke:#181818;stroke-width:1.0;"/><polygon fill="#181818" points="484,663.92,488,654.92,484,658.92,480,654.92,484,663.92" style="stroke:#181818;stroke-width:1.0;"/><text fill="#000000" font-family="sans-serif" font-size="13" lengthAdjust="spacing" textLength="88" x="508" y="600.9184">user approves</text><text fill="#000000" font-family="sans-serif" font-size="13" lengthAdjust="spacing" textLength="138" x="485" y="616.2289">or automatic approval</text><text fill="#000000" font-family="sans-serif" font-size="13" lengthAdjust="spacing" textLength="126" x="493" y="631.5395">via 'release_directly'</text></g><!--reverse link DELETION to is_approved_or_not--><g id="link_DELETION_is_approved_or_not"><path d="M337.33,537.35 C388.27,537.35 445.22,537.35 471.53,537.35 " fill="none" id="DELETION-backto-is_approved_or_not" style="stroke:#181818;stroke-width:1.0;"/><polygon fill="#181818" points="331.33,537.35,340.33,541.35,336.33,537.35,340.33,533.35,331.33,537.35" style="stroke:#181818;stroke-width:1.0;"/><text fill="#000000" font-family="sans-serif" font-size="13" lengthAdjust="spacing" textLength="73" x="365" y="530.9184">user rejects</text></g><!--link SILO_READY to REVOKED--><g id="link_SILO_READY_REVOKED"><path d="M484,704.6 C484,725.83 484,753.79 484,775.04 " fill="none" id="SILO_READY-to-REVOKED" style="stroke:#181818;stroke-width:1.0;"/><polygon fill="#181818" points="484,781.04,488,772.04,484,776.04,480,772.04,484,781.04" style="stroke:#181818;stroke-width:1.0;"/><text fill="#000000" font-family="sans-serif" font-size="13" lengthAdjust="spacing" textLength="80" x="485" y="747.9184">user revokes</text></g><!--SRC=[fLHDRzim3BttLn3T8OV1_G5k4I1hZC9ObWoELs100KEnk4IR8dkId3OO-jz7otByaUHK8mTPUNnyv2CD0B0J707tfJq2HvDhKLfHg9iR-Wic85HPMU3CCdTXBBC8yJ9EuzaYcy_I6J03jq89AvXqk5lunAJ8SIChl9T2ONWwtV72MkJt5j-ikuL_ZhL- -fmXA7o5IfMwoD4Ov9s0-ddlIKcYvtWThvQT5eq7OQY2ZuWPi8R0f4R6Zu1lmbYXjc3mRuKgnsi1hyBkdC3Am3fUhB8acir_NaD_lbxkU-k39tD5cq7zZr7y7CrxLz-JrMEqNiVBfzvbb2IhP01RfxEd8MQazDJWrLSAz3fONaz7Ny4ZHQH4bAr_VFaMfyu3L5OVcoxKfRNjYlcBebifOOEGKq-f_-IG5DkTtMf4rLZK7Rr7bxAv7aRZR6SEkPHCSHfaIhWdABNtWDfDYAhs6zGVrZIF5b5ATWx4D8GS9JQ4iUA2gOG6pl5fVpXd4oP3hGkTqKyL5XuUybr18poT3a6if7av8B-0yrvPpPGHdL-3jGruC3tpBeHsaqsrsGjJTyc5Ze61fkZ1x0qNSSZklGgXCgXz2XfZQ5TrcCAZ0zbFuNCqRn3GNzsO4t6fqM-FCzyoRPkQUoYdQTHTXnbtt6Ns2qFSzJ92NYZBX3BWa9V3wfxuhJgNLENryLSbNMpBxZITvYTivgN6kwJDIDSvcc9QyhQIqGYqgiQJuU3TShS-U9Y15rNGMsMBFRCYz_TCqbuS18E99atCOCQ5njpAu-Hg7ZaincNH-9kYJ6DWJqJWt7NVbWvwAFxGr-q_]--></g></svg>