<?xml version="1.0" encoding="us-ascii" standalone="no"?><svg xmlns="http://www.w3.org/2000/svg" xmlns:xlink="http://www.w3.org/1999/xlink" contentStyleType="text/css" height="823px" preserveAspectRatio="none" style="width:966px;height:823px;background:#FFFFFF;" version="1.1" viewBox="0 0 966 823" width="966px" zoomAndPan="magnify"><defs/><g><g id="INITIAL_DATA"><rect fill="#F0F8FF" height="50.2656" rx="12.5" ry="12.5" style="stroke:#0000FF;stroke-width:1.0;stroke-dasharray:1.0,3.0;" width="189" x="298" y="14"/><line style="stroke:#0000FF;stroke-width:1.0;stroke-dasharray:1.0,3.0;" x1="298" x2="487" y1="40.2969" y2="40.2969"/><text fill="#0000FF" font-family="sans-serif" font-size="14" lengthAdjust="spacing" textLength="68" x="358.5" y="31.9951">initial data</text><text fill="#000000" font-family="sans-serif" font-size="12" lengthAdjust="spacing" textLength="169" x="303" y="56.4355">new un-preprocessed data</text></g><g id="REVISION_DATA"><rect fill="#F0F8FF" height="64.2344" rx="12.5" ry="12.5" style="stroke:#0000FF;stroke-width:1.0;stroke-dasharray:1.0,3.0;" width="184" x="8.5" y="7"/><line style="stroke:#0000FF;stroke-width:1.0;stroke-dasharray:1.0,3.0;" x1="8.5" x2="192.5" y1="33.2969" y2="33.2969"/><text fill="#0000FF" font-family="sans-serif" font-size="14" lengthAdjust="spacing" textLength="87" x="57" y="24.9951">revision data</text><text fill="#000000" font-family="sans-serif" font-size="12" lengthAdjust="spacing" textLength="164" x="13.5" y="49.4355">already existing sequence</text><text fill="#000000" font-family="sans-serif" font-size="12" lengthAdjust="spacing" textLength="145" x="13.5" y="63.4043">with status SILO_READY</text></g><g id="REVOKED_DATA"><rect fill="#F0F8FF" height="64.2344" rx="12.5" ry="12.5" style="stroke:#0000FF;stroke-width:1.0;stroke-dasharray:1.0,3.0;" width="184" x="35.5" y="629"/><line style="stroke:#0000FF;stroke-width:1.0;stroke-dasharray:1.0,3.0;" x1="35.5" x2="219.5" y1="655.2969" y2="655.2969"/><text fill="#0000FF" font-family="sans-serif" font-size="14" lengthAdjust="spacing" textLength="106" x="74.5" y="646.9951">revocation data</text><text fill="#000000" font-family="sans-serif" font-size="12" lengthAdjust="spacing" textLength="164" x="40.5" y="671.4355">already existing sequence</text><text fill="#000000" font-family="sans-serif" font-size="12" lengthAdjust="spacing" textLength="145" x="40.5" y="685.4043">with status SILO_READY</text></g><g id="STAGING_REVISION"><rect fill="#F1F1F1" height="78.2031" rx="12.5" ry="12.5" style="stroke:#181818;stroke-width:0.5;" width="187" x="7" y="148"/><line style="stroke:#181818;stroke-width:0.5;" x1="7" x2="194" y1="174.2969" y2="174.2969"/><text fill="#000000" font-family="sans-serif" font-size="14" lengthAdjust="spacing" textLength="133" x="34" y="165.9951">STAGING_REVISION</text><text fill="#000000" font-family="sans-serif" font-size="12" lengthAdjust="spacing" textLength="99" x="12" y="190.4355">copy sequence,</text><text fill="#000000" font-family="sans-serif" font-size="12" lengthAdjust="spacing" textLength="167" x="12" y="204.4043">increment revision number</text><text fill="#000000" font-family="sans-serif" font-size="12" lengthAdjust="spacing" textLength="130" x="12" y="218.373">omit processed data</text></g><g id="STAGING_REVOKED"><rect fill="#F1F1F1" height="78.2031" rx="12.5" ry="12.5" style="stroke:#181818;stroke-width:0.5;" width="187" x="409" y="622"/><line style="stroke:#181818;stroke-width:0.5;" x1="409" x2="596" y1="648.2969" y2="648.2969"/><text fill="#000000" font-family="sans-serif" font-size="14" lengthAdjust="spacing" textLength="137" x="434" y="639.9951">STAGING_REVOKED</text><text fill="#000000" font-family="sans-serif" font-size="12" lengthAdjust="spacing" textLength="99" x="414" y="664.4355">copy sequence,</text><text fill="#000000" font-family="sans-serif" font-size="12" lengthAdjust="spacing" textLength="167" x="414" y="678.4043">increment revision number</text><text fill="#000000" font-family="sans-serif" font-size="12" lengthAdjust="spacing" textLength="86" x="414" y="692.373">omit any data</text></g><rect fill="#F1F1F1" height="40" rx="12.5" ry="12.5" style="stroke:#181818;stroke-width:0.5;" width="80" x="352.5" y="167"/><text fill="#000000" font-family="sans-serif" font-size="14" lengthAdjust="spacing" textLength="70" x="357.5" y="191.8467">RECEIVED</text><rect fill="#F1F1F1" height="40" rx="12.5" ry="12.5" style="stroke:#181818;stroke-width:0.5;" width="101" x="342" y="303"/><text fill="#000000" font-family="sans-serif" font-size="14" lengthAdjust="spacing" textLength="91" x="347" y="327.8467">PROCESSING</text><rect fill="#F1F1F1" height="40" rx="12.5" ry="12.5" style="stroke:#181818;stroke-width:0.5;" width="129" x="831" y="303"/><text fill="#000000" font-family="sans-serif" font-size="14" lengthAdjust="spacing" textLength="119" x="836" y="327.8467">REVIEW_NEEDED</text><rect fill="#F1F1F1" height="40" rx="12.5" ry="12.5" style="stroke:#181818;stroke-width:0.5;" width="83" x="615" y="303"/><text fill="#000000" font-family="sans-serif" font-size="14" lengthAdjust="spacing" textLength="73" x="620" y="327.8467">REVIEWED</text><rect fill="#F1F1F1" height="40" rx="12.5" ry="12.5" style="stroke:#181818;stroke-width:0.5;" width="95" x="596" y="777"/><text fill="#000000" font-family="sans-serif" font-size="14" lengthAdjust="spacing" textLength="85" x="601" y="801.8467">SILO_READY</text><rect fill="#F1F1F1" height="40" rx="12.5" ry="12.5" style="stroke:#FF0000;stroke-width:1.0;stroke-dasharray:1.0,3.0;" width="148" x="767.5" y="641"/><text fill="#000000" font-family="sans-serif" font-size="14" lengthAdjust="spacing" textLength="138" x="772.5" y="665.8467">entry will be deleted</text><g id="elem_is_error"><polygon fill="#F1F1F1" points="643.5,420,655.5,432,643.5,444,631.5,432,643.5,420" style="stroke:#181818;stroke-width:0.5;"/></g><g id="elem_is_approved"><polygon fill="#F1F1F1" points="643.5,649,655.5,661,643.5,673,631.5,661,643.5,649" style="stroke:#181818;stroke-width:0.5;"/></g><rect fill="#F1F1F1" height="40" rx="12.5" ry="12.5" style="stroke:#181818;stroke-width:0.5;" width="72" x="607.5" y="521"/><text fill="#000000" font-family="sans-serif" font-size="14" lengthAdjust="spacing" textLength="62" x="612.5" y="545.8467">STAGING</text><!--link REVOKED_DATA to STAGING_REVOKED--><g id="link_REVOKED_DATA_STAGING_REVOKED"><path d="M219.72,661 C275.5,661 346.61,661 403.57,661 " fill="none" id="REVOKED_DATA-to-STAGING_REVOKED" style="stroke:#181818;stroke-width:1.0;"/><polygon fill="#181818" points="408.69,661,399.69,657,403.69,661,399.69,665,408.69,661" style="stroke:#181818;stroke-width:1.0;"/><text fill="#000000" font-family="sans-serif" font-size="13" lengthAdjust="spacing" textLength="153" x="237.75" y="654.0669">user initiates revocation</text></g><!--link STAGING_REVOKED to is_approved--><g id="link_STAGING_REVOKED_is_approved"><path d="M596.13,661 C606.11,661 616.09,661 626.07,661 " fill="none" id="STAGING_REVOKED-to-is_approved" style="stroke:#181818;stroke-width:1.0;"/><polygon fill="#181818" points="631.29,661,622.29,657,626.29,661,622.29,665,631.29,661" style="stroke:#181818;stroke-width:1.0;"/></g><!--link INITIAL_DATA to RECEIVED--><g id="link_INITIAL_DATA_RECEIVED"><path d="M392.5,64.11 C392.5,91.14 392.5,134.72 392.5,161.79 " fill="none" id="INITIAL_DATA-to-RECEIVED" style="stroke:#181818;stroke-width:1.0;"/><polygon fill="#181818" points="392.5,166.98,396.5,157.98,392.5,161.98,388.5,157.98,392.5,166.98" style="stroke:#181818;stroke-width:1.0;"/><text fill="#000000" font-family="sans-serif" font-size="13" lengthAdjust="spacing" textLength="109" x="393.5" y="114.0669">initial submission</text></g><!--link REVISION_DATA to STAGING_REVISION--><g id="link_REVISION_DATA_STAGING_REVISION"><path d="M100.5,71.32 C100.5,92.2 100.5,119.91 100.5,142.87 " fill="none" id="REVISION_DATA-to-STAGING_REVISION" style="stroke:#181818;stroke-width:1.0;"/><polygon fill="#181818" points="100.5,147.99,104.5,138.99,100.5,142.99,96.5,138.99,100.5,147.99" style="stroke:#181818;stroke-width:1.0;"/><text fill="#000000" font-family="sans-serif" font-size="13" lengthAdjust="spacing" textLength="135" x="101.5" y="114.0669">user initiates revision</text></g><!--link STAGING_REVISION to RECEIVED--><g id="link_STAGING_REVISION_RECEIVED"><path d="M194.1,187 C245.18,187 306.14,187 346.88,187 " fill="none" id="STAGING_REVISION-to-RECEIVED" style="stroke:#181818;stroke-width:1.0;"/><polygon fill="#181818" points="352.24,187,343.24,183,347.24,187,343.24,191,352.24,187" style="stroke:#181818;stroke-width:1.0;"/><text fill="#000000" font-family="sans-serif" font-size="13" lengthAdjust="spacing" textLength="122" x="212.25" y="180.0669">revised submission</text></g><!--link RECEIVED to PROCESSING--><g id="link_RECEIVED_PROCESSING"><path d="M392.5,207.2 C392.5,230.98 392.5,271.53 392.5,297.52 " fill="none" id="RECEIVED-to-PROCESSING" style="stroke:#181818;stroke-width:1.0;"/><polygon fill="#181818" points="392.5,302.84,396.5,293.84,392.5,297.84,388.5,293.84,392.5,302.84" style="stroke:#181818;stroke-width:1.0;"/><text fill="#000000" font-family="sans-serif" font-size="13" lengthAdjust="spacing" textLength="131" x="393.5" y="269.0669">preprocessing starts</text></g><!--link PROCESSING to is_error--><g id="link_PROCESSING_is_error"><path d="M437.08,343.01 C495.89,368.08 596.03,410.76 631,425.67 " fill="none" id="PROCESSING-to-is_error" style="stroke:#181818;stroke-width:1.0;"/><polygon fill="#181818" points="635.68,427.67,628.9644,420.4658,631.0791,425.7125,625.8324,427.8272,635.68,427.67" style="stroke:#181818;stroke-width:1.0;"/></g><!--reverse link REVIEW_NEEDED to is_error--><g id="link_REVIEW_NEEDED_is_error"><path d="M845.93,345.05 C783.37,371.61 680.41,415.33 651.35,427.67 " fill="none" id="REVIEW_NEEDED-backto-is_error" style="stroke:#181818;stroke-width:1.0;"/><polygon fill="#181818" points="850.74,343.01,840.8924,342.8528,846.1391,344.9675,844.0244,350.2142,850.74,343.01" style="stroke:#181818;stroke-width:1.0;"/><text fill="#000000" font-family="sans-serif" font-size="13" lengthAdjust="spacing" textLength="139" x="777.5" y="386.0669">data contains error(s)</text></g><!--reverse link REVIEWED to REVIEW_NEEDED--><g id="link_REVIEWED_REVIEW_NEEDED"><path d="M703.39,323 C739.81,323 790.7,323 830.96,323 " fill="none" id="REVIEWED-backto-REVIEW_NEEDED" style="stroke:#181818;stroke-width:1.0;"/><polygon fill="#181818" points="698.13,323,707.13,327,703.13,323,707.13,319,698.13,323" style="stroke:#181818;stroke-width:1.0;"/><text fill="#000000" font-family="sans-serif" font-size="13" lengthAdjust="spacing" textLength="96" x="716.5" y="316.0669">user edits data</text></g><!--reverse link PROCESSING to REVIEWED--><g id="link_PROCESSING_REVIEWED"><path d="M448.14,323 C497.91,323 569.77,323 614.77,323 " fill="none" id="PROCESSING-backto-REVIEWED" style="stroke:#181818;stroke-width:1.0;"/><polygon fill="#181818" points="443.09,323,452.09,327,448.09,323,452.09,319,443.09,323" style="stroke:#181818;stroke-width:1.0;"/><text fill="#000000" font-family="sans-serif" font-size="13" lengthAdjust="spacing" textLength="135" x="461.5" y="316.0669">preprocessing starts;</text></g><!--link is_error to STAGING--><g id="link_is_error_STAGING"><path d="M643.5,444.05 C643.5,460.85 643.5,493.26 643.5,515.74 " fill="none" id="is_error-to-STAGING" style="stroke:#181818;stroke-width:1.0;"/><polygon fill="#181818" points="643.5,520.94,647.5,511.94,643.5,515.94,639.5,511.94,643.5,520.94" style="stroke:#181818;stroke-width:1.0;"/><text fill="#000000" font-family="sans-serif" font-size="13" lengthAdjust="spacing" textLength="200" x="644.5" y="487.0669">data successfully preprocessed</text></g><!--link STAGING to is_approved--><g id="link_STAGING_is_approved"><path d="M643.5,561.22 C643.5,584.22 643.5,622.31 643.5,643.85 " fill="none" id="STAGING-to-is_approved" style="stroke:#181818;stroke-width:1.0;"/><polygon fill="#181818" points="643.5,648.95,647.5,639.95,643.5,643.95,639.5,639.95,643.5,648.95" style="stroke:#181818;stroke-width:1.0;"/></g><!--link is_approved to SILO_READY--><g id="link_is_approved_SILO_READY"><path d="M643.5,673.42 C643.5,695.11 643.5,742.68 643.5,771.76 " fill="none" id="is_approved-to-SILO_READY" style="stroke:#181818;stroke-width:1.0;"/><polygon fill="#181818" points="643.5,776.97,647.5,767.97,643.5,771.97,639.5,767.97,643.5,776.97" style="stroke:#181818;stroke-width:1.0;"/><text fill="#000000" font-family="sans-serif" font-size="13" lengthAdjust="spacing" textLength="91" x="644.5" y="743.0669">user approves</text></g><!--link is_approved to DELETION--><g id="link_is_approved_DELETION"><path d="M655.59,661 C676.56,661 721.32,661 761.66,661 " fill="none" id="is_approved-to-DELETION" style="stroke:#181818;stroke-width:1.0;"/><polygon fill="#181818" points="767.07,661,758.07,657,762.07,661,758.07,665,767.07,661" style="stroke:#181818;stroke-width:1.0;"/><text fill="#000000" font-family="sans-serif" font-size="13" lengthAdjust="spacing" textLength="75" x="674" y="654.0669">user rejects</text></g><!--SRC=[fPNVQjim5CRlynI7xc8Rp7i0fmH2BOfPI4OSEdOL5FciqN1aJvBRch5tdopRifIuVzXoLQHFnp-Txpig0C2HvmXugdG3EIecUQLvAMOpimNlWOkgrf1JJUs2qbGZfEjqbovN-sIvMm9LSCK5rvmMLdS5xsZ16HwA6kS55nYxlpxdfTQOppK-QRiAlstLzkVNZ47W8zGYgYHMicIe5EOZHFlxu-5ioLsQfPlro2FnWIjpY_y12gh6G0k9D6y0dxZINDo3mbyr2eRF7NZa-cW1QmLPkjhijsIPV9zDm6- -a2HWBndL_q8VmBkgRsJtz2-Yzy78kcrx2UNT9zijRzFrxNxeHj_Hy-KOM5ar3kIJ8xaKSi4adb1eSBQA-dH0-SAPyiGrl24wtids_ix-i_LdQIUKh-DE7BAyL3GXwNbIRaXwHn9lwUjsSqEop9Gw6mVoRRyc90d4tNgmv9dRsqfPcppVq8IioAuriWsdkPPiJ3wA0Wvetei2JG1DH6qmfScYbqkl1bTxbBAKS7tDZgL9ys8HxjBAcFLWdF840vAML2W-OWKJ4qb-VzJHuiB966g54hgNoKGKnhcQJLWm5l9eEeBWjOkCOZ02OXWUFbKVJbofeNZu8aLvoDVDnHIWZSjiSc0COFXfApSTk_XqhsX9ntoO0-DZQfy0JQNk6kgfegu1rYoxvvoBQljvBrgcP9jMCnf2KouKME47zT6rO9H6XJizUeCvrsfClDksubVHvsTyOuy7C5MpziYFkYWQyF-L-0qUhkmyxwkwH7RkkK4PuFjzTQblVN93qwib_aHcslqN]--></g></svg>