<?xml version="1.0" encoding="us-ascii" standalone="no"?><svg xmlns="http://www.w3.org/2000/svg" xmlns:xlink="http://www.w3.org/1999/xlink" contentStyleType="text/css" height="954px" preserveAspectRatio="none" style="width:813px;height:954px;background:#FFFFFF;" version="1.1" viewBox="0 0 813 954" width="813px" zoomAndPan="magnify"><defs/><g><g id="INITIAL_DATA"><rect fill="#F0F8FF" height="50.2656" rx="12.5" ry="12.5" style="stroke:#0000FF;stroke-width:1.0;stroke-dasharray:1.0,3.0;" width="164" x="23" y="21"/><line style="stroke:#0000FF;stroke-width:1.0;stroke-dasharray:1.0,3.0;" x1="23" x2="187" y1="47.2969" y2="47.2969"/><text fill="#0000FF" font-family="sans-serif" font-size="14" lengthAdjust="spacing" textLength="68" x="71" y="38.9951">initial data</text><text fill="#000000" font-family="sans-serif" font-size="12" lengthAdjust="spacing" textLength="144" x="28" y="63.4355">new unprocessed data</text></g><g id="REVISION_DATA"><rect fill="#F0F8FF" height="78.2031" rx="12.5" ry="12.5" style="stroke:#0000FF;stroke-width:1.0;stroke-dasharray:1.0,3.0;" width="249" x="235.5" y="7"/><line style="stroke:#0000FF;stroke-width:1.0;stroke-dasharray:1.0,3.0;" x1="235.5" x2="484.5" y1="33.2969" y2="33.2969"/><text fill="#0000FF" font-family="sans-serif" font-size="14" lengthAdjust="spacing" textLength="87" x="316.5" y="24.9951">revision data</text><text fill="#000000" font-family="sans-serif" font-size="12" lengthAdjust="spacing" textLength="164" x="240.5" y="49.4355">already existing sequence</text><text fill="#000000" font-family="sans-serif" font-size="12" lengthAdjust="spacing" textLength="229" x="240.5" y="63.4043">with status APPROVED_FOR_RELEASE</text><text fill="#000000" font-family="sans-serif" font-size="12" lengthAdjust="spacing" textLength="158" x="240.5" y="77.373">+ new unprocessed data</text></g><g id="REVOKED_DATA"><rect fill="#F0F8FF" height="64.2344" rx="12.5" ry="12.5" style="stroke:#0000FF;stroke-width:1.0;stroke-dasharray:1.0,3.0;" width="249" x="526.5" y="399"/><line style="stroke:#0000FF;stroke-width:1.0;stroke-dasharray:1.0,3.0;" x1="526.5" x2="775.5" y1="425.2969" y2="425.2969"/><text fill="#0000FF" font-family="sans-serif" font-size="14" lengthAdjust="spacing" textLength="106" x="598" y="416.9951">revocation data</text><text fill="#000000" font-family="sans-serif" font-size="12" lengthAdjust="spacing" textLength="164" x="531.5" y="441.4355">already existing sequence</text><text fill="#000000" font-family="sans-serif" font-size="12" lengthAdjust="spacing" textLength="229" x="531.5" y="455.4043">with status APPROVED_FOR_RELEASE</text></g><rect fill="#F1F1F1" height="40" rx="12.5" ry="12.5" style="stroke:#181818;stroke-width:0.5;" width="291" x="475.5" y="676"/><text fill="#000000" font-family="sans-serif" font-size="14" lengthAdjust="spacing" textLength="281" x="480.5" y="700.8467">AWAITING_APPROVAL_FOR_REVOCATION</text><rect fill="#F1F1F1" height="40" rx="12.5" ry="12.5" style="stroke:#181818;stroke-width:0.5;" width="80" x="192" y="282"/><text fill="#000000" font-family="sans-serif" font-size="14" lengthAdjust="spacing" textLength="70" x="197" y="306.8467">RECEIVED</text><rect fill="#F1F1F1" height="40" rx="12.5" ry="12.5" style="stroke:#181818;stroke-width:0.5;" width="121" x="171.5" y="411"/><text fill="#000000" font-family="sans-serif" font-size="14" lengthAdjust="spacing" textLength="111" x="176.5" y="435.8467">IN_PROCESSING</text><rect fill="#F1F1F1" height="40" rx="12.5" ry="12.5" style="stroke:#181818;stroke-width:0.5;" width="104" x="279" y="676"/><text fill="#000000" font-family="sans-serif" font-size="14" lengthAdjust="spacing" textLength="94" x="284" y="700.8467">HAS_ERRORS</text><rect fill="#F1F1F1" height="40" rx="12.5" ry="12.5" style="stroke:#181818;stroke-width:0.5;" width="192" x="118" y="908"/><text fill="#000000" font-family="sans-serif" font-size="14" lengthAdjust="spacing" textLength="182" x="123" y="932.8467">APPROVED_FOR_RELEASE</text><rect fill="#90EE90" height="42.5938" rx="12.5" ry="12.5" style="stroke:#008000;stroke-width:1.0;stroke-dasharray:1.0,3.0;" width="196" x="7" y="170"/><text fill="#000000" font-family="sans-serif" font-size="14" lengthAdjust="spacing" textLength="186" x="12" y="187.9951">entry with new sequenceId</text><text fill="#000000" font-family="sans-serif" font-size="14" lengthAdjust="spacing" textLength="99" x="57.5" y="204.292">will be created</text><rect fill="#90EE90" height="58.8906" rx="12.5" ry="12.5" style="stroke:#008000;stroke-width:1.0;stroke-dasharray:1.0,3.0;" width="244" x="238" y="162"/><text fill="#000000" font-family="sans-serif" font-size="14" lengthAdjust="spacing" textLength="210" x="255" y="179.9951">entry with existing sequenceId</text><text fill="#000000" font-family="sans-serif" font-size="14" lengthAdjust="spacing" textLength="230" x="247" y="196.292">and incremented version number</text><text fill="#000000" font-family="sans-serif" font-size="14" lengthAdjust="spacing" textLength="99" x="312.5" y="212.5889">will be created</text><rect fill="#90EE90" height="58.8906" rx="12.5" ry="12.5" style="stroke:#008000;stroke-width:1.0;stroke-dasharray:1.0,3.0;" width="277" x="512.5" y="540"/><text fill="#000000" font-family="sans-serif" font-size="14" lengthAdjust="spacing" textLength="214" x="544" y="557.9951">entry with existing sequenceId,</text><text fill="#000000" font-family="sans-serif" font-size="14" lengthAdjust="spacing" textLength="204" x="549" y="574.292">incremented version number,</text><text fill="#000000" font-family="sans-serif" font-size="14" lengthAdjust="spacing" textLength="263" x="521.5" y="590.5889">and is_revocation=true will be created</text><rect fill="#CD5C5C" height="40" rx="12.5" ry="12.5" style="stroke:#FF0000;stroke-width:1.0;stroke-dasharray:1.0,3.0;" width="148" x="345" y="908"/><text fill="#000000" font-family="sans-serif" font-size="14" lengthAdjust="spacing" textLength="138" x="350" y="932.8467">entry will be deleted</text><g id="elem_is_error"><polygon fill="#F1F1F1" points="232,557.5,244,569.5,232,581.5,220,569.5,232,557.5" style="stroke:#181818;stroke-width:0.5;"/></g><g id="elem_is_approved"><polygon fill="#F1F1F1" points="316,777,328,789,316,801,304,789,316,777" style="stroke:#181818;stroke-width:0.5;"/></g><rect fill="#F1F1F1" height="40" rx="12.5" ry="12.5" style="stroke:#181818;stroke-width:0.5;" width="72" x="64" y="676"/><text fill="#000000" font-family="sans-serif" font-size="14" lengthAdjust="spacing" textLength="62" x="69" y="700.8467">STAGING</text><!--link INITIAL_DATA to CREATING_SUBMIT--><g id="link_INITIAL_DATA_CREATING_SUBMIT"><path d="M105,71.02 C105,96.9 105,137.94 105,164.55 " fill="none" id="INITIAL_DATA-to-CREATING_SUBMIT" style="stroke:#181818;stroke-width:1.0;"/><polygon fill="#181818" points="105,169.67,109,160.67,105,164.67,101,160.67,105,169.67" style="stroke:#181818;stroke-width:1.0;"/><text fill="#000000" font-family="sans-serif" font-size="13" lengthAdjust="spacing" textLength="109" x="106" y="128.0669">initial submission</text></g><!--link CREATING_SUBMIT to RECEIVED--><g id="link_CREATING_SUBMIT_RECEIVED"><path d="M129.19,213.16 C151.09,231.88 183.29,259.39 205.8,278.62 " fill="none" id="CREATING_SUBMIT-to-RECEIVED" style="stroke:#181818;stroke-width:1.0;"/><polygon fill="#181818" points="209.61,281.87,205.3606,272.9851,205.8067,278.6243,200.1674,279.0704,209.61,281.87" style="stroke:#181818;stroke-width:1.0;"/></g><!--link REVISION_DATA to CREATING_REVISE--><g id="link_REVISION_DATA_CREATING_REVISE"><path d="M360,85.08 C360,107.37 360,135.27 360,156.77 " fill="none" id="REVISION_DATA-to-CREATING_REVISE" style="stroke:#181818;stroke-width:1.0;"/><polygon fill="#181818" points="360,161.81,364,152.81,360,156.81,356,152.81,360,161.81" style="stroke:#181818;stroke-width:1.0;"/><text fill="#000000" font-family="sans-serif" font-size="13" lengthAdjust="spacing" textLength="135" x="361" y="128.0669">user initiates revision</text></g><!--link CREATING_REVISE to RECEIVED--><g id="link_CREATING_REVISE_RECEIVED"><path d="M326.37,221.01 C305.12,239.02 278.06,261.96 258.37,278.65 " fill="none" id="CREATING_REVISE-to-RECEIVED" style="stroke:#181818;stroke-width:1.0;"/><polygon fill="#181818" points="254.53,281.9,263.9777,279.1179,258.3393,278.6613,258.7959,273.0229,254.53,281.9" style="stroke:#181818;stroke-width:1.0;"/></g><!--link REVOKED_DATA to CREATING_REVOKE--><g id="link_REVOKED_DATA_CREATING_REVOKE"><path d="M651,463.32 C651,484.59 651,512.72 651,534.54 " fill="none" id="REVOKED_DATA-to-CREATING_REVOKE" style="stroke:#181818;stroke-width:1.0;"/><polygon fill="#181818" points="651,539.66,655,530.66,651,534.66,647,530.66,651,539.66" style="stroke:#181818;stroke-width:1.0;"/><text fill="#000000" font-family="sans-serif" font-size="13" lengthAdjust="spacing" textLength="153" x="652" y="506.0669">user initiates revocation</text></g><!--link CREATING_REVOKE to AWAITING_APPROVAL_FOR_REVOCATION--><g id="link_CREATING_REVOKE_AWAITING_APPROVAL_FOR_REVOCATION"><path d="M644.12,599.06 C638.89,620.77 631.77,650.3 626.82,670.84 " fill="none" id="CREATING_REVOKE-to-AWAITING_APPROVAL_FOR_REVOCATION" style="stroke:#181818;stroke-width:1.0;"/><polygon fill="#181818" points="625.61,675.86,631.6034,668.0447,626.779,670.9986,623.8251,666.1742,625.61,675.86" style="stroke:#181818;stroke-width:1.0;"/></g><!--link AWAITING_APPROVAL_FOR_REVOCATION to is_approved--><g id="link_AWAITING_APPROVAL_FOR_REVOCATION_is_approved"><path d="M557.06,716.08 C483.84,737.92 368.93,772.21 329.68,783.92 " fill="none" id="AWAITING_APPROVAL_FOR_REVOCATION-to-is_approved" style="stroke:#181818;stroke-width:1.0;"/><polygon fill="#181818" points="324.86,785.36,334.6281,786.6186,329.6511,783.9298,332.3398,778.9528,324.86,785.36" style="stroke:#181818;stroke-width:1.0;"/></g><!--link RECEIVED to IN_PROCESSING--><g id="link_RECEIVED_IN_PROCESSING"><path d="M232,322.01 C232,344.27 232,381.19 232,405.55 " fill="none" id="RECEIVED-to-IN_PROCESSING" style="stroke:#181818;stroke-width:1.0;"/><polygon fill="#181818" points="232,410.86,236,401.86,232,405.86,228,401.86,232,410.86" style="stroke:#181818;stroke-width:1.0;"/><text fill="#000000" font-family="sans-serif" font-size="13" lengthAdjust="spacing" textLength="131" x="233" y="365.0669">preprocessing starts</text></g><!--link IN_PROCESSING to is_error--><g id="link_IN_PROCESSING_is_error"><path d="M232,451.27 C232,478.3 232,527 232,552.28 " fill="none" id="IN_PROCESSING-to-is_error" style="stroke:#181818;stroke-width:1.0;"/><polygon fill="#181818" points="232,557.3,236,548.3,232,552.3,228,548.3,232,557.3" style="stroke:#181818;stroke-width:1.0;"/></g><!--link is_error to HAS_ERRORS--><g id="link_is_error_HAS_ERRORS"><path d="M237.05,576.85 C250.72,594.04 289,642.18 312.26,671.44 " fill="none" id="is_error-to-HAS_ERRORS" style="stroke:#181818;stroke-width:1.0;"/><polygon fill="#181818" points="315.58,675.61,313.1067,666.0767,312.467,671.6973,306.8464,671.0576,315.58,675.61" style="stroke:#181818;stroke-width:1.0;"/><text fill="#000000" font-family="sans-serif" font-size="13" lengthAdjust="spacing" textLength="132" x="292" y="642.0669">data contain error(s)</text></g><!--link HAS_ERRORS to RECEIVED--><g id="link_HAS_ERRORS_RECEIVED"><path d="M383.06,682.61 C402.15,675.27 421.81,663.79 433,646 C504.01,533.11 461.42,451.84 373,352 C348.78,324.65 308.48,312.57 277.16,307.22 " fill="none" id="HAS_ERRORS-to-RECEIVED" style="stroke:#181818;stroke-width:1.0;"/><polygon fill="#181818" points="272.21,306.42,280.4528,311.8103,277.1454,307.2211,281.7346,303.9137,272.21,306.42" style="stroke:#181818;stroke-width:1.0;"/><text fill="#000000" font-family="sans-serif" font-size="13" lengthAdjust="spacing" textLength="96" x="467" y="506.0669">user edits data</text></g><!--link STAGING to RECEIVED--><g id="link_STAGING_RECEIVED"><path d="M96.18,675.91 C94.06,662.72 92.17,644.77 94,629 C106.18,524.06 104.66,492.42 154,399 C168.45,371.64 191.35,344.66 208.6,326.31 " fill="none" id="STAGING-to-RECEIVED" style="stroke:#181818;stroke-width:1.0;"/><polygon fill="#181818" points="212.42,322.29,203.3236,326.0656,208.9785,325.9171,209.127,331.572,212.42,322.29" style="stroke:#181818;stroke-width:1.0;"/><text fill="#000000" font-family="sans-serif" font-size="13" lengthAdjust="spacing" textLength="96" x="116" y="506.0669">user edits data</text></g><!--link is_error to STAGING--><g id="link_is_error_STAGING"><path d="M222.36,571.94 C198.67,576.03 137.47,590.06 109,629 C100.32,640.87 98.05,657.22 97.95,670.69 " fill="none" id="is_error-to-STAGING" style="stroke:#181818;stroke-width:1.0;"/><polygon fill="#181818" points="98.02,675.88,101.891,666.8238,97.9486,670.8805,93.8918,666.9381,98.02,675.88" style="stroke:#181818;stroke-width:1.0;"/><text fill="#000000" font-family="sans-serif" font-size="13" lengthAdjust="spacing" textLength="160" x="110" y="642.0669">preprocessing successful</text></g><!--link STAGING to is_approved--><g id="link_STAGING_is_approved"><path d="M136.15,712.23 C185.4,732.98 271.13,769.09 303.31,782.65 " fill="none" id="STAGING-to-is_approved" style="stroke:#181818;stroke-width:1.0;"/><polygon fill="#181818" points="308,784.63,301.2655,777.4435,303.394,782.6846,298.1528,784.8131,308,784.63" style="stroke:#181818;stroke-width:1.0;"/></g><!--link is_approved to APPROVED_FOR_RELEASE--><g id="link_is_approved_APPROVED_FOR_RELEASE"><path d="M306.55,791.81 C289.07,795.69 251.77,806.5 233,831 C217.28,851.52 213.54,881.54 213.08,902.54 " fill="none" id="is_approved-to-APPROVED_FOR_RELEASE" style="stroke:#181818;stroke-width:1.0;"/><polygon fill="#181818" points="213.03,907.67,217.1326,898.7163,213.0871,902.6703,209.1331,898.6249,213.03,907.67" style="stroke:#181818;stroke-width:1.0;"/><text fill="#000000" font-family="sans-serif" font-size="13" lengthAdjust="spacing" textLength="91" x="257" y="844.0669">user approves</text><text fill="#000000" font-family="sans-serif" font-size="13" lengthAdjust="spacing" textLength="141" x="234" y="859.1997">or automatic approval</text><text fill="#000000" font-family="sans-serif" font-size="13" lengthAdjust="spacing" textLength="128" x="242.5" y="874.3325">via 'release_directly'</text></g><!--link is_approved to DELETION--><g id="link_is_approved_DELETION"><path d="M324.22,793.29 C337.64,799.03 364.31,812.12 380,831 C397.49,852.04 407.97,881.97 413.59,902.8 " fill="none" id="is_approved-to-DELETION" style="stroke:#181818;stroke-width:1.0;"/><polygon fill="#181818" points="414.91,907.89,416.5134,898.1725,413.6502,903.0513,408.7714,900.1882,414.91,907.89" style="stroke:#181818;stroke-width:1.0;"/><text fill="#000000" font-family="sans-serif" font-size="13" lengthAdjust="spacing" textLength="75" x="406" y="859.0669">user rejects</text></g><!--SRC=[hLHHRzCm47xlhpYDXuBO-07Tc1JQC2B6EYLbl215RdoiHgbJRATRXVRVkJXE4pSjgnXvYkpFttrtzzq102m4Hy3boco0eywKM1bHoC60hc08GgvA0vmPPW-qOGOXkebcKN2TJe9P04p3YP3229PRt0cyOhd8S9wNU9uBYQFjtpjU68FytE2ZiQVmsx9MNvTp118Ve9GhLMIeDV9MGFKzTQJ4uLsKHDERLel2jT2KmKl4UAmZOBb2nZU0Zq8R8Uz1uwyIPOQ77Zm8ix02Imt1xMqylGidwSTfdCRXTHWauQ5tRmydlfFqz3CnTdCkCcR-9MilwIthaJbty4Ub_DJOoW5jEhgJMV0j81lSNAKr1VcXfhYRZeCPrSahmZYCA8ZdovHUZSCa8OhE-QSWISCudiR9tz_lrUqKiwmgRrVhE0u3gpNv-k5BDBEDG6dKfgv5rSccPX7_Bkaqps6Ea55XgGNKf5pSByozGfHrbzfVrwPzqQnbmjrelJRPa4nocc0Ak2GekMcDoew6B9TpLFzL4rdX24sd5FEme5DeDEkqjVHxesWuNwPqGisi_ED9h0avvbWJHf8B9cEQ3ikdt4-VZUIXKeM2YujiKT2WNLxwjsn54xoc_3e0voEZcDIYzPAtIy_EBdks6a6pNNKvNmfTrSk-t0LMZprJ-xlHutOc6a6fKRa0D8dGB4y_W4Dx0GQxAw0Ne7B4lW2khRqG5RxYE6e7F0UoJ9rED7fhzVRMsnQaTANGxLthMSEKQLhK1JfYQm1xlNL3TTEk6cAiTZ5aXJHCIB2Or_gDVTE1TQlQr0kvCBhT_Saik6f2FmFrn3JlUhcLMVNxeynxzDsIERwjcMrpzgp8Hee3QffY4i1AKoofqvaxPpaDzrem62gQEAOnvK9XPlBDS6-axSWwTeK_2Qq7Vm00]--></g></svg>