<?xml version="1.0" encoding="UTF-8" standalone="no"?><svg xmlns="http://www.w3.org/2000/svg" xmlns:xlink="http://www.w3.org/1999/xlink" contentScriptType="application/ecmascript" contentStyleType="text/css" height="558px" preserveAspectRatio="none" style="width:476px;height:558px;" version="1.1" viewBox="0 0 476 558" width="476px" zoomAndPan="magnify"><defs><filter height="300%" id="f1ejl6mo5zyoqh" width="300%" x="-1" y="-1"><feGaussianBlur result="blurOut" stdDeviation="2.0"/><feColorMatrix in="blurOut" result="blurOut2" type="matrix" values="0 0 0 0 0 0 0 0 0 0 0 0 0 0 0 0 0 0 .4 0"/><feOffset dx="4.0" dy="4.0" in="blurOut2" result="blurOut3"/><feBlend in="SourceGraphic" in2="blurOut3" mode="normal"/></filter></defs><g><ellipse cx="249.5" cy="20" fill="#000000" filter="url(#f1ejl6mo5zyoqh)" rx="10" ry="10" style="stroke: none; stroke-width: 1.0;"/><rect fill="#FEFECE" filter="url(#f1ejl6mo5zyoqh)" height="33.9688" rx="12.5" ry="12.5" style="stroke: #A80036; stroke-width: 1.5;" width="171" x="164" y="71.3989"/><text fill="#000000" font-family="sans-serif" font-size="12" lengthAdjust="spacingAndGlyphs" textLength="151" x="174" y="92.5376">set status to 'RECEIVED'</text><rect fill="#FEFECE" filter="url(#f1ejl6mo5zyoqh)" height="33.9688" rx="12.5" ry="12.5" style="stroke: #A80036; stroke-width: 1.5;" width="189" x="155" y="181.0781"/><text fill="#000000" font-family="sans-serif" font-size="12" lengthAdjust="spacingAndGlyphs" textLength="169" x="165" y="202.2168">set status to 'PROCESSING'</text><polygon fill="#FEFECE" filter="url(#f1ejl6mo5zyoqh)" points="229.5,235.0469,269.5,235.0469,281.5,247.0469,269.5,259.0469,229.5,259.0469,217.5,247.0469,229.5,235.0469" style="stroke: #A80036; stroke-width: 1.5;"/><text fill="#000000" font-family="sans-serif" font-size="11" lengthAdjust="spacingAndGlyphs" textLength="40" x="229.5" y="250.855">if error</text><text fill="#000000" font-family="sans-serif" font-size="11" lengthAdjust="spacingAndGlyphs" textLength="20" x="197.5" y="244.4526">yes</text><text fill="#000000" font-family="sans-serif" font-size="11" lengthAdjust="spacingAndGlyphs" textLength="14" x="281.5" y="244.4526">no</text><rect fill="#FEFECE" filter="url(#f1ejl6mo5zyoqh)" height="33.9688" rx="12.5" ry="12.5" style="stroke: #A80036; stroke-width: 1.5;" width="214" x="38" y="269.0469"/><text fill="#000000" font-family="sans-serif" font-size="12" lengthAdjust="spacingAndGlyphs" textLength="194" x="48" y="290.1855">set status to 'REVIEW_NEEDED'</text><rect fill="#FEFECE" filter="url(#f1ejl6mo5zyoqh)" height="33.9688" rx="12.5" ry="12.5" style="stroke: #A80036; stroke-width: 1.5;" width="174" x="58" y="344.4146"/><text fill="#000000" font-family="sans-serif" font-size="12" lengthAdjust="spacingAndGlyphs" textLength="154" x="68" y="365.5532">set status to 'REVIEWED'</text><rect fill="#FEFECE" filter="url(#f1ejl6mo5zyoqh)" height="33.9688" rx="12.5" ry="12.5" style="stroke: #A80036; stroke-width: 1.5;" width="164" x="272" y="269.0469"/><text fill="#000000" font-family="sans-serif" font-size="12" lengthAdjust="spacingAndGlyphs" textLength="144" x="282" y="290.1855">set status to 'STAGING'</text><polygon fill="#FEFECE" filter="url(#f1ejl6mo5zyoqh)" points="249.5,384.3833,261.5,396.3833,249.5,408.3833,237.5,396.3833,249.5,384.3833" style="stroke: #A80036; stroke-width: 1.5;"/><polygon fill="#FEFECE" filter="url(#f1ejl6mo5zyoqh)" points="144.5,125.3677,354.5,125.3677,366.5,137.3677,354.5,149.3677,144.5,149.3677,132.5,137.3677,144.5,125.3677" style="stroke: #A80036; stroke-width: 1.5;"/><text fill="#000000" font-family="sans-serif" font-size="11" lengthAdjust="spacingAndGlyphs" textLength="23" x="253.5" y="159.5781">true</text><text fill="#000000" font-family="sans-serif" font-size="11" lengthAdjust="spacingAndGlyphs" textLength="210" x="144.5" y="141.1758">if status is  'RECEIVED' or 'REVIEWED'</text><text fill="#000000" font-family="sans-serif" font-size="11" lengthAdjust="spacingAndGlyphs" textLength="28" x="104.5" y="134.7734">false</text><rect fill="#FEFECE" filter="url(#f1ejl6mo5zyoqh)" height="33.9688" rx="12.5" ry="12.5" style="stroke: #A80036; stroke-width: 1.5;" width="183" x="158" y="473.7822"/><text fill="#000000" font-family="sans-serif" font-size="12" lengthAdjust="spacingAndGlyphs" textLength="163" x="168" y="494.9209">set status to 'SILO_READY'</text><ellipse cx="249.5" cy="537.751" fill="#FFFFFF" filter="url(#f1ejl6mo5zyoqh)" rx="10" ry="10" style="stroke: #000000; stroke-width: 1.5;"/><line style="stroke: #000000; stroke-width: 2.5;" x1="243.3128" x2="255.6872" y1="531.5638" y2="543.9382"/><line style="stroke: #000000; stroke-width: 2.5;" x1="255.6872" x2="243.3128" y1="531.5638" y2="543.9382"/><line style="stroke: #A80036; stroke-width: 1.5;" x1="249.5" x2="249.5" y1="30" y2="71.3989"/><polygon fill="#A80036" points="245.5,61.3989,249.5,71.3989,253.5,61.3989,249.5,65.3989" style="stroke: #A80036; stroke-width: 1.0;"/><text fill="#000000" font-family="sans-serif" font-size="11" lengthAdjust="spacingAndGlyphs" textLength="73" x="253.5" y="51.3047">initial submit</text><line style="stroke: #A80036; stroke-width: 1.5;" x1="145" x2="145" y1="303.0156" y2="344.4146"/><polygon fill="#A80036" points="141,334.4146,145,344.4146,149,334.4146,145,338.4146" style="stroke: #A80036; stroke-width: 1.0;"/><text fill="#000000" font-family="sans-serif" font-size="11" lengthAdjust="spacingAndGlyphs" textLength="74" x="149" y="324.3203">user reviews</text><line style="stroke: #A80036; stroke-width: 1.5;" x1="217.5" x2="145" y1="247.0469" y2="247.0469"/><line style="stroke: #A80036; stroke-width: 1.5;" x1="145" x2="145" y1="247.0469" y2="269.0469"/><polygon fill="#A80036" points="141,259.0469,145,269.0469,149,259.0469,145,263.0469" style="stroke: #A80036; stroke-width: 1.0;"/><line style="stroke: #A80036; stroke-width: 1.5;" x1="281.5" x2="354" y1="247.0469" y2="247.0469"/><line style="stroke: #A80036; stroke-width: 1.5;" x1="354" x2="354" y1="247.0469" y2="269.0469"/><polygon fill="#A80036" points="350,259.0469,354,269.0469,358,259.0469,354,263.0469" style="stroke: #A80036; stroke-width: 1.0;"/><line style="stroke: #A80036; stroke-width: 1.5;" x1="145" x2="145" y1="378.3833" y2="396.3833"/><line style="stroke: #A80036; stroke-width: 1.5;" x1="145" x2="237.5" y1="396.3833" y2="396.3833"/><polygon fill="#A80036" points="227.5,392.3833,237.5,396.3833,227.5,400.3833,231.5,396.3833" style="stroke: #A80036; stroke-width: 1.0;"/><line style="stroke: #A80036; stroke-width: 1.5;" x1="354" x2="354" y1="303.0156" y2="396.3833"/><line style="stroke: #A80036; stroke-width: 1.5;" x1="354" x2="261.5" y1="396.3833" y2="396.3833"/><polygon fill="#A80036" points="271.5,392.3833,261.5,396.3833,271.5,400.3833,267.5,396.3833" style="stroke: #A80036; stroke-width: 1.0;"/><line style="stroke: #A80036; stroke-width: 1.5;" x1="249.5" x2="249.5" y1="215.0469" y2="235.0469"/><polygon fill="#A80036" points="245.5,225.0469,249.5,235.0469,253.5,225.0469,249.5,229.0469" style="stroke: #A80036; stroke-width: 1.0;"/><line style="stroke: #A80036; stroke-width: 1.5;" x1="249.5" x2="249.5" y1="149.3677" y2="181.0781"/><polygon fill="#A80036" points="245.5,171.0781,249.5,181.0781,253.5,171.0781,249.5,175.0781" style="stroke: #A80036; stroke-width: 1.0;"/><line style="stroke: #A80036; stroke-width: 1.5;" x1="249.5" x2="249.5" y1="408.3833" y2="420.3833"/><line style="stroke: #A80036; stroke-width: 1.5;" x1="249.5" x2="450" y1="420.3833" y2="420.3833"/><polygon fill="#A80036" points="446,282.0313,450,272.0313,454,282.0313,450,278.0313" style="stroke: #A80036; stroke-width: 1.5;"/><line style="stroke: #A80036; stroke-width: 1.5;" x1="450" x2="450" y1="137.3677" y2="420.3833"/><line style="stroke: #A80036; stroke-width: 1.5;" x1="450" x2="366.5" y1="137.3677" y2="137.3677"/><polygon fill="#A80036" points="376.5,133.3677,366.5,137.3677,376.5,141.3677,372.5,137.3677" style="stroke: #A80036; stroke-width: 1.0;"/><text fill="#000000" font-family="sans-serif" font-size="11" lengthAdjust="spacingAndGlyphs" textLength="37" x="253.5" y="418.1914">repeat</text><line style="stroke: #A80036; stroke-width: 1.5;" x1="132.5" x2="24" y1="137.3677" y2="137.3677"/><polygon fill="#A80036" points="20,268.0313,24,278.0313,28,268.0313,24,272.0313" style="stroke: #A80036; stroke-width: 1.5;"/><line style="stroke: #A80036; stroke-width: 1.5;" x1="24" x2="24" y1="137.3677" y2="432.3833"/><line style="stroke: #A80036; stroke-width: 1.5;" x1="24" x2="249.5" y1="432.3833" y2="432.3833"/><line style="stroke: #A80036; stroke-width: 1.5;" x1="249.5" x2="249.5" y1="105.3677" y2="125.3677"/><polygon fill="#A80036" points="245.5,115.3677,249.5,125.3677,253.5,115.3677,249.5,119.3677" style="stroke: #A80036; stroke-width: 1.0;"/><line style="stroke: #A80036; stroke-width: 1.5;" x1="249.5" x2="249.5" y1="432.3833" y2="473.7822"/><polygon fill="#A80036" points="245.5,463.7822,249.5,473.7822,253.5,463.7822,249.5,467.7822" style="stroke: #A80036; stroke-width: 1.0;"/><text fill="#000000" font-family="sans-serif" font-size="11" lengthAdjust="spacingAndGlyphs" textLength="112" x="253.5" y="453.688">user approves data</text><line style="stroke: #A80036; stroke-width: 1.5;" x1="249.5" x2="249.5" y1="507.751" y2="527.751"/><polygon fill="#A80036" points="245.5,517.751,249.5,527.751,253.5,517.751,249.5,521.751" style="stroke: #A80036; stroke-width: 1.0;"/><!--MD5=[472148d5dfdc541e9617ee52ffa1dd8a]
@startuml
    start
    ->initial submit;
    :set status to 'RECEIVED';
    while (if status is  'RECEIVED' or 'REVIEWED')
    ->true;
    :set status to 'PROCESSING';
     if (if error) then (yes)
          :set status to 'REVIEW_NEEDED';
            -> user reviews;
          :set status to 'REVIEWED';
      else (no)
            :set status to 'STAGING';
      endif
    ->repeat;
    endwhile (false)
    ->user approves data;
    :set status to 'SILO_READY';
    end
@enduml

PlantUML version 1.2020.02(Sun Mar 01 11:22:07 CET 2020)
(GPL source distribution)
Java Runtime: OpenJDK Runtime Environment
JVM: OpenJDK 64-Bit Server VM
Java Version: 19-panama+1-13
Operating System: Linux
Default Encoding: UTF-8
Language: en
Country: US
--></g></svg>