<svg xmlns="http://www.w3.org/2000/svg" xmlns:xlink="http://www.w3.org/1999/xlink" contentStyleType="text/css" height="839px" preserveAspectRatio="none" style="width:865px;height:839px;background:#FFFFFF;" version="1.1" viewBox="0 0 865 839" width="865px" zoomAndPan="magnify"><defs/><g><g id="INITIAL_DATA"><rect fill="#F0F8FF" height="50.6211" rx="12.5" ry="12.5" style="stroke:#0000FF;stroke-width:1.0;stroke-dasharray:1.0,3.0;" width="150.3008" x="134.06" y="21.13"/><line style="stroke:#0000FF;stroke-width:1.0;stroke-dasharray:1.0,3.0;" x1="134.06" x2="284.3608" y1="47.6183" y2="47.6183"/><text fill="#0000FF" font-family="sans-serif" font-size="14" lengthAdjust="spacing" textLength="71.7842" x="173.3183" y="39.6652">initial data</text><text fill="#000000" font-family="sans-serif" font-size="12" lengthAdjust="spacing" textLength="130.3008" x="139.06" y="64.2198">new unprocessed data</text></g><g id="REVISION_DATA"><rect fill="#F0F8FF" height="78.8867" rx="12.5" ry="12.5" style="stroke:#0000FF;stroke-width:1.0;stroke-dasharray:1.0,3.0;" width="232.9063" x="337.75" y="7"/><line style="stroke:#0000FF;stroke-width:1.0;stroke-dasharray:1.0,3.0;" x1="337.75" x2="570.6563" y1="33.4883" y2="33.4883"/><text fill="#0000FF" font-family="sans-serif" font-size="14" lengthAdjust="spacing" textLength="87.2334" x="410.5864" y="25.5352">revision data</text><text fill="#000000" font-family="sans-serif" font-size="12" lengthAdjust="spacing" textLength="151.0195" x="342.75" y="50.0898">already existing sequence</text><text fill="#000000" font-family="sans-serif" font-size="12" lengthAdjust="spacing" textLength="212.9063" x="342.75" y="64.2227">with status APPROVED_FOR_RELEASE</text><text fill="#000000" font-family="sans-serif" font-size="12" lengthAdjust="spacing" textLength="143.6367" x="342.75" y="78.3555">+ new unprocessed data</text></g><g id="REVOKED_DATA"><rect fill="#F0F8FF" height="64.7539" rx="12.5" ry="12.5" style="stroke:#0000FF;stroke-width:1.0;stroke-dasharray:1.0,3.0;" width="232.9063" x="588.75" y="283.35"/><line style="stroke:#0000FF;stroke-width:1.0;stroke-dasharray:1.0,3.0;" x1="588.75" x2="821.6563" y1="309.8383" y2="309.8383"/><text fill="#0000FF" font-family="sans-serif" font-size="14" lengthAdjust="spacing" textLength="104.7881" x="652.8091" y="301.8852">revocation data</text><text fill="#000000" font-family="sans-serif" font-size="12" lengthAdjust="spacing" textLength="151.0195" x="593.75" y="326.4398">already existing sequence</text><text fill="#000000" font-family="sans-serif" font-size="12" lengthAdjust="spacing" textLength="212.9063" x="593.75" y="340.5727">with status APPROVED_FOR_RELEASE</text></g><rect fill="#F1F1F1" height="40" rx="12.5" ry="12.5" style="stroke:#181818;stroke-width:0.5;" width="74.9756" x="293.72" y="295.73"/><text fill="#000000" font-family="sans-serif" font-size="14" lengthAdjust="spacing" textLength="64.9756" x="298.72" y="321.021">RECEIVED</text><rect fill="#F1F1F1" height="40" rx="12.5" ry="12.5" style="stroke:#181818;stroke-width:0.5;" width="115.6904" x="102.36" y="434.84"/><text fill="#000000" font-family="sans-serif" font-size="14" lengthAdjust="spacing" textLength="105.6904" x="107.36" y="460.131">IN_PROCESSING</text><rect fill="#F1F1F1" height="40" rx="12.5" ry="12.5" style="stroke:#181818;stroke-width:0.5;" width="87.8955" x="394.26" y="561.57"/><text fill="#000000" font-family="sans-serif" font-size="14" lengthAdjust="spacing" textLength="77.8955" x="399.26" y="586.861">PROCESSED</text><rect fill="#F1F1F1" height="40" rx="12.5" ry="12.5" style="stroke:#181818;stroke-width:0.5;" width="179.6064" x="249.4" y="793.57"/><text fill="#000000" font-family="sans-serif" font-size="14" lengthAdjust="spacing" textLength="169.6064" x="254.4" y="818.861">APPROVED_FOR_RELEASE</text><rect fill="#90EE90" height="42.9766" rx="12.5" ry="12.5" style="stroke:#008000;stroke-width:1.0;stroke-dasharray:1.0,3.0;" width="179.5723" x="119.42" y="171.13"/><text fill="#000000" font-family="sans-serif" font-size="14" lengthAdjust="spacing" textLength="169.5723" x="124.42" y="189.6652">entry with new accession</text><text fill="#000000" font-family="sans-serif" font-size="14" lengthAdjust="spacing" textLength="98.6768" x="162.0826" y="206.1534">will be created</text><rect fill="#90EE90" height="59.4648" rx="12.5" ry="12.5" style="stroke:#008000;stroke-width:1.0;stroke-dasharray:1.0,3.0;" width="239.8242" x="334.3" y="162.89"/><text fill="#000000" font-family="sans-serif" font-size="14" lengthAdjust="spacing" textLength="196.5674" x="355.9284" y="181.4252">entry with existing accession</text><text fill="#000000" font-family="sans-serif" font-size="14" lengthAdjust="spacing" textLength="225.3945" x="343.7297" y="197.9134">and incremented version number</text><text fill="#000000" font-family="sans-serif" font-size="14" lengthAdjust="spacing" textLength="98.6768" x="407.0886" y="214.4017">will be created</text><rect fill="#90EE90" height="59.4648" rx="12.5" ry="12.5" style="stroke:#008000;stroke-width:1.0;stroke-dasharray:1.0,3.0;" width="274.8105" x="567.8" y="425.11"/><text fill="#000000" font-family="sans-serif" font-size="14" lengthAdjust="spacing" textLength="200.9971" x="604.7067" y="443.6452">entry with existing accession,</text><text fill="#000000" font-family="sans-serif" font-size="14" lengthAdjust="spacing" textLength="200.1631" x="605.1237" y="460.1334">incremented version number,</text><text fill="#000000" font-family="sans-serif" font-size="14" lengthAdjust="spacing" textLength="260.3809" x="577.2297" y="476.6217">and is_revocation=true will be created</text><rect fill="#CD5C5C" height="40" rx="12.5" ry="12.5" style="stroke:#FF0000;stroke-width:1.0;stroke-dasharray:1.0,3.0;" width="147.9014" x="464.26" y="793.57"/><text fill="#000000" font-family="sans-serif" font-size="14" lengthAdjust="spacing" textLength="137.9014" x="469.26" y="818.861">entry will be deleted</text><g id="elem_is_approved"><polygon fill="#F1F1F1" points="438.21,662.57,450.21,674.57,438.21,686.57,426.21,674.57,438.21,662.57" style="stroke:#181818;stroke-width:0.5;"/></g><!--link INITIAL_DATA to CREATING_SUBMIT--><g id="link_INITIAL_DATA_CREATING_SUBMIT"><path d="M209.21,72.23 C209.21,100.08 209.21,138.81 209.21,164.89 " fill="none" id="INITIAL_DATA-to-CREATING_SUBMIT" style="stroke:#181818;stroke-width:1.0;"/><polygon fill="#181818" points="209.21,170.89,213.21,161.89,209.21,165.89,205.21,161.89,209.21,170.89" style="stroke:#181818;stroke-width:1.0;"/><text fill="#000000" font-family="sans-serif" font-size="13" lengthAdjust="spacing" textLength="111.0903" x="210.21" y="129.4584">initial submission</text></g><!--link CREATING_SUBMIT to RECEIVED--><g id="link_CREATING_SUBMIT_RECEIVED"><path d="M230.18,214.44 C253.07,237.16 285.1721,269.0227 307.4621,291.1527 " fill="none" id="CREATING_SUBMIT-to-RECEIVED" style="stroke:#181818;stroke-width:1.0;"/><polygon fill="#181818" points="311.72,295.38,308.1514,286.2004,308.1718,291.8572,302.5149,291.8776,311.72,295.38" style="stroke:#181818;stroke-width:1.0;"/></g><!--link REVISION_DATA to CREATING_REVISE--><g id="link_REVISION_DATA_CREATING_REVISE"><path d="M454.21,86.08 C454.21,110.1 454.21,134.49 454.21,156.49 " fill="none" id="REVISION_DATA-to-CREATING_REVISE" style="stroke:#181818;stroke-width:1.0;"/><polygon fill="#181818" points="454.21,162.49,458.21,153.49,454.21,157.49,450.21,153.49,454.21,162.49" style="stroke:#181818;stroke-width:1.0;"/><text fill="#000000" font-family="sans-serif" font-size="13" lengthAdjust="spacing" textLength="135.0845" x="455.21" y="129.4584">user initiates revision</text></g><!--link CREATING_REVISE to RECEIVED--><g id="link_CREATING_REVISE_RECEIVED"><path d="M424.75,222.63 C401.86,245.16 375.0347,271.5697 355.1147,291.1897 " fill="none" id="CREATING_REVISE-to-RECEIVED" style="stroke:#181818;stroke-width:1.0;"/><polygon fill="#181818" points="350.84,295.4,360.0589,291.9343,354.4023,291.8914,354.4452,286.2347,350.84,295.4" style="stroke:#181818;stroke-width:1.0;"/></g><!--link REVOKED_DATA to CREATING_REVOKE--><g id="link_REVOKED_DATA_CREATING_REVOKE"><path d="M705.21,348.53 C705.21,371.63 705.21,396.63 705.21,419.01 " fill="none" id="REVOKED_DATA-to-CREATING_REVOKE" style="stroke:#181818;stroke-width:1.0;"/><polygon fill="#181818" points="705.21,425.01,709.21,416.01,705.21,420.01,701.21,416.01,705.21,425.01" style="stroke:#181818;stroke-width:1.0;"/><text fill="#000000" font-family="sans-serif" font-size="13" lengthAdjust="spacing" textLength="151.3853" x="706.21" y="391.6784">user initiates revocation</text></g><!--link CREATING_REVOKE to PROCESSED--><g id="link_CREATING_REVOKE_PROCESSED"><path d="M642.94,484.92 C592.71,508.39 528.8761,538.2105 485.1861,558.6205 " fill="none" id="CREATING_REVOKE-to-PROCESSED" style="stroke:#181818;stroke-width:1.0;"/><polygon fill="#181818" points="479.75,561.16,489.5971,560.9748,484.2801,559.0438,486.2111,553.7267,479.75,561.16" style="stroke:#181818;stroke-width:1.0;"/></g><!--link RECEIVED to IN_PROCESSING--><g id="link_RECEIVED_IN_PROCESSING"><path d="M307.07,336.08 C274.57,362.14 221.7613,404.4869 189.1813,430.6069 " fill="none" id="RECEIVED-to-IN_PROCESSING" style="stroke:#181818;stroke-width:1.0;"/><polygon fill="#181818" points="184.5,434.36,194.024,431.8512,188.4011,431.2324,189.0199,425.6095,184.5,434.36" style="stroke:#181818;stroke-width:1.0;"/><text fill="#000000" font-family="sans-serif" font-size="13" lengthAdjust="spacing" textLength="128.9082" x="251.83" y="391.6784">preprocessing starts</text></g><!--link IN_PROCESSING to PROCESSED--><g id="link_IN_PROCESSING_PROCESSED"><path d="M101.99,468.4 C56.84,480.73 6,502.01 32.21,531.57 C55.93,558.33 287.848,573.0109 388.078,578.1809 " fill="none" id="IN_PROCESSING-to-PROCESSED" style="stroke:#181818;stroke-width:1.0;"/><polygon fill="#181818" points="394.07,578.49,385.288,574.0317,389.0766,578.2324,384.8759,582.0211,394.07,578.49" style="stroke:#181818;stroke-width:1.0;"/><text fill="#000000" font-family="sans-serif" font-size="13" lengthAdjust="spacing" textLength="378.8218" x="33.21" y="528.1384">preprocessing done, might contain errors that need editing.</text></g><!--link PROCESSED to RECEIVED--><g id="link_PROCESSED_RECEIVED"><path d="M436.84,561.26 C433.5,523.81 422.59,439.61 389.21,378.11 C380.54,362.13 371.0626,351.3064 359.0526,340.1864 " fill="none" id="PROCESSED-to-RECEIVED" style="stroke:#181818;stroke-width:1.0;"/><polygon fill="#181818" points="354.65,336.11,358.5364,345.1597,358.3189,339.507,363.9715,339.2895,354.65,336.11" style="stroke:#181818;stroke-width:1.0;"/><text fill="#000000" font-family="sans-serif" font-size="13" lengthAdjust="spacing" textLength="93.5581" x="426.54" y="459.9084">user edits data</text></g><!--link PROCESSED to is_approved--><g id="link_PROCESSED_is_approved"><path d="M438.21,601.87 C438.21,620.13 438.21,640.93 438.21,656.06 " fill="none" id="PROCESSED-to-is_approved" style="stroke:#181818;stroke-width:1.0;"/><polygon fill="#181818" points="438.21,662.06,442.21,653.06,438.21,657.06,434.21,653.06,438.21,662.06" style="stroke:#181818;stroke-width:1.0;"/></g><!--link is_approved to APPROVED_FOR_RELEASE--><g id="link_is_approved_APPROVED_FOR_RELEASE"><path d="M428.41,677.39 C410.7,681.23 373.5,691.92 355.21,716.57 C338.59,738.96 336.5236,766.3743 337.3136,787.2943 " fill="none" id="is_approved-to-APPROVED_FOR_RELEASE" style="stroke:#181818;stroke-width:1.0;"/><polygon fill="#181818" points="337.54,793.29,341.1975,784.1455,337.3513,788.2936,333.2032,784.4474,337.54,793.29" style="stroke:#181818;stroke-width:1.0;"/><text fill="#000000" font-family="sans-serif" font-size="13" lengthAdjust="spacing" textLength="88.8164" x="379.1123" y="730.1384">user approves</text><text fill="#000000" font-family="sans-serif" font-size="13" lengthAdjust="spacing" textLength="138.7344" x="356.21" y="745.4489">or automatic approval</text><text fill="#000000" font-family="sans-serif" font-size="13" lengthAdjust="spacing" textLength="125.417" x="364.9253" y="760.7595">via 'release_directly'</text></g><!--link is_approved to DELETION--><g id="link_is_approved_DELETION"><path d="M446.04,678.96 C458.82,684.85 484.24,698.15 499.21,716.57 C517.81,739.46 527.094,766.6095 532.434,787.3495 " fill="none" id="is_approved-to-DELETION" style="stroke:#181818;stroke-width:1.0;"/><polygon fill="#181818" points="533.93,793.16,535.5596,783.4469,532.6833,788.3179,527.8123,785.4416,533.93,793.16" style="stroke:#181818;stroke-width:1.0;"/><text fill="#000000" font-family="sans-serif" font-size="13" lengthAdjust="spacing" textLength="73.2773" x="525.55" y="745.1384">user rejects</text></g><!--SRC=[hLJ1RXen4Btp5QFqa4D9Fe2aI9HigrNJ4079gTBAh4V1rUAbzYm9glBl7HilkuP5ZPfoMkoPzzwCtmm0m59915ojQGiIRMxKcbIfUps-WdDGUbqHI4727rWIX93UfVDqT9lTZEOZ41REb5QaHE7Zpk23A5IEYwB2gq9f7Eo_BcL9XFAAy8NyAVpsgExNnXo0ncUezDgKELgBiX7WVgyjATFaCPsbaxj6Yy6Dibp1UyH4g0CGXK4Xju0lofBIJs3nLuKwnrC9pugMNc1bONH_Fvqy9ZVPbyaqcoQtoMYMdChxUBhmWw8dtnYnNNEP2_gNggEYzwXlhBaL_wQINsjRXK1VZeqg6oSfPqPconXjdCncwTtNrdauZ68xqZkr11KYTorhyu-doMZEFDdiuVFtTEwRYvhCTbUVUnsHkwVXl1-Q3ui25WWvzugxodqlrDEIdWoYtZM- -GoTxoBpBaWEoVQTRpCABNaccM_5aUoF3HflTbsj5cZ-goH-tBzBwZFbQJrzg2NRhF7e9p8yRUyJUiClEUV1YHJk02KMk0DCjLH2Jzdk7i-4ZsCqbYVMF7GRhk3wEb-MF3p3OMqJCa9RrLWbMdyN5yCZrmoWNeYsMgoKRvJFF0nqoP5dutKMOGUJ3A2oQ0813m_K-ouc2D4HGUzmQey8t9Dt4OI7Ew9myGwZcSN0iMFqTz7yClhQO5XlVgkGC5ItjHqOmHwboL9Z7rREC92NceJIWCQKnW8j1V6WyakYLCwibnwzmMhtfAxMXTfcsSR1BNVusxPRt7tNYgc1Gw3bGIZvNqNbYbkPXtDHy7nib81pmwOL5ZEf3EPKRCyxcVQk3-W6VtAqxVq1]--></g></svg>