<?xml version="1.0" encoding="us-ascii" standalone="no"?><svg xmlns="http://www.w3.org/2000/svg" xmlns:xlink="http://www.w3.org/1999/xlink" contentStyleType="text/css" height="954px" preserveAspectRatio="none" style="width:731px;height:954px;background:#FFFFFF;" version="1.1" viewBox="0 0 731 954" width="731px" zoomAndPan="magnify"><defs/><g><g id="INITIAL_DATA"><rect fill="#F0F8FF" height="50.2656" rx="12.5" ry="12.5" style="stroke:#0000FF;stroke-width:1.0;stroke-dasharray:1.0,3.0;" width="164" x="17" y="21"/><line style="stroke:#0000FF;stroke-width:1.0;stroke-dasharray:1.0,3.0;" x1="17" x2="181" y1="47.2969" y2="47.2969"/><text fill="#0000FF" font-family="sans-serif" font-size="14" lengthAdjust="spacing" textLength="68" x="65" y="38.9951">initial data</text><text fill="#000000" font-family="sans-serif" font-size="12" lengthAdjust="spacing" textLength="144" x="22" y="63.4355">new unprocessed data</text></g><g id="REVISION_DATA"><rect fill="#F0F8FF" height="78.2031" rx="12.5" ry="12.5" style="stroke:#0000FF;stroke-width:1.0;stroke-dasharray:1.0,3.0;" width="249" x="223.5" y="7"/><line style="stroke:#0000FF;stroke-width:1.0;stroke-dasharray:1.0,3.0;" x1="223.5" x2="472.5" y1="33.2969" y2="33.2969"/><text fill="#0000FF" font-family="sans-serif" font-size="14" lengthAdjust="spacing" textLength="87" x="304.5" y="24.9951">revision data</text><text fill="#000000" font-family="sans-serif" font-size="12" lengthAdjust="spacing" textLength="164" x="228.5" y="49.4355">already existing sequence</text><text fill="#000000" font-family="sans-serif" font-size="12" lengthAdjust="spacing" textLength="229" x="228.5" y="63.4043">with status APPROVED_FOR_RELEASE</text><text fill="#000000" font-family="sans-serif" font-size="12" lengthAdjust="spacing" textLength="158" x="228.5" y="77.373">+ new unprocessed data</text></g><g id="REVOKED_DATA"><rect fill="#F0F8FF" height="64.2344" rx="12.5" ry="12.5" style="stroke:#0000FF;stroke-width:1.0;stroke-dasharray:1.0,3.0;" width="249" x="318.5" y="399"/><line style="stroke:#0000FF;stroke-width:1.0;stroke-dasharray:1.0,3.0;" x1="318.5" x2="567.5" y1="425.2969" y2="425.2969"/><text fill="#0000FF" font-family="sans-serif" font-size="14" lengthAdjust="spacing" textLength="106" x="390" y="416.9951">revocation data</text><text fill="#000000" font-family="sans-serif" font-size="12" lengthAdjust="spacing" textLength="164" x="323.5" y="441.4355">already existing sequence</text><text fill="#000000" font-family="sans-serif" font-size="12" lengthAdjust="spacing" textLength="229" x="323.5" y="455.4043">with status APPROVED_FOR_RELEASE</text></g><rect fill="#F1F1F1" height="40" rx="12.5" ry="12.5" style="stroke:#181818;stroke-width:0.5;" width="80" x="183" y="282"/><text fill="#000000" font-family="sans-serif" font-size="14" lengthAdjust="spacing" textLength="70" x="188" y="306.8467">RECEIVED</text><rect fill="#F1F1F1" height="40" rx="12.5" ry="12.5" style="stroke:#181818;stroke-width:0.5;" width="121" x="162.5" y="411"/><text fill="#000000" font-family="sans-serif" font-size="14" lengthAdjust="spacing" textLength="111" x="167.5" y="435.8467">IN_PROCESSING</text><rect fill="#F1F1F1" height="40" rx="12.5" ry="12.5" style="stroke:#181818;stroke-width:0.5;" width="104" x="83" y="676"/><text fill="#000000" font-family="sans-serif" font-size="14" lengthAdjust="spacing" textLength="94" x="88" y="700.8467">HAS_ERRORS</text><rect fill="#F1F1F1" height="40" rx="12.5" ry="12.5" style="stroke:#181818;stroke-width:0.5;" width="192" x="325" y="908"/><text fill="#000000" font-family="sans-serif" font-size="14" lengthAdjust="spacing" textLength="182" x="330" y="932.8467">APPROVED_FOR_RELEASE</text><rect fill="#F1F1F1" height="40" rx="12.5" ry="12.5" style="stroke:#181818;stroke-width:0.5;" width="157" x="444.5" y="676"/><text fill="#000000" font-family="sans-serif" font-size="14" lengthAdjust="spacing" textLength="147" x="449.5" y="700.8467">AWAITING_APPROVAL</text><rect fill="#90EE90" height="42.5938" rx="12.5" ry="12.5" style="stroke:#008000;stroke-width:1.0;stroke-dasharray:1.0,3.0;" width="184" x="7" y="170"/><text fill="#000000" font-family="sans-serif" font-size="14" lengthAdjust="spacing" textLength="174" x="12" y="187.9951">entry with new accession</text><text fill="#000000" font-family="sans-serif" font-size="14" lengthAdjust="spacing" textLength="99" x="51.5" y="204.292">will be created</text><rect fill="#90EE90" height="58.8906" rx="12.5" ry="12.5" style="stroke:#008000;stroke-width:1.0;stroke-dasharray:1.0,3.0;" width="244" x="226" y="162"/><text fill="#000000" font-family="sans-serif" font-size="14" lengthAdjust="spacing" textLength="198" x="249" y="179.9951">entry with existing accession</text><text fill="#000000" font-family="sans-serif" font-size="14" lengthAdjust="spacing" textLength="230" x="235" y="196.292">and incremented version number</text><text fill="#000000" font-family="sans-serif" font-size="14" lengthAdjust="spacing" textLength="99" x="300.5" y="212.5889">will be created</text><rect fill="#90EE90" height="58.8906" rx="12.5" ry="12.5" style="stroke:#008000;stroke-width:1.0;stroke-dasharray:1.0,3.0;" width="277" x="306.5" y="540"/><text fill="#000000" font-family="sans-serif" font-size="14" lengthAdjust="spacing" textLength="202" x="344" y="557.9951">entry with existing accession,</text><text fill="#000000" font-family="sans-serif" font-size="14" lengthAdjust="spacing" textLength="204" x="343" y="574.292">incremented version number,</text><text fill="#000000" font-family="sans-serif" font-size="14" lengthAdjust="spacing" textLength="263" x="315.5" y="590.5889">and is_revocation=true will be created</text><rect fill="#CD5C5C" height="40" rx="12.5" ry="12.5" style="stroke:#FF0000;stroke-width:1.0;stroke-dasharray:1.0,3.0;" width="148" x="552" y="908"/><text fill="#000000" font-family="sans-serif" font-size="14" lengthAdjust="spacing" textLength="138" x="557" y="932.8467">entry will be deleted</text><g id="elem_is_error"><polygon fill="#F1F1F1" points="227,557.5,239,569.5,227,581.5,215,569.5,227,557.5" style="stroke:#181818;stroke-width:0.5;"/></g><g id="elem_is_approved"><polygon fill="#F1F1F1" points="523,777,535,789,523,801,511,789,523,777" style="stroke:#181818;stroke-width:0.5;"/></g><!--link INITIAL_DATA to CREATING_SUBMIT--><g id="link_INITIAL_DATA_CREATING_SUBMIT"><path d="M99,71.02 C99,98.62 99,137.48 99,163.67 " fill="none" id="INITIAL_DATA-to-CREATING_SUBMIT" style="stroke:#181818;stroke-width:1.0;"/><polygon fill="#181818" points="99,169.67,103,160.67,99,164.67,95,160.67,99,169.67" style="stroke:#181818;stroke-width:1.0;"/><text fill="#000000" font-family="sans-serif" font-size="13" lengthAdjust="spacing" textLength="109" x="100" y="128.0669">initial submission</text></g><!--link CREATING_SUBMIT to RECEIVED--><g id="link_CREATING_SUBMIT_RECEIVED"><path d="M122.62,213.16 C145.24,232.96 174.5939,258.6497 196.6239,277.9197 " fill="none" id="CREATING_SUBMIT-to-RECEIVED" style="stroke:#181818;stroke-width:1.0;"/><polygon fill="#181818" points="201.14,281.87,196.9994,272.9338,197.3766,278.5781,191.7323,278.9553,201.14,281.87" style="stroke:#181818;stroke-width:1.0;"/></g><!--link REVISION_DATA to CREATING_REVISE--><g id="link_REVISION_DATA_CREATING_REVISE"><path d="M348,85.08 C348,109.16 348,133.78 348,155.81 " fill="none" id="REVISION_DATA-to-CREATING_REVISE" style="stroke:#181818;stroke-width:1.0;"/><polygon fill="#181818" points="348,161.81,352,152.81,348,156.81,344,152.81,348,161.81" style="stroke:#181818;stroke-width:1.0;"/><text fill="#000000" font-family="sans-serif" font-size="13" lengthAdjust="spacing" textLength="135" x="349" y="128.0669">user initiates revision</text></g><!--link CREATING_REVISE to RECEIVED--><g id="link_CREATING_REVISE_RECEIVED"><path d="M315.16,221.01 C293.02,240.22 268.9617,261.1077 249.5317,277.9677 " fill="none" id="CREATING_REVISE-to-RECEIVED" style="stroke:#181818;stroke-width:1.0;"/><polygon fill="#181818" points="245,281.9,254.4192,279.0227,248.7765,278.6231,249.1761,272.9803,245,281.9" style="stroke:#181818;stroke-width:1.0;"/></g><!--link REVOKED_DATA to CREATING_REVOKE--><g id="link_REVOKED_DATA_CREATING_REVOKE"><path d="M440.65,463.13 C439.86,477.41 439.34,494.57 440,510 C440.42,519.78 440.6864,524.4738 441.5364,533.9938 " fill="none" id="REVOKED_DATA-to-CREATING_REVOKE" style="stroke:#181818;stroke-width:1.0;"/><polygon fill="#181818" points="442.07,539.97,445.2538,530.6499,441.6253,534.9898,437.2855,531.3614,442.07,539.97" style="stroke:#181818;stroke-width:1.0;"/><text fill="#000000" font-family="sans-serif" font-size="13" lengthAdjust="spacing" textLength="153" x="441" y="506.0669">user initiates revocation</text></g><!--link CREATING_REVOKE to AWAITING_APPROVAL--><g id="link_CREATING_REVOKE_AWAITING_APPROVAL"><path d="M477.15,599.02 C485.8,607.95 494.54,618.28 501,629 C509.79,643.58 514.1328,656.2972 517.5428,670.0172 " fill="none" id="CREATING_REVOKE-to-AWAITING_APPROVAL" style="stroke:#181818;stroke-width:1.0;"/><polygon fill="#181818" points="518.99,675.84,520.7011,666.1409,517.784,670.9876,512.9373,668.0705,518.99,675.84" style="stroke:#181818;stroke-width:1.0;"/></g><!--link RECEIVED to IN_PROCESSING--><g id="link_RECEIVED_IN_PROCESSING"><path d="M223,322.01 C223,345.96 223,380.85 223,404.86 " fill="none" id="RECEIVED-to-IN_PROCESSING" style="stroke:#181818;stroke-width:1.0;"/><polygon fill="#181818" points="223,410.86,227,401.86,223,405.86,219,401.86,223,410.86" style="stroke:#181818;stroke-width:1.0;"/><text fill="#000000" font-family="sans-serif" font-size="13" lengthAdjust="spacing" textLength="131" x="224" y="365.0669">preprocessing starts</text></g><!--link IN_PROCESSING to is_error--><g id="link_IN_PROCESSING_is_error"><path d="M223.56,451.27 C224.42,480.37 225.8359,528.5825 226.5059,551.6625 " fill="none" id="IN_PROCESSING-to-is_error" style="stroke:#181818;stroke-width:1.0;"/><polygon fill="#181818" points="226.68,557.66,230.4172,548.5477,226.5349,552.6621,222.4205,548.7799,226.68,557.66" style="stroke:#181818;stroke-width:1.0;"/></g><!--link is_error to HAS_ERRORS--><g id="link_is_error_HAS_ERRORS"><path d="M220.26,574.85 C207.15,583.61 178.03,604.66 161,629 C150.98,643.33 145.796,656.3236 141.636,670.1736 " fill="none" id="is_error-to-HAS_ERRORS" style="stroke:#181818;stroke-width:1.0;"/><polygon fill="#181818" points="139.91,675.92,146.3299,668.4511,141.3483,671.1313,138.6681,666.1498,139.91,675.92" style="stroke:#181818;stroke-width:1.0;"/><text fill="#000000" font-family="sans-serif" font-size="13" lengthAdjust="spacing" textLength="132" x="162" y="642.0669">data contain error(s)</text></g><!--link HAS_ERRORS to RECEIVED--><g id="link_HAS_ERRORS_RECEIVED"><path d="M130.36,675.95 C119.45,626.79 96.57,492.91 145,399 C160.25,369.42 181.4577,344.7718 199.1077,326.5318 " fill="none" id="HAS_ERRORS-to-RECEIVED" style="stroke:#181818;stroke-width:1.0;"/><polygon fill="#181818" points="203.28,322.22,194.147,325.9062,199.8031,325.8132,199.896,331.4693,203.28,322.22" style="stroke:#181818;stroke-width:1.0;"/><text fill="#000000" font-family="sans-serif" font-size="13" lengthAdjust="spacing" textLength="96" x="120" y="506.0669">user edits data</text></g><!--link AWAITING_APPROVAL to RECEIVED--><g id="link_AWAITING_APPROVAL_RECEIVED"><path d="M545.38,675.92 C564.29,658.21 590.01,629.96 601,599 C630.84,514.97 644.45,465.47 585,399 C541.98,350.9 353.9748,320.4817 269.0148,308.8817 " fill="none" id="AWAITING_APPROVAL-to-RECEIVED" style="stroke:#181818;stroke-width:1.0;"/><polygon fill="#181818" points="263.07,308.07,271.4461,313.2507,268.024,308.7464,272.5284,305.3243,263.07,308.07" style="stroke:#181818;stroke-width:1.0;"/><text fill="#000000" font-family="sans-serif" font-size="13" lengthAdjust="spacing" textLength="96" x="627" y="506.0669">user edits data</text></g><!--link is_error to AWAITING_APPROVAL--><g id="link_is_error_AWAITING_APPROVAL"><path d="M233.03,576.19 C248.22,590.2 289.8,626.66 331,646 C366.5,662.67 402.5944,672.947 438.2144,680.617 " fill="none" id="is_error-to-AWAITING_APPROVAL" style="stroke:#181818;stroke-width:1.0;"/><polygon fill="#181818" points="444.08,681.88,436.1237,676.0751,439.192,680.8275,434.4396,683.8958,444.08,681.88" style="stroke:#181818;stroke-width:1.0;"/><text fill="#000000" font-family="sans-serif" font-size="13" lengthAdjust="spacing" textLength="160" x="332" y="642.0669">preprocessing successful</text></g><!--link AWAITING_APPROVAL to is_approved--><g id="link_AWAITING_APPROVAL_is_approved"><path d="M523,716.3 C523,734.66 523,755.67 523,770.75 " fill="none" id="AWAITING_APPROVAL-to-is_approved" style="stroke:#181818;stroke-width:1.0;"/><polygon fill="#181818" points="523,776.75,527,767.75,523,771.75,519,767.75,523,776.75" style="stroke:#181818;stroke-width:1.0;"/></g><!--link is_approved to APPROVED_FOR_RELEASE--><g id="link_is_approved_APPROVED_FOR_RELEASE"><path d="M513.55,791.81 C496.07,795.69 458.77,806.5 440,831 C422.95,853.25 419.9786,880.7 420.0186,901.67 " fill="none" id="is_approved-to-APPROVED_FOR_RELEASE" style="stroke:#181818;stroke-width:1.0;"/><polygon fill="#181818" points="420.03,907.67,424.0128,898.6624,420.0205,902.67,416.0128,898.6776,420.03,907.67" style="stroke:#181818;stroke-width:1.0;"/><text fill="#000000" font-family="sans-serif" font-size="13" lengthAdjust="spacing" textLength="91" x="464" y="844.0669">user approves</text><text fill="#000000" font-family="sans-serif" font-size="13" lengthAdjust="spacing" textLength="141" x="441" y="859.1997">or automatic approval</text><text fill="#000000" font-family="sans-serif" font-size="13" lengthAdjust="spacing" textLength="128" x="449.5" y="874.3325">via 'release_directly'</text></g><!--link is_approved to DELETION--><g id="link_is_approved_DELETION"><path d="M531.22,793.29 C544.64,799.03 571.31,812.12 587,831 C605.97,853.83 615.2282,881.2908 620.4482,902.0708 " fill="none" id="is_approved-to-DELETION" style="stroke:#181818;stroke-width:1.0;"/><polygon fill="#181818" points="621.91,907.89,623.5968,898.1867,620.6918,903.0407,615.8378,900.1357,621.91,907.89" style="stroke:#181818;stroke-width:1.0;"/><text fill="#000000" font-family="sans-serif" font-size="13" lengthAdjust="spacing" textLength="75" x="613" y="859.0669">user rejects</text></g><!--SRC=[hLHTRzCm57tlhxWQ3mMnyGEwKIcqOKIKTahAU46AtEJI6gLEiPrk5Tf_vyPrchXfHiN8KsIVUywvlXy002kU8k1wetUGeaeatsYUYrwFhg0FN6mA3IdJp1mepJH2C0tcWJU9nzxS0wRWWWkkESiCxW9UiOmdkCWAlCwumC7XxrsQQutfjSP7RKxXjs4jloRd00G-G24sCazGAKnh0-NtrB0I-lT15CocjHU9MwueWvUOSLW7m3A9BDq1FdAbkLY2mby5YWIx0XwuNXc3XGBlxYwStVlZ-ECiZ4D_udkHtnNtjZlnewHdducncNEUCFqlMJj97rZFpBc1FolbfwgjBD2aevpCHdv0aKwpnSGsygCecDuspZzvKUo7uIoCde_lD6ElltdKUDFRU8_p9fL5bfJlsJGt2dtFGAEl7xu4S_FoABJSxPClIyUIicuKzrtGOPR10Y6XXwGdfw9aVBdIIuaezbMfVsrPJecP5l6FnGvbQIeoaTB0ajwQaDGyMvHc4aInNg3yhvQeyd-tT4cItNukeRAiuhg1tsj9e_WoesEgyfocod6u9qmnmprX85BEH4YpOFYa_McpaJsKCfTmSvEiSXghuT2zPHkQrotbrm3O9jAI2SNhHd8svzNLiDLJ0wXsgIeMQswUqKGU0yjWfzlTJUXmsnOQGA5GMW6QEwXMfIjWqOv0xtZWMm9bGvmIi6LjIPJuagDZ_YfbWt5M0Abi9DeDQHQJPb9Npzi4bg5LySprePBbJRq_YB7Scf3aGZCkm61UgpScfW5hlaYLAwPSgtfBjx8v9yYnrMPevLkO-VfHPCz8DjgoqZYqgP4viHKhUnQeQ3x952jqlgOQ9lQSPJIsMywWBscMcC8uvH8JdUtw9vKEmsZP9VuajEhz0G00]--></g></svg>