<?xml version="1.0" encoding="us-ascii" standalone="no"?><svg xmlns="http://www.w3.org/2000/svg" xmlns:xlink="http://www.w3.org/1999/xlink" contentStyleType="text/css" height="869px" preserveAspectRatio="none" style="width:847px;height:869px;background:#FFFFFF;" version="1.1" viewBox="0 0 847 869" width="847px" zoomAndPan="magnify"><defs/><g><g id="INITIAL_DATA"><rect fill="#F0F8FF" height="50.2656" rx="12.5" ry="12.5" style="stroke:#0000FF;stroke-width:1.0;stroke-dasharray:1.0,3.0;" width="164" x="23" y="21"/><line style="stroke:#0000FF;stroke-width:1.0;stroke-dasharray:1.0,3.0;" x1="23" x2="187" y1="47.2969" y2="47.2969"/><text fill="#0000FF" font-family="sans-serif" font-size="14" lengthAdjust="spacing" textLength="68" x="71" y="38.9951">initial data</text><text fill="#000000" font-family="sans-serif" font-size="12" lengthAdjust="spacing" textLength="144" x="28" y="63.4355">new unprocessed data</text></g><g id="REVISION_DATA"><rect fill="#F0F8FF" height="78.2031" rx="12.5" ry="12.5" style="stroke:#0000FF;stroke-width:1.0;stroke-dasharray:1.0,3.0;" width="184" x="383" y="7"/><line style="stroke:#0000FF;stroke-width:1.0;stroke-dasharray:1.0,3.0;" x1="383" x2="567" y1="33.2969" y2="33.2969"/><text fill="#0000FF" font-family="sans-serif" font-size="14" lengthAdjust="spacing" textLength="87" x="431.5" y="24.9951">revision data</text><text fill="#000000" font-family="sans-serif" font-size="12" lengthAdjust="spacing" textLength="164" x="388" y="49.4355">already existing sequence</text><text fill="#000000" font-family="sans-serif" font-size="12" lengthAdjust="spacing" textLength="145" x="388" y="63.4043">with status SILO_READY</text><text fill="#000000" font-family="sans-serif" font-size="12" lengthAdjust="spacing" textLength="158" x="388" y="77.373">+ new unprocessed data</text></g><g id="REVOKED_DATA"><rect fill="#F0F8FF" height="64.2344" rx="12.5" ry="12.5" style="stroke:#0000FF;stroke-width:1.0;stroke-dasharray:1.0,3.0;" width="184" x="69" y="516"/><line style="stroke:#0000FF;stroke-width:1.0;stroke-dasharray:1.0,3.0;" x1="69" x2="253" y1="542.2969" y2="542.2969"/><text fill="#0000FF" font-family="sans-serif" font-size="14" lengthAdjust="spacing" textLength="106" x="108" y="533.9951">revocation data</text><text fill="#000000" font-family="sans-serif" font-size="12" lengthAdjust="spacing" textLength="164" x="74" y="558.4355">already existing sequence</text><text fill="#000000" font-family="sans-serif" font-size="12" lengthAdjust="spacing" textLength="145" x="74" y="572.4043">with status SILO_READY</text></g><rect fill="#F1F1F1" height="40" rx="12.5" ry="12.5" style="stroke:#181818;stroke-width:0.5;" width="147" x="332.5" y="666.5"/><text fill="#000000" font-family="sans-serif" font-size="14" lengthAdjust="spacing" textLength="137" x="337.5" y="691.3467">STAGING_REVOKED</text><rect fill="#F1F1F1" height="40" rx="12.5" ry="12.5" style="stroke:#181818;stroke-width:0.5;" width="80" x="238" y="171.5"/><text fill="#000000" font-family="sans-serif" font-size="14" lengthAdjust="spacing" textLength="70" x="243" y="196.3467">RECEIVED</text><rect fill="#F1F1F1" height="40" rx="12.5" ry="12.5" style="stroke:#181818;stroke-width:0.5;" width="101" x="227.5" y="298"/><text fill="#000000" font-family="sans-serif" font-size="14" lengthAdjust="spacing" textLength="91" x="232.5" y="322.8467">PROCESSING</text><rect fill="#F1F1F1" height="40" rx="12.5" ry="12.5" style="stroke:#181818;stroke-width:0.5;" width="129" x="712.5" y="298"/><text fill="#000000" font-family="sans-serif" font-size="14" lengthAdjust="spacing" textLength="119" x="717.5" y="322.8467">REVIEW_NEEDED</text><rect fill="#F1F1F1" height="40" rx="12.5" ry="12.5" style="stroke:#181818;stroke-width:0.5;" width="83" x="496.5" y="298"/><text fill="#000000" font-family="sans-serif" font-size="14" lengthAdjust="spacing" textLength="73" x="501.5" y="322.8467">REVIEWED</text><rect fill="#F1F1F1" height="40" rx="12.5" ry="12.5" style="stroke:#181818;stroke-width:0.5;" width="95" x="479.5" y="823"/><text fill="#000000" font-family="sans-serif" font-size="14" lengthAdjust="spacing" textLength="85" x="484.5" y="847.8467">SILO_READY</text><rect fill="#90EE90" height="42.5938" rx="12.5" ry="12.5" style="stroke:#008000;stroke-width:1.0;stroke-dasharray:1.0,3.0;" width="196" x="7" y="170"/><text fill="#000000" font-family="sans-serif" font-size="14" lengthAdjust="spacing" textLength="186" x="12" y="187.9951">entry with new sequenceId</text><text fill="#000000" font-family="sans-serif" font-size="14" lengthAdjust="spacing" textLength="99" x="57.5" y="204.292">will be created</text><rect fill="#90EE90" height="58.8906" rx="12.5" ry="12.5" style="stroke:#008000;stroke-width:1.0;stroke-dasharray:1.0,3.0;" width="244" x="353" y="162"/><text fill="#000000" font-family="sans-serif" font-size="14" lengthAdjust="spacing" textLength="210" x="370" y="179.9951">entry with existing sequenceId</text><text fill="#000000" font-family="sans-serif" font-size="14" lengthAdjust="spacing" textLength="230" x="362" y="196.292">and incremented version number</text><text fill="#000000" font-family="sans-serif" font-size="14" lengthAdjust="spacing" textLength="99" x="427.5" y="212.5889">will be created</text><rect fill="#90EE90" height="58.8906" rx="12.5" ry="12.5" style="stroke:#008000;stroke-width:1.0;stroke-dasharray:1.0,3.0;" width="272" x="25" y="657"/><text fill="#000000" font-family="sans-serif" font-size="14" lengthAdjust="spacing" textLength="214" x="54" y="674.9951">entry with existing sequenceId,</text><text fill="#000000" font-family="sans-serif" font-size="14" lengthAdjust="spacing" textLength="204" x="59" y="691.292">incremented version number,</text><text fill="#000000" font-family="sans-serif" font-size="14" lengthAdjust="spacing" textLength="258" x="34" y="707.5889">and revoked-flag=true will be created</text><rect fill="#CD5C5C" height="40" rx="12.5" ry="12.5" style="stroke:#FF0000;stroke-width:1.0;stroke-dasharray:1.0,3.0;" width="148" x="651" y="666.5"/><text fill="#000000" font-family="sans-serif" font-size="14" lengthAdjust="spacing" textLength="138" x="656" y="691.3467">entry will be deleted</text><g id="elem_is_error"><polygon fill="#F1F1F1" points="527,415,539,427,527,439,515,427,527,415" style="stroke:#181818;stroke-width:0.5;"/></g><g id="elem_is_approved"><polygon fill="#F1F1F1" points="527,674.5,539,686.5,527,698.5,515,686.5,527,674.5" style="stroke:#181818;stroke-width:0.5;"/></g><rect fill="#F1F1F1" height="40" rx="12.5" ry="12.5" style="stroke:#181818;stroke-width:0.5;" width="72" x="491" y="528"/><text fill="#000000" font-family="sans-serif" font-size="14" lengthAdjust="spacing" textLength="62" x="496" y="552.8467">STAGING</text><!--link INITIAL_DATA to CREATING_SUBMIT--><g id="link_INITIAL_DATA_CREATING_SUBMIT"><path d="M105,71.02 C105,96.9 105,137.94 105,164.55 " fill="none" id="INITIAL_DATA-to-CREATING_SUBMIT" style="stroke:#181818;stroke-width:1.0;"/><polygon fill="#181818" points="105,169.67,109,160.67,105,164.67,101,160.67,105,169.67" style="stroke:#181818;stroke-width:1.0;"/><text fill="#000000" font-family="sans-serif" font-size="13" lengthAdjust="spacing" textLength="109" x="106" y="128.0669">initial submission</text></g><!--link CREATING_SUBMIT to RECEIVED--><g id="link_CREATING_SUBMIT_RECEIVED"><path d="M203.33,191.5 C213.1,191.5 222.87,191.5 232.64,191.5 " fill="none" id="CREATING_SUBMIT-to-RECEIVED" style="stroke:#181818;stroke-width:1.0;"/><polygon fill="#181818" points="237.75,191.5,228.75,187.5,232.75,191.5,228.75,195.5,237.75,191.5" style="stroke:#181818;stroke-width:1.0;"/></g><!--link REVISION_DATA to CREATING_REVISE--><g id="link_REVISION_DATA_CREATING_REVISE"><path d="M475,85.08 C475,107.37 475,135.27 475,156.77 " fill="none" id="REVISION_DATA-to-CREATING_REVISE" style="stroke:#181818;stroke-width:1.0;"/><polygon fill="#181818" points="475,161.81,479,152.81,475,156.81,471,152.81,475,161.81" style="stroke:#181818;stroke-width:1.0;"/><text fill="#000000" font-family="sans-serif" font-size="13" lengthAdjust="spacing" textLength="135" x="476" y="128.0669">user initiates revision</text></g><!--reverse link RECEIVED to CREATING_REVISE--><g id="link_RECEIVED_CREATING_REVISE"><path d="M323.2,191.5 C333.13,191.5 343.05,191.5 352.97,191.5 " fill="none" id="RECEIVED-backto-CREATING_REVISE" style="stroke:#181818;stroke-width:1.0;"/><polygon fill="#181818" points="318.02,191.5,327.02,195.5,323.02,191.5,327.02,187.5,318.02,191.5" style="stroke:#181818;stroke-width:1.0;"/></g><!--link REVOKED_DATA to CREATING_REVOKE--><g id="link_REVOKED_DATA_CREATING_REVOKE"><path d="M161,580.32 C161,601.59 161,629.72 161,651.54 " fill="none" id="REVOKED_DATA-to-CREATING_REVOKE" style="stroke:#181818;stroke-width:1.0;"/><polygon fill="#181818" points="161,656.66,165,647.66,161,651.66,157,647.66,161,656.66" style="stroke:#181818;stroke-width:1.0;"/><text fill="#000000" font-family="sans-serif" font-size="13" lengthAdjust="spacing" textLength="153" x="162" y="623.0669">user initiates revocation</text></g><!--link CREATING_REVOKE to STAGING_REVOKED--><g id="link_CREATING_REVOKE_STAGING_REVOKED"><path d="M297.38,686.5 C307.25,686.5 317.13,686.5 327.01,686.5 " fill="none" id="CREATING_REVOKE-to-STAGING_REVOKED" style="stroke:#181818;stroke-width:1.0;"/><polygon fill="#181818" points="332.17,686.5,323.17,682.5,327.17,686.5,323.17,690.5,332.17,686.5" style="stroke:#181818;stroke-width:1.0;"/></g><!--link STAGING_REVOKED to is_approved--><g id="link_STAGING_REVOKED_is_approved"><path d="M479.73,686.5 C489.69,686.5 499.65,686.5 509.61,686.5 " fill="none" id="STAGING_REVOKED-to-is_approved" style="stroke:#181818;stroke-width:1.0;"/><polygon fill="#181818" points="514.81,686.5,505.81,682.5,509.81,686.5,505.81,690.5,514.81,686.5" style="stroke:#181818;stroke-width:1.0;"/></g><!--link RECEIVED to PROCESSING--><g id="link_RECEIVED_PROCESSING"><path d="M278,211.68 C278,233.37 278,268.74 278,292.43 " fill="none" id="RECEIVED-to-PROCESSING" style="stroke:#181818;stroke-width:1.0;"/><polygon fill="#181818" points="278,297.59,282,288.59,278,292.59,274,288.59,278,297.59" style="stroke:#181818;stroke-width:1.0;"/><text fill="#000000" font-family="sans-serif" font-size="13" lengthAdjust="spacing" textLength="131" x="279" y="264.0669">preprocessing starts</text></g><!--link PROCESSING to is_error--><g id="link_PROCESSING_is_error"><path d="M322.23,338.01 C380.57,363.08 479.91,405.76 514.6,420.67 " fill="none" id="PROCESSING-to-is_error" style="stroke:#181818;stroke-width:1.0;"/><polygon fill="#181818" points="519.24,422.67,512.5434,415.4481,514.6443,420.7004,509.392,422.8013,519.24,422.67" style="stroke:#181818;stroke-width:1.0;"/></g><!--reverse link REVIEW_NEEDED to is_error--><g id="link_REVIEW_NEEDED_is_error"><path d="M727.83,340.05 C665.76,366.61 563.62,410.33 534.79,422.67 " fill="none" id="REVIEW_NEEDED-backto-is_error" style="stroke:#181818;stroke-width:1.0;"/><polygon fill="#181818" points="732.59,338.01,722.742,337.8787,727.9943,339.9796,725.8934,345.2319,732.59,338.01" style="stroke:#181818;stroke-width:1.0;"/><text fill="#000000" font-family="sans-serif" font-size="13" lengthAdjust="spacing" textLength="132" x="660" y="381.0669">data contain error(s)</text></g><!--reverse link REVIEWED to REVIEW_NEEDED--><g id="link_REVIEWED_REVIEW_NEEDED"><path d="M584.89,318 C621.31,318 672.2,318 712.46,318 " fill="none" id="REVIEWED-backto-REVIEW_NEEDED" style="stroke:#181818;stroke-width:1.0;"/><polygon fill="#181818" points="579.63,318,588.63,322,584.63,318,588.63,314,579.63,318" style="stroke:#181818;stroke-width:1.0;"/><text fill="#000000" font-family="sans-serif" font-size="13" lengthAdjust="spacing" textLength="96" x="598" y="311.0669">user edits data</text></g><!--reverse link PROCESSING to REVIEWED--><g id="link_PROCESSING_REVIEWED"><path d="M333.99,318 C382.77,318 452.39,318 496.38,318 " fill="none" id="PROCESSING-backto-REVIEWED" style="stroke:#181818;stroke-width:1.0;"/><polygon fill="#181818" points="328.75,318,337.75,322,333.75,318,337.75,314,328.75,318" style="stroke:#181818;stroke-width:1.0;"/><text fill="#000000" font-family="sans-serif" font-size="13" lengthAdjust="spacing" textLength="131" x="347" y="311.0669">preprocessing starts</text></g><!--link is_error to STAGING--><g id="link_is_error_STAGING"><path d="M527,439.41 C527,458.42 527,496.99 527,522.41 " fill="none" id="is_error-to-STAGING" style="stroke:#181818;stroke-width:1.0;"/><polygon fill="#181818" points="527,527.62,531,518.62,527,522.62,523,518.62,527,527.62" style="stroke:#181818;stroke-width:1.0;"/><text fill="#000000" font-family="sans-serif" font-size="13" lengthAdjust="spacing" textLength="160" x="528" y="482.0669">preprocessing successful</text></g><!--link STAGING to is_approved--><g id="link_STAGING_is_approved"><path d="M527,568.27 C527,595.3 527,644 527,669.28 " fill="none" id="STAGING-to-is_approved" style="stroke:#181818;stroke-width:1.0;"/><polygon fill="#181818" points="527,674.3,531,665.3,527,669.3,523,665.3,527,674.3" style="stroke:#181818;stroke-width:1.0;"/></g><!--link is_approved to SILO_READY--><g id="link_is_approved_SILO_READY"><path d="M527,698.61 C527,723.37 527,783.57 527,817.57 " fill="none" id="is_approved-to-SILO_READY" style="stroke:#181818;stroke-width:1.0;"/><polygon fill="#181818" points="527,822.79,531,813.79,527,817.79,523,813.79,527,822.79" style="stroke:#181818;stroke-width:1.0;"/><text fill="#000000" font-family="sans-serif" font-size="13" lengthAdjust="spacing" textLength="91" x="551" y="759.0669">user approves</text><text fill="#000000" font-family="sans-serif" font-size="13" lengthAdjust="spacing" textLength="141" x="528" y="774.1997">or automatic approval</text><text fill="#000000" font-family="sans-serif" font-size="13" lengthAdjust="spacing" textLength="128" x="536.5" y="789.3325">via 'release_directly'</text></g><!--link is_approved to DELETION--><g id="link_is_approved_DELETION"><path d="M539.09,686.5 C560.06,686.5 604.82,686.5 645.16,686.5 " fill="none" id="is_approved-to-DELETION" style="stroke:#181818;stroke-width:1.0;"/><polygon fill="#181818" points="650.57,686.5,641.57,682.5,645.57,686.5,641.57,690.5,650.57,686.5" style="stroke:#181818;stroke-width:1.0;"/><text fill="#000000" font-family="sans-serif" font-size="13" lengthAdjust="spacing" textLength="75" x="557.5" y="679.5669">user rejects</text></g><!--SRC=[hLJRRXCn47tFLupAGq5q-O2qL0hDgbfH4fI48YIao5bF4uFZ3ROtROJwxuoztdk3Aie-MJDdPywP6m30Hd04tExi0JYQL8kT5PaQ3CW5fo3KBhV0cMNUO2op2CaaMIIZc-Luj1W1Ct0YbB22IOyxWLTCYXHNCiTpAHGEgzSxdbcB_DpYW_LM-EsZkgyPSmWAxo5NEvsbQ0poce3x7XjKPl5jCa-cavgBnhqmfE0bP5fHXy2aHiOFW0_2MA7MOF1NZYh5Op_S2xln17C3y-Hckfp5e_6tO-Ytn-Lsf4u_nkEMqYnbzb-qjgHMKP-fj87_Yz37SeI2suim3JtpnUWwcLmlGyIMqgiukMsPFi-cL_5yJlXEy-EloqaSZpl_EtlBr20NQB7KLQv9w8hy2yTe_kN3fsJXQupAwaCXqpMfB4V2lokoIWahX9HgHjMb-akntjYrHbH50-fdwC1JsVmqnDrilGxub4nnMabAk2Ke3SeUjPzrbMzNgFyh9-h9CpYTKSxZXCuWS7QZ-XDvT2VP-htLj6ml8pgER-85RL2BOH6GeyGYOAAuO6f6S-_ZwV3eHnDcYLfd6Yukqar6AtHvsVQo7UtcdkGr066Ch6RAY7gKMhSnuj5bRwo6K9vBaw-smhXw-L-xm4ZJtwrTQ5-xTlGmHaF83UgGWXOEodlOJX7GaMoc67GNl9_2JSLJAS8XwYLnUA_ZgMtls0fWezmbeO8UHEIjxm3Hs6aCDzCFfMNQ5areeA8YfE-lzrNDZdAllN52AAGxf91coZAXmEDUcpTLxMjaA5nnPygA81VMrCUxSdlmyvZNxEgQzV5vwfvtkMoMiPHQLI_4guRNDxC-X2Nhu3UqgvINvJRRKY_JO6UILdWl69ngMYncSCc5njJAmsa_WUjVjPeXlCOV13U3Fm00]--></g></svg>