<svg xmlns="http://www.w3.org/2000/svg" xmlns:xlink="http://www.w3.org/1999/xlink" contentStyleType="text/css" height="839px" preserveAspectRatio="none" style="width:737px;height:839px;background:#FFFFFF;" version="1.1" viewBox="0 0 737 839" width="737px" zoomAndPan="magnify"><defs/><g><g id="INITIAL_DATA"><rect fill="#F0F8FF" height="50.6211" rx="12.5" ry="12.5" style="stroke:#0000FF;stroke-width:1.0;stroke-dasharray:1.0,3.0;" width="150.3008" x="21.64" y="21.13"/><line style="stroke:#0000FF;stroke-width:1.0;stroke-dasharray:1.0,3.0;" x1="21.64" x2="171.9408" y1="47.6183" y2="47.6183"/><text fill="#0000FF" font-family="sans-serif" font-size="14" lengthAdjust="spacing" textLength="71.7842" x="60.8983" y="39.6652">initial data</text><text fill="#000000" font-family="sans-serif" font-size="12" lengthAdjust="spacing" textLength="130.3008" x="26.64" y="64.2198">new unprocessed data</text></g><g id="REVISION_DATA"><rect fill="#F0F8FF" height="78.8867" rx="12.5" ry="12.5" style="stroke:#0000FF;stroke-width:1.0;stroke-dasharray:1.0,3.0;" width="171.0195" x="256.28" y="7"/><line style="stroke:#0000FF;stroke-width:1.0;stroke-dasharray:1.0,3.0;" x1="256.28" x2="427.2995" y1="33.4883" y2="33.4883"/><text fill="#0000FF" font-family="sans-serif" font-size="14" lengthAdjust="spacing" textLength="87.2334" x="298.1731" y="25.5352">revision data</text><text fill="#000000" font-family="sans-serif" font-size="12" lengthAdjust="spacing" textLength="151.0195" x="261.28" y="50.0898">already existing sequence</text><text fill="#000000" font-family="sans-serif" font-size="12" lengthAdjust="spacing" textLength="124.7578" x="261.28" y="64.2227">with status RELEASED</text><text fill="#000000" font-family="sans-serif" font-size="12" lengthAdjust="spacing" textLength="143.6367" x="261.28" y="78.3555">+ new unprocessed data</text></g><g id="REVOKED_DATA"><rect fill="#F0F8FF" height="64.7539" rx="12.5" ry="12.5" style="stroke:#0000FF;stroke-width:1.0;stroke-dasharray:1.0,3.0;" width="171.0195" x="491.28" y="283.35"/><line style="stroke:#0000FF;stroke-width:1.0;stroke-dasharray:1.0,3.0;" x1="491.28" x2="662.2995" y1="309.8383" y2="309.8383"/><text fill="#0000FF" font-family="sans-serif" font-size="14" lengthAdjust="spacing" textLength="104.7881" x="524.3957" y="301.8852">revocation data</text><text fill="#000000" font-family="sans-serif" font-size="12" lengthAdjust="spacing" textLength="151.0195" x="496.28" y="326.4398">already existing sequence</text><text fill="#000000" font-family="sans-serif" font-size="12" lengthAdjust="spacing" textLength="124.7578" x="496.28" y="340.5727">with status RELEASED</text></g><rect fill="#F1F1F1" height="40" rx="12.5" ry="12.5" style="stroke:#181818;stroke-width:0.5;" width="74.9756" x="181.3" y="295.73"/><text fill="#000000" font-family="sans-serif" font-size="14" lengthAdjust="spacing" textLength="64.9756" x="186.3" y="321.021">RECEIVED</text><rect fill="#F1F1F1" height="40" rx="12.5" ry="12.5" style="stroke:#181818;stroke-width:0.5;" width="115.6904" x="39.94" y="434.84"/><text fill="#000000" font-family="sans-serif" font-size="14" lengthAdjust="spacing" textLength="105.6904" x="44.94" y="460.131">IN_PROCESSING</text><rect fill="#F1F1F1" height="40" rx="12.5" ry="12.5" style="stroke:#181818;stroke-width:0.5;" width="87.8955" x="265.84" y="576.57"/><text fill="#000000" font-family="sans-serif" font-size="14" lengthAdjust="spacing" textLength="77.8955" x="270.84" y="601.861">PROCESSED</text><rect fill="#F1F1F1" height="40" rx="12.5" ry="12.5" style="stroke:#181818;stroke-width:0.5;" width="76.7666" x="147.4" y="793.57"/><text fill="#000000" font-family="sans-serif" font-size="14" lengthAdjust="spacing" textLength="66.7666" x="152.4" y="818.861">RELEASED</text><rect fill="#90EE90" height="42.9766" rx="12.5" ry="12.5" style="stroke:#008000;stroke-width:1.0;stroke-dasharray:1.0,3.0;" width="179.5723" x="7" y="171.13"/><text fill="#000000" font-family="sans-serif" font-size="14" lengthAdjust="spacing" textLength="169.5723" x="12" y="189.6652">entry with new accession</text><text fill="#000000" font-family="sans-serif" font-size="14" lengthAdjust="spacing" textLength="98.6768" x="49.6626" y="206.1534">will be created</text><rect fill="#90EE90" height="59.4648" rx="12.5" ry="12.5" style="stroke:#008000;stroke-width:1.0;stroke-dasharray:1.0,3.0;" width="239.8242" x="221.87" y="162.89"/><text fill="#000000" font-family="sans-serif" font-size="14" lengthAdjust="spacing" textLength="196.5674" x="243.4984" y="181.4252">entry with existing accession</text><text fill="#000000" font-family="sans-serif" font-size="14" lengthAdjust="spacing" textLength="225.3945" x="231.2997" y="197.9134">and incremented version number</text><text fill="#000000" font-family="sans-serif" font-size="14" lengthAdjust="spacing" textLength="98.6768" x="294.6586" y="214.4017">will be created</text><rect fill="#90EE90" height="59.4648" rx="12.5" ry="12.5" style="stroke:#008000;stroke-width:1.0;stroke-dasharray:1.0,3.0;" width="274.8105" x="439.38" y="425.11"/><text fill="#000000" font-family="sans-serif" font-size="14" lengthAdjust="spacing" textLength="200.9971" x="476.2867" y="443.6452">entry with existing accession,</text><text fill="#000000" font-family="sans-serif" font-size="14" lengthAdjust="spacing" textLength="200.1631" x="476.7037" y="460.1334">incremented version number,</text><text fill="#000000" font-family="sans-serif" font-size="14" lengthAdjust="spacing" textLength="260.3809" x="448.8097" y="476.6217">and is_revocation=true will be created</text><rect fill="#CD5C5C" height="40" rx="12.5" ry="12.5" style="stroke:#FF0000;stroke-width:1.0;stroke-dasharray:1.0,3.0;" width="147.9014" x="359.84" y="793.57"/><text fill="#000000" font-family="sans-serif" font-size="14" lengthAdjust="spacing" textLength="137.9014" x="364.84" y="818.861">entry will be deleted</text><g id="elem_is_approved"><polygon fill="#F1F1F1" points="309.79,677.57,321.79,689.57,309.79,701.57,297.79,689.57,309.79,677.57" style="stroke:#181818;stroke-width:0.5;"/></g><!--link INITIAL_DATA to CREATING_SUBMIT--><g id="link_INITIAL_DATA_CREATING_SUBMIT"><path d="M96.79,72.23 C96.79,100.08 96.79,138.81 96.79,164.89 " fill="none" id="INITIAL_DATA-to-CREATING_SUBMIT" style="stroke:#181818;stroke-width:1.0;"/><polygon fill="#181818" points="96.79,170.89,100.79,161.89,96.79,165.89,92.79,161.89,96.79,170.89" style="stroke:#181818;stroke-width:1.0;"/><text fill="#000000" font-family="sans-serif" font-size="13" lengthAdjust="spacing" textLength="111.0903" x="97.79" y="129.4584">initial submission</text></g><!--link CREATING_SUBMIT to RECEIVED--><g id="link_CREATING_SUBMIT_RECEIVED"><path d="M117.76,214.44 C140.65,237.16 172.7531,269.0217 195.0331,291.1517 " fill="none" id="CREATING_SUBMIT-to-RECEIVED" style="stroke:#181818;stroke-width:1.0;"/><polygon fill="#181818" points="199.29,295.38,195.7234,286.1996,195.7425,291.8564,190.0857,291.8755,199.29,295.38" style="stroke:#181818;stroke-width:1.0;"/></g><!--link REVISION_DATA to CREATING_REVISE--><g id="link_REVISION_DATA_CREATING_REVISE"><path d="M341.79,86.08 C341.79,110.1 341.79,134.49 341.79,156.49 " fill="none" id="REVISION_DATA-to-CREATING_REVISE" style="stroke:#181818;stroke-width:1.0;"/><polygon fill="#181818" points="341.79,162.49,345.79,153.49,341.79,157.49,337.79,153.49,341.79,162.49" style="stroke:#181818;stroke-width:1.0;"/><text fill="#000000" font-family="sans-serif" font-size="13" lengthAdjust="spacing" textLength="135.0845" x="342.79" y="129.4584">user initiates revision</text></g><!--link CREATING_REVISE to RECEIVED--><g id="link_CREATING_REVISE_RECEIVED"><path d="M312.32,222.63 C289.44,245.16 262.6147,271.5697 242.6947,291.1897 " fill="none" id="CREATING_REVISE-to-RECEIVED" style="stroke:#181818;stroke-width:1.0;"/><polygon fill="#181818" points="238.42,295.4,247.6389,291.9343,241.9823,291.8914,242.0252,286.2347,238.42,295.4" style="stroke:#181818;stroke-width:1.0;"/></g><!--link REVOKED_DATA to CREATING_REVOKE--><g id="link_REVOKED_DATA_CREATING_REVOKE"><path d="M576.79,348.53 C576.79,371.63 576.79,396.63 576.79,419.01 " fill="none" id="REVOKED_DATA-to-CREATING_REVOKE" style="stroke:#181818;stroke-width:1.0;"/><polygon fill="#181818" points="576.79,425.01,580.79,416.01,576.79,420.01,572.79,416.01,576.79,425.01" style="stroke:#181818;stroke-width:1.0;"/><text fill="#000000" font-family="sans-serif" font-size="13" lengthAdjust="spacing" textLength="151.3853" x="577.79" y="391.6784">user initiates revocation</text></g><!--link CREATING_REVOKE to PROCESSED--><g id="link_CREATING_REVOKE_PROCESSED"><path d="M521.14,484.96 C468.87,512.31 397.4463,549.6984 352.2463,573.3484 " fill="none" id="CREATING_REVOKE-to-PROCESSED" style="stroke:#181818;stroke-width:1.0;"/><polygon fill="#181818" points="346.93,576.13,356.7588,575.5017,351.3602,573.812,353.05,568.4134,346.93,576.13" style="stroke:#181818;stroke-width:1.0;"/></g><!--link RECEIVED to IN_PROCESSING--><g id="link_RECEIVED_IN_PROCESSING"><path d="M196.47,336 C183.47,347.66 167.07,363.12 153.79,378.11 C137.73,396.21 124.9189,413.7556 114.0989,429.4956 " fill="none" id="RECEIVED-to-IN_PROCESSING" style="stroke:#181818;stroke-width:1.0;"/><polygon fill="#181818" points="110.7,434.44,119.0946,429.2893,113.5324,430.3196,112.5021,424.7574,110.7,434.44" style="stroke:#181818;stroke-width:1.0;"/><text fill="#000000" font-family="sans-serif" font-size="13" lengthAdjust="spacing" textLength="128.9082" x="154.79" y="391.6784">preprocessing starts</text></g><!--link IN_PROCESSING to PROCESSED--><g id="link_IN_PROCESSING_PROCESSED"><path d="M69.81,475.07 C45.64,494.03 17.42,523.42 36.79,546.57 C65.44,580.83 189.9159,590.9042 259.6059,593.9942 " fill="none" id="IN_PROCESSING-to-PROCESSED" style="stroke:#181818;stroke-width:1.0;"/><polygon fill="#181818" points="265.6,594.26,256.786,589.8653,260.6049,594.0385,256.4317,597.8574,265.6,594.26" style="stroke:#181818;stroke-width:1.0;"/><text fill="#000000" font-family="sans-serif" font-size="13" lengthAdjust="spacing" textLength="129.0225" x="96.1218" y="528.1384">preprocessing done,</text><text fill="#000000" font-family="sans-serif" font-size="13" lengthAdjust="spacing" textLength="245.686" x="37.79" y="543.4489">might contain errors that need editing.</text></g><!--link PROCESSED to RECEIVED--><g id="link_PROCESSED_RECEIVED"><path d="M312.3,576.25 C316.54,536.63 321.62,444.34 287.79,378.11 C279.11,361.12 268.388,350.2627 254.258,339.6527 " fill="none" id="PROCESSED-to-RECEIVED" style="stroke:#181818;stroke-width:1.0;"/><polygon fill="#181818" points="249.46,336.05,254.2551,344.6527,253.4583,339.0523,259.0588,338.2554,249.46,336.05" style="stroke:#181818;stroke-width:1.0;"/><text fill="#000000" font-family="sans-serif" font-size="13" lengthAdjust="spacing" textLength="93.5581" x="314.99" y="459.9084">user edits data</text></g><!--link PROCESSED to is_approved--><g id="link_PROCESSED_is_approved"><path d="M309.79,616.87 C309.79,635.13 309.79,655.93 309.79,671.06 " fill="none" id="PROCESSED-to-is_approved" style="stroke:#181818;stroke-width:1.0;"/><polygon fill="#181818" points="309.79,677.06,313.79,668.06,309.79,672.06,305.79,668.06,309.79,677.06" style="stroke:#181818;stroke-width:1.0;"/></g><!--link is_approved to RELEASED--><g id="link_is_approved_RELEASED"><path d="M297.74,690.22 C271.61,690.2 209.92,694.29 182.79,731.57 C169.87,749.32 172.169,769.7388 177.219,787.4988 " fill="none" id="is_approved-to-RELEASED" style="stroke:#181818;stroke-width:1.0;"/><polygon fill="#181818" points="178.86,793.27,180.2459,783.5191,177.4925,788.4606,172.551,785.7072,178.86,793.27" style="stroke:#181818;stroke-width:1.0;"/><text fill="#000000" font-family="sans-serif" font-size="13" lengthAdjust="spacing" textLength="88.8164" x="240.5349" y="745.1384">user approves</text><text fill="#000000" font-family="sans-serif" font-size="13" lengthAdjust="spacing" textLength="206.4194" x="183.79" y="760.4489">if sequence does not have errors</text></g><!--link is_approved to DELETION--><g id="link_is_approved_DELETION"><path d="M319.16,692.88 C336.24,697.51 372.67,709.43 394.79,731.57 C412.11,748.9 421.0264,769.7238 426.7464,787.6538 " fill="none" id="is_approved-to-DELETION" style="stroke:#181818;stroke-width:1.0;"/><polygon fill="#181818" points="428.57,793.37,429.6454,783.58,427.0504,788.6065,422.0239,786.0115,428.57,793.37" style="stroke:#181818;stroke-width:1.0;"/><text fill="#000000" font-family="sans-serif" font-size="13" lengthAdjust="spacing" textLength="73.2773" x="416.67" y="752.6384">user rejects</text></g><!--SRC=[hLJRRjim37tFLn3TmnxMzWFIBa2M68EnBXcIh4y30iNYOWsEx4bqsc3elu-MvOjomOPrVZ8awfn3yf000AcI2BWhw00IRM9KGIhNWm5VmLjGkYW9f23X3Ym9GeXdyIeUFwoduzKOX8KhfHKfaRcuAtWZCfNW9YlnBbCQX-tVhSo9KDuHFfCxXLyEjVhwc4FG-0IbBaoUeBKeEm7LzzAJieWUusKydtLQ3EwLvGnU8oP07OB830fv07nMbfJUWiMV9Ue4BpruKfGwWQNbguTel8ocbsBVNKxsAD7vfsWQv9adWlubqo3H5lKly-p5NqppfR6FltGfs22RIHG_-kZ6LEilY_aaMYxZsSVUkJyCOiyyR_aziqYgqlGv9ujel6BizVBhXy_noXKHDPb3dKVL1P5KBU1ttpGVPXbi41Ak2LUFwvkfRKfRWwZh0dU_liBdo5otesEoji9zHg4bpnlpxJYIVR17uuoiozq6pN-Ln4tyiwHhfhoivneQoNRTUV4z6PwarmcTSYjNF221mXfGOeOrOAob4dh1jdPunl-Seh4yKV1mxJc3-_iapNb8HgF69cI4jggpIh3QRcv69wuPGhFiRBdPALSez_8ui7eS-3HSLG6sDyaGIel64_30GBFBGW8V7H0CZgVpXA1g-Ja2txWJYYg-mkZcptFKZEukc5b6BmpwDUQs1mb3JLdxWG7ioJEPQsJhxIh7G99h4ae36fCR2vGAuadbLg9KbLjl7Nm7rYzAasuLQhkj6WRtxE5k-tQfmUgzqe3vIylkLz_R1ScY-KZd1AdOerTx5gyrjySp-0CJhj9l]--></g></svg>