<?xml version="1.0" encoding="us-ascii" standalone="no"?><svg xmlns="http://www.w3.org/2000/svg" xmlns:xlink="http://www.w3.org/1999/xlink" contentStyleType="text/css" height="954px" preserveAspectRatio="none" style="width:804px;height:954px;background:#FFFFFF;" version="1.1" viewBox="0 0 804 954" width="804px" zoomAndPan="magnify"><defs/><g><g id="INITIAL_DATA"><rect fill="#F0F8FF" height="50.2656" rx="12.5" ry="12.5" style="stroke:#0000FF;stroke-width:1.0;stroke-dasharray:1.0,3.0;" width="164" x="17" y="21"/><line style="stroke:#0000FF;stroke-width:1.0;stroke-dasharray:1.0,3.0;" x1="17" x2="181" y1="47.2969" y2="47.2969"/><text fill="#0000FF" font-family="sans-serif" font-size="14" lengthAdjust="spacing" textLength="68" x="65" y="38.9951">initial data</text><text fill="#000000" font-family="sans-serif" font-size="12" lengthAdjust="spacing" textLength="144" x="22" y="63.4355">new unprocessed data</text></g><g id="REVISION_DATA"><rect fill="#F0F8FF" height="78.2031" rx="12.5" ry="12.5" style="stroke:#0000FF;stroke-width:1.0;stroke-dasharray:1.0,3.0;" width="249" x="223.5" y="7"/><line style="stroke:#0000FF;stroke-width:1.0;stroke-dasharray:1.0,3.0;" x1="223.5" x2="472.5" y1="33.2969" y2="33.2969"/><text fill="#0000FF" font-family="sans-serif" font-size="14" lengthAdjust="spacing" textLength="87" x="304.5" y="24.9951">revision data</text><text fill="#000000" font-family="sans-serif" font-size="12" lengthAdjust="spacing" textLength="164" x="228.5" y="49.4355">already existing sequence</text><text fill="#000000" font-family="sans-serif" font-size="12" lengthAdjust="spacing" textLength="229" x="228.5" y="63.4043">with status APPROVED_FOR_RELEASE</text><text fill="#000000" font-family="sans-serif" font-size="12" lengthAdjust="spacing" textLength="158" x="228.5" y="77.373">+ new unprocessed data</text></g><g id="REVOKED_DATA"><rect fill="#F0F8FF" height="64.2344" rx="12.5" ry="12.5" style="stroke:#0000FF;stroke-width:1.0;stroke-dasharray:1.0,3.0;" width="249" x="517.5" y="399"/><line style="stroke:#0000FF;stroke-width:1.0;stroke-dasharray:1.0,3.0;" x1="517.5" x2="766.5" y1="425.2969" y2="425.2969"/><text fill="#0000FF" font-family="sans-serif" font-size="14" lengthAdjust="spacing" textLength="106" x="589" y="416.9951">revocation data</text><text fill="#000000" font-family="sans-serif" font-size="12" lengthAdjust="spacing" textLength="164" x="522.5" y="441.4355">already existing sequence</text><text fill="#000000" font-family="sans-serif" font-size="12" lengthAdjust="spacing" textLength="229" x="522.5" y="455.4043">with status APPROVED_FOR_RELEASE</text></g><rect fill="#F1F1F1" height="40" rx="12.5" ry="12.5" style="stroke:#181818;stroke-width:0.5;" width="291" x="466.5" y="676"/><text fill="#000000" font-family="sans-serif" font-size="14" lengthAdjust="spacing" textLength="281" x="471.5" y="700.8467">AWAITING_APPROVAL_FOR_REVOCATION</text><rect fill="#F1F1F1" height="40" rx="12.5" ry="12.5" style="stroke:#181818;stroke-width:0.5;" width="80" x="183" y="282"/><text fill="#000000" font-family="sans-serif" font-size="14" lengthAdjust="spacing" textLength="70" x="188" y="306.8467">RECEIVED</text><rect fill="#F1F1F1" height="40" rx="12.5" ry="12.5" style="stroke:#181818;stroke-width:0.5;" width="121" x="162.5" y="411"/><text fill="#000000" font-family="sans-serif" font-size="14" lengthAdjust="spacing" textLength="111" x="167.5" y="435.8467">IN_PROCESSING</text><rect fill="#F1F1F1" height="40" rx="12.5" ry="12.5" style="stroke:#181818;stroke-width:0.5;" width="104" x="270" y="676"/><text fill="#000000" font-family="sans-serif" font-size="14" lengthAdjust="spacing" textLength="94" x="275" y="700.8467">HAS_ERRORS</text><rect fill="#F1F1F1" height="40" rx="12.5" ry="12.5" style="stroke:#181818;stroke-width:0.5;" width="192" x="109" y="908"/><text fill="#000000" font-family="sans-serif" font-size="14" lengthAdjust="spacing" textLength="182" x="114" y="932.8467">APPROVED_FOR_RELEASE</text><rect fill="#90EE90" height="42.5938" rx="12.5" ry="12.5" style="stroke:#008000;stroke-width:1.0;stroke-dasharray:1.0,3.0;" width="184" x="7" y="170"/><text fill="#000000" font-family="sans-serif" font-size="14" lengthAdjust="spacing" textLength="174" x="12" y="187.9951">entry with new accession</text><text fill="#000000" font-family="sans-serif" font-size="14" lengthAdjust="spacing" textLength="99" x="51.5" y="204.292">will be created</text><rect fill="#90EE90" height="58.8906" rx="12.5" ry="12.5" style="stroke:#008000;stroke-width:1.0;stroke-dasharray:1.0,3.0;" width="244" x="226" y="162"/><text fill="#000000" font-family="sans-serif" font-size="14" lengthAdjust="spacing" textLength="198" x="249" y="179.9951">entry with existing accession</text><text fill="#000000" font-family="sans-serif" font-size="14" lengthAdjust="spacing" textLength="230" x="235" y="196.292">and incremented version number</text><text fill="#000000" font-family="sans-serif" font-size="14" lengthAdjust="spacing" textLength="99" x="300.5" y="212.5889">will be created</text><rect fill="#90EE90" height="58.8906" rx="12.5" ry="12.5" style="stroke:#008000;stroke-width:1.0;stroke-dasharray:1.0,3.0;" width="277" x="503.5" y="540"/><text fill="#000000" font-family="sans-serif" font-size="14" lengthAdjust="spacing" textLength="202" x="541" y="557.9951">entry with existing accession,</text><text fill="#000000" font-family="sans-serif" font-size="14" lengthAdjust="spacing" textLength="204" x="540" y="574.292">incremented version number,</text><text fill="#000000" font-family="sans-serif" font-size="14" lengthAdjust="spacing" textLength="263" x="512.5" y="590.5889">and is_revocation=true will be created</text><rect fill="#CD5C5C" height="40" rx="12.5" ry="12.5" style="stroke:#FF0000;stroke-width:1.0;stroke-dasharray:1.0,3.0;" width="148" x="336" y="908"/><text fill="#000000" font-family="sans-serif" font-size="14" lengthAdjust="spacing" textLength="138" x="341" y="932.8467">entry will be deleted</text><g id="elem_is_error"><polygon fill="#F1F1F1" points="223,557.5,235,569.5,223,581.5,211,569.5,223,557.5" style="stroke:#181818;stroke-width:0.5;"/></g><g id="elem_is_approved"><polygon fill="#F1F1F1" points="307,777,319,789,307,801,295,789,307,777" style="stroke:#181818;stroke-width:0.5;"/></g><rect fill="#F1F1F1" height="40" rx="12.5" ry="12.5" style="stroke:#181818;stroke-width:0.5;" width="72" x="55" y="676"/><text fill="#000000" font-family="sans-serif" font-size="14" lengthAdjust="spacing" textLength="62" x="60" y="700.8467">STAGING</text><!--link INITIAL_DATA to CREATING_SUBMIT--><g id="link_INITIAL_DATA_CREATING_SUBMIT"><path d="M99,71.02 C99,96.9 99,137.94 99,164.55 " fill="none" id="INITIAL_DATA-to-CREATING_SUBMIT" style="stroke:#181818;stroke-width:1.0;"/><polygon fill="#181818" points="99,169.67,103,160.67,99,164.67,95,160.67,99,169.67" style="stroke:#181818;stroke-width:1.0;"/><text fill="#000000" font-family="sans-serif" font-size="13" lengthAdjust="spacing" textLength="109" x="100" y="128.0669">initial submission</text></g><!--link CREATING_SUBMIT to RECEIVED--><g id="link_CREATING_SUBMIT_RECEIVED"><path d="M122.62,213.16 C143.92,231.8 175.18,259.16 197.15,278.38 " fill="none" id="CREATING_SUBMIT-to-RECEIVED" style="stroke:#181818;stroke-width:1.0;"/><polygon fill="#181818" points="201.14,281.87,197.0176,272.9254,197.3833,278.5704,191.7383,278.9361,201.14,281.87" style="stroke:#181818;stroke-width:1.0;"/></g><!--link REVISION_DATA to CREATING_REVISE--><g id="link_REVISION_DATA_CREATING_REVISE"><path d="M348,85.08 C348,107.37 348,135.27 348,156.77 " fill="none" id="REVISION_DATA-to-CREATING_REVISE" style="stroke:#181818;stroke-width:1.0;"/><polygon fill="#181818" points="348,161.81,352,152.81,348,156.81,344,152.81,348,161.81" style="stroke:#181818;stroke-width:1.0;"/><text fill="#000000" font-family="sans-serif" font-size="13" lengthAdjust="spacing" textLength="135" x="349" y="128.0669">user initiates revision</text></g><!--link CREATING_REVISE to RECEIVED--><g id="link_CREATING_REVISE_RECEIVED"><path d="M315.16,221.01 C294.58,238.87 268.42,261.58 249.23,278.23 " fill="none" id="CREATING_REVISE-to-RECEIVED" style="stroke:#181818;stroke-width:1.0;"/><polygon fill="#181818" points="245,281.9,254.425,279.0419,248.7832,278.6308,249.1943,272.9889,245,281.9" style="stroke:#181818;stroke-width:1.0;"/></g><!--link REVOKED_DATA to CREATING_REVOKE--><g id="link_REVOKED_DATA_CREATING_REVOKE"><path d="M642,463.32 C642,484.59 642,512.72 642,534.54 " fill="none" id="REVOKED_DATA-to-CREATING_REVOKE" style="stroke:#181818;stroke-width:1.0;"/><polygon fill="#181818" points="642,539.66,646,530.66,642,534.66,638,530.66,642,539.66" style="stroke:#181818;stroke-width:1.0;"/><text fill="#000000" font-family="sans-serif" font-size="13" lengthAdjust="spacing" textLength="153" x="643" y="506.0669">user initiates revocation</text></g><!--link CREATING_REVOKE to AWAITING_APPROVAL_FOR_REVOCATION--><g id="link_CREATING_REVOKE_AWAITING_APPROVAL_FOR_REVOCATION"><path d="M635.12,599.06 C629.89,620.77 622.77,650.3 617.82,670.84 " fill="none" id="CREATING_REVOKE-to-AWAITING_APPROVAL_FOR_REVOCATION" style="stroke:#181818;stroke-width:1.0;"/><polygon fill="#181818" points="616.61,675.86,622.6034,668.0447,617.779,670.9986,614.8251,666.1742,616.61,675.86" style="stroke:#181818;stroke-width:1.0;"/></g><!--link AWAITING_APPROVAL_FOR_REVOCATION to is_approved--><g id="link_AWAITING_APPROVAL_FOR_REVOCATION_is_approved"><path d="M548.06,716.08 C474.84,737.92 359.93,772.21 320.68,783.92 " fill="none" id="AWAITING_APPROVAL_FOR_REVOCATION-to-is_approved" style="stroke:#181818;stroke-width:1.0;"/><polygon fill="#181818" points="315.86,785.36,325.6281,786.6186,320.6511,783.9298,323.3398,778.9528,315.86,785.36" style="stroke:#181818;stroke-width:1.0;"/></g><!--link RECEIVED to IN_PROCESSING--><g id="link_RECEIVED_IN_PROCESSING"><path d="M223,322.01 C223,344.27 223,381.19 223,405.55 " fill="none" id="RECEIVED-to-IN_PROCESSING" style="stroke:#181818;stroke-width:1.0;"/><polygon fill="#181818" points="223,410.86,227,401.86,223,405.86,219,401.86,223,410.86" style="stroke:#181818;stroke-width:1.0;"/><text fill="#000000" font-family="sans-serif" font-size="13" lengthAdjust="spacing" textLength="131" x="224" y="365.0669">preprocessing starts</text></g><!--link IN_PROCESSING to is_error--><g id="link_IN_PROCESSING_is_error"><path d="M223,451.27 C223,478.3 223,527 223,552.28 " fill="none" id="IN_PROCESSING-to-is_error" style="stroke:#181818;stroke-width:1.0;"/><polygon fill="#181818" points="223,557.3,227,548.3,223,552.3,219,548.3,223,557.3" style="stroke:#181818;stroke-width:1.0;"/></g><!--link is_error to HAS_ERRORS--><g id="link_is_error_HAS_ERRORS"><path d="M228.05,576.85 C241.72,594.04 280,642.18 303.26,671.44 " fill="none" id="is_error-to-HAS_ERRORS" style="stroke:#181818;stroke-width:1.0;"/><polygon fill="#181818" points="306.58,675.61,304.1067,666.0767,303.467,671.6973,297.8464,671.0576,306.58,675.61" style="stroke:#181818;stroke-width:1.0;"/><text fill="#000000" font-family="sans-serif" font-size="13" lengthAdjust="spacing" textLength="132" x="283" y="642.0669">data contain error(s)</text></g><!--link HAS_ERRORS to RECEIVED--><g id="link_HAS_ERRORS_RECEIVED"><path d="M374.06,682.61 C393.15,675.27 412.81,663.79 424,646 C495.01,533.11 452.42,451.84 364,352 C339.78,324.65 299.48,312.57 268.16,307.22 " fill="none" id="HAS_ERRORS-to-RECEIVED" style="stroke:#181818;stroke-width:1.0;"/><polygon fill="#181818" points="263.21,306.42,271.4528,311.8103,268.1454,307.2211,272.7346,303.9137,263.21,306.42" style="stroke:#181818;stroke-width:1.0;"/><text fill="#000000" font-family="sans-serif" font-size="13" lengthAdjust="spacing" textLength="96" x="458" y="506.0669">user edits data</text></g><!--link STAGING to RECEIVED--><g id="link_STAGING_RECEIVED"><path d="M87.18,675.91 C85.06,662.72 83.17,644.77 85,629 C97.18,524.06 95.66,492.42 145,399 C159.45,371.64 182.35,344.66 199.6,326.31 " fill="none" id="STAGING-to-RECEIVED" style="stroke:#181818;stroke-width:1.0;"/><polygon fill="#181818" points="203.42,322.29,194.3236,326.0656,199.9785,325.9171,200.127,331.572,203.42,322.29" style="stroke:#181818;stroke-width:1.0;"/><text fill="#000000" font-family="sans-serif" font-size="13" lengthAdjust="spacing" textLength="96" x="107" y="506.0669">user edits data</text></g><!--link is_error to STAGING--><g id="link_is_error_STAGING"><path d="M213.36,571.94 C189.67,576.03 128.47,590.06 100,629 C91.32,640.87 89.05,657.22 88.95,670.69 " fill="none" id="is_error-to-STAGING" style="stroke:#181818;stroke-width:1.0;"/><polygon fill="#181818" points="89.02,675.88,92.891,666.8238,88.9486,670.8805,84.8918,666.9381,89.02,675.88" style="stroke:#181818;stroke-width:1.0;"/><text fill="#000000" font-family="sans-serif" font-size="13" lengthAdjust="spacing" textLength="160" x="101" y="642.0669">preprocessing successful</text></g><!--link STAGING to is_approved--><g id="link_STAGING_is_approved"><path d="M127.15,712.23 C176.4,732.98 262.13,769.09 294.31,782.65 " fill="none" id="STAGING-to-is_approved" style="stroke:#181818;stroke-width:1.0;"/><polygon fill="#181818" points="299,784.63,292.2655,777.4435,294.394,782.6846,289.1528,784.8131,299,784.63" style="stroke:#181818;stroke-width:1.0;"/></g><!--link is_approved to APPROVED_FOR_RELEASE--><g id="link_is_approved_APPROVED_FOR_RELEASE"><path d="M297.55,791.81 C280.07,795.69 242.77,806.5 224,831 C208.28,851.52 204.54,881.54 204.08,902.54 " fill="none" id="is_approved-to-APPROVED_FOR_RELEASE" style="stroke:#181818;stroke-width:1.0;"/><polygon fill="#181818" points="204.03,907.67,208.1326,898.7163,204.0871,902.6703,200.1331,898.6249,204.03,907.67" style="stroke:#181818;stroke-width:1.0;"/><text fill="#000000" font-family="sans-serif" font-size="13" lengthAdjust="spacing" textLength="91" x="248" y="844.0669">user approves</text><text fill="#000000" font-family="sans-serif" font-size="13" lengthAdjust="spacing" textLength="141" x="225" y="859.1997">or automatic approval</text><text fill="#000000" font-family="sans-serif" font-size="13" lengthAdjust="spacing" textLength="128" x="233.5" y="874.3325">via 'release_directly'</text></g><!--link is_approved to DELETION--><g id="link_is_approved_DELETION"><path d="M315.22,793.29 C328.64,799.03 355.31,812.12 371,831 C388.49,852.04 398.97,881.97 404.59,902.8 " fill="none" id="is_approved-to-DELETION" style="stroke:#181818;stroke-width:1.0;"/><polygon fill="#181818" points="405.91,907.89,407.5134,898.1725,404.6502,903.0513,399.7714,900.1882,405.91,907.89" style="stroke:#181818;stroke-width:1.0;"/><text fill="#000000" font-family="sans-serif" font-size="13" lengthAdjust="spacing" textLength="75" x="397" y="859.0669">user rejects</text></g><!--SRC=[hLHHRzCm47xlhpYDXu7O-07Tg1JQC2B6EYMbl215RdAiHgbJRATRXVRVkJXEOpSjcnXvYkpFttrtzzq102nvZe2hjTv2ZYgJVArvAGO3ke9Ju69TQSYPPkP0QQOHefje5WNNwIIO1S0Kd731DMU5mPt0ArRm31T5XHS55pZS_RtBIwqnlz3ueCqf_3QizUTo3a7WFLHYBSiCbSAy4r1_ZuwKE9n7IJIzwRH8t7156Rn4ZCSw15P8PFaMy84hpSKTAFnLeSZms8DxhfT6OAKWkBsDf_DmadwSncaSNeT14Xvxz_Puudj9JpyJevjpcJ7zBrbxIUzOdvcpWtzMoe-jhIpGfAESp89l0TdWvYfjACWF3SLyEWvcL2Ul2ECmeY2UBrDwDGwJX2YSyqz1aePnF8sJlxy_gDigPbbTNbVhE0u3epNv-k5BD3EDGA7bjgb5tKcMrMsaTzy57HO5B10ogYjrW7fKyBkblfE8ecbIzskxT2YOSKou7spN9JSY4pdDByLR4PAyj45f1aDKgmNA_og9ZF2qf3CAULpF6RIILThv-RsMD9al4pgXJjRcyHGsX3aMs1168kTCn3GQXa_QdpuRoKCfImcNbzcof2aRZVnRjgRntL1-3i2QI4ic5E-Cv2tIy_DHprD3Q5UhgXOhRifeNku3wyUUe_t5w75R2msXKYXj01f3Q3Ud7y2YlG23_Vdl1QWDSIY0RMilH8slEPwr09u26IQd4wtUHhsvzLO5ALrBj4lNx3hDf6vRv08jiJ60kTwveRxfzWmnreiOib9enWKOp6lrnhnnO6vLstfXphNg5dyo2wxQq4z0FJ7jkrvkbPd77rNHetTBPlbsPZRDER0VMoaMg6YAIG2hTBcYJcVsd1Kqt1lEu5JIn365QSubPhhOdXwCj1jPooxn9w7Lu0y0]--></g></svg>