<?xml version="1.0" encoding="us-ascii" standalone="no"?><svg xmlns="http://www.w3.org/2000/svg" xmlns:xlink="http://www.w3.org/1999/xlink" contentStyleType="text/css" height="869px" preserveAspectRatio="none" style="width:873px;height:869px;background:#FFFFFF;" version="1.1" viewBox="0 0 873 869" width="873px" zoomAndPan="magnify"><defs/><g><g id="INITIAL_DATA"><rect fill="#F0F8FF" height="50.2656" rx="12.5" ry="12.5" style="stroke:#0000FF;stroke-width:1.0;stroke-dasharray:1.0,3.0;" width="164" x="23" y="21"/><line style="stroke:#0000FF;stroke-width:1.0;stroke-dasharray:1.0,3.0;" x1="23" x2="187" y1="47.2969" y2="47.2969"/><text fill="#0000FF" font-family="sans-serif" font-size="14" lengthAdjust="spacing" textLength="68" x="71" y="38.9951">initial data</text><text fill="#000000" font-family="sans-serif" font-size="12" lengthAdjust="spacing" textLength="144" x="28" y="63.4355">new unprocessed data</text></g><g id="REVISION_DATA"><rect fill="#F0F8FF" height="78.2031" rx="12.5" ry="12.5" style="stroke:#0000FF;stroke-width:1.0;stroke-dasharray:1.0,3.0;" width="184" x="383" y="7"/><line style="stroke:#0000FF;stroke-width:1.0;stroke-dasharray:1.0,3.0;" x1="383" x2="567" y1="33.2969" y2="33.2969"/><text fill="#0000FF" font-family="sans-serif" font-size="14" lengthAdjust="spacing" textLength="87" x="431.5" y="24.9951">revision data</text><text fill="#000000" font-family="sans-serif" font-size="12" lengthAdjust="spacing" textLength="164" x="388" y="49.4355">already existing sequence</text><text fill="#000000" font-family="sans-serif" font-size="12" lengthAdjust="spacing" textLength="145" x="388" y="63.4043">with status SILO_READY</text><text fill="#000000" font-family="sans-serif" font-size="12" lengthAdjust="spacing" textLength="158" x="388" y="77.373">+ new unprocessed data</text></g><g id="REVOKED_DATA"><rect fill="#F0F8FF" height="64.2344" rx="12.5" ry="12.5" style="stroke:#0000FF;stroke-width:1.0;stroke-dasharray:1.0,3.0;" width="184" x="130" y="516"/><line style="stroke:#0000FF;stroke-width:1.0;stroke-dasharray:1.0,3.0;" x1="130" x2="314" y1="542.2969" y2="542.2969"/><text fill="#0000FF" font-family="sans-serif" font-size="14" lengthAdjust="spacing" textLength="106" x="169" y="533.9951">revocation data</text><text fill="#000000" font-family="sans-serif" font-size="12" lengthAdjust="spacing" textLength="164" x="135" y="558.4355">already existing sequence</text><text fill="#000000" font-family="sans-serif" font-size="12" lengthAdjust="spacing" textLength="145" x="135" y="572.4043">with status SILO_READY</text></g><rect fill="#F1F1F1" height="40" rx="12.5" ry="12.5" style="stroke:#181818;stroke-width:0.5;" width="147" x="393.5" y="666.5"/><text fill="#000000" font-family="sans-serif" font-size="14" lengthAdjust="spacing" textLength="137" x="398.5" y="691.3467">STAGING_REVOKED</text><rect fill="#F1F1F1" height="40" rx="12.5" ry="12.5" style="stroke:#181818;stroke-width:0.5;" width="80" x="238" y="171.5"/><text fill="#000000" font-family="sans-serif" font-size="14" lengthAdjust="spacing" textLength="70" x="243" y="196.3467">RECEIVED</text><rect fill="#F1F1F1" height="40" rx="12.5" ry="12.5" style="stroke:#181818;stroke-width:0.5;" width="101" x="227.5" y="298"/><text fill="#000000" font-family="sans-serif" font-size="14" lengthAdjust="spacing" textLength="91" x="232.5" y="322.8467">PROCESSING</text><rect fill="#F1F1F1" height="40" rx="12.5" ry="12.5" style="stroke:#181818;stroke-width:0.5;" width="129" x="712.5" y="298"/><text fill="#000000" font-family="sans-serif" font-size="14" lengthAdjust="spacing" textLength="119" x="717.5" y="322.8467">REVIEW_NEEDED</text><rect fill="#F1F1F1" height="40" rx="12.5" ry="12.5" style="stroke:#181818;stroke-width:0.5;" width="83" x="496.5" y="298"/><text fill="#000000" font-family="sans-serif" font-size="14" lengthAdjust="spacing" textLength="73" x="501.5" y="322.8467">REVIEWED</text><rect fill="#F1F1F1" height="40" rx="12.5" ry="12.5" style="stroke:#181818;stroke-width:0.5;" width="95" x="540.5" y="823"/><text fill="#000000" font-family="sans-serif" font-size="14" lengthAdjust="spacing" textLength="85" x="545.5" y="847.8467">SILO_READY</text><rect fill="#90EE90" height="42.5938" rx="12.5" ry="12.5" style="stroke:#008000;stroke-width:1.0;stroke-dasharray:1.0,3.0;" width="196" x="7" y="170"/><text fill="#000000" font-family="sans-serif" font-size="14" lengthAdjust="spacing" textLength="186" x="12" y="187.9951">entry with new sequenceId</text><text fill="#000000" font-family="sans-serif" font-size="14" lengthAdjust="spacing" textLength="99" x="57.5" y="204.292">will be created</text><rect fill="#90EE90" height="58.8906" rx="12.5" ry="12.5" style="stroke:#008000;stroke-width:1.0;stroke-dasharray:1.0,3.0;" width="244" x="353" y="162"/><text fill="#000000" font-family="sans-serif" font-size="14" lengthAdjust="spacing" textLength="210" x="370" y="179.9951">entry with existing sequenceId</text><text fill="#000000" font-family="sans-serif" font-size="14" lengthAdjust="spacing" textLength="230" x="362" y="196.292">and incremented version number</text><text fill="#000000" font-family="sans-serif" font-size="14" lengthAdjust="spacing" textLength="99" x="427.5" y="212.5889">will be created</text><rect fill="#90EE90" height="58.8906" rx="12.5" ry="12.5" style="stroke:#008000;stroke-width:1.0;stroke-dasharray:1.0,3.0;" width="272" x="86" y="657"/><text fill="#000000" font-family="sans-serif" font-size="14" lengthAdjust="spacing" textLength="214" x="115" y="674.9951">entry with existing sequenceId,</text><text fill="#000000" font-family="sans-serif" font-size="14" lengthAdjust="spacing" textLength="204" x="120" y="691.292">incremented version number,</text><text fill="#000000" font-family="sans-serif" font-size="14" lengthAdjust="spacing" textLength="258" x="95" y="707.5889">and is_revocation=true will be created</text><rect fill="#CD5C5C" height="40" rx="12.5" ry="12.5" style="stroke:#FF0000;stroke-width:1.0;stroke-dasharray:1.0,3.0;" width="148" x="712" y="666.5"/><text fill="#000000" font-family="sans-serif" font-size="14" lengthAdjust="spacing" textLength="138" x="717" y="691.3467">entry will be deleted</text><g id="elem_is_error"><polygon fill="#F1F1F1" points="683,415,695,427,683,439,671,427,683,415" style="stroke:#181818;stroke-width:0.5;"/></g><g id="elem_is_approved"><polygon fill="#F1F1F1" points="588,674.5,600,686.5,588,698.5,576,686.5,588,674.5" style="stroke:#181818;stroke-width:0.5;"/></g><rect fill="#F1F1F1" height="40" rx="12.5" ry="12.5" style="stroke:#181818;stroke-width:0.5;" width="72" x="552" y="528"/><text fill="#000000" font-family="sans-serif" font-size="14" lengthAdjust="spacing" textLength="62" x="557" y="552.8467">STAGING</text><!--link INITIAL_DATA to CREATING_SUBMIT--><g id="link_INITIAL_DATA_CREATING_SUBMIT"><path d="M105,71.02 C105,96.9 105,137.94 105,164.55 " fill="none" id="INITIAL_DATA-to-CREATING_SUBMIT" style="stroke:#181818;stroke-width:1.0;"/><polygon fill="#181818" points="105,169.67,109,160.67,105,164.67,101,160.67,105,169.67" style="stroke:#181818;stroke-width:1.0;"/><text fill="#000000" font-family="sans-serif" font-size="13" lengthAdjust="spacing" textLength="109" x="106" y="128.0669">initial submission</text></g><!--link CREATING_SUBMIT to RECEIVED--><g id="link_CREATING_SUBMIT_RECEIVED"><path d="M203.33,191.5 C213.1,191.5 222.87,191.5 232.64,191.5 " fill="none" id="CREATING_SUBMIT-to-RECEIVED" style="stroke:#181818;stroke-width:1.0;"/><polygon fill="#181818" points="237.75,191.5,228.75,187.5,232.75,191.5,228.75,195.5,237.75,191.5" style="stroke:#181818;stroke-width:1.0;"/></g><!--link REVISION_DATA to CREATING_REVISE--><g id="link_REVISION_DATA_CREATING_REVISE"><path d="M475,85.08 C475,107.37 475,135.27 475,156.77 " fill="none" id="REVISION_DATA-to-CREATING_REVISE" style="stroke:#181818;stroke-width:1.0;"/><polygon fill="#181818" points="475,161.81,479,152.81,475,156.81,471,152.81,475,161.81" style="stroke:#181818;stroke-width:1.0;"/><text fill="#000000" font-family="sans-serif" font-size="13" lengthAdjust="spacing" textLength="135" x="476" y="128.0669">user initiates revision</text></g><!--reverse link RECEIVED to CREATING_REVISE--><g id="link_RECEIVED_CREATING_REVISE"><path d="M323.2,191.5 C333.13,191.5 343.05,191.5 352.97,191.5 " fill="none" id="RECEIVED-backto-CREATING_REVISE" style="stroke:#181818;stroke-width:1.0;"/><polygon fill="#181818" points="318.02,191.5,327.02,195.5,323.02,191.5,327.02,187.5,318.02,191.5" style="stroke:#181818;stroke-width:1.0;"/></g><!--link REVOKED_DATA to CREATING_REVOKE--><g id="link_REVOKED_DATA_CREATING_REVOKE"><path d="M222,580.32 C222,601.59 222,629.72 222,651.54 " fill="none" id="REVOKED_DATA-to-CREATING_REVOKE" style="stroke:#181818;stroke-width:1.0;"/><polygon fill="#181818" points="222,656.66,226,647.66,222,651.66,218,647.66,222,656.66" style="stroke:#181818;stroke-width:1.0;"/><text fill="#000000" font-family="sans-serif" font-size="13" lengthAdjust="spacing" textLength="153" x="223" y="623.0669">user initiates revocation</text></g><!--link CREATING_REVOKE to STAGING_REVOKED--><g id="link_CREATING_REVOKE_STAGING_REVOKED"><path d="M358.38,686.5 C368.25,686.5 378.13,686.5 388.01,686.5 " fill="none" id="CREATING_REVOKE-to-STAGING_REVOKED" style="stroke:#181818;stroke-width:1.0;"/><polygon fill="#181818" points="393.17,686.5,384.17,682.5,388.17,686.5,384.17,690.5,393.17,686.5" style="stroke:#181818;stroke-width:1.0;"/></g><!--link STAGING_REVOKED to is_approved--><g id="link_STAGING_REVOKED_is_approved"><path d="M540.73,686.5 C550.69,686.5 560.65,686.5 570.61,686.5 " fill="none" id="STAGING_REVOKED-to-is_approved" style="stroke:#181818;stroke-width:1.0;"/><polygon fill="#181818" points="575.81,686.5,566.81,682.5,570.81,686.5,566.81,690.5,575.81,686.5" style="stroke:#181818;stroke-width:1.0;"/></g><!--link RECEIVED to PROCESSING--><g id="link_RECEIVED_PROCESSING"><path d="M278,211.68 C278,233.37 278,268.74 278,292.43 " fill="none" id="RECEIVED-to-PROCESSING" style="stroke:#181818;stroke-width:1.0;"/><polygon fill="#181818" points="278,297.59,282,288.59,278,292.59,274,288.59,278,297.59" style="stroke:#181818;stroke-width:1.0;"/><text fill="#000000" font-family="sans-serif" font-size="13" lengthAdjust="spacing" textLength="131" x="279" y="264.0669">preprocessing starts</text></g><!--link PROCESSING to is_error--><g id="link_PROCESSING_is_error"><path d="M328.7,331.98 C399.42,350.17 531.65,384.42 644,415 C652.49,417.31 662,419.99 669.5,422.13 " fill="none" id="PROCESSING-to-is_error" style="stroke:#181818;stroke-width:1.0;"/><polygon fill="#181818" points="674.34,423.51,666.7802,417.1973,669.5313,422.1402,664.5885,424.8913,674.34,423.51" style="stroke:#181818;stroke-width:1.0;"/></g><!--reverse link REVIEW_NEEDED to is_error--><g id="link_REVIEW_NEEDED_is_error"><path d="M756.77,342.03 C734.77,367.07 701.02,405.48 688.19,420.09 " fill="none" id="REVIEW_NEEDED-backto-is_error" style="stroke:#181818;stroke-width:1.0;"/><polygon fill="#181818" points="760.19,338.13,751.2454,342.2524,756.8904,341.8867,757.2561,347.5317,760.19,338.13" style="stroke:#181818;stroke-width:1.0;"/><text fill="#000000" font-family="sans-serif" font-size="13" lengthAdjust="spacing" textLength="132" x="733" y="381.0669">data contain error(s)</text></g><!--reverse link REVIEWED to REVIEW_NEEDED--><g id="link_REVIEWED_REVIEW_NEEDED"><path d="M584.89,318 C621.31,318 672.2,318 712.46,318 " fill="none" id="REVIEWED-backto-REVIEW_NEEDED" style="stroke:#181818;stroke-width:1.0;"/><polygon fill="#181818" points="579.63,318,588.63,322,584.63,318,588.63,314,579.63,318" style="stroke:#181818;stroke-width:1.0;"/><text fill="#000000" font-family="sans-serif" font-size="13" lengthAdjust="spacing" textLength="96" x="598" y="311.0669">user edits data</text></g><!--reverse link PROCESSING to REVIEWED--><g id="link_PROCESSING_REVIEWED"><path d="M333.99,318 C382.77,318 452.39,318 496.38,318 " fill="none" id="PROCESSING-backto-REVIEWED" style="stroke:#181818;stroke-width:1.0;"/><polygon fill="#181818" points="328.75,318,337.75,322,333.75,318,337.75,314,328.75,318" style="stroke:#181818;stroke-width:1.0;"/><text fill="#000000" font-family="sans-serif" font-size="13" lengthAdjust="spacing" textLength="131" x="347" y="311.0669">preprocessing starts</text></g><!--reverse link REVIEWED to STAGING--><g id="link_REVIEWED_STAGING"><path d="M540.32,343.27 C542.9,367.65 547.71,406.21 555,439 C562.02,470.58 573.7,506.32 581.11,527.73 " fill="none" id="REVIEWED-backto-STAGING" style="stroke:#181818;stroke-width:1.0;"/><polygon fill="#181818" points="539.8,338.29,536.7446,347.6529,540.313,343.2636,544.7024,346.8321,539.8,338.29" style="stroke:#181818;stroke-width:1.0;"/><text fill="#000000" font-family="sans-serif" font-size="13" lengthAdjust="spacing" textLength="96" x="556" y="431.5669">user edits data</text></g><!--link is_error to STAGING--><g id="link_is_error_STAGING"><path d="M677.89,434.4 C664.67,450.96 628.8,495.9 606.57,523.74 " fill="none" id="is_error-to-STAGING" style="stroke:#181818;stroke-width:1.0;"/><polygon fill="#181818" points="603.4,527.72,612.1417,523.1831,606.52,523.8129,605.8903,518.1912,603.4,527.72" style="stroke:#181818;stroke-width:1.0;"/><text fill="#000000" font-family="sans-serif" font-size="13" lengthAdjust="spacing" textLength="160" x="651" y="482.0669">preprocessing successful</text></g><!--link STAGING to is_approved--><g id="link_STAGING_is_approved"><path d="M588,568.27 C588,595.3 588,644 588,669.28 " fill="none" id="STAGING-to-is_approved" style="stroke:#181818;stroke-width:1.0;"/><polygon fill="#181818" points="588,674.3,592,665.3,588,669.3,584,665.3,588,674.3" style="stroke:#181818;stroke-width:1.0;"/></g><!--link is_approved to SILO_READY--><g id="link_is_approved_SILO_READY"><path d="M588,698.61 C588,723.37 588,783.57 588,817.57 " fill="none" id="is_approved-to-SILO_READY" style="stroke:#181818;stroke-width:1.0;"/><polygon fill="#181818" points="588,822.79,592,813.79,588,817.79,584,813.79,588,822.79" style="stroke:#181818;stroke-width:1.0;"/><text fill="#000000" font-family="sans-serif" font-size="13" lengthAdjust="spacing" textLength="91" x="612" y="759.0669">user approves</text><text fill="#000000" font-family="sans-serif" font-size="13" lengthAdjust="spacing" textLength="141" x="589" y="774.1997">or automatic approval</text><text fill="#000000" font-family="sans-serif" font-size="13" lengthAdjust="spacing" textLength="128" x="597.5" y="789.3325">via 'release_directly'</text></g><!--link is_approved to DELETION--><g id="link_is_approved_DELETION"><path d="M600.09,686.5 C621.06,686.5 665.82,686.5 706.16,686.5 " fill="none" id="is_approved-to-DELETION" style="stroke:#181818;stroke-width:1.0;"/><polygon fill="#181818" points="711.57,686.5,702.57,682.5,706.57,686.5,702.57,690.5,711.57,686.5" style="stroke:#181818;stroke-width:1.0;"/><text fill="#000000" font-family="sans-serif" font-size="13" lengthAdjust="spacing" textLength="75" x="618.5" y="679.5669">user rejects</text></g><!--SRC=[hLHjRzCm4FxUNt4Q7mPYuGTqOr9PeobYjAWjGqX8bHlVMeFh5DlfLg7zTowEy-9aHHCZdwoxotFFSsy001l14N2ximVWQ58jTbPaQZ0W5vo2KBlS0cUMEOEnp28aasIHZ6wMuz5Y1Cp0YL322YPTt0cyObAak98vdakXS5Y_tl7CMkJd5X-iiy9lXrfyRSmXABo7NErqbg8no1i2nVVOeZABRvDvCfqqN3JkXI45Bo4Je0w1IOsC7m0VXB52hS7WhnnLYiT-k1TsumZc1kR9pNGvYqVZRyUYtnwNsv4w_HYF0wLPoko_Q0sargZFLDgA_ulGnsg4lDk9C2qzyyNeEfbSBprYeFGgJcu3q-VPz2gUpoc-q_puwt8In-FE_uKzCBN8ULeiBIhN9dH5_aN1QFxbmwTauMgCokf3ARDeKbMEX7zNP9KILWWfrOogI_MNOhsnQuseoWOqJz-1fxAvQOYxsNeTS2cPuhIIb71BeJGeUzHkrbM-NQ7-hvoe9y_WT4OvZnCw0y-v6DMVoACxoTRlhQPbUndHSNmJBsY30eOb84U99M2Yk61gHdFlyBH_zD64MQBMcOQBYtIJqGfTNePUjgFTt9EyLe0V8wkPCg8PfU0sHZowx8tL4AfpQVBLLfYYNkxNRc2awUzW5y9h5wBxCHf2Rb3x5BHmKDt3C8MFZcGxnQ2xuFqKnLGybS8VebwI8jxfU6hRExOoi5NkYb193oBoDdU0QEmq-flfXj8oRSicjAAY4jBrr_dgPaUvqzuw8GHP7598CsMPKE3YNfitTUsRI5-uyivK5K4kh6cET-rsmSzZxalI9dSKlr7IrBUFdQV5yowN8NwdqXwl7dJN-EPeLWoytz1UKrwMssnBVK-zdKbQzxrWSAff2Pd19HSQKoiFf_q4HQ_hDVRm6dzGk1dy0G00]--></g></svg>
