<?xml version="1.0" encoding="us-ascii" standalone="no"?><svg xmlns="http://www.w3.org/2000/svg" xmlns:xlink="http://www.w3.org/1999/xlink" contentStyleType="text/css" height="856px" preserveAspectRatio="none" style="width:876px;height:856px;background:#FFFFFF;" version="1.1" viewBox="0 0 876 856" width="876px" zoomAndPan="magnify"><defs/><g><g id="INITIAL_DATA"><rect fill="#F0F8FF" height="50.6211" rx="12.5" ry="12.5" style="stroke:#0000FF;stroke-width:1.0;stroke-dasharray:1.0,3.0;" width="151" x="80" y="21.13"/><line style="stroke:#0000FF;stroke-width:1.0;stroke-dasharray:1.0,3.0;" x1="80" x2="231" y1="47.6183" y2="47.6183"/><text fill="#0000FF" font-family="sans-serif" font-size="14" lengthAdjust="spacing" textLength="72" x="119.5" y="39.6652">initial data</text><text fill="#000000" font-family="sans-serif" font-size="12" lengthAdjust="spacing" textLength="131" x="85" y="64.2198">new unprocessed data</text></g><g id="REVISION_DATA"><rect fill="#F0F8FF" height="78.8867" rx="12.5" ry="12.5" style="stroke:#0000FF;stroke-width:1.0;stroke-dasharray:1.0,3.0;" width="170" x="433.5" y="7"/><line style="stroke:#0000FF;stroke-width:1.0;stroke-dasharray:1.0,3.0;" x1="433.5" x2="603.5" y1="33.4883" y2="33.4883"/><text fill="#0000FF" font-family="sans-serif" font-size="14" lengthAdjust="spacing" textLength="88" x="474.5" y="25.5352">revision data</text><text fill="#000000" font-family="sans-serif" font-size="12" lengthAdjust="spacing" textLength="150" x="438.5" y="50.0898">already existing sequence</text><text fill="#000000" font-family="sans-serif" font-size="12" lengthAdjust="spacing" textLength="134" x="438.5" y="64.2227">with status SILO_READY</text><text fill="#000000" font-family="sans-serif" font-size="12" lengthAdjust="spacing" textLength="145" x="438.5" y="78.3555">+ new unprocessed data</text></g><g id="REVOKED_DATA"><rect fill="#F0F8FF" height="64.7539" rx="12.5" ry="12.5" style="stroke:#0000FF;stroke-width:1.0;stroke-dasharray:1.0,3.0;" width="170" x="59.5" y="517.35"/><line style="stroke:#0000FF;stroke-width:1.0;stroke-dasharray:1.0,3.0;" x1="59.5" x2="229.5" y1="543.8383" y2="543.8383"/><text fill="#0000FF" font-family="sans-serif" font-size="14" lengthAdjust="spacing" textLength="106" x="91.5" y="535.8852">revocation data</text><text fill="#000000" font-family="sans-serif" font-size="12" lengthAdjust="spacing" textLength="150" x="64.5" y="560.4398">already existing sequence</text><text fill="#000000" font-family="sans-serif" font-size="12" lengthAdjust="spacing" textLength="134" x="64.5" y="574.5727">with status SILO_READY</text></g><rect fill="#F1F1F1" height="40" rx="12.5" ry="12.5" style="stroke:#181818;stroke-width:0.5;" width="142" x="316.5" y="683.84"/><text fill="#000000" font-family="sans-serif" font-size="14" lengthAdjust="spacing" textLength="132" x="321.5" y="709.131">STAGING_REVOKED</text><rect fill="#F1F1F1" height="40" rx="12.5" ry="12.5" style="stroke:#181818;stroke-width:0.5;" width="76" x="286.5" y="172.62"/><text fill="#000000" font-family="sans-serif" font-size="14" lengthAdjust="spacing" textLength="66" x="291.5" y="197.911">RECEIVED</text><rect fill="#F1F1F1" height="40" rx="12.5" ry="12.5" style="stroke:#181818;stroke-width:0.5;" width="96" x="276.5" y="299.35"/><text fill="#000000" font-family="sans-serif" font-size="14" lengthAdjust="spacing" textLength="86" x="281.5" y="324.641">PROCESSING</text><rect fill="#F1F1F1" height="40" rx="12.5" ry="12.5" style="stroke:#181818;stroke-width:0.5;" width="121" x="745" y="299.35"/><text fill="#000000" font-family="sans-serif" font-size="14" lengthAdjust="spacing" textLength="111" x="750" y="324.641">REVIEW_NEEDED</text><rect fill="#F1F1F1" height="40" rx="12.5" ry="12.5" style="stroke:#181818;stroke-width:0.5;" width="78" x="537.5" y="299.35"/><text fill="#000000" font-family="sans-serif" font-size="14" lengthAdjust="spacing" textLength="68" x="542.5" y="324.641">REVIEWED</text><rect fill="#F1F1F1" height="40" rx="12.5" ry="12.5" style="stroke:#181818;stroke-width:0.5;" width="93" x="489" y="810.57"/><text fill="#000000" font-family="sans-serif" font-size="14" lengthAdjust="spacing" textLength="83" x="494" y="835.861">SILO_READY</text><rect fill="#F1F1F1" height="42.9766" rx="12.5" ry="12.5" style="stroke:#008000;stroke-width:1.0;stroke-dasharray:1.0,3.0;" width="192" x="59.5" y="171.13"/><text fill="#000000" font-family="sans-serif" font-size="14" lengthAdjust="spacing" textLength="182" x="64.5" y="189.6652">entry with new sequenceId</text><text fill="#000000" font-family="sans-serif" font-size="14" lengthAdjust="spacing" textLength="99" x="108" y="206.1534">will be created</text><rect fill="#F1F1F1" height="59.4648" rx="12.5" ry="12.5" style="stroke:#008000;stroke-width:1.0;stroke-dasharray:1.0,3.0;" width="242" x="397.5" y="162.89"/><text fill="#000000" font-family="sans-serif" font-size="14" lengthAdjust="spacing" textLength="209" x="414" y="181.4252">entry with existing sequenceId</text><text fill="#000000" font-family="sans-serif" font-size="14" lengthAdjust="spacing" textLength="228" x="406.5" y="197.9134">and incremented version number</text><text fill="#000000" font-family="sans-serif" font-size="14" lengthAdjust="spacing" textLength="99" x="471" y="214.4017">will be created</text><rect fill="#F1F1F1" height="59.4648" rx="12.5" ry="12.5" style="stroke:#008000;stroke-width:1.0;stroke-dasharray:1.0,3.0;" width="275" x="7" y="674.11"/><text fill="#000000" font-family="sans-serif" font-size="14" lengthAdjust="spacing" textLength="213" x="38" y="692.6452">entry with existing sequenceId,</text><text fill="#000000" font-family="sans-serif" font-size="14" lengthAdjust="spacing" textLength="202" x="43.5" y="709.1334">incremented version number,</text><text fill="#000000" font-family="sans-serif" font-size="14" lengthAdjust="spacing" textLength="261" x="16" y="725.6217">and revoked-flag=true will be created</text><rect fill="#F1F1F1" height="40" rx="12.5" ry="12.5" style="stroke:#FF0000;stroke-width:1.0;stroke-dasharray:1.0,3.0;" width="148" x="722.5" y="683.84"/><text fill="#000000" font-family="sans-serif" font-size="14" lengthAdjust="spacing" textLength="138" x="727.5" y="709.131">entry will be deleted</text><g id="elem_is_error"><polygon fill="#F1F1F1" points="564.5,416.35,576.5,428.35,564.5,440.35,552.5,428.35,564.5,416.35" style="stroke:#181818;stroke-width:0.5;"/></g><g id="elem_is_approved"><polygon fill="#F1F1F1" points="600.5,691.84,612.5,703.84,600.5,715.84,588.5,703.84,600.5,691.84" style="stroke:#181818;stroke-width:0.5;"/></g><rect fill="#F1F1F1" height="40" rx="12.5" ry="12.5" style="stroke:#181818;stroke-width:0.5;" width="71" x="643" y="529.73"/><text fill="#000000" font-family="sans-serif" font-size="14" lengthAdjust="spacing" textLength="61" x="648" y="555.021">STAGING</text><!--link INITIAL_DATA to CREATING_SUBMIT--><g id="link_INITIAL_DATA_CREATING_SUBMIT"><path d="M155.5,72.23 C155.5,97.91 155.5,137.93 155.5,164.45 " fill="none" id="INITIAL_DATA-to-CREATING_SUBMIT" style="stroke:#181818;stroke-width:1.0;"/><polygon fill="#181818" points="155.5,169.38,159.5,160.38,155.5,164.38,151.5,160.38,155.5,169.38" style="stroke:#181818;stroke-width:1.0;"/><text fill="#000000" font-family="sans-serif" font-size="13" lengthAdjust="spacing" textLength="113" x="156.5" y="129.4584">initial submission</text></g><!--link CREATING_SUBMIT to RECEIVED--><g id="link_CREATING_SUBMIT_RECEIVED"><path d="M251.88,192.62 C261.18,192.62 270.47,192.62 279.77,192.62 " fill="none" id="CREATING_SUBMIT-to-RECEIVED" style="stroke:#181818;stroke-width:1.0;"/><polygon fill="#181818" points="284.69,192.62,275.69,188.62,279.69,192.62,275.69,196.62,284.69,192.62" style="stroke:#181818;stroke-width:1.0;"/></g><!--link REVISION_DATA to CREATING_REVISE--><g id="link_REVISION_DATA_CREATING_REVISE"><path d="M518.5,86.08 C518.5,107.85 518.5,134.85 518.5,156.09 " fill="none" id="REVISION_DATA-to-CREATING_REVISE" style="stroke:#181818;stroke-width:1.0;"/><polygon fill="#181818" points="518.5,160.97,522.5,151.97,518.5,155.97,514.5,151.97,518.5,160.97" style="stroke:#181818;stroke-width:1.0;"/><text fill="#000000" font-family="sans-serif" font-size="13" lengthAdjust="spacing" textLength="136" x="519.5" y="129.4584">user initiates revision</text></g><!--reverse link RECEIVED to CREATING_REVISE--><g id="link_RECEIVED_CREATING_REVISE"><path d="M369.21,192.62 C378.52,192.62 387.83,192.62 397.14,192.62 " fill="none" id="RECEIVED-backto-CREATING_REVISE" style="stroke:#181818;stroke-width:1.0;"/><polygon fill="#181818" points="364.28,192.62,373.28,196.62,369.28,192.62,373.28,188.62,364.28,192.62" style="stroke:#181818;stroke-width:1.0;"/></g><!--link REVOKED_DATA to CREATING_REVOKE--><g id="link_REVOKED_DATA_CREATING_REVOKE"><path d="M144.5,582.25 C144.5,607.03 144.5,641.57 144.5,667.33 " fill="none" id="REVOKED_DATA-to-CREATING_REVOKE" style="stroke:#181818;stroke-width:1.0;"/><polygon fill="#181818" points="144.5,672.17,148.5,663.17,144.5,667.17,140.5,663.17,144.5,672.17" style="stroke:#181818;stroke-width:1.0;"/><text fill="#000000" font-family="sans-serif" font-size="13" lengthAdjust="spacing" textLength="152" x="145.5" y="633.1784">user initiates revocation</text></g><!--link CREATING_REVOKE to STAGING_REVOKED--><g id="link_CREATING_REVOKE_STAGING_REVOKED"><path d="M282.14,703.84 C291.39,703.84 300.64,703.84 309.89,703.84 " fill="none" id="CREATING_REVOKE-to-STAGING_REVOKED" style="stroke:#181818;stroke-width:1.0;"/><polygon fill="#181818" points="314.78,703.84,305.78,699.84,309.78,703.84,305.78,707.84,314.78,703.84" style="stroke:#181818;stroke-width:1.0;"/></g><!--link STAGING_REVOKED to is_approved--><g id="link_STAGING_REVOKED_is_approved"><path d="M458.64,703.84 C499.66,703.84 540.69,703.84 581.71,703.84 " fill="none" id="STAGING_REVOKED-to-is_approved" style="stroke:#181818;stroke-width:1.0;"/><polygon fill="#181818" points="586.52,703.84,577.52,699.84,581.52,703.84,577.52,707.84,586.52,703.84" style="stroke:#181818;stroke-width:1.0;"/></g><!--link STAGING_REVOKED to SILO_READY--><g id="link_STAGING_REVOKED_SILO_READY"><path d="M370.77,724.1 C358.74,740.39 346.7,763.71 359.5,780.57 C374.43,800.23 436.29,814.1 482.48,821.95 " fill="none" id="STAGING_REVOKED-to-SILO_READY" style="stroke:#181818;stroke-width:1.0;"/><polygon fill="#181818" points="487.39,822.77,479.1777,817.3333,482.4592,821.9411,477.8514,825.2225,487.39,822.77" style="stroke:#181818;stroke-width:1.0;"/><text fill="#000000" font-family="sans-serif" font-size="13" lengthAdjust="spacing" textLength="148" x="360.5" y="777.1384">"release directly"-mode</text></g><!--link RECEIVED to PROCESSING--><g id="link_RECEIVED_PROCESSING"><path d="M324.5,213.11 C324.5,234.53 324.5,269.02 324.5,292.64 " fill="none" id="RECEIVED-to-PROCESSING" style="stroke:#181818;stroke-width:1.0;"/><polygon fill="#181818" points="324.5,297.49,328.5,288.49,324.5,292.49,320.5,288.49,324.5,297.49" style="stroke:#181818;stroke-width:1.0;"/><text fill="#000000" font-family="sans-serif" font-size="13" lengthAdjust="spacing" textLength="129" x="325.5" y="265.9184">preprocessing starts</text></g><!--link PROCESSING to is_error--><g id="link_PROCESSING_is_error"><path d="M367.96,339.73 C423.41,364.45 516.26,405.85 550.92,421.3 " fill="none" id="PROCESSING-to-is_error" style="stroke:#181818;stroke-width:1.0;"/><polygon fill="#181818" points="555.3,423.25,548.7045,415.9357,550.7321,421.2167,545.4511,423.2443,555.3,423.25" style="stroke:#181818;stroke-width:1.0;"/></g><!--reverse link REVIEW_NEEDED to is_error--><g id="link_REVIEW_NEEDED_is_error"><path d="M756.19,342.24 C696.44,368.77 600.28,411.46 572.35,423.87 " fill="none" id="REVIEW_NEEDED-backto-is_error" style="stroke:#181818;stroke-width:1.0;"/><polygon fill="#181818" points="760.47,340.34,750.6211,340.3343,755.8998,342.368,753.866,347.6467,760.47,340.34" style="stroke:#181818;stroke-width:1.0;"/><text fill="#000000" font-family="sans-serif" font-size="13" lengthAdjust="spacing" textLength="127" x="692.5" y="382.9184">data contain error(s)</text></g><!--reverse link REVIEWED to REVIEW_NEEDED--><g id="link_REVIEWED_REVIEW_NEEDED"><path d="M622.26,319.35 C657.41,319.35 706.28,319.35 744.71,319.35 " fill="none" id="REVIEWED-backto-REVIEW_NEEDED" style="stroke:#181818;stroke-width:1.0;"/><polygon fill="#181818" points="617.38,319.35,626.38,323.35,622.38,319.35,626.38,315.35,617.38,319.35" style="stroke:#181818;stroke-width:1.0;"/><text fill="#000000" font-family="sans-serif" font-size="13" lengthAdjust="spacing" textLength="93" x="633.75" y="312.9184">user edits data</text></g><!--reverse link PROCESSING to REVIEWED--><g id="link_PROCESSING_REVIEWED"><path d="M379.07,319.35 C426.67,319.35 494.58,319.35 537.06,319.35 " fill="none" id="PROCESSING-backto-REVIEWED" style="stroke:#181818;stroke-width:1.0;"/><polygon fill="#181818" points="374.3,319.35,383.3,323.35,379.3,319.35,383.3,315.35,374.3,319.35" style="stroke:#181818;stroke-width:1.0;"/><text fill="#000000" font-family="sans-serif" font-size="13" lengthAdjust="spacing" textLength="129" x="390.5" y="312.9184">preprocessing starts</text></g><!--link is_error to STAGING--><g id="link_is_error_STAGING"><path d="M570,435.11 C585.28,451.11 628.92,496.81 655.97,525.14 " fill="none" id="is_error-to-STAGING" style="stroke:#181818;stroke-width:1.0;"/><polygon fill="#181818" points="659.12,528.43,655.7896,519.1613,655.6639,524.8168,650.0084,524.6911,659.12,528.43" style="stroke:#181818;stroke-width:1.0;"/><text fill="#000000" font-family="sans-serif" font-size="13" lengthAdjust="spacing" textLength="160" x="618.5" y="483.9184">preprocessing successful</text></g><!--link is_error to SILO_READY--><g id="link_is_error_SILO_READY"><path d="M562.07,438.39 C555.09,464.84 535.09,544.52 528.5,612.11 C521.76,681.19 528.3,763.15 532.53,803.9 " fill="none" id="is_error-to-SILO_READY" style="stroke:#181818;stroke-width:1.0;"/><polygon fill="#181818" points="533.05,808.81,536.076,799.4375,532.5214,803.838,528.1209,800.2833,533.05,808.81" style="stroke:#181818;stroke-width:1.0;"/><text fill="#000000" font-family="sans-serif" font-size="13" lengthAdjust="spacing" textLength="173" x="529.5" y="625.6784">preprocessing successful &amp;</text><text fill="#000000" font-family="sans-serif" font-size="13" lengthAdjust="spacing" textLength="148" x="544" y="640.9889">"release directly"-mode</text></g><!--link STAGING to is_approved--><g id="link_STAGING_is_approved"><path d="M694.66,569.96 C709.05,589.57 725.78,620.39 711.5,644.11 C690.64,678.74 641.76,694.01 616.4,699.8 " fill="none" id="STAGING-to-is_approved" style="stroke:#181818;stroke-width:1.0;"/><polygon fill="#181818" points="611.68,700.82,621.3224,702.8262,616.5669,699.7626,619.6305,695.0071,611.68,700.82" style="stroke:#181818;stroke-width:1.0;"/></g><!--link is_approved to SILO_READY--><g id="link_is_approved_SILO_READY"><path d="M596.63,712.27 C587.35,730.07 563.52,775.81 548.5,804.63 " fill="none" id="is_approved-to-SILO_READY" style="stroke:#181818;stroke-width:1.0;"/><polygon fill="#181818" points="546.32,808.81,554.0335,802.6861,548.6358,804.3786,546.9433,798.9809,546.32,808.81" style="stroke:#181818;stroke-width:1.0;"/><text fill="#000000" font-family="sans-serif" font-size="13" lengthAdjust="spacing" textLength="88" x="568.5" y="777.1384">user approves</text></g><!--link is_approved to DELETION--><g id="link_is_approved_DELETION"><path d="M613.06,703.84 C633.83,703.84 676.95,703.84 716.17,703.84 " fill="none" id="is_approved-to-DELETION" style="stroke:#181818;stroke-width:1.0;"/><polygon fill="#181818" points="720.91,703.84,711.91,699.84,715.91,703.84,711.91,707.84,720.91,703.84" style="stroke:#181818;stroke-width:1.0;"/><text fill="#000000" font-family="sans-serif" font-size="13" lengthAdjust="spacing" textLength="73" x="631" y="697.4084">user rejects</text></g><!--SRC=[fLH_Qzim4Fq_d-BeO3zOlG-GTe6iCSMiIqQJTGm6GR6khJP7pYIvRHZzxZl9iYqvoIYj_pBIkxjtJ-yE0E1MS0HSRymMEEfSYOqHfHmCw0hUW92RoW1dXha3RPX1oARP8XjVB2VZnHYOXYCXXH6iSBWZUCKAaUEggF2a41A7xTy7NXg3_CJWWt6dyDTbjL-OSmWIxw6I6rNcg3NoZe3z7WCgb-bLDizcquwBmZkXgOENa8co3e4L2XdV0Zu8ROIy0Or_AfGv7Wgu5-RM4QmqpBEBsV8o7Kz-74A_FznkhzNPvtGITLhcp3odrwZLDkiJEmtm_sdqiR6GltPDwA2V-M9ydatFbpvZrEbPcbr5HrylPsVfV4xutkEdtvVJD9tqukrvT1IGyxHORfKB2PtH_S8ocd_xz2LRE8rH6hMjsxIFrCYHyP-IJei2LWWvQKRgalvEzHk5A4FPzvLm5aZx9NPaTtMOv3I7L6LDK7B77IfdS5cjLwXUJeJKVmAHOofqcCKnUABMbB-H9zS5k_be58tLCzXDqejqGGCIqQgpS2mmoAB8rVjp2Br4fKe5fwVvRKbpCHh5jsn30tT7dGG0xmsZcDIYyqUqy1AUZ7QyCeHc1-fgjHRQIkD2-y14KNHay7Y5nTczJOPGQLI-14qHD4ikBk7HIH6M6FIdThU4DS2-4dwxx1InUDV7lX7kdTN0GExz89ki7L4YGykjGARflON2t1JResHTScowgNjpOTrceB2DGhz5dNaDKwP-mG2Lr7oSETnTwvIaSi85IuLIsjKAUIaD4n8Sxgr-rpvSX_IgrvkdaHEvCBfRv-sr0p-DUSUk4tmNN-NszxegziI4kXuAWzSqluT43rwiKIzwpN2OdBcYaau8VwztyTOUxRnxjC9VL5yF_W40]--></g></svg>