<?xml version="1.0" encoding="us-ascii" standalone="no"?><svg xmlns="http://www.w3.org/2000/svg" xmlns:xlink="http://www.w3.org/1999/xlink" contentStyleType="text/css" height="869px" preserveAspectRatio="none" style="width:873px;height:869px;background:#FFFFFF;" version="1.1" viewBox="0 0 873 869" width="873px" zoomAndPan="magnify"><defs/><g><g id="INITIAL_DATA"><rect fill="#F0F8FF" height="50.2656" rx="12.5" ry="12.5" style="stroke:#0000FF;stroke-width:1.0;stroke-dasharray:1.0,3.0;" width="164" x="23" y="21"/><line style="stroke:#0000FF;stroke-width:1.0;stroke-dasharray:1.0,3.0;" x1="23" x2="187" y1="47.2969" y2="47.2969"/><text fill="#0000FF" font-family="sans-serif" font-size="14" lengthAdjust="spacing" textLength="68" x="71" y="38.9951">initial data</text><text fill="#000000" font-family="sans-serif" font-size="12" lengthAdjust="spacing" textLength="144" x="28" y="63.4355">new unprocessed data</text></g><g id="REVISION_DATA"><rect fill="#F0F8FF" height="78.2031" rx="12.5" ry="12.5" style="stroke:#0000FF;stroke-width:1.0;stroke-dasharray:1.0,3.0;" width="184" x="383" y="7"/><line style="stroke:#0000FF;stroke-width:1.0;stroke-dasharray:1.0,3.0;" x1="383" x2="567" y1="33.2969" y2="33.2969"/><text fill="#0000FF" font-family="sans-serif" font-size="14" lengthAdjust="spacing" textLength="87" x="431.5" y="24.9951">revision data</text><text fill="#000000" font-family="sans-serif" font-size="12" lengthAdjust="spacing" textLength="164" x="388" y="49.4355">already existing sequence</text><text fill="#000000" font-family="sans-serif" font-size="12" lengthAdjust="spacing" textLength="145" x="388" y="63.4043">with status SILO_READY</text><text fill="#000000" font-family="sans-serif" font-size="12" lengthAdjust="spacing" textLength="158" x="388" y="77.373">+ new unprocessed data</text></g><g id="REVOKED_DATA"><rect fill="#F0F8FF" height="64.2344" rx="12.5" ry="12.5" style="stroke:#0000FF;stroke-width:1.0;stroke-dasharray:1.0,3.0;" width="184" x="128" y="516"/><line style="stroke:#0000FF;stroke-width:1.0;stroke-dasharray:1.0,3.0;" x1="128" x2="312" y1="542.2969" y2="542.2969"/><text fill="#0000FF" font-family="sans-serif" font-size="14" lengthAdjust="spacing" textLength="106" x="167" y="533.9951">revocation data</text><text fill="#000000" font-family="sans-serif" font-size="12" lengthAdjust="spacing" textLength="164" x="133" y="558.4355">already existing sequence</text><text fill="#000000" font-family="sans-serif" font-size="12" lengthAdjust="spacing" textLength="145" x="133" y="572.4043">with status SILO_READY</text></g><rect fill="#F1F1F1" height="40" rx="12.5" ry="12.5" style="stroke:#181818;stroke-width:0.5;" width="147" x="393.5" y="666.5"/><text fill="#000000" font-family="sans-serif" font-size="14" lengthAdjust="spacing" textLength="137" x="398.5" y="691.3467">STAGING_REVOKED</text><rect fill="#F1F1F1" height="40" rx="12.5" ry="12.5" style="stroke:#181818;stroke-width:0.5;" width="80" x="238" y="171.5"/><text fill="#000000" font-family="sans-serif" font-size="14" lengthAdjust="spacing" textLength="70" x="243" y="196.3467">RECEIVED</text><rect fill="#F1F1F1" height="40" rx="12.5" ry="12.5" style="stroke:#181818;stroke-width:0.5;" width="101" x="227.5" y="298"/><text fill="#000000" font-family="sans-serif" font-size="14" lengthAdjust="spacing" textLength="91" x="232.5" y="322.8467">PROCESSING</text><rect fill="#F1F1F1" height="40" rx="12.5" ry="12.5" style="stroke:#181818;stroke-width:0.5;" width="129" x="712.5" y="298"/><text fill="#000000" font-family="sans-serif" font-size="14" lengthAdjust="spacing" textLength="119" x="717.5" y="322.8467">REVIEW_NEEDED</text><rect fill="#F1F1F1" height="40" rx="12.5" ry="12.5" style="stroke:#181818;stroke-width:0.5;" width="83" x="496.5" y="298"/><text fill="#000000" font-family="sans-serif" font-size="14" lengthAdjust="spacing" textLength="73" x="501.5" y="322.8467">REVIEWED</text><rect fill="#F1F1F1" height="40" rx="12.5" ry="12.5" style="stroke:#181818;stroke-width:0.5;" width="95" x="540.5" y="823"/><text fill="#000000" font-family="sans-serif" font-size="14" lengthAdjust="spacing" textLength="85" x="545.5" y="847.8467">SILO_READY</text><rect fill="#90EE90" height="42.5938" rx="12.5" ry="12.5" style="stroke:#008000;stroke-width:1.0;stroke-dasharray:1.0,3.0;" width="196" x="7" y="170"/><text fill="#000000" font-family="sans-serif" font-size="14" lengthAdjust="spacing" textLength="186" x="12" y="187.9951">entry with new sequenceId</text><text fill="#000000" font-family="sans-serif" font-size="14" lengthAdjust="spacing" textLength="99" x="57.5" y="204.292">will be created</text><rect fill="#90EE90" height="58.8906" rx="12.5" ry="12.5" style="stroke:#008000;stroke-width:1.0;stroke-dasharray:1.0,3.0;" width="244" x="353" y="162"/><text fill="#000000" font-family="sans-serif" font-size="14" lengthAdjust="spacing" textLength="210" x="370" y="179.9951">entry with existing sequenceId</text><text fill="#000000" font-family="sans-serif" font-size="14" lengthAdjust="spacing" textLength="230" x="362" y="196.292">and incremented version number</text><text fill="#000000" font-family="sans-serif" font-size="14" lengthAdjust="spacing" textLength="99" x="427.5" y="212.5889">will be created</text><rect fill="#90EE90" height="58.8906" rx="12.5" ry="12.5" style="stroke:#008000;stroke-width:1.0;stroke-dasharray:1.0,3.0;" width="277" x="81.5" y="657"/><text fill="#000000" font-family="sans-serif" font-size="14" lengthAdjust="spacing" textLength="214" x="113" y="674.9951">entry with existing sequenceId,</text><text fill="#000000" font-family="sans-serif" font-size="14" lengthAdjust="spacing" textLength="204" x="118" y="691.292">incremented version number,</text><text fill="#000000" font-family="sans-serif" font-size="14" lengthAdjust="spacing" textLength="263" x="90.5" y="707.5889">and is_revocation=true will be created</text><rect fill="#CD5C5C" height="40" rx="12.5" ry="12.5" style="stroke:#FF0000;stroke-width:1.0;stroke-dasharray:1.0,3.0;" width="148" x="712" y="666.5"/><text fill="#000000" font-family="sans-serif" font-size="14" lengthAdjust="spacing" textLength="138" x="717" y="691.3467">entry will be deleted</text><g id="elem_is_error"><polygon fill="#F1F1F1" points="683,415,695,427,683,439,671,427,683,415" style="stroke:#181818;stroke-width:0.5;"/></g><g id="elem_is_approved"><polygon fill="#F1F1F1" points="588,674.5,600,686.5,588,698.5,576,686.5,588,674.5" style="stroke:#181818;stroke-width:0.5;"/></g><rect fill="#F1F1F1" height="40" rx="12.5" ry="12.5" style="stroke:#181818;stroke-width:0.5;" width="72" x="552" y="528"/><text fill="#000000" font-family="sans-serif" font-size="14" lengthAdjust="spacing" textLength="62" x="557" y="552.8467">STAGING</text><!--link INITIAL_DATA to CREATING_SUBMIT--><g id="link_INITIAL_DATA_CREATING_SUBMIT"><path d="M105,71.02 C105,98.62 105,137.48 105,163.67 " fill="none" id="INITIAL_DATA-to-CREATING_SUBMIT" style="stroke:#181818;stroke-width:1.0;"/><polygon fill="#181818" points="105,169.67,109,160.67,105,164.67,101,160.67,105,169.67" style="stroke:#181818;stroke-width:1.0;"/><text fill="#000000" font-family="sans-serif" font-size="13" lengthAdjust="spacing" textLength="109" x="106" y="128.0669">initial submission</text></g><!--link CREATING_SUBMIT to RECEIVED--><g id="link_CREATING_SUBMIT_RECEIVED"><path d="M203.33,191.5 C214.8,191.5 220.27,191.5 231.75,191.5 " fill="none" id="CREATING_SUBMIT-to-RECEIVED" style="stroke:#181818;stroke-width:1.0;"/><polygon fill="#181818" points="237.75,191.5,228.75,187.5,232.75,191.5,228.75,195.5,237.75,191.5" style="stroke:#181818;stroke-width:1.0;"/></g><!--link REVISION_DATA to CREATING_REVISE--><g id="link_REVISION_DATA_CREATING_REVISE"><path d="M475,85.08 C475,109.16 475,133.78 475,155.81 " fill="none" id="REVISION_DATA-to-CREATING_REVISE" style="stroke:#181818;stroke-width:1.0;"/><polygon fill="#181818" points="475,161.81,479,152.81,475,156.81,471,152.81,475,161.81" style="stroke:#181818;stroke-width:1.0;"/><text fill="#000000" font-family="sans-serif" font-size="13" lengthAdjust="spacing" textLength="135" x="476" y="128.0669">user initiates revision</text></g><!--reverse link RECEIVED to CREATING_REVISE--><g id="link_RECEIVED_CREATING_REVISE"><path d="M324.02,191.5 C335.67,191.5 341.32,191.5 352.97,191.5 " fill="none" id="RECEIVED-backto-CREATING_REVISE" style="stroke:#181818;stroke-width:1.0;"/><polygon fill="#181818" points="318.02,191.5,327.02,195.5,323.02,191.5,327.02,187.5,318.02,191.5" style="stroke:#181818;stroke-width:1.0;"/></g><!--link REVOKED_DATA to CREATING_REVOKE--><g id="link_REVOKED_DATA_CREATING_REVOKE"><path d="M220,580.32 C220,603.3 220,628.28 220,650.66 " fill="none" id="REVOKED_DATA-to-CREATING_REVOKE" style="stroke:#181818;stroke-width:1.0;"/><polygon fill="#181818" points="220,656.66,224,647.66,220,651.66,216,647.66,220,656.66" style="stroke:#181818;stroke-width:1.0;"/><text fill="#000000" font-family="sans-serif" font-size="13" lengthAdjust="spacing" textLength="153" x="221" y="623.0669">user initiates revocation</text></g><!--link CREATING_REVOKE to STAGING_REVOKED--><g id="link_CREATING_REVOKE_STAGING_REVOKED"><path d="M358.94,686.5 C370.33,686.5 375.73,686.5 387.13,686.5 " fill="none" id="CREATING_REVOKE-to-STAGING_REVOKED" style="stroke:#181818;stroke-width:1.0;"/><polygon fill="#181818" points="393.13,686.5,384.13,682.5,388.13,686.5,384.13,690.5,393.13,686.5" style="stroke:#181818;stroke-width:1.0;"/></g><!--link STAGING_REVOKED to is_approved--><g id="link_STAGING_REVOKED_is_approved"><path d="M540.73,686.5 C552.43,686.5 558.12,686.5 569.81,686.5 " fill="none" id="STAGING_REVOKED-to-is_approved" style="stroke:#181818;stroke-width:1.0;"/><polygon fill="#181818" points="575.81,686.5,566.81,682.5,570.81,686.5,566.81,690.5,575.81,686.5" style="stroke:#181818;stroke-width:1.0;"/></g><!--link RECEIVED to PROCESSING--><g id="link_RECEIVED_PROCESSING"><path d="M278,211.68 C278,235.01 278,268.16 278,291.59 " fill="none" id="RECEIVED-to-PROCESSING" style="stroke:#181818;stroke-width:1.0;"/><polygon fill="#181818" points="278,297.59,282,288.59,278,292.59,274,288.59,278,297.59" style="stroke:#181818;stroke-width:1.0;"/><text fill="#000000" font-family="sans-serif" font-size="13" lengthAdjust="spacing" textLength="131" x="279" y="264.0669">preprocessing starts</text></g><!--link PROCESSING to is_error--><g id="link_PROCESSING_is_error"><path d="M328.7,331.98 C399.42,350.17 531.65,384.42 644,415 C654.45,417.84 660.6714,419.5997 668.5714,421.8597 " fill="none" id="PROCESSING-to-is_error" style="stroke:#181818;stroke-width:1.0;"/><polygon fill="#181818" points="674.34,423.51,666.7873,417.1889,669.5328,422.1348,664.5869,424.8803,674.34,423.51" style="stroke:#181818;stroke-width:1.0;"/></g><!--reverse link REVIEW_NEEDED to is_error--><g id="link_REVIEW_NEEDED_is_error"><path d="M756.2311,342.6386 C734.4811,367.4086 701.71,404.7 688.19,420.09 " fill="none" id="REVIEW_NEEDED-backto-is_error" style="stroke:#181818;stroke-width:1.0;"/><polygon fill="#181818" points="760.19,338.13,751.246,342.2536,756.8909,341.8871,757.2574,347.5321,760.19,338.13" style="stroke:#181818;stroke-width:1.0;"/><text fill="#000000" font-family="sans-serif" font-size="13" lengthAdjust="spacing" textLength="132" x="733" y="381.0669">data contain error(s)</text></g><!--reverse link REVIEWED to REVIEW_NEEDED--><g id="link_REVIEWED_REVIEW_NEEDED"><path d="M585.63,318 C622.28,318 670.22,318 712.46,318 " fill="none" id="REVIEWED-backto-REVIEW_NEEDED" style="stroke:#181818;stroke-width:1.0;"/><polygon fill="#181818" points="579.63,318,588.63,322,584.63,318,588.63,314,579.63,318" style="stroke:#181818;stroke-width:1.0;"/><text fill="#000000" font-family="sans-serif" font-size="13" lengthAdjust="spacing" textLength="96" x="598" y="311.0669">user edits data</text></g><!--reverse link PROCESSING to REVIEWED--><g id="link_PROCESSING_REVIEWED"><path d="M334.75,318 C383.66,318 450.79,318 496.38,318 " fill="none" id="PROCESSING-backto-REVIEWED" style="stroke:#181818;stroke-width:1.0;"/><polygon fill="#181818" points="328.75,318,337.75,322,333.75,318,337.75,314,328.75,318" style="stroke:#181818;stroke-width:1.0;"/><text fill="#000000" font-family="sans-serif" font-size="13" lengthAdjust="spacing" textLength="131" x="347" y="311.0669">preprocessing starts</text></g><!--reverse link REVIEWED to STAGING--><g id="link_REVIEWED_STAGING"><path d="M540.4084,344.2591 C542.8384,368.0991 547.2,403.88 555,439 C562.02,470.58 573.7,506.32 581.11,527.73 " fill="none" id="REVIEWED-backto-STAGING" style="stroke:#181818;stroke-width:1.0;"/><polygon fill="#181818" points="539.8,338.29,536.7333,347.6492,540.307,343.2642,544.692,346.838,539.8,338.29" style="stroke:#181818;stroke-width:1.0;"/><text fill="#000000" font-family="sans-serif" font-size="13" lengthAdjust="spacing" textLength="96" x="556" y="431.5669">user edits data</text></g><!--link is_error to STAGING--><g id="link_is_error_STAGING"><path d="M677.89,434.4 C664.02,451.78 628.9525,495.7003 607.1425,523.0303 " fill="none" id="is_error-to-STAGING" style="stroke:#181818;stroke-width:1.0;"/><polygon fill="#181818" points="603.4,527.72,612.1403,523.1804,606.5188,523.8119,605.8873,518.1904,603.4,527.72" style="stroke:#181818;stroke-width:1.0;"/><text fill="#000000" font-family="sans-serif" font-size="13" lengthAdjust="spacing" textLength="160" x="651" y="482.0669">preprocessing successful</text></g><!--link STAGING to is_approved--><g id="link_STAGING_is_approved"><path d="M588,568.27 C588,597.22 588,645.04 588,668.3 " fill="none" id="STAGING-to-is_approved" style="stroke:#181818;stroke-width:1.0;"/><polygon fill="#181818" points="588,674.3,592,665.3,588,669.3,584,665.3,588,674.3" style="stroke:#181818;stroke-width:1.0;"/></g><!--link is_approved to SILO_READY--><g id="link_is_approved_SILO_READY"><path d="M588,698.61 C588,724.7 588,784.11 588,816.79 " fill="none" id="is_approved-to-SILO_READY" style="stroke:#181818;stroke-width:1.0;"/><polygon fill="#181818" points="588,822.79,592,813.79,588,817.79,584,813.79,588,822.79" style="stroke:#181818;stroke-width:1.0;"/><text fill="#000000" font-family="sans-serif" font-size="13" lengthAdjust="spacing" textLength="91" x="612" y="759.0669">user approves</text><text fill="#000000" font-family="sans-serif" font-size="13" lengthAdjust="spacing" textLength="141" x="589" y="774.1997">or automatic approval</text><text fill="#000000" font-family="sans-serif" font-size="13" lengthAdjust="spacing" textLength="128" x="597.5" y="789.3325">via 'release_directly'</text></g><!--link is_approved to DELETION--><g id="link_is_approved_DELETION"><path d="M600.09,686.5 C622,686.5 663.89,686.5 705.57,686.5 " fill="none" id="is_approved-to-DELETION" style="stroke:#181818;stroke-width:1.0;"/><polygon fill="#181818" points="711.57,686.5,702.57,682.5,706.57,686.5,702.57,690.5,711.57,686.5" style="stroke:#181818;stroke-width:1.0;"/><text fill="#000000" font-family="sans-serif" font-size="13" lengthAdjust="spacing" textLength="75" x="618.5" y="679.5669">user rejects</text></g><!--SRC=[hLHjRzCm4FxUNt4Q7mPYuGTqOr9PeocYjAWjGqX8bHiVhP7h5DlfLg7zTowEy-9aHHCZdwoxotFFSsy005l14N2tjqVWQ58jzbPaQZ0W5vo3KFlS0cUMEOEnp28aqsIPZ2QhyMWv0cRWJ2XX1PCkxWnUCIbINCiSBwLGEAnVxtXcBV9BYm_MMU6tGos-DkOG5Dv3hlOwIz4Ov0s1udjiKPd7TyaYcKqRBXeFmf22bv09K8V0f4R6Zu0FmbYXDc3mLuugnLC_t0kxTGHp0ujaCblDuz7uswdejwVbTgJEFiRZG6cMClilMWEfDUepbRRY_oBqiHeXxtOYJ4lFOZcwJQQtAuyOABs9axl0z7a-kuaN2uhlD3_-kfh6yRZpVs4FJ2rodXPBYygr2TsGVramMdpvy2bPkXgZilfOoYoQL9KZuTyLMQM4DK9ADQFgKlsbs6pjHYEgiW7DqtVWgMnk6k9kjbu7N4gcEAqa9TnHA0tA0RMRTPNlrgZ_AoVgoJCuNL3EquGkeE9iLisqlhUQjkrbJCVn95xI2WKKIq2E4al0H771r9m6t-5f_-YZ4JtKEjDmTPLkCzgXw-lGo_Qqd0VIrmhmSsGrKqOqinGSnuX7rxsv6a9rBqs-tWbJ5CpzsWsCDFqTB4Duxa9qFqT3o0rgdu8s3gg36ARmqP5ifnXqDxoVeXYBfrButlQI5F5EnrFhth6LWQroLuHAUX2Hjpa4H6ElqHzDDvMMQLiseHKLbP2klyvNDplAdVRM3I78uf92cYdBX08NzzgygMlVHFh2bOUcgWXoOKrplMkt2tuUSr-IDhcJ-8sIfhvzx3mjdZzo6U9tAktnwa5tZM-kPiN0-mqjDkLbkSrsrFVKsvcaVJy81kUQbf0PN76XCRNoUDvFKFIwNcCFh_4dXPl17m00]--></g></svg>