<?xml version="1.0" encoding="UTF-8" standalone="no"?><svg xmlns="http://www.w3.org/2000/svg" xmlns:xlink="http://www.w3.org/1999/xlink" contentScriptType="application/ecmascript" contentStyleType="text/css" height="856px" preserveAspectRatio="none" style="width:1026px;height:856px;" version="1.1" viewBox="0 0 1026 856" width="1026px" zoomAndPan="magnify"><defs><filter height="300%" id="fh4s4sz8gsm13" width="300%" x="-1" y="-1"><feGaussianBlur result="blurOut" stdDeviation="2.0"/><feColorMatrix in="blurOut" result="blurOut2" type="matrix" values="0 0 0 0 0 0 0 0 0 0 0 0 0 0 0 0 0 0 .4 0"/><feOffset dx="4.0" dy="4.0" in="blurOut2" result="blurOut3"/><feBlend in="SourceGraphic" in2="blurOut3" mode="normal"/></filter></defs><g><rect fill="#FEFECE" filter="url(#fh4s4sz8gsm13)" height="40" rx="12.5" ry="12.5" style="stroke: #A80036; stroke-width: 1.5;" width="291" x="85.5" y="313.5"/><text fill="#000000" font-family="sans-serif" font-size="14" lengthAdjust="spacingAndGlyphs" textLength="281" x="90.5" y="338.3467">AWAITING_APPROVAL_FOR_REVOCATION</text><rect fill="#FEFECE" filter="url(#fh4s4sz8gsm13)" height="40" rx="12.5" ry="12.5" style="stroke: #A80036; stroke-width: 1.5;" width="80" x="602" y="440"/><text fill="#000000" font-family="sans-serif" font-size="14" lengthAdjust="spacingAndGlyphs" textLength="70" x="607" y="464.8467">RECEIVED</text><rect fill="#FEFECE" filter="url(#fh4s4sz8gsm13)" height="40" rx="12.5" ry="12.5" style="stroke: #A80036; stroke-width: 1.5;" width="121" x="581.5" y="587"/><text fill="#000000" font-family="sans-serif" font-size="14" lengthAdjust="spacingAndGlyphs" textLength="111" x="586.5" y="611.8467">IN_PROCESSING</text><rect fill="#FEFECE" filter="url(#fh4s4sz8gsm13)" height="40" rx="12.5" ry="12.5" style="stroke: #A80036; stroke-width: 1.5;" width="104" x="667" y="805"/><text fill="#000000" font-family="sans-serif" font-size="14" lengthAdjust="spacingAndGlyphs" textLength="94" x="672" y="829.8467">HAS_ERRORS</text><rect fill="#FEFECE" filter="url(#fh4s4sz8gsm13)" height="40" rx="12.5" ry="12.5" style="stroke: #A80036; stroke-width: 1.5;" width="192" x="6" y="587"/><text fill="#000000" font-family="sans-serif" font-size="14" lengthAdjust="spacingAndGlyphs" textLength="182" x="11" y="611.8467">APPROVED_FOR_RELEASE</text><rect fill="#90EE90" filter="url(#fh4s4sz8gsm13)" height="42.5938" rx="12.5" ry="12.5" style="stroke: #A80036; stroke-width: 1.5;" width="184" x="537" y="312"/><text fill="#000000" font-family="sans-serif" font-size="14" lengthAdjust="spacingAndGlyphs" textLength="174" x="542" y="329.9951">entry with new accession</text><text fill="#000000" font-family="sans-serif" font-size="14" lengthAdjust="spacingAndGlyphs" textLength="99" x="581.5" y="346.292">will be created</text><rect fill="#90EE90" filter="url(#fh4s4sz8gsm13)" height="58.8906" rx="12.5" ry="12.5" style="stroke: #A80036; stroke-width: 1.5;" width="244" x="756" y="304"/><text fill="#000000" font-family="sans-serif" font-size="14" lengthAdjust="spacingAndGlyphs" textLength="198" x="779" y="321.9951">entry with existing accession</text><text fill="#000000" font-family="sans-serif" font-size="14" lengthAdjust="spacingAndGlyphs" textLength="230" x="765" y="338.292">and incremented version number</text><text fill="#000000" font-family="sans-serif" font-size="14" lengthAdjust="spacingAndGlyphs" textLength="99" x="830.5" y="354.5889">will be created</text><rect fill="#90EE90" filter="url(#fh4s4sz8gsm13)" height="58.8906" rx="12.5" ry="12.5" style="stroke: #A80036; stroke-width: 1.5;" width="277" x="92.5" y="158.5"/><text fill="#000000" font-family="sans-serif" font-size="14" lengthAdjust="spacingAndGlyphs" textLength="202" x="130" y="176.4951">entry with existing accession,</text><text fill="#000000" font-family="sans-serif" font-size="14" lengthAdjust="spacingAndGlyphs" textLength="204" x="129" y="192.792">incremented version number,</text><text fill="#000000" font-family="sans-serif" font-size="14" lengthAdjust="spacingAndGlyphs" textLength="263" x="101.5" y="209.0889">and is_revocation=true will be created</text><rect fill="#CD5C5C" filter="url(#fh4s4sz8gsm13)" height="40" rx="12.5" ry="12.5" style="stroke: #A80036; stroke-width: 1.5;" width="148" x="233" y="587"/><text fill="#000000" font-family="sans-serif" font-size="14" lengthAdjust="spacingAndGlyphs" textLength="138" x="238" y="611.8467">entry will be deleted</text><polygon fill="#FEFECE" filter="url(#fh4s4sz8gsm13)" points="641,704,653,716,641,728,629,716,641,704" style="stroke: #A80036; stroke-width: 1.5;"/><polygon fill="#FEFECE" filter="url(#fh4s4sz8gsm13)" points="268,448,280,460,268,472,256,460,268,448" style="stroke: #A80036; stroke-width: 1.5;"/><rect fill="#FEFECE" filter="url(#fh4s4sz8gsm13)" height="40" rx="12.5" ry="12.5" style="stroke: #A80036; stroke-width: 1.5;" width="72" x="411" y="313.5"/><text fill="#000000" font-family="sans-serif" font-size="14" lengthAdjust="spacingAndGlyphs" textLength="62" x="416" y="338.3467">STAGING</text><rect fill="#F0F8FF" filter="url(#fh4s4sz8gsm13)" height="50.2656" rx="12.5" ry="12.5" style="stroke: #0000FF; stroke-width: 1.0; stroke-dasharray: 1.0,3.0;" width="164" x="547" y="163"/><line style="stroke: #0000FF; stroke-width: 1.0; stroke-dasharray: 1.0,3.0;" x1="547" x2="711" y1="189.2969" y2="189.2969"/><text fill="#000000" font-family="sans-serif" font-size="14" lengthAdjust="spacingAndGlyphs" textLength="68" x="595" y="180.9951">initial data</text><text fill="#000000" font-family="sans-serif" font-size="12" lengthAdjust="spacingAndGlyphs" textLength="144" x="552" y="205.4355">new unprocessed data</text><rect fill="#F0F8FF" filter="url(#fh4s4sz8gsm13)" height="78.2031" rx="12.5" ry="12.5" style="stroke: #0000FF; stroke-width: 1.0; stroke-dasharray: 1.0,3.0;" width="249" x="753.5" y="149"/><line style="stroke: #0000FF; stroke-width: 1.0; stroke-dasharray: 1.0,3.0;" x1="753.5" x2="1002.5" y1="175.2969" y2="175.2969"/><text fill="#000000" font-family="sans-serif" font-size="14" lengthAdjust="spacingAndGlyphs" textLength="87" x="834.5" y="166.9951">revision data</text><text fill="#000000" font-family="sans-serif" font-size="12" lengthAdjust="spacingAndGlyphs" textLength="164" x="758.5" y="191.4355">already existing sequence</text><text fill="#000000" font-family="sans-serif" font-size="12" lengthAdjust="spacingAndGlyphs" textLength="229" x="758.5" y="205.4043">with status APPROVED_FOR_RELEASE</text><text fill="#000000" font-family="sans-serif" font-size="12" lengthAdjust="spacingAndGlyphs" textLength="158" x="758.5" y="219.373">+ new unprocessed data</text><rect fill="#F0F8FF" filter="url(#fh4s4sz8gsm13)" height="64.2344" rx="12.5" ry="12.5" style="stroke: #0000FF; stroke-width: 1.0; stroke-dasharray: 1.0,3.0;" width="249" x="106.5" y="8"/><line style="stroke: #0000FF; stroke-width: 1.0; stroke-dasharray: 1.0,3.0;" x1="106.5" x2="355.5" y1="34.2969" y2="34.2969"/><text fill="#000000" font-family="sans-serif" font-size="14" lengthAdjust="spacingAndGlyphs" textLength="106" x="178" y="25.9951">revocation data</text><text fill="#000000" font-family="sans-serif" font-size="12" lengthAdjust="spacingAndGlyphs" textLength="164" x="111.5" y="50.4355">already existing sequence</text><text fill="#000000" font-family="sans-serif" font-size="12" lengthAdjust="spacingAndGlyphs" textLength="229" x="111.5" y="64.4043">with status APPROVED_FOR_RELEASE</text><!--MD5=[b1c3c651c51f6d542fdf707f469688eb]
link INITIAL_DATA to CREATING_SUBMIT--><path d="M629,213.02 C629,238.9 629,279.94 629,306.55 " fill="none" id="INITIAL_DATA-&gt;CREATING_SUBMIT" style="stroke: #A80036; stroke-width: 1.0;"/><polygon fill="#A80036" points="629,311.67,633,302.67,629,306.67,625,302.67,629,311.67" style="stroke: #A80036; stroke-width: 1.0;"/><text fill="#000000" font-family="sans-serif" font-size="13" lengthAdjust="spacingAndGlyphs" textLength="109" x="630" y="270.0669">initial submission</text><!--MD5=[1af299dabe81e9a8d968d474765d839a]
link CREATING_SUBMIT to RECEIVED--><path d="M631.15,355.06 C633.43,376.89 637.03,411.38 639.45,434.58 " fill="none" id="CREATING_SUBMIT-&gt;RECEIVED" style="stroke: #A80036; stroke-width: 1.0;"/><polygon fill="#A80036" points="639.98,439.64,643.0327,430.2762,639.4655,434.6665,635.0751,431.0994,639.98,439.64" style="stroke: #A80036; stroke-width: 1.0;"/><!--MD5=[8e7b765b3c0996ed71e907224137a0fd]
link REVISION_DATA to CREATING_REVISE--><path d="M878,227.08 C878,249.37 878,277.27 878,298.77 " fill="none" id="REVISION_DATA-&gt;CREATING_REVISE" style="stroke: #A80036; stroke-width: 1.0;"/><polygon fill="#A80036" points="878,303.81,882,294.81,878,298.81,874,294.81,878,303.81" style="stroke: #A80036; stroke-width: 1.0;"/><text fill="#000000" font-family="sans-serif" font-size="13" lengthAdjust="spacingAndGlyphs" textLength="135" x="879" y="270.0669">user initiates revision</text><!--MD5=[982046ddd6bf4b9f7e87caddf1184244]
link CREATING_REVISE to RECEIVED--><path d="M823.86,363.06 C780.96,385.69 721.96,416.82 682.94,437.4 " fill="none" id="CREATING_REVISE-&gt;RECEIVED" style="stroke: #A80036; stroke-width: 1.0;"/><polygon fill="#A80036" points="678.29,439.86,688.1166,439.1988,682.7124,437.5271,684.3841,432.1229,678.29,439.86" style="stroke: #A80036; stroke-width: 1.0;"/><!--MD5=[c73723950f9d63359444b881b26ba184]
link REVOKED_DATA to CREATING_REVOKE--><path d="M231,72.32 C231,96.1 231,128.76 231,153.14 " fill="none" id="REVOKED_DATA-&gt;CREATING_REVOKE" style="stroke: #A80036; stroke-width: 1.0;"/><polygon fill="#A80036" points="231,158.21,235,149.21,231,153.21,227,149.21,231,158.21" style="stroke: #A80036; stroke-width: 1.0;"/><text fill="#000000" font-family="sans-serif" font-size="13" lengthAdjust="spacingAndGlyphs" textLength="153" x="232" y="115.0669">user initiates revocation</text><!--MD5=[953f3852d7d28473b069de58209de073]
link CREATING_REVOKE to AWAITING_APPROVAL_FOR_REVOCATION--><path d="M231,217.69 C231,244.27 231,283.34 231,308.36 " fill="none" id="CREATING_REVOKE-&gt;AWAITING_APPROVAL_FOR_REVOCATION" style="stroke: #A80036; stroke-width: 1.0;"/><polygon fill="#A80036" points="231,313.47,235,304.47,231,308.47,227,304.47,231,313.47" style="stroke: #A80036; stroke-width: 1.0;"/><!--MD5=[70977d76932ac4583d828b1c764039c4]
link AWAITING_APPROVAL_FOR_REVOCATION to is_approved--><path d="M236.7,353.68 C244.24,379.07 257.36,423.19 263.96,445.4 " fill="none" id="AWAITING_APPROVAL_FOR_REVOCATION-&gt;is_approved" style="stroke: #A80036; stroke-width: 1.0;"/><polygon fill="#A80036" points="265.42,450.3,266.6865,440.5329,263.9937,445.5077,259.0189,442.8149,265.42,450.3" style="stroke: #A80036; stroke-width: 1.0;"/><!--MD5=[3c34e10c3855922ba8b6075c149c4f48]
link RECEIVED to IN_PROCESSING--><path d="M640.56,480.07 C639.95,489.13 639.3,500.12 639,510 C638.36,530.88 638.36,536.12 639,557 C639.25,565.03 639.72,573.79 640.21,581.65 " fill="none" id="RECEIVED-&gt;IN_PROCESSING" style="stroke: #A80036; stroke-width: 1.0;"/><polygon fill="#A80036" points="640.56,586.93,643.9595,577.6864,640.2312,581.9408,635.9768,578.2125,640.56,586.93" style="stroke: #A80036; stroke-width: 1.0;"/><text fill="#000000" font-family="sans-serif" font-size="13" lengthAdjust="spacingAndGlyphs" textLength="131" x="640" y="538.0669">preprocessing starts</text><!--MD5=[3a1dd029724b533998684f66bdb33020]
link IN_PROCESSING to is_error--><path d="M641.82,627.13 C641.63,647.57 641.33,679.62 641.15,698.84 " fill="none" id="IN_PROCESSING-&gt;is_error" style="stroke: #A80036; stroke-width: 1.0;"/><polygon fill="#A80036" points="641.1,703.9,645.2026,694.9463,641.1571,698.9003,637.2031,694.8549,641.1,703.9" style="stroke: #A80036; stroke-width: 1.0;"/><!--MD5=[22bba7b51242d55c80bc3e6ac8f32afd]
link is_error to HAS_ERRORS--><path d="M638.01,725.12 C634.19,736.94 629.09,759.19 638,775 C644.34,786.25 654.42,795.21 665.35,802.22 " fill="none" id="is_error-&gt;HAS_ERRORS" style="stroke: #A80036; stroke-width: 1.0;"/><polygon fill="#A80036" points="669.73,804.92,664.1539,796.8017,665.4693,802.3035,659.9675,803.6189,669.73,804.92" style="stroke: #A80036; stroke-width: 1.0;"/><text fill="#000000" font-family="sans-serif" font-size="13" lengthAdjust="spacingAndGlyphs" textLength="132" x="639" y="771.0669">data contain error(s)</text><!--MD5=[41417b827901b1afba40d852417a4ab8]
link HAS_ERRORS to RECEIVED--><path d="M750.64,804.8 C760.67,796.93 770.56,786.86 776,775 C825.14,667.96 843.48,606.53 776,510 C756.14,481.6 717.97,469.6 687.43,464.57 " fill="none" id="HAS_ERRORS-&gt;RECEIVED" style="stroke: #A80036; stroke-width: 1.0;"/><polygon fill="#A80036" points="682.21,463.76,690.4832,469.1036,687.1499,464.5332,691.7203,461.1999,682.21,463.76" style="stroke: #A80036; stroke-width: 1.0;"/><text fill="#000000" font-family="sans-serif" font-size="13" lengthAdjust="spacingAndGlyphs" textLength="96" x="818" y="670.0669">user edits data</text><!--MD5=[78191d2771fb8de116e65ab3504bf464]
link STAGING to RECEIVED--><path d="M464.4,353.82 C480.06,370.35 504.34,393.96 529,410 C550.08,423.71 575.64,435.17 597.12,443.54 " fill="none" id="STAGING-&gt;RECEIVED" style="stroke: #A80036; stroke-width: 1.0;"/><polygon fill="#A80036" points="601.91,445.39,594.9501,438.4215,597.2444,443.5922,592.0737,445.8865,601.91,445.39" style="stroke: #A80036; stroke-width: 1.0;"/><text fill="#000000" font-family="sans-serif" font-size="13" lengthAdjust="spacingAndGlyphs" textLength="96" x="530" y="406.0669">user edits data</text><!--MD5=[0f3d0384e7d853f72ce49eb0cbed404e]
link is_error to STAGING--><path d="M633.69,711.05 C606.09,695.67 507.74,636.73 468,557 C435.3,491.4 439.43,401.45 443.83,358.81 " fill="none" id="is_error-&gt;STAGING" style="stroke: #A80036; stroke-width: 1.0;"/><polygon fill="#A80036" points="444.4,353.61,439.4467,362.1226,443.8572,358.5805,447.3994,362.991,444.4,353.61" style="stroke: #A80036; stroke-width: 1.0;"/><text fill="#000000" font-family="sans-serif" font-size="13" lengthAdjust="spacingAndGlyphs" textLength="160" x="469" y="538.0669">preprocessing successful</text><!--MD5=[02300ae8e7ad78918d225c7341b59a84]
link STAGING to is_approved--><path d="M419.42,353.68 C379.19,381.66 306.21,432.42 278.79,451.49 " fill="none" id="STAGING-&gt;is_approved" style="stroke: #A80036; stroke-width: 1.0;"/><polygon fill="#A80036" points="274.51,454.47,284.1809,452.6061,278.6122,451.6113,279.607,446.0426,274.51,454.47" style="stroke: #A80036; stroke-width: 1.0;"/><!--MD5=[607b734eed5ff8ea7f2e3b44565a9d4b]
link is_approved to APPROVED_FOR_RELEASE--><path d="M257.36,461.65 C231.78,463.8 166.34,472.84 131,510 C112.53,529.42 105.78,560.2 103.34,581.66 " fill="none" id="is_approved-&gt;APPROVED_FOR_RELEASE" style="stroke: #A80036; stroke-width: 1.0;"/><polygon fill="#A80036" points="102.81,586.9,107.6906,578.3455,103.3103,581.9251,99.7307,577.5449,102.81,586.9" style="stroke: #A80036; stroke-width: 1.0;"/><text fill="#000000" font-family="sans-serif" font-size="13" lengthAdjust="spacingAndGlyphs" textLength="91" x="155" y="523.0669">user approves</text><text fill="#000000" font-family="sans-serif" font-size="13" lengthAdjust="spacingAndGlyphs" textLength="141" x="132" y="538.1997">or automatic approval</text><text fill="#000000" font-family="sans-serif" font-size="13" lengthAdjust="spacingAndGlyphs" textLength="128" x="140.5" y="553.3325">via 'release_directly'</text><!--MD5=[b50ba5a3ffd1889cac4ccf6b9cd683b6]
link is_approved to DELETION--><path d="M270.44,470.07 C276.36,492.08 291.65,548.92 300.47,581.71 " fill="none" id="is_approved-&gt;DELETION" style="stroke: #A80036; stroke-width: 1.0;"/><polygon fill="#A80036" points="301.82,586.75,303.3427,577.0196,300.5201,581.9219,295.6178,579.0994,301.82,586.75" style="stroke: #A80036; stroke-width: 1.0;"/><text fill="#000000" font-family="sans-serif" font-size="13" lengthAdjust="spacingAndGlyphs" textLength="75" x="295" y="538.0669">user rejects</text><!--MD5=[9b6d2d40f98ca1b5b4f3c2750b033e69]
@startuml
    hide empty description

    state INITIAL_DATA as "initial data" #aliceblue;line:blue;line.dotted;text:blue {
        INITIAL_DATA: new unprocessed data
        }
    state REVISION_DATA as "revision data" #aliceblue;line:blue;line.dotted;text:blue {
        REVISION_DATA: already existing sequence
        REVISION_DATA: with status APPROVED_FOR_RELEASE
        REVISION_DATA: + new unprocessed data
    }
    state REVOKED_DATA as "revocation data" #aliceblue;line:blue;line.dotted;text:blue{
        REVOKED_DATA: already existing sequence
        REVOKED_DATA: with status APPROVED_FOR_RELEASE
    }

    state AWAITING_APPROVAL_FOR_REVOCATION
    state RECEIVED
    state IN_PROCESSING
    state HAS_ERRORS
    state RECEIVED
    state APPROVED_FOR_RELEASE

    state CREATING_SUBMIT as "entry with new accession\n will be created" #lightgreen;line:green;line.dotted
    state CREATING_REVISE as "entry with existing accession\n and incremented version number\n will be created" #lightgreen;line:green;line.dotted
    state CREATING_REVOKE as "entry with existing accession,\n incremented version number, \n and is_revocation=true will be created" #lightgreen;line:green;line.dotted
    state DELETION as "entry will be deleted" #IndianRed;line:red;line.dotted
    state is_error <<choice>>
    state is_approved <<choice>>

    INITIAL_DATA - -> CREATING_SUBMIT : initial submission
    CREATING_SUBMIT - -> RECEIVED
    REVISION_DATA - -> CREATING_REVISE : user initiates revision
    CREATING_REVISE - -> RECEIVED

    REVOKED_DATA - -> CREATING_REVOKE : user initiates revocation
    CREATING_REVOKE - -> AWAITING_APPROVAL_FOR_REVOCATION
    AWAITING_APPROVAL_FOR_REVOCATION - -> is_approved

    RECEIVED - -> IN_PROCESSING : preprocessing starts
    IN_PROCESSING - -> is_error
    is_error - -> HAS_ERRORS : data contain error(s)
    HAS_ERRORS - -> RECEIVED : user edits data
    STAGING - -> RECEIVED : user edits data
    is_error - -> STAGING : preprocessing successful
    STAGING - -> is_approved
    is_approved - -> APPROVED_FOR_RELEASE : user approves \nor automatic approval\n via 'release_directly'
    is_approved - -> DELETION : user rejects

@enduml

PlantUML version 1.2020.02(Sun Mar 01 11:22:07 CET 2020)
(GPL source distribution)
Java Runtime: OpenJDK Runtime Environment
JVM: OpenJDK 64-Bit Server VM
Java Version: 21.0.1+12-LTS
Operating System: Linux
Default Encoding: UTF-8
Language: de
Country: DE
--></g></svg>