<svg version="1.1" id="Layer_1" xmlns="http://www.w3.org/2000/svg"
	xmlns:xlink="http://www.w3.org/1999/xlink" x="0px" y="0px"
	viewBox="0 0 251.5 251.5" style="enable-background:new 0 0 251.5 251.5;" xml:space="preserve">
<style type="text/css">
	.st0{fill:#1c7dad;}
</style>
<g transform="matrix(.023549 0 0 -.023549 0 251.51)">
	<path class="st0" d="M3590,1955v-185h370v370h-370V1955z M4110,4040v-190h370v380h-370V4040z M2030,4560v-190h370v380h-370V4560z
		 M2290,5215v-315h89c103,0,144-12,160-46c7-17,11-115,11-298c0-345,9-326-151-326h-109v-120h1668l4,109c4,149,6,151,150,151h108
		v1160h-110v-108c0-162,22-152-332-152c-355,0-332-11-336,149l-4,111H2290V5215z M3590,5605v-185h370v370h-370V5605z M1510,6645
		v-185h370v370h-370V6645z M4110,7165v-185h370v370h-370V7165z M3070,8210v-190h370v380h-370V8210z M3775,9744
		c-571-45-1040-300-1232-670c-23-44-54-120-69-169c-25-82-28-105-28-250c0-141,3-173,27-267c37-148,78-250,196-487
		c56-112,100-205,98-207s-98,28-213,66c-283,95-371,113-559,113c-166,1-264-15-398-64c-333-121-601-401-717-747
		c-48-146-64-243-64-397c-1-158,13-247,56-385c61-190,175-380,324-539c104-110,196-185,371-302c73-49,133-93,133-97s-55-43-122-87
		c-158-104-254-180-353-280c-204-204-335-443-391-715c-22-104-25-331-5-440c70-394,322-734,667-900c168-81,344-116,543-107
		c163,7,241,24,497,108c115,38,215,69,222,69c6,0-39-102-99-227c-162-336-204-467-215-683c-17-323,121-604,401-814
		c454-341,1198-427,1672-193c206,101,334,248,390,447c17,62,18,214,18,3820c0,3122-2,3764-14,3810c-73,300-350,511-756,575
		C4058,9740,3856,9750,3775,9744z M3567,8518l23-21v-288c0-356,11-332-149-337l-111-4v-628h628l4,111c4,160-19,149,336,149
		c280,0,286,0,309-22l23-21v-586l-26-20c-26-20-39-21-300-21c-179,0-281,4-297,11c-37,17-47,50-47,154v95h-780v780h-89
		c-103,0-144,12-160,46c-7,17-11,115-11,298c0,261,1,274,21,300l20,26h292C3538,8540,3544,8540,3567,8518z M2001,6961
		c22-18,24-28,27-130l4-111h1818v-780h105c99,0,107-2,130-25s25-31,25-130v-105h260V4370h114c107,0,116-1,130-22c14-19,16-66,16-310
		c0-275-1-289-20-308s-33-20-313-20c-357,0-330-12-335,151l-4,109h-888V2030h370v105c0,99,2,107,25,130l24,25h287
		c282,0,288,0,311-22l23-21v-578l-25-24l-24-25h-273c-150,0-283,3-296,6c-38,11-52,53-52,159v95h-520v2090h-780v260h-107
		c-96,0-109,2-130,22l-23,21v288c0,356-11,332,149,337l111,4v778h1298l4,110c4,144,4,144,148,148l110,4v628H2032l-4-111
		c-4-160,19-149-335-149h-284l-24,25l-25,24v580l26,20c26,20,39,21,309,21C1958,6980,1979,6979,2001,6961z M0,5340V0h10680v10680H0
		V5340z M4240,10020c545-101,898-409,975-849c23-127,22-7526,0-7654c-80-462-467-779-1047-862c-151-21-433-19-593,4
		c-558,82-1016,347-1253,725c-194,309-237,703-118,1089l15,49l-47-6c-171-20-327-14-489,20c-426,88-806,386-1007,789
		c-111,222-155,399-163,655c-5,150-2,193,16,299c67,394,274,746,603,1028l37,32l-143,143c-199,200-317,371-405,593
		c-85,212-116,400-108,640c9,241,50,409,152,622c71,149,159,275,275,396c163,171,354,294,575,370c176,61,254,72,490,72h211l-22,75
		c-99,341-65,717,88,989c238,424,737,719,1346,797C3785,10056,4092,10048,4240,10020z M7125,10025c430-69,793-241,1050-499
		c197-199,307-404,352-661c23-133,13-394-20-535c-14-58-30-116-35-130l-10-25h212c231,0,294-9,476-67c423-135,779-492,934-937
		c66-189,80-280,80-511c0-175-3-220-22-307c-77-355-240-638-522-906l-112-106l39-33c314-270,513-595,595-972c19-86,22-132,22-306
		c0-175-3-220-22-310c-172-794-853-1296-1634-1204l-46,6l28-105c42-156,53-264,47-439c-8-231-58-401-173-584c-64-103-82-125-182-228
		c-263-270-659-453-1105-511c-150-19-429-19-566,0c-488,70-847,309-991,662c-15,38-36,100-46,138c-18,68-19,203-21,3858
		c-3,3681-3,3791,16,3880c74,361,320,622,718,761c110,38,255,71,373,86C6668,10053,7007,10044,7125,10025z"/>
	<path class="st0" d="M6637,9739c-191-17-386-72-524-150c-109-61-238-190-286-285c-20-39-44-100-54-135c-17-61-18-218-18-3824
		c0-3563,1-3763,18-3825c94-345,441-556,952-577c475-19,944,145,1231,431c103,102,170,199,214,309c52,131,64,198,64,357
		c-1,233-42,370-212,720c-61,124-106,226-101,228c4,2,104-28,221-67c295-97,345-106,558-105c155,1,186,4,271,26
		c134,36,229,78,339,149c270,175,459,455,532,789c30,137,30,356-1,500c-55,256-184,490-385,694c-98,100-193,175-354,281
		c-67,44-122,83-122,87s67,52,148,107c298,201,476,391,603,643c243,483,152,1065-225,1444c-230,231-491,338-821,337
		c-188,0-276-18-559-113c-115-38-211-68-213-66s47,106,109,232c171,346,212,487,211,729c0,123-4,165-22,230c-45,165-127,304-257,432
		c-239,235-605,387-1019,422C6802,9751,6766,9751,6637,9739z M6689,9347c78-233,173-330,408-413c70-25,129-47,131-49
		c2-1-48-20-110-40c-138-46-203-81-273-149c-75-74-106-128-156-271c-24-69-46-122-50-117c-3,4-23,57-43,119c-42,126-89,206-162,274
		c-68,63-120,91-257,140c-65,23-115,45-110,49c4,4,59,24,121,45c128,42,208,90,277,167c63,70,87,115,129,238c48,138,45,130,50,130
		C6646,9470,6667,9415,6689,9347z M6480,7455c34-17,46-53,53-151c3-39,13-96,22-128l16-56h587c639,0,632,1,632-55c0-57,19-55-596-55
		h-565l30-44c17-25,57-72,89-105l58-61h704l12-25c8-19,8-31,0-50l-11-25l-288-2l-287-3l124-81c99-64,215-135,281-170
		c9-5,273,155,374,227c295,209,423,396,444,646c8,92,10,98,41,126c27,24,39,28,69,23c80-12,97-74,66-251c-54-306-269-560-694-817
		c-95-57-102-63-85-76c11-7,67-44,126-80c292-182,475-358,573-552c127-251,125-559-6-810c-53-102-153-225-258-316
		c-84-74-295-221-398-280c-29-16-53-31-53-34s55-39,123-80c447-273,660-550,683-890c7-104-3-136-51-156c-42-17-75-11-106,22
		c-18,19-23,41-30,116c-4,51-16,118-25,148c-68,226-254,413-643,645l-143,86l-92-52c-50-28-140-84-200-123l-108-71l277-5
		c259-5,278-6,291-24c18-26,18-51-2-70c-13-14-60-16-363-16h-347l-50-52c-28-29-68-75-88-103l-38-50l571-3l572-2l11-25
		c8-19,8-31,0-50l-11-25l-598-2l-598-3l-18-55c-10-30-22-97-26-147c-6-70-13-99-27-114c-29-32-62-41-101-28c-63,21-76,83-48,244
		c55,315,286,581,729,841c36,21,66,41,66,44c-1,3-54,38-120,78c-387,236-584,457-662,741c-17,62-21,105-21,226c0,133,3,160,27,238
		c82,273,266,479,634,709c70,43,130,83,135,87c4,4-48,41-115,83c-437,270-639,523-679,851c-15,121-8,162,34,187
		C6421,7474,6442,7475,6480,7455z M9189,6847c78-234,180-336,415-417c66-22,121-42,123-44s-52-22-119-45c-240-82-340-182-419-419
		c-23-68-45-120-49-115c-4,4-24,58-44,120c-42,126-89,206-162,274c-69,64-125,94-253,137c-61,20-111,42-111,47c0,6,50,27,111,47
		c128,43,184,73,253,137c72,68,120,148,162,274c37,114,42,127,49,127C9147,6970,9167,6915,9189,6847z M6690,2415
		c46-138,78-190,163-272c72-70,123-98,262-143c55-18,104-36,108-40c5-4-47-26-116-49c-140-47-196-79-271-154c-69-69-98-121-150-268
		c-24-67-45-118-48-113s-22,59-42,121c-42,126-90,206-163,274c-74,69-120,95-253,140c-67,23-118,45-113,49c4,4,58,24,118,44
		c125,41,214,94,276,164c64,72,86,113,129,235c22,61,42,118,45,126C6643,2550,6647,2542,6690,2415z"/>
	<path class="st0" d="M6595,9027c-23-29-66-72-97-96l-55-45l46-36c50-40,121-114,139-146c11-18,13-17,39,16c35,45,99,109,141,141
		l32,25l-54,45c-30,25-73,68-96,95c-24,27-46,50-49,51S6617,9055,6595,9027z"/>
	<path class="st0" d="M7197,6138c-488-294-667-522-667-848c0-334,192-569,714-875l100-58l50,28c73,40,296,181,326,205l25,20h-272
		c-260,0-274,1-293,20c-25,25-26,52-2,73c17,15,57,17,364,17h345l59,63c57,59,104,119,104,131c0,3-252,7-561,8c-542,3-561,4-575,22
		c-18,26-18,51,2,70c14,14,83,16,608,16h593l17,58c8,31,19,79,22,105l7,47h-746c-664,0-747,2-761,16c-19,18-20,38-6,65
		c10,19,29,19,762,19h751l-7,53c-4,28-14,76-23,105l-17,52h-591c-561,0-593,1-608,18c-22,25-21,48,3,72c20,20,33,20,581,20h560
		l-33,46c-57,80-219,226-343,310c-127,86-325,204-341,204C7338,6220,7272,6183,7197,6138z"/>
	<path class="st0" d="M9130,6571c0-13-115-135-153-161l-34-24l47-37c26-21,71-65,101-98l53-60l35,42c35,41,92,96,139,134l23,18
		l-57,48c-31,26-75,70-97,97C9149,6577,9130,6591,9130,6571z"/>
	<path class="st0" d="M6596,2099c-21-28-65-71-96-97l-58-46l43-32c23-18,69-62,102-98l58-66l43,55c23,30,66,73,95,96l53,41l-99,99
		c-54,54-100,99-100,99C6636,2149,6618,2126,6596,2099z"/>
</g>
</svg>