<svg xmlns="http://www.w3.org/2000/svg" xmlns:xlink="http://www.w3.org/1999/xlink" contentStyleType="text/css" height="578px" preserveAspectRatio="none" style="width:303px;height:578px;background:#FFFFFF;" version="1.1" viewBox="0 0 303 578" width="303px" zoomAndPan="magnify"><title>Loculus Building Block Overview</title><defs/><g><text fill="#000000" font-family="sans-serif" font-size="14" font-weight="bold" lengthAdjust="spacing" textLength="256.0469" x="16.4766" y="22.9951">Loculus Building Block Overview</text><!--cluster loculus--><g id="cluster_loculus"><rect fill="none" height="309" rx="2.5" ry="2.5" style="stroke:#181818;stroke-width:1.0;" width="290" x="7" y="143.7969"/><path d="M76.9033,143.7969 L76.9033,153.0938 L66.9033,163.0938 L7,163.0938 " fill="none" style="stroke:#181818;stroke-width:1.0;"/><text fill="#000000" font-family="sans-serif" font-size="14" font-weight="bold" lengthAdjust="spacing" textLength="59.9033" x="10" y="157.792">Loculus</text></g><!--entity website--><g id="elem_website"><rect fill="#F1F1F1" height="46.2969" rx="2.5" ry="2.5" style="stroke:#181818;stroke-width:0.5;" width="154.0713" x="82" y="178.7969"/><rect fill="#F1F1F1" height="10" style="stroke:#181818;stroke-width:0.5;" width="15" x="216.0713" y="183.7969"/><rect fill="#F1F1F1" height="2" style="stroke:#181818;stroke-width:0.5;" width="4" x="214.0713" y="185.7969"/><rect fill="#F1F1F1" height="2" style="stroke:#181818;stroke-width:0.5;" width="4" x="214.0713" y="189.7969"/><text fill="#000000" font-family="sans-serif" font-size="14" lengthAdjust="spacing" textLength="114.0713" x="97" y="211.792">Loculus Website</text></g><!--entity backend--><g id="elem_backend"><rect fill="#F1F1F1" height="46.2969" rx="2.5" ry="2.5" style="stroke:#181818;stroke-width:0.5;" width="258.3604" x="23" y="390.7969"/><rect fill="#F1F1F1" height="10" style="stroke:#181818;stroke-width:0.5;" width="15" x="261.3604" y="395.7969"/><rect fill="#F1F1F1" height="2" style="stroke:#181818;stroke-width:0.5;" width="4" x="259.3604" y="397.7969"/><rect fill="#F1F1F1" height="2" style="stroke:#181818;stroke-width:0.5;" width="4" x="259.3604" y="401.7969"/><text fill="#000000" font-family="sans-serif" font-size="14" lengthAdjust="spacing" textLength="218.3604" x="38" y="423.792">Loculus Backend Infrastructure</text></g><!--entity lapis--><g id="elem_lapis"><rect fill="#F1F1F1" height="46.2969" rx="2.5" ry="2.5" style="stroke:#181818;stroke-width:0.5;" width="124.2871" x="157" y="284.7969"/><rect fill="#F1F1F1" height="10" style="stroke:#181818;stroke-width:0.5;" width="15" x="261.2871" y="289.7969"/><rect fill="#F1F1F1" height="2" style="stroke:#181818;stroke-width:0.5;" width="4" x="259.2871" y="291.7969"/><rect fill="#F1F1F1" height="2" style="stroke:#181818;stroke-width:0.5;" width="4" x="259.2871" y="295.7969"/><text fill="#000000" font-family="sans-serif" font-size="14" lengthAdjust="spacing" textLength="84.2871" x="172" y="317.792">LAPIS / SILO</text></g><!--entity user--><g id="elem_user"><ellipse cx="212.9551" cy="51.2969" fill="#F1F1F1" rx="8" ry="8" style="stroke:#181818;stroke-width:0.5;"/><path d="M212.9551,59.2969 L212.9551,86.2969 M199.9551,67.2969 L225.9551,67.2969 M212.9551,86.2969 L199.9551,101.2969 M212.9551,86.2969 L225.9551,101.2969 " fill="none" style="stroke:#181818;stroke-width:0.5;"/><text fill="#000000" font-family="sans-serif" font-size="14" lengthAdjust="spacing" textLength="31.9102" x="197" y="115.792">User</text></g><!--entity submitter--><g id="elem_submitter"><ellipse cx="104.7607" cy="51.2969" fill="#F1F1F1" rx="8" ry="8" style="stroke:#181818;stroke-width:0.5;"/><path d="M104.7607,59.2969 L104.7607,86.2969 M91.7607,67.2969 L117.7607,67.2969 M104.7607,86.2969 L91.7607,101.2969 M104.7607,86.2969 L117.7607,101.2969 " fill="none" style="stroke:#181818;stroke-width:0.5;"/><text fill="#000000" font-family="sans-serif" font-size="14" lengthAdjust="spacing" textLength="69.5215" x="70" y="115.792">Submitter</text></g><!--entity insdc--><g id="elem_insdc"><ellipse cx="152.022" cy="505.2969" fill="#F1F1F1" rx="8" ry="8" style="stroke:#181818;stroke-width:0.5;"/><path d="M152.022,513.2969 L152.022,540.2969 M139.022,521.2969 L165.022,521.2969 M152.022,540.2969 L139.022,555.2969 M152.022,540.2969 L165.022,555.2969 " fill="none" style="stroke:#181818;stroke-width:0.5;"/><text fill="#000000" font-family="sans-serif" font-size="14" lengthAdjust="spacing" textLength="44.0439" x="130" y="569.792">INSDC</text></g><!--link submitter to website--><g id="link_submitter_website"><path d="M121.79,118.7969 C130.71,138.4469 138.8904,156.4732 146.5104,173.2632 " fill="none" id="submitter-to-website" style="stroke:#181818;stroke-width:1.0;"/><polygon fill="#181818" points="148.99,178.7269,148.913,168.8783,146.9236,174.1738,141.6281,172.1845,148.99,178.7269" style="stroke:#181818;stroke-width:1.0;"/></g><!--link submitter to backend--><g id="link_submitter_backend"><path d="M72.11,118.9669 C68.8,124.3269 65.95,129.9969 64,135.7969 C51.38,173.2869 55.41,186.1869 64,224.7969 C78.2,288.6469 113.3413,351.3556 134.4313,385.4156 " fill="none" id="submitter-to-backend" style="stroke:#181818;stroke-width:1.0;"/><polygon fill="#181818" points="137.59,390.5169,136.2528,380.7592,134.9578,386.2658,129.4511,384.9708,137.59,390.5169" style="stroke:#181818;stroke-width:1.0;"/></g><!--link user to website--><g id="link_user_website"><path d="M196.94,117.1769 C187.93,137.0469 179.4285,155.7727 171.6085,173.0127 " fill="none" id="user-to-website" style="stroke:#181818;stroke-width:1.0;"/><polygon fill="#181818" points="169.13,178.4769,176.4905,171.933,171.1954,173.9234,169.205,168.6283,169.13,178.4769" style="stroke:#181818;stroke-width:1.0;"/></g><!--link user to lapis--><g id="link_user_lapis"><path d="M229.05,97.1669 C238.3,107.1769 249.04,121.0669 254,135.7969 C266.62,173.2869 261.92,186.0469 254,224.7969 C249.66,246.0269 242.335,263.2165 234.105,279.2865 " fill="none" id="user-to-lapis" style="stroke:#181818;stroke-width:1.0;"/><polygon fill="#181818" points="231.37,284.6269,239.0328,278.4396,233.6492,280.1765,231.9122,274.793,231.37,284.6269" style="stroke:#181818;stroke-width:1.0;"/></g><!--link website to backend--><g id="link_website_backend"><path d="M152.45,224.8369 C147.95,241.2069 142.36,264.1769 140,284.7969 C135.77,321.8269 141.0166,359.1268 145.9766,384.6768 " fill="none" id="website-to-backend" style="stroke:#181818;stroke-width:1.0;"/><polygon fill="#181818" points="147.12,390.5669,149.3316,380.9695,146.1671,385.6585,141.4782,382.4941,147.12,390.5669" style="stroke:#181818;stroke-width:1.0;"/></g><!--link website to lapis--><g id="link_website_lapis"><path d="M171.72,224.8569 C181.91,242.4969 193.1232,261.9389 203.2932,279.5789 " fill="none" id="website-to-lapis" style="stroke:#181818;stroke-width:1.0;"/><polygon fill="#181818" points="206.29,284.7769,205.2601,274.982,203.7927,280.4452,198.3295,278.9777,206.29,284.7769" style="stroke:#181818;stroke-width:1.0;"/></g><!--link lapis to backend--><g id="link_lapis_backend"><path d="M204.79,330.8569 C193.42,348.4969 180.7986,368.0924 169.4386,385.7324 " fill="none" id="lapis-to-backend" style="stroke:#181818;stroke-width:1.0;"/><polygon fill="#181818" points="166.19,390.7769,174.4259,385.3759,168.8972,386.5732,167.6999,381.0444,166.19,390.7769" style="stroke:#181818;stroke-width:1.0;"/></g><!--link backend to insdc--><g id="link_backend_insdc"><path d="M152,436.8969 C152,453.5669 152,470.8269 152,490.3769 " fill="none" id="backend-to-insdc" style="stroke:#181818;stroke-width:1.0;"/><polygon fill="#181818" points="152,496.3769,156,487.3769,152,491.3769,148,487.3769,152,496.3769" style="stroke:#181818;stroke-width:1.0;"/></g><!--SRC=[TP312i8m38RlUOhWNNm3mUbb82eCyTnrLODTAssg1_7TxTPkAc8FRVBzVn8Q9jOArrO67JmMWNH3veI5jlA2svjoDr9t027PEjnxvL1u3F7Dg0frIyo9-o79OhcfLijE8ECR2N1qedqFYrpdy04OZxJjrHfb62U3vw1gJwmcdVcUud_MGiYBCWsM9exnx8Bau59bdQIVoiMkh726LRdUzZujhkJX2J1-1AVJ-JZuWpewdJbAGsVeLl9b7a5g2fdtQAZwPCdMtryUo44FynvV]--></g></svg>