<svg xmlns="http://www.w3.org/2000/svg" xmlns:xlink="http://www.w3.org/1999/xlink" contentStyleType="text/css" height="637px" preserveAspectRatio="none" style="width:456px;height:637px;background:#FFFFFF;" version="1.1" viewBox="0 0 456 637" width="456px" zoomAndPan="magnify"><title>Loculus Building Block Overview</title><defs/><g><text fill="#000000" font-family="sans-serif" font-size="14" font-weight="bold" lengthAdjust="spacing" textLength="256.0469" x="93.3284" y="22.9951">Loculus Building Block Overview</text><!--cluster loculus--><g id="cluster_loculus"><rect fill="none" height="327" rx="2.5" ry="2.5" style="stroke:#181818;stroke-width:1.0;" width="290" x="27.48" y="181.7969"/><path d="M97.3833,181.7969 L97.3833,191.0938 L87.3833,201.0938 L27.48,201.0938 " fill="none" style="stroke:#181818;stroke-width:1.0;"/><text fill="#000000" font-family="sans-serif" font-size="14" font-weight="bold" lengthAdjust="spacing" textLength="59.9033" x="30.48" y="195.792">Loculus</text></g><!--entity website--><g id="elem_website"><rect fill="#F1F1F1" height="46.2969" rx="2.5" ry="2.5" style="stroke:#181818;stroke-width:0.5;" width="154.0713" x="69.48" y="216.7969"/><rect fill="#F1F1F1" height="10" style="stroke:#181818;stroke-width:0.5;" width="15" x="203.5513" y="221.7969"/><rect fill="#F1F1F1" height="2" style="stroke:#181818;stroke-width:0.5;" width="4" x="201.5513" y="223.7969"/><rect fill="#F1F1F1" height="2" style="stroke:#181818;stroke-width:0.5;" width="4" x="201.5513" y="227.7969"/><text fill="#000000" font-family="sans-serif" font-size="14" lengthAdjust="spacing" textLength="114.0713" x="84.48" y="249.792">Loculus Website</text></g><!--entity backend--><g id="elem_backend"><rect fill="#F1F1F1" height="46.2969" rx="2.5" ry="2.5" style="stroke:#181818;stroke-width:0.5;" width="258.3604" x="43.48" y="446.7969"/><rect fill="#F1F1F1" height="10" style="stroke:#181818;stroke-width:0.5;" width="15" x="281.8404" y="451.7969"/><rect fill="#F1F1F1" height="2" style="stroke:#181818;stroke-width:0.5;" width="4" x="279.8404" y="453.7969"/><rect fill="#F1F1F1" height="2" style="stroke:#181818;stroke-width:0.5;" width="4" x="279.8404" y="457.7969"/><text fill="#000000" font-family="sans-serif" font-size="14" lengthAdjust="spacing" textLength="218.3604" x="58.48" y="479.792">Loculus Backend Infrastructure</text></g><!--entity lapis--><g id="elem_lapis"><rect fill="#F1F1F1" height="46.2969" rx="2.5" ry="2.5" style="stroke:#181818;stroke-width:0.5;" width="124.2871" x="177.48" y="339.7969"/><rect fill="#F1F1F1" height="10" style="stroke:#181818;stroke-width:0.5;" width="15" x="281.7671" y="344.7969"/><rect fill="#F1F1F1" height="2" style="stroke:#181818;stroke-width:0.5;" width="4" x="279.7671" y="346.7969"/><rect fill="#F1F1F1" height="2" style="stroke:#181818;stroke-width:0.5;" width="4" x="279.7671" y="350.7969"/><text fill="#000000" font-family="sans-serif" font-size="14" lengthAdjust="spacing" textLength="84.2871" x="192.48" y="372.792">LAPIS / SILO</text></g><!--entity user--><g id="elem_user"><ellipse cx="173.4351" cy="51.2969" fill="#F1F1F1" rx="8" ry="8" style="stroke:#181818;stroke-width:0.5;"/><path d="M173.4351,59.2969 L173.4351,86.2969 M160.4351,67.2969 L186.4351,67.2969 M173.4351,86.2969 L160.4351,101.2969 M173.4351,86.2969 L186.4351,101.2969 " fill="none" style="stroke:#181818;stroke-width:0.5;"/><text fill="#000000" font-family="sans-serif" font-size="14" lengthAdjust="spacing" textLength="31.9102" x="157.48" y="115.792">User</text></g><!--entity submitter--><g id="elem_submitter"><ellipse cx="65.2407" cy="51.2969" fill="#F1F1F1" rx="8" ry="8" style="stroke:#181818;stroke-width:0.5;"/><path d="M65.2407,59.2969 L65.2407,86.2969 M52.2407,67.2969 L78.2407,67.2969 M65.2407,86.2969 L52.2407,101.2969 M65.2407,86.2969 L78.2407,101.2969 " fill="none" style="stroke:#181818;stroke-width:0.5;"/><text fill="#000000" font-family="sans-serif" font-size="14" lengthAdjust="spacing" textLength="69.5215" x="30.48" y="115.792">Submitter</text></g><!--entity insdc--><g id="elem_insdc"><ellipse cx="172.502" cy="564.2969" fill="#F1F1F1" rx="8" ry="8" style="stroke:#181818;stroke-width:0.5;"/><path d="M172.502,572.2969 L172.502,599.2969 M159.502,580.2969 L185.502,580.2969 M172.502,599.2969 L159.502,614.2969 M172.502,599.2969 L185.502,614.2969 " fill="none" style="stroke:#181818;stroke-width:0.5;"/><text fill="#000000" font-family="sans-serif" font-size="14" lengthAdjust="spacing" textLength="44.0439" x="150.48" y="628.792">INSDC</text></g><!--link submitter to website--><g id="link_submitter_website"><path d="M84.68,119.0069 C100.3,149.2869 119.0888,185.7048 132.1788,211.0748 " fill="none" id="submitter-to-website" style="stroke:#181818;stroke-width:1.0;"/><polygon fill="#181818" points="134.93,216.4069,134.358,206.5746,132.6374,211.9635,127.2485,210.2429,134.93,216.4069" style="stroke:#181818;stroke-width:1.0;"/></g><!--link submitter to backend--><g id="link_submitter_backend"><path d="M48.56,118.9469 C30.03,165.1069 6,245.6269 30.48,309.7969 C52.84,368.4069 103.1465,415.3691 137.7665,442.9391 " fill="none" id="submitter-to-backend" style="stroke:#181818;stroke-width:1.0;"/><polygon fill="#181818" points="142.46,446.6769,137.9115,437.9412,138.5487,443.5621,132.9279,444.1993,142.46,446.6769" style="stroke:#181818;stroke-width:1.0;"/><text fill="#000000" font-family="sans-serif" font-size="13" lengthAdjust="spacing" textLength="111.8457" x="31.48" y="305.8638">Direct API access</text></g><!--link user to website--><g id="link_user_website"><path d="M167.08,119.0069 C161.87,149.2869 155.7062,185.1236 151.3462,210.4936 " fill="none" id="user-to-website" style="stroke:#181818;stroke-width:1.0;"/><polygon fill="#181818" points="150.33,216.4069,155.7966,208.2144,151.1769,211.4791,147.9122,206.8594,150.33,216.4069" style="stroke:#181818;stroke-width:1.0;"/><text fill="#000000" font-family="sans-serif" font-size="13" lengthAdjust="spacing" textLength="102.1147" x="163.48" y="161.8638">Browse website</text></g><!--link user to lapis--><g id="link_user_lapis"><path d="M189.69,87.3269 C212.75,96.1969 254.17,115.9869 271.48,148.7969 C304.81,211.9669 273.2029,294.0357 253.6829,334.3857 " fill="none" id="user-to-lapis" style="stroke:#181818;stroke-width:1.0;"/><polygon fill="#181818" points="251.07,339.7869,258.5901,333.4271,253.2474,335.2859,251.3886,329.9432,251.07,339.7869" style="stroke:#181818;stroke-width:1.0;"/><text fill="#000000" font-family="sans-serif" font-size="13" lengthAdjust="spacing" textLength="163.2236" x="285.48" y="244.3638">Data access for analytics</text></g><!--link website to backend--><g id="link_website_backend"><path d="M148.29,262.9369 C150.69,291.4069 155.25,342.3569 160.48,385.7969 C162.97,406.4669 165.5069,424.0168 168.0769,440.7068 " fill="none" id="website-to-backend" style="stroke:#181818;stroke-width:1.0;"/><polygon fill="#181818" points="168.99,446.6369,171.5737,437.133,168.229,441.6951,163.6669,438.3505,168.99,446.6369" style="stroke:#181818;stroke-width:1.0;"/></g><!--link website to lapis--><g id="link_website_lapis"><path d="M163.54,262.9869 C180.32,284.8269 202.1347,313.1989 218.8747,334.9889 " fill="none" id="website-to-lapis" style="stroke:#181818;stroke-width:1.0;"/><polygon fill="#181818" points="222.53,339.7469,220.219,330.173,219.4839,335.7819,213.875,335.0467,222.53,339.7469" style="stroke:#181818;stroke-width:1.0;"/></g><!--link lapis to backend--><g id="link_lapis_backend"><path d="M225.43,385.8069 C214.08,403.6069 201.3764,423.5082 189.9664,441.3982 " fill="none" id="lapis-to-backend" style="stroke:#181818;stroke-width:1.0;"/><polygon fill="#181818" points="186.74,446.4569,194.952,441.0197,189.4286,442.2413,188.2071,436.7179,186.74,446.4569" style="stroke:#181818;stroke-width:1.0;"/></g><!--link backend to insdc--><g id="link_backend_insdc"><path d="M172.48,492.8869 C172.48,510.3269 172.48,529.0569 172.48,549.5469 " fill="none" id="backend-to-insdc" style="stroke:#181818;stroke-width:1.0;"/><polygon fill="#181818" points="172.48,555.5469,176.48,546.5469,172.48,550.5469,168.48,546.5469,172.48,555.5469" style="stroke:#181818;stroke-width:1.0;"/></g><!--SRC=[TL71QiCm3BthAqJlOVST1ijw2PIr4CREZgDsfevTBBbXZFtxdDf9CyPyiVtUqtkoB4OiuSxhQ2DZ7OtjZJjXRRq-u_vAuMfe151QVC0tfe2ACQQzG6ti1YEISPulXMnUs-tBH1Z7lGOu1ZNSmn9ko_4BC2tjXujtv0Gti-QTEZP2cqayvlD_qbhfCxaU6vTYM4BK4aEkx3Brf_BvqBJuW6spszzqLbqCmpV0yX2iggSbU8K6S_gGH1LdVCIj2QG5aoKghOaPO1hJsY2fwk17fiLnKToI9nSbgjJZCKrGEMK_nUZaDfjKzzXVM6u-6wqrCFSuWUKZVW00]--></g></svg>