<svg xmlns="http://www.w3.org/2000/svg" xmlns:xlink="http://www.w3.org/1999/xlink" contentStyleType="text/css" height="645px" preserveAspectRatio="none" style="width:617px;height:645px;background:#FFFFFF;" version="1.1" viewBox="0 0 617 645" width="617px" zoomAndPan="magnify"><title>Loculus LAPIS Building Blocks</title><defs/><g><text fill="#000000" font-family="sans-serif" font-size="14" font-weight="bold" lengthAdjust="spacing" textLength="235.9082" x="184.001" y="22.9951">Loculus LAPIS Building Blocks</text><!--cluster Loculus--><g id="cluster_Loculus"><rect fill="none" height="595" rx="2.5" ry="2.5" style="stroke:#181818;stroke-width:1.0;" width="556" x="7" y="44.2969"/><path d="M76.9033,44.2969 L76.9033,53.5938 L66.9033,63.5938 L7,63.5938 " fill="none" style="stroke:#181818;stroke-width:1.0;"/><text fill="#000000" font-family="sans-serif" font-size="14" font-weight="bold" lengthAdjust="spacing" textLength="59.9033" x="10" y="58.292">Loculus</text></g><!--cluster LAPIS / SILO--><g id="cluster_LAPIS / SILO"><rect fill="none" height="327" rx="2.5" ry="2.5" style="stroke:#181818;stroke-width:1.0;" width="508" x="31" y="187.2969"/><path d="M137.2842,187.2969 L137.2842,196.5938 L127.2842,206.5938 L31,206.5938 " fill="none" style="stroke:#181818;stroke-width:1.0;"/><text fill="#000000" font-family="sans-serif" font-size="14" font-weight="bold" lengthAdjust="spacing" textLength="96.2842" x="34" y="201.292">LAPIS / SILO</text></g><!--entity website--><g id="elem_website"><rect fill="#F1F1F1" height="46.2969" rx="2.5" ry="2.5" style="stroke:#181818;stroke-width:0.5;" width="154.0713" x="376" y="79.2969"/><rect fill="#F1F1F1" height="10" style="stroke:#181818;stroke-width:0.5;" width="15" x="510.0713" y="84.2969"/><rect fill="#F1F1F1" height="2" style="stroke:#181818;stroke-width:0.5;" width="4" x="508.0713" y="86.2969"/><rect fill="#F1F1F1" height="2" style="stroke:#181818;stroke-width:0.5;" width="4" x="508.0713" y="90.2969"/><text fill="#000000" font-family="sans-serif" font-size="14" lengthAdjust="spacing" textLength="114.0713" x="391" y="112.292">Loculus Website</text></g><!--entity backend--><g id="elem_backend"><rect fill="#F1F1F1" height="46.2969" rx="2.5" ry="2.5" style="stroke:#181818;stroke-width:0.5;" width="157.8037" x="56" y="577.2969"/><rect fill="#F1F1F1" height="10" style="stroke:#181818;stroke-width:0.5;" width="15" x="193.8037" y="582.2969"/><rect fill="#F1F1F1" height="2" style="stroke:#181818;stroke-width:0.5;" width="4" x="191.8037" y="584.2969"/><rect fill="#F1F1F1" height="2" style="stroke:#181818;stroke-width:0.5;" width="4" x="191.8037" y="588.2969"/><text fill="#000000" font-family="sans-serif" font-size="14" lengthAdjust="spacing" textLength="117.8037" x="71" y="610.292">Loculus Backend</text></g><!--entity lapis--><g id="elem_lapis"><rect fill="#F1F1F1" height="46.2969" rx="2.5" ry="2.5" style="stroke:#181818;stroke-width:0.5;" width="78.835" x="413.5" y="222.2969"/><rect fill="#F1F1F1" height="10" style="stroke:#181818;stroke-width:0.5;" width="15" x="472.335" y="227.2969"/><rect fill="#F1F1F1" height="2" style="stroke:#181818;stroke-width:0.5;" width="4" x="470.335" y="229.2969"/><rect fill="#F1F1F1" height="2" style="stroke:#181818;stroke-width:0.5;" width="4" x="470.335" y="233.2969"/><text fill="#000000" font-family="sans-serif" font-size="14" lengthAdjust="spacing" textLength="38.835" x="428.5" y="255.292">LAPIS</text></g><!--entity silo--><g id="elem_silo"><rect fill="#F1F1F1" height="46.2969" rx="2.5" ry="2.5" style="stroke:#181818;stroke-width:0.5;" width="98.4336" x="336" y="329.2969"/><rect fill="#F1F1F1" height="10" style="stroke:#181818;stroke-width:0.5;" width="15" x="414.4336" y="334.2969"/><rect fill="#F1F1F1" height="2" style="stroke:#181818;stroke-width:0.5;" width="4" x="412.4336" y="336.2969"/><rect fill="#F1F1F1" height="2" style="stroke:#181818;stroke-width:0.5;" width="4" x="412.4336" y="340.2969"/><text fill="#000000" font-family="sans-serif" font-size="14" lengthAdjust="spacing" textLength="58.4336" x="351" y="362.292">SILO API</text></g><!--entity serialized_data--><g id="elem_serialized_data"><path d="M395.5,459.7969 L395.5,491.0938 A2.5,2.5 0 0 0 398,493.5938 L520.2012,493.5938 A2.5,2.5 0 0 0 522.7012,491.0938 L522.7012,467.2969 L512.7012,457.2969 L398,457.2969 A2.5,2.5 0 0 0 395.5,459.7969 " fill="#F1F1F1" style="stroke:#181818;stroke-width:0.5;"/><path d="M512.7012,457.2969 L512.7012,464.7969 A2.5,2.5 0 0 0 515.2012,467.2969 L522.7012,467.2969 " fill="#F1F1F1" style="stroke:#181818;stroke-width:0.5;"/><text fill="#000000" font-family="sans-serif" font-size="14" lengthAdjust="spacing" textLength="107.2012" x="405.5" y="480.292">Shared Volume</text></g><!--entity silo_prepro--><g id="elem_silo_prepro"><rect fill="#F1F1F1" height="46.2969" rx="2.5" ry="2.5" style="stroke:#181818;stroke-width:0.5;" width="175.2969" x="47.5" y="452.2969"/><rect fill="#F1F1F1" height="10" style="stroke:#181818;stroke-width:0.5;" width="15" x="202.7969" y="457.2969"/><rect fill="#F1F1F1" height="2" style="stroke:#181818;stroke-width:0.5;" width="4" x="200.7969" y="459.2969"/><rect fill="#F1F1F1" height="2" style="stroke:#181818;stroke-width:0.5;" width="4" x="200.7969" y="463.2969"/><text fill="#000000" font-family="sans-serif" font-size="14" lengthAdjust="spacing" textLength="135.2969" x="62.5" y="485.292">SILO preprocessing</text></g><!--entity user--><g id="elem_user"><ellipse cx="594.9551" cy="72.7969" fill="#F1F1F1" rx="8" ry="8" style="stroke:#181818;stroke-width:0.5;"/><path d="M594.9551,80.7969 L594.9551,107.7969 M581.9551,88.7969 L607.9551,88.7969 M594.9551,107.7969 L581.9551,122.7969 M594.9551,107.7969 L607.9551,122.7969 " fill="none" style="stroke:#181818;stroke-width:0.5;"/><text fill="#000000" font-family="sans-serif" font-size="14" lengthAdjust="spacing" textLength="31.9102" x="579" y="137.292">User</text></g><!--link user to lapis--><g id="link_user_lapis"><path d="M581.93,140.4269 C577.05,151.1169 570.76,162.3069 563,171.2969 C543.52,193.8469 520.7052,209.4034 497.8052,222.1234 " fill="none" id="user-to-lapis" style="stroke:#181818;stroke-width:1.0;"/><polygon fill="#181818" points="492.56,225.0369,502.3701,224.1634,496.931,222.609,498.4854,217.1699,492.56,225.0369" style="stroke:#181818;stroke-width:1.0;"/></g><!--link website to lapis--><g id="link_website_lapis"><path d="M453,125.3269 C453,151.6669 453,189.4869 453,215.9569 " fill="none" id="website-to-lapis" style="stroke:#181818;stroke-width:1.0;"/><polygon fill="#181818" points="453,221.9569,457,212.9569,453,216.9569,449,212.9569,453,221.9569" style="stroke:#181818;stroke-width:1.0;"/></g><!--link lapis to silo--><g id="link_lapis_silo"><path d="M438.74,268.3069 C427.22,286.1069 414.3223,306.0313 402.7323,323.9213 " fill="none" id="lapis-to-silo" style="stroke:#181818;stroke-width:1.0;"/><polygon fill="#181818" points="399.47,328.9569,407.7205,323.5783,402.1886,324.7605,401.0064,319.2286,399.47,328.9569" style="stroke:#181818;stroke-width:1.0;"/></g><!--link silo to serialized_data--><g id="link_silo_serialized_data"><path d="M398.57,375.4869 C412.93,398.9569 432.1393,430.3784 445.2593,451.8284 " fill="none" id="silo-to-serialized_data" style="stroke:#181818;stroke-width:1.0;"/><polygon fill="#181818" points="448.39,456.9469,447.1062,447.182,445.7811,452.6815,440.2816,451.3563,448.39,456.9469" style="stroke:#181818;stroke-width:1.0;"/><text fill="#000000" font-family="sans-serif" font-size="13" lengthAdjust="spacing" textLength="163.8838" x="427" y="418.3638">Load new database state</text></g><!--link silo_prepro to serialized_data--><g id="link_silo_prepro_serialized_data"><path d="M222.68,475.2969 C277.22,475.2969 340.1,475.2969 389.4,475.2969 " fill="none" id="silo_prepro-to-serialized_data" style="stroke:#181818;stroke-width:1.0;"/><polygon fill="#181818" points="395.4,475.2969,386.4,471.2969,390.4,475.2969,386.4,479.2969,395.4,475.2969" style="stroke:#181818;stroke-width:1.0;"/><text fill="#000000" font-family="sans-serif" font-size="13" lengthAdjust="spacing" textLength="136.1128" x="241" y="468.3638">Store database state</text></g><!--link silo_prepro to backend--><g id="link_silo_prepro_backend"><path d="M135,498.5669 C135,520.8669 135,548.9569 135,571.1869 " fill="none" id="silo_prepro-to-backend" style="stroke:#181818;stroke-width:1.0;"/><polygon fill="#181818" points="135,577.1869,139,568.1869,135,572.1869,131,568.1869,135,577.1869" style="stroke:#181818;stroke-width:1.0;"/><text fill="#000000" font-family="sans-serif" font-size="13" lengthAdjust="spacing" textLength="172.1421" x="136" y="543.3638">Cronjob fetching new data</text></g><!--SRC=[TLBBRiCW4Bpp5IlkLkyzLAfxYcIfbQosnsWDwvW6WmLObbhbtyl3IUCgyG6pCBCp30GLD45ZnQnd3ytpsww5UbPQAdE0Mbjnz8oX2DR1koS7w66EVyPwX-CVyOT1_8GT9sl81E3dZK_gl0h44t4fytlG6iMHZCpGhinPnXOfNimzGBjhNlcgk6rL496kSLB-1e0dBaHK5l5AsmkeLp47tWxeICA7rVDOJCV3AjJgc-HUOi2xJIT7axE2l8_9NThlot9cdTY9iHGULDNJQd6Dv6ebZxdEzj9GggqFU8pPemH32wIwGq_W0yPusPKmL4uTXd2JtyPBfV_a3LVQnKJgUXcHykAi-R8Tz1J4a5x8MPwnNm00]--></g></svg>