<svg xmlns="http://www.w3.org/2000/svg" xmlns:xlink="http://www.w3.org/1999/xlink" contentStyleType="text/css" height="598px" preserveAspectRatio="none" style="width:851px;height:598px;background:#FFFFFF;" version="1.1" viewBox="0 0 851 598" width="851px" zoomAndPan="magnify"><defs/><g><rect fill="none" height="20.9531" style="stroke:none;stroke-width:1.0;" width="818.8511" x="15" y="12.7451"/><ellipse cx="107.0664" cy="48.6982" fill="#222222" rx="10" ry="10" style="stroke:#222222;stroke-width:1.0;"/><rect fill="#F1F1F1" height="33.9688" rx="12.5" ry="12.5" style="stroke:#181818;stroke-width:0.5;" width="154.5313" x="29.8008" y="78.6982"/><text fill="#000000" font-family="sans-serif" font-size="12" lengthAdjust="spacing" textLength="134.5313" x="39.8008" y="99.8369">Upload sequence data</text><rect fill="#F1F1F1" height="33.9688" rx="12.5" ry="12.5" style="stroke:#181818;stroke-width:0.5;" width="163.8652" x="25.1338" y="456.4795"/><text fill="#000000" font-family="sans-serif" font-size="12" lengthAdjust="spacing" textLength="143.8652" x="35.1338" y="477.6182">Browse data on website</text><rect fill="#F1F1F1" height="33.9688" rx="12.5" ry="12.5" style="stroke:#181818;stroke-width:0.5;" width="172.1328" x="21" y="510.4482"/><text fill="#000000" font-family="sans-serif" font-size="12" lengthAdjust="spacing" textLength="152.1328" x="31" y="531.5869">Download sequence data</text><ellipse cx="107.0664" cy="575.417" fill="none" rx="11" ry="11" style="stroke:#222222;stroke-width:1.0;"/><ellipse cx="107.0664" cy="575.417" fill="#222222" rx="6" ry="6" style="stroke:#222222;stroke-width:1.0;"/><line style="stroke:#000000;stroke-width:1.5;" x1="15" x2="15" y1="12.7451" y2="586.417"/><rect fill="#F1F1F1" height="33.9688" rx="12.5" ry="12.5" style="stroke:#181818;stroke-width:0.5;" width="173.082" x="203.1328" y="132.667"/><text fill="#000000" font-family="sans-serif" font-size="12" lengthAdjust="spacing" textLength="153.082" x="213.1328" y="153.8057">Store new sequence data</text><rect fill="#F1F1F1" height="33.9688" rx="12.5" ry="12.5" style="stroke:#181818;stroke-width:0.5;" width="148.0156" x="215.666" y="348.542"/><text fill="#000000" font-family="sans-serif" font-size="12" lengthAdjust="spacing" textLength="128.0156" x="225.666" y="369.6807">Store processed data</text><line style="stroke:#000000;stroke-width:1.5;" x1="197.1328" x2="197.1328" y1="12.7451" y2="586.417"/><rect fill="#F1F1F1" height="33.9688" rx="12.5" ry="12.5" style="stroke:#181818;stroke-width:0.5;" width="164.4395" x="407.6279" y="186.6357"/><text fill="#000000" font-family="sans-serif" font-size="12" lengthAdjust="spacing" textLength="144.4395" x="417.6279" y="207.7744">Fetch unprocessed data</text><rect fill="#F1F1F1" height="33.9688" rx="12.5" ry="12.5" style="stroke:#181818;stroke-width:0.5;" width="207.2656" x="386.2148" y="240.6045"/><text fill="#000000" font-family="sans-serif" font-size="12" lengthAdjust="spacing" textLength="187.2656" x="396.2148" y="261.7432">Process, enrich and check data</text><rect fill="#F1F1F1" height="33.9688" rx="12.5" ry="12.5" style="stroke:#181818;stroke-width:0.5;" width="158.6035" x="410.5459" y="294.5732"/><text fill="#000000" font-family="sans-serif" font-size="12" lengthAdjust="spacing" textLength="138.6035" x="420.5459" y="315.7119">Submit processed data</text><line style="stroke:#000000;stroke-width:1.5;" x1="380.2148" x2="380.2148" y1="12.7451" y2="586.417"/><rect fill="#F1F1F1" height="33.9688" rx="12.5" ry="12.5" style="stroke:#181818;stroke-width:0.5;" width="224.5098" x="603.4805" y="402.5107"/><text fill="#000000" font-family="sans-serif" font-size="12" lengthAdjust="spacing" textLength="204.5098" x="613.4805" y="423.6494">Load all processed sequence data</text><line style="stroke:#000000;stroke-width:1.5;" x1="597.4805" x2="597.4805" y1="12.7451" y2="586.417"/><line style="stroke:#000000;stroke-width:1.5;" x1="831.9902" x2="831.9902" y1="12.7451" y2="586.417"/><line style="stroke:#181818;stroke-width:1.0;" x1="107.0664" x2="107.0664" y1="58.6982" y2="78.6982"/><polygon fill="#181818" points="103.0664,68.6982,107.0664,78.6982,111.0664,68.6982,107.0664,72.6982" style="stroke:#181818;stroke-width:1.0;"/><line style="stroke:#181818;stroke-width:1.0;" x1="107.0664" x2="107.0664" y1="490.4482" y2="510.4482"/><polygon fill="#181818" points="103.0664,500.4482,107.0664,510.4482,111.0664,500.4482,107.0664,504.4482" style="stroke:#181818;stroke-width:1.0;"/><line style="stroke:#181818;stroke-width:1.0;" x1="107.0664" x2="107.0664" y1="544.417" y2="564.417"/><polygon fill="#181818" points="103.0664,554.417,107.0664,564.417,111.0664,554.417,107.0664,558.417" style="stroke:#181818;stroke-width:1.0;"/><line style="stroke:#181818;stroke-width:1.0;" x1="489.8477" x2="489.8477" y1="220.6045" y2="240.6045"/><polygon fill="#181818" points="485.8477,230.6045,489.8477,240.6045,493.8477,230.6045,489.8477,234.6045" style="stroke:#181818;stroke-width:1.0;"/><line style="stroke:#181818;stroke-width:1.0;" x1="489.8477" x2="489.8477" y1="274.5732" y2="294.5732"/><polygon fill="#181818" points="485.8477,284.5732,489.8477,294.5732,493.8477,284.5732,489.8477,288.5732" style="stroke:#181818;stroke-width:1.0;"/><line style="stroke:#181818;stroke-width:1.0;" x1="107.0664" x2="107.0664" y1="112.667" y2="117.667"/><line style="stroke:#181818;stroke-width:1.0;" x1="107.0664" x2="289.6738" y1="117.667" y2="117.667"/><line style="stroke:#181818;stroke-width:1.0;" x1="289.6738" x2="289.6738" y1="117.667" y2="132.667"/><polygon fill="#181818" points="285.6738,122.667,289.6738,132.667,293.6738,122.667,289.6738,126.667" style="stroke:#181818;stroke-width:1.0;"/><line style="stroke:#181818;stroke-width:1.0;" x1="289.6738" x2="289.6738" y1="166.6357" y2="171.6357"/><line style="stroke:#181818;stroke-width:1.0;" x1="289.6738" x2="489.8477" y1="171.6357" y2="171.6357"/><line style="stroke:#181818;stroke-width:1.0;" x1="489.8477" x2="489.8477" y1="171.6357" y2="186.6357"/><polygon fill="#181818" points="485.8477,176.6357,489.8477,186.6357,493.8477,176.6357,489.8477,180.6357" style="stroke:#181818;stroke-width:1.0;"/><line style="stroke:#181818;stroke-width:1.0;" x1="489.8477" x2="489.8477" y1="328.542" y2="333.542"/><line style="stroke:#181818;stroke-width:1.0;" x1="489.8477" x2="289.6738" y1="333.542" y2="333.542"/><line style="stroke:#181818;stroke-width:1.0;" x1="289.6738" x2="289.6738" y1="333.542" y2="348.542"/><polygon fill="#181818" points="285.6738,338.542,289.6738,348.542,293.6738,338.542,289.6738,342.542" style="stroke:#181818;stroke-width:1.0;"/><line style="stroke:#181818;stroke-width:1.0;" x1="289.6738" x2="289.6738" y1="382.5107" y2="387.5107"/><line style="stroke:#181818;stroke-width:1.0;" x1="289.6738" x2="715.7354" y1="387.5107" y2="387.5107"/><line style="stroke:#181818;stroke-width:1.0;" x1="715.7354" x2="715.7354" y1="387.5107" y2="402.5107"/><polygon fill="#181818" points="711.7354,392.5107,715.7354,402.5107,719.7354,392.5107,715.7354,396.5107" style="stroke:#181818;stroke-width:1.0;"/><line style="stroke:#181818;stroke-width:1.0;" x1="715.7354" x2="715.7354" y1="436.4795" y2="441.4795"/><line style="stroke:#181818;stroke-width:1.0;" x1="715.7354" x2="107.0664" y1="441.4795" y2="441.4795"/><line style="stroke:#181818;stroke-width:1.0;" x1="107.0664" x2="107.0664" y1="441.4795" y2="456.4795"/><polygon fill="#181818" points="103.0664,446.4795,107.0664,456.4795,111.0664,446.4795,107.0664,450.4795" style="stroke:#181818;stroke-width:1.0;"/><text fill="#000000" font-family="sans-serif" font-size="18" lengthAdjust="spacing" textLength="119.9004" x="46.1162" y="29.4531">User/Website</text><text fill="#000000" font-family="sans-serif" font-size="18" lengthAdjust="spacing" textLength="77.6074" x="249.8701" y="29.4531">Backend</text><text fill="#000000" font-family="sans-serif" font-size="18" lengthAdjust="spacing" textLength="203.291" x="387.2021" y="29.4531">Preprocessing Pipeline</text><text fill="#000000" font-family="sans-serif" font-size="18" lengthAdjust="spacing" textLength="96.9258" x="666.2725" y="29.4531">LAPIS/SILO</text><!--SRC=[RP312i8m44Jl-Ohz0A7tUBA8K2WOACLpcYms63SnISab7s-b5THwtNapp4xf8uRgWaCq2GkBIOR4UE-janeYFYOaXQ1badl6IYtL3KaNnhla0W9Xta8Ye0zEOOo6hY2CHsjepkOdJ6g4YLOLzMhXOZdi02cO6P6aGOseRc-WcuQxIV1ht1RQ4kr1D5tLDUrvXjhNLzBQ3svJ_tiGNWUNuwA28yYBC7Swkap_Leh9USQU]--></g></svg>