<svg xmlns="http://www.w3.org/2000/svg" xmlns:xlink="http://www.w3.org/1999/xlink" contentStyleType="text/css" data-diagram-type="DESCRIPTION" height="563px" preserveAspectRatio="none" style="width:844px;height:563px;background:#FFFFFF;" version="1.1" viewBox="0 0 844 563" width="844px" zoomAndPan="magnify"><defs/><g><!--cluster SILO-LAPIS--><g class="cluster" data-entity="SILO-LAPIS" data-source-line="16" data-uid="ent0009" id="cluster_SILO-LAPIS"><rect fill="none" height="254.97" rx="2.5" ry="2.5" style="stroke:#181818;stroke-width:1;" width="168" x="645.22" y="54.2422"/><path d="M736.1438,54.2422 L736.1438,63.7305 L726.1438,73.7305 L645.22,73.7305" fill="none" style="stroke:#181818;stroke-width:1;"/><text fill="#000000" font-family="sans-serif" font-size="14" font-weight="bold" lengthAdjust="spacing" textLength="80.9238" x="648.22" y="68.7773">SILO-LAPIS</text></g><!--entity SILO--><g class="entity" data-entity="SILO" data-source-line="17" data-uid="ent0010" id="entity_SILO"><rect fill="#F1F1F1" height="46.4883" rx="2.5" ry="2.5" style="stroke:#181818;stroke-width:0.5;" width="69.9141" x="727.26" y="246.7322"/><rect fill="#F1F1F1" height="10" style="stroke:#181818;stroke-width:0.5;" width="15" x="777.1741" y="251.7322"/><rect fill="#F1F1F1" height="2" style="stroke:#181818;stroke-width:0.5;" width="4" x="775.1741" y="253.7322"/><rect fill="#F1F1F1" height="2" style="stroke:#181818;stroke-width:0.5;" width="4" x="775.1741" y="257.7322"/><text fill="#000000" font-family="sans-serif" font-size="14" lengthAdjust="spacing" textLength="29.9141" x="742.26" y="280.2673">SILO</text></g><!--entity LAPIS--><g class="entity" data-entity="LAPIS" data-source-line="18" data-uid="ent0011" id="entity_LAPIS"><rect fill="#F1F1F1" height="46.4883" rx="2.5" ry="2.5" style="stroke:#181818;stroke-width:0.5;" width="76.4355" x="661" y="108.2422"/><rect fill="#F1F1F1" height="10" style="stroke:#181818;stroke-width:0.5;" width="15" x="717.4355" y="113.2422"/><rect fill="#F1F1F1" height="2" style="stroke:#181818;stroke-width:0.5;" width="4" x="715.4355" y="115.2422"/><rect fill="#F1F1F1" height="2" style="stroke:#181818;stroke-width:0.5;" width="4" x="715.4355" y="119.2422"/><text fill="#000000" font-family="sans-serif" font-size="14" lengthAdjust="spacing" textLength="36.4355" x="676" y="141.7773">LAPIS</text></g><!--entity Website--><g class="entity" data-entity="Website" data-source-line="2" data-uid="ent0002" id="entity_Website"><rect fill="#F1F1F1" height="46.4883" rx="2.5" ry="2.5" style="stroke:#181818;stroke-width:0.5;" width="149.0332" x="217.7" y="108.2422"/><rect fill="#F1F1F1" height="10" style="stroke:#181818;stroke-width:0.5;" width="15" x="346.7332" y="113.2422"/><rect fill="#F1F1F1" height="2" style="stroke:#181818;stroke-width:0.5;" width="4" x="344.7332" y="115.2422"/><rect fill="#F1F1F1" height="2" style="stroke:#181818;stroke-width:0.5;" width="4" x="344.7332" y="119.2422"/><text fill="#000000" font-family="sans-serif" font-size="14" lengthAdjust="spacing" textLength="109.0332" x="232.7" y="141.7773">Loculus Website</text></g><!--entity Backend--><g class="entity" data-entity="Backend" data-source-line="5" data-uid="ent0003" id="entity_Backend"><rect fill="#F1F1F1" height="46.4883" rx="2.5" ry="2.5" style="stroke:#181818;stroke-width:0.5;" width="152.6631" x="379.89" y="246.7322"/><rect fill="#F1F1F1" height="10" style="stroke:#181818;stroke-width:0.5;" width="15" x="512.5531" y="251.7322"/><rect fill="#F1F1F1" height="2" style="stroke:#181818;stroke-width:0.5;" width="4" x="510.5531" y="253.7322"/><rect fill="#F1F1F1" height="2" style="stroke:#181818;stroke-width:0.5;" width="4" x="510.5531" y="257.7322"/><text fill="#000000" font-family="sans-serif" font-size="14" lengthAdjust="spacing" textLength="112.6631" x="394.89" y="280.2673">Loculus Backend</text></g><!--entity Keycloak--><g class="entity" data-entity="Keycloak" data-source-line="6" data-uid="ent0004" id="entity_Keycloak"><rect fill="#F1F1F1" height="46.4883" rx="2.5" ry="2.5" style="stroke:#181818;stroke-width:0.5;" width="99.9854" x="165.23" y="246.7322"/><rect fill="#F1F1F1" height="10" style="stroke:#181818;stroke-width:0.5;" width="15" x="245.2154" y="251.7322"/><rect fill="#F1F1F1" height="2" style="stroke:#181818;stroke-width:0.5;" width="4" x="243.2154" y="253.7322"/><rect fill="#F1F1F1" height="2" style="stroke:#181818;stroke-width:0.5;" width="4" x="243.2154" y="257.7322"/><text fill="#000000" font-family="sans-serif" font-size="14" lengthAdjust="spacing" textLength="59.9854" x="180.23" y="280.2673">Keycloak</text></g><!--entity Postgres--><g class="entity" data-entity="Postgres" data-source-line="9" data-uid="ent0005" id="entity_Postgres"><rect fill="#F1F1F1" height="46.4883" rx="2.5" ry="2.5" style="stroke:#181818;stroke-width:0.5;" width="121.0742" x="395.68" y="387.2122"/><rect fill="#F1F1F1" height="10" style="stroke:#181818;stroke-width:0.5;" width="15" x="496.7542" y="392.2122"/><rect fill="#F1F1F1" height="2" style="stroke:#181818;stroke-width:0.5;" width="4" x="494.7542" y="394.2122"/><rect fill="#F1F1F1" height="2" style="stroke:#181818;stroke-width:0.5;" width="4" x="494.7542" y="398.2122"/><text fill="#000000" font-family="sans-serif" font-size="14" lengthAdjust="spacing" textLength="81.0742" x="410.68" y="420.7473">Postgres DB</text></g><!--entity S3--><g class="entity" data-entity="S3" data-source-line="10" data-uid="ent0006" id="entity_S3"><rect fill="#F1F1F1" height="46.4883" rx="2.5" ry="2.5" style="stroke:#181818;stroke-width:0.5;" width="56.3926" x="22.02" y="387.2122"/><rect fill="#F1F1F1" height="10" style="stroke:#181818;stroke-width:0.5;" width="15" x="58.4126" y="392.2122"/><rect fill="#F1F1F1" height="2" style="stroke:#181818;stroke-width:0.5;" width="4" x="56.4126" y="394.2122"/><rect fill="#F1F1F1" height="2" style="stroke:#181818;stroke-width:0.5;" width="4" x="56.4126" y="398.2122"/><text fill="#000000" font-family="sans-serif" font-size="14" lengthAdjust="spacing" textLength="16.3926" x="37.02" y="420.7473">S3</text></g><!--entity Preprocessing--><g class="entity" data-entity="Preprocessing" data-source-line="12" data-uid="ent0007" id="entity_Preprocessing"><rect fill="#F1F1F1" height="46.4883" rx="2.5" ry="2.5" style="stroke:#181818;stroke-width:0.5;" width="192.5234" x="155.96" y="510.7022"/><rect fill="#F1F1F1" height="10" style="stroke:#181818;stroke-width:0.5;" width="15" x="328.4834" y="515.7022"/><rect fill="#F1F1F1" height="2" style="stroke:#181818;stroke-width:0.5;" width="4" x="326.4834" y="517.7022"/><rect fill="#F1F1F1" height="2" style="stroke:#181818;stroke-width:0.5;" width="4" x="326.4834" y="521.7022"/><text fill="#000000" font-family="sans-serif" font-size="14" lengthAdjust="spacing" textLength="152.5234" x="170.96" y="544.2373">Preprocessing Pipeline</text></g><!--entity Ingest--><g class="entity" data-entity="Ingest" data-source-line="13" data-uid="ent0008" id="entity_Ingest"><rect fill="#F1F1F1" height="46.4883" rx="2.5" ry="2.5" style="stroke:#181818;stroke-width:0.5;" width="139.0322" x="401.7" y="108.2422"/><rect fill="#F1F1F1" height="10" style="stroke:#181818;stroke-width:0.5;" width="15" x="520.7322" y="113.2422"/><rect fill="#F1F1F1" height="2" style="stroke:#181818;stroke-width:0.5;" width="4" x="518.7322" y="115.2422"/><rect fill="#F1F1F1" height="2" style="stroke:#181818;stroke-width:0.5;" width="4" x="518.7322" y="119.2422"/><text fill="#000000" font-family="sans-serif" font-size="14" lengthAdjust="spacing" textLength="99.0322" x="416.7" y="141.7773">Ingest Pipeline</text></g><!--link Website to Keycloak--><g class="link" data-entity-1="Website" data-entity-2="Keycloak" data-source-line="21" data-uid="lnk12" id="link_Website_Keycloak"><path d="M243.66,155.0322 C232.3,162.7622 221.65,172.5922 215.22,184.7322 C205.15,203.7222 205.6211,222.7711 208.7211,240.5811" fill="none" id="Website-to-Keycloak" style="stroke:#181818;stroke-width:1;"/><polygon fill="#181818" points="209.75,246.4922,212.1474,236.9396,208.8926,241.5663,204.2659,238.3114,209.75,246.4922" style="stroke:#181818;stroke-width:1;"/><text fill="#000000" font-family="sans-serif" font-size="13" lengthAdjust="spacing" textLength="78.0508" x="216.22" y="205.8005">authenticate</text></g><!--reverse link Keycloak to Backend--><g class="link" data-entity-1="Keycloak" data-entity-2="Backend" data-source-line="22" data-uid="lnk14" id="link_Keycloak_Backend"><path d="M271.45,269.9722 C304.42,269.9722 342.18,269.9722 379.47,269.9722" fill="none" id="Keycloak-backto-Backend" style="stroke:#181818;stroke-width:1;"/><polygon fill="#181818" points="265.45,269.9722,274.45,273.9722,270.45,269.9722,274.45,265.9722,265.45,269.9722" style="stroke:#181818;stroke-width:1;"/><text fill="#000000" font-family="sans-serif" font-size="13" lengthAdjust="spacing" textLength="78.0508" x="283.55" y="263.5405">authenticate</text></g><!--link Website to Backend--><g class="link" data-entity-1="Website" data-entity-2="Backend" data-source-line="24" data-uid="lnk15" id="link_Website_Backend"><path d="M307.52,155.2222 C320.55,173.4122 340.56,198.7622 362.22,216.7322 C375.87,228.0522 387.0566,235.3186 402.3666,243.5586" fill="none" id="Website-to-Backend" style="stroke:#181818;stroke-width:1;"/><polygon fill="#181818" points="407.65,246.4022,401.6206,238.6146,403.2472,244.0325,397.8292,245.6591,407.65,246.4022" style="stroke:#181818;stroke-width:1;"/><text fill="#000000" font-family="sans-serif" font-size="13" lengthAdjust="spacing" textLength="43.3545" x="386.9666" y="198.3005">upload</text><text fill="#000000" font-family="sans-serif" font-size="13" lengthAdjust="spacing" textLength="90.8477" x="363.22" y="213.6111">sequence data</text></g><!--link Backend to Preprocessing--><g class="link" data-entity-1="Backend" data-entity-2="Preprocessing" data-source-line="25" data-uid="lnk16" id="link_Backend_Preprocessing"><path d="M529.84,293.6122 C543.89,301.3622 556.82,311.6522 565.22,325.2122 C585.45,357.8722 539.72,428.4622 534.22,433.7022 C483.82,481.8122 414.587,505.4961 354.567,518.3461" fill="none" id="Backend-to-Preprocessing" style="stroke:#181818;stroke-width:1;"/><polygon fill="#181818" points="348.7,519.6022,358.338,521.6294,353.5892,518.5554,356.6632,513.8067,348.7,519.6022" style="stroke:#181818;stroke-width:1;"/><text fill="#000000" font-family="sans-serif" font-size="13" lengthAdjust="spacing" textLength="61.0518" x="583.7563" y="408.0305">fetch new</text><text fill="#000000" font-family="sans-serif" font-size="13" lengthAdjust="spacing" textLength="106.5645" x="561" y="423.3411">sequence entries</text></g><!--reverse link Backend to Preprocessing--><g class="link" data-entity-1="Backend" data-entity-2="Preprocessing" data-source-line="26" data-uid="lnk17" id="link_Backend_Preprocessing"><path d="M387.5204,296.0737 C345.5804,314.5737 298.67,342.5822 270.22,387.2122 C246.1,425.0522 246.64,479.7422 249.33,510.2322" fill="none" id="Backend-backto-Preprocessing" style="stroke:#181818;stroke-width:1;"/><polygon fill="#181818" points="393.01,293.6522,383.1612,293.6247,388.4353,295.6701,386.3899,300.9442,393.01,293.6522" style="stroke:#181818;stroke-width:1;"/><text fill="#000000" font-family="sans-serif" font-size="13" lengthAdjust="spacing" textLength="102.2861" x="273.3592" y="408.0305">submit enriched</text><text fill="#000000" font-family="sans-serif" font-size="13" lengthAdjust="spacing" textLength="106.5645" x="271.22" y="423.3411">sequence entries</text></g><!--link Backend to Postgres--><g class="link" data-entity-1="Backend" data-entity-2="Postgres" data-source-line="27" data-uid="lnk18" id="link_Backend_Postgres"><path d="M454.3265,299.6412 C453.7365,309.3612 453.51,314.8422 453.22,325.2122 C452.83,339.4322 452.81,343.0022 453.22,357.2122 C453.5,366.9322 453.6986,371.6637 454.2686,380.8537" fill="none" id="Backend-Postgres" style="stroke:#181818;stroke-width:1;"/><polygon fill="#181818" points="454.69,293.6522,450.1521,302.3933,454.3871,298.643,458.1374,302.878,454.69,293.6522" style="stroke:#181818;stroke-width:1;"/><polygon fill="#181818" points="454.64,386.8422,458.0752,377.6118,454.3305,381.8518,450.0905,378.1071,454.64,386.8422" style="stroke:#181818;stroke-width:1;"/><text fill="#000000" font-family="sans-serif" font-size="13" lengthAdjust="spacing" textLength="42.6182" x="486.1931" y="338.7805">persist</text><text fill="#000000" font-family="sans-serif" font-size="13" lengthAdjust="spacing" textLength="106.5645" x="454.22" y="354.0911">sequence entries</text></g><!--link Ingest to Backend--><g class="link" data-entity-1="Ingest" data-entity-2="Backend" data-source-line="28" data-uid="lnk19" id="link_Ingest_Backend"><path d="M468.74,155.0222 C465.96,180.3122 462.1351,215.1281 459.3551,240.4381" fill="none" id="Ingest-to-Backend" style="stroke:#181818;stroke-width:1;"/><polygon fill="#181818" points="458.7,246.4022,463.6587,237.8927,459.2459,241.4321,455.7065,237.0193,458.7,246.4022" style="stroke:#181818;stroke-width:1;"/><text fill="#000000" font-family="sans-serif" font-size="13" lengthAdjust="spacing" textLength="155.2446" x="466.06" y="205.8005">new Genbank sequences</text></g><!--link Backend to SILO--><g class="link" data-entity-1="Backend" data-entity-2="SILO" data-source-line="30" data-uid="lnk20" id="link_Backend_SILO"><path d="M533.04,269.9722 C595.18,269.9722 673.83,269.9722 720.92,269.9722" fill="none" id="Backend-to-SILO" style="stroke:#181818;stroke-width:1;"/><polygon fill="#181818" points="726.92,269.9722,717.92,265.9722,721.92,269.9722,717.92,273.9722,726.92,269.9722" style="stroke:#181818;stroke-width:1;"/><text fill="#000000" font-family="sans-serif" font-size="13" lengthAdjust="spacing" textLength="158.0757" x="550.91" y="263.5405">provide sequence entries</text></g><!--link LAPIS to Website--><g class="link" data-entity-1="LAPIS" data-entity-2="Website" data-source-line="31" data-uid="lnk21" id="link_LAPIS_Website"><path d="M676.74,108.1622 C652.09,84.4322 610.1,49.1622 565.72,34.7822 C488.83,9.8622 457.2,11.4922 384.22,46.2422 C354.34,60.4622 331.3899,83.2754 314.5199,103.1754" fill="none" id="LAPIS-to-Website" style="stroke:#181818;stroke-width:1;"/><polygon fill="#181818" points="310.64,107.7522,319.511,103.4737,313.8732,103.9382,313.4087,98.3005,310.64,107.7522" style="stroke:#181818;stroke-width:1;"/><text fill="#000000" font-family="sans-serif" font-size="13" lengthAdjust="spacing" textLength="99.0488" x="465.72" y="19.8105">sequence query</text><text fill="#000000" font-family="sans-serif" font-size="13" lengthAdjust="spacing" textLength="42.5039" x="493.9925" y="35.1211">results</text></g><!--reverse link LAPIS to SILO--><g class="link" data-entity-1="LAPIS" data-entity-2="SILO" data-source-line="32" data-uid="lnk22" id="link_LAPIS_SILO"><path d="M712.1357,160.4693 C723.8157,185.7593 740.12,221.0922 751.8,246.4022" fill="none" id="LAPIS-backto-SILO" style="stroke:#181818;stroke-width:1;"/><polygon fill="#181818" points="709.62,155.0222,709.7622,164.87,711.7164,159.5615,717.025,161.5157,709.62,155.0222" style="stroke:#181818;stroke-width:1;"/><text fill="#000000" font-family="sans-serif" font-size="13" lengthAdjust="spacing" textLength="99.0488" x="737.36" y="198.3005">sequence query</text><text fill="#000000" font-family="sans-serif" font-size="13" lengthAdjust="spacing" textLength="42.5039" x="765.6325" y="213.6111">results</text></g><!--link Website to S3--><g class="link" data-entity-1="Website" data-entity-2="S3" data-source-line="34" data-uid="lnk23" id="link_Website_S3"><path d="M217.21,141.2222 C157.03,152.6222 76.23,178.8022 36.22,238.7322 C6,283.9922 23.9193,346.2083 37.8593,381.1983" fill="none" id="Website-to-S3" style="stroke:#181818;stroke-width:1;"/><polygon fill="#181818" points="40.08,386.7722,40.465,376.9309,38.2295,382.1272,33.0331,379.8917,40.08,386.7722" style="stroke:#181818;stroke-width:1;"/><text fill="#000000" font-family="sans-serif" font-size="13" lengthAdjust="spacing" textLength="110.3223" x="37.22" y="275.0405">upload extra files</text></g><!--link Backend to S3--><g class="link" data-entity-1="Backend" data-entity-2="S3" data-source-line="35" data-uid="lnk24" id="link_Backend_S3"><path d="M384.57,293.6722 C353.44,302.5822 316.35,311.9222 282.22,317.2122 C263.97,320.0522 132.62,316.7322 116.22,325.2122 C90.47,338.5322 74.4407,361.6173 63.6207,381.7473" fill="none" id="Backend-to-S3" style="stroke:#181818;stroke-width:1;"/><polygon fill="#181818" points="60.78,387.0322,68.5643,380.9986,63.1472,382.6281,61.5177,377.211,60.78,387.0322" style="stroke:#181818;stroke-width:1;"/><text fill="#000000" font-family="sans-serif" font-size="13" lengthAdjust="spacing" textLength="108.6909" x="117.22" y="346.2805">set files to public</text></g><!--link S3 to Preprocessing--><g class="link" data-entity-1="S3" data-entity-2="Preprocessing" data-source-line="36" data-uid="lnk25" id="link_S3_Preprocessing"><path d="M42.32,434.0022 C38.68,448.7722 37.11,467.6922 47.22,480.7022 C61.14,498.6122 103.4378,510.323 149.5978,518.763" fill="none" id="S3-to-Preprocessing" style="stroke:#181818;stroke-width:1;"/><polygon fill="#181818" points="155.5,519.8422,147.3662,514.2887,150.5815,518.9429,145.9273,522.1582,155.5,519.8422" style="stroke:#181818;stroke-width:1;"/><text fill="#000000" font-family="sans-serif" font-size="13" lengthAdjust="spacing" textLength="177.0806" x="48.22" y="477.2705">provide user submitted files</text></g><!--SRC=[VLFBQiCm4BphAvRUTShDb493eOG66l2XbrnaUMsBE98hhPg6qd-lRCklkCGNwp4ptfd1qfmRer4JFEoDzBLty86PKuGF8COrOsHAf0ej_308ZrpJjaAUKESTBQvle6zubRKH9_RBs4pWO1oL5XsyR3loi9zXqisIOR6nHg9pIfTmK0tMIlS3Bwxcd9qkqT4It9ynnWehpWZfRl_Ezy-7NRfosLxT77N0rahC23X_6Yr20iA7l3GfAK9-CH3WDHPq1pU9vUQY0t0W9k2RGCYFsk6dHoqHSa5Y4WxOPIm954Yo0esN6IbyoQgGxS1xv7p5SpuxAmfGgsI5-Lrs77FiC846hLEE_c752lZ2LXWFNb5dGfzWO3Ws-RAghDh4sWQ2k3LVAaTOQVUrjT93Wia42YzxFUemdwzfmCRPE-4xuAcHCCDcg07mcwo0GjMpD7Y4EAJ-1iX0uxDQIPPknaeNSK-Ml0j_LnyzOHwb_m00]--></g></svg>