<svg xmlns="http://www.w3.org/2000/svg" xmlns:xlink="http://www.w3.org/1999/xlink" contentStyleType="text/css" data-diagram-type="DESCRIPTION" height="496px" preserveAspectRatio="none" style="width:853px;height:496px;background:#FFFFFF;" version="1.1" viewBox="0 0 853 496" width="853px" zoomAndPan="magnify"><defs/><g><!--cluster SILO-LAPIS--><g class="cluster" data-entity="SILO-LAPIS" data-source-line="16" data-uid="ent0009" id="cluster_SILO-LAPIS"><rect fill="none" height="97.49" rx="2.5" ry="2.5" style="stroke:#181818;stroke-width:1;" width="314" x="290.2" y="7"/><path d="M381.1238,7 L381.1238,16.4883 L371.1238,26.4883 L290.2,26.4883" fill="none" style="stroke:#181818;stroke-width:1;"/><text fill="#000000" font-family="sans-serif" font-size="14" font-weight="bold" lengthAdjust="spacing" textLength="80.9238" x="293.2" y="21.5352">SILO-LAPIS</text></g><!--entity SILO--><g class="entity" data-entity="SILO" data-source-line="17" data-uid="ent0010" id="entity_SILO"><rect fill="#F1F1F1" height="46.4883" rx="2.5" ry="2.5" style="stroke:#181818;stroke-width:0.5;" width="69.9141" x="518.24" y="42"/><rect fill="#F1F1F1" height="10" style="stroke:#181818;stroke-width:0.5;" width="15" x="568.1541" y="47"/><rect fill="#F1F1F1" height="2" style="stroke:#181818;stroke-width:0.5;" width="4" x="566.1541" y="49"/><rect fill="#F1F1F1" height="2" style="stroke:#181818;stroke-width:0.5;" width="4" x="566.1541" y="53"/><text fill="#000000" font-family="sans-serif" font-size="14" lengthAdjust="spacing" textLength="29.9141" x="533.24" y="75.5352">SILO</text></g><!--entity LAPIS--><g class="entity" data-entity="LAPIS" data-source-line="18" data-uid="ent0011" id="entity_LAPIS"><rect fill="#F1F1F1" height="46.4883" rx="2.5" ry="2.5" style="stroke:#181818;stroke-width:0.5;" width="76.4355" x="305.98" y="42"/><rect fill="#F1F1F1" height="10" style="stroke:#181818;stroke-width:0.5;" width="15" x="362.4155" y="47"/><rect fill="#F1F1F1" height="2" style="stroke:#181818;stroke-width:0.5;" width="4" x="360.4155" y="49"/><rect fill="#F1F1F1" height="2" style="stroke:#181818;stroke-width:0.5;" width="4" x="360.4155" y="53"/><text fill="#000000" font-family="sans-serif" font-size="14" lengthAdjust="spacing" textLength="36.4355" x="320.98" y="75.5352">LAPIS</text></g><!--entity Website--><g class="entity" data-entity="Website" data-source-line="2" data-uid="ent0002" id="entity_Website"><rect fill="#F1F1F1" height="46.4883" rx="2.5" ry="2.5" style="stroke:#181818;stroke-width:0.5;" width="149.0332" x="21.68" y="42"/><rect fill="#F1F1F1" height="10" style="stroke:#181818;stroke-width:0.5;" width="15" x="150.7132" y="47"/><rect fill="#F1F1F1" height="2" style="stroke:#181818;stroke-width:0.5;" width="4" x="148.7132" y="49"/><rect fill="#F1F1F1" height="2" style="stroke:#181818;stroke-width:0.5;" width="4" x="148.7132" y="53"/><text fill="#000000" font-family="sans-serif" font-size="14" lengthAdjust="spacing" textLength="109.0332" x="36.68" y="75.5352">Loculus Website</text></g><!--entity Backend--><g class="entity" data-entity="Backend" data-source-line="5" data-uid="ent0003" id="entity_Backend"><rect fill="#F1F1F1" height="46.4883" rx="2.5" ry="2.5" style="stroke:#181818;stroke-width:0.5;" width="152.6631" x="364.86" y="182.49"/><rect fill="#F1F1F1" height="10" style="stroke:#181818;stroke-width:0.5;" width="15" x="497.5231" y="187.49"/><rect fill="#F1F1F1" height="2" style="stroke:#181818;stroke-width:0.5;" width="4" x="495.5231" y="189.49"/><rect fill="#F1F1F1" height="2" style="stroke:#181818;stroke-width:0.5;" width="4" x="495.5231" y="193.49"/><text fill="#000000" font-family="sans-serif" font-size="14" lengthAdjust="spacing" textLength="112.6631" x="379.86" y="216.0252">Loculus Backend</text></g><!--entity Keycloak--><g class="entity" data-entity="Keycloak" data-source-line="6" data-uid="ent0004" id="entity_Keycloak"><rect fill="#F1F1F1" height="46.4883" rx="2.5" ry="2.5" style="stroke:#181818;stroke-width:0.5;" width="99.9854" x="150.2" y="182.49"/><rect fill="#F1F1F1" height="10" style="stroke:#181818;stroke-width:0.5;" width="15" x="230.1854" y="187.49"/><rect fill="#F1F1F1" height="2" style="stroke:#181818;stroke-width:0.5;" width="4" x="228.1854" y="189.49"/><rect fill="#F1F1F1" height="2" style="stroke:#181818;stroke-width:0.5;" width="4" x="228.1854" y="193.49"/><text fill="#000000" font-family="sans-serif" font-size="14" lengthAdjust="spacing" textLength="59.9854" x="165.2" y="216.0252">Keycloak</text></g><!--entity Postgres--><g class="entity" data-entity="Postgres" data-source-line="9" data-uid="ent0005" id="entity_Postgres"><rect fill="#F1F1F1" height="46.4883" rx="2.5" ry="2.5" style="stroke:#181818;stroke-width:0.5;" width="121.0742" x="380.66" y="320.97"/><rect fill="#F1F1F1" height="10" style="stroke:#181818;stroke-width:0.5;" width="15" x="481.7342" y="325.97"/><rect fill="#F1F1F1" height="2" style="stroke:#181818;stroke-width:0.5;" width="4" x="479.7342" y="327.97"/><rect fill="#F1F1F1" height="2" style="stroke:#181818;stroke-width:0.5;" width="4" x="479.7342" y="331.97"/><text fill="#000000" font-family="sans-serif" font-size="14" lengthAdjust="spacing" textLength="81.0742" x="395.66" y="354.5052">Postgres DB</text></g><!--entity S3--><g class="entity" data-entity="S3" data-source-line="10" data-uid="ent0006" id="entity_S3"><rect fill="#F1F1F1" height="46.4883" rx="2.5" ry="2.5" style="stroke:#181818;stroke-width:0.5;" width="56.3926" x="7" y="320.97"/><rect fill="#F1F1F1" height="10" style="stroke:#181818;stroke-width:0.5;" width="15" x="43.3926" y="325.97"/><rect fill="#F1F1F1" height="2" style="stroke:#181818;stroke-width:0.5;" width="4" x="41.3926" y="327.97"/><rect fill="#F1F1F1" height="2" style="stroke:#181818;stroke-width:0.5;" width="4" x="41.3926" y="331.97"/><text fill="#000000" font-family="sans-serif" font-size="14" lengthAdjust="spacing" textLength="16.3926" x="22" y="354.5052">S3</text></g><!--entity Preprocessing--><g class="entity" data-entity="Preprocessing" data-source-line="12" data-uid="ent0007" id="entity_Preprocessing"><rect fill="#F1F1F1" height="46.4883" rx="2.5" ry="2.5" style="stroke:#181818;stroke-width:0.5;" width="192.5234" x="140.93" y="444.46"/><rect fill="#F1F1F1" height="10" style="stroke:#181818;stroke-width:0.5;" width="15" x="313.4534" y="449.46"/><rect fill="#F1F1F1" height="2" style="stroke:#181818;stroke-width:0.5;" width="4" x="311.4534" y="451.46"/><rect fill="#F1F1F1" height="2" style="stroke:#181818;stroke-width:0.5;" width="4" x="311.4534" y="455.46"/><text fill="#000000" font-family="sans-serif" font-size="14" lengthAdjust="spacing" textLength="152.5234" x="155.93" y="477.9952">Preprocessing Pipeline</text></g><!--entity Ingest--><g class="entity" data-entity="Ingest" data-source-line="13" data-uid="ent0008" id="entity_Ingest"><rect fill="#F1F1F1" height="46.4883" rx="2.5" ry="2.5" style="stroke:#181818;stroke-width:0.5;" width="139.0322" x="708.68" y="182.49"/><rect fill="#F1F1F1" height="10" style="stroke:#181818;stroke-width:0.5;" width="15" x="827.7122" y="187.49"/><rect fill="#F1F1F1" height="2" style="stroke:#181818;stroke-width:0.5;" width="4" x="825.7122" y="189.49"/><rect fill="#F1F1F1" height="2" style="stroke:#181818;stroke-width:0.5;" width="4" x="825.7122" y="193.49"/><text fill="#000000" font-family="sans-serif" font-size="14" lengthAdjust="spacing" textLength="99.0322" x="723.68" y="216.0252">Ingest Pipeline</text></g><!--link Website to Keycloak--><g class="link" data-entity-1="Website" data-entity-2="Keycloak" data-source-line="21" data-uid="lnk12" id="link_Website_Keycloak"><path d="M113.14,88.8 C132.48,114.55 160.3279,151.6316 179.6579,177.3816" fill="none" id="Website-to-Keycloak" style="stroke:#181818;stroke-width:1;"/><polygon fill="#181818" points="183.26,182.18,181.0558,172.581,180.2583,178.1813,174.6579,177.3837,183.26,182.18" style="stroke:#181818;stroke-width:1;"/><text fill="#000000" font-family="sans-serif" font-size="13" lengthAdjust="spacing" textLength="78.0508" x="161.57" y="141.5584">authenticate</text></g><!--reverse link Keycloak to Backend--><g class="link" data-entity-1="Keycloak" data-entity-2="Backend" data-source-line="22" data-uid="lnk14" id="link_Keycloak_Backend"><path d="M256.42,205.73 C289.39,205.73 327.15,205.73 364.44,205.73" fill="none" id="Keycloak-backto-Backend" style="stroke:#181818;stroke-width:1;"/><polygon fill="#181818" points="250.42,205.73,259.42,209.73,255.42,205.73,259.42,201.73,250.42,205.73" style="stroke:#181818;stroke-width:1;"/><text fill="#000000" font-family="sans-serif" font-size="13" lengthAdjust="spacing" textLength="78.0508" x="268.53" y="199.2984">authenticate</text></g><!--link Website to Backend--><g class="link" data-entity-1="Website" data-entity-2="Backend" data-source-line="24" data-uid="lnk15" id="link_Website_Backend"><path d="M162.78,88.89 C189.49,98.26 220.45,109.5 248.2,120.49 C297.65,140.08 347.7729,162.138 386.5429,179.668" fill="none" id="Website-to-Backend" style="stroke:#181818;stroke-width:1;"/><polygon fill="#181818" points="392.01,182.14,385.4573,174.7873,387.4541,180.08,382.1613,182.0768,392.01,182.14" style="stroke:#181818;stroke-width:1;"/><text fill="#000000" font-family="sans-serif" font-size="13" lengthAdjust="spacing" textLength="43.3545" x="347.7566" y="134.0584">upload</text><text fill="#000000" font-family="sans-serif" font-size="13" lengthAdjust="spacing" textLength="90.8477" x="324.01" y="149.3689">sequence data</text></g><!--link Backend to Preprocessing--><g class="link" data-entity-1="Backend" data-entity-2="Preprocessing" data-source-line="25" data-uid="lnk16" id="link_Backend_Preprocessing"><path d="M517.26,229.39 C530.34,236.73 542.26,246.37 550.2,258.97 C570.63,291.43 525.23,361.7 519.2,367.46 C468.79,415.57 399.5671,439.2541 339.5371,452.1041" fill="none" id="Backend-to-Preprocessing" style="stroke:#181818;stroke-width:1;"/><polygon fill="#181818" points="333.67,453.36,343.3079,455.3875,338.5592,452.3134,341.6334,447.5647,333.67,453.36" style="stroke:#181818;stroke-width:1;"/><text fill="#000000" font-family="sans-serif" font-size="13" lengthAdjust="spacing" textLength="61.0518" x="569.0163" y="341.7884">fetch new</text><text fill="#000000" font-family="sans-serif" font-size="13" lengthAdjust="spacing" textLength="106.5645" x="546.26" y="357.0989">sequence entries</text></g><!--reverse link Backend to Preprocessing--><g class="link" data-entity-1="Backend" data-entity-2="Preprocessing" data-source-line="26" data-uid="lnk17" id="link_Backend_Preprocessing"><path d="M371.1466,231.7201 C329.4466,249.8301 283.38,277.14 255.2,320.97 C230.93,358.71 231.52,413.44 234.26,443.96" fill="none" id="Backend-backto-Preprocessing" style="stroke:#181818;stroke-width:1;"/><polygon fill="#181818" points="376.65,229.33,366.8015,229.2462,372.0638,231.3217,369.9883,236.5841,376.65,229.33" style="stroke:#181818;stroke-width:1;"/><text fill="#000000" font-family="sans-serif" font-size="13" lengthAdjust="spacing" textLength="102.2861" x="258.3392" y="341.7884">submit enriched</text><text fill="#000000" font-family="sans-serif" font-size="13" lengthAdjust="spacing" textLength="106.5645" x="256.2" y="357.0989">sequence entries</text></g><!--link Backend to Postgres--><g class="link" data-entity-1="Backend" data-entity-2="Postgres" data-source-line="27" data-uid="lnk18" id="link_Backend_Postgres"><path d="M439.2386,235.3385 C438.6686,244.5285 438.48,249.26 438.2,258.97 C437.79,273.19 437.79,276.76 438.2,290.97 C438.48,300.69 438.6686,305.4215 439.2386,314.6115" fill="none" id="Backend-Postgres" style="stroke:#181818;stroke-width:1;"/><polygon fill="#181818" points="439.61,229.35,435.0605,238.0851,439.3005,234.3404,443.0452,238.5804,439.61,229.35" style="stroke:#181818;stroke-width:1;"/><polygon fill="#181818" points="439.61,320.6,443.0452,311.3696,439.3005,315.6096,435.0605,311.8649,439.61,320.6" style="stroke:#181818;stroke-width:1;"/><text fill="#000000" font-family="sans-serif" font-size="13" lengthAdjust="spacing" textLength="42.6182" x="471.1731" y="272.5384">persist</text><text fill="#000000" font-family="sans-serif" font-size="13" lengthAdjust="spacing" textLength="106.5645" x="439.2" y="287.8489">sequence entries</text></g><!--reverse link Backend to Ingest--><g class="link" data-entity-1="Backend" data-entity-2="Ingest" data-source-line="28" data-uid="lnk20" id="link_Backend_Ingest"><path d="M523.67,205.73 C580.96,205.73 652.72,205.73 708.34,205.73" fill="none" id="Backend-backto-Ingest" style="stroke:#181818;stroke-width:1;"/><polygon fill="#181818" points="517.67,205.73,526.67,209.73,522.67,205.73,526.67,201.73,517.67,205.73" style="stroke:#181818;stroke-width:1;"/><text fill="#000000" font-family="sans-serif" font-size="13" lengthAdjust="spacing" textLength="155.2446" x="535.6" y="199.2984">new Genbank sequences</text></g><!--reverse link SILO to Backend--><g class="link" data-entity-1="SILO" data-entity-2="Backend" data-source-line="30" data-uid="lnk22" id="link_SILO_Backend"><path d="M531.1776,93.4657 C510.3576,119.2157 480.26,156.43 459.43,182.18" fill="none" id="SILO-backto-Backend" style="stroke:#181818;stroke-width:1;"/><polygon fill="#181818" points="534.95,88.8,526.1809,93.2836,531.8063,92.6881,532.4018,98.3135,534.95,88.8" style="stroke:#181818;stroke-width:1;"/><text fill="#000000" font-family="sans-serif" font-size="13" lengthAdjust="spacing" textLength="47.3979" x="537.8133" y="134.0584">provide</text><text fill="#000000" font-family="sans-serif" font-size="13" lengthAdjust="spacing" textLength="106.5645" x="508.23" y="149.3689">sequence entries</text></g><!--reverse link Website to LAPIS--><g class="link" data-entity-1="Website" data-entity-2="LAPIS" data-source-line="31" data-uid="lnk24" id="link_Website_LAPIS"><path d="M176.94,65.24 C221.3,65.24 269.69,65.24 305.56,65.24" fill="none" id="Website-backto-LAPIS" style="stroke:#181818;stroke-width:1;"/><polygon fill="#181818" points="170.94,65.24,179.94,69.24,175.94,65.24,179.94,61.24,170.94,65.24" style="stroke:#181818;stroke-width:1;"/><text fill="#000000" font-family="sans-serif" font-size="13" lengthAdjust="spacing" textLength="99.0488" x="188.85" y="43.8084">sequence query</text><text fill="#000000" font-family="sans-serif" font-size="13" lengthAdjust="spacing" textLength="42.5039" x="217.1225" y="59.1189">results</text></g><!--reverse link LAPIS to SILO--><g class="link" data-entity-1="LAPIS" data-entity-2="SILO" data-source-line="32" data-uid="lnk25" id="link_LAPIS_SILO"><path d="M388.53,65.24 C427.18,65.24 480.35,65.24 517.89,65.24" fill="none" id="LAPIS-backto-SILO" style="stroke:#181818;stroke-width:1;"/><polygon fill="#181818" points="382.53,65.24,391.53,69.24,387.53,65.24,391.53,61.24,382.53,65.24" style="stroke:#181818;stroke-width:1;"/><text fill="#000000" font-family="sans-serif" font-size="13" lengthAdjust="spacing" textLength="99.0488" x="400.83" y="43.8084">sequence query</text><text fill="#000000" font-family="sans-serif" font-size="13" lengthAdjust="spacing" textLength="42.5039" x="429.1025" y="59.1189">results</text></g><!--link Website to S3--><g class="link" data-entity-1="Website" data-entity-2="S3" data-source-line="34" data-uid="lnk26" id="link_Website_S3"><path d="M76,88.72 C57.65,110.79 31.85,146.31 21.2,182.49 C7.15,230.18 17.7033,283.2291 26.4833,314.8191" fill="none" id="Website-to-S3" style="stroke:#181818;stroke-width:1;"/><polygon fill="#181818" points="28.09,320.6,29.5338,310.8576,26.7511,315.7826,21.826,312.9998,28.09,320.6" style="stroke:#181818;stroke-width:1;"/><text fill="#000000" font-family="sans-serif" font-size="13" lengthAdjust="spacing" textLength="110.3223" x="22.2" y="210.7984">upload extra files</text></g><!--link Backend to S3--><g class="link" data-entity-1="Backend" data-entity-2="S3" data-source-line="35" data-uid="lnk27" id="link_Backend_S3"><path d="M364.42,217.07 C267.66,230.32 112.49,252.37 101.2,258.97 C76.5,273.42 60.5819,295.7464 49.4719,315.4064" fill="none" id="Backend-to-S3" style="stroke:#181818;stroke-width:1;"/><polygon fill="#181818" points="46.52,320.63,54.4303,314.7625,48.9799,316.277,47.4654,310.8266,46.52,320.63" style="stroke:#181818;stroke-width:1;"/><text fill="#000000" font-family="sans-serif" font-size="13" lengthAdjust="spacing" textLength="108.6909" x="102.2" y="280.0384">set files to public</text></g><!--link S3 to Preprocessing--><g class="link" data-entity-1="S3" data-entity-2="Preprocessing" data-source-line="36" data-uid="lnk28" id="link_S3_Preprocessing"><path d="M27.3,367.76 C23.65,382.53 22.08,401.45 32.2,414.46 C46.11,432.37 88.4078,444.0811 134.5778,452.5211" fill="none" id="S3-to-Preprocessing" style="stroke:#181818;stroke-width:1;"/><polygon fill="#181818" points="140.48,453.6,132.346,448.0468,135.5615,452.7009,130.9074,455.9164,140.48,453.6" style="stroke:#181818;stroke-width:1;"/><text fill="#000000" font-family="sans-serif" font-size="13" lengthAdjust="spacing" textLength="177.0806" x="33.2" y="411.0284">provide user submitted files</text></g><!--SRC=[VLFBQiCm4BphAvRUTShDX493eOG66l2XbrnaUMsBE98hhPg6qd-lObj-n26-M8-PySuCbkRK68sQu6bdfA-zWq_Cd29y0Z6i6IDJ8bLeuPT1UEIIjX7oY3flQVtw1lgE5raRSMH_Z4q4ziPHQT71wwObn_q4awxc38kDDHATKxg4lMgmLheRU7OrvMnrYOxcuEwCCLPOSK98jxiFldlPRzE5o-lLpL4Bl5hfCmBEdmUBa83m8IzDIegGNny8y1eBUe0RnN9prW4OYGdu9X3oWtRuvL5BX5oG68K3TXvB0WMIh43ZUK8ANx8gP1jvQyuNFEUpaw80jKfMc3zazsCE7IRGe7NAqHrMNq7COBGMHeGtr9dGHuWinqPllWdmQmL1tPflbUCTzQwuA1vpJ0P122zxEUWmfQyfujVSgh8Ytie_G8_5X4bMiGt07x822bLFGk4zn25rDq066f_LIh9qjMngC0NUXH-iIvymxsN_0G00]--></g></svg>